<svg width="267" height="194" viewBox="0 0 267 194" fill="none" xmlns="http://www.w3.org/2000/svg">
<g clip-path="url(#clip0_5_309)">
<path d="M231.72 50.2988C231.72 50.2988 231.525 50.4609 231.428 50.5303C230.477 51.2714 229.526 52.0356 228.599 52.8461C228.502 52.9388 228.404 53.0314 228.282 53.124C227.307 54.004 226.332 54.9072 225.405 55.8566L197.757 40.5956C198.123 40.2251 198.488 39.8777 198.83 39.5303C199.269 39.1135 199.683 38.6967 200.122 38.303C200.293 38.164 200.463 38.0019 200.61 37.863C200.707 37.7704 200.805 37.6777 200.927 37.5851C201.122 37.423 201.317 37.2377 201.512 37.0756C201.975 36.6588 202.463 36.2651 202.95 35.8946C203.218 35.6861 203.487 35.4777 203.755 35.2693C203.852 35.1998 203.95 35.1072 204.047 35.0377C204.169 34.9451 204.291 34.8525 204.389 34.7598C204.876 34.3893 205.364 34.0419 205.852 33.6946C206.242 33.4167 206.656 33.1388 207.071 32.884C207.119 32.8609 207.168 32.8146 207.193 32.7914L207.29 32.7219C207.753 32.4209 208.241 32.1198 208.704 31.8419C209.167 31.564 209.631 31.2861 210.094 31.0314C210.191 30.9619 210.313 30.9156 210.411 30.8461C210.752 30.6609 211.118 30.4756 211.459 30.2904C211.801 30.1283 212.118 29.9662 212.459 29.804C212.532 29.7577 212.605 29.7346 212.703 29.6883C212.752 29.6883 212.776 29.6419 212.825 29.6419C213.264 29.4335 213.702 29.2251 214.166 29.0398C214.336 28.9704 214.507 28.9009 214.653 28.8314C214.775 28.7851 214.921 28.7156 215.043 28.6693C215.19 28.623 215.336 28.5535 215.458 28.5072C215.897 28.3451 216.336 28.183 216.75 28.044C216.823 28.044 216.872 27.9977 216.945 27.9977C217.043 27.9746 217.14 27.9283 217.238 27.9051C217.506 27.8125 217.774 27.7198 218.042 27.6504C218.384 27.5577 218.725 27.4651 219.066 27.3725C219.115 27.3725 219.188 27.3493 219.237 27.3262H219.31C219.749 27.2104 220.163 27.1177 220.578 27.0251C220.749 27.0019 220.895 26.9788 221.066 26.9556C221.187 26.9556 221.334 26.9093 221.456 26.8862C221.578 26.8862 221.724 26.8398 221.846 26.8167C222.285 26.7704 222.699 26.724 223.138 26.7009C223.162 26.7009 223.211 26.7009 223.236 26.7009C223.333 26.7009 223.406 26.7009 223.504 26.7009C223.821 26.7009 224.138 26.6777 224.455 26.6777C224.625 26.6777 224.82 26.6777 224.991 26.6777C225.162 26.6777 225.308 26.6777 225.479 26.6777C225.601 26.6777 225.722 26.6777 225.844 26.6777C226.283 26.7241 226.722 26.7704 227.161 26.8398L227.356 26.8862C228.014 27.0019 228.624 27.164 229.209 27.3725C229.209 27.3725 229.258 27.3725 229.258 27.3956C229.965 27.6272 230.647 27.9283 231.281 28.2756L258.93 43.5367C258.296 43.1893 257.613 42.8882 256.906 42.6567C256.223 42.4251 255.541 42.2398 254.785 42.124C254.249 42.0314 253.688 41.9851 253.127 41.9388C252.956 41.9388 252.81 41.9388 252.639 41.9388C252.152 41.9388 251.664 41.9388 251.152 41.9388C251.055 41.9388 250.981 41.9388 250.884 41.9388C250.299 41.9851 249.714 42.0314 249.104 42.124C248.982 42.124 248.836 42.1703 248.714 42.1935C248.104 42.2861 247.495 42.4019 246.861 42.564C246.812 42.564 246.739 42.5872 246.69 42.6103C246.081 42.7493 245.471 42.9346 244.862 43.1198C244.764 43.143 244.667 43.1893 244.569 43.2125C243.935 43.4209 243.301 43.6524 242.667 43.9072C242.546 43.9535 242.399 43.9998 242.277 44.0693C241.643 44.324 240.985 44.6251 240.327 44.9261C240.254 44.9724 240.181 44.9956 240.083 45.0419C239.4 45.3661 238.718 45.7135 238.035 46.084C236.962 46.6861 235.865 47.3345 234.792 48.0293C234.744 48.0524 234.695 48.0988 234.67 48.1219C233.646 48.7935 232.647 49.5114 231.647 50.2756L231.72 50.2988Z" fill="#B7E4EA"/>
<path d="M204.901 55.0002L204.803 55.0696C204.267 55.5096 203.755 55.9728 203.218 56.4823L203.17 56.5286C202.633 57.0612 202.121 57.617 201.585 58.1959L173.936 42.9349L174.058 42.796C174.229 42.6107 174.4 42.4254 174.57 42.2402C174.741 42.0549 174.912 41.8697 175.082 41.7076C175.229 41.5686 175.375 41.4297 175.497 41.2907L175.546 41.2444L175.594 41.1749C175.789 40.9897 175.96 40.8276 176.155 40.6423C176.35 40.457 176.545 40.2949 176.74 40.1328C176.862 40.017 176.984 39.9244 177.106 39.8086L177.204 39.7391C177.204 39.7391 177.277 39.6697 177.325 39.6233C177.521 39.4612 177.716 39.2991 177.935 39.1602C178.13 38.9981 178.349 38.8591 178.545 38.7202C178.618 38.6739 178.715 38.6044 178.788 38.5581L178.91 38.4886C178.91 38.4886 179.081 38.3728 179.154 38.3265C179.349 38.1876 179.569 38.0718 179.764 37.9328C179.983 37.817 180.178 37.6781 180.397 37.5623L180.544 37.4928C180.714 37.4002 180.885 37.3076 181.031 37.2381C181.251 37.1223 181.47 37.0065 181.69 36.9139C181.86 36.8212 182.055 36.7518 182.226 36.6591H182.299L182.372 36.5897C182.616 36.4739 182.86 36.3812 183.104 36.2886C183.372 36.196 183.616 36.1033 183.884 36.0107H183.982L184.103 35.9412C184.299 35.8718 184.518 35.8023 184.713 35.756C185.03 35.6633 185.323 35.5939 185.639 35.5012H185.713C185.713 35.5012 185.835 35.4549 185.883 35.4549C186.151 35.3855 186.395 35.3391 186.663 35.2928C186.956 35.2465 187.224 35.2002 187.517 35.1539H187.712C187.956 35.0844 188.224 35.0612 188.468 35.0612C188.736 35.0612 188.98 35.0381 189.224 35.0381H189.248C189.541 35.0381 189.833 35.0381 190.101 35.0844C190.296 35.0844 190.491 35.1307 190.686 35.1539C190.76 35.1539 190.857 35.1539 190.93 35.177C190.979 35.177 191.028 35.177 191.077 35.177C191.491 35.2465 191.881 35.3623 192.271 35.4781H192.296C192.783 35.6633 193.271 35.8718 193.71 36.1033L221.358 51.3644C220.919 51.1096 220.432 50.9244 219.944 50.7391C219.505 50.6002 219.042 50.4844 218.554 50.3918C218.481 50.3918 218.384 50.3918 218.31 50.3686C217.847 50.2991 217.36 50.2528 216.872 50.2528C216.311 50.2528 215.75 50.2991 215.165 50.3686C214.629 50.4381 214.093 50.5539 213.532 50.6696C213.483 50.6696 213.41 50.6696 213.361 50.716C212.825 50.8317 212.264 50.9939 211.728 51.1791L211.606 51.2254C211.045 51.4107 210.484 51.6191 209.899 51.8739H209.826C209.265 52.1517 208.68 52.4296 208.119 52.7539C207.558 53.0549 207.022 53.4023 206.486 53.7496L206.364 53.8191C205.827 54.1896 205.291 54.5833 204.779 55.0002H204.901Z" fill="#B7E4EA"/>
<path d="M118.323 46.8486C118.054 47.196 117.786 47.5202 117.518 47.8676C117.006 48.4928 116.518 49.1413 116.031 49.7897C115.421 50.6002 114.812 51.4107 114.202 52.2444C113.715 52.916 113.227 53.6107 112.739 54.3055C112.422 54.7686 112.081 55.2549 111.764 55.7181C111.203 56.5518 110.667 57.3855 110.13 58.2423C109.862 58.6823 109.57 59.0991 109.302 59.5391C108.96 60.0949 108.619 60.6739 108.277 61.2528C107.717 62.1791 107.156 63.1286 106.62 64.0781C106.01 65.1433 105.425 66.2086 104.84 67.297C104.767 67.436 104.693 67.5518 104.62 67.6907C103.962 68.9644 103.304 70.2381 102.694 71.5118C102.572 71.7665 102.45 72.0444 102.304 72.2991C101.719 73.5497 101.134 74.8233 100.573 76.097C100.5 76.2823 100.427 76.4675 100.329 76.6528C99.8172 77.857 99.3052 79.0844 98.8419 80.2886C98.7688 80.4507 98.72 80.6128 98.6469 80.7749C98.1592 82.0486 97.696 83.3223 97.2571 84.596C97.1596 84.897 97.0621 85.1749 96.9646 85.476C96.5257 86.7728 96.1112 88.0696 95.7455 89.3665V89.4591C95.3554 90.7328 95.014 91.9833 94.6971 93.257C94.6239 93.5349 94.5508 93.8128 94.502 94.0907C94.2095 95.3412 93.9169 96.5917 93.6975 97.8423C93.6731 98.0275 93.6243 98.2128 93.5999 98.398C93.3805 99.5791 93.1855 100.76 93.0148 101.941C93.0148 102.08 92.966 102.219 92.9416 102.358C92.7466 103.724 92.6003 105.044 92.5028 106.388L64.8543 91.1265C64.9031 90.6633 64.9275 90.177 64.9762 89.7139C65.0494 88.9265 65.1469 88.116 65.2688 87.3286C65.2688 87.2591 65.2688 87.1896 65.2932 87.1202C65.2932 86.9812 65.342 86.8423 65.3663 86.7033C65.4639 86.1012 65.537 85.476 65.6345 84.8507C65.7321 84.2949 65.8296 83.716 65.9515 83.1602C65.9759 82.9749 66.0246 82.7896 66.049 82.6044C66.049 82.4886 66.0978 82.396 66.0978 82.2802C66.2685 81.4002 66.4635 80.5202 66.6586 79.617C66.7073 79.3623 66.7805 79.1075 66.8536 78.8528C66.9268 78.5749 66.9999 78.297 67.073 77.996C67.1706 77.6254 67.2437 77.2549 67.3412 76.8844C67.5607 76.0044 67.8289 75.1012 68.0727 74.2212V74.1286H68.0971C68.3653 73.1791 68.6578 72.2297 68.9504 71.3033C69.0723 70.956 69.1942 70.6086 69.3161 70.2381C69.4136 69.937 69.5112 69.6591 69.6087 69.3581C69.7062 69.0802 69.8037 68.8023 69.9013 68.5012C70.2182 67.5981 70.5596 66.6718 70.9009 65.7686C70.9253 65.676 70.9741 65.6065 70.9984 65.5139C71.0716 65.3518 71.1203 65.1897 71.1935 65.0044C71.4373 64.356 71.6811 63.7307 71.9493 63.0823C72.1931 62.5034 72.4369 61.9476 72.6807 61.3686C72.7539 61.1834 72.8514 60.9749 72.9246 60.7897C72.9733 60.6739 73.0221 60.5581 73.0708 60.4655C73.4609 59.6086 73.8267 58.7286 74.2412 57.8718C74.3631 57.5939 74.5093 57.2928 74.6556 57.0149C74.7775 56.737 74.8994 56.4823 75.0457 56.2044C75.192 55.8802 75.3627 55.556 75.509 55.2318C75.9722 54.3055 76.4355 53.3792 76.9231 52.476L76.9719 52.3834C77.045 52.2444 77.1181 52.1286 77.1913 51.9897C77.6545 51.1097 78.1178 50.2297 78.6054 49.3728C78.7273 49.1644 78.8492 48.9792 78.9468 48.7707C79.4831 47.8213 80.0439 46.8718 80.6047 45.9455C80.8729 45.5286 81.0923 45.0886 81.3605 44.6486C81.458 44.5097 81.5312 44.3707 81.6287 44.2318C81.8969 43.7918 82.1895 43.3518 82.4577 42.935C82.994 42.1013 83.5304 41.2444 84.0912 40.4108C84.4082 39.9244 84.7495 39.4613 85.0665 38.975C85.3347 38.5813 85.6029 38.1644 85.8954 37.7708C86.0905 37.4929 86.3099 37.215 86.5293 36.9371C87.1389 36.1034 87.7484 35.2929 88.3579 34.4592C88.6261 34.1118 88.87 33.7413 89.1381 33.3939C89.3576 33.0929 89.6014 32.815 89.8208 32.5371C90.089 32.1897 90.3572 31.8655 90.6254 31.5181C90.8692 31.2171 91.0886 30.916 91.3325 30.6381C91.9664 29.8739 92.6003 29.1329 93.2342 28.415L93.3074 28.3455C93.9657 27.5813 94.6239 26.8402 95.2822 26.1223C95.6723 25.6824 96.0868 25.2655 96.4769 24.8487C96.7451 24.5708 97.0133 24.2929 97.2815 24.0381C97.7691 23.5518 98.2568 23.0655 98.7444 22.5792C98.9151 22.4171 99.0857 22.255 99.232 22.0929C99.2808 22.0466 99.3052 22.0002 99.3539 21.9771C100.085 21.2592 100.841 20.5645 101.597 19.8929C101.646 19.8466 101.695 19.8003 101.743 19.7771C101.987 19.5687 102.207 19.3603 102.45 19.1518C102.938 18.7118 103.45 18.2718 103.938 17.8318C104.06 17.716 104.181 17.6234 104.328 17.5076C104.645 17.2297 104.986 16.9518 105.327 16.6971C105.669 16.4192 106.01 16.1182 106.376 15.8403C106.571 15.6782 106.79 15.516 106.985 15.3771C107.327 15.0992 107.692 14.8213 108.034 14.5666C108.302 14.3582 108.546 14.1497 108.814 13.9645C109.106 13.7561 109.399 13.5476 109.692 13.3392C110.033 13.0845 110.374 12.8297 110.716 12.5982C110.886 12.4824 111.081 12.3434 111.252 12.2045C111.667 11.9034 112.081 11.6487 112.52 11.3476C112.812 11.1392 113.105 10.9539 113.398 10.7455C113.495 10.6761 113.593 10.6297 113.666 10.5603C114.446 10.0508 115.251 9.54132 116.055 9.07816C116.835 8.59185 117.616 8.15185 118.396 7.71185C118.566 7.61922 118.761 7.50343 118.932 7.4108C119.517 7.08659 120.127 6.76238 120.712 6.46132C120.761 6.43817 120.834 6.41501 120.883 6.36869C121.37 6.11396 121.882 5.88238 122.37 5.62764C122.589 5.51185 122.809 5.41922 123.028 5.30343L123.101 5.25711C123.784 4.9329 124.491 4.63185 125.174 4.3308C125.223 4.3308 125.271 4.28448 125.32 4.26133C126.051 3.93712 126.807 3.65922 127.539 3.35817H127.612C127.831 3.24238 128.026 3.17291 128.221 3.10343C128.733 2.91817 129.221 2.73291 129.733 2.5708C129.782 2.5708 129.855 2.52449 129.904 2.50133C130.123 2.43186 130.343 2.36238 130.586 2.29291C131.05 2.15396 131.513 1.99186 131.952 1.87607C132.025 1.85291 132.122 1.82975 132.196 1.80659C132.391 1.73712 132.61 1.6908 132.805 1.64449C133.244 1.5287 133.707 1.38975 134.146 1.29712C134.268 1.27396 134.39 1.22765 134.512 1.20449C134.682 1.15817 134.853 1.13502 135.048 1.0887C135.511 0.996068 135.95 0.880278 136.414 0.810805C136.56 0.787647 136.731 0.741331 136.877 0.718173C137.023 0.695016 137.145 0.671858 137.291 0.6487C137.779 0.556068 138.267 0.486595 138.73 0.417121C138.9 0.393963 139.095 0.347648 139.266 0.32449C139.339 0.32449 139.437 0.32449 139.51 0.301332C140.168 0.231858 140.827 0.162385 141.46 0.116069C141.558 0.116069 141.631 0.116069 141.729 0.0929111H141.777C142.558 0.0465954 143.313 0.0234375 144.069 0.0234375C144.142 0.0234375 144.216 0.0234375 144.289 0.0234375C144.411 0.0234375 144.533 0.0234375 144.679 0.0234375C145.337 0.0234375 145.971 0.0697532 146.605 0.116069C146.727 0.116069 146.873 0.116069 146.995 0.116069C147.068 0.116069 147.117 0.116069 147.19 0.139227C148.068 0.2087 148.921 0.32449 149.75 0.486595C149.823 0.486595 149.896 0.486595 149.945 0.509753C150.335 0.579226 150.75 0.671858 151.14 0.764489C151.847 0.926594 152.554 1.13501 153.237 1.34344C153.31 1.36659 153.383 1.38975 153.456 1.41291C153.578 1.45923 153.7 1.50554 153.822 1.55186C154.334 1.73712 154.821 1.92238 155.309 2.1308C155.504 2.20028 155.699 2.29291 155.894 2.38554C156.553 2.68659 157.186 2.98764 157.796 3.33501L185.444 18.596C184.835 18.2487 184.177 17.9476 183.543 17.6466C183.348 17.5539 183.153 17.4845 182.958 17.3918C182.47 17.1834 181.958 16.9982 181.47 16.8129C181.275 16.7434 181.08 16.6739 180.861 16.6045C180.178 16.3729 179.471 16.1876 178.764 16.0255C178.301 15.9097 177.837 15.8403 177.374 15.7476C176.545 15.5855 175.667 15.4697 174.814 15.4003C174.619 15.4003 174.424 15.3771 174.253 15.3539C173.619 15.3076 172.986 15.2845 172.327 15.2613C172.132 15.2613 171.937 15.2613 171.718 15.2613C170.962 15.2613 170.206 15.2613 169.426 15.3308C169.328 15.3308 169.231 15.3308 169.133 15.3539C168.499 15.4003 167.841 15.4697 167.183 15.5392C166.915 15.5624 166.671 15.6087 166.403 15.655C165.915 15.7245 165.452 15.7939 164.964 15.8866C164.672 15.9329 164.379 16.0024 164.086 16.0487C163.648 16.1413 163.184 16.2339 162.721 16.3266C162.428 16.396 162.136 16.4655 161.843 16.535C161.404 16.6508 160.941 16.7666 160.502 16.8824C160.21 16.9518 159.917 17.0445 159.625 17.1139C159.161 17.2529 158.698 17.3918 158.235 17.5308C157.967 17.6234 157.674 17.6929 157.406 17.8087C156.894 17.9708 156.382 18.156 155.894 18.3645C155.675 18.4571 155.431 18.5266 155.212 18.6192C154.48 18.8971 153.749 19.1981 152.993 19.5224C152.944 19.5224 152.895 19.5687 152.847 19.5918C152.164 19.8929 151.457 20.1939 150.774 20.5181C150.53 20.6339 150.287 20.7497 150.043 20.8887C149.555 21.1203 149.043 21.375 148.555 21.6297C147.897 21.9539 147.239 22.3013 146.605 22.6718C145.654 23.2045 144.679 23.7602 143.728 24.316C142.85 24.8718 141.948 25.4276 141.07 26.0066C140.778 26.1918 140.485 26.4002 140.193 26.6087C139.583 27.0023 138.998 27.4192 138.413 27.836C138.071 28.0676 137.73 28.3223 137.389 28.5771C136.828 28.9708 136.292 29.3876 135.731 29.8276C135.39 30.1055 135.024 30.3602 134.682 30.6381C134.122 31.0781 133.585 31.5181 133.025 31.9813C132.708 32.2592 132.366 32.5139 132.049 32.7918C131.415 33.3244 130.806 33.8802 130.172 34.436C129.928 34.6444 129.709 34.8529 129.465 35.0613C128.612 35.8255 127.783 36.6129 126.954 37.4234C126.783 37.5855 126.637 37.7476 126.466 37.9097C125.71 38.6508 124.954 39.415 124.198 40.2023C123.126 41.3371 122.053 42.495 121.005 43.6992L120.931 43.7918C120.054 44.8107 119.176 45.8528 118.323 46.895V46.8486Z" fill="#B7E4EA"/>
<path d="M34.2314 124.519C34.2314 124.242 34.2314 123.964 34.2801 123.686V123.57C34.3045 123.315 34.3289 123.084 34.3533 122.829C34.3777 122.528 34.4264 122.227 34.4508 121.949C34.4996 121.648 34.5483 121.347 34.5971 121.023C34.6215 120.837 34.6702 120.675 34.6946 120.49V120.351C34.6946 120.351 34.7434 120.143 34.7678 120.05C34.8409 119.726 34.8897 119.402 34.9872 119.077C35.0604 118.753 35.1579 118.406 35.231 118.058C35.3042 117.757 35.4017 117.456 35.4748 117.155V117.039C35.5967 116.692 35.7186 116.368 35.8162 116.021C35.9137 115.673 36.0356 115.349 36.1575 115.002C36.2794 114.677 36.4013 114.353 36.5232 114.006C36.5476 113.936 36.572 113.867 36.5964 113.821L36.6451 113.705C36.7183 113.496 36.8158 113.265 36.9133 113.056C37.0352 112.755 37.1815 112.431 37.3034 112.13C37.4253 111.829 37.5716 111.528 37.7179 111.204C37.8398 110.972 37.9373 110.741 38.0593 110.486L38.108 110.416L38.1812 110.277C38.3518 109.953 38.4981 109.629 38.6688 109.305C38.8638 108.934 39.0589 108.564 39.2539 108.193C39.4002 107.938 39.5465 107.684 39.6928 107.429C39.7659 107.29 39.8635 107.151 39.9366 107.012C40.0341 106.85 40.1317 106.688 40.2292 106.526C40.7168 105.738 41.2288 104.974 41.7408 104.233C41.7652 104.187 41.7896 104.164 41.814 104.141C41.8627 104.094 41.8871 104.025 41.9359 103.978C42.2285 103.562 42.521 103.168 42.838 102.774C43.0818 102.45 43.35 102.126 43.6182 101.802C43.7889 101.593 43.9595 101.385 44.1302 101.199L44.3253 100.968C44.5447 100.713 44.7885 100.435 45.0323 100.181C45.2761 99.9258 45.4956 99.6711 45.7394 99.4395C45.91 99.2542 46.1051 99.069 46.2758 98.8837L46.3489 98.7911L46.4708 98.6753C46.739 98.4206 47.0072 98.1658 47.2754 97.9342C47.5436 97.6795 47.8362 97.4248 48.1287 97.1932C48.275 97.0774 48.4213 96.9385 48.5676 96.8227L48.7139 96.7069C48.7139 96.7069 48.8846 96.5448 48.9821 96.4753C49.2747 96.2437 49.5672 96.0121 49.8598 95.8037C50.1524 95.5953 50.445 95.3637 50.7375 95.1784C50.8107 95.1321 50.9082 95.0627 50.9814 95.0163L51.1276 94.9237C51.2983 94.8079 51.4446 94.7153 51.6153 94.5995C51.9079 94.4142 52.176 94.229 52.4686 94.0669C52.7612 93.9048 53.0294 93.7427 53.322 93.5806L53.517 93.4648C53.7365 93.349 53.9315 93.2332 54.1509 93.1174C54.4191 92.9785 54.7117 92.8395 54.9799 92.7006H55.0043L55.0774 92.6542C55.3212 92.5385 55.5651 92.4227 55.8089 92.33C56.0283 92.2374 56.2477 92.1448 56.4672 92.0753L56.5647 92.029H56.6134C56.8816 91.89 57.1498 91.7974 57.418 91.7048C57.5643 91.6585 57.735 91.6121 57.8813 91.5658C57.9544 91.5658 58.0032 91.5195 58.0763 91.4963C58.1251 91.4963 58.1739 91.4732 58.247 91.45C58.5152 91.3806 58.8078 91.2879 59.076 91.2416C59.1735 91.2416 59.271 91.1953 59.3685 91.1721C59.4417 91.1721 59.5392 91.149 59.6124 91.1258C59.7099 91.1258 59.8074 91.0795 59.9293 91.0564C60.2219 91.01 60.4901 90.9637 60.7827 90.9174C60.807 90.9174 60.8558 90.9174 60.8802 90.9174C60.9533 90.9174 61.0021 90.9174 61.0752 90.9174C61.2703 90.9174 61.4653 90.8711 61.6604 90.8711C61.8311 90.8711 62.0017 90.8711 62.1724 90.8711C62.2455 90.8711 62.3431 90.8711 62.4162 90.8711C62.465 90.8711 62.5137 90.8711 62.5625 90.8711C62.8795 90.8711 63.1964 90.8711 63.5134 90.9174C63.5377 90.9174 63.5621 90.9174 63.6109 90.9174C63.7084 90.9174 63.8059 90.9406 63.9278 90.9637C64.1473 90.9869 64.3667 91.01 64.5618 91.0564C64.6837 91.0795 64.83 91.1027 64.9519 91.149L92.6003 106.41C92.259 106.341 91.9176 106.294 91.5763 106.248C91.4788 106.248 91.3568 106.225 91.2593 106.202C90.8692 106.155 90.4791 106.155 90.089 106.155C90.0159 106.155 89.9183 106.155 89.8452 106.155C89.4795 106.155 89.1381 106.178 88.7724 106.225C88.6993 106.225 88.6505 106.225 88.5774 106.225C88.1629 106.271 87.7484 106.341 87.3339 106.433C87.2608 106.433 87.1876 106.456 87.0901 106.479C86.6756 106.572 86.2612 106.688 85.8223 106.804C85.7491 106.804 85.7004 106.85 85.6272 106.873C85.1884 107.012 84.7495 107.151 84.2863 107.336L84.1887 107.383C83.7255 107.568 83.2622 107.753 82.799 107.962H82.7502C82.2626 108.216 81.7506 108.471 81.263 108.749C80.4828 109.189 79.6782 109.675 78.898 110.208L78.7517 110.301C77.9959 110.833 77.2401 111.389 76.4842 112.014L76.338 112.13C75.5821 112.755 74.8507 113.404 74.1193 114.122L74.0461 114.214C73.3147 114.932 72.5832 115.719 71.8762 116.53C71.1203 117.41 70.3889 118.359 69.6818 119.309C69.6331 119.355 69.6087 119.425 69.5599 119.471C68.9016 120.397 68.2677 121.37 67.6826 122.343C67.6094 122.482 67.5119 122.621 67.4388 122.759C66.8536 123.732 66.3172 124.728 65.8296 125.724L65.7808 125.816C65.2688 126.882 64.8056 127.947 64.3667 129.035L64.3179 129.151C63.9035 130.239 63.5134 131.328 63.1964 132.416V132.463C62.8795 133.528 62.6113 134.616 62.4162 135.658V135.797C62.1968 136.839 62.0749 137.882 62.0017 138.877V138.924C61.9286 139.943 61.9286 140.938 62.0017 141.911L34.3533 126.65C34.3533 126.511 34.3533 126.372 34.3533 126.21C34.3533 125.932 34.3533 125.677 34.3533 125.399C34.3533 125.122 34.3533 124.844 34.3533 124.566L34.2314 124.519Z" fill="#B7E4EA"/>
<path d="M0 174.911C0 174.911 0 174.703 0 174.587C0 174.147 0 173.707 0 173.267C0 172.827 0.0243813 172.387 0.073144 171.924C0.073144 171.716 0.0975253 171.507 0.121907 171.299V171.067C0.146288 170.905 0.170669 170.72 0.195051 170.558C0.243813 170.095 0.292576 169.631 0.36572 169.145C0.438864 168.682 0.512008 168.196 0.585152 167.709C0.585152 167.57 0.633915 167.408 0.658296 167.269L0.707059 167.015C0.755821 166.76 0.804584 166.505 0.853347 166.227C0.950872 165.741 1.0484 165.231 1.1703 164.745C1.29221 164.259 1.41412 163.749 1.53602 163.24C1.53602 163.17 1.56041 163.124 1.58479 163.055L1.63355 162.916C1.73107 162.522 1.85298 162.151 1.95051 161.758C2.09679 161.271 2.24308 160.785 2.38937 160.299C2.53566 159.836 2.70633 159.372 2.85262 158.886V158.794C3.04767 158.377 3.19395 157.96 3.34024 157.543C3.51091 157.126 3.68158 156.686 3.85225 156.269C4.02292 155.876 4.19359 155.459 4.36426 155.065C4.41302 154.949 4.46178 154.857 4.51055 154.741L4.58369 154.602C4.68122 154.37 4.80312 154.116 4.90065 153.884C5.0957 153.49 5.26637 153.097 5.46142 152.703C5.65647 152.309 5.85152 151.916 6.07095 151.522C6.21724 151.267 6.36353 150.989 6.50982 150.735C6.55858 150.665 6.58296 150.596 6.63172 150.526C6.70487 150.41 6.75363 150.271 6.82677 150.156C7.16811 149.53 7.53383 148.928 7.89955 148.326C8.24089 147.77 8.58223 147.238 8.94795 146.682C9.28929 146.172 9.65501 145.663 9.99635 145.154C10.1914 144.899 10.3864 144.644 10.5571 144.389C10.7522 144.135 10.9228 143.88 11.1179 143.625C11.2398 143.463 11.3617 143.278 11.508 143.116C11.8737 142.652 12.2638 142.166 12.6295 141.726C12.7027 141.634 12.7758 141.564 12.849 141.471C12.9221 141.379 12.9953 141.309 13.0684 141.217C13.2634 140.985 13.4829 140.73 13.6779 140.499C14.0193 140.105 14.3606 139.711 14.7263 139.341C14.8239 139.248 14.9214 139.156 14.9945 139.04C15.0677 138.947 15.1652 138.878 15.2383 138.785C15.4334 138.577 15.6041 138.391 15.7991 138.183C16.1892 137.789 16.5549 137.419 16.945 137.048C17.0426 136.956 17.1401 136.863 17.2376 136.77C17.3351 136.678 17.4327 136.585 17.5302 136.492C17.7252 136.307 17.9447 136.099 18.1397 135.914C18.5542 135.543 18.9687 135.172 19.3832 134.802C19.4563 134.732 19.5294 134.686 19.6026 134.617C19.7001 134.547 19.7733 134.478 19.8708 134.385C20.139 134.154 20.4072 133.945 20.6754 133.737C21.0899 133.389 21.5287 133.065 21.9432 132.741L22.0651 132.671C22.0651 132.671 22.187 132.579 22.2358 132.556C22.5527 132.324 22.8697 132.069 23.211 131.861C23.6255 131.583 24.0156 131.305 24.4301 131.05L24.5276 130.981C24.5276 130.981 24.6251 130.935 24.6739 130.888C24.9909 130.68 25.3078 130.495 25.6248 130.286C26.0149 130.055 26.405 129.823 26.7707 129.615L27.0389 129.476C27.3315 129.314 27.6241 129.175 27.8922 129.012C28.1604 128.874 28.453 128.735 28.7212 128.619C28.7944 128.596 28.8431 128.549 28.9163 128.526L29.0138 128.48C29.3795 128.318 29.7452 128.156 30.0866 127.994C30.2329 127.924 30.3791 127.878 30.5254 127.831C30.623 127.785 30.7205 127.739 30.8424 127.716C30.9399 127.669 31.0618 127.623 31.1593 127.577C31.5007 127.438 31.8664 127.322 32.2077 127.206C32.2809 127.206 32.3297 127.16 32.3784 127.16C32.4759 127.137 32.5491 127.114 32.6466 127.09C32.8417 127.021 33.0611 126.951 33.2561 126.905C33.5975 126.812 33.9388 126.72 34.2558 126.65L61.9042 141.911C61.3678 142.05 60.8314 142.189 60.295 142.375C60.1975 142.398 60.1244 142.421 60.0268 142.444C59.5148 142.606 58.9784 142.815 58.4664 143C58.3689 143.046 58.247 143.092 58.1495 143.116C57.6131 143.324 57.0767 143.556 56.5647 143.81C56.4916 143.834 56.4428 143.88 56.3696 143.903C55.8089 144.181 55.2481 144.459 54.6873 144.76C53.9071 145.2 53.1025 145.663 52.3223 146.172L52.1761 146.265C51.4202 146.751 50.64 147.284 49.8842 147.84C49.8354 147.886 49.7623 147.932 49.7135 147.956C48.9821 148.511 48.2507 149.09 47.5436 149.669C47.4461 149.739 47.3485 149.831 47.2754 149.901C46.5683 150.503 45.8857 151.128 45.203 151.754C45.1055 151.846 45.0079 151.939 44.9104 152.031C44.2277 152.68 43.5694 153.351 42.9112 154.046C42.838 154.139 42.7405 154.208 42.6673 154.301C42.009 154.996 41.3507 155.737 40.7168 156.478C40.6437 156.57 40.5705 156.64 40.4974 156.732C39.9122 157.427 39.3271 158.168 38.7663 158.886C38.5713 159.141 38.3762 159.396 38.2056 159.65C37.6448 160.391 37.1084 161.156 36.572 161.943C35.743 163.194 34.9628 164.467 34.2558 165.787C34.207 165.857 34.1826 165.926 34.1339 165.996C33.4512 167.269 32.7929 168.566 32.2077 169.863L32.1346 170.025C31.5251 171.368 30.9887 172.735 30.5011 174.078V174.124C30.0134 175.49 29.5746 176.833 29.2332 178.2L29.1845 178.339C28.8431 179.659 28.5505 180.979 28.3067 182.276C28.3067 182.368 28.2823 182.438 28.258 182.53C28.0385 183.804 27.8679 185.078 27.746 186.305V186.537C27.6241 187.764 27.5753 188.968 27.5997 190.149V190.358C27.6241 191.562 27.7216 192.72 27.8679 193.808L0.268195 178.547V178.385C0.195051 177.968 0.146288 177.551 0.121907 177.135C0.0975253 176.718 0.0487627 176.301 0.0487627 175.861C0.0487627 175.606 0.0487627 175.351 0.0487627 175.097V174.888L0 174.911Z" fill="#B7E4EA"/>
<path d="M146.629 22.6479C138.925 26.8858 131.22 32.8142 124.199 40.1553C106.79 58.3805 94.2582 84.5721 92.5028 106.387C89.2113 105.623 85.164 106.549 81.1411 108.749C77.874 110.532 74.6069 113.195 71.7543 116.507C65.3908 123.894 61.3922 134.176 61.9042 141.865C59.5636 142.42 57.1255 143.416 54.6873 144.736C48.1044 148.349 41.5214 154.509 36.572 161.966C29.7696 172.178 26.6488 184.73 27.8923 193.808L267 62.6879C267 51.6647 263.27 43.6058 254.834 42.1468C249.982 41.3132 244.033 42.8416 238.084 46.1068C233.695 48.5153 229.306 51.85 225.381 55.8563C223.674 51.7805 219.871 49.7195 215.263 50.391C212.922 50.7153 210.557 51.4563 208.217 52.73C205.949 53.9805 203.706 55.7637 201.585 58.1952C203.438 36.3342 194.441 19.6606 178.837 16.0016C169.523 13.8248 158.064 16.349 146.629 22.6248V22.6479Z" fill="#F0F7F7"/>
</g>
<defs>
<clipPath id="clip0_5_309">
<rect width="267" height="193.808" fill="white"/>
</clipPath>
</defs>
</svg>
