<svg width="139" height="105" viewBox="0 0 139 105" fill="none" xmlns="http://www.w3.org/2000/svg">
<g clip-path="url(#clip0_5_392)">
<path d="M122.804 38.5362L91.0218 20.825C91.0218 20.825 91.1928 20.6611 91.2661 20.5908C91.3882 20.4502 91.5348 20.3331 91.6814 20.2159C91.8279 20.0754 91.9745 19.9582 92.1211 19.8177C92.2677 19.6771 92.4387 19.56 92.5852 19.4428C92.7318 19.3257 92.8784 19.2086 93.0494 19.0914C93.2204 18.9509 93.367 18.8337 93.538 18.7166C93.709 18.5994 93.88 18.4823 94.0265 18.3886C94.1975 18.2715 94.3685 18.1778 94.5395 18.0606C94.7105 17.9669 94.8815 17.8498 95.0525 17.7561L95.1747 17.6858C95.2968 17.6155 95.4434 17.5452 95.5655 17.4749C95.7365 17.3812 95.9076 17.2875 96.103 17.2172C96.274 17.1235 96.4694 17.0532 96.6404 16.983C96.8114 16.9127 97.0068 16.8424 97.1778 16.7721C97.2267 16.7721 97.3 16.7253 97.3488 16.7018H97.4221C97.4221 16.7018 97.642 16.6081 97.7397 16.5613C97.9351 16.491 98.1061 16.4441 98.3016 16.3738C98.497 16.327 98.6924 16.2567 98.8634 16.2333C99.0589 16.1864 99.2543 16.1396 99.4497 16.1161H99.5719C99.7184 16.0693 99.8895 16.0459 100.036 16.0224C100.231 15.999 100.427 15.9756 100.647 15.9521C100.867 15.9521 101.062 15.9521 101.257 15.9521C101.331 15.9521 101.428 15.9521 101.502 15.9521H101.599C101.599 15.9521 101.795 15.9521 101.893 15.9521C102.112 15.9521 102.357 15.999 102.577 16.0459C102.845 16.0927 103.09 16.163 103.334 16.2333C103.578 16.327 103.798 16.4207 104.018 16.5378L135.8 34.2489C135.58 34.1318 135.36 34.0147 135.116 33.9444C134.578 33.757 133.992 33.6633 133.381 33.6398H133.284C132.673 33.6164 132.013 33.6398 131.354 33.7804H131.305C130.621 33.921 129.912 34.1084 129.204 34.3661H129.131C128.398 34.6472 127.689 34.9986 126.957 35.3969C126.224 35.7952 125.515 36.2637 124.831 36.8025C124.147 37.3414 123.463 37.927 122.828 38.583L122.804 38.5362Z" fill="#B7E4EA"/>
<path d="M0 85.6021C0 85.3444 0 85.0867 0.0488576 84.8056V84.6416C0.0732865 84.4307 0.0977153 84.2199 0.122144 84.009C0.146573 83.7279 0.171002 83.4702 0.219859 83.1891C0.219859 83.0719 0.244288 82.9548 0.268717 82.8377V82.6502C0.268717 82.6502 0.317575 82.4394 0.342003 82.3457C0.390861 82.0646 0.439719 81.7834 0.488576 81.4789C0.537434 81.2446 0.586292 81.0103 0.635149 80.7995V80.7058L0.684007 80.6355C0.757293 80.3544 0.83058 80.0498 0.903866 79.7687C0.977153 79.4875 1.05044 79.2064 1.14815 78.9018C1.14815 78.855 1.17258 78.8081 1.19701 78.7379L1.24587 78.5973C1.29473 78.4099 1.34359 78.2459 1.41687 78.0585C1.51459 77.8008 1.58787 77.5196 1.68559 77.2619C1.75888 77.0745 1.83216 76.8637 1.90545 76.6762V76.5825L1.97873 76.4888C2.07645 76.2546 2.17417 75.9969 2.27188 75.7626C2.3696 75.5283 2.46731 75.294 2.56503 75.0832C2.63831 74.9192 2.7116 74.7786 2.78489 74.6146V74.5444L2.8826 74.4272C2.98032 74.2164 3.07803 73.9821 3.20018 73.7712C3.32232 73.537 3.42003 73.3261 3.54218 73.0919C3.61547 72.9279 3.71318 72.7873 3.78647 72.6233L3.85975 72.5062C3.85975 72.5062 3.93304 72.389 3.95747 72.3422C4.1529 71.9908 4.34833 71.6394 4.56819 71.3114C4.71476 71.0771 4.86134 70.8663 5.00791 70.632C5.2522 70.2571 5.52091 69.8823 5.7652 69.5075C5.83849 69.4138 5.91177 69.32 5.96063 69.2263C6.05835 69.0858 6.18049 68.9218 6.27821 68.7812C6.40035 68.6172 6.49807 68.4767 6.62021 68.3127C6.84007 68.0315 7.0355 67.7738 7.25536 67.5161C7.45079 67.2584 7.64622 67.0242 7.86608 66.7899C8.06151 66.5556 8.25694 66.3448 8.45237 66.1105H8.4768L8.52566 66.0168C8.69666 65.8294 8.89209 65.6419 9.06309 65.4545C9.28295 65.2437 9.50281 65.0094 9.72267 64.7986L9.77153 64.7517L9.86924 64.658C10.0402 64.494 10.2357 64.3066 10.4067 64.1426C10.651 63.9317 10.8708 63.7209 11.1151 63.5101H11.1395L11.1884 63.4398C11.4083 63.2523 11.6037 63.0884 11.8235 62.9009C12.0434 62.7135 12.2877 62.5261 12.5076 62.3621C12.7274 62.1747 12.9717 62.0107 13.216 61.8467C13.4359 61.6827 13.6557 61.5421 13.9 61.3782H13.9489C14.1443 61.2142 14.3641 61.097 14.5596 60.9565C14.7794 60.8159 14.9749 60.6988 15.1947 60.5816L15.3413 60.5113C15.5123 60.4176 15.6589 60.3473 15.8299 60.2536C16.0253 60.1599 16.2452 60.0428 16.4406 59.9491C16.636 59.8554 16.8315 59.7617 17.0269 59.6914L17.1735 59.6445L48.9554 77.3556C48.3446 77.6133 47.7339 77.8945 47.1476 78.2459C46.6835 78.5036 46.2193 78.7847 45.7552 79.0893H45.7308C45.2666 79.4172 44.8025 79.7452 44.3383 80.0966C43.8986 80.4481 43.4344 80.7995 42.9947 81.1743L42.9459 81.2212C42.5061 81.596 42.0909 81.9708 41.6756 82.3925L41.5779 82.4862C41.1626 82.8845 40.7473 83.3296 40.332 83.7513L40.2831 83.7982C39.8678 84.2667 39.4525 84.7353 39.0617 85.2272C38.7197 85.6489 38.4021 86.0706 38.0845 86.4923C37.9868 86.6329 37.8647 86.7969 37.767 86.9374C37.425 87.406 37.1074 87.8745 36.7898 88.3431C36.3989 88.9522 36.0081 89.5847 35.6661 90.2407L35.5928 90.3578C35.2508 90.9904 34.9332 91.6229 34.6401 92.2555V92.3257C34.3225 92.9817 34.0293 93.6377 33.7851 94.2936V94.3874C33.5163 95.0199 33.2965 95.6759 33.1011 96.3084L33.0522 96.449C32.8568 97.1049 32.6858 97.7609 32.5392 98.4169V98.5106C32.3926 99.1431 32.2705 99.7757 32.1728 100.385V100.572C32.0506 101.181 32.0018 101.79 31.9529 102.376V102.47C31.904 103.102 31.8796 103.711 31.904 104.297L0 86.5626V86.3752C0 86.1175 0 85.8598 0 85.6021Z" fill="#B7E4EA"/>
<path d="M65.2982 39.075C65.2982 39.075 65.1517 39.2624 65.0784 39.3327C64.5898 39.9184 64.1257 40.5275 63.6615 41.1601C63.2951 41.652 62.9286 42.144 62.5866 42.636C62.3424 42.9874 62.0736 43.3388 61.8293 43.6902C60.9743 44.9319 60.1438 46.1969 59.3376 47.4855C59.1177 47.8369 58.8979 48.2117 58.678 48.5631C58.3605 49.1019 58.0429 49.6408 57.7497 50.1796C57.4566 50.7184 57.139 51.2573 56.8459 51.7961C56.7237 52.0069 56.6016 52.2178 56.5039 52.4521C56.0886 53.2486 55.6733 54.0451 55.2824 54.8417C55.2091 54.9822 55.1358 55.1462 55.0626 55.2868C54.6717 56.1302 54.2808 56.9736 53.9144 57.8169L53.8655 57.9575C53.4991 58.7775 53.1815 59.6208 52.8395 60.4408C52.7907 60.5579 52.7418 60.6985 52.693 60.8156C52.3754 61.6356 52.0822 62.4556 51.8135 63.299C51.7647 63.4629 51.6914 63.6504 51.6425 63.8144C51.3738 64.6577 51.1051 65.4777 50.8608 66.3211C50.8364 66.4148 50.8119 66.4851 50.7875 66.5788C50.5677 67.3753 50.3722 68.1484 50.1768 68.945C50.1524 69.0855 50.1035 69.2027 50.0791 69.3432C49.8837 70.1632 49.7371 70.9597 49.5661 71.7562C49.5416 71.8968 49.5172 72.0608 49.4928 72.2014C49.3462 72.9979 49.2241 73.771 49.1264 74.5675C49.1264 74.6847 49.1019 74.8018 49.0775 74.9189C48.9798 75.7389 48.9065 76.5589 48.8576 77.3554L17.0757 59.6443V59.3631C17.1246 58.8946 17.1735 58.426 17.1979 57.9575C17.2223 57.6998 17.2467 57.4421 17.2956 57.1844C17.2956 57.0673 17.32 56.9501 17.3445 56.833C17.3445 56.7159 17.3445 56.6221 17.3933 56.505C17.4666 56.013 17.5399 55.5211 17.6132 55.0291C17.6376 54.8417 17.6865 54.6542 17.7109 54.4668C17.7353 54.3263 17.7598 54.1857 17.7842 54.0217C17.8086 53.8343 17.8575 53.6469 17.8819 53.4594C17.9796 52.9206 18.1018 52.3818 18.2239 51.843C18.2239 51.7727 18.2728 51.679 18.2728 51.6087C18.2972 51.4915 18.346 51.351 18.3705 51.2338C18.4438 50.8824 18.5415 50.5544 18.6148 50.203C18.7369 49.7579 18.859 49.3128 18.9812 48.8677C18.9812 48.774 19.0301 48.7037 19.0545 48.61V48.4928C19.2499 47.9072 19.4209 47.3449 19.6163 46.7592C19.6896 46.5484 19.7629 46.3141 19.8362 46.1032C19.8851 45.9392 19.9583 45.7753 20.0072 45.5878C20.0805 45.4004 20.1293 45.213 20.2026 45.0256C20.3981 44.4633 20.5935 43.9011 20.8134 43.3388C20.8378 43.2685 20.8866 43.1748 20.9111 43.1045C20.9599 42.9874 21.0088 42.8468 21.0576 42.7297C21.2042 42.3783 21.3264 42.0269 21.4729 41.6755C21.6684 41.1835 21.8638 40.7149 22.0837 40.223L22.1325 40.1058V40.059C22.4012 39.5201 22.6455 38.9813 22.8898 38.4425C23.0119 38.1614 23.1585 37.8802 23.3051 37.5991C23.3784 37.4585 23.4517 37.2945 23.525 37.154C23.5738 37.0368 23.6471 36.9197 23.696 36.8026C23.9647 36.2403 24.2578 35.6546 24.551 35.0924C24.5998 34.9752 24.6731 34.8581 24.7464 34.741C24.8685 34.5301 24.9663 34.3193 25.0884 34.085C25.2594 33.757 25.4548 33.4056 25.6258 33.0776C25.748 32.8668 25.8701 32.6793 25.9923 32.4685C26.2854 31.9297 26.603 31.3908 26.9206 30.8754C27.0671 30.6177 27.2137 30.3835 27.3603 30.1258C27.4336 30.0086 27.5069 29.8915 27.5801 29.7978C28.3863 28.5093 29.2169 27.2442 30.0719 26.0025C30.1207 25.9322 30.1696 25.8385 30.2185 25.7683C30.4139 25.4871 30.6337 25.2294 30.8292 24.9483C31.1956 24.4563 31.5376 23.9643 31.9285 23.4724C32.0262 23.3318 32.1239 23.2147 32.2216 23.0741C32.588 22.6056 32.9789 22.137 33.3453 21.6685C33.4186 21.5748 33.4919 21.481 33.5652 21.3873L33.6141 21.3171C34.0293 20.8016 34.4446 20.3097 34.8844 19.8177C35.0309 19.6537 35.1775 19.4897 35.3241 19.3257C35.4462 19.1852 35.5684 19.0446 35.6905 18.904C35.8371 18.7635 35.9592 18.5995 36.0814 18.4589C36.4967 18.0138 36.8875 17.5921 37.3028 17.147C37.4005 17.0533 37.4738 16.9596 37.5715 16.8658C37.938 16.491 38.3044 16.1162 38.6953 15.7413C39.1838 15.2494 39.6968 14.7808 40.2098 14.3123C40.4297 14.1014 40.674 13.8906 40.9183 13.6797C41.0404 13.586 41.1626 13.4689 41.2603 13.3752C41.4313 13.2112 41.6267 13.0472 41.7977 12.8832C42.3351 12.4146 42.897 11.9461 43.4344 11.501C43.8009 11.2198 44.1429 10.9387 44.5093 10.6576C44.607 10.5873 44.7047 10.4936 44.8025 10.4233C44.9002 10.353 44.9979 10.2827 45.0956 10.189C45.6575 9.76734 46.1949 9.36908 46.7568 8.97081C47.2698 8.59597 47.8072 8.24456 48.3202 7.89315L48.3691 7.8463H48.3935C48.9309 7.47146 49.4928 7.12005 50.0547 6.76864C50.5921 6.44065 51.1539 6.11267 51.6914 5.80811C51.8135 5.73783 51.9357 5.66755 52.0822 5.59727C52.4975 5.36299 52.9128 5.12872 53.3525 4.91787C53.7678 4.70702 54.2076 4.49618 54.6228 4.28533C54.7206 4.23848 54.7938 4.19162 54.8916 4.16819C54.9404 4.16819 54.9648 4.12134 55.0137 4.09791C55.5756 3.84021 56.113 3.58251 56.6749 3.34824C56.8703 3.25453 57.0902 3.18424 57.2856 3.09053C57.4566 3.02025 57.6276 2.94997 57.7986 2.87969C57.9696 2.80941 58.165 2.73912 58.336 2.66884C58.8979 2.45799 59.4597 2.24715 60.0216 2.05973C60.0705 2.05973 60.1193 2.0363 60.1682 2.01287C60.2659 1.96602 60.388 1.94259 60.4858 1.91916C60.9011 1.7786 61.3163 1.63804 61.7316 1.5209C62.0248 1.42719 62.2935 1.38033 62.5866 1.28662C62.7576 1.23977 62.9286 1.19291 63.0996 1.14606C63.2218 1.12263 63.3439 1.07578 63.4416 1.05235C64.0279 0.911786 64.6142 0.794649 65.2005 0.677512C65.2494 0.677512 65.3227 0.677512 65.3715 0.654085C65.5181 0.630657 65.6647 0.60723 65.8112 0.583803C66.2021 0.51352 66.593 0.443238 66.9838 0.396383C67.2037 0.372956 67.4235 0.349529 67.6434 0.326101C67.8633 0.302674 68.1076 0.279246 68.3274 0.255819C68.4984 0.255819 68.6694 0.208964 68.8404 0.208964C69.2557 0.185537 69.671 0.185537 70.0619 0.162109C70.2573 0.162109 70.4283 0.162109 70.6237 0.162109C70.6726 0.162109 70.7459 0.162109 70.7947 0.162109C71.5032 0.162109 72.1872 0.185537 72.8712 0.255819H72.92C73.6529 0.326101 74.3858 0.419811 75.1186 0.560375H75.1431C75.9736 0.724367 76.7798 0.958641 77.5859 1.19291C77.6837 1.21634 77.7814 1.23977 77.8547 1.2632C78.1478 1.35691 78.4409 1.49747 78.7341 1.61461C78.9295 1.68489 79.125 1.75517 79.3204 1.84888C79.9067 2.10658 80.493 2.38771 81.0793 2.69227L112.861 20.4034C112.299 20.0988 111.713 19.8177 111.102 19.56C110.907 19.4663 110.711 19.4194 110.516 19.3257C110.125 19.1852 109.759 19.0446 109.343 18.904C108.562 18.6463 107.756 18.4355 106.901 18.2715H106.876C106.168 18.1309 105.435 18.0372 104.677 17.9669C103.92 17.8967 103.163 17.8732 102.406 17.8732C102.21 17.8732 102.039 17.8732 101.844 17.8732C101.282 17.8732 100.696 17.9201 100.109 17.9669C99.8894 17.9669 99.6452 18.0138 99.4253 18.0372C98.8146 18.1075 98.2038 18.1778 97.5687 18.2949C97.4221 18.3183 97.2756 18.3418 97.129 18.3652C96.3717 18.5058 95.6144 18.6698 94.8327 18.8572C94.6617 18.904 94.4907 18.9509 94.3197 18.9977C93.6112 19.1852 92.9272 19.396 92.2188 19.6068C92.1211 19.6303 91.9989 19.6771 91.9012 19.7006C91.1195 19.9583 90.3378 20.2628 89.5316 20.5674C89.3606 20.6377 89.1896 20.7079 89.0186 20.7782C88.2369 21.1062 87.4307 21.4576 86.649 21.8325C86.5513 21.8793 86.478 21.9262 86.3803 21.9496C85.5253 22.3479 84.6947 22.793 83.8397 23.2615C82.5938 23.9409 81.3724 24.6906 80.1265 25.5106L80.0777 25.5574C78.9051 26.3305 77.7081 27.1739 76.5599 28.0641C76.4622 28.1344 76.3645 28.2281 76.2668 28.2984C75.1675 29.1418 74.0926 30.0555 73.0177 30.9926C72.8956 31.0863 72.7735 31.2034 72.6757 31.2971C71.552 32.3045 70.4283 33.3587 69.3534 34.4598C68.7183 35.1158 68.0831 35.7952 67.448 36.498C67.3258 36.6386 67.2037 36.7791 67.0815 36.9197C66.4708 37.5991 65.8845 38.3019 65.2982 39.0047V39.075Z" fill="#B7E4EA"/>
<path d="M83.8397 23.3552C78.8562 26.1196 73.9216 29.868 69.329 34.5535C58.0673 46.0798 49.6882 63.3926 48.8576 77.3319C48.2469 77.5896 47.6362 77.8707 47.0499 78.2222C43.2634 80.3072 39.477 83.9619 36.6677 88.3194C33.3942 93.3797 31.733 99.4474 31.8063 104.273L138.78 45.0255C139.513 40.0824 138.389 34.9986 135.116 33.921C132.942 33.1947 129.888 33.7335 126.957 35.35C125.515 36.1466 124.074 37.2242 122.804 38.5127C122.315 26.0962 114.62 18.8806 104.677 17.9903C98.3993 17.4281 91.0951 19.3023 83.8397 23.3318V23.3552Z" fill="#F0F7F7"/>
</g>
<defs>
<clipPath id="clip0_5_392">
<rect width="139" height="104.064" fill="white" transform="translate(0 0.208984)"/>
</clipPath>
</defs>
</svg>
