<?xml version="1.0" encoding="UTF-8"?><svg xmlns="http://www.w3.org/2000/svg" viewBox="0 0 500 723.73"><defs><style>.j{fill:#f7d0a4;}.k{fill:#689d47;}.l{fill:#ecbf94;}.m,.n{fill:#fff;}.o{fill:#ecf0f1;}.p{fill:#8ab000;}.q{fill:#8ab21d;}.r{fill:#9cbd77;}.s{fill:#b4caed;}.t{fill:#84b600;}.u{fill:#a65d29;}.v{fill:#a4d200;}.w{fill:#bdc3c7;}.x{fill:#aaad6d;}.y{fill:#dadada;}.a`{fill:#adadad;}.aa{fill:#c8753b;}.ab{fill:#d5d5d3;}.ac{fill:#709a00;}.ad{fill:#544238;}.ae{fill:#634e42;}.af{fill:#637016;}.ag{fill:#290f00;}.ah{fill:#3c3c3b;}.ai{fill:#70ab44;}.aj{fill:#7aa900;}.ak,.n,.al{opacity:.3;}.am{opacity:.4;}.al{fill:#050505;}</style></defs><g id="a"/><g id="b"/><g id="c"/><g id="d"/><g id="e"><g><g><path class="k" d="M497.7,238.82v-8.68l-1.97-.11c-2.42-5.12-7.06-10.02-14.01-14.04l-199.59-111.95c-21.21-12.25-55.49-12.25-76.54-.02L18.03,215.9c-6.87,3.99-11.45,8.8-13.82,13.88l-1.91,.02,.04,6.94h-.04l.05,12.21c-.01,.46-.01,.44,0,.9v.28h.07c.63,9.26,5.88,15.44,15.85,21.2l199.59,112.16c21.22,12.25,55.51,12.36,76.57,.13l187.56-111.57c10.44-6.07,15.66-14.71,15.7-21.65h.02v-11.57h0Z"/><path class="r" d="M481.72,205.06l-199.59-111.92c-21.21-12.25-55.49-12.24-76.54,0L18.03,205.02c-21.05,12.24-20.97,32.09,.25,44.34l199.59,111.92c21.22,12.25,55.51,12.25,76.57,.01l187.56-111.88c21.05-12.24,20.94-32.1-.27-44.35h0Z"/></g><g><g><g><polygon class="ae" points="234.77 168.53 226.05 168.53 227.96 138.66 232.86 138.66 234.77 168.53"/><path class="ae" d="M233.48,166.75c1.7,.98,1.7,2.58,0,3.56-1.7,.98-4.46,.98-6.16,0-1.7-.98-1.7-2.58,0-3.56,1.7-.98,4.46-.98,6.16,0Z"/></g><path class="p" d="M206.74,117.14c1.26,14.69,11.48,25.86,23.66,25.86s22.4-11.16,23.66-25.86h-47.32Z"/><path class="v" d="M239.48,104.42c19.53,5.09,19.53,20.36,0,25.45-5.93,1.55-12.23,1.55-18.16,0-19.53-5.09-19.53-20.36,0-25.45,5.93-1.55,12.23-1.55,18.16,0Z"/><path class="v" d="M206.74,115.72c1.26-14.84,11.48-26.12,23.66-26.12s22.4,11.28,23.66,26.12h-47.32Z"/></g><g><g><polygon class="ae" points="104.51 264.92 95.8 264.92 97.7 235.05 102.6 235.05 104.51 264.92"/><path class="ae" d="M103.22,263.14c1.7,.98,1.7,2.58,0,3.56-1.7,.98-4.46,.98-6.16,0-1.7-.98-1.7-2.58,0-3.56,1.7-.98,4.46-.98,6.16,0Z"/></g><path class="p" d="M76.49,213.53c1.26,14.69,11.48,25.86,23.66,25.86s22.4-11.16,23.66-25.86h-47.32Z"/><path class="v" d="M109.23,200.8c19.53,5.09,19.53,20.36,0,25.45-5.93,1.55-12.23,1.55-18.16,0-19.53-5.09-19.53-20.36,0-25.45,5.93-1.55,12.23-1.55,18.16,0Z"/><path class="v" d="M76.49,212.11c1.26-14.84,11.48-26.12,23.66-26.12s22.4,11.28,23.66,26.12h-47.32Z"/></g><g><g><polygon class="ae" points="327.29 152 318.57 152 320.48 122.14 325.38 122.14 327.29 152"/><path class="ae" d="M326,150.22c1.7,.98,1.7,2.58,0,3.56-1.7,.98-4.46,.98-6.16,0-1.7-.98-1.7-2.58,0-3.56,1.7-.98,4.46-.98,6.16,0Z"/></g><path class="p" d="M299.26,100.62c1.26,14.69,11.48,25.86,23.66,25.86s22.4-11.16,23.66-25.86h-47.32Z"/><path class="v" d="M332,87.89c19.53,5.09,19.53,20.36,0,25.45-5.93,1.55-12.23,1.55-18.16,0-19.53-5.09-19.53-20.36,0-25.45,5.93-1.55,12.23-1.55,18.16,0Z"/><path class="v" d="M299.26,99.2c1.26-14.84,11.48-26.12,23.66-26.12s22.4,11.28,23.66,26.12h-47.32Z"/></g><g><g><polygon class="ag" points="187.76 228.38 177.55 228.38 179.79 193.41 185.52 193.41 187.76 228.38"/><path class="ag" d="M186.25,226.3c1.99,1.15,1.99,3.02,0,4.17-1.99,1.15-5.22,1.15-7.21,0-1.99-1.15-1.99-3.02,0-4.17,1.99-1.15,5.22-1.15,7.21,0Z"/></g><g><path class="ac" d="M197.14,210.17c-2.92,1.68-6.56,2.75-10.34,3.21-2.75,.32-5.56,.32-8.27,0-3.78-.46-7.42-1.53-10.38-3.21-5.31-3.07-7.1-7.42-5.35-11.34,0-.04,0-.07,.07-.14l.04-.07c0-.11,.07-.25,.14-.36h.04l.53-.93c1-1.43,2.5-2.78,4.53-3.92,1.21-.68,2.5-1.28,3.89-1.75,6.49-2.28,14.69-2.32,21.18-.04h.04c1.39,.5,2.71,1.11,3.89,1.78,1.89,1.07,3.35,2.35,4.35,3.71v.04l.14,.18c3.03,4.24,1.53,9.34-4.49,12.84Z"/><path class="ac" d="M202.24,198.43h-1.6l-14.8,.18-6.38,.04-10.77,.11h-.04l-2.6,.04-1.57,.04h-1.71l.11-.14,.04-.07,.18-.36,.53-.93,4.49-7.85,.68-1.21,4.64-8.06,.82-1.43,3.46-6.06,.68-1.14,2.39-4.21,1.93-3.35,1.75,3.07,2.53,4.46,.68,1.18,4.14,7.31,.78,1.39,3.39,5.96,1.21,2.14,4.31,7.6v.04l.14,.18,.61,1.11Z"/></g><g><path class="aj" d="M198.57,188.31c-.43,.46-.89,.86-1.39,1.21-.46,.36-.93,.68-1.46,.96-.78,.43-1.6,.82-2.46,1.14h-.04c-2.35,1-4.99,1.6-7.7,1.85-1.93,.18-3.85,.18-5.74,0-2.75-.25-5.38-.86-7.74-1.82-.86-.36-1.68-.75-2.42-1.18-.54-.32-1.03-.64-1.5-1-.32-.21-.61-.43-.86-.68-2.92-2.53-3.74-5.63-2.5-8.49h.04c0-.07,0-.11,.04-.14l.04-.04,.68-1.21,.04-.04v-.04c.07-.04,.11-.07,.14-.14,.89-1.18,2.18-2.32,3.89-3.28,2.32-1.36,5.13-2.25,8.09-2.71,3.24-.54,6.7-.54,9.95,0,2.92,.46,5.71,1.39,8.06,2.71,1.6,.93,2.85,1.96,3.71,3.07,.07,.07,.11,.11,.14,.18,2.35,3.1,2.03,6.7-1,9.63Z"/><path class="aj" d="M200.28,179.93l-1.78,.04-6.7,.07h-2.03l-7.13,.07-7.24,.11h-1.96l-8.63,.11h-.04l.07-.14,.04-.04,.68-1.21,.04-.04v-.04l.11-.14,5.71-9.98,1-1.75,3.03-5.28,3.28-5.71,3.99-6.99,3.96,6.99h.04l3.17,5.6,3.6,6.31,.43,.78,5.56,9.77,.11,.21,.71,1.25Z"/></g><g><path class="t" d="M194.43,168.3h-.04c-.18,.14-.32,.29-.5,.39-.39,.32-.82,.61-1.28,.89-1.64,.93-3.57,1.6-5.63,1.96-2.78,.53-5.81,.53-8.59,.04-2.1-.39-4.07-1.07-5.71-2-.46-.28-.89-.57-1.28-.86-.96-.71-1.68-1.53-2.1-2.35-.89-1.5-1-3.1-.29-4.6t.04-.07l.25-.5c.68-1.14,1.78-2.21,3.39-3.14,1.75-1,3.82-1.71,6.03-2.07,2.6-.46,5.35-.46,7.95,0h.04c2.18,.39,4.21,1.07,5.92,2.07,1.39,.82,2.39,1.71,3.1,2.71l.04,.04,.39,.71h-.07c1.18,2.25,.71,4.74-1.64,6.78Z"/><polygon class="t" points="196.14 161.53 189.86 161.6 187.33 161.6 183.34 161.63 175.42 161.7 169 161.78 168.97 161.78 169.08 161.63 169.29 161.21 171.68 157.07 182.7 137.85 193.5 156.89 195.71 160.78 195.75 160.81 196.14 161.53"/></g></g><g><g><polygon class="ag" points="310.66 344.08 300.45 344.08 302.68 309.11 308.42 309.11 310.66 344.08"/><path class="ag" d="M309.15,342c1.99,1.15,1.99,3.02,0,4.17-1.99,1.15-5.22,1.15-7.22,0-1.99-1.15-1.99-3.02,0-4.17,1.99-1.15,5.22-1.15,7.22,0Z"/></g><g><path class="ac" d="M320.04,325.87c-2.92,1.68-6.56,2.75-10.34,3.21-2.75,.32-5.56,.32-8.27,0-3.78-.46-7.42-1.53-10.38-3.21-5.31-3.07-7.1-7.42-5.35-11.34,0-.04,0-.07,.07-.14l.04-.07c0-.11,.07-.25,.14-.36h.04l.53-.93c1-1.43,2.5-2.78,4.53-3.92,1.21-.68,2.5-1.28,3.89-1.75,6.49-2.28,14.69-2.32,21.18-.04h.04c1.39,.5,2.71,1.11,3.89,1.78,1.89,1.07,3.35,2.35,4.35,3.71v.04l.14,.18c3.03,4.24,1.53,9.34-4.49,12.84Z"/><path class="ac" d="M325.14,314.14h-1.6l-14.8,.18-6.38,.04-10.77,.11h-.04l-2.6,.04-1.57,.04h-1.71l.11-.14,.04-.07,.18-.36,.53-.93,4.49-7.85,.68-1.21,4.64-8.06,.82-1.43,3.46-6.06,.68-1.14,2.39-4.21,1.93-3.35,1.75,3.07,2.53,4.46,.68,1.18,4.14,7.31,.78,1.39,3.39,5.96,1.21,2.14,4.31,7.6v.04l.14,.18,.61,1.11Z"/></g><g><path class="aj" d="M321.46,304.01c-.43,.46-.89,.86-1.39,1.21-.46,.36-.93,.68-1.46,.96-.78,.43-1.6,.82-2.46,1.14h-.04c-2.35,1-4.99,1.6-7.7,1.85-1.93,.18-3.85,.18-5.74,0-2.75-.25-5.38-.86-7.74-1.82-.86-.36-1.68-.75-2.42-1.18-.53-.32-1.03-.64-1.5-1-.32-.21-.61-.43-.86-.68-2.92-2.53-3.74-5.63-2.5-8.49h.04c0-.07,0-.11,.04-.14l.04-.04,.68-1.21,.04-.04v-.04c.07-.04,.11-.07,.14-.14,.89-1.18,2.18-2.32,3.89-3.28,2.32-1.36,5.13-2.25,8.09-2.71,3.25-.54,6.7-.54,9.95,0,2.92,.46,5.71,1.39,8.06,2.71,1.6,.93,2.85,1.96,3.71,3.07,.07,.07,.11,.11,.14,.18,2.35,3.1,2.03,6.7-1,9.63Z"/><path class="aj" d="M323.17,295.63l-1.78,.04-6.7,.07h-2.03l-7.13,.07-7.24,.11h-1.96l-8.63,.11h-.04l.07-.14,.04-.04,.68-1.21,.04-.04v-.04l.11-.14,5.71-9.98,1-1.75,3.03-5.28,3.28-5.71,3.99-6.99,3.96,6.99h.04l3.17,5.6,3.6,6.31,.43,.78,5.56,9.77,.11,.21,.71,1.25Z"/></g><g><path class="t" d="M317.33,284.01h-.04c-.18,.14-.32,.29-.5,.39-.39,.32-.82,.61-1.28,.89-1.64,.93-3.57,1.6-5.63,1.96-2.78,.53-5.81,.53-8.59,.04-2.1-.39-4.07-1.07-5.71-2-.46-.28-.89-.57-1.28-.86-.96-.71-1.68-1.53-2.1-2.35-.89-1.5-1-3.1-.28-4.6t.04-.07l.25-.5c.68-1.14,1.78-2.21,3.39-3.14,1.75-1,3.82-1.71,6.03-2.07,2.6-.46,5.35-.46,7.95,0h.04c2.18,.39,4.21,1.07,5.92,2.07,1.39,.82,2.39,1.71,3.1,2.71l.04,.04,.39,.71h-.07c1.18,2.25,.71,4.74-1.64,6.78Z"/><polygon class="t" points="319.04 277.23 312.76 277.3 310.23 277.3 306.24 277.34 298.32 277.41 291.9 277.48 291.86 277.48 291.97 277.34 292.19 276.91 294.57 272.77 305.59 253.55 316.4 272.59 318.61 276.48 318.65 276.52 319.04 277.23"/></g></g><g><g><polygon class="ag" points="370.95 212.23 360.75 212.23 362.98 177.26 368.72 177.26 370.95 212.23"/><path class="ag" d="M369.44,210.15c1.99,1.15,1.99,3.01,0,4.17-1.99,1.15-5.22,1.15-7.21,0-1.99-1.15-1.99-3.02,0-4.17,1.99-1.15,5.22-1.15,7.21,0Z"/></g><g><path class="ac" d="M380.33,194.01c-2.92,1.68-6.56,2.75-10.34,3.21-2.75,.32-5.56,.32-8.27,0-3.78-.46-7.42-1.53-10.38-3.21-5.31-3.07-7.1-7.42-5.35-11.34,0-.04,0-.07,.07-.14l.04-.07c0-.11,.07-.25,.14-.36h.04l.53-.93c1-1.43,2.5-2.78,4.53-3.92,1.21-.68,2.5-1.28,3.89-1.75,6.49-2.28,14.69-2.32,21.18-.04h.04c1.39,.5,2.71,1.11,3.89,1.78,1.89,1.07,3.35,2.35,4.35,3.71v.04l.14,.18c3.03,4.24,1.53,9.34-4.49,12.84Z"/><path class="ac" d="M385.43,182.28h-1.6l-14.8,.18-6.38,.04-10.77,.11h-.04l-2.6,.04-1.57,.04h-1.71l.11-.14,.04-.07,.18-.36,.53-.93,4.49-7.85,.68-1.21,4.64-8.06,.82-1.43,3.46-6.06,.68-1.14,2.39-4.21,1.93-3.35,1.75,3.07,2.53,4.46,.68,1.18,4.14,7.31,.78,1.39,3.39,5.96,1.21,2.14,4.31,7.6v.04l.14,.18,.61,1.11Z"/></g><g><path class="aj" d="M381.76,172.15c-.43,.46-.89,.86-1.39,1.21-.46,.36-.93,.68-1.46,.96-.78,.43-1.6,.82-2.46,1.14h-.04c-2.35,1-4.99,1.6-7.7,1.85-1.93,.18-3.85,.18-5.74,0-2.75-.25-5.39-.86-7.74-1.82-.86-.36-1.68-.75-2.42-1.18-.54-.32-1.03-.64-1.5-1-.32-.21-.61-.43-.86-.68-2.92-2.53-3.74-5.63-2.5-8.49h.04c0-.07,0-.11,.04-.14l.04-.04,.68-1.21,.04-.04v-.04c.07-.04,.11-.07,.14-.14,.89-1.18,2.18-2.32,3.89-3.28,2.32-1.36,5.13-2.25,8.09-2.71,3.24-.54,6.7-.54,9.95,0,2.92,.46,5.71,1.39,8.06,2.71,1.6,.93,2.85,1.96,3.71,3.07,.07,.07,.11,.11,.14,.18,2.35,3.1,2.03,6.7-1,9.63Z"/><path class="aj" d="M383.47,163.77l-1.78,.04-6.7,.07h-2.03l-7.13,.07-7.24,.11h-1.96l-8.63,.11h-.04l.07-.14,.04-.04,.68-1.21,.04-.04v-.04l.11-.14,5.71-9.98,1-1.75,3.03-5.28,3.28-5.71,3.99-6.99,3.96,6.99h.04l3.17,5.6,3.6,6.31,.43,.78,5.56,9.77,.11,.21,.71,1.25Z"/></g><g><path class="t" d="M377.62,152.15h-.04c-.18,.14-.32,.29-.5,.39-.39,.32-.82,.61-1.28,.89-1.64,.93-3.57,1.6-5.63,1.96-2.78,.53-5.81,.53-8.59,.04-2.1-.39-4.07-1.07-5.71-2-.46-.29-.89-.57-1.28-.86-.96-.71-1.68-1.53-2.1-2.35-.89-1.5-1-3.1-.29-4.6t.04-.07l.25-.5c.68-1.14,1.78-2.21,3.39-3.14,1.75-1,3.82-1.71,6.03-2.07,2.6-.46,5.35-.46,7.95,0h.04c2.18,.39,4.21,1.07,5.92,2.07,1.39,.82,2.39,1.71,3.1,2.71l.04,.04,.39,.71h-.07c1.18,2.25,.71,4.74-1.64,6.78Z"/><polygon class="t" points="379.33 145.37 373.06 145.44 370.53 145.44 366.53 145.48 358.61 145.55 352.2 145.62 352.16 145.62 352.27 145.48 352.48 145.05 354.87 140.92 365.89 121.7 376.69 140.74 378.91 144.62 378.94 144.66 379.33 145.37"/></g></g><g><g><polygon class="ag" points="145.05 161.68 134.84 161.68 137.08 126.71 142.81 126.71 145.05 161.68"/><path class="ag" d="M143.54,159.6c1.99,1.15,1.99,3.02,0,4.17s-5.22,1.15-7.21,0c-1.99-1.15-1.99-3.02,0-4.17,1.99-1.15,5.22-1.15,7.21,0Z"/></g><g><path class="ac" d="M154.43,143.47c-2.92,1.68-6.56,2.75-10.34,3.21-2.75,.32-5.56,.32-8.27,0-3.78-.46-7.42-1.53-10.38-3.21-5.31-3.07-7.1-7.42-5.35-11.34,0-.04,0-.07,.07-.14l.04-.07c0-.11,.07-.25,.14-.36h.04l.54-.93c1-1.43,2.5-2.78,4.53-3.92,1.21-.68,2.5-1.28,3.89-1.75,6.49-2.28,14.69-2.32,21.18-.04h.04c1.39,.5,2.71,1.11,3.89,1.78,1.89,1.07,3.35,2.35,4.35,3.71v.04l.14,.18c3.03,4.24,1.53,9.34-4.49,12.84Z"/><path class="ac" d="M159.53,131.73h-1.6l-14.8,.18-6.38,.04-10.77,.11h-.04l-2.6,.04-1.57,.04h-1.71l.11-.14,.04-.07,.18-.36,.54-.93,4.49-7.85,.68-1.21,4.64-8.06,.82-1.43,3.46-6.06,.68-1.14,2.39-4.21,1.93-3.35,1.75,3.07,2.53,4.46,.68,1.18,4.14,7.31,.78,1.39,3.39,5.96,1.21,2.14,4.31,7.6v.04l.14,.18,.61,1.11Z"/></g><g><path class="aj" d="M155.85,121.61c-.43,.46-.89,.86-1.39,1.21-.46,.36-.93,.68-1.46,.96-.78,.43-1.6,.82-2.46,1.14h-.04c-2.35,1-4.99,1.6-7.7,1.85-1.93,.18-3.85,.18-5.74,0-2.75-.25-5.38-.86-7.74-1.82-.86-.36-1.68-.75-2.42-1.18-.53-.32-1.03-.64-1.5-1-.32-.21-.61-.43-.86-.68-2.92-2.53-3.74-5.63-2.5-8.49h.04c0-.07,0-.11,.04-.14l.04-.04,.68-1.21,.04-.04v-.04c.07-.04,.11-.07,.14-.14,.89-1.18,2.18-2.32,3.89-3.28,2.32-1.36,5.14-2.25,8.09-2.71,3.25-.53,6.7-.53,9.95,0,2.92,.46,5.71,1.39,8.06,2.71,1.6,.93,2.85,1.96,3.71,3.07,.07,.07,.11,.11,.14,.18,2.35,3.1,2.03,6.7-1,9.63Z"/><path class="aj" d="M157.56,113.23l-1.78,.04-6.7,.07h-2.03l-7.13,.07-7.24,.11h-1.96l-8.63,.11h-.04l.07-.14,.04-.04,.68-1.21,.04-.04v-.04l.11-.14,5.71-9.98,1-1.75,3.03-5.28,3.28-5.71,3.99-6.99,3.96,6.99h.04l3.17,5.6,3.6,6.31,.43,.78,5.56,9.77,.11,.21,.71,1.25Z"/></g><g><path class="t" d="M151.72,101.6h-.04c-.18,.14-.32,.29-.5,.39-.39,.32-.82,.61-1.28,.89-1.64,.93-3.57,1.6-5.63,1.96-2.78,.54-5.81,.54-8.59,.04-2.1-.39-4.07-1.07-5.71-2-.46-.28-.89-.57-1.28-.86-.96-.71-1.68-1.53-2.1-2.35-.89-1.5-1-3.1-.29-4.6t.04-.07l.25-.5c.68-1.14,1.78-2.21,3.39-3.14,1.75-1,3.82-1.71,6.03-2.07,2.6-.46,5.35-.46,7.95,0h.04c2.18,.39,4.21,1.07,5.92,2.07,1.39,.82,2.39,1.71,3.1,2.71l.04,.04,.39,.71h-.07c1.18,2.25,.71,4.74-1.64,6.77Z"/><polygon class="t" points="153.43 94.82 147.15 94.9 144.62 94.9 140.63 94.93 132.71 95 126.29 95.07 126.26 95.07 126.36 94.93 126.58 94.5 128.97 90.37 139.98 71.15 150.79 90.19 153 94.08 153.04 94.11 153.43 94.82"/></g></g><g><g><polygon class="ad" points="40.26 239.81 29.64 239.81 31.96 203.42 37.93 203.42 40.26 239.81"/><path class="ad" d="M38.69,237.64c2.07,1.2,2.07,3.14,0,4.33-2.07,1.2-5.43,1.2-7.51,0-2.07-1.2-2.07-3.14,0-4.33,2.07-1.2,5.43-1.2,7.51,0Z"/></g><path class="q" d="M17.67,183.35c.25,9.37,7.91,24.27,17.28,24.27s17.03-14.91,17.28-24.27H17.67Z"/><path class="v" d="M47.22,177.11c6.76,3.9,6.76,10.23,0,14.13-6.76,3.9-17.72,3.9-24.48,0-6.76-3.9-6.76-10.23,0-14.13,6.76-3.9,17.72-3.9,24.48,0Z"/><path class="v" d="M17.67,183.35c.25-9.37,7.91-40.09,17.28-40.09s17.03,30.72,17.28,40.09H17.67Z"/></g><g><g><polygon class="ad" points="176.77 321.69 166.15 321.69 168.47 285.3 174.44 285.3 176.77 321.69"/><path class="ad" d="M175.2,319.52c2.07,1.2,2.07,3.14,0,4.33-2.07,1.2-5.43,1.2-7.51,0-2.07-1.2-2.07-3.14,0-4.33,2.07-1.2,5.43-1.2,7.51,0Z"/></g><path class="q" d="M154.18,265.23c.25,9.37,7.91,24.27,17.28,24.27s17.03-14.91,17.28-24.27h-34.56Z"/><path class="v" d="M183.73,258.99c6.76,3.9,6.76,10.23,0,14.13-6.76,3.9-17.72,3.9-24.48,0-6.76-3.9-6.76-10.23,0-14.13,6.76-3.9,17.72-3.9,24.48,0Z"/><path class="v" d="M154.18,265.23c.25-9.37,7.91-40.09,17.28-40.09s17.03,30.72,17.28,40.09h-34.56Z"/></g><g><g><polygon class="ad" points="369.45 313.51 358.83 313.51 361.15 277.13 367.12 277.13 369.45 313.51"/><path class="ad" d="M367.87,311.35c2.07,1.2,2.07,3.14,0,4.33-2.07,1.2-5.43,1.2-7.51,0-2.07-1.2-2.07-3.14,0-4.33,2.07-1.2,5.43-1.2,7.51,0Z"/></g><path class="q" d="M346.86,257.06c.25,9.37,7.91,24.27,17.28,24.27s17.03-14.91,17.28-24.27h-34.56Z"/><path class="v" d="M376.41,250.81c6.76,3.9,6.76,10.23,0,14.13-6.76,3.9-17.72,3.9-24.48,0-6.76-3.9-6.76-10.23,0-14.13,6.76-3.9,17.72-3.9,24.48,0Z"/><path class="v" d="M346.86,257.06c.25-9.37,7.91-40.09,17.28-40.09s17.03,30.72,17.28,40.09h-34.56Z"/></g><g><g><polygon class="ad" points="286.59 232.51 275.97 232.51 278.3 196.13 284.27 196.13 286.59 232.51"/><path class="ad" d="M285.02,230.34c2.07,1.2,2.07,3.14,0,4.33s-5.43,1.2-7.51,0c-2.07-1.2-2.07-3.14,0-4.33,2.07-1.2,5.43-1.2,7.51,0Z"/></g><path class="q" d="M264.01,176.05c.25,9.37,7.91,24.27,17.28,24.27s17.03-14.91,17.28-24.27h-34.56Z"/><path class="v" d="M293.56,169.81c6.76,3.9,6.76,10.23,0,14.13-6.76,3.9-17.72,3.9-24.48,0s-6.76-10.23,0-14.13c6.76-3.9,17.72-3.9,24.48,0Z"/><path class="v" d="M264.01,176.05c.25-9.37,7.91-40.09,17.28-40.09s17.03,30.72,17.28,40.09h-34.56Z"/></g><g><g><polygon class="ad" points="237.91 297.16 227.29 297.16 229.61 260.78 235.58 260.78 237.91 297.16"/><path class="ad" d="M236.34,295c2.07,1.2,2.07,3.14,0,4.33-2.07,1.2-5.43,1.2-7.51,0-2.07-1.2-2.07-3.14,0-4.33,2.07-1.2,5.43-1.2,7.51,0Z"/></g><path class="q" d="M215.32,240.71c.25,9.37,7.91,24.27,17.28,24.27s17.03-14.91,17.28-24.27h-34.56Z"/><path class="v" d="M244.87,234.47c6.76,3.9,6.76,10.23,0,14.13-6.76,3.9-17.72,3.9-24.48,0-6.76-3.9-6.76-10.23,0-14.13,6.76-3.9,17.72-3.9,24.48,0Z"/><path class="v" d="M215.32,240.71c.25-9.37,7.91-40.09,17.28-40.09s17.03,30.72,17.28,40.09h-34.56Z"/></g><g><g><polygon class="ae" points="444.94 256.66 436.22 256.66 438.13 226.8 443.03 226.8 444.94 256.66"/><path class="ae" d="M443.65,254.89c1.7,.98,1.7,2.58,0,3.56-1.7,.98-4.46,.98-6.16,0-1.7-.98-1.7-2.58,0-3.56,1.7-.98,4.46-.98,6.16,0Z"/></g><path class="p" d="M416.91,205.28c1.26,14.7,11.48,25.86,23.66,25.86s22.4-11.16,23.66-25.86h-47.32Z"/><path class="v" d="M449.65,192.55c19.53,5.09,19.53,20.36,0,25.45-5.93,1.55-12.23,1.55-18.16,0-19.53-5.09-19.53-20.36,0-25.45,5.93-1.55,12.23-1.55,18.16,0Z"/><path class="v" d="M416.91,203.86c1.26-14.84,11.48-26.12,23.66-26.12s22.4,11.28,23.66,26.12h-47.32Z"/></g><g><g><polygon class="ag" points="257.6 92.53 247.39 92.53 249.62 57.56 255.36 57.56 257.6 92.53"/><path class="ag" d="M256.09,90.45c1.99,1.15,1.99,3.02,0,4.17-1.99,1.15-5.22,1.15-7.22,0-1.99-1.15-1.99-3.02,0-4.17,1.99-1.15,5.22-1.15,7.22,0Z"/></g><g><path class="ac" d="M266.98,74.32c-2.92,1.68-6.56,2.75-10.34,3.21-2.75,.32-5.56,.32-8.27,0-3.78-.46-7.42-1.53-10.38-3.21-5.31-3.07-7.1-7.42-5.35-11.34,0-.04,0-.07,.07-.14l.04-.07c0-.11,.07-.25,.14-.36h.04l.54-.93c1-1.43,2.5-2.78,4.53-3.92,1.21-.68,2.5-1.28,3.89-1.75,6.49-2.28,14.69-2.32,21.18-.04h.04c1.39,.5,2.71,1.11,3.89,1.78,1.89,1.07,3.35,2.35,4.35,3.71v.04l.14,.18c3.03,4.24,1.53,9.34-4.49,12.84Z"/><path class="ac" d="M272.07,62.59h-1.6l-14.8,.18-6.38,.04-10.77,.11h-.04l-2.6,.04-1.57,.04h-1.71l.11-.14,.04-.07,.18-.36,.54-.93,4.49-7.85,.68-1.21,4.64-8.06,.82-1.43,3.46-6.06,.68-1.14,2.39-4.21,1.93-3.35,1.75,3.07,2.53,4.46,.68,1.18,4.14,7.31,.78,1.39,3.39,5.96,1.21,2.14,4.31,7.6v.04l.14,.18,.61,1.11Z"/></g><g><path class="aj" d="M268.4,52.46c-.43,.46-.89,.86-1.39,1.21-.46,.36-.93,.68-1.46,.96-.78,.43-1.6,.82-2.46,1.14h-.04c-2.35,1-4.99,1.6-7.7,1.85-1.93,.18-3.85,.18-5.74,0-2.75-.25-5.38-.86-7.74-1.82-.86-.36-1.68-.75-2.42-1.18-.53-.32-1.03-.64-1.5-1-.32-.21-.61-.43-.86-.68-2.92-2.53-3.74-5.63-2.5-8.49h.04c0-.07,0-.11,.04-.14l.04-.04,.68-1.21,.04-.04v-.04c.07-.04,.11-.07,.14-.14,.89-1.18,2.18-2.32,3.89-3.28,2.32-1.36,5.13-2.25,8.09-2.71,3.25-.54,6.7-.54,9.95,0,2.92,.46,5.71,1.39,8.06,2.71,1.6,.93,2.85,1.96,3.71,3.07,.07,.07,.11,.11,.14,.18,2.35,3.1,2.03,6.7-1,9.63Z"/><path class="aj" d="M270.11,44.08l-1.78,.04-6.7,.07h-2.03l-7.13,.07-7.24,.11h-1.96l-8.63,.11h-.04l.07-.14,.04-.04,.68-1.21,.04-.04v-.04l.11-.14,5.71-9.98,1-1.75,3.03-5.28,3.28-5.71,3.99-6.99,3.96,6.99h.04l3.17,5.6,3.6,6.31,.43,.78,5.56,9.77,.11,.21,.71,1.25Z"/></g><g><path class="t" d="M264.27,32.45h-.04c-.18,.14-.32,.29-.5,.39-.39,.32-.82,.61-1.28,.89-1.64,.93-3.57,1.6-5.63,1.96-2.78,.53-5.81,.53-8.59,.04-2.1-.39-4.07-1.07-5.71-2-.46-.28-.89-.57-1.28-.86-.96-.71-1.68-1.53-2.1-2.35-.89-1.5-1-3.1-.29-4.6t.04-.07l.25-.5c.68-1.14,1.78-2.21,3.39-3.14,1.75-1,3.82-1.71,6.03-2.07,2.6-.46,5.35-.46,7.95,0h.04c2.18,.39,4.21,1.07,5.92,2.07,1.39,.82,2.39,1.71,3.1,2.71l.04,.04,.39,.71h-.07c1.18,2.25,.71,4.74-1.64,6.78Z"/><polygon class="t" points="265.98 25.68 259.7 25.75 257.17 25.75 253.18 25.78 245.26 25.86 238.84 25.93 238.8 25.93 238.91 25.78 239.13 25.36 241.51 21.22 252.53 2 263.34 21.04 265.55 24.93 265.58 24.96 265.98 25.68"/></g></g><g><g><polygon class="ae" points="250.35 366.07 241.63 366.07 243.54 336.21 248.44 336.21 250.35 366.07"/><path class="ae" d="M249.06,364.29c1.7,.98,1.7,2.58,0,3.56-1.7,.98-4.46,.98-6.16,0-1.7-.98-1.7-2.58,0-3.56,1.7-.98,4.46-.98,6.16,0Z"/></g><path class="p" d="M222.32,314.69c1.26,14.69,11.48,25.86,23.66,25.86s22.4-11.16,23.66-25.86h-47.32Z"/><path class="v" d="M255.06,301.96c19.53,5.09,19.53,20.36,0,25.45-5.93,1.55-12.23,1.55-18.16,0-19.53-5.09-19.53-20.36,0-25.45,5.93-1.55,12.23-1.55,18.16,0Z"/><path class="v" d="M222.32,313.27c1.26-14.84,11.48-26.12,23.66-26.12s22.4,11.28,23.66,26.12h-47.32Z"/></g></g></g><g><path class="k" d="M310.9,678.21v-4.01l-.91-.05c-1.12-2.36-3.26-4.63-6.47-6.48l-35.98-20.37c-9.79-5.65-25.61-5.65-35.33,0l-36.84,21.52c-3.17,1.84-5.28,4.06-6.38,6.41h-.88l.02,3.21h-.02l.02,5.64c0,.21,0,.2,0,.42v.13h.03c.29,4.27,2.71,7.13,7.32,9.78l35.98,20.46c9.79,5.65,25.62,5.71,35.34,.06l36.84-21.38c4.82-2.8,7.23-6.79,7.25-9.99h0v-5.34h0Z"/><path class="r" d="M303.52,664.04l-35.98-20.35c-9.79-5.65-25.61-5.65-35.33,0l-36.84,21.52c-9.72,5.65-9.68,14.81,.12,20.46l35.98,20.35c9.79,5.65,25.62,5.65,35.34,0l36.84-21.52c9.72-5.65,9.67-14.82-.13-20.47h0Z"/></g><g><path class="k" d="M322.7,478.26v-4.79l-1.09-.06c-1.33-2.82-3.9-5.53-7.74-7.75l-43.03-24.36c-11.71-6.76-30.63-6.76-42.25,0l-44.06,25.73c-3.79,2.2-6.32,4.86-7.63,7.66h-1.05l.02,3.84h-.02l.03,6.74c0,.25,0,.24,0,.5v.16h.04c.35,5.11,3.24,8.52,8.75,11.7l43.03,24.47c11.71,6.76,30.64,6.82,42.26,.07l44.06-25.57c5.76-3.35,8.64-8.12,8.67-11.95h0v-6.39h0Z"/><path class="r" d="M313.88,461.32l-43.03-24.34c-11.71-6.76-30.63-6.75-42.25,0l-44.06,25.74c-11.62,6.75-11.57,17.71,.14,24.47l43.03,24.34c11.71,6.76,30.64,6.76,42.26,0l44.06-25.74c11.62-6.75,11.56-17.72-.15-24.48h0Z"/></g><g><g class="ak"><path d="M292.27,481.7c3.71-2.14,3.71-5.65,0-7.79l-32.08-18.52c-3.71-2.14-9.78-2.14-13.49,0l-41.47,23.94c-3.71,2.14-3.71,5.64,0,7.79l32.08,18.52c3.71,2.14,9.78,2.14,13.49,0l41.46-23.94Z"/></g><g><path class="u" d="M214.02,450.29c-1.8,1.04-13.97,8.07-13.97,8.07l17.72,30.77,44.77-25.9h0c2.26-1.32,3.67-4.12,3.67-8.12,0-8-5.61-17.71-12.54-21.71-3.46-2-6.59-2.19-8.86-.88h0s-10.89,6.28-13.59,7.84c-2.7,1.56-4.68,.8-9.63,3.66-4.95,2.86-6.33,5.56-7.57,6.27Z"/><path class="al" d="M207.55,471.37l10.23,17.75,44.77-25.9h0c2.26-1.32,3.67-4.12,3.67-8.12,0-4.8-2.02-10.21-5.13-14.64l-53.53,30.9Z"/><g class="am"><path class="aa" d="M236.07,474.8c-4.64,2.57-6.44,1.77-9.48,3.91-2.76,1.94-5.39,3.76-7.1,3.7l.51,2.89s3.81-1.64,5.79-3.9c4.77-5.45,6.12-2.88,10.27-6.6Z"/><path class="aa" d="M251.43,450.97c.62,1.1,1.98,.24,3.63-.77,1.65-1.01,2.97-1.76,2.34-2.88-.69-1.24-1.98-.24-3.63,.77-1.65,1.01-2.94,1.83-2.35,2.88Z"/><path class="aa" d="M227.3,460.17c-2.38-2.18-11.55,7.38-11.55,7.38l2.63,4.55s13.48-13.58,25.57-14.91c4.53-.5,.39,2.02,2.09,2.32,2.6,.45,21.05-9.68,18.01-10.09-2.63-.35-.88-1.58,.56-2.35,0,0-.66-1.98-1.82-3.89-2.71,2.22-5.61,5.46-2.18,4.4,4.79-1.49-15.89,10.82-10.75,6.21,5.13-4.61-11.01,1.56-22.73,9.45-11.71,7.88,.93-2.37,.18-3.06Z"/><path class="aa" d="M213.44,464.07c-.42,1.13,2.23,4.03,1.55,3.24,5.55-9.62,27.31-16.22,33.52-23.63-12.29,9.35-26.45,12.35-35.07,20.38Z"/><path class="aa" d="M233.28,473.96c13.74-2.45,22.62-14.2,32.68-16.11,0,0,.31-1.21,.25-3.14-11.18,3.71-17.7,14.28-32.94,19.25Z"/><path class="aa" d="M220.45,481.84s-.02,.02-.03,.03c.19,.24,.16,.18,.03-.03Z"/><path class="aa" d="M235.67,466.69c-.96-.01-8.14,9.49-16.44,12.53,0,.64,.91,2.11,1.22,2.63,3.73-4.46,14.56-7.94,15.22-15.16Z"/><path class="aa" d="M228.86,458.85c1.64,.94,24.3-11.25,32.95-17.29,0,0-.62-1.05-1.41-2.02-8.22,7.5-33.18,18.37-31.54,19.31Z"/><path class="aa" d="M209.65,460.49l3.28,2.56s3.53-3.11,12.43-8.25c8.91-5.14,19.26-10.45,24.53-13.49,2.87-1.66,5.47-3.77,7.24-5.35-1.7-1.51-2.29-1.81-2.29-1.81-1.28,.94-3.45,2.5-6.49,4.51-16.76,11.14-38.71,21.84-38.71,21.84Z"/><path class="aa" d="M260.01,453.77c-4.42,2.94-7.57,6.65-12.78,8.08-4.92,1.35-3.11-1.74-5.61-2.42-4.68-1.27-24.88,15.77-24.88,15.77,0,0,.31,2.79,3.12,2.45,8.38-4.84,21.3-23.73,19.09-12.07-2.1,11.03,16.41-7.04,22.15-10.35,1.81-1.05,3.33-2.15,4.89-3.01,0,0-.08-.87-.39-1.97-1.61,1.31-3.02,1.82-5.58,3.52Z"/><path class="aa" d="M228.01,444.75c-1.34,1.33-2.88,2.42-4.55,3.3-.83,.44-1.69,.81-2.57,1.1-.89,.29-1.8,.49-2.73,.66-.93,.17-1.9,.33-2.86,.65-.48,.16-.94,.36-1.4,.6l-1.26,.71c-3.33,1.89-6.63,3.83-9.93,5.77l.82,1.33c3.21-2.07,6.43-4.14,9.67-6.15,.4-.25,.81-.51,1.21-.74,.38-.22,.8-.41,1.22-.56,.85-.32,1.77-.5,2.71-.7,.94-.2,1.9-.44,2.82-.77,.92-.33,1.81-.75,2.66-1.23,.84-.48,1.66-1.01,2.43-1.6,.77-.59,1.49-1.25,2.16-1.95,.67-.69,1.31-1.39,2.02-2,.71-.62,1.5-1.12,2.33-1.6l9.84-5.9-10.03,5.57c-.84,.45-1.69,.95-2.44,1.57-.76,.61-1.43,1.31-2.11,1.97Z"/><path class="aa" d="M217.11,448.92c.34,.59,2.96-.29,5.86-1.96,2.9-1.67,4.97-3.5,4.63-4.1-.34-.59-2.96,.29-5.86,1.96-2.9,1.67-4.97,3.5-4.63,4.09Z"/><path class="aa" d="M251.91,432.52s-.94-.44-1.8-.59l-18.71,12.21,20.52-11.63Z"/><polygon class="aa" points="247.54 437.23 215.77 453.97 210.19 459.03 247.54 437.23"/><polygon class="aa" points="226.32 482.33 263.88 460.89 259.62 461.51 226.32 482.33"/></g><path class="j" d="M196.69,463.48c-.18,.9-.29,1.88-.29,2.95,0,8.02,5.62,17.77,12.58,21.78,3.28,1.9,6.27,2.15,8.52,1.06,0,0,.43-.22,.91-.55,1.95-1.43,3.14-4.09,3.14-7.76,0-3.61-1.14-7.57-3.04-11.2l-1.04-1.83c-2.24-3.67-5.21-6.86-8.5-8.75-2.65-1.54-5.19-2-7.15-1.54-1.33,.3-2.57,1.24-2.57,1.24-.91,.75-1.61,1.8-2.1,3.09l-.46,1.51Z"/></g><g><polygon class="aa" points="245.83 494.97 246.38 504.86 245.48 505.43 241.04 497.74 245.83 494.97"/><path class="u" d="M272.78,448.67l-44.75,25.83,12.31,11.19,6.04,19.16,44.14-25.48h0c2.27-1.32,3.67-4.12,3.67-8.12,0-8-5.61-17.72-12.54-21.71-3.47-2-6.61-2.19-8.88-.87Z"/><path class="al" d="M279.04,448.35c-2.42-.8-4.58-.66-6.26,.32l-44.75,25.83,2.22,2.01,48.79-28.17Z"/><g class="am"><path class="aa" d="M264.06,490.98c-4.65,2.57-6.44,1.77-9.48,3.91-2.76,1.94-5.39,3.76-7.1,3.7l.51,2.89s3.81-1.64,5.79-3.9c4.77-5.45,6.13-2.88,10.27-6.6Z"/><path class="aa" d="M279.42,467.15c.62,1.1,1.98,.24,3.63-.77,1.65-1.01,2.97-1.76,2.34-2.88-.69-1.24-1.98-.24-3.63,.77-1.65,1.01-2.93,1.83-2.35,2.88Z"/><path class="aa" d="M255.29,476.35c-2.38-2.18-11.55,7.38-11.55,7.38l2.63,4.55s13.48-13.58,25.57-14.91c4.53-.5,.39,2.02,2.09,2.32,2.6,.45,21.05-9.69,18.01-10.09-2.63-.35-.88-1.58,.56-2.35,0,0-.66-1.98-1.82-3.89-2.72,2.22-5.61,5.46-2.18,4.4,4.79-1.49-15.89,10.82-10.76,6.21,5.13-4.61-11.01,1.56-22.73,9.45-11.71,7.88,.93-2.37,.18-3.06Z"/><path class="aa" d="M241.43,480.25c-.42,1.13,2.23,4.03,1.55,3.25,5.55-9.62,27.31-16.22,33.52-23.63-12.29,9.34-26.45,12.35-35.07,20.38Z"/><path class="aa" d="M261.27,490.14c13.74-2.45,22.62-14.2,32.68-16.11,0,0,.31-1.21,.25-3.14-11.18,3.72-17.7,14.28-32.94,19.25Z"/><path class="aa" d="M248.44,498.03s-.02,.02-.03,.03c.19,.24,.16,.19,.03-.03Z"/><path class="aa" d="M263.66,482.87c-.96-.02-8.14,9.49-16.44,12.53,0,.64,.91,2.11,1.22,2.63,3.73-4.46,14.56-7.94,15.22-15.16Z"/><path class="aa" d="M256.86,475.03c1.64,.94,24.3-11.25,32.95-17.29,0,0-.62-1.05-1.41-2.02-8.22,7.51-33.18,18.37-31.54,19.31Z"/><path class="aa" d="M237.64,476.67l3.28,2.56s3.53-3.11,12.43-8.26c8.91-5.14,19.27-10.45,24.53-13.49,2.87-1.66,5.47-3.77,7.24-5.36-1.7-1.51-2.29-1.81-2.29-1.81-1.28,.94-3.45,2.5-6.49,4.51-16.76,11.14-38.71,21.84-38.71,21.84Z"/><path class="aa" d="M288.01,469.95c-4.42,2.94-7.57,6.65-12.78,8.08-4.92,1.35-3.11-1.73-5.61-2.42-4.68-1.27-24.88,15.77-24.88,15.77,0,0,.31,2.79,3.12,2.45,8.38-4.84,21.3-23.73,19.09-12.07-2.1,11.03,16.4-7.03,22.15-10.35,1.81-1.05,3.33-2.15,4.89-3.01,0,0-.08-.87-.39-1.97-1.61,1.31-3.02,1.82-5.58,3.52Z"/><path class="aa" d="M230.7,473.72l.82,1.33c3.21-2.07,6.43-4.14,9.67-6.16,.4-.25,.81-.51,1.21-.74,.38-.22,.8-.41,1.22-.57,.85-.32,1.77-.5,2.71-.7,.94-.2,1.9-.44,2.82-.77,.92-.33,1.81-.75,2.66-1.23,.84-.48,1.66-1.01,2.43-1.6,.78-.59,1.49-1.25,2.16-1.94,.67-.69,1.31-1.4,2.02-2.01,.71-.62,1.5-1.12,2.33-1.6l11.86-7.86s-38.61,21.92-41.91,23.86Z"/><path class="aa" d="M279.9,448.7s-.94-.44-1.8-.59l-18.71,12.22,20.52-11.63Z"/><polygon class="aa" points="275.53 453.4 243.76 470.15 238.19 475.21 275.53 453.4"/><polygon class="aa" points="254.32 498.51 291.88 477.07 287.62 477.69 254.32 498.51"/></g><path class="j" d="M224.67,479.63c-.18,.9-.29,1.88-.29,2.95,0,8.02,5.62,17.77,12.58,21.78,3.28,1.9,6.27,2.15,8.52,1.06-1.16-2.59-3.22-7.13-3.1-6.97,.12,.15,2.64,4.19,4.01,6.41,1.95-1.43,3.14-4.09,3.14-7.76,0-3.61-1.14-7.57-3.04-11.2l-1.04-1.83c-2.23-3.67-5.21-6.86-8.5-8.75-2.65-1.54-5.19-1.99-7.15-1.54-1.33,.3-2.57,1.24-2.57,1.24-.91,.75-1.61,1.8-2.1,3.09l-.46,1.52Z"/></g><g><path class="u" d="M228.37,434.02c-1.8,1.04-13.97,8.07-13.97,8.07l17.72,30.77,44.77-25.9h0c2.27-1.32,3.67-4.12,3.67-8.12,0-7.99-5.61-17.72-12.53-21.71-3.46-2-6.59-2.19-8.86-.88h0s-10.89,6.28-13.59,7.84c-2.7,1.56-4.69,.8-9.63,3.66-4.95,2.86-6.33,5.56-7.57,6.27Z"/><g class="am"><path class="aa" d="M250.41,458.54c-4.65,2.57-6.44,1.78-9.48,3.91-2.76,1.94-5.39,3.76-7.1,3.7l.51,2.89s3.8-1.64,5.79-3.9c4.78-5.45,6.13-2.87,10.27-6.6Z"/><path class="aa" d="M265.77,434.71c.62,1.1,1.98,.24,3.63-.77,1.65-1.01,2.97-1.76,2.34-2.88-.69-1.24-1.98-.24-3.63,.77-1.65,1.01-2.93,1.83-2.35,2.88Z"/><path class="aa" d="M241.64,443.9c-2.38-2.18-11.55,7.38-11.55,7.38l2.63,4.55s13.48-13.58,25.57-14.91c4.53-.5,.39,2.03,2.09,2.32,2.6,.45,21.05-9.68,18-10.09-2.63-.36-.88-1.58,.56-2.35,0,0-.66-1.98-1.82-3.89-2.71,2.22-5.61,5.46-2.18,4.4,4.79-1.49-15.89,10.82-10.76,6.21,5.13-4.61-11.01,1.56-22.73,9.44-11.71,7.88,.93-2.37,.18-3.06Z"/><path class="aa" d="M227.78,447.8c-.42,1.13,2.23,4.04,1.55,3.25,5.55-9.62,27.31-16.21,33.52-23.63-12.29,9.35-26.45,12.35-35.07,20.38Z"/><path class="aa" d="M247.62,457.69c13.75-2.45,22.62-14.2,32.69-16.11,0,0,.31-1.21,.25-3.14-11.18,3.72-17.7,14.28-32.94,19.25Z"/><path class="aa" d="M234.79,465.58s-.02,.02-.03,.03c.19,.24,.16,.18,.03-.03Z"/><path class="aa" d="M250.01,450.42c-.96-.01-8.14,9.49-16.44,12.53,0,.64,.91,2.11,1.23,2.63,3.73-4.46,14.56-7.94,15.22-15.16Z"/><path class="aa" d="M243.21,442.59c1.64,.94,24.3-11.25,32.95-17.29,0,0-.62-1.05-1.41-2.02-8.22,7.51-33.18,18.37-31.54,19.31Z"/><path class="aa" d="M223.99,444.22l3.28,2.56s3.52-3.11,12.43-8.26c8.91-5.14,19.27-10.45,24.53-13.49,2.87-1.66,5.47-3.77,7.24-5.36-1.71-1.51-2.29-1.81-2.29-1.81-1.28,.94-3.45,2.5-6.49,4.51-16.76,11.14-38.71,21.84-38.71,21.84Z"/><path class="aa" d="M274.36,437.5c-4.42,2.94-7.57,6.65-12.78,8.08-4.92,1.35-3.11-1.73-5.62-2.42-4.68-1.27-24.88,15.77-24.88,15.77,0,0,.31,2.79,3.12,2.45,8.37-4.84,21.3-23.73,19.09-12.07-2.1,11.03,16.4-7.03,22.15-10.36,1.81-1.05,3.33-2.15,4.89-3.01,0,0-.08-.87-.39-1.97-1.61,1.31-3.02,1.82-5.58,3.52Z"/><path class="aa" d="M242.35,428.49c-1.35,1.34-2.89,2.42-4.55,3.3-.83,.44-1.69,.81-2.57,1.1-.88,.29-1.8,.49-2.73,.66-.93,.17-1.9,.33-2.86,.65-.48,.16-.94,.36-1.4,.6l-1.26,.71c-3.33,1.9-6.63,3.83-9.93,5.77l.82,1.32c3.21-2.06,6.43-4.13,9.67-6.15,.4-.25,.81-.5,1.21-.74,.38-.22,.8-.41,1.22-.57,.85-.31,1.77-.5,2.71-.7,.94-.2,1.9-.44,2.82-.77,.92-.33,1.81-.75,2.66-1.23,.84-.48,1.66-1.01,2.43-1.61,.77-.59,1.49-1.25,2.16-1.95,.67-.69,1.31-1.39,2.02-2,.71-.62,1.5-1.12,2.33-1.6l9.84-5.9-10.03,5.57c-.84,.45-1.69,.95-2.44,1.57-.76,.61-1.43,1.31-2.11,1.97Z"/><path class="aa" d="M231.46,432.66c.34,.59,2.96-.28,5.86-1.96,2.89-1.67,4.97-3.51,4.63-4.1-.34-.59-2.96,.29-5.86,1.96-2.9,1.67-4.97,3.51-4.63,4.1Z"/><path class="aa" d="M266.25,416.25s-.94-.44-1.8-.59l-18.71,12.21,20.52-11.63Z"/><polygon class="aa" points="261.88 420.96 230.11 437.71 224.54 442.77 261.88 420.96"/><polygon class="aa" points="240.67 466.06 278.23 444.62 273.97 445.24 240.67 466.06"/></g><path class="j" d="M211.04,447.21c-.18,.9-.29,1.88-.29,2.95,0,8.02,5.62,17.77,12.58,21.78,3.28,1.9,6.27,2.15,8.52,1.06,0,0,.43-.22,.91-.56,1.95-1.43,3.14-4.09,3.14-7.76,0-3.61-1.14-7.57-3.04-11.2l-1.04-1.83c-2.24-3.67-5.21-6.86-8.5-8.75-2.65-1.54-5.19-2-7.15-1.54-1.33,.3-2.57,1.24-2.57,1.24-.91,.75-1.61,1.8-2.1,3.1l-.46,1.51Z"/></g></g><g><g><g><path class="s" d="M217.72,653.47h8.61v2.19h0c0,.59-.42,1.18-1.27,1.64-1.68,.9-4.4,.9-6.08,0-.84-.46-1.26-1.05-1.26-1.64v-2.19Z"/><path class="m" d="M218.99,655.19c1.68,.89,4.41,.89,6.08,0,1.69-.91,1.69-2.38,0-3.29-1.68-.9-4.4-.9-6.08,0-1.69,.91-1.69,2.39,0,3.29Z"/></g><g><path class="s" d="M224.05,643.57h-4.05v9.85h0c0,.28,.2,.56,.6,.77,.79,.42,2.07,.42,2.86,0,.4-.22,.6-.5,.6-.77v-9.85Z"/><path class="m" d="M223.46,644.34c-.79,.43-2.07,.43-2.86,0-.79-.42-.79-1.12,0-1.54,.79-.42,2.07-.42,2.86,0,.79,.43,.79,1.12,0,1.54Z"/></g><g><path class="ai" d="M225.36,617.75h-6.67v27.3h0c0,.46,.33,.92,.98,1.27,1.3,.69,3.41,.69,4.71,0,.65-.35,.98-.81,.98-1.27v-27.3Z"/><path class="m" d="M224.38,619.03c-1.3,.7-3.41,.7-4.71,0-1.3-.7-1.3-1.83,0-2.54,1.3-.69,3.41-.69,4.71,0,1.3,.71,1.3,1.84,0,2.54Z"/></g></g><g><g><path class="s" d="M274.1,653.47h8.61v2.19h0c0,.59-.42,1.18-1.26,1.64-1.68,.9-4.41,.9-6.08,0-.84-.46-1.26-1.05-1.26-1.64v-2.19Z"/><path class="m" d="M275.37,655.19c1.68,.89,4.41,.89,6.08,0,1.69-.91,1.69-2.38,0-3.29-1.68-.9-4.41-.9-6.08,0-1.69,.91-1.69,2.39,0,3.29Z"/></g><g><path class="s" d="M280.43,643.57h-4.05v9.85h0c0,.28,.2,.56,.6,.77,.79,.42,2.07,.42,2.86,0,.4-.22,.59-.5,.59-.77v-9.85Z"/><path class="m" d="M279.84,644.34c-.79,.43-2.07,.43-2.86,0-.79-.42-.79-1.12,0-1.54,.79-.42,2.07-.42,2.86,0,.79,.43,.79,1.12,0,1.54Z"/></g><g><path class="ai" d="M281.74,617.75h-6.67v27.3h0c0,.46,.33,.92,.99,1.27,1.3,.69,3.41,.69,4.71,0,.65-.35,.98-.81,.98-1.27v-27.3Z"/><path class="m" d="M280.76,619.03c-1.3,.7-3.41,.7-4.71,0-1.31-.7-1.31-1.83,0-2.54,1.3-.69,3.41-.69,4.71,0,1.3,.71,1.3,1.84,0,2.54Z"/></g></g><g><path class="w" d="M231.37,673.06c0,2.59,1.84,5.17,5.53,7.17,7.35,3.95,19.25,3.95,26.61,0,3.67-2,5.49-4.58,5.49-7.17v-7.22h-37.62v7.22Z"/><path class="o" d="M263.5,658.67c-7.36-3.95-19.26-3.95-26.61,0-7.35,3.94-7.35,10.35,0,14.3,7.35,3.96,19.25,3.96,26.61,0,7.34-3.95,7.34-10.36,0-14.3Z"/></g><path class="x" d="M279.2,642.55h-58.01l15.58,25.51h0c.66,1.14,1.81,2.21,3.49,3.11,5.49,2.96,14.37,2.96,19.87,0,1.67-.9,2.83-1.97,3.49-3.11h0l15.58-25.51Z"/><g><g><path class="ab" d="M217.72,684.67h8.61v2.19h0c0,.59-.42,1.18-1.27,1.65-1.68,.89-4.4,.89-6.08,0-.84-.46-1.26-1.05-1.26-1.65v-2.19Z"/><path class="m" d="M218.99,686.39c1.68,.89,4.41,.89,6.08,0,1.69-.91,1.69-2.38,0-3.29-1.68-.91-4.4-.91-6.08,0-1.69,.91-1.69,2.38,0,3.29Z"/></g><g><path class="y" d="M224.05,674.77h-4.05v9.85h0c0,.28,.2,.56,.6,.78,.79,.42,2.07,.42,2.86,0,.4-.22,.6-.5,.6-.78v-9.85Z"/><path class="m" d="M223.46,675.54c-.79,.43-2.07,.43-2.86,0-.79-.43-.79-1.11,0-1.54,.79-.42,2.07-.42,2.86,0,.79,.43,.79,1.12,0,1.54Z"/></g><g><path class="af" d="M225.36,648.95h-6.67v27.3h0c0,.46,.33,.92,.98,1.27,1.3,.69,3.41,.69,4.71,0,.65-.36,.98-.81,.98-1.27v-27.3Z"/><path class="m" d="M224.38,650.23c-1.3,.7-3.41,.7-4.71,0-1.3-.7-1.3-1.84,0-2.55,1.3-.7,3.41-.7,4.71,0,1.3,.71,1.3,1.84,0,2.55Z"/></g></g><g><g><path class="ab" d="M274.1,684.67h8.61v2.19h0c0,.59-.42,1.18-1.26,1.65-1.68,.89-4.41,.89-6.08,0-.84-.46-1.26-1.05-1.26-1.65v-2.19Z"/><path class="m" d="M275.37,686.39c1.68,.89,4.41,.89,6.08,0,1.69-.91,1.69-2.38,0-3.29-1.68-.91-4.41-.91-6.08,0-1.69,.91-1.69,2.38,0,3.29Z"/></g><g><path class="y" d="M280.43,674.77h-4.05v9.85h0c0,.28,.2,.56,.6,.78,.79,.42,2.07,.42,2.86,0,.4-.22,.59-.5,.59-.78v-9.85Z"/><path class="m" d="M279.84,675.54c-.79,.43-2.07,.43-2.86,0-.79-.43-.79-1.11,0-1.54,.79-.42,2.07-.42,2.86,0,.79,.43,.79,1.12,0,1.54Z"/></g><g><path class="af" d="M281.74,648.95h-6.67v27.3h0c0,.46,.33,.92,.99,1.27,1.3,.69,3.41,.69,4.71,0,.65-.36,.98-.81,.98-1.27v-27.3Z"/><path class="m" d="M280.76,650.23c-1.3,.7-3.41,.7-4.71,0-1.31-.7-1.31-1.84,0-2.55,1.3-.7,3.41-.7,4.71,0,1.3,.71,1.3,1.84,0,2.55Z"/></g></g><g><g><path class="ab" d="M245.9,690.8h8.61v2.19h0c0,.59-.42,1.19-1.27,1.64-1.68,.9-4.4,.9-6.08,0-.84-.46-1.26-1.05-1.26-1.64v-2.19Z"/><path class="m" d="M247.17,692.52c1.68,.89,4.41,.89,6.08,0,1.69-.91,1.69-2.38,0-3.29-1.68-.9-4.4-.9-6.08,0-1.69,.91-1.69,2.38,0,3.29Z"/></g><g><path class="y" d="M252.23,680.9h-4.05v9.85h0c0,.28,.2,.56,.6,.78,.79,.42,2.07,.42,2.86,0,.39-.22,.59-.5,.59-.78v-9.85Z"/><path class="m" d="M251.64,681.68c-.79,.43-2.07,.43-2.86,0-.79-.43-.79-1.12,0-1.55,.79-.42,2.07-.42,2.86,0,.79,.43,.79,1.12,0,1.55Z"/></g><g><path class="af" d="M253.54,646.86h-6.67v35.53h0c0,.46,.33,.92,.98,1.28,1.3,.68,3.41,.68,4.71,0,.65-.36,.98-.82,.98-1.28v-35.53Z"/><path class="m" d="M252.56,648.13c-1.3,.7-3.41,.7-4.71,0-1.3-.7-1.3-1.83,0-2.54,1.3-.69,3.41-.69,4.71,0,1.3,.71,1.3,1.84,0,2.54Z"/></g></g><g><g><path class="ab" d="M286.6,668.89h8.61v2.19h0c0,.59-.42,1.18-1.27,1.64-1.67,.89-4.4,.89-6.08,0-.84-.46-1.26-1.05-1.26-1.64v-2.19Z"/><path class="m" d="M287.86,670.62c1.68,.89,4.41,.89,6.08,0,1.69-.91,1.69-2.38,0-3.29-1.67-.9-4.4-.9-6.08,0-1.69,.91-1.69,2.39,0,3.29Z"/></g><g><path class="y" d="M292.93,658.99h-4.05v9.85h0c0,.28,.2,.55,.6,.77,.79,.42,2.07,.42,2.86,0,.39-.22,.59-.49,.59-.77v-9.85Z"/><path class="m" d="M292.34,659.77c-.79,.42-2.07,.42-2.86,0-.79-.43-.79-1.12,0-1.55,.79-.42,2.07-.42,2.86,0,.79,.43,.79,1.12,0,1.55Z"/></g><g><path class="af" d="M294.24,633.18h-6.67v27.3h0c0,.46,.33,.92,.98,1.27,1.3,.69,3.41,.69,4.71,0,.65-.35,.98-.81,.98-1.27v-27.3Z"/><path class="m" d="M293.26,634.46c-1.3,.7-3.41,.7-4.71,0-1.3-.7-1.3-1.83,0-2.54,1.3-.7,3.41-.7,4.71,0,1.3,.71,1.3,1.84,0,2.54Z"/></g></g><g><g><path class="ab" d="M205.21,668.89h8.61v2.19h0c0,.59-.42,1.18-1.26,1.64-1.68,.89-4.4,.89-6.08,0-.84-.46-1.26-1.05-1.26-1.64v-2.19Z"/><path class="m" d="M206.47,670.62c1.68,.89,4.41,.89,6.08,0,1.69-.91,1.69-2.38,0-3.29-1.68-.9-4.4-.9-6.08,0-1.69,.91-1.69,2.39,0,3.29Z"/></g><g><path class="y" d="M211.54,658.99h-4.05v9.85h0c0,.28,.2,.55,.6,.77,.79,.42,2.07,.42,2.86,0,.39-.22,.59-.49,.59-.77v-9.85Z"/><path class="m" d="M210.94,659.77c-.79,.42-2.07,.42-2.86,0-.79-.43-.79-1.12,0-1.55,.79-.42,2.07-.42,2.86,0,.79,.43,.79,1.12,0,1.55Z"/></g><g><path class="af" d="M212.84,633.18h-6.67v27.3h0c0,.46,.33,.92,.98,1.27,1.3,.69,3.41,.69,4.71,0,.65-.35,.98-.81,.98-1.27v-27.3Z"/><path class="m" d="M211.87,634.46c-1.3,.7-3.41,.7-4.71,0-1.3-.7-1.3-1.83,0-2.54,1.3-.7,3.41-.7,4.71,0,1.3,.71,1.3,1.84,0,2.54Z"/></g></g><g><g><path class="y" d="M205.15,632.39c0,6.19,4.39,12.37,13.22,17.16,17.6,9.46,46.07,9.46,63.68,0,8.78-4.79,13.13-10.97,13.13-17.16v-1.81h-90.03v1.81Z"/><path class="a`" d="M282.05,613.42c-17.61-9.46-46.08-9.46-63.68,0-17.58,9.43-17.58,24.77,0,34.23,17.6,9.48,46.07,9.48,63.68,0,17.57-9.46,17.57-24.81,0-34.23Z"/></g><path class="o" d="M205.86,630.11c0,6.1,4.36,12.16,13,16.87,17.32,9.31,45.32,9.31,62.68,0,8.63-4.7,12.92-10.76,12.92-16.87v-52.47h-88.61v52.47Z"/><path class="m" d="M281.49,560.81c-17.32-9.31-45.38-9.31-62.7,0-17.24,9.24-17.24,24.37,0,33.66,17.32,9.34,45.38,9.34,62.7,0,17.3-9.3,17.3-24.42,0-33.66Z"/><path class="ah" d="M290.24,584.74c-1.99-3.25-5.4-6.31-10.22-8.88-16.48-8.86-43.2-8.86-59.68,0-4.8,2.57-8.2,5.63-10.19,8.88-4.82-7.88-1.42-16.9,10.19-23.13,16.48-8.86,43.2-8.86,59.68,0,11.65,6.22,15.06,15.25,10.22,23.13Z"/><path class="j" d="M290.24,584.74c-1.99,3.26-5.4,6.32-10.22,8.91-16.48,8.89-43.2,8.89-59.68,0-4.8-2.59-8.2-5.65-10.19-8.91,1.99-3.25,5.39-6.31,10.19-8.88,16.48-8.86,43.2-8.86,59.68,0,4.82,2.57,8.22,5.63,10.22,8.88Z"/><g><path class="l" d="M237.26,577.86c-2.32,1.24-6.08,1.24-8.4,0-2.31-1.25-2.31-3.27,0-4.52,2.32-1.25,6.08-1.25,8.4,0,2.32,1.25,2.32,3.27,0,4.52Z"/><path class="n" d="M239,575.6c0-3.05-2.66-5.53-5.94-5.53s-5.94,2.48-5.94,5.53h0c0,.82,.58,1.63,1.74,2.26,2.32,1.24,6.08,1.24,8.4,0,1.16-.63,1.74-1.44,1.74-2.26h0Z"/><path class="m" d="M230.83,573.25c-.36,.52-.96,.76-1.35,.52-.38-.23-.41-.84-.05-1.36,.36-.52,.96-.76,1.34-.52,.38,.23,.41,.84,.05,1.36Z"/></g><g><path class="l" d="M264.54,575.57c-1.85,.99-4.84,.99-6.69,0-1.85-.99-1.85-2.61,0-3.6,1.85-.99,4.85-.99,6.69,0,1.85,.99,1.85,2.61,0,3.6Z"/><path class="n" d="M265.93,573.77c0-2.44-2.12-4.41-4.73-4.41s-4.74,1.97-4.74,4.41h0c0,.65,.46,1.31,1.39,1.8,1.85,.99,4.85,.99,6.69,0,.93-.5,1.39-1.15,1.39-1.8h0Z"/><path class="m" d="M259.41,571.89c-.28,.41-.76,.6-1.07,.42-.31-.18-.33-.67-.04-1.08,.28-.41,.76-.6,1.07-.42,.31,.18,.33,.67,.04,1.09Z"/></g><g><path class="l" d="M266.49,595.33c-1.72,.93-4.51,.93-6.23,0-1.72-.93-1.72-2.43,0-3.36,1.72-.92,4.51-.92,6.23,0,1.72,.93,1.72,2.43,0,3.36Z"/><path class="n" d="M267.78,593.65c0-2.27-1.98-4.11-4.41-4.11s-4.41,1.84-4.41,4.11h0c0,.6,.43,1.21,1.29,1.68,1.72,.93,4.51,.93,6.23,0,.86-.46,1.29-1.07,1.29-1.68h0Z"/><path class="m" d="M261.71,591.91c-.26,.39-.71,.56-1,.39-.29-.17-.3-.62-.04-1.01,.27-.39,.71-.56,1-.39,.29,.17,.3,.62,.04,1.01Z"/></g><g><path class="l" d="M248.73,581.06c-1.47,.79-3.84,.79-5.31,0-1.47-.79-1.47-2.07,0-2.86,1.47-.79,3.84-.79,5.31,0,1.47,.79,1.47,2.07,0,2.86Z"/><path class="n" d="M249.83,579.63c0-1.93-1.68-3.5-3.76-3.5s-3.76,1.57-3.76,3.5h0c0,.52,.37,1.04,1.1,1.43,1.47,.79,3.84,.79,5.31,0,.73-.39,1.1-.91,1.1-1.43h0Z"/><path class="m" d="M244.65,578.15c-.22,.33-.61,.47-.85,.33-.24-.15-.26-.53-.03-.86,.23-.33,.61-.48,.85-.33,.24,.15,.26,.53,.03,.86Z"/></g><g><path class="l" d="M279.37,592.63c-2.3,1.24-6.04,1.24-8.34,0-2.3-1.24-2.3-3.25,0-4.49,2.3-1.24,6.04-1.24,8.34,0,2.31,1.24,2.31,3.25,0,4.49Z"/><path class="n" d="M281.11,590.39c0-3.03-2.64-5.5-5.9-5.5s-5.9,2.46-5.9,5.5h0c0,.81,.57,1.62,1.72,2.25,2.3,1.24,6.04,1.24,8.34,0,1.15-.62,1.73-1.43,1.73-2.25h0Z"/><path class="m" d="M272.98,588.05c-.36,.52-.95,.75-1.34,.52-.38-.23-.41-.83-.05-1.35,.36-.52,.95-.75,1.34-.52,.38,.23,.4,.84,.05,1.35Z"/></g><g><path class="l" d="M238.69,596.22c-2,1.07-5.23,1.07-7.22,0-2-1.08-2-2.81,0-3.89,1.99-1.07,5.23-1.07,7.22,0,1.99,1.08,1.99,2.81,0,3.89Z"/><path class="n" d="M240.18,594.28c0-2.63-2.29-4.76-5.11-4.76s-5.11,2.13-5.11,4.76h0c0,.7,.5,1.41,1.5,1.95,1.99,1.07,5.22,1.07,7.22,0,.99-.54,1.5-1.24,1.5-1.95h0Z"/><path class="m" d="M233.15,592.26c-.31,.45-.82,.65-1.16,.45-.33-.2-.35-.72-.04-1.17,.31-.45,.83-.65,1.16-.45,.33,.2,.35,.72,.04,1.17Z"/></g><g><path class="l" d="M223.89,586.53c-1.19,.64-3.11,.64-4.3,0-1.19-.64-1.19-1.67,0-2.31,1.19-.64,3.11-.64,4.3,0,1.19,.64,1.19,1.68,0,2.31Z"/><path class="n" d="M224.78,585.37c0-1.57-1.36-2.84-3.04-2.84s-3.04,1.27-3.04,2.84h0c0,.42,.29,.84,.89,1.16,1.19,.64,3.11,.64,4.3,0,.59-.32,.89-.74,.89-1.16h0Z"/><path class="m" d="M220.59,584.17c-.18,.26-.49,.39-.69,.27-.2-.12-.21-.43-.03-.7,.18-.27,.49-.39,.69-.27,.2,.12,.21,.43,.02,.7Z"/></g><g><path class="l" d="M277.35,581.16c-1.19,.64-3.11,.64-4.3,0-1.19-.64-1.19-1.68,0-2.32,1.19-.64,3.11-.64,4.3,0,1.19,.64,1.19,1.67,0,2.32Z"/><path class="n" d="M278.25,580.01c0-1.57-1.36-2.84-3.04-2.84s-3.04,1.27-3.04,2.84h0c0,.42,.29,.84,.89,1.16,1.19,.64,3.11,.64,4.3,0,.6-.32,.89-.74,.89-1.16h0Z"/><path class="m" d="M274.06,578.8c-.18,.27-.49,.38-.69,.27-.2-.11-.21-.43-.02-.69,.18-.27,.49-.39,.69-.27,.2,.12,.21,.43,.03,.7Z"/></g><g><path class="l" d="M255.48,590.69c-2.07,1.12-5.43,1.12-7.5,0-2.07-1.11-2.07-2.92,0-4.04,2.07-1.12,5.43-1.12,7.5,0,2.07,1.11,2.07,2.92,0,4.04Z"/><path class="n" d="M257.04,588.68c0-2.73-2.38-4.94-5.31-4.94s-5.3,2.22-5.3,4.94h0c0,.73,.52,1.46,1.55,2.02,2.07,1.12,5.43,1.12,7.5,0,1.04-.56,1.56-1.29,1.56-2.02h0Z"/><path class="m" d="M249.73,586.58c-.32,.46-.86,.67-1.2,.47-.35-.21-.37-.75-.05-1.21,.32-.46,.86-.67,1.2-.47,.35,.2,.37,.75,.05,1.21Z"/></g><g><path class="l" d="M258.77,579.4c-.55,.3-1.44,.3-1.99,0-.55-.29-.55-.77,0-1.07,.55-.3,1.44-.3,1.99,0,.55,.3,.55,.78,0,1.07Z"/><path class="n" d="M259.18,578.86c0-.72-.63-1.31-1.41-1.31s-1.41,.59-1.41,1.31h0c0,.19,.14,.39,.41,.54,.55,.3,1.44,.3,1.99,0,.28-.15,.41-.34,.41-.54h0Z"/><path class="m" d="M257.24,578.31c-.08,.12-.23,.18-.32,.13-.09-.05-.1-.2-.01-.33,.09-.12,.23-.18,.32-.12,.09,.05,.1,.2,.01,.32Z"/></g><g><path class="l" d="M262.19,587.02c-.55,.3-1.44,.3-1.99,0-.55-.3-.55-.78,0-1.07,.55-.3,1.44-.3,1.99,0,.55,.29,.55,.77,0,1.07Z"/><path class="n" d="M262.6,586.48c0-.72-.63-1.31-1.41-1.31s-1.41,.59-1.41,1.31h0c0,.19,.14,.39,.41,.54,.55,.3,1.44,.3,1.99,0,.28-.15,.42-.34,.42-.54h0Z"/><path class="m" d="M260.66,585.92c-.09,.12-.23,.18-.32,.13-.09-.06-.1-.2-.01-.32,.09-.12,.23-.18,.32-.12,.09,.05,.1,.2,.01,.32Z"/></g><g><path class="l" d="M266.92,583.34c-.55,.3-1.44,.3-1.99,0-.55-.3-.55-.77,0-1.07,.55-.3,1.44-.3,1.99,0,.55,.3,.55,.77,0,1.07Z"/><path class="n" d="M267.34,582.81c0-.72-.63-1.31-1.41-1.31s-1.41,.59-1.41,1.31h0c0,.2,.14,.39,.42,.54,.55,.3,1.44,.3,1.99,0,.28-.15,.41-.34,.41-.54h0Z"/><path class="m" d="M265.4,582.25c-.09,.13-.23,.18-.32,.13-.09-.06-.09-.2-.01-.32,.08-.12,.23-.18,.32-.13,.09,.06,.1,.2,.01,.32Z"/></g><g><path class="l" d="M284.15,585.29c-.55,.3-1.44,.3-1.99,0-.55-.3-.55-.77,0-1.07,.55-.3,1.44-.3,1.99,0,.55,.3,.55,.77,0,1.07Z"/><path class="n" d="M284.56,584.75c0-.72-.63-1.31-1.41-1.31s-1.41,.59-1.41,1.31h0c0,.2,.14,.39,.41,.54,.55,.3,1.44,.3,1.99,0,.28-.15,.41-.34,.41-.54h0Z"/><path class="m" d="M282.62,584.2c-.08,.12-.22,.18-.32,.12-.09-.06-.1-.2-.01-.32,.08-.12,.23-.18,.32-.13,.09,.06,.1,.2,.01,.33Z"/></g><g><path class="l" d="M256.66,596.84c-.55,.3-1.44,.3-1.99,0-.55-.3-.55-.78,0-1.07,.55-.3,1.44-.3,1.99,0,.55,.3,.55,.78,0,1.07Z"/><path class="n" d="M257.08,596.3c0-.72-.63-1.31-1.41-1.31s-1.41,.59-1.41,1.31h0c0,.2,.14,.39,.41,.54,.55,.3,1.44,.3,1.99,0,.28-.15,.41-.34,.41-.54h0Z"/><path class="m" d="M255.14,595.74c-.09,.12-.23,.18-.32,.13-.09-.06-.1-.2-.01-.32,.08-.12,.23-.18,.32-.12,.09,.05,.1,.2,.01,.32Z"/></g><g><path class="l" d="M224.29,591.83c-.55,.3-1.44,.3-1.99,0-.55-.3-.55-.78,0-1.07,.55-.3,1.44-.3,1.99,0,.55,.3,.55,.78,0,1.07Z"/><path class="n" d="M224.71,591.29c0-.73-.63-1.32-1.41-1.32s-1.41,.59-1.41,1.32h0c0,.19,.14,.39,.41,.53,.55,.3,1.44,.3,1.99,0,.27-.15,.41-.34,.41-.53h0Z"/><path class="m" d="M222.77,590.73c-.08,.12-.23,.18-.32,.12-.09-.05-.1-.2-.01-.32,.09-.12,.23-.18,.32-.12,.09,.06,.1,.2,.01,.32Z"/></g><g><path class="l" d="M241.4,586.64c-.55,.3-1.44,.3-1.99,0-.55-.3-.55-.78,0-1.07,.55-.3,1.44-.3,1.99,0,.55,.3,.55,.78,0,1.07Z"/><path class="n" d="M241.82,586.1c0-.73-.63-1.31-1.41-1.31s-1.41,.59-1.41,1.31h0c0,.19,.14,.39,.41,.54,.55,.3,1.44,.3,1.99,0,.28-.15,.41-.34,.41-.54h0Z"/><path class="m" d="M239.88,585.54c-.09,.12-.23,.18-.32,.13-.09-.06-.09-.2-.01-.33,.09-.12,.23-.18,.32-.12,.09,.05,.1,.2,.01,.32Z"/></g><g><path class="l" d="M244.76,573.22c-.55,.29-1.45,.29-2,0-.55-.3-.55-.78,0-1.07,.55-.3,1.44-.3,2,0,.55,.29,.55,.77,0,1.07Z"/><path class="n" d="M245.17,572.68c0-.73-.63-1.32-1.41-1.32s-1.41,.59-1.41,1.32h0c0,.19,.14,.39,.41,.53,.55,.29,1.44,.29,2,0,.27-.15,.41-.34,.41-.53h0Z"/><path class="m" d="M243.23,572.12c-.08,.12-.23,.18-.32,.13-.09-.06-.1-.2-.01-.32,.08-.12,.23-.18,.32-.12,.09,.05,.09,.2,.01,.32Z"/></g><g><path class="l" d="M225.23,579.4c-.55,.3-1.44,.3-1.99,0-.55-.29-.55-.77,0-1.07,.55-.3,1.44-.3,1.99,0,.55,.3,.55,.78,0,1.07Z"/><path class="n" d="M225.64,578.86c0-.72-.63-1.31-1.41-1.31s-1.41,.59-1.41,1.31h0c0,.19,.14,.39,.41,.54,.55,.3,1.44,.3,1.99,0,.28-.15,.41-.34,.41-.54h0Z"/><path class="m" d="M223.7,578.31c-.08,.12-.23,.18-.32,.13-.09-.05-.1-.2-.01-.33,.09-.12,.23-.18,.32-.12,.09,.05,.1,.2,.01,.32Z"/></g><g><path class="l" d="M248.65,596.04c-.83,.45-2.18,.45-3.01,0-.83-.45-.83-1.17,0-1.62,.83-.45,2.17-.45,3.01,0,.83,.45,.83,1.17,0,1.62Z"/><path class="n" d="M249.27,595.23c0-1.09-.95-1.98-2.13-1.98s-2.13,.89-2.13,1.98h0c0,.29,.21,.59,.62,.81,.83,.45,2.17,.45,3.01,0,.42-.22,.62-.52,.62-.81h0Z"/><path class="m" d="M246.35,594.38c-.13,.19-.35,.27-.48,.19-.14-.08-.15-.3-.02-.49,.13-.19,.34-.27,.48-.19,.14,.08,.15,.3,.02,.49Z"/></g><g><path class="l" d="M234.87,585.18c-.83,.45-2.18,.45-3.01,0-.83-.45-.83-1.17,0-1.62,.83-.45,2.18-.45,3.01,0,.83,.45,.83,1.17,0,1.62Z"/><path class="n" d="M235.49,584.37c0-1.09-.95-1.98-2.13-1.98s-2.13,.89-2.13,1.98h0c0,.3,.21,.59,.62,.81,.83,.45,2.18,.45,3.01,0,.42-.22,.62-.51,.62-.81h0Z"/><path class="m" d="M232.56,583.53c-.13,.19-.34,.27-.48,.19-.14-.09-.15-.3-.02-.49,.13-.19,.34-.27,.48-.19,.14,.08,.15,.3,.02,.49Z"/></g><g><path class="l" d="M253.79,573.89c-.83,.45-2.18,.45-3.01,0-.83-.45-.83-1.18,0-1.62,.83-.45,2.18-.45,3.01,0,.83,.44,.83,1.17,0,1.62Z"/><path class="n" d="M254.42,573.08c0-1.1-.95-1.98-2.12-1.98s-2.13,.89-2.13,1.98h0c0,.29,.21,.59,.62,.81,.83,.45,2.17,.45,3.01,0,.42-.22,.62-.52,.62-.81h0Z"/><path class="m" d="M251.49,572.24c-.13,.19-.35,.27-.48,.19-.14-.08-.15-.3-.02-.49,.13-.19,.35-.27,.48-.19,.14,.08,.15,.3,.02,.49Z"/></g></g></g></g><g id="f"/><g id="g"/><g id="h"/><g id="i"/></svg>