<?xml version="1.0" encoding="UTF-8"?><svg xmlns="http://www.w3.org/2000/svg" viewBox="0 0 500 513"><defs><style>.e,.f,.g,.h{stroke-linecap:round;stroke-linejoin:round;}.e,.f,.h{stroke:#514540;}.e,.i,.j{fill:#fff;}.f,.g{fill:none;}.g{stroke:#483d38;}.k,.l{fill:#007f41;}.m{fill:#a9ce52;}.h{stroke-width:.5px;}.h,.n{fill:#a7d398;}.o{fill:#483d38;}.o,.n,.p,.j,.l{fill-rule:evenodd;}.p{fill:#e9d0a1;}</style></defs><g id="a"/><g id="b"/><g id="c"><g><path class="p" d="M269.76,347.74v8.08c0,2.06-3.55,3.71-7.91,3.71s-7.93-1.65-7.93-3.71v-8.25"/><path class="g" d="M269.76,347.74v8.07c0,2.06-3.55,3.71-7.91,3.71s-7.93-1.65-7.93-3.71v-8.25"/><path class="p" d="M253.94,347.59c0,2.06,3.55,3.71,7.94,3.71s7.91-1.65,7.91-3.71-3.55-3.71-7.91-3.71-7.94,1.65-7.94,3.71Z"/><path class="g" d="M253.94,347.59c0,2.06,3.55,3.71,7.93,3.71s7.91-1.65,7.91-3.71-3.55-3.71-7.91-3.71-7.93,1.65-7.93,3.71Z"/><g><ellipse class="k" cx="256.82" cy="431.42" rx="67.67" ry="69.73"/><path class="o" d="M286.13,369.73l-5.35,17.22v85.86c0,3.15,5,5.76,11.48,6.17,.59,.05,1.21,.05,1.82,.05,7.34,0,13.31-2.79,13.31-6.22v-85.58l-5.35-17.5"/><path class="g" d="M286.13,369.73l-5.35,17.22v85.86c0,3.15,5,5.76,11.48,6.17,.59,.05,1.21,.05,1.82,.05,7.34,0,13.31-2.79,13.31-6.22v-85.58l-5.35-17.5"/><path class="p" d="M284.72,391.9v78.59c0,2.44,4.19,4.39,9.36,4.39s9.36-1.96,9.36-4.39v-78.39"/><path class="g" d="M284.72,391.9v78.59c0,2.44,4.19,4.39,9.36,4.39s9.36-1.96,9.36-4.39v-78.39"/><path class="g" d="M284.72,422.88v12.01c0,2.44,4.19,4.39,9.36,4.39s9.36-1.96,9.36-4.39v-11.81"/><path class="g" d="M284.72,440.51v12.01c0,2.41,4.19,4.39,9.36,4.39s9.36-1.98,9.36-4.39v-11.81"/><path class="j" d="M286.13,369.74c0,2.06,3.57,3.73,7.96,3.73s7.96-1.65,7.96-3.73-3.57-3.73-7.96-3.73-7.96,1.68-7.96,3.73Z"/><path class="g" d="M286.13,369.74c0,2.06,3.57,3.73,7.96,3.73s7.96-1.65,7.96-3.73-3.57-3.73-7.96-3.73-7.96,1.68-7.96,3.73Z"/><path class="o" d="M280.8,386.93c0,3.43,5.94,6.22,13.28,6.22s13.28-2.79,13.28-6.22"/><path class="g" d="M280.8,386.93c0,3.43,5.94,6.22,13.28,6.22s13.28-2.79,13.28-6.22"/><path class="j" d="M315.28,477.43v4.8c0,2.51-3.2,4.57-7.17,4.57s-7.17-2.03-7.17-4.57v-4.8"/><path class="g" d="M315.28,477.43v4.8c0,2.51-3.2,4.57-7.17,4.57s-7.17-2.03-7.17-4.57v-4.8"/><path class="j" d="M317.82,470.85l-2.56,6.68c0,1.09-3.2,3.33-7.17,3.33s-7.17-2.16-7.17-3.33l-2.56-7.87"/><path class="g" d="M317.82,470.85l-2.56,6.68c0,1.09-3.2,3.33-7.17,3.33s-7.17-2.16-7.17-3.33l-2.56-7.87"/><path class="o" d="M317.82,414v55.69c0,2.51-4.36,4.55-9.71,4.55s-9.76-2.03-9.76-4.55v-55.89"/><path class="g" d="M317.82,414v55.69c0,2.51-4.36,4.55-9.71,4.55s-9.76-2.03-9.76-4.55v-55.89"/><path class="j" d="M298.37,413.79c0,2.51,4.36,4.57,9.76,4.57s9.71-2.06,9.71-4.57-9.71-5.23-9.71-5.23c0,0-9.76,2.72-9.76,5.23Z"/><path class="g" d="M298.37,413.79c0,2.51,4.36,4.57,9.76,4.57s9.71-2.06,9.71-4.57-9.71-5.23-9.71-5.23c0,0-9.76,2.72-9.76,5.23Z"/><path class="p" d="M269.76,468.97v15.34c0,2.03-3.55,3.71-7.91,3.71s-7.93-1.65-7.93-3.71v-15.52"/><path class="g" d="M269.76,468.97v15.34c0,2.03-3.55,3.71-7.91,3.71s-7.93-1.65-7.93-3.71v-15.52"/><path class="p" d="M253.94,369.15l-5.35,17.22v85.86c0,3.43,5.94,6.22,13.31,6.22s13.31-2.79,13.31-6.22v-85.55l-5.35-17.5"/><path class="g" d="M253.94,369.15l-5.35,17.22v85.86c0,3.43,5.94,6.22,13.31,6.22s13.31-2.79,13.31-6.22v-85.55l-5.35-17.5"/><path class="j" d="M253.94,369.15c0,2.06,3.57,3.73,7.96,3.73s7.96-1.68,7.96-3.73-3.57-3.73-7.96-3.73-7.96,1.68-7.96,3.73Z"/><ellipse class="g" cx="261.9" cy="369.15" rx="7.96" ry="3.73"/><path class="g" d="M248.6,386.34c0,3.43,5.94,6.22,13.28,6.22s13.28-2.79,13.28-6.22"/><path class="g" d="M248.6,452.85c0,3.43,5.94,6.22,13.28,6.22s13.28-2.79,13.28-6.22"/><path class="g" d="M248.6,457.85c0,3.43,5.94,6.22,13.28,6.22s13.28-2.79,13.28-6.22"/><path class="p" d="M269.76,354.3v14.88c0,2.06-3.55,3.71-7.91,3.71s-7.93-1.65-7.93-3.71v-15.06"/><path class="g" d="M269.76,354.3v14.88c0,2.06-3.55,3.71-7.91,3.71s-7.93-1.65-7.93-3.71v-15.06"/><polyline class="g" points="292.66 480.81 292.66 485.48 269.86 485.48"/><rect class="i" x="222.1" y="445.26" width="26.12" height="10.69"/><rect class="g" x="222.1" y="445.26" width="26.12" height="10.69"/><path class="o" d="M241.57,418.41v27.15c0,2.51-4.36,4.55-9.73,4.55s-9.76-2.03-9.76-4.55v-27.35"/><path class="g" d="M241.57,418.41v27.15c0,2.51-4.36,4.55-9.73,4.55s-9.76-2.03-9.76-4.55v-27.35"/><path class="j" d="M222.1,418.21c0,2.51,4.36,4.57,9.76,4.57s9.73-2.03,9.73-4.57-4.36-4.55-9.73-4.55c-5.4-.03-9.76,2.03-9.76,4.55Z"/><path class="g" d="M222.1,418.21c0,2.51,4.36,4.57,9.76,4.57s9.73-2.03,9.73-4.57-4.36-4.55-9.73-4.55c-5.4-.03-9.76,2.03-9.76,4.55Z"/><rect class="i" x="236" y="455.97" width="5.57" height="29.08"/><rect class="g" x="236" y="455.97" width="5.57" height="29.08"/><rect class="i" x="236" y="480.96" width="17.94" height="4.01"/><rect class="g" x="236" y="480.96" width="17.94" height="4.01"/><path class="p" d="M162.69,486.85h58.97s-4.34-13.84-12.25-16.53c0,0-4.95-16.33-16.58-16.33-8.23,0-11.78,8.18-11.78,8.18,0,0-5.91,1.96-7.27,8.15,.02,0-11.24,4.57-11.09,16.53Z"/><path class="g" d="M162.69,486.85h58.97s-4.34-13.84-12.25-16.53c0,0-4.95-16.33-16.59-16.33-8.23,0-11.78,8.18-11.78,8.18,0,0-5.91,1.96-7.27,8.15,.02,0-11.24,4.57-11.09,16.53Z"/><polygon class="j" points="222.1 424.36 222.1 436.06 188.96 486.85 181.07 486.85 222.1 424.36"/><polygon class="g" points="222.1 424.36 222.1 436.06 188.96 486.85 181.07 486.85 222.1 424.36"/><line class="g" x1="214" y1="436.75" x2="221.68" y2="436.75"/><line class="g" x1="205.94" y1="449.45" x2="212.89" y2="449.45"/><line class="g" x1="198.82" y1="461.48" x2="205.35" y2="461.48"/><line class="g" x1="188.93" y1="474.89" x2="196.75" y2="474.89"/><path class="p" d="M191.84,443.99c0,1.42-1.31,2.59-2.93,2.59s-2.93-1.17-2.93-2.59,1.31-2.59,2.93-2.59,2.93,1.17,2.93,2.59Z"/><path class="g" d="M191.84,443.99c0,1.42-1.31,2.59-2.93,2.59s-2.93-1.17-2.93-2.59,1.31-2.59,2.93-2.59,2.93,1.17,2.93,2.59Z"/><path class="p" d="M204.51,435.61c0,1.42-1.31,2.59-2.93,2.59s-2.93-1.17-2.93-2.59,1.31-2.59,2.93-2.59,2.93,1.17,2.93,2.59Z"/><path class="g" d="M204.51,435.61c0,1.42-1.31,2.59-2.93,2.59s-2.93-1.17-2.93-2.59,1.31-2.59,2.93-2.59,2.93,1.17,2.93,2.59Z"/><path class="p" d="M199.68,426.95c0,1.42-1.31,2.59-2.93,2.59s-2.93-1.17-2.93-2.59,1.31-2.59,2.93-2.59,2.93,1.17,2.93,2.59Z"/><path class="g" d="M199.68,426.95c0,1.42-1.31,2.59-2.93,2.59s-2.93-1.17-2.93-2.59,1.31-2.59,2.93-2.59,2.93,1.17,2.93,2.59Z"/></g></g><g><path class="l" d="M213.57,137.43s41.27-32.95,122.27-32.95c76.19,0,173.03,14.51,156.57,48.34-19.11,39.26-135.99,65.72-283.17,65.72-158.55,0-212.8-17.56-200.24-43.66,13.86-28.8,141.47-37.44,204.57-37.44Z"/><path class="e" d="M237.56,75.27c0,13.49,8.17,14.2,8.17,20.03s-13.92,14.28-13.92,32.04,10.37,33.97,32.99,33.97c17.69,0,32.54-14.59,32.54-32.8s-13.78-28.94-13.78-32.94,7.08-6.69,7.08-20.16-9.54-25.91-27.59-25.91c-13.45,.02-25.48,12.62-25.48,25.77Z"/><line class="f" x1="265.08" y1="85.66" x2="265.08" y2="189.59"/><path class="n" d="M201.26,180.9c29.7,0,40.21-18.84,40.21-38.9s-18.42-32.19-18.42-38.38,9.09-8.57,9.09-26.06-14.75-20.91-14.75-27.11,5.3-7.88,5.3-20.99-11.67-22.06-24.75-22.06-23.35,10.61-23.35,22.65,6.37,16.03,6.37,20.4-14.63,8.2-14.63,27.53,11.11,18.77,11.11,25.69-18.07,17.13-18.07,39.41c-.02,29.89,24.56,37.82,41.89,37.82Z"/><path class="f" d="M201.26,180.9c29.7,0,40.21-18.84,40.21-38.9s-18.42-32.19-18.42-38.38,9.09-8.57,9.09-26.06-14.75-20.91-14.75-27.11,5.3-7.88,5.3-20.99-11.67-22.06-24.75-22.06-23.35,10.61-23.35,22.65,6.37,16.03,6.37,20.4-14.63,8.2-14.63,27.53,11.11,18.77,11.11,25.69-18.07,17.13-18.07,39.41c-.02,29.89,24.56,37.82,41.89,37.82Z"/><line class="f" x1="200.41" y1="61.07" x2="200.41" y2="208.65"/><line class="f" x1="186.27" y1="90.93" x2="200.41" y2="102.96"/><line class="f" x1="184.49" y1="127.02" x2="200.41" y2="141.23"/><line class="f" x1="215.25" y1="134.12" x2="200.41" y2="148.86"/><line class="f" x1="210.3" y1="96.94" x2="200.41" y2="110.6"/><line class="f" x1="250.11" y1="125.8" x2="265.08" y2="140.01"/><line class="f" x1="276.63" y1="117.41" x2="265.08" y2="127.63"/><path class="l" d="M69.71,88.71c0,13.49,8.17,14.2,8.17,20.03s-13.92,14.28-13.92,32.04,10.37,33.97,32.99,33.97c17.69,0,32.54-14.59,32.54-32.8s-13.81-28.94-13.81-32.94,7.08-6.69,7.08-20.16-9.54-25.91-27.59-25.91c-13.43,.02-25.46,12.62-25.46,25.77Z"/><path class="f" d="M69.71,88.71c0,13.49,8.17,14.2,8.17,20.03s-13.92,14.27-13.92,32.04,10.37,33.97,32.99,33.97c17.69,0,32.54-14.59,32.54-32.8s-13.81-28.94-13.81-32.94,7.08-6.69,7.08-20.16-9.54-25.91-27.59-25.91c-13.43,.02-25.46,12.62-25.46,25.77Z"/><line class="f" x1="97.23" y1="98.15" x2="97.23" y2="202.08"/><line class="f" x1="82.26" y1="139.24" x2="97.23" y2="153.47"/><line class="f" x1="108.79" y1="130.85" x2="97.23" y2="141.07"/><path class="l" d="M346.02,180.24c29.7,0,40.21-18.84,40.21-38.9s-18.42-32.19-18.42-38.38,9.09-8.57,9.09-26.06-14.75-20.91-14.75-27.11,5.3-7.88,5.3-20.99-11.67-22.04-24.75-22.04-23.35,10.61-23.35,22.64,6.37,16.03,6.37,20.4-14.63,8.2-14.63,27.53,11.11,18.77,11.11,25.7-18.07,17.13-18.07,39.38c-.02,29.87,24.56,37.82,41.89,37.82Z"/><path class="f" d="M346.02,180.24c29.7,0,40.21-18.84,40.21-38.9s-18.42-32.19-18.42-38.38,9.09-8.57,9.09-26.06-14.75-20.91-14.75-27.11,5.3-7.88,5.3-20.99-11.67-22.04-24.75-22.04-23.35,10.61-23.35,22.65,6.37,16.03,6.37,20.4-14.63,8.2-14.63,27.53,11.11,18.77,11.11,25.7-18.07,17.13-18.07,39.38c-.02,29.87,24.56,37.82,41.89,37.82Z"/><line class="f" x1="345.16" y1="60.38" x2="345.16" y2="201.06"/><line class="m" x1="331.03" y1="83.34" x2="345.16" y2="95.37"/><line class="f" x1="331.03" y1="83.34" x2="345.16" y2="95.37"/><line class="m" x1="329.25" y1="126.34" x2="345.16" y2="140.57"/><line class="f" x1="329.25" y1="126.34" x2="345.16" y2="140.57"/><line class="m" x1="360.01" y1="133.47" x2="345.16" y2="148.2"/><line class="f" x1="360.01" y1="133.47" x2="345.16" y2="148.2"/><line class="m" x1="355.06" y1="89.35" x2="345.16" y2="103.01"/><line class="f" x1="355.06" y1="89.35" x2="345.16" y2="103.01"/><path class="j" d="M175.68,151.3c0,17.13-13.47,31.01-30.1,31.01s-30.1-13.88-30.1-31.01,13.47-31.01,30.1-31.01,30.1,13.89,30.1,31.01Z"/><ellipse class="f" cx="145.59" cy="151.3" rx="30.1" ry="31.01"/><line class="f" x1="147.13" y1="146.03" x2="147.13" y2="202.54"/><line class="f" x1="136.47" y1="158.33" x2="146.65" y2="168.31"/><ellipse class="h" cx="422.29" cy="124.57" rx="30.1" ry="31.01"/><line class="f" x1="422.32" y1="124.57" x2="422.32" y2="175.81"/><line class="m" x1="434.51" y1="128.4" x2="422.32" y2="142.24"/><line class="f" x1="434.51" y1="128.4" x2="422.32" y2="142.24"/></g><g><path class="l" d="M305.44,288.41c0,29.79-24.14,53.92-53.94,53.92s-53.91-24.13-53.91-53.92,24.14-53.92,53.91-53.92,53.94,24.13,53.94,53.92Z"/><path class="j" d="M285.64,264.74h-65.54c-7.99,0-14.47,6.67-14.47,14.91s6.48,14.91,14.47,14.91h65.54"/><path class="f" d="M285.64,264.74h-65.54c-7.99,0-14.46,6.67-14.46,14.91s6.48,14.91,14.46,14.91h65.54"/><path class="p" d="M300.11,279.65c0,.71-.05,1.42-.13,2.11-.1,.69-.23,1.37-.41,2.03-.36,1.29-1.95,2.06-2.61,3.19-.46,.77,.08,1.93-.51,2.59-.77,.9-1.64,1.69-2.59,2.35-1.74,1.24-3.76,2.11-5.97,2.45-.72,.11-1.49-1.13-2.23-1.13-1.97,0-3.84,.9-5.56,.18-.54-.24-.41-1.85-.92-2.14-.67-.4-1.95-.42-2.53-.92-.77-.63-1.48-.4-2.1-1.19-.54-.66-1.02-1.4-1.46-2.16-.18-.34-.36-.66-.51-1-.46-1-.82-2.08-1.08-3.22-.2-1-.33-2.06-.33-3.14,0-.98,.1-1.95,.28-2.88,.1-.45,1.38-.48,1.51-.92,.15-.5-.87-1.4-.69-1.87,.82-2.06,2.79-2.08,4.35-3.56,.44-.4,.18-2.56,.64-2.9,.59-.45,1.2-.82,1.87-1.16,1.95-1,4.17-1.58,6.5-1.58,3.71,0,7.12,1.45,9.7,3.85,.74,.69,.26,3.27,.84,4.09,.51,.71,2.1-.37,2.48,.45,.33,.71,.61,1.48,.85,2.24,.2,.66-1.02,1.98-.92,2.69,.1,.71,1.51,.82,1.51,1.56Z"/><path class="f" d="M300.11,279.65c0,.71-.05,1.42-.13,2.11-.1,.69-.23,1.37-.41,2.03-.36,1.29-1.95,2.06-2.61,3.19-.46,.77,.08,1.93-.51,2.59-.77,.9-1.64,1.69-2.59,2.35-1.74,1.24-3.76,2.11-5.97,2.45-.72,.11-1.49-1.13-2.23-1.13-1.97,0-3.84,.9-5.56,.18-.54-.24-.41-1.85-.92-2.14-.67-.4-1.95-.42-2.53-.92-.77-.63-1.48-.4-2.1-1.19-.54-.66-1.02-1.4-1.46-2.16-.18-.34-.36-.66-.51-1-.46-1-.82-2.08-1.08-3.22-.2-1-.33-2.06-.33-3.14,0-.98,.1-1.95,.28-2.88,.1-.45,1.38-.48,1.51-.92,.15-.5-.87-1.4-.69-1.87,.82-2.06,2.79-2.08,4.35-3.56,.43-.4,.18-2.56,.64-2.9,.59-.45,1.2-.82,1.87-1.16,1.95-1,4.17-1.58,6.5-1.58,3.71,0,7.12,1.45,9.7,3.85,.74,.69,.26,3.27,.84,4.09,.51,.71,2.1-.37,2.48,.45,.33,.71,.61,1.48,.84,2.24,.2,.66-1.02,1.98-.92,2.69,.1,.71,1.51,.82,1.51,1.56Z"/><line class="f" x1="219.16" y1="270.39" x2="228.04" y2="270.39"/><line class="f" x1="222.9" y1="275.82" x2="242.81" y2="275.82"/><line class="f" x1="246.76" y1="272.68" x2="258.69" y2="272.68"/><line class="f" x1="237.49" y1="283.03" x2="252.72" y2="283.03"/><line class="f" x1="225.66" y1="288.8" x2="243.04" y2="288.8"/><line class="f" x1="214.96" y1="283.05" x2="223.33" y2="283.05"/><line class="f" x1="264.68" y1="288.8" x2="273.66" y2="288.8"/><line class="f" x1="262.86" y1="283.03" x2="270.51" y2="283.03"/><path class="j" d="M300.85,294.56h-65.57c-7.99,0-14.46,6.67-14.46,14.91s6.48,14.91,14.46,14.91h65.57"/><path class="f" d="M300.85,294.56h-65.57c-7.99,0-14.46,6.67-14.46,14.91s6.48,14.91,14.46,14.91h65.57"/><path class="p" d="M315.32,309.46c0,1.11-1,1.42-1.23,2.48-.05,.21,.79,1.19,.74,1.4-.26,.95-.56,1.85-1,2.72-.1,.24-.23,.47-.36,.71-1.23,2.24-3.02,4.12-5.15,5.46-.69,.42-1.38,.79-2.12,1.08-.59,.24-1-.95-1.61-.79-1.13,.29-2.48,1.82-3.71,1.82-1.1,0-2.15-.13-3.17-.37-.51-.13-1-.26-1.51-.42-.72-.26-1.41-.55-2.07-.92-1.51-.82-2.89-1.93-4.02-3.24-.54-.63-1.05-1.29-1.48-2.03-.36-.61-.69-1.21-.97-1.87-.33-.77,.9-1.85,.69-2.66-.28-1.19-1.92-2.11-1.92-3.38,0-.9,.08-1.77,.23-2.64,.08-.42,.15-.84,.28-1.24,.33-1.24,.79-2.4,1.41-3.51,1.1-1.98,3.15-2.32,4.99-3.59,.56-.4,.67-2.14,1.31-2.45,.41-.21,2.33,.53,2.77,.37,1.56-.58,1.77-1.82,3.53-1.82,1.08,0,2.13,.13,3.12,.34,1.02,.24,1.97,.58,2.89,1,1.56,.74,3,1.77,4.2,3.01,.43,.45,.85,.92,1.23,1.45,.41,.53,.77,1.08,1.08,1.69,.31,.55-.08,1.74,.18,2.32,.64,1.77,1.69,3.06,1.69,5.09Z"/><path class="f" d="M315.32,309.46c0,1.11-1,1.42-1.23,2.48-.05,.21,.79,1.19,.74,1.4-.26,.95-.56,1.85-1,2.72-.1,.24-.23,.47-.36,.71-1.23,2.24-3.02,4.12-5.15,5.46-.69,.42-1.38,.79-2.12,1.08-.59,.24-1-.95-1.61-.79-1.13,.29-2.48,1.82-3.71,1.82-1.1,0-2.15-.13-3.17-.37-.51-.13-1-.26-1.51-.42-.72-.26-1.41-.55-2.07-.92-1.51-.82-2.89-1.93-4.02-3.24-.54-.63-1.05-1.29-1.49-2.03-.36-.61-.69-1.21-.97-1.87-.33-.76,.9-1.85,.69-2.66-.28-1.19-1.92-2.11-1.92-3.38,0-.9,.08-1.77,.23-2.64,.08-.42,.15-.84,.28-1.24,.33-1.24,.79-2.4,1.41-3.51,1.1-1.98,3.15-2.32,4.99-3.59,.56-.4,.67-2.14,1.31-2.45,.41-.21,2.33,.53,2.76,.37,1.56-.58,1.77-1.82,3.53-1.82,1.08,0,2.13,.13,3.12,.34,1.02,.24,1.97,.58,2.89,1,1.56,.74,3,1.77,4.2,3.01,.43,.45,.84,.92,1.23,1.45,.41,.53,.77,1.08,1.08,1.69,.31,.55-.08,1.74,.18,2.32,.64,1.77,1.69,3.06,1.69,5.09Z"/><line class="f" x1="234.34" y1="300.2" x2="243.22" y2="300.2"/><line class="f" x1="238.1" y1="305.64" x2="258.02" y2="305.64"/><line class="f" x1="261.94" y1="302.5" x2="273.87" y2="302.5"/><line class="f" x1="252.7" y1="312.84" x2="267.9" y2="312.84"/><line class="f" x1="265.88" y1="317.4" x2="283.26" y2="317.4"/><line class="f" x1="238.61" y1="318.06" x2="246.99" y2="318.06"/><line class="f" x1="221.72" y1="314.58" x2="231.32" y2="314.58"/><line class="f" x1="220.9" y1="307.9" x2="230.37" y2="307.9"/><line class="f" x1="281.88" y1="300.2" x2="289.51" y2="300.2"/><path class="j" d="M266.24,294.56h-65.57c-7.99,0-14.46,6.67-14.46,14.91s6.48,14.91,14.46,14.91h65.57"/><path class="f" d="M266.24,294.56h-65.57c-7.99,0-14.46,6.67-14.46,14.91s6.48,14.91,14.46,14.91h65.57"/><path class="p" d="M279.81,309.46c0,.84,.82,1.69,.69,2.51-.15,.87-.36,1.74-.64,2.56-.13,.37-.26,.71-.41,1.06-.74,1.71-1.87,1.71-3.17,3.03-.28,.29-.51,2.08-.82,2.35-.69,.58-1.43,1.11-2.23,1.56-2.07,1.19-4.45,1.85-6.99,1.85s-5.09-.71-7.22-1.98c-.49-.29-.97-.61-1.41-.95-.87-.66-1.64-1.4-2.33-2.24-.31-.37-.08-2.11-.33-2.53-.28-.42-.61-1-.87-1.42-1.15-2.14-2.28-3.14-2.28-5.75,0-.9,1.38-1.5,1.54-2.35,.08-.4-1.15-1.06-1.05-1.45,.18-.74,.44-1.48,.74-2.16,1.18-2.8,3.17-5.12,5.66-6.7,.56-.34,1.59,.69,2.18,.4,.59-.26,2.02-2.14,2.64-2.35,1.28-.37,1.36-.29,2.77-.29,.69,0,1.38,.05,2.05,.16,.67,.11,1.33,.24,1.95,.42,1.1,.34,2.15,.79,3.12,1.37,.92,.53,.41,2.16,1.2,2.9,.36,.34,2.48,.42,2.82,.82,.56,.66,.69,.66,1.15,1.42,1.36,2.22,1.25,4.91,1.25,7.78Z"/><path class="f" d="M279.81,309.46c0,.84,.82,1.69,.69,2.51-.15,.87-.36,1.74-.64,2.56-.13,.37-.26,.71-.41,1.06-.74,1.71-1.87,1.71-3.17,3.03-.28,.29-.51,2.08-.82,2.35-.69,.58-1.43,1.11-2.23,1.56-2.07,1.19-4.45,1.85-6.99,1.85s-5.09-.71-7.22-1.98c-.49-.29-.97-.61-1.41-.95-.87-.66-1.64-1.4-2.33-2.24-.31-.37-.08-2.11-.33-2.53-.28-.42-.61-1-.87-1.42-1.15-2.14-2.28-3.14-2.28-5.75,0-.9,1.38-1.5,1.54-2.35,.08-.4-1.15-1.06-1.05-1.45,.18-.74,.44-1.48,.74-2.16,1.18-2.8,3.17-5.12,5.66-6.7,.56-.34,1.59,.69,2.18,.4,.59-.26,2.02-2.14,2.64-2.35,1.28-.37,1.36-.29,2.77-.29,.69,0,1.38,.05,2.05,.16,.67,.11,1.33,.24,1.95,.42,1.1,.34,2.15,.79,3.12,1.37,.92,.53,.41,2.16,1.2,2.9,.36,.34,2.48,.42,2.82,.82,.56,.66,.69,.66,1.15,1.42,1.36,2.22,1.25,4.91,1.25,7.78Z"/><line class="f" x1="199.75" y1="300.2" x2="208.61" y2="300.2"/><line class="f" x1="203.49" y1="305.64" x2="223.41" y2="305.64"/><line class="f" x1="227.35" y1="302.5" x2="239.28" y2="302.5"/><line class="f" x1="218.08" y1="312.84" x2="233.31" y2="312.84"/><line class="f" x1="231.27" y1="317.4" x2="248.65" y2="317.4"/><line class="f" x1="204" y1="318.06" x2="212.37" y2="318.06"/><line class="f" x1="242.76" y1="309.46" x2="251.77" y2="309.46"/><line class="f" x1="187.1" y1="314.58" x2="196.7" y2="314.58"/><line class="f" x1="186.28" y1="307.9" x2="195.76" y2="307.9"/><path class="p" d="M283.65,273.42s3.89-2.22,6.35,1.24"/><path class="f" d="M283.65,273.42s3.89-2.22,6.35,1.24"/><path class="p" d="M286.9,286.09s2.77-.29,3.99-3.03"/><path class="f" d="M286.9,286.09s2.77-.29,3.99-3.03"/><path class="p" d="M307.87,306.53s-.74-2.74-3.56-3.56"/><path class="f" d="M307.87,306.53s-.74-2.74-3.56-3.56"/><path class="p" d="M260.3,312.07s1.87,5.99,8.73,3.32"/><path class="f" d="M260.3,312.07s1.87,5.99,8.73,3.32"/></g></g><g id="d"/></svg>