<svg width="148" height="39" viewBox="0 0 148 39" fill="none" xmlns="http://www.w3.org/2000/svg">
<g clip-path="url(#clip0_172_131)">
<path d="M33.4731 33.2867C41.1307 25.672 41.1307 13.3261 33.4731 5.71133C25.8155 -1.90341 13.4002 -1.90341 5.74264 5.71133C-1.91491 13.3261 -1.91491 25.672 5.74264 33.2867C13.4002 40.9015 25.8155 40.9015 33.4731 33.2867Z" fill="#D01126"/>
<path d="M33.8688 19.499H33.8713H33.8688L19.6084 5.31836L5.34796 19.499L19.6084 33.6822L33.8688 19.499H33.8713H33.8688Z" fill="white"/>
<path d="M24.0659 19.4994L19.6084 15.0693L15.1534 19.4994L19.6084 23.9319L24.0659 19.4994Z" fill="#D01126"/>
<path d="M82.7301 17.9429H109.256C109.684 17.9429 109.694 17.5102 109.694 17.5102L109.684 5.7659C109.684 5.26562 109.246 5.30314 109.246 5.30314H107.073C107.073 5.30314 106.645 5.2381 106.645 5.61332L106.655 16.2294C106.655 16.2294 106.635 16.5296 106.346 16.5296H103.994C103.994 16.5296 103.694 16.5496 103.694 16.2294L103.684 14.5635C103.684 14.5635 103.692 14.2158 103.984 14.2158H105.151C105.151 14.2158 105.581 14.2258 105.581 13.7805V13.3203C105.581 13.3203 105.581 12.865 105.141 12.865H103.984C103.984 12.865 103.684 12.865 103.684 12.5473V11.932C103.684 11.932 103.674 11.6143 103.984 11.6143H105.151C105.151 11.6143 105.581 11.6343 105.581 11.1615V10.6988C105.581 10.6988 105.581 10.226 105.141 10.226H103.984C103.984 10.226 103.684 10.226 103.684 9.92831V9.15536C103.684 9.15536 103.702 8.83768 103.984 8.83768H105.151C105.151 8.83768 105.581 8.84518 105.581 8.39242V8.07474C105.581 8.07474 105.581 7.61197 105.141 7.61197H103.984C103.984 7.61197 103.684 7.63198 103.684 7.30429V5.7634C103.684 5.7634 103.702 5.30064 103.262 5.30064H100.89C100.452 5.30064 100.472 5.7634 100.472 5.7634V7.30429C100.472 7.63198 100.168 7.61197 100.168 7.61197H99.013C98.5753 7.61197 98.5753 8.07474 98.5753 8.07474V8.39242C98.5753 8.84518 99.0004 8.83768 99.0004 8.83768H100.168C100.452 8.83768 100.472 9.15536 100.472 9.15536V9.92831C100.472 10.226 100.168 10.226 100.168 10.226H99.013C98.5753 10.226 98.5753 10.6988 98.5753 10.6988V11.1615C98.5753 11.6343 99.0004 11.6143 99.0004 11.6143H100.168C100.482 11.6143 100.472 11.932 100.472 11.932V12.5473C100.472 12.865 100.168 12.865 100.168 12.865H99.013C98.5753 12.865 98.5753 13.3203 98.5753 13.3203V13.7805C98.5753 14.2233 99.0004 14.2158 99.0004 14.2158H100.168C100.462 14.2158 100.472 14.5635 100.472 14.5635L100.482 16.2294C100.482 16.5496 100.178 16.5296 100.178 16.5296H97.8885C97.5942 16.5296 97.5766 16.2294 97.5766 16.2294L97.5666 5.61332C97.5666 5.2381 97.1389 5.30314 97.1389 5.30314H95.0033C95.0033 5.30314 94.5731 5.2381 94.5731 5.61332L94.5832 16.2294C94.5832 16.2294 94.5655 16.5296 94.2737 16.5296H91.6752C91.6752 16.5296 91.3759 16.5496 91.3759 16.2294L91.3658 14.5635C91.3658 14.5635 91.3759 14.2158 91.6652 14.2158H92.8349C92.8349 14.2158 93.2625 14.2258 93.2625 13.7805V13.3203C93.2625 13.3203 93.2625 12.865 92.8248 12.865H91.6652C91.6652 12.865 91.3658 12.865 91.3658 12.5473V11.932C91.3658 11.932 91.3558 11.6143 91.6652 11.6143H92.8349C92.8349 11.6143 93.2625 11.6343 93.2625 11.1615V10.6988C93.2625 10.6988 93.2625 10.226 92.8248 10.226H91.6652C91.6652 10.226 91.3658 10.226 91.3658 9.92831V9.15536C91.3658 9.15536 91.3834 8.83768 91.6652 8.83768H92.8349C92.8349 8.83768 93.2625 8.84518 93.2625 8.39242V8.07474C93.2625 8.07474 93.2625 7.61197 92.8248 7.61197H91.6652C91.6652 7.61197 91.3658 7.63198 91.3658 7.30429V5.7634C91.3658 5.7634 91.3834 5.30064 90.9457 5.30064H88.5736C88.1359 5.30064 88.1535 5.7634 88.1535 5.7634V7.30429C88.1535 7.63198 87.8517 7.61197 87.8517 7.61197H86.6945C86.2543 7.61197 86.2543 8.07474 86.2543 8.07474V8.39242C86.2543 8.84518 86.6819 8.83768 86.6819 8.83768H87.8517C88.1359 8.83768 88.1535 9.15536 88.1535 9.15536V9.92831C88.1535 10.226 87.8517 10.226 87.8517 10.226H86.6945C86.2543 10.226 86.2543 10.6988 86.2543 10.6988V11.1615C86.2543 11.6343 86.6819 11.6143 86.6819 11.6143H87.8517C88.1611 11.6143 88.1535 11.932 88.1535 11.932V12.5473C88.1535 12.865 87.8517 12.865 87.8517 12.865H86.6945C86.2543 12.865 86.2543 13.3203 86.2543 13.3203V13.7805C86.2543 14.2233 86.6819 14.2158 86.6819 14.2158H87.8517C88.1435 14.2158 88.1535 14.5635 88.1535 14.5635L88.1636 16.2294C88.1636 16.5496 87.8617 16.5296 87.8617 16.5296H85.638C85.3437 16.5296 85.3286 16.2294 85.3286 16.2294L85.3185 5.61332C85.3185 5.2381 84.8884 5.30314 84.8884 5.30314H82.7175C82.7175 5.30314 82.2798 5.26562 82.2798 5.7659L82.2899 17.5102C82.2899 17.5102 82.2974 17.9429 82.7276 17.9429H82.7301Z" fill="#231815"/>
<path d="M81.9478 20.987H110.235C110.464 20.987 110.65 20.7918 110.65 20.5517V19.7888C110.65 19.5461 110.464 19.3535 110.235 19.3535H81.9478C81.7188 19.3535 81.5352 19.5486 81.5352 19.7888V20.5517C81.5352 20.7918 81.7188 20.987 81.9478 20.987Z" fill="#231815"/>
<path d="M110.781 32.1235H106.909C106.695 32.121 106.522 31.9534 106.522 31.7383V29.3219L106.537 29.3319C106.537 29.1193 106.71 28.9442 106.924 28.9442H108.844C109.072 28.9417 109.259 28.7466 109.259 28.5039V22.8356C109.259 22.593 109.072 22.4004 108.844 22.4004H83.2583C83.0294 22.4004 82.8433 22.5955 82.8433 22.8356V28.5039C82.8433 28.7466 83.0294 28.9417 83.2583 28.9417H85.238C85.4519 28.9442 85.6254 29.1193 85.6254 29.3319H85.6305L85.6456 31.7358C85.6456 31.9484 85.472 32.1185 85.2607 32.1185H81.3642C81.1353 32.121 80.9516 32.3186 80.9516 32.5613V33.2241C80.9516 33.4643 81.1353 33.6594 81.3642 33.6594H110.783C111.012 33.6594 111.198 33.4643 111.198 33.2241V32.5613C111.198 32.3186 111.012 32.1235 110.783 32.1235H110.781ZM103.055 31.7383H103.053C103.053 31.9509 102.879 32.121 102.665 32.121H89.5069C89.3031 32.121 89.1371 31.9634 89.1245 31.7608V29.3094C89.1371 29.1068 89.3031 28.9467 89.5069 28.9467H102.665C102.879 28.9467 103.053 29.1218 103.053 29.3344H103.055V31.7383ZM106.049 26.923C106.049 27.1631 105.863 27.3583 105.636 27.3583H86.5084C86.282 27.3583 86.0958 27.1631 86.0958 26.923V24.3115C86.0958 24.0689 86.2795 23.8762 86.5084 23.8762H105.636C105.863 23.8762 106.049 24.0689 106.049 24.3115V26.923Z" fill="#231815"/>
<path d="M123.278 7.32445C123.456 7.10432 123.798 7.30443 123.798 7.30443C127.946 11.9721 129.405 12.4249 129.405 12.4249C130.271 12.9252 130.271 11.792 130.271 11.792C127.081 8.84532 125.212 5.49339 125.212 5.49339C124.938 4.86052 124.387 4.83301 124.387 4.83301H122.342C121.942 4.83301 121.378 6.13126 121.378 6.13126C119.25 9.96847 114.871 12.9727 114.871 12.9727C114.395 13.3529 114.644 14.0758 115.396 13.8957C115.505 13.8707 115.552 13.8332 115.552 13.8332C116.171 13.6156 116.8 13.2779 117.429 12.8726V13.5205C117.429 13.7206 117.59 13.8832 117.791 13.8832H128.819C129.02 13.8832 129.181 13.7206 129.181 13.5205V12.565C129.181 12.3649 129.02 12.2023 128.819 12.2023H118.38C121.016 10.1936 123.28 7.32695 123.28 7.32695L123.278 7.32445Z" fill="#231815"/>
<path d="M128.082 15.6895H117.879C117.374 15.6895 116.966 16.0947 116.966 16.5975V32.9469C117.029 33.6148 117.648 33.5873 117.648 33.5873H128.369C128.61 33.5873 128.651 33.2871 128.651 33.2871C128.651 33.2871 128.671 32.4466 128.651 32.189C128.631 31.9288 128.349 31.8688 128.349 31.8688H120.513C120.254 31.8688 120.151 31.5511 120.151 31.5511V29.9002C120.151 29.6 120.513 29.56 120.513 29.56C120.513 29.56 128.127 29.58 128.366 29.56C128.608 29.5424 128.688 29.2223 128.688 29.2223C128.688 29.2223 128.709 28.4743 128.688 28.1742C128.668 27.874 128.366 27.8965 128.366 27.8965H120.533C120.312 27.8965 120.148 27.5563 120.148 27.5563V26.183C120.148 26.0054 120.533 25.8428 120.533 25.8428H128.077C128.58 25.8428 128.99 25.4351 128.99 24.9373V16.6C128.99 16.0972 128.583 15.692 128.077 15.692L128.082 15.6895ZM125.939 23.8442C125.939 24.0443 125.778 24.2069 125.574 24.2069H120.334C120.133 24.2069 119.97 24.0443 119.97 23.8442V21.9005C119.97 21.7029 120.133 21.5378 120.334 21.5378H125.574C125.778 21.5378 125.939 21.7004 125.939 21.9005V23.8442ZM125.939 19.5892C125.939 19.7868 125.778 19.9494 125.574 19.9494H120.334C120.133 19.9494 119.97 19.7868 119.97 19.5892V17.6431C119.97 17.443 120.133 17.2804 120.334 17.2804H125.574C125.778 17.2804 125.939 17.443 125.939 17.6431V19.5892Z" fill="#231815"/>
<path d="M140.841 5.5209C140.667 5.24324 140.599 4.85052 140.086 4.83301H137.787C137.09 4.83301 136.61 6.01869 136.61 6.01869C135.216 8.9804 129.964 14.1884 129.964 14.1884C129.627 14.7162 129.586 14.9113 129.768 15.0889C130.042 15.3516 130.635 15.0539 130.635 15.0539C135.438 11.9171 138.225 8.54265 138.225 8.54265C138.225 8.54265 137.802 8.88034 138.164 8.56016C138.527 8.24248 139.286 8.40507 139.286 8.40507C145.15 15.1139 147.044 14.9989 147.044 14.9989C148.169 15.3966 148.111 14.3385 147.829 14.0808C142.365 9.03543 141.231 6.14627 140.841 5.52341V5.5209Z" fill="#231815"/>
<path d="M147.452 21.9427V21.0072C147.452 20.807 147.288 20.6444 147.087 20.6444H140.718C140.516 20.6444 140.355 20.4468 140.355 20.3042V17.1349C140.416 16.9173 140.697 16.8372 140.697 16.8372H145.585C145.784 16.8372 145.95 16.8698 145.95 16.6697V15.7391C145.95 15.539 145.786 15.3789 145.585 15.3789H131.83C131.629 15.3789 131.468 15.539 131.468 15.7391V16.4745C131.468 16.6747 131.629 16.8372 131.83 16.8372H137.047C137.229 16.8948 137.302 17.1349 137.302 17.1349V20.3042C137.302 20.5469 137 20.6444 137 20.6444H130.739C130.537 20.6444 130.376 20.807 130.376 21.0072V21.9427C130.376 22.1428 130.537 22.3054 130.739 22.3054H136.987C137.229 22.3054 137.309 22.6231 137.309 22.6231V31.188C137.309 31.4682 136.826 31.6883 136.826 31.6883H132.681C132.291 31.6883 132.311 31.9935 132.311 31.9935V33.1492C132.291 33.767 133.136 33.6494 133.136 33.6494H138.418C140.209 33.6494 140.345 32.2111 140.345 32.2111V22.6231C140.345 22.4055 140.69 22.3054 140.69 22.3054H147.092C147.293 22.3054 147.457 22.1428 147.457 21.9427H147.452Z" fill="#231815"/>
<path d="M136.16 24.5798C136.361 24.082 135.817 23.9395 135.817 23.9395H133.815C133.453 23.982 133.174 24.4397 133.174 24.4397C132.369 27.1363 129.642 30.6358 129.642 30.6358C129.476 31.4188 130.306 31.2537 130.532 31.0786C134.472 28.0243 136.16 24.5823 136.16 24.5823V24.5798Z" fill="#231815"/>
<path d="M147.867 29.9546C147.862 29.7169 147.691 29.4893 147.522 29.4118C143.965 27.7758 142.617 25.0542 142.461 24.619C142.3 24.1587 141.847 24.0762 141.847 24.0762L141.575 24.1087C141.301 24.3463 141.404 24.7516 141.404 24.7516C142.65 29.4668 146.803 31.633 146.803 31.633C147.925 32.1133 147.867 31.633 147.867 31.633V29.9546Z" fill="#231815"/>
<path d="M51.2485 3.88181C51.2686 4.30206 51.7239 4.42713 51.7239 4.42713C55.7336 4.92742 62.7142 7.30379 64.7341 8.58202C65.3303 8.95974 65.5768 8.63205 65.5768 8.63205L66.4799 7.73153C66.827 7.33631 66.6761 6.90856 66.3742 6.75347C60.1534 3.56413 51.6007 3.11137 51.6007 3.11137C51.0774 3.10637 51.2158 3.57414 51.2158 3.57414L51.251 3.87931L51.2485 3.88181Z" fill="#231815"/>
<path d="M76.3382 28.5888C70.6682 26.2524 66.6183 21.4722 66.6183 21.4722C66.4371 21.2245 66.3566 21.0144 66.3566 21.0144C75.8552 14.6032 76.1168 13.0448 76.1168 13.0448C76.1772 12.9848 76.0892 12.9072 75.986 12.8022C75.8929 12.7096 75.5206 12.7246 75.5206 12.7246H72.9121C72.9121 12.7246 72.6152 12.6921 72.4215 12.7772C72.2304 12.8647 72.1901 12.9773 72.0769 13.1023C68.9199 16.5568 65.3907 18.9207 65.3907 18.9207C64.9681 18.9207 63.665 16.817 63.665 16.817V10.6634C63.665 9.8955 62.923 9.94803 62.923 9.94803H48.094C47.7117 9.94803 47.7519 10.2457 47.7519 10.2457V10.9936C47.7519 11.2513 48.0739 11.3138 48.0739 11.3138H59.6754C60.3798 11.2963 60.5207 12.1143 60.5207 12.1143V30.8976C60.5207 31.6781 59.6754 31.6781 59.6754 31.6781H54.0306C54.0306 31.6781 53.7212 31.6505 53.6106 31.8006C53.4999 31.9557 53.5753 32.1834 53.5753 32.1834L54.0256 33.2039C54.0256 33.2039 54.0885 33.5391 54.242 33.6067C54.3929 33.6742 54.73 33.6542 54.73 33.6542H60.1559C63.8889 33.6542 63.8965 31.2178 63.8965 31.2178V22.7604C63.8965 22.7604 63.9292 22.5978 64.065 22.5903C64.2008 22.5803 64.2788 22.7479 64.2788 22.7479C70.706 31.0427 76.3734 31.7256 76.3734 31.7256C76.7155 31.7256 76.6853 31.4179 76.6853 31.4179V29.1841C76.6853 28.7038 76.3432 28.5863 76.3432 28.5863L76.3382 28.5888Z" fill="#231815"/>
<path d="M59.1044 15.9609C59.1044 15.4606 58.6214 15.4806 58.6214 15.4806H46.6602C46.3382 15.4806 46.3382 15.8008 46.3382 15.8008V16.6087C46.3382 16.9089 46.6602 16.9289 46.6602 16.9289C46.6602 16.9289 55.4569 16.9014 55.5953 16.9289C56.0481 17.0215 55.7764 17.7244 55.7764 17.7244C52.3125 25.1311 45.6817 29.9789 45.3396 30.2541C44.8817 30.6168 45.3848 31.4773 45.3848 31.4773C45.659 31.885 46.2049 31.5674 46.2049 31.5674C53.8621 27.0798 59.6503 18.5148 59.1044 15.9609Z" fill="#231815"/>
</g>
<defs>
<clipPath id="clip0_172_131">
<rect width="148" height="39" fill="white"/>
</clipPath>
</defs>
</svg>
