<?xml version="1.0" encoding="UTF-8"?><svg id="_循環圖" xmlns="http://www.w3.org/2000/svg" viewBox="0 0 500 428.8"><defs><style>.cls-1{stroke:#514540;}.cls-1,.cls-2,.cls-3{stroke-linejoin:round;}.cls-1,.cls-2,.cls-3,.cls-4{fill:none;}.cls-1,.cls-2,.cls-4{stroke-linecap:round;}.cls-2,.cls-3{stroke:#483d38;}.cls-5,.cls-6{fill:#0084ca;}.cls-7{fill:#008cca;}.cls-8{fill:#007f41;}.cls-9,.cls-10{fill:#fff;}.cls-11{fill:#9fd9f6;}.cls-12{fill:#231815;}.cls-13{fill:#514540;}.cls-13,.cls-14,.cls-15,.cls-16,.cls-10,.cls-6{fill-rule:evenodd;}.cls-14{fill:#43ab5c;}.cls-15{fill:#a7d398;}.cls-16{fill:#e9d0a1;}.cls-4{stroke:#0084ca;stroke-miterlimit:8;stroke-width:3px;}</style></defs><ellipse class="cls-11" cx="290.69" cy="224.43" rx="205" ry="198.34"/><path class="cls-15" d="M490.76,211.63c0,42.26-33.85,76.52-75.62,76.52-41.76,0-75.62-34.25-75.62-76.52,0-15.66,4.65-30.22,12.62-42.35,10.86-16.51,27.89-28.51,47.75-32.63,4.92-1.02,10.02-1.56,15.24-1.56,41.76,0,75.62,34.27,75.62,76.53Z"/><path class="cls-4" d="M124.46,341.3c-2.21-2.63-4.31-5.26-6.31-7.92-24.2-32.23-25.82-72.9-22.1-109.52"/><path class="cls-4" d="M372.19,406.59c-75,25-128,14-175-7"/><path class="cls-4" d="M493.19,229.59c3,85-68,144-68,144"/><path class="cls-4" d="M494.19,202.59c-18-125-117-167-181-174"/><polygon class="cls-6" points="314.62 21.63 296.96 25.99 311.84 35.77 314.62 21.63"/><polygon class="cls-6" points="499.54 229.26 493.3 214.3 487.21 229.04 499.54 229.26"/><polygon class="cls-6" points="371.34 413.74 382.07 400.05 365.05 402.3 371.34 413.74"/><polygon class="cls-6" points="117.23 343.52 132.42 351.99 127.21 335.32 117.23 343.52"/><polygon class="cls-6" points="122.36 103.29 123.75 121.08 134.46 107.63 122.36 103.29"/><polygon class="cls-6" points="417.11 120.24 430.46 136.05 431.82 115.39 417.11 120.24"/><g><path class="cls-10" d="M408.91,327.1s-26.41,43.89,0,43.89,0-43.89,0-43.89Z"/><path class="cls-2" d="M408.91,327.1s-26.41,43.89,0,43.89,0-43.89,0-43.89Z"/><path class="cls-10" d="M388.06,366.73s-18.76,31.16,0,31.16c18.76-.03,0-31.16,0-31.16Z"/><path class="cls-2" d="M388.06,366.73s-18.76,31.16,0,31.16c18.76-.03,0-31.16,0-31.16Z"/><path class="cls-6" d="M429.21,363.64c-.35,17.71-14.56,31.75-31.74,31.39-17.18-.36-30.81-15-30.46-32.68,.35-17.71,14.56-31.75,31.71-31.39,17.21,.33,30.84,14.97,30.49,32.68Z"/><path class="cls-10" d="M408.08,327.09s-26.41,43.89,0,43.89,0-43.89,0-43.89Z"/><path class="cls-2" d="M408.08,327.09s-26.41,43.89,0,43.89,0-43.89,0-43.89Z"/><path class="cls-10" d="M387.22,366.73s-18.76,31.16,0,31.16c18.76-.03,0-31.16,0-31.16Z"/><path class="cls-2" d="M387.22,366.73s-18.76,31.16,0,31.16c18.76-.03,0-31.16,0-31.16Z"/></g><g><path class="cls-6" d="M225.39,367.02c-.42,21.55-17.72,38.66-38.63,38.23-20.91-.43-37.54-18.26-37.1-39.81,.42-21.57,17.72-38.68,38.63-38.25,20.91,.45,37.54,18.28,37.1,39.83Z"/><path class="cls-2" d="M210.72,354.29s.05-7.78,3.11-12.96"/><path class="cls-10" d="M217.24,365.82c-4.64-8.76-15.7-15.37-53.97-15.37-43.45,0-55.74,11.35-55.74,21.85s16.75,17.63,35.5,19.87c22.17,2.66,65.56,2.76,69.78,2.56,0,0,23.15-.48,46.53-.48,27.28,0-1.85-.17-1.85-10.23-.02-9.69-24.85-17.93-40.26-18.19Z"/><path class="cls-2" d="M217.24,365.82c-4.64-8.76-15.7-15.37-53.97-15.37-43.45,0-55.74,11.35-55.74,21.85s16.75,17.63,35.5,19.87c22.17,2.66,65.56,2.76,69.78,2.56,0,0,23.15-.48,46.53-.48,27.28,0-1.85-.17-1.85-10.23-.02-9.69-24.85-17.93-40.26-18.19Z"/><path class="cls-10" d="M239.45,365.82c-4.64-8.76-15.7-15.37-53.97-15.37-43.45,0-55.74,8.52-55.74,19.04s26.93,19.02,50.47,19.02c4.74,0,9.21-.1,13.43-.3,5.14,8.06,20.7,11.33,44.07,11.33,27.28,0,41.99-5.47,41.99-15.53s-24.83-17.93-40.24-18.19Z"/><path class="cls-2" d="M239.45,365.82c-4.64-8.76-15.7-15.37-53.97-15.37-43.45,0-55.74,8.52-55.74,19.04s26.93,19.02,50.47,19.02c4.74,0,9.21-.1,13.43-.3,5.14,8.06,20.7,11.33,44.07,11.33,27.28,0,41.99-5.47,41.99-15.53s-24.83-17.93-40.24-18.19Z"/><path class="cls-10" d="M183.43,366.95c2.42,0,4.51-3.22,8.42-3.22s4.21,2.97,8.5,2.97,3.95-2.97,8.79-2.97,4.8,3.22,8.53,3.22"/><path class="cls-2" d="M183.43,366.95c2.42,0,4.51-3.22,8.42-3.22s4.21,2.97,8.5,2.97,3.95-2.97,8.79-2.97,4.8,3.22,8.53,3.22"/><path class="cls-10" d="M183.99,374.76c2.42,0,4.5-3.22,8.42-3.22s4.21,2.96,8.5,2.96,3.95-2.96,8.79-2.96,4.8,3.22,8.53,3.22,4.69-3.22,8.79-3.22c4.35,0,6.56,2.96,10.66,2.96"/><path class="cls-2" d="M183.99,374.76c2.42,0,4.5-3.22,8.42-3.22s4.21,2.96,8.5,2.96,3.95-2.96,8.79-2.96,4.8,3.22,8.53,3.22,4.69-3.22,8.79-3.22c4.35,0,6.56,2.96,10.66,2.96"/><path class="cls-10" d="M225.09,386.54c2.42,0,4.5-3.22,8.42-3.22s4.21,2.96,8.5,2.96,3.95-2.96,8.79-2.96,4.8,3.22,8.53,3.22"/><path class="cls-2" d="M225.09,386.54c2.42,0,4.5-3.22,8.42-3.22s4.21,2.96,8.5,2.96,3.95-2.96,8.79-2.96,4.8,3.22,8.53,3.22"/><path class="cls-10" d="M145.75,366.69c4.29,0,3.95-2.96,8.79-2.96s4.8,3.22,8.53,3.22,4.69-3.22,8.79-3.22c4.35,0,6.56,2.96,10.66,2.96"/><path class="cls-2" d="M145.75,366.69c4.29,0,3.95-2.96,8.79-2.96s4.8,3.22,8.53,3.22,4.69-3.22,8.79-3.22c4.35,0,6.56,2.96,10.66,2.96"/><path class="cls-2" d="M190.96,336.95s3.03,4.69,2.58,14.06"/><path class="cls-2" d="M198.94,351.18s-1.42-17.45,2.69-30.77"/><path class="cls-2" d="M204.07,352.83s-1.37-13.77,4.27-24.19"/><path class="cls-2" d="M188.59,350.07s-.61-9.99-5.3-15.72"/><path class="cls-14" d="M216.7,365.82c-4.64-8.76-15.7-15.37-53.97-15.37-43.45,0-55.74,11.35-55.74,21.85s16.75,17.63,35.5,19.87c22.17,2.66,65.56,2.76,69.78,2.56,0,0,23.15-.48,46.53-.48,27.28,0-1.85-.17-1.85-10.23-.02-9.69-24.85-17.93-40.26-18.19Z"/><path class="cls-2" d="M216.7,365.82c-4.64-8.76-15.7-15.37-53.97-15.37-43.45,0-55.74,11.35-55.74,21.85s16.75,17.63,35.5,19.87c22.17,2.66,65.56,2.76,69.78,2.56,0,0,23.15-.48,46.53-.48,27.28,0-1.85-.17-1.85-10.23-.02-9.69-24.85-17.93-40.26-18.19Z"/><path class="cls-15" d="M238.91,365.82c-4.64-8.76-15.7-15.37-53.97-15.37-43.45,0-55.74,8.52-55.74,19.04s26.93,19.02,50.47,19.02c4.74,0,9.21-.1,13.43-.3,5.14,8.06,20.7,11.33,44.07,11.33,27.28,0,41.99-5.47,41.99-15.53s-24.83-17.93-40.24-18.19Z"/><path class="cls-2" d="M238.91,365.82c-4.64-8.76-15.7-15.37-53.97-15.37-43.45,0-55.74,8.52-55.74,19.04s26.93,19.02,50.47,19.02c4.74,0,9.21-.1,13.43-.3,5.14,8.06,20.7,11.33,44.07,11.33,27.28,0,41.99-5.47,41.99-15.53s-24.83-17.93-40.24-18.19Z"/><path class="cls-2" d="M182.89,366.95c2.42,0,4.51-3.22,8.42-3.22s4.21,2.97,8.5,2.97,3.95-2.97,8.79-2.97,4.8,3.22,8.53,3.22"/><path class="cls-2" d="M183.45,374.76c2.42,0,4.5-3.22,8.42-3.22s4.21,2.96,8.5,2.96,3.95-2.96,8.79-2.96,4.8,3.22,8.53,3.22,4.69-3.22,8.79-3.22c4.35,0,6.56,2.96,10.66,2.96"/><path class="cls-2" d="M224.55,386.54c2.42,0,4.5-3.22,8.42-3.22s4.21,2.96,8.5,2.96,3.95-2.96,8.79-2.96,4.8,3.22,8.53,3.22"/><path class="cls-2" d="M145.21,366.69c4.29,0,3.95-2.96,8.79-2.96s4.8,3.22,8.53,3.22,4.69-3.22,8.79-3.22c4.35,0,6.56,2.96,10.66,2.96"/></g><path class="cls-4" d="M128.19,107.59c20-31,46-47,70-59"/><path class="cls-4" d="M424.19,117.59s-30-64-118-67"/><g><path class="cls-6" d="M309.47,68.24c-.65,29.73-26.94,53.35-58.74,52.74-31.8-.6-57.04-25.2-56.4-54.93,.64-29.73,26.94-53.35,58.74-52.76,31.8,.62,57.04,25.21,56.4,54.95Z"/><path class="cls-10" d="M215.56,26.93V90.98c0,10.6,16.67,19.17,37.23,19.17s37.23-8.57,37.23-19.17V26.05"/><path class="cls-3" d="M215.56,26.93V90.98c0,10.6,16.67,19.17,37.23,19.17s37.23-8.57,37.23-19.17V26.05"/><path class="cls-10" d="M290,26.05c0,10.6-16.67,19.17-37.23,19.17s-37.23-8.59-37.23-19.17,16.67-19.19,37.23-19.19c20.56-.02,37.23,8.59,37.23,19.19Z"/><path class="cls-3" d="M290,26.05c0,10.6-16.67,19.17-37.23,19.17s-37.23-8.59-37.23-19.17,16.67-19.19,37.23-19.19c20.56-.02,37.23,8.59,37.23,19.19Z"/><path class="cls-2" d="M290,26.05v-5.37c0-10.6-16.67-19.19-37.23-19.19s-37.23,8.59-37.23,19.19,16.67,19.17,37.23,19.17c5.14,0,10.03-.53,14.49-1.51v4.29"/><path class="cls-10" d="M275.35,54.21c-6.18,2.09-13.82,3.26-22.07,3.26-16.37,0-30.28-4.55-35.26-11.9"/><path class="cls-2" d="M275.35,54.21c-6.18,2.09-13.82,3.26-22.07,3.26-16.37,0-30.28-4.55-35.26-11.9"/><path class="cls-10" d="M275.35,66.33c-6.18,2.09-13.82,3.26-22.07,3.26-16.24,0-30.05-4.5-35.13-11.73"/><path class="cls-2" d="M275.35,66.33c-6.18,2.09-13.82,3.26-22.07,3.26-16.24,0-30.05-4.5-35.13-11.73"/><path class="cls-10" d="M275.35,79.24c-6.18,2.09-13.82,3.26-22.07,3.26-15.83,0-29.22-4.6-34.6-11.53"/><path class="cls-2" d="M275.35,79.24c-6.18,2.09-13.82,3.26-22.07,3.26-15.83,0-29.22-4.6-34.6-11.53"/><path class="cls-10" d="M275.35,91.9c-6.18,2.09-13.82,3.26-22.07,3.26-16.57,0-30.15-4.69-34.96-12.18"/><path class="cls-2" d="M275.35,91.9c-6.18,2.09-13.82,3.26-22.07,3.26-16.57,0-30.15-4.69-34.96-12.18"/><path class="cls-10" d="M248.66,22.13v2.66c0,1.51,2.18,2.74,4.87,2.74s4.87-1.23,4.87-2.74v-2.66"/><path class="cls-3" d="M248.66,22.13v2.66c0,1.51,2.18,2.74,4.87,2.74s4.87-1.23,4.87-2.74v-2.66"/><path class="cls-10" d="M275.09,37.25s0-2.56,1.61-2.56c1.81,0,1.81,2.56,1.81,2.56V109.31"/><path class="cls-2" d="M275.09,37.25s0-2.56,1.61-2.56c1.81,0,1.81,2.56,1.81,2.56V109.31"/><path class="cls-10" d="M282.29,33.18s0-2.56,1.61-2.56c1.81,0,1.81,2.56,1.81,2.56V105.17"/><path class="cls-2" d="M282.29,33.18s0-2.56,1.61-2.56c1.81,0,1.81,2.56,1.81,2.56V105.17"/><line class="cls-9" x1="278.51" y1="44.48" x2="285.71" y2="40.77"/><line class="cls-2" x1="278.51" y1="44.48" x2="285.71" y2="40.77"/><line class="cls-9" x1="278.51" y1="50.38" x2="285.71" y2="46.69"/><line class="cls-2" x1="278.51" y1="50.38" x2="285.71" y2="46.69"/><line class="cls-9" x1="278.51" y1="56.27" x2="285.71" y2="52.59"/><line class="cls-2" x1="278.51" y1="56.27" x2="285.71" y2="52.59"/><line class="cls-9" x1="278.51" y1="62.17" x2="285.71" y2="58.5"/><line class="cls-2" x1="278.51" y1="62.17" x2="285.71" y2="58.5"/><line class="cls-9" x1="278.51" y1="68.09" x2="285.71" y2="64.4"/><line class="cls-2" x1="278.51" y1="68.09" x2="285.71" y2="64.4"/><line class="cls-9" x1="278.51" y1="73.99" x2="285.71" y2="70.3"/><line class="cls-2" x1="278.51" y1="73.99" x2="285.71" y2="70.3"/><line class="cls-9" x1="278.51" y1="79.88" x2="285.71" y2="76.21"/><line class="cls-2" x1="278.51" y1="79.88" x2="285.71" y2="76.21"/><line class="cls-9" x1="278.51" y1="85.8" x2="285.71" y2="82.11"/><line class="cls-2" x1="278.51" y1="85.8" x2="285.71" y2="82.11"/><line class="cls-9" x1="278.51" y1="91.7" x2="285.71" y2="88.01"/><line class="cls-2" x1="278.51" y1="91.7" x2="285.71" y2="88.01"/><line class="cls-9" x1="278.51" y1="97.35" x2="285.71" y2="93.66"/><line class="cls-2" x1="278.51" y1="97.35" x2="285.71" y2="93.66"/><path class="cls-10" d="M258.42,22.13c0,1.51-2.19,2.74-4.87,2.74s-4.87-1.23-4.87-2.74,2.18-2.74,4.87-2.74,4.87,1.23,4.87,2.74Z"/><path class="cls-3" d="M258.42,22.13c0,1.51-2.19,2.74-4.87,2.74s-4.87-1.23-4.87-2.74,2.18-2.74,4.87-2.74,4.87,1.23,4.87,2.74Z"/><polyline class="cls-10" points="222.14 92.99 218.12 100.24 218.12 105.89"/><polyline class="cls-2" points="222.14 92.99 218.12 100.24 218.12 105.89"/><polyline class="cls-10" points="226.15 94.92 222.14 102.16 222.14 107.81"/><polyline class="cls-2" points="226.15 94.92 222.14 102.16 222.14 107.81"/><polyline class="cls-10" points="230.17 97.35 226.15 104.59 226.15 110.24"/><polyline class="cls-2" points="230.17 97.35 226.15 104.59 226.15 110.24"/><polyline class="cls-10" points="234.18 99.52 230.17 106.77 230.17 112.42"/><polyline class="cls-2" points="234.18 99.52 230.17 106.77 230.17 112.42"/><line class="cls-2" x1="252.77" y1="39.86" x2="252.77" y2="45.23"/><line class="cls-2" x1="234.18" y1="37.28" x2="234.18" y2="42.14"/><line class="cls-2" x1="222.14" y1="31.57" x2="222.14" y2="36.94"/><line class="cls-2" x1="224.14" y1="8.42" x2="224.14" y2="13.79"/><line class="cls-2" x1="239.02" y1="2.84" x2="239.02" y2="8.42"/><line class="cls-2" x1="258.42" y1="1.7" x2="258.42" y2="7.08"/><line class="cls-2" x1="275.86" y1="5.63" x2="275.86" y2="10.78"/><path class="cls-16" d="M215.02,26.93V90.98c0,10.6,16.67,19.17,37.23,19.17s37.23-8.57,37.23-19.17V26.05"/><path class="cls-3" d="M215.02,26.93V90.98c0,10.6,16.67,19.17,37.23,19.17s37.23-8.57,37.23-19.17V26.05"/><path class="cls-10" d="M289.46,26.05c0,10.6-16.67,19.17-37.23,19.17s-37.23-8.59-37.23-19.17,16.67-19.19,37.23-19.19c20.56-.02,37.23,8.59,37.23,19.19Z"/><path class="cls-3" d="M289.46,26.05c0,10.6-16.67,19.17-37.23,19.17s-37.23-8.59-37.23-19.17,16.67-19.19,37.23-19.19c20.56-.02,37.23,8.59,37.23,19.19Z"/><path class="cls-2" d="M289.46,26.05v-5.37c0-10.6-16.67-19.19-37.23-19.19s-37.23,8.59-37.23,19.19,16.67,19.17,37.23,19.17c5.14,0,10.03-.53,14.49-1.51v4.29"/><path class="cls-2" d="M274.81,54.21c-6.18,2.09-13.82,3.26-22.07,3.26-16.37,0-30.28-4.55-35.26-11.9"/><path class="cls-2" d="M274.81,66.33c-6.18,2.09-13.82,3.26-22.07,3.26-16.24,0-30.05-4.5-35.13-11.73"/><path class="cls-2" d="M274.81,79.24c-6.18,2.09-13.82,3.26-22.07,3.26-15.83,0-29.22-4.6-34.6-11.53"/><path class="cls-2" d="M274.81,91.9c-6.18,2.09-13.82,3.26-22.07,3.26-16.57,0-30.15-4.69-34.96-12.18"/><path class="cls-3" d="M248.12,22.13v2.66c0,1.51,2.18,2.74,4.87,2.74s4.87-1.23,4.87-2.74v-2.66"/><path class="cls-2" d="M274.55,37.25s0-2.56,1.61-2.56c1.81,0,1.81,2.56,1.81,2.56V109.31"/><path class="cls-2" d="M281.75,33.18s0-2.56,1.61-2.56c1.81,0,1.81,2.56,1.81,2.56V105.17"/><line class="cls-2" x1="277.97" y1="44.48" x2="285.17" y2="40.77"/><line class="cls-2" x1="277.97" y1="50.38" x2="285.17" y2="46.69"/><line class="cls-2" x1="277.97" y1="56.27" x2="285.17" y2="52.59"/><line class="cls-2" x1="277.97" y1="62.17" x2="285.17" y2="58.5"/><line class="cls-2" x1="277.97" y1="68.09" x2="285.17" y2="64.4"/><line class="cls-2" x1="277.97" y1="73.99" x2="285.17" y2="70.3"/><line class="cls-2" x1="277.97" y1="79.88" x2="285.17" y2="76.21"/><line class="cls-2" x1="277.97" y1="85.8" x2="285.17" y2="82.11"/><line class="cls-2" x1="277.97" y1="91.7" x2="285.17" y2="88.01"/><line class="cls-2" x1="277.97" y1="97.35" x2="285.17" y2="93.66"/><ellipse class="cls-3" cx="253.01" cy="22.13" rx="4.87" ry="2.74"/><polyline class="cls-2" points="221.6 92.99 217.58 100.24 217.58 105.89"/><polyline class="cls-2" points="225.61 94.92 221.6 102.16 221.6 107.81"/><polyline class="cls-2" points="229.63 97.35 225.61 104.59 225.61 110.24"/><polyline class="cls-2" points="233.64 99.52 229.63 106.77 229.63 112.42"/><line class="cls-2" x1="252.23" y1="39.86" x2="252.23" y2="45.23"/><line class="cls-2" x1="233.64" y1="37.28" x2="233.64" y2="42.14"/><line class="cls-2" x1="221.6" y1="31.57" x2="221.6" y2="36.94"/><line class="cls-2" x1="223.6" y1="8.42" x2="223.6" y2="13.79"/><line class="cls-2" x1="238.48" y1="2.84" x2="238.48" y2="8.42"/><line class="cls-2" x1="257.88" y1="1.7" x2="257.88" y2="7.08"/><line class="cls-2" x1="275.32" y1="5.63" x2="275.32" y2="10.78"/></g><g><path class="cls-8" d="M363.58,202c-.09-.42-.21-.9-.36-1.41-6.43,1.05-7.51,1.32-8.2,1.65-.18-.63-.75-2.25-1.11-3.13,.78-.15,1.5-.87,2.52-1.98,.39-.42,1.17-1.29,2.07-2.49-2.56,.3-3.25,.48-3.73,.69-.18-.66-.69-2.19-1.08-3.07,.63-.15,1.17-.72,1.8-1.59,.69-.84,2.73-4.21,3.94-7.39l3.19,1.32c-1.23,2.52-2.79,5.11-4.42,7.24l2.43-.18c.81-1.29,1.62-2.64,2.31-4l2.88,1.86c-1.83,3.1-4.18,6.19-6.58,8.77l3.07-.42c-.24-.72-.54-1.44-.81-2.1l2.58-.96c.9,1.92,1.83,4.48,2.23,6.04l-2.74,1.14Zm-5.53,1.68c-.18,2.7-.72,5.56-1.35,7.36-.63-.33-2.1-.81-2.86-.99,.69-1.77,1.05-4.45,1.23-6.85l2.98,.48Zm3.52-.72c.36,2.01,.72,4.54,.81,6.25l-2.88,.63c-.06-1.74-.36-4.36-.69-6.34l2.76-.54Zm3.28-1.05c.6,1.62,1.23,3.7,1.5,5.08l-2.76,.96c-.18-1.41-.81-3.55-1.32-5.23l2.58-.81Zm12.17-3.7c.36,5.68,1.08,9.65,2.01,9.65,.42,0,.6-1.5,.66-4.51,.69,.72,1.83,1.38,2.67,1.74-.39,4.84-1.38,6.07-3.7,6.07-3.09,0-4.39-5.53-4.9-12.95h-3.91v8.62l3.97-1.17c.06,.93,.24,2.34,.42,3.07-5.65,1.89-6.7,2.4-7.33,2.88-.27-.75-1.05-2.07-1.56-2.64,.57-.42,1.17-1.26,1.17-2.67v-19.83h.03c4.45-.66,9.38-1.68,12.53-2.7l2.46,2.88c-1.41,.42-3.07,.81-4.72,1.14-.06,2.49-.03,4.9,.03,7.12h4.87v3.31h-4.72Zm-3.46-3.31c-.09-2.07-.12-4.27-.15-6.46-1.2,.21-2.37,.39-3.55,.57v5.89h3.7Z"/><path class="cls-8" d="M412.81,188.08s0,1.2-.03,1.62c-.39,13.43-.72,18.21-1.95,19.8-.84,1.11-1.68,1.44-2.88,1.65-1.14,.15-2.94,.12-4.72,.06-.06-.99-.54-2.49-1.17-3.49,1.92,.18,3.7,.18,4.48,.18,.6,0,.93-.12,1.32-.51,.87-.96,1.26-5.47,1.59-16.08h-6.43c-.78,1.8-1.71,3.46-2.64,4.75-.48-.45-1.5-1.14-2.31-1.68v14.03h-8.02v2.19h-3.25v-22.33h3.4c.39-1.5,.75-3.43,.87-4.84l3.91,.54c-.51,1.5-1.05,3.01-1.56,4.3h4.66v4.87c1.74-2.52,3.18-6.16,4.06-9.68l3.4,.78c-.3,1.29-.72,2.55-1.17,3.82h8.47Zm-18,3.34h-4.78v4.87h4.78v-4.87Zm0,13.85v-5.89h-4.78v5.89h4.78Zm9.98-1.62c-.84-1.8-2.71-4.75-4.18-6.94l2.79-1.59c1.5,2.07,3.49,4.93,4.42,6.67l-3.03,1.86Z"/><path class="cls-8" d="M445.15,204.67h-3.43v2.97c0,1.8-.39,2.76-1.65,3.31-1.2,.57-3,.6-5.53,.6-.18-.96-.72-2.46-1.23-3.37,1.65,.09,3.58,.06,4.12,.06s.72-.15,.72-.66v-2.91h-14.15v6.88h-3.55v-6.88h-3.43v-3.31h3.43v-11.03h8.75v-1.98h-10.94v-3.28h25.69v3.28h-11.18v1.98h8.95v11.03h3.43v3.31Zm-21.16-11.12v2.34h5.2v-2.34h-5.2Zm0,7.81h5.2v-2.43h-5.2v2.43Zm8.77-7.81v2.34h5.38v-2.34h-5.38Zm5.38,7.81v-2.43h-5.38v2.43h5.38Z"/><path class="cls-8" d="M476.23,207.17v3.52h-27.01v-3.52h11.6v-6.04h-8.14v-3.46h8.14v-5.29h-6.22c-.87,1.65-1.8,3.19-2.8,4.36-.72-.57-2.31-1.65-3.21-2.13,2.34-2.52,4.3-6.67,5.32-10.76l3.7,.81c-.42,1.44-.9,2.85-1.41,4.24h4.63v-5.41h3.76v5.41h10.13v3.49h-10.13v5.29h8.98v3.46h-8.98v6.04h11.66Z"/><path class="cls-8" d="M394.06,228.51c-.63,1.08-1.32,2.25-2.13,3.37v16.89h-3.25v-12.92c-.63,.66-1.29,1.29-1.89,1.83-.24-.78-1.11-2.67-1.65-3.52,2.13-1.68,4.48-4.33,5.86-6.88l3.07,1.23Zm-.63-6.67c-1.62,2.61-4.09,5.44-6.37,7.27-.39-.75-1.23-2.1-1.8-2.76,1.89-1.44,3.97-3.82,4.99-5.71l3.18,1.2Zm13.85,8.77v2.43h4.75v15.69h-3.46v-1.26h-6.07v1.26h-3.34v-15.69h4.63v-2.43h-5.2v2.16c0,5.02-.42,11.45-3.39,15.93-.6-.48-1.83-1.23-2.62-1.56,2.59-4.03,2.88-9.98,2.88-14.36v-9.77c5.11-.45,10.97-1.23,14.58-2.13l2.64,2.52c-4,.93-9.29,1.59-14.09,1.98v2.4h5.2v-2.49h3.49v2.49h6.13v2.82h-6.13Zm1.29,5.17h-6.07v1.44h6.07v-1.44Zm0,3.76h-6.07v1.44h6.07v-1.44Zm0,5.32v-1.56h-6.07v1.56h6.07Z"/><path class="cls-8" d="M444.58,242c-1.17,.6-2.35,1.2-3.46,1.71,1.17,.84,2.55,1.53,4.18,1.95-.69,.66-1.65,1.86-2.1,2.73-4-1.35-6.61-4.18-8.14-8.02-.87,.75-1.83,1.44-2.92,2.07v2.58l4.24-.81c-.09,.78-.09,1.95-.03,2.61-5.56,1.2-6.55,1.47-7.12,1.83-.18-.69-.72-1.83-1.14-2.4,.54-.24,1.2-.84,1.2-2.04v-.27c-.84,.36-1.65,.63-2.46,.9-.33-.51-.87-1.17-1.38-1.74l.03,.21c-2.76,.81-5.71,1.56-8.14,2.23l-.6-3.25c.87-.18,1.83-.42,2.95-.69v-7.39h-2.34v-3.1h2.34v-5.59h-2.56v-3.13h8.14v3.13h-2.46v5.59h2.19v3.1h-2.19v6.64l2.25-.6,.27,2.04c2.13-.57,4.36-1.41,6.16-2.43h-3.46v-6.58h14.96v6.58h-5.02c.33,.75,.78,1.44,1.29,2.04,1.11-.63,2.22-1.41,2.97-2.01l2.35,2.1Zm.09-9.77h-18.39v-2.82h18.39v2.82Zm-.96-3.79h-16.38v-6.82h16.38v6.82Zm-11.6-4.42h-1.89v2.01h1.89v-2.01Zm-.93,13.37h8.44v-1.68h-8.44v1.68Zm5.2-13.37h-1.92v2.01h1.92v-2.01Zm4.27,0h-1.98v2.01h1.98v-2.01Z"/></g><g><path class="cls-7" d="M228.79,220.08c-1.48,9.06-5.1,15.83-9.79,19.35-.67-.94-2.25-2.52-3.22-3.09,3.86-2.62,6.74-7.21,8.22-13.08h-7.01v-4.02h8.45l.74-.13,2.62,.97Zm16.67-.57c-2.48,2.48-5.4,5.27-7.78,7.18,2.55,3.86,5.97,7.01,10.2,8.85-.97,.87-2.31,2.55-2.99,3.72-4.73-2.52-8.28-6.61-10.9-11.6v9.63c0,2.31-.44,3.49-1.78,4.23-1.31,.7-3.32,.91-6.04,.91-.17-1.24-.87-3.25-1.48-4.46,1.85,.07,3.62,.07,4.26,.07,.57,0,.77-.2,.77-.77v-26.19h4.26v8.18c.54,1.51,1.14,2.92,1.85,4.33,2.11-2.01,4.43-4.56,5.94-6.64l3.69,2.58Z"/><path class="cls-7" d="M260.86,219.81c-.71,1.21-1.48,2.52-2.38,3.76v18.85h-3.62v-14.42c-.71,.74-1.44,1.44-2.11,2.05-.27-.87-1.24-2.98-1.85-3.92,2.38-1.88,5-4.83,6.54-7.68l3.42,1.38Zm-.71-7.45c-1.81,2.92-4.56,6.07-7.11,8.12-.44-.84-1.37-2.35-2.01-3.09,2.11-1.61,4.43-4.26,5.57-6.37l3.55,1.34Zm15.46,9.79v2.72h5.3v17.51h-3.86v-1.41h-6.77v1.41h-3.72v-17.51h5.16v-2.72h-5.8v2.41c0,5.6-.47,12.78-3.79,17.78-.67-.54-2.05-1.37-2.92-1.74,2.89-4.49,3.22-11.13,3.22-16.03v-10.9c5.7-.5,12.24-1.38,16.27-2.38l2.95,2.82c-4.46,1.04-10.36,1.78-15.73,2.21v2.68h5.8v-2.78h3.89v2.78h6.84v3.15h-6.84Zm1.44,5.77h-6.77v1.61h6.77v-1.61Zm0,4.19h-6.77v1.61h6.77v-1.61Zm0,5.94v-1.74h-6.77v1.74h6.77Z"/><path class="cls-7" d="M317.24,234.87c-1.31,.67-2.62,1.34-3.86,1.91,1.31,.94,2.85,1.71,4.66,2.18-.77,.74-1.85,2.08-2.35,3.05-4.46-1.51-7.38-4.66-9.09-8.95-.97,.84-2.05,1.61-3.25,2.31v2.88l4.73-.91c-.1,.87-.1,2.18-.03,2.92-6.2,1.34-7.31,1.64-7.95,2.05-.2-.77-.81-2.05-1.27-2.68,.6-.27,1.34-.94,1.34-2.28v-.3c-.94,.4-1.84,.7-2.75,1.01-.37-.57-.97-1.31-1.54-1.95l.03,.23c-3.09,.91-6.37,1.74-9.09,2.48l-.67-3.62c.97-.2,2.05-.47,3.29-.77v-8.25h-2.62v-3.45h2.62v-6.24h-2.85v-3.49h9.09v3.49h-2.75v6.24h2.45v3.45h-2.45v7.41l2.51-.67,.3,2.28c2.38-.64,4.86-1.58,6.88-2.72h-3.86v-7.34h16.7v7.34h-5.6c.37,.84,.87,1.61,1.44,2.28,1.24-.7,2.48-1.58,3.32-2.25l2.62,2.35Zm.1-10.9h-20.53v-3.15h20.53v3.15Zm-1.07-4.23h-18.28v-7.61h18.28v7.61Zm-12.95-4.93h-2.11v2.25h2.11v-2.25Zm-1.04,14.92h9.43v-1.88h-9.43v1.88Zm5.8-14.92h-2.15v2.25h2.15v-2.25Zm4.76,0h-2.21v2.25h2.21v-2.25Z"/></g><g><path class="cls-12" d="M418.81,317.57c0,3.2-.27,8.01-1.95,11.09-.44-.36-1.44-.92-2.01-1.13,1.59-2.85,1.72-7.01,1.72-9.96v-5.54h15.98v2.07h-13.74v3.47Zm4.6,6.65c-.92,1.46-2.24,3.14-3.26,4.16-.46-.34-1.36-.94-1.92-1.23,1.09-.94,2.28-2.38,3.01-3.62l2.16,.69Zm3.33-1.27v3.89c0,1.03-.19,1.59-.92,1.9-.71,.33-1.71,.33-3.07,.33-.08-.61-.36-1.44-.63-2.01,.84,.02,1.78,.02,2.03,.02,.29,0,.37-.06,.37-.29v-3.83h-4.44v-7.47h3.39c.25-.48,.46-.96,.59-1.36l2.74,.33c-.23,.34-.46,.71-.69,1.03h5.14v7.47h-4.5Zm-4.44-4.54h6.59v-1.23h-6.59v1.23Zm0,2.83h6.59v-1.24h-6.59v1.24Zm7.16,2.26c1.02,1.15,2.51,2.8,3.26,3.83l-1.95,1.11c-.67-1.02-2.09-2.74-3.12-4l1.82-.94Z"/><path class="cls-12" d="M442.25,316.34c-.84,5.17-2.91,9.04-5.59,11.05-.38-.54-1.28-1.44-1.84-1.76,2.2-1.49,3.85-4.12,4.69-7.47h-4v-2.3h4.83l.42-.08,1.49,.56Zm9.52-.32c-1.42,1.42-3.09,3.01-4.45,4.1,1.46,2.2,3.41,4,5.82,5.06-.56,.5-1.32,1.46-1.71,2.13-2.7-1.44-4.73-3.77-6.23-6.63v5.5c0,1.32-.25,1.99-1.01,2.41-.75,.4-1.9,.52-3.45,.52-.1-.71-.5-1.86-.84-2.55,1.05,.04,2.07,.04,2.43,.04,.33,0,.44-.12,.44-.44v-14.96h2.43v4.67c.31,.86,.65,1.67,1.05,2.47,1.21-1.15,2.53-2.61,3.39-3.79l2.11,1.48Z"/></g><g><path class="cls-12" d="M240.54,347.37c-.69-.63-2.15-1.55-3.2-2.14l1.03-1.71c1.03,.48,2.51,1.32,3.26,1.93l-1.09,1.92Zm1.74,2.38c-.84,1.99-1.9,4.16-2.87,6.02l-1.65-1.55c.86-1.42,2.13-3.79,3.1-6l1.42,1.53Zm-.8-7.45c-.69-.65-2.11-1.59-3.14-2.2l1.07-1.69c1,.54,2.49,1.4,3.22,2.01l-1.15,1.88Zm.27,12.82c.82-.82,1.55-2.17,1.95-3.3l1.8,.75c-.48,1.17-1.09,2.55-1.92,3.43l-1.84-.88Zm5.79-3.12c-.06-.27-.13-.59-.23-.92-3.05,.31-3.72,.42-4.16,.58-.1-.23-.4-.86-.65-1.19,.42-.08,.78-.36,1.26-.8,.23-.19,.69-.69,1.21-1.34-1.24,.1-1.69,.19-1.97,.29-.1-.25-.4-.82-.61-1.13,.29-.04,.56-.23,.81-.53,.27-.27,.98-1.25,1.38-2.24h-1.34v-5.84h10.63v5.84h-2.91l1.47,.63c-.31,.56-.73,1.15-1.19,1.71l.94-.04c.27-.36,.5-.77,.69-1.15l1.57,.88c-.67,1.01-1.59,2.11-2.61,3.06l1.19-.1c-.12-.21-.23-.4-.33-.59l1.15-.54c.57,.9,1.11,2.11,1.32,2.87l-1.23,.59c-.06-.29-.17-.61-.31-.96-3.16,.33-3.89,.46-4.31,.61-.08-.25-.4-.86-.65-1.21,.44-.06,.79-.34,1.27-.8,.21-.19,.65-.61,1.11-1.21-1.24,.12-1.69,.19-1.95,.29-.1-.25-.4-.82-.63-1.13,.31-.04,.56-.25,.82-.54,.27-.29,1.05-1.34,1.48-2.39h-5.54l1.07,.46c-.29,.58-.71,1.17-1.17,1.73l.94-.04c.21-.33,.4-.67,.57-1.02l1.55,.88c-.65,1.02-1.57,2.13-2.57,3.1l1.19-.1c-.1-.27-.21-.5-.33-.73l1.17-.48c.48,.92,.94,2.16,1.09,2.97l-1.21,.52Zm-2.24-10.92h6.38v-.77h-6.38v.77Zm0,2.16h6.38v-.78h-6.38v.78Zm2.59,9.04c.29,1.02,.5,2.38,.54,3.26l-1.86,.34c0-.88-.19-2.26-.44-3.29l1.76-.31Zm2.53-.17c.52,.98,.98,2.26,1.19,3.1l-1.76,.63c-.15-.86-.63-2.22-1.11-3.2l1.69-.54Zm2.74-.36c.78,1.09,1.59,2.51,1.92,3.49l-1.76,.82c-.29-1-1.07-2.51-1.86-3.6l1.71-.71Z"/><path class="cls-12" d="M264.05,348.22l.52,2.03c-1.99,.98-4.14,2.01-5.88,2.8l-.92-2.3c.71-.25,1.55-.56,2.49-.94v-5.08h-2.07v-2.17h2.07v-4.16h2.11v4.16h1.78v2.17h-1.78v4.2l1.69-.71Zm8.54,5.44c1.04,0,1.23-.44,1.4-2.39,.5,.34,1.36,.71,1.99,.82-.31,2.68-.96,3.6-3.2,3.6h-4.08c-2.59,0-3.33-.71-3.33-3.33v-4.94l-1.03,.44-.84-2.01,1.88-.8v-5.04h2.18v4.1l1.59-.67v-5.29h2.13v4.37l2.09-.9,1.72,.56-.08,.34c-.12,2.66-.38,6.15-.84,8.45l-1.86-.52c.21-1.55,.37-3.98,.44-6.25l-1.48,.65v6.76h-2.13v-5.84l-1.59,.69v5.92c0,1.11,.17,1.28,1.34,1.28h3.7Z"/><path class="cls-12" d="M282.51,338.97h1.88l-4.75,18.91h-1.88l4.75-18.91Z"/><path class="cls-12" d="M301.68,340.63v15.38h-2.43v-.94h-9.1v.96h-2.32v-15.4h4.9c.21-.82,.42-1.74,.52-2.51l2.76,.31c-.29,.77-.59,1.51-.9,2.2h6.57Zm-11.53,2.18v1.97h9.1v-1.97h-9.1Zm0,4.08v1.97h9.1v-1.97h-9.1Zm9.1,6.07v-1.99h-9.1v1.99h9.1Z"/><path class="cls-12" d="M321.28,351c-.48-1.38-1.47-3.43-2.57-5.27-.65,2.03-1.97,4.08-4.41,5.77-.4-.46-1.17-1.07-1.72-1.46,2.64-1.82,3.79-4,4.29-5.98h-2.2v-1.36c-1.4,4.37-3.98,7.11-7.26,8.55-.33-.5-1.09-1.38-1.59-1.74,2.28-.9,4.14-2.34,5.44-4.43-.67-.59-1.63-1.3-2.53-1.88-.73,.96-1.55,1.82-2.43,2.51-.15-.56-.57-1.53-.88-2.05,1.73-1.36,3.18-3.73,3.83-5.73l2.13,.65c-.15,.38-.34,.77-.54,1.17h2.64l.4-.06,1.42,.54c-.12,.58-.25,1.15-.4,1.69h2.3c.04-.34,.04-.67,.04-.98v-2.51h2.17v2.55c0,.31,0,.61-.02,.94h3.81v2.14h-3.1c1.26,1.97,2.64,4.39,3.24,6l-2.05,.94Zm-15.86,4.23c.77-.88,1.73-2.41,2.36-3.73l2.15,.56c-.61,1.38-1.55,3.01-2.34,4.08l-2.17-.9Zm4.66-8.91l-3.62,1.34-.46-1.74c1-.23,2.39-.61,3.85-1l.23,1.4Zm-.42-4.43c.82,.48,1.74,1.05,2.43,1.59,.27-.59,.48-1.24,.65-1.93h-2.87l-.21,.34Zm3.56,10.11c.25,1.15,.48,2.64,.5,3.58l-2.24,.32c0-.94-.15-2.49-.36-3.68l2.11-.23Zm3.89-.17c.48,1.11,.96,2.62,1.13,3.56l-2.26,.44c-.11-.94-.56-2.47-1-3.64l2.13-.36Zm3.79-.52c.88,1.17,1.93,2.76,2.41,3.81l-2.14,.98c-.42-1.03-1.42-2.72-2.28-3.95l2.01-.84Zm.29-9.45c-.31-.71-1.03-1.8-1.71-2.59l1.65-.92c.69,.77,1.46,1.8,1.8,2.49l-1.74,1.02Z"/><path class="cls-12" d="M292.48,366.32c-.84,5.17-2.91,9.04-5.59,11.06-.38-.54-1.28-1.44-1.84-1.76,2.2-1.49,3.85-4.12,4.69-7.47h-4v-2.3h4.83l.42-.08,1.49,.56Zm9.52-.32c-1.42,1.42-3.09,3.01-4.45,4.1,1.46,2.2,3.41,4,5.82,5.06-.56,.5-1.32,1.46-1.71,2.13-2.7-1.44-4.73-3.77-6.23-6.63v5.5c0,1.32-.25,1.99-1.01,2.41-.75,.4-1.9,.52-3.45,.52-.1-.71-.5-1.86-.84-2.55,1.05,.04,2.07,.04,2.43,.04,.33,0,.44-.12,.44-.44v-14.96h2.43v4.67c.31,.86,.65,1.67,1.05,2.47,1.21-1.15,2.53-2.61,3.39-3.79l2.11,1.48Z"/><path class="cls-12" d="M312.47,370.17v6.92c0,.82-.13,1.28-.67,1.57-.5,.29-1.21,.31-2.22,.31-.06-.48-.29-1.21-.52-1.67,.54,.02,1.11,.02,1.28,.02,.19,0,.25-.08,.25-.25v-1.74c-.63,.42-1.24,.82-1.86,1.19l-.5-1.07c-.15,1.3-.48,2.68-1.15,3.68-.33-.32-1.17-.9-1.59-1.09,.94-1.44,1.02-3.39,1.02-4.9v-2.93h-.96v-2.97h.75v-5.46h6.23v5.46h.8v2.95h-.86Zm-.86-1.42h-4.39v.77h4.39v-.77Zm-3.54-1.53h.75v-3.07h1.86v-.79h-2.61v3.85Zm.29,5.94c0,.56-.02,1.13-.06,1.76,.65-.27,1.44-.65,2.3-1.07v-.84l-.77,.84c-.33-.33-.92-.84-1.47-1.27v.58Zm0-1.07l.65-.65c.56,.36,1.17,.78,1.59,1.15v-1.59h-2.24v1.09Zm2.32-4.87v-1.78h-.71v1.78h.71Zm12.64,9.89v1.65h-10.11v-1.65h2.26c-.15-.48-.34-.98-.52-1.4l1.21-.36h-2.03v-3.74h8.26v3.74h-2.18l1.48,.4c-.31,.48-.57,.94-.84,1.36h2.49Zm-.15-6.13h-9.77v-1.63h9.77v1.63Zm-.36-2.28h-9.12v-6.15h2.26v-1.36h1.76v1.36h.84v-1.36h1.78v1.36h2.47v6.15Zm-7.43-3.77h.98v-.88h-.98v.88Zm0,2.28h.98v-.9h-.98v.9Zm.75,6.78h4.16v-1h-4.16v1Zm.63,1.36c.23,.57,.48,1.23,.65,1.76h1.55c.23-.58,.48-1.23,.63-1.76h-2.83Zm1.9-10.42v-.88h-.92v.88h.92Zm-.92,1.38v.9h.92v-.9h-.92Zm3.31-2.26h-1.02v.88h1.02v-.88Zm0,2.26h-1.02v.9h1.02v-.9Z"/></g><g><path class="cls-12" d="M214.56,141.75c-1.03,.68-2.24,1.36-3.36,1.89,1.27,.61,2.74,1.05,4.48,1.3-.48,.51-1.1,1.45-1.41,2.06-4.44-.86-7.18-2.83-8.83-6.22-.88,.73-1.98,1.34-3.16,1.87v1.95l4.09-.83c-.11,.57-.18,1.49-.18,1.95-5.23,1.19-5.99,1.41-6.43,1.69l-.02-.2c-.13-.53-.53-1.3-.77-1.6,.4-.31,.97-.86,.97-1.98v-.07c-1.07,.35-2.22,.62-3.34,.81-.31-.55-.92-1.41-1.38-1.89,2.39-.33,4.87-.94,6.76-1.84h-6.41v-2.06h8.89c-.15-.4-.33-.77-.5-1.12h-.68c-.11-.51-.42-1.08-.62-1.49,.51,.02,1.01,.02,1.16,.02,.2,0,.26-.07,.26-.24v-.92h-1.8v3.23h-2.22v-3.23h-1.69v2.72h-1.98v-4.3h3.67v-.77h-4.55v-1.76h1.36c-.44-.26-1.01-.59-1.38-.77,.75-.83,1.36-2.02,1.74-3.14l1.91,.48c-.11,.31-.22,.57-.35,.88h1.27v-1.41h2.22v1.41h3.62v1.67h-3.62v.88h4.22v1.76h-4.22v.77h3.89v2.5c0,.55-.07,.92-.28,1.16l.5-.13c.33,.53,.64,1.21,.86,1.8h8.06v2.06h-2.22l1.47,1.1Zm-14.49-11.02v-.88h-2.11c-.18,.31-.37,.62-.57,.88h2.68Zm10.01,4.37h-2.33v-7.25h2.33v7.25Zm-2.28,5.56c.44,.68,.99,1.25,1.58,1.78,1.01-.53,2.11-1.19,2.92-1.78h-4.5Zm6.59-4.94c0,1.12-.22,1.65-1.01,2-.77,.33-1.86,.35-3.36,.35-.13-.64-.48-1.49-.77-2.06,.99,.04,2.04,.04,2.35,.02,.31,0,.42-.09,.42-.37v-8.7h2.37v8.76Z"/><path class="cls-12" d="M225.45,141.35c-.29-.73-.83-1.8-1.36-2.79v8.74h-2.48v-8.17c-.64,1.82-1.36,3.54-2.17,4.74-.22-.79-.77-1.93-1.12-2.59,1.03-1.45,2.07-3.78,2.7-5.88h-2.42v-2.44h3.01v-2.63c-.7,.13-1.41,.26-2.06,.35-.11-.59-.42-1.47-.7-2.02,2.24-.4,4.72-1.05,6.35-1.82l1.38,2.15c-.77,.31-1.6,.57-2.48,.79v3.18h2.46v2.44h-2.46v.35c.57,.64,2.35,2.92,2.74,3.47l-1.38,2.13Zm13.44,3.18v2.33h-12.69v-2.33h5.29v-2h-4.17v-2.24h4.17v-1.78c-1.16,.09-2.35,.15-3.45,.2-.09-.57-.37-1.45-.64-1.98,3.16-.2,6.74-.62,8.96-1.19l1.6,1.98c-1.16,.29-2.5,.51-3.89,.7v2.06h3.93v2.24h-3.93v2h4.81Zm-1.06-9.27h-10.41v-7.55h10.41v7.55Zm-2.52-5.36h-5.47v3.16h5.47v-3.16Z"/><path class="cls-12" d="M249.97,132.68c-.97,5.93-3.34,10.36-6.41,12.67-.44-.61-1.47-1.65-2.11-2.02,2.52-1.71,4.41-4.72,5.38-8.57h-4.59v-2.63h5.53l.48-.09,1.71,.64Zm10.91-.37c-1.63,1.63-3.54,3.45-5.1,4.7,1.67,2.52,3.91,4.59,6.68,5.8-.64,.57-1.52,1.67-1.95,2.44-3.1-1.65-5.43-4.33-7.14-7.6v6.3c0,1.52-.28,2.28-1.16,2.77-.86,.46-2.17,.59-3.95,.59-.11-.81-.57-2.13-.97-2.92,1.21,.04,2.37,.04,2.79,.04,.37,0,.51-.13,.51-.51v-17.15h2.79v5.36c.35,.99,.75,1.91,1.21,2.83,1.38-1.32,2.9-2.99,3.89-4.35l2.42,1.69Z"/><path class="cls-12" d="M284.56,127.5v19.76h-2.86v-1.16h-13.2v1.16h-2.72v-19.76h18.78Zm-2.86,16.16v-13.48h-13.2v13.48h13.2Zm-2.13-10.89v8.35h-8.96v-8.35h8.96Zm-2.64,2.28h-3.86v3.8h3.86v-3.8Z"/><path class="cls-12" d="M307.22,133.32c-.57,3.25-1.43,6-2.72,8.26,1.16,1.47,2.55,2.66,4.19,3.49-.57,.46-1.38,1.45-1.78,2.15-1.51-.88-2.81-2.04-3.93-3.45-1.16,1.45-2.61,2.63-4.35,3.6-.31-.55-1.16-1.65-1.69-2.13,1.91-.92,3.38-2.13,4.57-3.69-.83-1.43-1.54-3.03-2.09-4.79-.35,.57-.75,1.1-1.14,1.58-.29-.51-1.03-1.47-1.58-2.04v11.02h-2.59v-5.67c-3.49,1.23-4.22,1.63-4.7,2.02-.18-.64-.62-1.82-1.01-2.39,.42-.24,.81-.66,.81-1.56v-10.58h2.57v10.72l2.33-.7v-12.03h2.59v8.65c1.71-2.13,2.72-5.47,3.25-9l2.66,.44c-.22,1.23-.46,2.46-.77,3.62h6.7v2.48h-1.32Zm-6.17,0c-.07,.2-.15,.4-.22,.59,.51,1.89,1.21,3.69,2.09,5.27,.81-1.67,1.36-3.62,1.71-5.86h-3.58Z"/></g><g><path class="cls-10" d="M79.28,142.21v63.1c0,10.43,16.43,18.89,36.68,18.89s36.66-8.46,36.66-18.89v-63.97"/><path class="cls-1" d="M79.28,142.21v63.1c0,10.43,16.43,18.89,36.68,18.89s36.66-8.46,36.66-18.89v-63.97"/><path class="cls-10" d="M152.62,141.33c0,10.43-16.41,18.89-36.66,18.89s-36.68-8.46-36.68-18.89,16.43-18.91,36.68-18.91,36.66,8.47,36.66,18.91Z"/><path class="cls-1" d="M152.62,141.33c0,10.43-16.41,18.89-36.66,18.89s-36.68-8.46-36.68-18.89,16.43-18.91,36.68-18.91,36.66,8.47,36.66,18.91Z"/><path class="cls-10" d="M137.71,190.96c-6.08,2.08-13.61,3.21-21.75,3.21-15.61,0-29.25-4.54-34.55-11.35"/><path class="cls-1" d="M137.71,190.96c-6.08,2.08-13.61,3.21-21.75,3.21-15.61,0-29.25-4.54-34.55-11.35"/><path class="cls-10" d="M137.71,201.56c-6.08,2.06-13.61,3.21-21.75,3.21-16.33,0-30.17-4.62-34.92-12"/><path class="cls-1" d="M137.71,201.56c-6.08,2.06-13.61,3.21-21.75,3.21-16.33,0-30.17-4.62-34.92-12"/><path class="cls-10" d="M137.71,211.76c-6.08,2.06-13.61,3.22-21.75,3.22-16.69,0-30.76-4.82-35.21-12.48"/><path class="cls-1" d="M137.71,211.76c-6.08,2.06-13.61,3.22-21.75,3.22-16.69,0-30.76-4.82-35.21-12.48"/><path class="cls-10" d="M111.88,137.48v2.61c0,1.5,2.14,2.69,4.8,2.69s4.8-1.21,4.8-2.69v-2.61"/><path class="cls-1" d="M111.88,137.48v2.61c0,1.5,2.14,2.69,4.8,2.69s4.8-1.21,4.8-2.69v-2.61"/><path class="cls-10" d="M137.92,152.38s0-2.51,1.6-2.51c1.77,0,1.77,2.51,1.77,2.51v70.98"/><path class="cls-1" d="M137.92,152.38s0-2.51,1.6-2.51c1.77,0,1.77,2.51,1.77,2.51v70.98"/><path class="cls-10" d="M145.03,148.36s0-2.51,1.58-2.51c1.77,0,1.77,2.51,1.77,2.51v70.93"/><path class="cls-1" d="M145.03,148.36s0-2.51,1.58-2.51c1.77,0,1.77,2.51,1.77,2.51v70.93"/><line class="cls-9" x1="141.29" y1="159.49" x2="148.4" y2="155.85"/><line class="cls-1" x1="141.29" y1="159.49" x2="148.4" y2="155.85"/><line class="cls-9" x1="141.29" y1="165.31" x2="148.4" y2="161.67"/><line class="cls-1" x1="141.29" y1="165.31" x2="148.4" y2="161.67"/><line class="cls-9" x1="141.29" y1="171.12" x2="148.4" y2="167.48"/><line class="cls-1" x1="141.29" y1="171.12" x2="148.4" y2="167.48"/><line class="cls-9" x1="141.29" y1="176.94" x2="148.4" y2="173.3"/><line class="cls-1" x1="141.29" y1="176.94" x2="148.4" y2="173.3"/><line class="cls-9" x1="141.29" y1="182.75" x2="148.4" y2="179.11"/><line class="cls-1" x1="141.29" y1="182.75" x2="148.4" y2="179.11"/><line class="cls-9" x1="141.29" y1="188.57" x2="148.4" y2="184.94"/><line class="cls-1" x1="141.29" y1="188.57" x2="148.4" y2="184.94"/><line class="cls-9" x1="141.29" y1="194.38" x2="148.4" y2="190.74"/><line class="cls-1" x1="141.29" y1="194.38" x2="148.4" y2="190.74"/><line class="cls-9" x1="141.29" y1="200.2" x2="148.4" y2="196.56"/><line class="cls-1" x1="141.29" y1="200.2" x2="148.4" y2="196.56"/><line class="cls-9" x1="141.29" y1="206.03" x2="148.4" y2="202.39"/><line class="cls-1" x1="141.29" y1="206.03" x2="148.4" y2="202.39"/><line class="cls-9" x1="141.29" y1="211.58" x2="148.4" y2="207.96"/><line class="cls-1" x1="141.29" y1="211.58" x2="148.4" y2="207.96"/><path class="cls-10" d="M121.49,137.48c0,1.5-2.14,2.71-4.8,2.71s-4.8-1.21-4.8-2.71,2.14-2.69,4.8-2.69,4.8,1.21,4.8,2.69Z"/><path class="cls-1" d="M121.49,137.48c0,1.5-2.14,2.71-4.8,2.71s-4.8-1.21-4.8-2.71,2.14-2.69,4.8-2.69,4.8,1.21,4.8,2.69Z"/><line class="cls-1" x1="128.83" y1="184.94" x2="128.83" y2="220.57"/><line class="cls-1" x1="109.4" y1="184.94" x2="109.4" y2="222.04"/><line class="cls-1" x1="90.95" y1="184.1" x2="90.95" y2="208.74"/><polyline class="cls-10" points="72.65 217.81 72.65 227.64 83.91 232.83 103.62 223.44 103.62 213.59"/><polyline class="cls-1" points="72.65 217.81 72.65 227.64 83.91 232.83 103.62 223.44 103.62 213.59"/><polygon class="cls-10" points="91.31 207.97 72.65 217.81 83.91 222.99 103.62 213.59 91.31 207.97"/><polygon class="cls-1" points="91.31 207.97 72.65 217.81 83.91 222.99 103.62 213.59 91.31 207.97"/><line class="cls-1" x1="83.91" y1="222.99" x2="83.91" y2="232.83"/><line class="cls-9" x1="76.31" y1="215.62" x2="87.97" y2="221.35"/><line class="cls-1" x1="76.31" y1="215.62" x2="87.97" y2="221.35"/><line class="cls-9" x1="80.13" y1="213.89" x2="91.81" y2="219.62"/><line class="cls-1" x1="80.13" y1="213.89" x2="91.81" y2="219.62"/><line class="cls-9" x1="83.91" y1="211.86" x2="95.56" y2="217.58"/><line class="cls-1" x1="83.91" y1="211.86" x2="95.56" y2="217.58"/><line class="cls-9" x1="87.78" y1="210.02" x2="99.43" y2="215.75"/><line class="cls-1" x1="87.78" y1="210.02" x2="99.43" y2="215.75"/><polyline class="cls-10" points="74.99 228.72 74.99 222.99 80.73 225.77 80.73 231.37"/><polyline class="cls-1" points="74.99 228.72 74.99 222.99 80.73 225.77 80.73 231.37"/><line class="cls-1" x1="77.86" y1="224.37" x2="77.86" y2="229.87"/><path class="cls-10" d="M6.48,228.19v9.44c0,8.31,13.04,15.02,29.15,15.02s29.13-6.71,29.13-15.02v-10.13"/><path class="cls-1" d="M6.48,228.19v9.44c0,8.31,13.04,15.02,29.15,15.02s29.14-6.71,29.14-15.02v-10.13"/><path class="cls-10" d="M64.77,227.51c0,8.29-13.04,15.02-29.13,15.02s-29.15-6.71-29.15-15.02,13.04-15.02,29.15-15.02c16.09-.02,29.13,6.73,29.13,15.02Z"/><path class="cls-1" d="M64.77,227.51c0,8.29-13.04,15.02-29.14,15.02s-29.15-6.71-29.15-15.02,13.04-15.02,29.15-15.02c16.09-.02,29.14,6.73,29.14,15.02Z"/><path class="cls-10" d="M7.21,231.27c0-8.29,12.32-15.02,28.43-15.02s28.41,6.73,28.41,15.02"/><path class="cls-1" d="M7.21,231.27c0-8.29,12.32-15.02,28.43-15.02s28.41,6.73,28.41,15.02"/><path class="cls-10" d="M32.41,224.44v2.08c0,1.18,1.71,2.14,3.82,2.14s3.82-.96,3.82-2.14v-2.08"/><path class="cls-1" d="M32.41,224.44v2.08c0,1.18,1.71,2.14,3.82,2.14s3.82-.96,3.82-2.14v-2.08"/><path class="cls-10" d="M40.03,224.44c0,1.2-1.71,2.14-3.82,2.14s-3.82-.96-3.82-2.14,1.71-2.14,3.82-2.14,3.82,.96,3.82,2.14Z"/><path class="cls-1" d="M40.03,224.44c0,1.2-1.71,2.14-3.82,2.14s-3.82-.96-3.82-2.14,1.71-2.14,3.82-2.14,3.82,.96,3.82,2.14Z"/><polyline class="cls-10" points="36.23 228.66 52.51 239.74 52.51 250.17"/><polyline class="cls-1" points="36.23 228.66 52.51 239.74 52.51 250.17"/><polyline class="cls-10" points="40.03 227.26 56.13 238.18 56.13 247.73"/><polyline class="cls-1" points="40.03 227.26 56.13 238.18 56.13 247.73"/><line class="cls-9" x1="40.03" y1="231.27" x2="43.11" y2="229.36"/><line class="cls-1" x1="40.03" y1="231.27" x2="43.11" y2="229.36"/><line class="cls-9" x1="44.37" y1="234.21" x2="47.42" y2="232.28"/><line class="cls-1" x1="44.37" y1="234.21" x2="47.42" y2="232.28"/><line class="cls-9" x1="48.92" y1="237.3" x2="51.9" y2="235.32"/><line class="cls-1" x1="48.92" y1="237.3" x2="51.9" y2="235.32"/><line class="cls-9" x1="52.51" y1="243.26" x2="56.13" y2="241.62"/><line class="cls-1" x1="52.51" y1="243.26" x2="56.13" y2="241.62"/><line class="cls-9" x1="52.51" y1="246.73" x2="56.13" y2="244.92"/><line class="cls-1" x1="52.51" y1="246.73" x2="56.13" y2="244.92"/><path class="cls-10" d="M116.52,257.55v9.44c0,8.31-13.04,15.02-29.15,15.02s-29.14-6.71-29.14-15.02v-10.14"/><path class="cls-1" d="M116.52,257.55v9.44c0,8.31-13.04,15.02-29.15,15.02s-29.14-6.71-29.14-15.02v-10.14"/><path class="cls-10" d="M58.24,256.87c0,8.29,13.04,15.02,29.14,15.02s29.15-6.71,29.15-15.02-13.04-15.02-29.15-15.02c-16.09-.02-29.14,6.73-29.14,15.02Z"/><path class="cls-1" d="M58.24,256.87c0,8.29,13.04,15.02,29.14,15.02s29.15-6.71,29.15-15.02-13.04-15.02-29.15-15.02c-16.09-.02-29.14,6.73-29.14,15.02Z"/><path class="cls-10" d="M115.8,260.62c0-8.29-12.32-15.02-28.43-15.02s-28.41,6.73-28.41,15.02"/><path class="cls-1" d="M115.8,260.62c0-8.29-12.32-15.02-28.43-15.02s-28.41,6.73-28.41,15.02"/><path class="cls-10" d="M90.6,253.8v2.08c0,1.18-1.71,2.14-3.82,2.14s-3.82-.96-3.82-2.14v-2.08"/><path class="cls-1" d="M90.6,253.8v2.08c0,1.18-1.71,2.14-3.82,2.14s-3.82-.96-3.82-2.14v-2.08"/><path class="cls-10" d="M82.97,253.8c0,1.2,1.71,2.14,3.82,2.14s3.82-.96,3.82-2.14-1.71-2.14-3.82-2.14-3.82,.96-3.82,2.14Z"/><path class="cls-1" d="M82.97,253.8c0,1.2,1.71,2.14,3.82,2.14s3.82-.96,3.82-2.14-1.71-2.14-3.82-2.14-3.82,.96-3.82,2.14Z"/><polyline class="cls-10" points="86.79 258.02 70.49 269.1 70.49 279.53"/><polyline class="cls-1" points="86.79 258.02 70.49 269.1 70.49 279.53"/><polyline class="cls-10" points="82.97 256.62 66.9 267.55 66.9 277.09"/><polyline class="cls-1" points="82.97 256.62 66.9 267.55 66.9 277.09"/><line class="cls-9" x1="82.97" y1="260.62" x2="79.89" y2="258.71"/><line class="cls-1" x1="82.97" y1="260.62" x2="79.89" y2="258.71"/><line class="cls-9" x1="78.63" y1="263.57" x2="75.59" y2="261.64"/><line class="cls-1" x1="78.63" y1="263.57" x2="75.59" y2="261.64"/><line class="cls-9" x1="74.09" y1="266.66" x2="71.1" y2="264.68"/><line class="cls-1" x1="74.09" y1="266.66" x2="71.1" y2="264.68"/><line class="cls-9" x1="70.49" y1="272.62" x2="66.9" y2="270.97"/><line class="cls-1" x1="70.49" y1="272.62" x2="66.9" y2="270.97"/><line class="cls-9" x1="70.49" y1="276.09" x2="66.9" y2="274.28"/><line class="cls-1" x1="70.49" y1="276.09" x2="66.9" y2="274.28"/><polygon class="cls-10" points="128.81 237.61 168.73 214.9 197.49 231.1 151.64 258.98 128.81 237.61"/><polygon class="cls-1" points="128.81 237.61 168.73 214.9 197.49 231.1 151.64 258.98 128.81 237.61"/><polygon class="cls-10" points="146.67 253.86 146.67 265.41 118.2 248.66 118.2 237.61 146.67 253.86"/><polygon class="cls-1" points="146.67 253.86 146.67 265.41 118.2 248.66 118.2 237.61 146.67 253.86"/><polygon class="cls-10" points="146.67 253.86 151.64 250.95 151.64 262.85 146.67 265.41 146.67 253.86"/><polygon class="cls-1" points="146.67 253.86 151.64 250.95 151.64 262.85 146.67 265.41 146.67 253.86"/><polygon class="cls-10" points="123.89 234.74 151.64 250.95 146.67 253.86 118.2 237.61 123.89 234.74"/><polygon class="cls-1" points="123.89 234.74 151.64 250.95 146.67 253.86 118.2 237.61 123.89 234.74"/><polygon class="cls-10" points="197.5 231.27 151.64 258.18 151.64 262.85 197.5 235.95 197.5 231.27"/><polygon class="cls-1" points="197.49 231.27 151.64 258.18 151.64 262.85 197.49 235.95 197.49 231.27"/><polygon class="cls-10" points="183.61 233.82 164.2 222.53 168.36 220.15 187.77 231.45 183.61 233.82"/><polygon class="cls-1" points="183.61 233.83 164.2 222.53 168.36 220.15 187.77 231.45 183.61 233.83"/><polygon class="cls-10" points="175.42 237.85 156.67 227.23 160.83 224.85 179.58 235.47 175.42 237.85"/><polygon class="cls-1" points="175.42 237.85 156.67 227.23 160.83 224.85 179.58 235.47 175.42 237.85"/><polygon class="cls-10" points="168.05 242.43 149.3 231.13 153.46 228.76 172.23 240.06 168.05 242.43"/><polygon class="cls-1" points="168.05 242.43 149.3 231.13 153.46 228.76 172.23 240.06 168.05 242.43"/><polygon class="cls-10" points="161.2 247.13 141.77 235.15 145.93 232.78 165.36 244.76 161.2 247.13"/><polygon class="cls-1" points="161.2 247.13 141.77 235.15 145.93 232.78 165.36 244.76 161.2 247.13"/><polygon class="cls-10" points="153.17 251.82 133.1 239.84 137.26 237.46 157.33 249.44 153.17 251.82"/><polygon class="cls-1" points="153.17 251.82 133.1 239.84 137.26 237.46 157.33 249.44 153.17 251.82"/><polygon class="cls-10" points="146.67 260.69 118.2 244.29 118.2 248.66 146.67 265.41 146.67 260.69"/><polygon class="cls-1" points="146.67 260.69 118.2 244.29 118.2 248.66 146.67 265.41 146.67 260.69"/><polygon class="cls-10" points="173.6 249.29 197.49 235.27 197.49 231.27 173.6 245.57 173.6 249.29"/><polygon class="cls-1" points="173.6 249.29 197.49 235.27 197.49 231.27 173.6 245.57 173.6 249.29"/><polygon class="cls-10" points="151.64 262.85 165.52 254.31 165.52 250.31 151.64 259.13 151.64 262.85"/><polygon class="cls-1" points="151.64 262.85 165.52 254.31 165.52 250.31 151.64 259.13 151.64 262.85"/><circle class="cls-5" cx="104.62" cy="211.51" r="81.5" transform="translate(-118.92 135.92) rotate(-45)"/><path class="cls-16" d="M78.74,142.21v63.1c0,10.43,16.43,18.89,36.68,18.89s36.66-8.46,36.66-18.89v-63.97"/><path class="cls-1" d="M78.74,142.21v63.1c0,10.43,16.43,18.89,36.68,18.89s36.66-8.46,36.66-18.89v-63.97"/><path class="cls-10" d="M152.08,141.33c0,10.43-16.41,18.89-36.66,18.89s-36.68-8.46-36.68-18.89,16.43-18.91,36.68-18.91,36.66,8.47,36.66,18.91Z"/><path class="cls-1" d="M152.08,141.33c0,10.43-16.41,18.89-36.66,18.89s-36.68-8.46-36.68-18.89,16.43-18.91,36.68-18.91,36.66,8.47,36.66,18.91Z"/><path class="cls-1" d="M137.17,190.96c-6.08,2.08-13.61,3.21-21.75,3.21-15.61,0-29.25-4.54-34.55-11.35"/><path class="cls-1" d="M137.17,201.56c-6.08,2.06-13.61,3.21-21.75,3.21-16.33,0-30.17-4.62-34.92-12"/><path class="cls-1" d="M137.17,211.76c-6.08,2.06-13.61,3.22-21.75,3.22-16.69,0-30.76-4.82-35.21-12.48"/><path class="cls-10" d="M111.34,137.48v2.61c0,1.5,2.14,2.69,4.8,2.69s4.8-1.21,4.8-2.69v-2.61"/><path class="cls-1" d="M111.34,137.48v2.61c0,1.5,2.14,2.69,4.8,2.69s4.8-1.21,4.8-2.69v-2.61"/><path class="cls-1" d="M137.38,152.38s0-2.51,1.6-2.51c1.77,0,1.77,2.51,1.77,2.51v70.98"/><path class="cls-1" d="M144.49,148.36s0-2.51,1.58-2.51c1.77,0,1.77,2.51,1.77,2.51v70.93"/><line class="cls-1" x1="140.75" y1="159.49" x2="147.86" y2="155.85"/><line class="cls-1" x1="140.75" y1="165.31" x2="147.86" y2="161.67"/><line class="cls-1" x1="140.75" y1="171.12" x2="147.86" y2="167.48"/><line class="cls-1" x1="140.75" y1="176.94" x2="147.86" y2="173.3"/><line class="cls-1" x1="140.75" y1="182.75" x2="147.86" y2="179.11"/><line class="cls-1" x1="140.75" y1="188.57" x2="147.86" y2="184.94"/><line class="cls-1" x1="140.75" y1="194.38" x2="147.86" y2="190.74"/><line class="cls-1" x1="140.75" y1="200.2" x2="147.86" y2="196.56"/><line class="cls-1" x1="140.75" y1="206.03" x2="147.86" y2="202.39"/><line class="cls-1" x1="140.75" y1="211.58" x2="147.86" y2="207.96"/><path class="cls-10" d="M120.95,137.48c0,1.5-2.14,2.71-4.8,2.71s-4.8-1.21-4.8-2.71,2.14-2.69,4.8-2.69,4.8,1.21,4.8,2.69Z"/><path class="cls-1" d="M120.95,137.48c0,1.5-2.14,2.71-4.8,2.71s-4.8-1.21-4.8-2.71,2.14-2.69,4.8-2.69,4.8,1.21,4.8,2.69Z"/><line class="cls-1" x1="128.29" y1="184.94" x2="128.29" y2="220.57"/><line class="cls-1" x1="108.86" y1="184.94" x2="108.86" y2="222.04"/><line class="cls-1" x1="90.41" y1="184.1" x2="90.41" y2="208.74"/><polyline class="cls-10" points="72.11 217.81 72.11 227.64 83.37 232.83 103.08 223.44 103.08 213.59"/><polyline class="cls-1" points="72.11 217.81 72.11 227.64 83.37 232.83 103.08 223.44 103.08 213.59"/><polygon class="cls-10" points="90.77 207.97 72.11 217.81 83.37 222.99 103.08 213.59 90.77 207.97"/><polygon class="cls-1" points="90.77 207.97 72.11 217.81 83.37 222.99 103.08 213.59 90.77 207.97"/><line class="cls-1" x1="83.37" y1="222.99" x2="83.37" y2="232.83"/><line class="cls-1" x1="75.77" y1="215.62" x2="87.43" y2="221.35"/><line class="cls-1" x1="79.59" y1="213.89" x2="91.27" y2="219.62"/><line class="cls-1" x1="83.37" y1="211.86" x2="95.02" y2="217.58"/><line class="cls-1" x1="87.24" y1="210.02" x2="98.89" y2="215.75"/><polyline class="cls-10" points="74.45 228.72 74.45 222.99 80.19 225.77 80.19 231.37"/><polyline class="cls-1" points="74.45 228.72 74.45 222.99 80.19 225.77 80.19 231.37"/><line class="cls-1" x1="77.32" y1="224.37" x2="77.32" y2="229.87"/><path class="cls-16" d="M5.94,228.19v9.44c0,8.31,13.04,15.02,29.15,15.02s29.13-6.71,29.13-15.02v-10.13"/><path class="cls-1" d="M5.94,228.19v9.44c0,8.31,13.04,15.02,29.15,15.02s29.13-6.71,29.13-15.02v-10.13"/><path class="cls-10" d="M64.23,227.51c0,8.29-13.04,15.02-29.13,15.02s-29.15-6.71-29.15-15.02,13.04-15.02,29.15-15.02c16.09-.02,29.13,6.73,29.13,15.02Z"/><path class="cls-1" d="M64.23,227.51c0,8.29-13.04,15.02-29.13,15.02s-29.15-6.71-29.15-15.02,13.04-15.02,29.15-15.02c16.09-.02,29.13,6.73,29.13,15.02Z"/><path class="cls-1" d="M6.67,231.27c0-8.29,12.32-15.02,28.43-15.02s28.41,6.73,28.41,15.02"/><path class="cls-10" d="M31.87,224.44v2.08c0,1.18,1.71,2.14,3.82,2.14s3.82-.96,3.82-2.14v-2.08"/><path class="cls-1" d="M31.87,224.44v2.08c0,1.18,1.71,2.14,3.82,2.14s3.82-.96,3.82-2.14v-2.08"/><path class="cls-10" d="M39.49,224.44c0,1.2-1.71,2.14-3.82,2.14s-3.82-.96-3.82-2.14,1.71-2.14,3.82-2.14,3.82,.96,3.82,2.14Z"/><path class="cls-1" d="M39.49,224.44c0,1.2-1.71,2.14-3.82,2.14s-3.82-.96-3.82-2.14,1.71-2.14,3.82-2.14,3.82,.96,3.82,2.14Z"/><polyline class="cls-1" points="35.69 228.66 51.97 239.74 51.97 250.17"/><polyline class="cls-1" points="39.49 227.26 55.59 238.18 55.59 247.73"/><line class="cls-1" x1="39.49" y1="231.27" x2="42.57" y2="229.36"/><line class="cls-1" x1="43.83" y1="234.21" x2="46.88" y2="232.28"/><line class="cls-1" x1="48.38" y1="237.3" x2="51.36" y2="235.32"/><line class="cls-1" x1="51.97" y1="243.26" x2="55.59" y2="241.62"/><line class="cls-1" x1="51.97" y1="246.73" x2="55.59" y2="244.92"/><path class="cls-16" d="M115.98,257.55v9.44c0,8.31-13.04,15.02-29.15,15.02s-29.14-6.71-29.14-15.02v-10.14"/><path class="cls-1" d="M115.98,257.55v9.44c0,8.31-13.04,15.02-29.15,15.02s-29.14-6.71-29.14-15.02v-10.14"/><path class="cls-10" d="M57.7,256.87c0,8.29,13.04,15.02,29.14,15.02s29.15-6.71,29.15-15.02-13.04-15.02-29.15-15.02c-16.09-.02-29.14,6.73-29.14,15.02Z"/><path class="cls-1" d="M57.7,256.87c0,8.29,13.04,15.02,29.14,15.02s29.15-6.71,29.15-15.02-13.04-15.02-29.15-15.02c-16.09-.02-29.14,6.73-29.14,15.02Z"/><path class="cls-1" d="M115.26,260.62c0-8.29-12.32-15.02-28.43-15.02s-28.41,6.73-28.41,15.02"/><path class="cls-10" d="M90.06,253.8v2.08c0,1.18-1.71,2.14-3.82,2.14s-3.82-.96-3.82-2.14v-2.08"/><path class="cls-1" d="M90.06,253.8v2.08c0,1.18-1.71,2.14-3.82,2.14s-3.82-.96-3.82-2.14v-2.08"/><path class="cls-10" d="M82.43,253.8c0,1.2,1.71,2.14,3.82,2.14s3.82-.96,3.82-2.14-1.71-2.14-3.82-2.14-3.82,.96-3.82,2.14Z"/><path class="cls-1" d="M82.43,253.8c0,1.2,1.71,2.14,3.82,2.14s3.82-.96,3.82-2.14-1.71-2.14-3.82-2.14-3.82,.96-3.82,2.14Z"/><polyline class="cls-1" points="86.25 258.02 69.95 269.1 69.95 279.53"/><polyline class="cls-1" points="82.43 256.62 66.36 267.55 66.36 277.09"/><line class="cls-1" x1="82.43" y1="260.62" x2="79.35" y2="258.71"/><line class="cls-1" x1="78.09" y1="263.57" x2="75.05" y2="261.64"/><line class="cls-1" x1="73.55" y1="266.66" x2="70.56" y2="264.68"/><line class="cls-1" x1="69.95" y1="272.62" x2="66.36" y2="270.97"/><line class="cls-1" x1="69.95" y1="276.09" x2="66.36" y2="274.28"/><polygon class="cls-10" points="128.27 237.61 168.19 214.9 196.95 231.1 151.1 258.98 128.27 237.61"/><polygon class="cls-1" points="128.27 237.61 168.19 214.9 196.95 231.1 151.1 258.98 128.27 237.61"/><polygon class="cls-10" points="146.13 253.86 146.13 265.41 117.66 248.66 117.66 237.61 146.13 253.86"/><polygon class="cls-1" points="146.13 253.86 146.13 265.41 117.66 248.66 117.66 237.61 146.13 253.86"/><polygon class="cls-10" points="146.13 253.86 151.1 250.95 151.1 262.85 146.13 265.41 146.13 253.86"/><polygon class="cls-1" points="146.13 253.86 151.1 250.95 151.1 262.85 146.13 265.41 146.13 253.86"/><polygon class="cls-10" points="123.35 234.74 151.1 250.95 146.13 253.86 117.66 237.61 123.35 234.74"/><polygon class="cls-1" points="123.35 234.74 151.1 250.95 146.13 253.86 117.66 237.61 123.35 234.74"/><polygon class="cls-10" points="196.95 231.27 151.1 258.18 151.1 262.85 196.95 235.95 196.95 231.27"/><polygon class="cls-1" points="196.95 231.27 151.1 258.18 151.1 262.85 196.95 235.95 196.95 231.27"/><polygon class="cls-10" points="183.07 233.82 163.66 222.53 167.82 220.15 187.23 231.45 183.07 233.82"/><polygon class="cls-1" points="183.07 233.83 163.66 222.53 167.82 220.15 187.23 231.45 183.07 233.83"/><polygon class="cls-10" points="174.88 237.85 156.13 227.23 160.29 224.85 179.04 235.47 174.88 237.85"/><polygon class="cls-1" points="174.88 237.85 156.13 227.23 160.29 224.85 179.04 235.47 174.88 237.85"/><polygon class="cls-10" points="167.51 242.43 148.76 231.13 152.92 228.76 171.69 240.06 167.51 242.43"/><polygon class="cls-1" points="167.51 242.43 148.76 231.13 152.92 228.76 171.69 240.06 167.51 242.43"/><polygon class="cls-10" points="160.66 247.13 141.23 235.15 145.39 232.78 164.82 244.76 160.66 247.13"/><polygon class="cls-1" points="160.66 247.13 141.23 235.15 145.39 232.78 164.82 244.76 160.66 247.13"/><polygon class="cls-10" points="152.63 251.82 132.56 239.84 136.72 237.46 156.79 249.44 152.63 251.82"/><polygon class="cls-1" points="152.63 251.82 132.56 239.84 136.72 237.46 156.79 249.44 152.63 251.82"/><polygon class="cls-13" points="146.13 260.69 117.66 244.29 117.66 248.66 146.13 265.41 146.13 260.69"/><polygon class="cls-1" points="146.13 260.69 117.66 244.29 117.66 248.66 146.13 265.41 146.13 260.69"/><polygon class="cls-13" points="173.06 249.29 196.95 235.27 196.95 231.27 173.06 245.57 173.06 249.29"/><polygon class="cls-1" points="173.06 249.29 196.95 235.27 196.95 231.27 173.06 245.57 173.06 249.29"/><polygon class="cls-13" points="151.1 262.85 164.98 254.31 164.98 250.31 151.1 259.13 151.1 262.85"/><polygon class="cls-1" points="151.1 262.85 164.98 254.31 164.98 250.31 151.1 259.13 151.1 262.85"/></g><g><path class="cls-12" d="M18.07,109.84c0,3.99-.26,10.08-2.04,14-.5-.4-1.69-1.05-2.33-1.26,1.64-3.68,1.78-9.01,1.78-12.74v-7.32h20.41v2.52H18.07v4.8Zm14.5,2.97c.52,3.97,1.5,7.37,3.78,9.05-.55,.45-1.28,1.35-1.64,2.02-1.57-1.31-2.54-3.23-3.23-5.61-.64,2.31-1.64,4.21-3.3,5.68-.26-.5-.88-1.16-1.4-1.64-.1,.52-.33,.86-.81,1.09-.64,.33-1.57,.33-2.87,.33-.07-.57-.36-1.38-.62-1.93,.74,.02,1.5,.02,1.74,.02,.26,0,.33-.07,.33-.31v-1.93c-1.14,.81-2.28,1.59-3.3,2.31l-.59-1.69c-.24,1.38-.69,2.73-1.47,3.78-.33-.47-1.28-1.43-1.76-1.73,1.07-1.52,1.14-3.52,1.14-5.18v-4.4h8.27v9.01c2.09-2.09,2.83-5.06,3.11-8.89h-2.81v-2.33h2.92c.05-1.57,.05-3.23,.07-5.01h2.42v1.21l1.85-.55c.57,.97,1.28,2.35,1.57,3.21l-2.04,.74c-.24-.88-.81-2.21-1.38-3.26-.02,1.28-.05,2.47-.1,3.66h3.45v2.33h-3.33Zm-13.55-.95v-6.01h7.39v6.01h-7.39Zm1.85,5.28c0,.76-.05,1.59-.14,2.47,1.05-.47,2.4-1.19,3.8-1.95v-2.95h-3.66v1l.9-.81c.88,.62,2.09,1.47,2.71,2.02l-1.31,1.31c-.52-.52-1.47-1.28-2.3-1.9v.81Zm.4-8.98h2.76v-.85h-2.76v.85Zm0,2.26h2.76v-.86h-2.76v.86Z"/><path class="cls-12" d="M45.25,105.7c-1.24,1.81-2.69,3.38-4.21,4.52-.36-.55-1.33-1.71-1.88-2.23,2.16-1.45,4.13-3.83,5.25-6.34l2.69,.78c-.19,.4-.38,.81-.59,1.19h14.43v2.09h-15.68Zm12.71,3.71c-.07,6.65,.17,11.64,1.55,11.64,.36,0,.47-1.33,.52-3.38,.52,.69,1.21,1.38,1.78,1.78-.19,3.11-.71,4.42-2.52,4.42-3.52,0-4.09-5.18-4.18-12.33h-3.85l1.55,.38c-.38,.55-.71,1.07-1.02,1.54h2.73v1.95h-5.37v.88h4.59v1.9h-4.59v.97h5.8v2.07h-5.8v2.64h-2.78v-2.64h-6.18v-2.07h6.18v-.97h-4.75v-1.9h4.75v-.88h-5.63v-1.95h2.97c-.19-.5-.45-1.07-.71-1.52l1.52-.4h-2.09v-2.14h15.54Zm-12.95-.88v-1.95h13.88v1.95h-13.88Zm3.97,4.94c.36-.59,.76-1.33,1-1.92h-4.44c.38,.62,.74,1.38,.88,1.92h2.57Z"/><path class="cls-12" d="M72.56,115.64l.57,2.57c-2.4,.97-4.97,2.04-7.06,2.85l-.95-2.88c.78-.24,1.69-.55,2.71-.88v-7.34h-2.26v-2.66h2.26v-5.3h2.66v5.3h2.07v2.66h-2.07v6.39l2.07-.71Zm8.44-7.37c1.64,1.31,4.28,2.83,6.44,3.59-.38,.69-.78,1.95-.93,2.66-1.05-.5-2.11-1.12-3.21-1.83v2.02h-7.68v-1.64c-.97,.62-1.95,1.16-2.92,1.64-.26-.57-.93-1.83-1.36-2.4,2.92-1.14,5.99-3.18,7.75-5.46l2.16,1.07-.26,.36Zm-6.18-2.21h-2.26v-2.42h2.26v-1.88h2.59v1.88h2.04v2.42h-2.04v1.95h-2.59v-1.95Zm-.76,9.82h11.31v7.96h-2.76v-.86h-5.92v.86h-2.64v-7.96Zm8.77-3.49c-1.19-.81-2.33-1.64-3.28-2.49-.9,.9-1.88,1.73-2.95,2.49h6.23Zm-6.13,5.82v2.45h5.92v-2.45h-5.92Zm5.56-12.14h-2.09v-2.45h2.09v-1.85h2.61v1.85h2.28v2.45h-2.28v1.95h-2.61v-1.95Z"/></g><g><path class="cls-12" d="M25.69,296.84c-.95,5.83-3.28,10.2-6.31,12.47-.43-.61-1.45-1.62-2.07-1.99,2.49-1.69,4.34-4.65,5.29-8.43h-4.52v-2.59h5.44l.48-.09,1.69,.63Zm10.74-.37c-1.6,1.6-3.48,3.39-5.01,4.62,1.64,2.48,3.85,4.52,6.57,5.7-.63,.56-1.49,1.64-1.92,2.4-3.05-1.62-5.34-4.26-7.02-7.48v6.2c0,1.49-.28,2.25-1.15,2.72-.84,.45-2.14,.58-3.89,.58-.11-.8-.56-2.1-.95-2.88,1.19,.04,2.33,.04,2.74,.04,.37,0,.5-.13,.5-.5v-16.87h2.74v5.27c.35,.97,.73,1.88,1.19,2.79,1.36-1.3,2.85-2.94,3.82-4.28l2.38,1.66Z"/><path class="cls-12" d="M51.31,302.7c-.35,2.05-.99,3.72-1.88,5.01,1.36,.86,3.11,1.08,5.14,1.08,.93,0,4.8,0,6.01-.04-.32,.5-.65,1.49-.76,2.1h-5.36c-2.64,0-4.75-.33-6.37-1.58-.95,.86-2.14,1.53-3.46,2.03-.22-.52-.71-1.36-1.12-1.77,1.25-.37,2.31-.97,3.22-1.77-.32-.43-.61-.95-.86-1.53-.28,.39-.61,.76-.93,1.06-.2-.24-.56-.65-.91-1.02-.35,1.84-.89,3.59-1.79,4.99-.41-.45-1.47-1.28-2.01-1.53,1.75-2.81,1.88-6.89,1.88-9.75v-5.06h6.81v-3.87h2.59v1.12h6.91v1.79h-6.91v.95h6.42l.41-.11,1.82,.43c-.39,1.36-.93,2.89-1.43,3.87l-2.14-.61c.17-.43,.39-1.02,.56-1.64h-5.81v.8l4.95-.28,.06,1.56-5.01,.28c.02,.5,.15,.71,.91,.71h4.15c.8,0,2.16-.07,2.68-.2,.07,.67,.13,1.3,.22,1.84-.5,.15-1.66,.17-2.66,.17h-4.69c-2.31,0-2.96-.73-3.03-2.38l-3.54,.2-.09-1.58,3.63-.19v-.93h-4.37v3.13c0,1.45-.06,3.24-.32,5.06,1.06-1.15,1.9-2.66,2.42-4.21l1.92,.48c-.13,.39-.28,.78-.45,1.12h1.58l.39-.04,1.23,.3Zm-4.21,1.75c.26,.71,.54,1.32,.86,1.84,.41-.63,.73-1.34,.97-2.12h-1.66l-.17,.28Zm10.05,3.61c-1.36,0-1.75-.43-1.75-1.88v-1.82h-1.27c-.07,1.45-.48,3.09-2.01,4.21-.3-.37-1.17-1.1-1.58-1.34,1.38-.99,1.58-2.23,1.58-3.26v-1.47h5.14v3.67c0,.48,.04,.52,.26,.52h.43c.24,0,.3-.26,.37-1.56,.35,.26,1.02,.5,1.49,.61-.13,1.77-.56,2.31-1.6,2.31h-1.06Z"/><path class="cls-12" d="M70.86,306.89c-2.38,.84-4.97,1.66-7.04,2.33l-.58-2.61c.76-.2,1.64-.43,2.64-.71v-5.08h-2.18v-2.35h2.18v-3.8h-2.38v-2.4h7.13v2.4h-2.31v3.8h1.94v2.35h-1.94v4.32c.71-.21,1.43-.43,2.12-.67l.43,2.42Zm12.84,1.32v2.33h-13.89v-2.33h5.96v-2.05h-4.47v-2.31h4.47v-1.86h-4.32v-10.05h11.28v10.05h-4.34v1.86h4.58v2.31h-4.58v2.05h5.32Zm-9.94-12.3h2.23v-1.79h-2.23v1.79Zm0,3.89h2.23v-1.86h-2.23v1.86Zm6.53-5.68h-2.14v1.79h2.14v-1.79Zm0,3.83h-2.14v1.86h2.14v-1.86Z"/><path class="cls-12" d="M36.22,331.84c-1.27,1.64-3.2,3.42-4.75,4.47-.54-.45-1.6-1.3-2.25-1.68,1.62-.89,3.35-2.36,4.39-3.72l2.61,.93Zm4.32-1.73v4.28c0,1.28-.26,1.92-1.21,2.33-.91,.39-2.14,.41-3.74,.41-.13-.76-.56-1.84-.93-2.51,1.1,.04,2.42,.04,2.79,.04,.37-.02,.48-.09,.48-.34v-4c-4.91,.39-5.88,.54-6.63,.82-.11-.45-.48-1.69-.76-2.31,.86-.13,1.69-.45,3-1.1,.67-.28,1.92-.91,3.41-1.79-3.46,.24-4.19,.34-4.69,.56-.13-.5-.5-1.71-.76-2.38,.58-.09,1.08-.32,1.81-.71,.58-.28,2.03-1.1,3.46-2.18-2.07,.41-4.17,.74-6.16,.99-.09-.65-.43-1.64-.71-2.18,4.97-.67,10.42-1.79,13.72-3.2l1.9,2.03c-1.79,.71-3.93,1.32-6.2,1.81l1.17,.76c-1.17,.86-2.4,1.69-3.67,2.42l3.74-.19c.8-.56,1.56-1.12,2.29-1.73l1.9,1.71c-2.29,1.73-4.8,3.22-7.3,4.45l6.09-.41c-.45-.54-.93-1.06-1.38-1.53l2.14-1.08c1.53,1.53,3.31,3.54,4.21,4.86l-2.18,1.32c-.28-.43-.65-.95-1.1-1.51l-4.69,.37Zm3.24,.52c1.66,1.1,3.8,2.77,4.84,3.95l-2.27,1.51c-.93-1.15-3-2.9-4.67-4.11l2.1-1.36Z"/><path class="cls-12" d="M54.45,331.49c-.15,1.92-.5,3.98-.95,5.27-.41-.26-1.38-.56-1.9-.69,.5-1.25,.73-3.18,.86-4.9l1.99,.32Zm3.82-1.28c-.04-.3-.11-.61-.19-.97-4.32,.75-5.03,.99-5.51,1.23-.11-.48-.5-1.64-.8-2.29,.58-.15,1.04-.61,1.69-1.43,.28-.3,.76-.89,1.32-1.71-1.6,.19-2.07,.3-2.38,.45-.13-.5-.52-1.62-.78-2.27,.41-.11,.78-.52,1.21-1.17,.45-.61,1.75-3,2.53-5.29l2.29,.99c-.8,1.84-1.88,3.78-3,5.38l1.43-.11c.58-1.02,1.19-2.16,1.66-3.24l2.12,1.32c-1.23,2.33-2.85,4.69-4.49,6.63l2.16-.35c-.2-.56-.41-1.12-.63-1.6l1.73-.67c.67,1.38,1.32,3.15,1.51,4.32l-1.86,.76Zm-1.58,.76c.26,1.43,.52,3.22,.58,4.45l-1.9,.47c-.04-1.21-.26-3.05-.48-4.45l1.79-.47Zm2.29-.63c.39,1.12,.84,2.57,1.06,3.5l-1.79,.67c-.17-.97-.61-2.46-.99-3.59l1.73-.58Zm10.42,4.15c.39,0,.45-.41,.52-2.94,.5,.39,1.51,.8,2.16,.95-.22,3.33-.8,4.26-2.42,4.26h-1.56c-1.97,0-2.4-.75-2.4-3.02v-6.44l-1.23,.15c-.17,4.62-.76,7.87-4.28,9.79-.28-.63-1.02-1.58-1.56-2.01,2.85-1.47,3.28-3.85,3.41-7.46-.82,.11-1.17,.22-1.47,.35-.13-.5-.56-1.77-.86-2.46,.52-.15,.95-.67,1.49-1.56,.26-.35,.76-1.17,1.3-2.25h-2.57v-2.4h3.67c.35-.84,.69-1.71,.97-2.59l2.79,.74c-.26,.63-.52,1.23-.8,1.86h5.08v2.4h-6.29c-.65,1.23-1.36,2.38-2.05,3.42l4.56-.43c-.35-.58-.69-1.15-.99-1.69l2.07-.93c1.1,1.66,2.4,3.87,2.92,5.36l-2.25,1.04c-.15-.5-.39-1.06-.67-1.69l-.84,.11v6.7c0,.67,.04,.76,.41,.76h.89Z"/></g></svg>