<?xml version="1.0" encoding="UTF-8"?><svg xmlns="http://www.w3.org/2000/svg" xmlns:xlink="http://www.w3.org/1999/xlink" viewBox="0 0 500 419"><defs><style>.dw{fill:url(#ai);}.dx{fill:url(#ao);}.dy{fill:url(#aq);}.e`{fill:url(#ar);}.ea{fill:url(#al);}.eb{fill:url(#aw);}.ec{fill:url(#am);}.ed{fill:url(#at);}.ee{fill:url(#ay);}.ef{fill:url(#av);}.eg{fill:url(#a);}.eh{fill:url(#bf);}.ei{fill:url(#bd);}.ej{fill:url(#ba);}.ek{fill:url(#bb);}.el{fill:url(#bi);}.em{fill:url(#bp);}.en{fill:url(#bk);}.eo{fill:url(#bt);}.ep{fill:url(#br);}.eq,.er,.es{fill:none;}.et{fill:#689d47;}.eu{fill:#ebaec1;}.ev{fill:#f4efe5;}.ew{fill:#f5e0c4;}.ex{fill:#e3e4e6;}.ey{fill:#ebd6c3;}.f`{fill:#e3ccad;}.fa{fill:#fff;}.fb{fill:#faf7eb;}.fc{fill:#ecf0f1;}.fd{fill:#eff0f2;}.fe{fill:#93602a;}.ff{fill:#939b45;}.fg{fill:#b8b4b3;}.fh{fill:#b89b76;}.fi{fill:#9cbd77;}.fj{fill:#c1c1c1;}.fk{fill:#a6865d;}.fl{fill:#a5c63b;}.fm{fill:#bc8542;}.fn{fill:#d8d9db;}.fo{fill:#bdc3c7;}.fp{fill:#aaad6d;}.fq{fill:#cac5c0;}.fr{fill:#c9c9c9;}.fs{fill:#dedede;}.ft{fill:#d9c09e;}.fu{fill:#c6c6c6;}.fv{fill:#e1dfde;}.fw{fill:#c7c3c2;}.fx{fill:#435266;}.fy{fill:#969292;}.g`{fill:#55555f;}.ga{fill:#637016;}.gb{fill:#354152;}.gc{fill:#38373e;}.gd{fill:#3c3c3b;}.ge{fill:#75adaf;}.gf{fill:#cfcfdb;}.gf,.gg{mix-blend-mode:multiply;}.gg{fill:#d3c7be;opacity:.8;}.gh{fill:url(#cu);mix-blend-mode:screen;}.gi{isolation:isolate;}.er{stroke:#fff;stroke-dasharray:0 0 1 1;stroke-width:.5px;}.er,.es{stroke-linecap:round;stroke-linejoin:round;}.es{stroke:#c1c1c1;stroke-dasharray:0 0 2 2;stroke-width:.75px;}</style><linearGradient id="ai" x1="-27.89" y1="79.29" x2="-26.01" y2="82.53" gradientTransform="translate(296)" gradientUnits="userSpaceOnUse"><stop offset="0" stop-color="#fffaf4"/><stop offset=".24" stop-color="#f0ebe6"/><stop offset=".41" stop-color="#d8d4d0"/><stop offset=".67" stop-color="#b8b4b3"/><stop offset=".82" stop-color="#aca8a8"/><stop offset=".9" stop-color="#b3afaf"/><stop offset="1" stop-color="#c7c3c2"/></linearGradient><linearGradient id="al" x1="-86.52" y1="113.14" x2="-84.64" y2="116.38" xlink:href="#ai"/><linearGradient id="am" x1="-7.91" y1="109.17" x2="-6.04" y2="112.42" xlink:href="#ai"/><linearGradient id="ao" x1="-37.05" y1="123.42" x2="-32.99" y2="130.45" xlink:href="#ai"/><linearGradient id="aq" x1="-66.54" y1="143.02" x2="-64.67" y2="146.27" xlink:href="#ai"/><linearGradient id="ar" x1="12.78" y1="113.63" x2="14.66" y2="116.88" xlink:href="#ai"/><linearGradient id="at" x1="-16.35" y1="127.88" x2="-12.3" y2="134.9" xlink:href="#ai"/><linearGradient id="av" x1="-45.85" y1="147.48" x2="-43.97" y2="150.73" xlink:href="#ai"/><linearGradient id="aw" x1="35.61" y1="137.73" x2="37.49" y2="140.98" xlink:href="#ai"/><linearGradient id="ay" x1="6.47" y1="151.98" x2="10.53" y2="159.01" xlink:href="#ai"/><linearGradient id="ba" x1="-23.02" y1="171.58" x2="-21.14" y2="174.83" xlink:href="#ai"/><linearGradient id="bb" x1="3.69" y1="108.38" x2="5.57" y2="111.63" xlink:href="#ai"/><linearGradient id="bd" x1="-25.44" y1="122.63" x2="-21.39" y2="129.66" xlink:href="#ai"/><linearGradient id="bf" x1="-54.94" y1="142.23" x2="-53.06" y2="145.48" xlink:href="#ai"/><linearGradient id="bg" x1="24.48" y1="122.44" x2="26.35" y2="125.69" xlink:href="#ai"/><linearGradient id="bi" x1="-6.5" y1="132.82" x2="1.7" y2="147.02" xlink:href="#ai"/><linearGradient id="bk" x1="-34.15" y1="156.29" x2="-32.28" y2="159.54" xlink:href="#ai"/><linearGradient id="bp" x1="-14.97" y1="97.6" x2="-13.1" y2="100.85" xlink:href="#ai"/><linearGradient id="br" x1="-44.11" y1="111.85" x2="-40.05" y2="118.88" gradientTransform="translate(296)" gradientUnits="userSpaceOnUse"><stop offset="0" stop-color="#fff8f2"/><stop offset=".24" stop-color="#f0ebe6"/><stop offset=".41" stop-color="#d8d4d0"/><stop offset=".67" stop-color="#b8b4b3"/><stop offset=".82" stop-color="#aca8a8"/><stop offset=".86" stop-color="#b4afae"/><stop offset=".92" stop-color="#c9c3bf"/><stop offset=".98" stop-color="#ede3da"/><stop offset="1" stop-color="#f7ece2"/></linearGradient><linearGradient id="bt" x1="-73.6" y1="131.45" x2="-71.73" y2="134.7" xlink:href="#ai"/><linearGradient id="cu" x1="35.73" y1="150.72" x2="42.69" y2="162.78" gradientTransform="translate(296)" gradientUnits="userSpaceOnUse"><stop offset="0" stop-color="#fde6c5"/><stop offset="1" stop-color="#574f44"/></linearGradient></defs><g class="gi"><g id="a"/><g id="b"/><g id="c"/><g id="d"/><g id="e"><g><path class="et" d="M491.97,267.94v-8.08l-1.84-.1c-2.25-4.76-6.57-9.33-13.05-13.07l-185.86-104.25c-19.76-11.41-51.67-11.41-71.28-.01L45.29,246.6c-6.4,3.72-10.66,8.19-12.86,12.93l-1.78,.02,.04,6.46h-.04l.04,11.37c-.01,.42-.01,.41,0,.84v.26h.06c.59,8.62,5.47,14.38,14.76,19.74l185.86,104.44c19.76,11.41,51.69,11.51,71.3,.12l174.66-103.89c9.72-5.65,14.58-13.7,14.62-20.17h.01v-10.78h0Z"/><path class="fi" d="M477.08,241.74l-185.86-104.22c-19.76-11.41-51.67-11.39-71.28,0L45.29,241.7c-19.61,11.39-19.52,29.88,.23,41.29l185.86,104.22c19.76,11.41,51.69,11.41,71.3,.01l174.66-104.18c19.61-11.39,19.5-29.89-.25-41.3h0Z"/><g><path class="fa" d="M263.79,378.82c-11.98,0-23.95-2.7-33.31-8.1l-147.05-82.46c-10.8-6.23-16.94-15.4-16.95-25.22-.01-9.78,6.05-18.91,16.64-25.06l138.19-82.43c18.72-10.88,47.97-10.89,66.69-.07l147.16,82.52c10.7,6.18,16.84,15.35,16.85,25.18,.01,9.78-6.05,18.91-16.63,25.06l-138.19,82.43c-9.37,5.45-21.39,8.17-33.4,8.17Zm-9.16-211.25c-8.42,0-16.82,1.81-23.05,5.44L93.4,255.44c-4.15,2.41-6.66,5.29-6.65,7.58,0,2.32,2.57,5.25,6.71,7.64l147.05,82.46c12.71,7.34,33.91,7.35,46.41,.09l138.19-82.43c4.14-2.41,6.65-5.29,6.65-7.57,0-2.32-2.56-5.24-6.67-7.63l-147.1-82.49c-6.37-3.68-14.87-5.51-23.34-5.51Z"/><g><path class="fj" d="M117.71,296.1l1.11,3.92c.11,.38,.49,.65,.88,.56,.41-.09,.66-.51,.55-.92l-.5-1.78c-.06-.2,.16-.37,.34-.27l4.12,2.3c.35,.19,.81,.11,1.02-.23,.23-.36,.1-.83-.26-1.04l-4.15-2.32c-.18-.1-.15-.37,.05-.43l1.74-.49c.38-.11,.65-.49,.56-.88-.09-.41-.52-.66-.92-.55l-3.96,1.12c-.43,.12-.68,.57-.56,1Z"/><line class="es" x1="123.3" y1="298.56" x2="189.32" y2="335.96"/></g><g><path class="fj" d="M411.17,235.18l-1.06-3.94c-.1-.38-.48-.65-.87-.57-.42,.09-.67,.5-.56,.91l.48,1.79c.05,.2-.16,.37-.34,.26l-4.08-2.36c-.35-.2-.8-.12-1.02,.21-.23,.36-.11,.83,.25,1.04l4.12,2.38c.18,.1,.15,.38-.06,.43l-1.75,.47c-.38,.1-.65,.48-.57,.87,.09,.42,.51,.67,.91,.56l3.98-1.07c.43-.12,.69-.56,.57-.99Z"/><line class="es" x1="405.62" y1="232.65" x2="353.86" y2="203.06"/></g><g><path class="fj" d="M303.59,354.75l3.96,.99c.39,.1,.81-.11,.92-.49,.12-.41-.12-.83-.52-.93l-1.79-.45c-.2-.05-.24-.32-.06-.43l4.04-2.42c.34-.21,.49-.64,.31-1-.2-.38-.67-.5-1.03-.29l-4.08,2.45c-.18,.11-.4-.06-.35-.26l.44-1.75c.1-.39-.11-.81-.49-.92-.41-.12-.83,.12-.93,.52l-1,4c-.11,.43,.16,.87,.59,.98Z"/><line class="es" x1="308.5" y1="351.13" x2="393.94" y2="300.1"/></g><g><path class="fj" d="M226.38,163.47l-3.97-.95c-.39-.09-.8,.11-.92,.5-.12,.41,.13,.83,.53,.93l1.8,.43c.2,.05,.25,.32,.07,.43l-4.02,2.46c-.34,.21-.49,.65-.3,1,.2,.37,.67,.5,1.03,.28l4.05-2.49c.18-.11,.4,.05,.35,.25l-.42,1.76c-.09,.39,.11,.8,.5,.92,.41,.12,.83-.13,.93-.53l.96-4.01c.1-.43-.16-.87-.6-.97Z"/><line class="es" x1="221.51" y1="167.14" x2="119.8" y2="229.71"/></g></g></g><g><g class="gi"><polygon class="ft" points="269.79 274.82 269.6 341.32 264.84 346.86 265.03 280.36 269.79 274.82"/><polygon class="fh" points="265.03 280.36 264.84 346.86 255.3 349.64 255.48 283.13 265.03 280.36"/><polygon class="fk" points="308.04 296.9 307.85 363.4 269.6 341.32 269.79 274.82 308.04 296.9"/><polygon class="fh" points="312.89 297.36 312.71 363.86 300.47 367.43 300.66 300.93 312.89 297.36"/><polygon class="fk" points="294.53 308.03 294.34 374.53 250.44 349.18 250.63 282.68 294.53 308.03"/><polygon class="ft" points="300.66 300.93 300.47 367.43 294.34 374.53 294.53 308.03 300.66 300.93"/><path class="ew" d="M312.89,297.36l-12.24,3.57-6.12,7.1-43.9-25.35,12.24-3.57,6.12-7.1,43.9,25.35Zm-19.16,7.86l4.77-5.53,9.54-2.78-38.25-22.08-4.76,5.54-9.54,2.78,38.25,22.08h0Z"/></g><g><g><polygon class="ft" points="235.05 357.92 267.73 339.05 267.73 365.35 235.05 384.22 235.05 357.92"/><polygon class="fk" points="235.05 357.92 190.26 332.07 190.26 358.36 235.05 384.22 235.05 357.92"/><g><polygon class="ft" points="222.93 313.2 222.93 350.98 212.79 345.14 190.25 332.09 222.93 313.2"/><polygon class="fk" points="267.71 339.07 245.17 352.09 235.03 357.96 222.93 350.98 222.93 313.2 267.71 339.07"/></g><polygon class="f`" points="245.17 352.09 235.03 357.96 222.93 350.98 212.79 345.14 222.93 339.27 245.17 352.09"/><polygon class="fx" points="246.65 359.98 256.13 354.51 256.13 357.4 246.65 362.87 246.65 359.98"/><g><path class="gb" d="M227.85,368.33l-.03-.02c-1.77-1.02-3.21-3.51-3.21-5.55v-5.81l6.44,3.72v5.81c0,2.04-1.44,2.87-3.21,1.85Z"/><path class="gb" d="M229.64,373.74l-3.6-2.08c-.78-.45-1.42-.09-1.42,.82h0l6.44,3.72h0c0-.91-.64-2.01-1.42-2.46Z"/><polygon class="gb" points="228.51 373.4 227.18 372.63 227.18 358.4 228.51 359.17 228.51 373.4"/></g><g><polygon class="gb" points="201.65 358.14 196.59 355.22 196.59 346.32 201.65 349.24 201.65 358.14"/><polygon class="gb" points="203.77 354.24 194.48 348.88 199.12 342.66 203.77 354.24"/></g><polygon class="ey" points="267.71 339.07 277.34 315.1 232.57 289.25 222.94 313.21 267.71 339.07"/><polygon class="ew" points="213.59 354.56 235.03 357.95 190.25 332.1 168.81 328.71 213.59 354.56"/></g><g><polygon class="fs" points="216.57 339.9 218.76 333.67 226.18 330.93 231.34 337.38 228.42 340.81 229.5 342.68 225.34 346.39 221.91 343.55 216.57 343.31 216.57 339.9"/><polygon class="fr" points="216.57 343.31 223.42 340.73 218.61 340.11 223.75 339.87 219.81 334.05 224.23 339.1 226.45 331.27 225.39 337.9 230.97 337.29 225.15 339.63 227.89 340.45 227.5 339.63 229.48 339.57 228.42 340.81 229.5 342.68 224.81 340.45 228.2 343.84 225.34 346.39 224.28 340.45 221.91 343.55 221.4 342.23 216.57 343.31"/><polygon class="fa" points="216.57 339.9 223.75 339.87 219.81 334.05 223.99 338.83 226.45 331.27 218.76 333.67 216.57 339.9"/><polygon class="fa" points="225.15 339.63 225.44 339.51 230.36 337.53 229.19 339.58 225.15 339.63"/><polygon class="fa" points="224.28 340.45 222.37 343.93 223.77 344.83 224.28 340.45"/></g><path class="fa" d="M228.98,345.3c2.18,.29,6.71-.41,6.57-2.66,2.41,1.05,5.04,3.9,4.9,4.56-1.9,2.78-7.73,3.11-9.38,2.43-.78-1.48-1.56-3.9-2.08-4.34Z"/><polygon class="fa" points="222.37 345.74 222.94 348.61 220.63 348.95 220.27 346.39 222.37 345.74"/></g><g><g><polygon class="fn" points="315.2 399.12 271.37 374.96 239.45 394.26 283.28 418.42 315.2 399.12"/><polygon class="ex" points="322.22 395.97 282.74 369.43 247.67 386.82 287.16 413.36 322.22 395.97"/><polygon class="fd" points="308.47 389.02 274.36 369.33 241.67 388.2 284.52 412.94 308.47 399.11 308.47 389.02"/><polygon class="g`" points="276.01 374.3 254.2 386.9 251.25 385.19 273.06 372.6 276.01 374.3"/><polygon class="g`" points="281.37 376.11 265.39 385.34 263.96 384.51 279.93 375.28 281.37 376.11"/><polygon class="g`" points="283.7 377.46 267.72 386.68 266.29 385.85 282.27 376.63 283.7 377.46"/><polygon class="g`" points="286.03 378.8 270.06 388.03 268.62 387.2 284.6 377.97 286.03 378.8"/><polygon class="g`" points="288.37 380.15 272.39 389.38 270.95 388.54 286.93 379.32 288.37 380.15"/><polygon class="g`" points="273.93 393.95 267.79 397.49 266.36 396.66 272.49 393.12 273.93 393.95"/><polygon class="g`" points="276.33 395.33 270.19 398.88 268.75 398.05 274.89 394.5 276.33 395.33"/><polygon class="g`" points="278.73 396.72 272.59 400.26 271.15 399.43 277.29 395.88 278.73 396.72"/><polygon class="g`" points="281.12 398.1 274.98 401.64 273.55 400.81 279.68 397.27 281.12 398.1"/></g><polygon class="gf" points="308.47 399.11 298.67 392.27 308.47 389.02 308.47 399.11"/><polygon class="fb" points="308.47 399.11 301.23 392.76 308.47 389.02 308.47 399.11"/></g><path class="fa" d="M278.9,384.96c2.18,.29,8.62,.54,8.47-1.7,2.41,1.05,3.2,3.75,3.05,4.41-1.9,2.78-8.51,1.89-10.16,1.21-.78-1.48-.84-3.48-1.36-3.92Z"/></g><g><g><path class="gb" d="M293.49,336.09l-.48-.68c-.21-.29-.59-.33-1-.09l-2.8,1.62c.42-.21,.82-.19,1.06,.15l.25,.36,.86,1.22-.4,.49,.61-.19,1.66-.52,.46-2.03,.18-.82-.41,.5Z"/><path class="gb" d="M290.12,337.44l.25,.36-.97,2.52-2.08-.22,.56-1.46h0c.24-.56,.62-1,1.01-1.25l.16-.1c.42-.21,.82-.19,1.06,.15Z"/></g><g><path class="gb" d="M286.25,342.88l-.48,1.23c-.21,.53-.21,1.04,0,1.33l1.4,1.99c-.19-.32-.2-.85,.04-1.46l.25-.65,.86-2.21,.4,.04-.19-.59-.5-1.59-1.56,1.33-.63,.53,.4,.05Z"/><path class="gb" d="M287.61,345.75l.25-.65,1.84-1.06-.03,2.8-1.01,.59h0c-.43,.22-.79,.16-1-.1l-.08-.12c-.19-.32-.2-.85,.04-1.46Z"/></g><g><path class="gb" d="M291.87,345.57l.95-.55c.41-.24,.79-.71,1-1.24l1.4-3.61c-.23,.53-.62,1.04-1.1,1.32l-.51,.29-1.71,.99v-.54l-.42,.78-1.16,2.11,1.1,.71,.44,.29v-.54Z"/><path class="gb" d="M293.9,341.17l-.51,.29-.9-1.28,2.1-2.58,.48,.69h0c.19,.34,.17,.85,0,1.35l-.08,.21c-.23,.53-.62,1.04-1.1,1.32Z"/></g></g><g><g><g><path class="fo" d="M93.02,167.05l-.12,76.12c-.01,3.89-2.57,7.78-7.68,10.75-10.29,5.98-27.02,5.98-37.37,0-5.21-3.01-7.81-6.96-7.8-10.9l.12-76.1c0,3.93,2.6,7.87,7.8,10.87,3.74,2.16,8.3,3.53,13.09,4.14,.27,.03,.54,.06,.81,.09,8.27,.88,17.11-.53,23.48-4.23,5.11-2.97,7.67-6.86,7.68-10.75Z"/><g class="gi"><g class="gi"><path class="fc" d="M61.52,182.14l-.12,76.12c-4.96-.57-9.7-1.97-13.55-4.19-5.21-3.01-7.81-6.96-7.8-10.9l.12-76.12c-.01,3.94,2.59,7.89,7.8,10.9,3.85,2.23,8.59,3.62,13.55,4.19h0Z"/></g><path class="fa" d="M85.21,156.3c10.35,5.98,10.41,15.67,.12,21.65-10.29,5.98-27.02,5.98-37.37,0-10.35-5.98-10.41-15.67-.12-21.65,10.29-5.98,27.02-5.98,37.37,0Z"/><path class="gc" d="M72.29,163.82c3.17,1.83,3.18,4.79,.04,6.62-3.15,1.83-8.27,1.83-11.43,0-3.17-1.83-3.18-4.79-.04-6.62,3.15-1.83,8.27-1.83,11.43,0Z"/></g></g><path class="fc" d="M61.52,182.14v76.15c8.7,1.92,30.33,4.54,42.35,7.11v-76.07c-14.69,3.01-37.28-.84-42.35-7.19Z"/><g><path class="eu" d="M61.45,269.87c-.23,0-.41-.19-.41-.41v-1.07c0-.23,.19-.41,.41-.41s.41,.19,.41,.41v1.07c0,.23-.19,.41-.41,.41Z"/><path class="fv" d="M61.05,182.09v1.78c0,.22,.18,.4,.4,.4s.4-.18,.4-.4v-1.69c-.27-.03-.54-.06-.81-.09Zm.4,3.55c-.22,0-.4,.18-.4,.4v2.17c0,.22,.18,.4,.4,.4s.4-.18,.4-.4v-2.17c0-.22-.18-.4-.4-.4Zm0,4.34c-.22,0-.4,.18-.4,.4v2.17c0,.22,.18,.4,.4,.4s.4-.18,.4-.4v-2.17c0-.22-.18-.4-.4-.4Zm0,4.34c-.22,0-.4,.18-.4,.4v2.17c0,.22,.18,.4,.4,.4s.4-.18,.4-.4v-2.17c0-.22-.18-.4-.4-.4Zm0,4.34c-.22,0-.4,.18-.4,.4v2.17c0,.22,.18,.4,.4,.4s.4-.18,.4-.4v-2.17c0-.22-.18-.4-.4-.4Zm0,4.34c-.22,0-.4,.18-.4,.4v2.17c0,.22,.18,.4,.4,.4s.4-.18,.4-.4v-2.17c0-.22-.18-.4-.4-.4Zm0,4.34c-.22,0-.4,.18-.4,.4v2.17c0,.22,.18,.4,.4,.4s.4-.18,.4-.4v-2.17c0-.22-.18-.4-.4-.4Zm0,4.34c-.22,0-.43-.81-.43-.59l.03,3.16c0,.22,.18,.4,.4,.4s.4-.18,.4-.4v-2.17c0-.22-.18-.4-.4-.4Zm0,4.34c-.22,0-.4,.18-.4,.4v2.17c0,.22,.18,.4,.4,.4s.4-.18,.4-.4v-2.17c0-.22-.18-.4-.4-.4Zm0,4.34c-.22,0-.4,.18-.4,.4v2.17c0,.22,.18,.4,.4,.4s.4-.18,.4-.4v-2.17c0-.22-.18-.4-.4-.4Zm0,4.34c-.22,0-.4,.18-.4,.4v2.17c0,.22,.18,.4,.4,.4s.4-.18,.4-.4v-2.17c0-.22-.18-.4-.4-.4Zm0,4.34c-.22,0-.4,.18-.4,.4v2.17c0,.22,.18,.4,.4,.4s.4-.18,.4-.4v-2.17c0-.22-.18-.4-.4-.4Zm0,4.34c-.22,0-.4,.18-.4,.4v2.17c0,.22,.18,.4,.4,.4s.4-.18,.4-.4v-2.17c0-.22-.18-.4-.4-.4Zm0,4.34c-.22,0-.4,.18-.4,.4v2.17c0,.22,.18,.4,.4,.4s.4-.18,.4-.4v-2.17c0-.22-.18-.4-.4-.4Zm0,4.34c-.22,0-.4,.18-.4,.4v2.17c0,.22,.18,.4,.4,.4s.4-.18,.4-.4v-2.17c0-.22-.18-.4-.4-.4Zm0,4.34c-.22,0-.4,.18-.4,.4v2.17c0,.22,.18,.4,.4,.4s.4-.18,.4-.4v-2.17c0-.22-.18-.4-.4-.4Zm0,4.34c-.22,0-.4,.18-.4,.4v2.17c0,.22,.18,.4,.4,.4s.4-.18,.4-.4v-2.17c0-.22-.18-.4-.4-.4Zm0,4.34c-.22,0-.4,.18-.4,.4v2.17c0,.22,.18,.4,.4,.4s.4-.18,.4-.4v-2.17c0-.22-.18-.4-.4-.4Zm0,4.34c-.22,0-.4,.18-.4,.4v2.17c0,.22,.18,.4,.4,.4s.4-.18,.4-.4v-2.17c0-.22-.18-.4-.4-.4Zm0,4.34c-.22,0-.4,.18-.4,.4v2.17c0,.22,.18,.4,.4,.4s.4-.18,.4-.4v-2.17c0-.22-.18-.4-.4-.4Z"/></g></g><g><path class="fo" d="M85.72,225.68l.11,39.96c.01,3.73,2.46,7.45,7.35,10.29,6.05,3.51,14.42,4.87,22.28,4.07,.27-.03,.54-.06,.81-.09,4.65-.56,9.07-1.89,12.68-3.98,4.99-2.88,7.48-6.66,7.47-10.43l-.11-39.94c0,3.76-2.49,7.53-7.47,10.41-3.58,2.07-7.97,3.39-12.57,3.96-.27,.03-.53,.06-.81,.09-7.89,.83-16.32-.52-22.4-4.05-4.89-2.84-7.34-6.56-7.35-10.29Z"/><g class="gi"><g class="gi"><path class="fc" d="M115.87,239.98l.11,39.96c4.75-.54,9.29-1.88,12.97-4.01,4.99-2.88,7.48-6.66,7.47-10.43l-.11-39.96c.01,3.77-2.48,7.55-7.47,10.43-3.69,2.13-8.23,3.47-12.97,4.01h0Z"/></g><path class="fa" d="M93.18,215.24c-9.91,5.72-9.96,15-.12,20.72,9.85,5.72,25.86,5.72,35.77,0,9.91-5.72,9.96-15,.12-20.72-9.85-5.72-25.86-5.72-35.77,0Z"/><path class="gc" d="M105.56,222.44c-3.03,1.75-3.05,4.59-.04,6.34,3.01,1.75,7.91,1.75,10.94,0,3.03-1.75,3.05-4.59,.04-6.34-3.01-1.75-7.91-1.75-10.95,0Z"/></g><path class="fc" d="M75.06,242.15l.11,39.96c24.39,7.67,38.41,.86,40.81-2.17l-.11-39.96c-5.88,5.73-21.53,11.33-40.81,2.17Z"/><path class="fv" d="M115.47,240.02v1.06c0,.22,.18,.4,.4,.4s.4-.18,.4-.4v-1.15c-.27,.03-.53,.06-.81,.09Zm0,3.25v2.2c0,.22,.18,.4,.4,.4s.4-.18,.4-.4v-2.2c0-.22-.18-.4-.4-.4s-.4,.18-.4,.4Zm0,4.4v2.2c0,.22,.18,.4,.4,.4s.4-.18,.4-.4v-2.2c0-.22-.18-.4-.4-.4s-.4,.18-.4,.4Zm0,4.39v2.2c0,.22,.18,.4,.4,.4s.4-.18,.4-.4v-2.2c0-.22-.18-.4-.4-.4s-.4,.18-.4,.4Zm0,4.4v2.2c0,.22,.18,.4,.4,.4s.4-.18,.4-.4v-2.2c0-.22-.18-.4-.4-.4s-.4,.18-.4,.4Zm0,4.39v2.2c0,.22,.18,.4,.4,.4s.4-.18,.4-.4v-2.2c0-.22-.18-.4-.4-.4s-.4,.18-.4,.4Zm0,4.39v2.2c0,.22,.18,.4,.4,.4s.4-.18,.4-.4v-2.2c0-.22-.18-.4-.4-.4s-.4,.18-.4,.4Zm0,4.4v2.2c0,.22,.18,.4,.4,.4s.4-.18,.4-.4v-2.2c0-.22-.18-.4-.4-.4s-.4,.18-.4,.4Zm0,4.39v2.2c0,.22,.18,.4,.4,.4s.4-.18,.4-.4v-2.2c0-.22-.18-.4-.4-.4s-.4,.18-.4,.4Zm0,4.4v1.57c.27-.03,.54-.06,.81-.09v-1.48c0-.22-.18-.4-.4-.4s-.4,.18-.4,.4Z"/></g><g><g><g class="gi"><polygon class="fu" points="90.68 262.61 90.62 282.77 90.61 285.6 90.6 287.95 57.44 307.22 57.45 304.75 57.46 301.92 57.51 281.88 90.68 262.61"/><polygon class="fc" points="57.51 281.88 57.46 301.92 57.45 304.74 57.44 307.22 6.55 277.84 6.56 275.36 6.57 272.54 6.62 252.5 57.51 281.88"/><polygon class="ff" points="90.68 262.61 57.51 281.88 54.91 280.38 53.21 279.39 10.84 254.93 9.13 253.95 6.62 252.5 39.79 233.23 42.4 234.74 44.11 235.72 86.48 260.18 88.18 261.17 90.68 262.61"/><polygon class="fc" points="44.11 235.72 10.84 254.93 9.13 253.95 42.4 234.74 44.11 235.72"/><polygon class="fc" points="88.18 261.17 54.91 280.38 53.21 279.39 86.48 260.18 88.18 261.17"/></g><path class="fc" d="M60.16,271.28c-6.15,0-14.54-2.64-21.91-6.89-7.93-4.58-12.66-9.88-12.66-14.2,0-2.13,1.07-3.92,3.01-5.04,1.52-.88,3.56-1.33,6.04-1.33,6.15,0,14.54,2.64,21.91,6.89,7.93,4.58,12.66,9.88,12.66,14.2,0,2.13-1.07,3.92-3.01,5.04-1.52,.88-3.56,1.32-6.04,1.32h0Z"/><path class="fa" d="M71.25,251.19c-.61-.4-1.35-.52-2.05-.71-4.33-1.2-7.24-5.19-11.25-6.7-3.51-1.32-8.34-.71-11.05-3.71-2.35-2.6-.63-2.49-5.39-4.33-1.74-.67-3.28-1.79-5.01-2.49-10.49-4.25-9.32,16.79-7.31,19.78,5.01,8.74,28.07,19.14,36.16,14.29,5.2-3.06,5.99-7.18,6.96-10.68,.53-1.91,.62-4.36-1.05-5.44Z"/><path class="ev" d="M41.9,238.97c.57-.76,.97-1.67,1.16-2.61-.43-.18-.94-.39-1.56-.63-1.74-.67-3.28-1.79-5.01-2.49-.17-.07-.35-.13-.51-.19,.41,1.15,.45,2.43,.02,3.5-2.69,6.44-6.71,15.04,1.07,20.14,.54,.27,.54-3.49,0-4.3-2.15-5.1,2.15-9.4,4.83-13.43Z"/><path class="ev" d="M71.25,251.19c-.61-.4-1.35-.52-2.05-.71-2.88-.8-5.13-2.83-7.5-4.55-.18,1.32,.07,2.78-.73,4.05-.81,1.34-2.42,2.15-4.03,1.34-.81-.27-1.61-.81-2.42-.27-1.07,.81-1.34,2.69-.27,3.76,1.07,.54,2.15,.81,2.69,1.88,.27,.81-.54,1.34-.81,1.34-2.15,.54-4.56-1.34-5.91,0-2.15,2.42-4.56,1.61-7.25,2.15-.81,.27-1.61,.54-1.88,1.07-.21,.43-.38,.89-.5,1.36,8.71,4.79,19.67,7.74,24.75,4.7,5.2-3.06,5.99-7.18,6.96-10.68,.53-1.91,.62-4.36-1.05-5.44Z"/></g><path class="fp" d="M40.22,282.77c0,3.7-3.67,4.57-8.21,1.96-4.53-2.62-8.21-7.74-8.21-11.43,0-3.7,3.67-4.57,8.21-1.96,4.53,2.62,8.21,7.74,8.21,11.43Z"/><polygon class="fc" points="57.46 301.92 57.45 304.74 6.56 275.36 6.57 272.54 57.46 301.92"/><polygon class="fu" points="90.62 282.77 90.61 285.6 57.45 304.75 57.46 301.92 90.62 282.77"/></g></g><g><g><path class="fc" d="M445.64,210.92l-10.61,.07-18.22,.11-4.74,.03-4.76,.03v56.58c0,3.15,1.76,6.07,4.76,8.49,1.34,1.08,2.94,2.06,4.74,2.92,4.87,2.32,11.24,3.74,18.22,3.74,3.76,0,7.34-.41,10.61-1.15,10.04-2.28,17.11-7.68,17.11-13.99v-56.93l-17.11,.11Z"/><path class="fc" d="M462.75,267.74v-56.93l-17.11,.11v70.81c10.04-2.28,17.11-7.68,17.11-13.99Z"/><path class="fc" d="M407.31,211.16v56.58c0,3.15,1.76,6.07,4.76,8.49v-65.1l-4.76,.03Z"/><path class="fc" d="M416.81,211.1v68.04c4.87,2.32,11.24,3.74,18.22,3.74v-71.9l-18.22,.11Z"/></g><path class="fp" d="M439.82,188.23h-9.58c-12.61,0-22.93,10.32-22.93,22.93,0,8.36,12.41,15.14,27.72,15.14s27.72-6.78,27.72-15.14c0-12.61-10.32-22.93-22.93-22.93Z"/><path class="ff" d="M454.73,197.91h-.1c-1-5.44-9.39-9.68-19.61-9.68s-18.61,4.24-19.61,9.68h-.1v.95h0s0,.09,0,.14c0,5.94,8.82,10.76,19.71,10.76s19.71-4.82,19.71-10.76c0-.05,0-.09,0-.14h0v-.95Z"/><ellipse class="gd" cx="435.03" cy="197.91" rx="19.71" ry="10.76"/><path class="fa" d="M462.71,223.47v2.69c.02,.26,.04,.51,.04,.77,0,8.36-12.41,15.14-27.72,15.14s-27.72-6.78-27.72-15.14c0-.14,.02-.27,.03-.41v-2.8c-.73,1.38-1.12,2.84-1.12,4.35,0,8.71,12.93,15.77,28.88,15.77s28.88-7.06,28.88-15.77c0-1.6-.44-3.15-1.26-4.61Z"/><path class="fa" d="M462.71,247.38v2.69c.02,.26,.04,.51,.04,.77,0,8.36-12.41,15.14-27.72,15.14s-27.72-6.78-27.72-15.14c0-.14,.02-.27,.03-.41v-2.8c-.73,1.38-1.12,2.84-1.12,4.35,0,8.71,12.93,15.77,28.88,15.77s28.88-7.06,28.88-15.77c0-1.6-.44-3.15-1.26-4.61Z"/></g><g><g><g id="f"><g id="g"><polygon id="h" class="fo" points="283.02 209.15 162.17 139.38 162.17 147.57 283.02 217.34 283.02 209.15"/><polygon id="i" class="fo" points="350.89 178.16 283.02 217.34 283.02 209.15 350.89 169.97 350.89 178.16"/><polygon id="j" class="ff" points="283.02 209.15 162.17 139.38 230.04 100.2 350.89 169.97 283.02 209.15"/><polygon class="fp" points="245.28 182.53 308.94 147.25 348.37 169.1 284.71 204.39 245.28 182.53"/></g><g id="k"><polygon id="l" class="ff" points="183.81 81.45 162.17 68.95 162.17 139.38 183.81 151.88 183.81 81.45"/><polygon class="ff" points="166.52 136.87 166.52 107.41 179.46 114.88 179.46 144.34 166.52 136.87"/><polygon id="m" class="fo" points="251.51 112.79 183.81 151.88 183.81 81.45 251.51 42.36 251.51 112.79"/><polygon class="fw" points="186.15 82.98 249.18 46.59 249.18 50.12 186.15 86.51 186.15 82.98"/><polygon id="n" class="fp" points="183.81 81.45 162.17 68.95 229.87 29.87 251.51 42.36 183.81 81.45"/></g><g><g id="o"><polygon id="p" class="ga" points="274.14 76.79 269.01 73.82 269.01 125.37 274.14 128.34 274.14 76.79"/><polygon id="q" class="fo" points="276.42 127.02 274.14 128.34 274.14 76.79 276.42 75.47 276.42 127.02"/><polygon id="r" class="ff" points="274.14 76.79 269.01 73.82 271.28 72.51 276.42 75.47 274.14 76.79"/></g><g id="s"><polygon id="t" class="ga" points="314.84 111.82 281.57 92.61 281.57 132.63 314.84 151.83 314.84 111.82"/><polygon id="u" class="fo" points="317.12 150.52 314.84 151.83 314.84 111.82 317.12 110.5 317.12 150.52"/><polygon id="v" class="ff" points="314.84 111.82 281.57 92.61 283.85 91.3 317.12 110.5 314.84 111.82"/></g><g id="w"><polygon id="x" class="ga" points="326.27 120.75 321.14 117.78 321.14 155.47 326.27 158.44 326.27 120.75"/><polygon id="y" class="fo" points="328.55 157.12 326.27 158.44 326.27 120.75 328.55 119.43 328.55 157.12"/><polygon id="a`" class="ff" points="326.27 120.75 321.14 117.78 323.42 116.47 328.55 119.43 326.27 120.75"/></g><g id="aa"><polygon id="ab" class="ga" points="337.34 135.89 332.2 132.92 332.2 161.86 337.34 164.82 337.34 135.89"/><polygon id="ac" class="fo" points="339.61 163.51 337.34 164.82 337.34 135.89 339.61 134.57 339.61 163.51"/><polygon id="ad" class="ff" points="337.34 135.89 332.2 132.92 334.48 131.61 339.61 134.57 337.34 135.89"/></g></g><g id="ae"><polygon id="af" class="fc" points="250.72 166.69 186.13 129.4 186.13 150.61 250.72 187.91 250.72 166.69"/><polygon id="ag" class="gd" points="314.01 151.36 250.72 187.91 250.72 166.69 314.01 130.15 314.01 151.36"/><polygon id="ah" class="ff" points="249.6 164.56 184.26 128.34 248.28 92.85 313.62 129.07 249.6 164.56"/></g><g><path class="dw" d="M271.14,78.17c-.37-.21-.71-.23-.95-.09l-5.11,2.95,1.89,3.24,5.11-2.95c.23-.14,.38-.44,.38-.85,0-.85-.59-1.87-1.33-2.3Z"/><g id="aj"><path class="fg" d="M265.42,76.1c-1.62-.94-3.09-1.01-4.14-.38l-52.43,30.27,8.27,14.16,52.43-30.27c1.03-.61,1.66-1.9,1.66-3.73,0-3.7-2.6-8.19-5.8-10.04Z"/><path id="ak" class="fy" d="M218.79,116.41c0,3.7-2.6,5.2-5.8,3.35-3.2-1.85-5.8-6.34-5.8-10.04s2.6-5.2,5.8-3.35c3.2,1.85,5.8,6.34,5.8,10.04Z"/></g><path class="ea" d="M212.51,112.02c-.37-.21-.71-.23-.95-.09l-5.11,2.95,1.89,3.24,5.11-2.95c.23-.14,.38-.44,.38-.85,0-.85-.59-1.87-1.33-2.3Z"/></g><g><path class="ec" d="M291.12,108.06c-.37-.21-.71-.23-.95-.09l-5.11,2.95,1.89,3.24,5.11-2.95c.23-.14,.38-.44,.38-.85,0-.85-.59-1.87-1.33-2.3Z"/><g id="an"><path class="dx" d="M287.24,108.46c-.8-.46-1.53-.5-2.05-.19l-54.54,31.49,4.1,7.01,54.54-31.49c.51-.3,.82-.94,.82-1.85,0-1.83-1.28-4.06-2.87-4.97Z"/><path id="ap" class="fy" d="M235.58,144.92c0,1.83-1.28,2.57-2.87,1.66-1.58-.92-2.87-3.14-2.87-4.97s1.28-2.57,2.87-1.66c1.58,.92,2.87,3.14,2.87,4.97Z"/></g><path class="dy" d="M232.49,141.91c-.37-.21-.71-.23-.95-.09l-5.11,2.95,1.89,3.24,5.11-2.95c.23-.14,.38-.44,.38-.85,0-.85-.59-1.87-1.33-2.3Z"/></g><g><path class="e`" d="M311.81,112.51c-.37-.21-.71-.23-.95-.09l-5.11,2.95,1.89,3.24,5.11-2.95c.23-.14,.38-.44,.38-.85,0-.85-.59-1.87-1.33-2.3Z"/><g id="as"><path class="ed" d="M307.94,112.91c-.8-.46-1.53-.5-2.05-.19l-54.54,31.49,4.1,7.01,54.54-31.49c.51-.3,.82-.94,.82-1.85,0-1.83-1.28-4.06-2.87-4.97Z"/><path class="fc" d="M307.94,112.91c-.77-.45-1.47-.49-1.98-.22,.07-.05-5.17,1.81-5.17,1.81l-36.49,16.93-18.77,14.78,5.86-2.03c3.11-1.02,6.67,5.68,10.28,13.06,0,0,59.84-28.62,59.72-29.02-6.04-9.49-12.68-14.88-13.45-15.32Z"/><path id="au" class="fy" d="M256.27,149.37c0,1.83-1.28,2.57-2.87,1.66-1.58-.92-2.87-3.14-2.87-4.97s1.28-2.57,2.87-1.66c1.58,.92,2.87,3.14,2.87,4.97Z"/></g><path class="ef" d="M253.18,146.36c-.37-.21-.71-.23-.95-.09l-5.11,2.95,1.89,3.24,5.11-2.95c.23-.14,.38-.44,.38-.85,0-.85-.59-1.87-1.33-2.3Z"/></g><g><path class="eb" d="M334.64,136.62c-.37-.21-.71-.23-.95-.09l-5.11,2.95,1.89,3.24,5.11-2.95c.23-.14,.38-.44,.38-.85,0-.85-.59-1.87-1.33-2.3Z"/><g id="ax"><path class="ee" d="M330.77,137.02c-.8-.46-1.53-.5-2.05-.19l-54.54,31.49,4.1,7.01,54.54-31.49c.51-.3,.82-.94,.82-1.85,0-1.83-1.28-4.06-2.87-4.97Z"/><path id="b`" class="fy" d="M279.1,173.48c0,1.83-1.28,2.57-2.87,1.66s-2.87-3.14-2.87-4.97,1.28-2.57,2.87-1.66,2.87,3.14,2.87,4.97Z"/></g><path class="ej" d="M276.01,170.47c-.37-.21-.71-.23-.95-.09l-5.11,2.95,1.89,3.24,5.11-2.95c.23-.14,.38-.44,.38-.85,0-.85-.59-1.87-1.33-2.3Z"/></g><path class="fc" d="M357.9,160.52s-23.56-21.26-24.66-22.09c-1.32-1-2.78-1.77-4.34-2.31l-8.68-4.52-54.5,31.47,8.68,4.52c1.56,.54,3.03,1.31,4.34,2.31,1.1,.83,24.66,22.09,24.66,22.09l54.5-31.47Z"/><path class="fc" d="M287.9,109.01l-7.13-5.44-53.56,30.92,7.13,5.44s1.69,.97,1.93,3.26l4.24,1.6,33.35-19.26,15.97-13.26c-.24-2.3-1.93-3.26-1.93-3.26Z"/><g><path class="ek" d="M302.72,107.26c-.37-.21-.71-.23-.95-.09l-5.11,2.95,1.89,3.24,5.11-2.95c.23-.14,.38-.44,.38-.85,0-.85-.59-1.87-1.33-2.3Z"/><g id="bc"><path class="ei" d="M298.85,107.66c-.8-.46-1.53-.5-2.05-.19l-54.54,31.49,4.1,7.01,54.54-31.49c.51-.3,.82-.94,.82-1.85,0-1.83-1.28-4.06-2.87-4.97Z"/><path id="be" class="fy" d="M247.18,144.12c0,1.83-1.28,2.57-2.87,1.66-1.58-.92-2.87-3.14-2.87-4.97s1.28-2.57,2.87-1.66c1.58,.91,2.87,3.14,2.87,4.97Z"/></g><path class="eh" d="M244.09,141.11c-.37-.21-.71-.23-.95-.09l-5.11,2.95,1.89,3.24,5.11-2.95c.23-.14,.38-.44,.38-.85,0-.85-.59-1.87-1.33-2.3Z"/></g><g><path class="eg" d="M323.51,121.33c-.37-.21-.71-.23-.95-.09l-5.11,2.95,1.89,3.24,5.11-2.95c.23-.14,.38-.44,.38-.85,0-.85-.59-1.87-1.33-2.3Z"/><g id="bh"><path class="el" d="M317.78,119.26c-1.62-.94-3.09-1.01-4.14-.38l-52.43,30.27,8.27,14.16,52.43-30.27c1.03-.61,1.66-1.9,1.66-3.73,0-3.7-2.6-8.19-5.8-10.04Z"/><path id="bj" class="fy" d="M271.15,159.57c0,3.7-2.6,5.2-5.8,3.35-3.2-1.85-5.8-6.34-5.8-10.04s2.6-5.2,5.8-3.35c3.2,1.85,5.8,6.34,5.8,10.04Z"/></g><path class="en" d="M264.88,155.18c-.37-.21-.71-.23-.95-.09l-5.11,2.95,1.89,3.24,5.11-2.95c.23-.14,.38-.44,.38-.85,0-.85-.59-1.87-1.33-2.3Z"/></g><g id="bl"><polygon id="bm" class="ga" points="193.54 93.51 190.29 91.64 190.29 85.57 193.54 87.44 193.54 93.51"/><polygon id="bn" class="fo" points="249 61.49 193.54 93.51 193.54 87.44 249 55.42 249 61.49"/><polygon class="ga" points="194.81 88.18 247.73 57.62 247.73 60.76 194.81 91.31 194.81 88.18"/><polygon id="bo" class="ff" points="193.54 87.44 190.29 85.57 245.75 53.54 249 55.42 193.54 87.44"/></g><path class="fc" d="M270.23,81.37c-.79-1.72-1.96-3.22-3.42-4.42-5.56-4.56-19.87-16.27-22.1-17.56l-49.97,28.85v2.76l18.8,15.52c2.7,2.23,4.65,5.24,5.56,8.63l6.01,16.1,54.15-28.73c-2.66-7.19-6.94-16.64-9.03-21.15Z"/><g><path class="em" d="M284.06,96.49c-.37-.21-.71-.23-.95-.09l-5.11,2.95,1.89,3.24,5.11-2.95c.23-.14,.38-.44,.38-.85,0-.85-.59-1.87-1.33-2.3Z"/><g id="bq"><path class="ep" d="M280.18,96.89c-.8-.46-1.53-.5-2.05-.19l-54.54,31.49,4.1,7.01,54.54-31.49c.51-.3,.82-.94,.82-1.85,0-1.83-1.28-4.06-2.87-4.97Z"/><path id="bs" class="fy" d="M228.51,133.34c0,1.83-1.28,2.57-2.87,1.66-1.58-.92-2.87-3.14-2.87-4.97s1.28-2.57,2.87-1.66c1.58,.92,2.87,3.14,2.87,4.97Z"/></g><path class="eo" d="M225.43,130.34c-.37-.21-.71-.23-.95-.09l-5.11,2.95,1.89,3.24,5.11-2.95c.23-.14,.38-.44,.38-.85,0-.85-.59-1.87-1.33-2.3Z"/></g><g><g id="bu"><polygon id="bv" class="ff" points="208.58 114.64 203.44 111.68 203.44 163.23 208.58 166.19 208.58 114.64"/><polygon id="bw" class="fo" points="210.86 164.88 208.58 166.19 208.58 114.64 210.86 113.33 210.86 164.88"/><polygon id="bx" class="ff" points="208.58 114.64 203.44 111.68 205.72 110.36 210.86 113.33 208.58 114.64"/></g><g id="by"><polygon id="c`" class="ff" points="249.27 149.67 216.01 130.47 216.01 170.48 249.27 189.69 249.27 149.67"/><polygon class="fc" points="220.36 167.97 220.36 138.01 244.92 152.19 244.92 182.15 220.36 167.97"/><polygon id="ca" class="fo" points="251.55 188.37 249.27 189.69 249.27 149.67 251.55 148.36 251.55 188.37"/><polygon id="cb" class="ff" points="249.27 149.67 216.01 130.47 218.29 129.15 251.55 148.36 249.27 149.67"/></g><g id="cc"><polygon id="cd" class="ga" points="260.71 158.6 255.57 155.64 255.57 193.33 260.71 196.29 260.71 158.6"/><polygon id="ce" class="fo" points="262.99 194.97 260.71 196.29 260.71 158.6 262.99 157.29 262.99 194.97"/><polygon id="cf" class="ff" points="260.71 158.6 255.57 155.64 257.85 154.32 262.99 157.29 260.71 158.6"/></g><g id="cg"><polygon id="ch" class="ga" points="271.77 173.74 266.64 170.77 266.64 199.71 271.77 202.68 271.77 173.74"/><polygon id="ci" class="fo" points="274.05 201.36 271.77 202.68 271.77 173.74 274.05 172.42 274.05 201.36"/><polygon id="cj" class="ff" points="271.77 173.74 266.64 170.77 268.91 169.46 274.05 172.42 271.77 173.74"/></g></g><path class="gg" d="M194.74,88.24v1.41l50.11-28.94h1.86c-.93-.65-1.63-1.12-2-1.33l-49.97,28.85Z"/></g><g id="ck"><g><g><g id="cl"><polygon id="cm" class="ga" points="322.36 231.67 304.45 221.32 304.45 226.82 322.36 237.16 322.36 231.67"/><polygon id="cn" class="fo" points="376.92 205.66 322.36 237.16 322.36 231.67 376.92 200.17 376.92 205.66"/><polygon id="co" class="ff" points="322.36 231.67 304.45 221.32 359 189.82 376.92 200.17 322.36 231.67"/></g><g id="cp"><polygon id="cq" class="ga" points="364.98 150.29 359.35 147.04 359.35 191.82 364.98 195.07 364.98 150.29"/><polygon id="cr" class="fo" points="366.51 194.19 364.98 195.07 364.98 150.29 366.51 149.4 366.51 194.19"/><polygon id="cs" class="ff" points="364.98 150.29 359.35 147.04 360.88 146.15 366.51 149.4 364.98 150.29"/></g><g id="ct"><path class="fc" d="M299.83,162.07l47.08-27.18c2.76-1.54,6.55-1.28,10.72,1.13,8.45,4.88,15.3,16.75,15.3,26.51,0,4.94-1.75,8.39-4.58,9.96l-47.08,27.18-21.44-37.6Z"/><path class="gh" d="M309.76,179.48l57.86-33.41c-2.68-4.22-6.16-7.86-9.98-10.06-.08-.04-.15-.08-.23-.12l-54.54,31.49,6.9,12.09Z"/><path id="cv" class="fq" d="M325.86,189.71c0-9.76-6.85-21.63-15.3-26.51-3.74-2.16-7.17-2.59-9.83-1.55-3.35,1.31-5.48,4.95-5.48,10.39,0,9.76,6.85,21.63,15.3,26.51,4.52,2.61,8.58,2.69,11.38,.71,2.44-1.72,3.92-5.01,3.92-9.55Z"/><path id="cw" class="fm" d="M313.65,182.66c0-1.97-1.39-4.37-3.1-5.36-1.71-.99-3.1-.19-3.1,1.79s1.39,4.37,3.1,5.36c1.71,.99,3.1,.19,3.1-1.79Z"/><path id="cx" class="fe" d="M312.6,182.05c0-1.3-.92-2.89-2.04-3.54-1.13-.65-2.04-.12-2.04,1.18,0,1.3,.92,2.89,2.04,3.54,1.13,.65,2.04,.12,2.04-1.18Z"/></g><g id="cy"><polygon id="d`" class="ga" points="311.97 180.89 306.34 177.64 306.34 222.43 311.97 225.68 311.97 180.89"/><polygon id="da" class="fo" points="313.5 224.79 311.97 225.68 311.97 180.89 313.5 180.01 313.5 224.79"/><polygon id="db" class="ff" points="311.97 180.89 306.34 177.64 307.87 176.76 313.5 180.01 311.97 180.89"/></g><g id="dc"><polygon id="dd" class="fo" points="322.37 231.67 337.59 222.88 337.59 220.01 322.37 228.8 322.37 231.67"/><polygon id="de" class="ga" points="311.97 225.67 322.37 231.67 322.37 228.8 311.97 222.8 311.97 225.67"/><polygon id="df" class="fp" points="322.37 228.8 337.59 220.01 327.2 214.01 311.97 222.8 322.37 228.8"/></g></g><g id="dg"><polygon id="dh" class="fc" points="298.67 226.68 309.21 232.76 309.21 198.82 298.67 192.74 298.67 226.68"/><polygon id="di" class="fo" points="311.97 231.17 309.21 232.76 309.21 198.82 311.97 197.22 311.97 231.17"/><polygon id="dj" class="ff" points="309.21 198.82 298.67 192.74 301.43 191.14 311.97 197.22 309.21 198.82"/></g></g><g id="dk"><polygon id="dl" class="ga" points="381.07 211.35 372.77 206.56 372.77 208.06 381.07 212.85 381.07 211.35"/><polygon id="dm" class="fo" points="385.22 210.46 381.07 212.85 381.07 211.35 385.22 208.95 385.22 210.46"/><polygon id="dn" class="ff" points="381.07 211.35 372.77 206.56 376.92 204.16 385.22 208.95 381.07 211.35"/></g><g id="do"><polygon id="dp" class="ga" points="330.66 240.46 322.36 235.66 322.36 237.17 330.66 241.96 330.66 240.46"/><polygon id="dq" class="fo" points="334.81 239.56 330.66 241.96 330.66 240.46 334.81 238.06 334.81 239.56"/><polygon id="dr" class="ff" points="330.66 240.46 322.36 235.66 326.51 233.27 334.81 238.06 330.66 240.46"/></g></g></g><g><g><ellipse class="et" cx="274.62" cy="214.49" rx="9.24" ry="16.01" transform="translate(58.64 487.94) rotate(-89.69)"/><path class="ff" d="M263.26,211.34c6.23-3.6,16.37-3.58,22.64,.04,2.4,1.38,3.88,3.09,4.45,4.88,.94-2.9-.55-6.02-4.45-8.27-6.27-3.62-16.41-3.64-22.64-.04-3.85,2.22-5.31,5.31-4.38,8.19,.57-1.76,2.03-3.44,4.38-4.8Z"/></g><g><path class="eq" d="M267.62,205.37l-.07,.04v.84c1.68-.49,3.47-.79,5.3-.91v-3.08l4.61-2.66-9.26,5.35-.58,.42Z"/><path class="eq" d="M283.63,206.84v-1.3l4.61-2.66-6.02,3.47c.48,.15,.95,.31,1.41,.49Z"/><path class="fc" d="M272.86,205.34c.71-.05,1.43-.07,2.15-.06l2.46-1.44v-4.23l-4.61,2.66v3.08Z"/><path class="fc" d="M274.87,205.36l.14-.08c-.72,0-1.43,.01-2.15,.06v.05s-.03,.09-.03,.14c0,.06,.02,.12,.03,.18,.09,.37,.47,.68,1,.88,.07-.2,.17-.38,.29-.55,.19-.27,.42-.5,.71-.67Z"/><path class="ge" d="M276.32,196.28c-.71-.41-1.59-.41-2.3,0l-9.91,5.81c-.29,.17-.52,.41-.71,.67-.27,.38-.44,.84-.44,1.32v16.59c.19,.12,.36,.24,.56,.36,1.22,.7,2.59,1.27,4.05,1.7v-17.32l.07-.04,.58-.42,9.26-5.35v-1.33c0-.82-.44-1.58-1.15-2Z"/><path class="fc" d="M283.63,206.84c.86,.33,1.68,.72,2.44,1.16,.74,.42,1.38,.88,1.94,1.36,.1-.12,.18-.24,.22-.37,.02-.06,.03-.12,.03-.19,0-.05-.02-.09-.03-.14v-5.78l-4.61,2.66v1.3Z"/><path class="fc" d="M283.63,206.84v1.82s-.03,.09-.03,.14c0,.06,.02,.12,.03,.18,.16,.62,1.12,1.11,2.3,1.11,.92,0,1.71-.3,2.08-.73-.56-.48-1.21-.94-1.94-1.36-.76-.44-1.58-.82-2.44-1.16Z"/><path class="ge" d="M287.09,199.55c-.71-.41-1.59-.41-2.3,0l-7.31,4.28-2.46,1.44-.14,.08c-.29,.17-.52,.41-.71,.67-.12,.17-.22,.36-.29,.55-.09,.24-.15,.5-.15,.77v16.37c1.54,.07,3.09,0,4.61-.19v-14.85l.07-.04,.58-.42,3.25-1.88,6.02-3.47v-1.33c0-.82-.44-1.58-1.15-2Z"/></g><path class="fa" d="M275.63,197.77l-1.44-.31c-.14-.03-.29,.05-.33,.19-.04,.15,.05,.3,.2,.33l.65,.14c.07,.02,.09,.11,.03,.15l-1.43,.93c-.12,.08-.17,.24-.1,.36,.08,.13,.25,.17,.38,.09l1.44-.93c.06-.04,.14,.01,.13,.09l-.14,.64c-.03,.14,.05,.29,.19,.33,.15,.04,.3-.05,.33-.2l.31-1.46c.03-.16-.07-.31-.22-.35Z"/><polyline class="er" points="272.84 199.85 265.58 204.29 265.4 221.3"/><path class="fa" d="M276.45,223.14l1.05-1.03c.1-.1,.12-.27,.02-.38-.1-.11-.28-.12-.39-.01l-.48,.47c-.05,.05-.14,.01-.14-.06v-1.7c.01-.14-.09-.27-.24-.28-.15,0-.28,.11-.28,.26v1.72c-.01,.08-.1,.11-.16,.06l-.46-.46c-.1-.1-.27-.12-.38-.02-.11,.1-.12,.28-.01,.39l1.04,1.06c.11,.11,.3,.12,.41,0Z"/><polyline class="er" points="276.31 219.8 276.31 206.84 285.95 201.29"/></g></g><g><path class="fa" d="M210.24,255.03c-.06-.29-.15-.59-.25-.95-4.24,.68-4.88,.82-5.3,1.04-.09-.34-.34-1.16-.53-1.6,.42-.09,.89-.57,1.5-1.25,.3-.3,.89-1.01,1.56-1.9-1.94,.21-2.37,.32-2.66,.46-.09-.34-.34-1.12-.53-1.54,.36-.09,.7-.47,1.12-1.03s1.79-2.68,2.6-4.73l1.58,.67c-.82,1.69-1.9,3.44-2.96,4.83l1.92-.15c.53-.8,1.06-1.65,1.5-2.51l1.46,.93c-1.25,2.07-2.79,4.12-4.35,5.79l2.66-.36c-.19-.55-.4-1.08-.61-1.56l1.31-.47c.55,1.22,1.16,2.81,1.39,3.78l-1.41,.55Zm-3.84,1.06c-.15,1.65-.49,3.44-.89,4.6-.32-.17-1.06-.42-1.44-.53,.44-1.12,.7-2.81,.86-4.33l1.48,.27Zm2.17-.38c.23,1.27,.44,2.89,.51,3.97l-1.46,.3c-.04-1.08-.25-2.74-.46-4.01l1.41-.27Zm2.03-.57c.4,1.03,.8,2.36,.97,3.25l-1.37,.48c-.15-.89-.55-2.28-.89-3.33l1.29-.4Zm7.64-2.56c.3,3.97,.91,6.63,1.69,6.63,.32,0,.47-.95,.51-2.93,.36,.36,.93,.7,1.37,.85-.23,2.91-.74,3.71-2.01,3.71-1.92,0-2.79-3.44-3.15-8.26h-2.98v6.1l2.89-.89c.02,.47,.11,1.16,.19,1.54-3.65,1.23-4.25,1.52-4.62,1.8-.13-.4-.53-1.04-.78-1.35,.3-.21,.68-.68,.68-1.54v-12.77c2.79-.38,5.96-1.01,7.9-1.63l1.25,1.42c-.93,.29-1.99,.55-3.12,.76-.02,1.73,0,3.4,.08,4.9h3.25v1.65h-3.15Zm-1.71-1.65c-.08-1.44-.11-3-.13-4.6-.91,.17-1.84,.3-2.74,.42v4.18h2.87Z"/><path class="fa" d="M240.01,246.56s0,.61-.02,.84c-.27,8.57-.49,11.51-1.25,12.46-.47,.63-.93,.8-1.65,.89-.67,.08-1.79,.06-2.87,0-.04-.48-.25-1.22-.57-1.71,1.22,.09,2.32,.11,2.79,.11,.38,0,.59-.06,.8-.32,.61-.63,.86-3.5,1.1-10.66h-4.48c-.53,1.22-1.12,2.32-1.73,3.19-.28-.27-.95-.74-1.39-.99v8.72h-5.15v1.44h-1.61v-13.89h2.13c.27-.91,.55-2.17,.67-3.08l1.92,.32c-.32,.95-.68,1.96-.99,2.75h3.04v3.59c1.25-1.63,2.26-4.16,2.83-6.67l1.71,.4c-.23,.87-.48,1.75-.78,2.58h5.51Zm-14.42,1.63v3.61h3.53v-3.61h-3.53Zm3.53,9.35v-4.2h-3.53v4.2h3.53Zm6.33-1.48c-.53-1.16-1.77-3.02-2.77-4.39l1.39-.78c1.01,1.31,2.3,3.12,2.87,4.24l-1.48,.93Z"/><path class="fa" d="M259.6,256.59h-2.24v2.43c0,.97-.23,1.48-.91,1.75-.68,.29-1.75,.3-3.36,.3-.09-.47-.38-1.23-.65-1.67,1.16,.04,2.39,.02,2.7,.02,.36-.02,.47-.11,.47-.42v-2.41h-9.56v4.48h-1.75v-4.48h-2.18v-1.63h2.18v-7.03h5.58v-1.6h-7.05v-1.63h16.01v1.63h-7.22v1.6h5.72v7.03h2.24v1.63Zm-13.54-7.07v1.94h3.84v-1.94h-3.84Zm0,5.43h3.84v-1.99h-3.84v1.99Zm5.59-5.43v1.94h3.97v-1.94h-3.97Zm3.97,5.43v-1.99h-3.97v1.99h3.97Z"/><path class="fa" d="M278.31,258.76v1.71h-16.87v-1.71h7.52v-4.37h-5.41v-1.69h5.41v-3.8h-4.22c-.59,1.14-1.22,2.15-1.88,2.94-.36-.3-1.14-.82-1.61-1.06,1.54-1.62,2.74-4.22,3.44-6.88l1.82,.42c-.29,.97-.63,1.94-.99,2.85h3.44v-3.53h1.82v3.53h6.61v1.73h-6.61v3.8h5.91v1.69h-5.91v4.37h7.52Z"/><path class="fa" d="M285.17,248.33c-.38,.7-.84,1.44-1.35,2.15v10.58h-1.6v-8.57c-.49,.57-1.01,1.08-1.48,1.52-.13-.38-.61-1.27-.87-1.71,1.39-1.14,2.85-2.87,3.78-4.58l1.52,.61Zm-.38-4.12c-.97,1.58-2.47,3.32-3.86,4.43-.19-.34-.63-1.03-.91-1.33,1.2-.95,2.51-2.47,3.17-3.69l1.6,.59Zm8.51,5.26v1.8h3.17v9.75h-1.71v-.82h-4.62v.82h-1.65v-9.75h3.1v-1.8h-3.7v1.8c0,3.15-.23,6.99-1.96,9.78-.3-.25-.91-.61-1.33-.78,1.56-2.58,1.75-6.21,1.75-9v-6.14c3.15-.29,6.84-.76,9-1.29l1.35,1.25c-2.43,.57-5.81,.99-8.81,1.24v1.71h3.7v-1.79h1.71v1.79h4.1v1.42h-4.1Zm1.46,3.19h-4.62v1.25h4.62v-1.25Zm0,2.47h-4.62v1.22h4.62v-1.22Zm0,3.72v-1.29h-4.62v1.29h4.62Z"/><path class="fa" d="M316.16,256.69c-.78,.44-1.67,.91-2.45,1.27,.82,.72,1.82,1.23,2.96,1.56-.34,.3-.82,.93-1.03,1.35-2.58-.85-4.31-2.72-5.28-5.21-.59,.53-1.33,1.06-2.09,1.5v1.94l2.93-.63c-.04,.38-.04,.99,0,1.29-3.55,.85-4.1,1.04-4.45,1.25v-.02c-.11-.34-.36-.95-.59-1.23,.27-.13,.68-.46,.68-1.22v-.63c-.61,.29-1.25,.55-1.84,.74-.19-.32-.53-.78-.84-1.08-1.73,.53-3.48,1.04-4.92,1.44l-.34-1.61c.61-.13,1.29-.32,2.05-.53v-5.03h-1.65v-1.54h1.65v-3.91h-1.81v-1.58h5.07v1.58h-1.73v3.91h1.52v1.54h-1.52v4.62c.53-.15,1.08-.32,1.62-.47l.19,1.37c1.46-.4,3.08-1.08,4.29-1.88h-2.56v-4.01h9.14v4.01h-3.32c.25,.57,.59,1.1,.99,1.58,.76-.44,1.61-1.01,2.15-1.42l1.18,1.06Zm.11-6.1h-11.42v-1.41h11.42v1.41Zm-.61-2.22h-10.07v-4.1h10.07v4.1Zm-7.1-2.85h-1.52v1.62h1.52v-1.62Zm-.95,8.68h5.89v-1.46h-5.89v1.46Zm3.72-8.68h-1.56v1.62h1.56v-1.62Zm2.81,0h-1.62v1.62h1.62v-1.62Z"/></g></g><g id="ds"/><g id="dt"/><g id="du"><g><rect class="fa" x="135.69" y="368.94" width="73" height="30" rx="6" ry="6"/><g><path class="fl" d="M162.29,377.02v14.96h-1.7v-.92h-10.86v.92h-1.63v-14.96h14.19Zm-1.7,12.56v-10.95h-10.86v10.95h10.86Zm-2.11-8.62v6.24h-6.7v-6.24h6.7Zm-1.58,1.39h-3.62v3.47h3.62v-3.47Z"/><path class="fl" d="M169.13,376.65h1.56v15.35h-1.56v-4.52c-2.91,1.02-3.43,1.31-3.79,1.58-.1-.39-.39-1.09-.61-1.44,.25-.17,.59-.48,.59-1.16v-8.21h1.55v8.41l2.26-.71v-9.3Zm9.67,4.44c-.46,2.6-1.14,4.76-2.19,6.54,.97,1.29,2.11,2.31,3.48,3.01-.37,.27-.85,.87-1.09,1.27-1.27-.73-2.38-1.73-3.3-2.94-.95,1.22-2.14,2.24-3.64,3.06-.17-.34-.71-1-1.04-1.31,1.6-.76,2.84-1.8,3.79-3.13-.75-1.27-1.34-2.74-1.85-4.3-.32,.65-.71,1.22-1.12,1.72-.22-.32-.78-1.02-1.12-1.34,1.45-1.68,2.29-4.4,2.75-7.29l1.62,.27c-.17,1-.39,1.99-.66,2.94h5.51v1.5h-1.14Zm-4.98,.36c.44,1.72,1.05,3.33,1.85,4.74,.73-1.43,1.22-3.13,1.55-5.1h-3.26l-.14,.36Z"/><path class="fl" d="M186.86,386.59c-.05-.25-.14-.53-.22-.85-3.79,.61-4.37,.73-4.74,.93-.08-.31-.31-1.04-.48-1.43,.37-.08,.8-.51,1.34-1.12,.27-.27,.8-.9,1.39-1.7-1.73,.19-2.12,.29-2.38,.41-.08-.31-.31-1-.48-1.38,.32-.08,.63-.43,1-.92,.37-.49,1.6-2.4,2.33-4.23l1.41,.59c-.73,1.51-1.7,3.08-2.65,4.32l1.72-.14c.48-.71,.95-1.48,1.34-2.24l1.31,.83c-1.12,1.85-2.5,3.69-3.89,5.18l2.38-.32c-.17-.49-.36-.97-.54-1.39l1.17-.42c.49,1.09,1.04,2.52,1.24,3.38l-1.26,.49Zm-3.43,.95c-.14,1.48-.44,3.08-.8,4.11-.29-.15-.95-.37-1.29-.48,.39-1,.63-2.52,.77-3.88l1.33,.24Zm1.94-.34c.2,1.14,.39,2.58,.46,3.55l-1.31,.27c-.03-.97-.22-2.45-.41-3.59l1.26-.24Zm1.82-.51c.36,.92,.71,2.11,.87,2.91l-1.22,.42c-.14-.8-.49-2.04-.8-2.97l1.16-.36Zm6.83-2.29c.27,3.55,.82,5.93,1.51,5.93,.29,0,.42-.85,.46-2.62,.32,.32,.83,.63,1.22,.76-.2,2.6-.66,3.32-1.8,3.32-1.72,0-2.5-3.08-2.82-7.39h-2.67v5.46l2.58-.8c.02,.42,.1,1.04,.17,1.38-3.26,1.11-3.81,1.36-4.13,1.62-.12-.36-.48-.94-.7-1.21,.27-.19,.61-.61,.61-1.38v-11.42c2.5-.34,5.34-.9,7.07-1.46l1.12,1.27c-.83,.26-1.78,.49-2.79,.68-.02,1.55,0,3.04,.07,4.39h2.91v1.48h-2.82Zm-1.53-1.48c-.07-1.29-.1-2.69-.12-4.11-.82,.15-1.65,.27-2.45,.37v3.74h2.57Z"/></g></g><g><rect class="fa" x="136.69" y="15.94" width="60" height="30" rx="6" ry="6"/><g><path class="fl" d="M155.23,31.33c-.39,1.6-.97,3.26-1.65,4.54,.27,.19,.59,.42,1.02,.7,1.17,.71,2.72,.82,4.69,.82,2.07,0,4.91-.15,6.8-.39-.19,.44-.44,1.21-.46,1.63-1.33,.08-4.4,.19-6.41,.19-2.21,0-3.65-.19-4.9-.9-.68-.39-1.29-.99-1.65-.99s-.97,1.1-1.41,2.14l-1.07-1.48c.7-.94,1.41-1.65,2.02-1.94,.46-.88,.9-2.04,1.19-3.18h-2.31c.42-.99,.93-2.35,1.39-3.64h-2.04v-1.43h3.96c-.39,1.17-.9,2.53-1.34,3.69h1.21l.24-.07,.71,.31Zm-2.82-4.56c-.2-.73-.63-1.89-.9-2.77l1.45-.41c.31,.87,.71,1.97,.93,2.69l-1.48,.49Zm4.83-.02c-.39,.63-.8,1.19-1.22,1.65-.29-.24-.97-.61-1.33-.76,1.05-1,1.94-2.53,2.43-4.06l1.48,.34c-.17,.49-.37,1-.61,1.48h1.63v-2.02h1.56v2.02h3.88v1.36h-3.88v1.84h4.61v1.34h-10.84v-1.34h4.67v-1.84h-2.38Zm5.75,9.52v-.51h-5.18v.56h-1.51v-5.25h8.28v5.2h-1.58Zm0-1.85v-2.09h-5.18v2.09h5.18Z"/><path class="fl" d="M172.86,33.59c-.05-.25-.14-.53-.22-.85-3.79,.61-4.37,.73-4.74,.93-.08-.31-.31-1.04-.48-1.43,.37-.08,.8-.51,1.34-1.12,.27-.27,.8-.9,1.39-1.7-1.73,.19-2.12,.29-2.38,.41-.08-.31-.31-1-.48-1.38,.32-.08,.63-.43,1-.92,.37-.49,1.6-2.4,2.33-4.23l1.41,.59c-.73,1.51-1.7,3.08-2.65,4.32l1.72-.14c.48-.71,.95-1.48,1.34-2.24l1.31,.83c-1.12,1.85-2.5,3.69-3.89,5.18l2.38-.32c-.17-.49-.36-.97-.54-1.39l1.17-.42c.49,1.09,1.04,2.52,1.24,3.38l-1.26,.49Zm-3.43,.95c-.14,1.48-.44,3.08-.8,4.11-.29-.15-.95-.37-1.29-.48,.39-1,.63-2.52,.77-3.88l1.33,.24Zm1.94-.34c.2,1.14,.39,2.58,.46,3.55l-1.31,.27c-.03-.97-.22-2.45-.41-3.59l1.26-.24Zm1.82-.51c.36,.92,.71,2.11,.87,2.91l-1.22,.42c-.14-.8-.49-2.04-.8-2.97l1.16-.36Zm6.83-2.29c.27,3.55,.82,5.93,1.51,5.93,.29,0,.42-.85,.46-2.62,.32,.32,.83,.63,1.22,.76-.2,2.6-.66,3.32-1.8,3.32-1.72,0-2.5-3.08-2.82-7.39h-2.67v5.46l2.58-.8c.02,.42,.1,1.04,.17,1.38-3.26,1.11-3.81,1.36-4.13,1.62-.12-.36-.48-.94-.7-1.21,.27-.19,.61-.61,.61-1.38v-11.42c2.5-.34,5.34-.9,7.07-1.46l1.12,1.27c-.83,.26-1.78,.49-2.79,.68-.02,1.55,0,3.04,.07,4.39h2.91v1.48h-2.82Zm-1.53-1.48c-.07-1.29-.1-2.69-.12-4.11-.82,.15-1.65,.27-2.45,.37v3.74h2.57Z"/></g></g><g><rect class="fa" x="37.69" y="117.94" width="60" height="30" rx="6" ry="6"/><g><path class="fl" d="M66.97,139.19v1.29h-12.46v-1.29h5.34v-1.39h-3.77v-1.24h3.77v-1.24h-3.2c-.49,.83-1.07,1.6-1.68,2.16-.12-.29-.51-1.07-.76-1.39-.15,1.75-.59,3.69-1.77,5.07-.24-.29-.9-.85-1.21-1,1.36-1.63,1.51-3.93,1.51-5.64v-3.3h2.18c-.22-.24-.49-.53-.7-.68,1.29-.22,2.77-.54,4.16-.88-1.22-.34-2.45-.65-3.57-.88l.87-.66h-2.8v-1.24h6.05c-.24-.39-.51-.78-.78-1.1l1.11-.53c.42,.48,.92,1.12,1.19,1.63h5.76v1.24h-2.53l.75,.48c-.7,.34-1.51,.68-2.4,1,1.14,.32,2.19,.66,3.03,.95l-.78,.68h2.46v1.29h-12.46v2.02c0,.49-.02,1.02-.07,1.56,.9-.85,1.7-2.07,2.16-3.37l1.36,.39c-.12,.32-.25,.63-.41,.95h2.53v-1.26h1.56v1.26h4.4v1.26h-4.4v1.24h3.96v1.24h-3.96v1.39h5.56Zm-3.45-7.99c-.9-.32-2.06-.68-3.28-1.05-1.39,.42-2.82,.77-4.15,1.05h7.43Zm-7.07-3.11c1.24,.29,2.58,.63,3.88,.99,1-.31,1.9-.63,2.62-.99h-6.49Z"/><path class="fl" d="M69.1,133.53h6.15v7.33h-1.56v-.76h-3.09v.88h-1.5v-7.45Zm1.5,1.51v3.54h3.09v-3.54h-3.09Zm10.4-3.16h-9.5v-5.8h9.5v5.8Zm-1.62-4.28h-6.37v2.77h6.37v-2.77Zm4,5.93v7.36h-1.58v-.8h-3.37v.88h-1.51v-7.45h6.46Zm-1.58,5.05v-3.54h-3.37v3.54h3.37Z"/></g></g><g><rect class="fa" x="404.69" y="145.94" width="60" height="30" rx="6" ry="6"/><g><path class="fl" d="M432.92,157.96c-.36,2.65-.92,4.86-1.84,6.68,.78,1.31,1.8,2.35,3.06,3.03-.36,.29-.83,.88-1.07,1.29-1.16-.71-2.09-1.7-2.84-2.91-.83,1.16-1.87,2.14-3.16,2.94-.15-.31-.59-.97-.88-1.27,1.41-.78,2.46-1.82,3.26-3.09-.61-1.31-1.07-2.79-1.44-4.42-.29,.71-.65,1.38-1.02,1.96-.2-.32-.71-1-1.04-1.31,.24-.34,.44-.71,.63-1.1h-8.18v-1.33h1.87v-1.77h-1.62v-1.33h1.62v-1.79h1.44v1.79h1.87v-1.79h1.46v1.79h1.63v1.33h-1.63v1.77h1.62v1.16c.78-1.72,1.29-3.94,1.56-6.2l1.5,.2c-.15,.99-.31,1.97-.53,2.91h4.79v1.48h-1.07Zm-7.12,9.5c0,.7-.14,1.09-.59,1.27-.48,.24-1.16,.25-2.16,.25-.05-.37-.24-.95-.44-1.31,.65,.02,1.29,.02,1.46,.02,.19,0,.25-.05,.25-.25v-1.75c-1.09,.49-2.14,.95-3.08,1.36l-.44-1.05c-.17,1.12-.48,2.24-1.14,3.11-.25-.25-.87-.7-1.19-.85,.97-1.27,1.07-3.03,1.07-4.4v-3.21h6.26v6.82Zm-4.86-3.59c0,.56-.02,1.21-.1,1.85,.92-.25,2.19-.7,3.48-1.14v-2.8h-3.38v2.09Zm.76-1.65c.87,.42,1.87,.95,2.41,1.34l-.73,1c-.53-.41-1.56-1.07-2.4-1.5l.71-.85Zm.02-3.81h1.87v-1.77h-1.87v1.77Zm7.12-.46c.31,1.84,.78,3.57,1.41,5.08,.59-1.44,.99-3.13,1.22-5.08h-2.63Z"/><path class="fl" d="M438.07,159.56c-.19,1.65-.65,2.89-2.01,3.64-.15-.31-.53-.76-.8-.99,1-.56,1.34-1.44,1.48-2.65h-1.21v-1.24h3.86v-.92h-2.94v-3.52h1.28v2.31h1.67v-2.82h1.41v9.66h-1.41v-3.47h-1.33Zm3.4,4.5c-.87,2.45-2.91,3.88-5.29,4.57-.17-.36-.54-.92-.82-1.22,1.63-.39,3.13-1.21,4.01-2.41h-3.21v-1.24h4.08l.27-.05,.95,.36Zm8.38-.37c-1.05,.71-2.35,1.48-3.4,1.99,1.19,.77,2.74,1.29,4.52,1.51-.32,.34-.75,.97-.93,1.39-2.75-.51-4.78-1.63-6.14-3.42v2.21c0,.75-.12,1.14-.66,1.36-.51,.22-1.31,.24-2.4,.24-.07-.41-.27-1-.49-1.39,.78,.03,1.51,.02,1.72,.02,.24-.02,.29-.07,.29-.25v-5.13h1.55v.6c.37,.8,.88,1.5,1.53,2.09,1.05-.56,2.33-1.41,3.09-2.07l1.33,.87Zm-7.89-4.95c-.14-.32-.39-.68-.59-.94,1.61-.15,3.14-.49,4.44-1.04-.44-.46-1.09-1.07-1.65-1.53-.66,.31-1.41,.54-2.24,.8-.19-.31-.6-.73-.87-.93,1.96-.44,3.42-1.05,4.22-1.77l1.39,.29c-.19,.17-.39,.34-.61,.51h2.89l.26-.05,.85,.41c-1.31,2.62-4.17,3.72-7.5,4.25h4.79v-1.17h1.43v1.17h2.02v1.16h-2.02v1.72c0,.68-.12,1-.59,1.21-.48,.22-1.17,.24-2.12,.22-.08-.37-.31-.88-.49-1.24,.68,.02,1.34,.02,1.53,.02,.2-.02,.25-.07,.25-.24v-1.68h-5.97v-1.16h.59Zm2.48-1.89l-2.65,.32-.14-.83c.76-.07,1.7-.15,2.75-.29l.03,.8Zm-1,3.06c.8,.48,1.67,1.21,2.09,1.75l-1.1,.77c-.41-.56-1.28-1.36-2.02-1.84l1.04-.68Zm1.96-4.88c.49,.41,1,.87,1.38,1.24,.56-.36,1.04-.75,1.43-1.24h-2.8Z"/></g></g></g><g id="dv"/></g></svg>