<?xml version="1.0" encoding="UTF-8"?><svg xmlns="http://www.w3.org/2000/svg" xmlns:xlink="http://www.w3.org/1999/xlink" viewBox="0 0 500 363.8"><defs><style>.ba{fill:url(#i);}.bb{fill:url(#m);}.bc{fill:none;stroke:#c1c1c1;stroke-dasharray:0 0 2 2;stroke-linecap:round;stroke-linejoin:round;}.bd{opacity:.2;}.bd,.be{fill:#fff;}.bd,.bf{mix-blend-mode:screen;}.bg{fill:#fff6ee;}.bh{fill:#ecf0f1;}.bi{fill:#efebe5;}.bj{fill:#98d4e2;}.bk{fill:#8ab000;}.bl{fill:#8ab21d;}.bm{fill:#c1c1c1;}.bn{fill:#b48a11;}.bo{fill:#84b600;}.bp{fill:#a4d200;}.bq{fill:#bdc3c7;}.br{fill:#cfccc8;}.bs{fill:#d4a300;}.bt{fill:#dadada;}.bu{fill:#c6c6c6;}.bv{fill:#709a00;}.bw{fill:#544238;}.bx{fill:#634e42;}.by{fill:#5b5651;}.c`{fill:#290f00;}.ca{fill:#353130;}.cb{fill:#3c3c3b;}.cc{fill:#75adaf;}.cd{fill:#4fc8f7;}.ce{fill:#7aa900;}.cf{fill:#79d9e0;}.cg{fill:#4d94a0;}.ch{fill:#4070a2;opacity:.4;}.ch,.ci{mix-blend-mode:multiply;}.ci{fill:url(#au);opacity:.3;}.cj{clip-path:url(#t);}.ck{clip-path:url(#k);}.cl{isolation:isolate;}.bf{fill:url(#av);opacity:.1;}</style><linearGradient id="i" x1="421.33" y1="226.99" x2="489.17" y2="226.99" gradientTransform="matrix(1, 0, 0, 1, 0, 0)" gradientUnits="userSpaceOnUse"><stop offset="0" stop-color="#ded3c9"/><stop offset="1" stop-color="#cec4b7"/></linearGradient><clipPath id="k"><ellipse id="l" class="ba" cx="455.25" cy="226.99" rx="33.92" ry="19.58"/></clipPath><linearGradient id="m" x1="421.33" y1="228.05" x2="489.17" y2="228.05" gradientTransform="matrix(1, 0, 0, 1, 0, 0)" gradientUnits="userSpaceOnUse"><stop offset="0" stop-color="#33858c"/><stop offset="1" stop-color="#48989a"/></linearGradient><clipPath id="t"><ellipse id="u" class="bu" cx="455.25" cy="225.05" rx="30.17" ry="17.42"/></clipPath><linearGradient id="au" x1="219.55" y1="90.73" x2="284.75" y2="90.73" gradientTransform="matrix(1, 0, 0, 1, 0, 0)" gradientUnits="userSpaceOnUse"><stop offset="0" stop-color="#d5cbbf"/><stop offset=".05" stop-color="#d2c8bc"/><stop offset=".25" stop-color="#cec4b7"/><stop offset=".91" stop-color="#dbd0c6"/><stop offset="1" stop-color="#ded3c9"/></linearGradient><radialGradient id="av" cx="257.38" cy="74.41" fx="257.38" fy="74.41" r="23.65" gradientTransform="matrix(1, 0, 0, 1, 0, 0)" gradientUnits="userSpaceOnUse"><stop offset="0" stop-color="#f2e8df"/><stop offset="1" stop-color="#ded3c9"/></radialGradient></defs><g class="cl"><g id="a"/><g id="b"/><g id="c"/><g id="d"/><g id="e"><g><g><path class="cc" d="M495,202.64l-5.4-8.84,3.44,.09c-2.4-5.09-7.02-9.97-13.95-13.97l-198.62-111.41c-21.11-12.19-55.22-12.19-76.17-.02L17.65,179.82c-6.84,3.97-11.39,8.76-13.75,13.82l.13,.16-1.99,6.77h-.04l.05,12.15c-.01,.45-.01,.44,0,.9v.28h.07c.63,9.21,5.85,15.37,15.77,21.1l198.62,111.61c21.11,12.19,55.24,12.3,76.19,.13l186.65-111.03c10.39-6.04,15.58-14.64,15.62-21.55h.02v-11.52h0Z"/><path class="cf" d="M479.09,177.52l-198.62-111.38c-21.11-12.19-55.22-12.18-76.17,0L17.65,177.47c-20.95,12.18-20.86,31.93,.25,44.12l198.62,111.38c21.11,12.19,55.24,12.19,76.19,.01l186.65-111.34c20.95-12.18,20.84-31.95-.27-44.14h0Z"/></g><g><path class="be" d="M252.52,313.9c-12.14,0-24.27-2.74-33.75-8.21L69.77,222.14c-10.94-6.32-17.16-15.61-17.18-25.56-.02-9.91,6.13-19.16,16.86-25.4L209.47,87.67c18.97-11.02,48.6-11.03,67.58-.07l149.11,83.61c10.84,6.26,17.06,15.55,17.08,25.51,.01,9.91-6.13,19.16-16.85,25.39l-140.02,83.52c-9.5,5.52-21.67,8.28-33.85,8.28Zm-9.28-214.05c-8.53,0-17.04,1.84-23.35,5.51L79.87,188.88c-4.2,2.44-6.75,5.36-6.74,7.68,0,2.35,2.61,5.32,6.8,7.74l149,83.55c12.88,7.43,34.36,7.45,47.02,.09l140.02-83.52c4.2-2.44,6.74-5.36,6.74-7.67,0-2.35-2.59-5.31-6.76-7.73l-149.05-83.58c-6.45-3.73-15.07-5.58-23.65-5.58Z"/><g><path class="bm" d="M94.2,225.23l1.17,4.13c.11,.4,.52,.68,.93,.59,.44-.1,.7-.54,.57-.97l-.53-1.87c-.06-.21,.17-.39,.36-.28l4.34,2.42c.37,.2,.85,.11,1.07-.24,.24-.38,.11-.88-.28-1.09l-4.37-2.44c-.19-.11-.16-.39,.05-.45l1.83-.52c.4-.11,.68-.52,.59-.93-.1-.44-.54-.7-.97-.57l-4.17,1.18c-.45,.13-.72,.6-.59,1.05Z"/><line class="bc" x1="100.08" y1="227.81" x2="181.44" y2="273.47"/></g><g><path class="bm" d="M387.85,161.06l-1.11-4.15c-.11-.41-.51-.69-.92-.6-.44,.09-.7,.53-.59,.96l.5,1.88c.06,.21-.17,.39-.36,.28l-4.3-2.48c-.36-.21-.85-.13-1.08,.23-.24,.38-.12,.87,.26,1.1l4.34,2.5c.19,.11,.15,.4-.06,.45l-1.84,.49c-.41,.11-.69,.51-.6,.92,.09,.44,.53,.7,.96,.59l4.19-1.12c.45-.12,.72-.59,.6-1.04Z"/><line class="bc" x1="382.01" y1="158.39" x2="300.26" y2="111.04"/></g><g><path class="bm" d="M207.44,100.38l-4.19-.97c-.41-.09-.85,.13-.96,.53-.12,.43,.14,.87,.57,.97l1.9,.44c.21,.05,.26,.33,.08,.45l-4.21,2.63c-.36,.22-.51,.69-.31,1.06,.22,.39,.71,.52,1.09,.28l4.25-2.65c.19-.12,.42,.05,.37,.26l-.43,1.85c-.09,.41,.13,.85,.53,.96,.43,.12,.87-.14,.97-.57l.98-4.23c.11-.46-.18-.92-.64-1.02Z"/><line class="bc" x1="202.34" y1="104.28" x2="88.53" y2="171.53"/></g><g><path class="bm" d="M306.65,280.27l4.15,1.09c.41,.11,.85-.1,.98-.5,.14-.43-.11-.87-.54-.99l-1.88-.49c-.21-.06-.25-.34-.06-.45l4.29-2.5c.36-.21,.53-.67,.34-1.05-.21-.4-.7-.54-1.08-.32l-4.33,2.53c-.19,.11-.42-.06-.36-.28l.48-1.84c.11-.41-.1-.85-.5-.98-.43-.14-.87,.11-.99,.54l-1.1,4.2c-.12,.45,.15,.92,.61,1.04Z"/><line class="bc" x1="311.86" y1="276.52" x2="402.48" y2="223.83"/></g></g><g><g><path class="bj" d="M52.16,137.85s-19.17,22.08-19.16,32.61c0,10.52,8.58,19.04,19.16,19.06,.01,0,.03,0,.04,0,10.6,0,19.18-8.56,19.17-19.09,0-10.53-19.21-32.59-19.21-32.59Z"/><path class="cg" d="M52.16,137.85s-.7,.81-1.83,2.19c7.06,13.41,16.77,29.71,4.1,41.97-3.19,3.19-8.19,3.64-12.75,2.28-1.36-.43-2.69-.89-4.02-1.38,3.51,4.04,8.7,6.61,14.5,6.62,.01,0,.03,0,.04,0,10.6,0,19.18-8.56,19.17-19.09,0-10.53-19.21-32.59-19.21-32.59Z"/><path class="bj" d="M36.64,166.34c-.73,2.35-1.22,4.85-.74,7.26,.48,2.41,2.1,4.72,4.45,5.43,1.92,.58,4.07,.01,5.7-1.16,1.63-1.18,2.79-2.9,3.65-4.72,1.9-4.03,2.4-8.71,1.4-13.05-.81-3.52-3.7-8.56-7.85-5.66-3.42,2.39-5.42,8.08-6.61,11.9Z"/></g><g><path class="bj" d="M56.45,203.45s-11.94,13.75-11.93,20.31c0,6.55,5.34,11.86,11.93,11.86h.02c6.6,0,11.94-5.33,11.94-11.88,0-6.56-11.96-20.29-11.96-20.29Z"/><path class="cg" d="M56.45,203.45s-.44,.5-1.14,1.36c4.39,8.35,10.44,18.5,2.55,26.13-1.98,1.98-5.1,2.27-7.94,1.42-.84-.27-1.68-.55-2.5-.86,2.19,2.52,5.42,4.12,9.03,4.12h.02c6.6,0,11.94-5.33,11.94-11.88,0-6.56-11.96-20.29-11.96-20.29Z"/><path class="bd" d="M46.79,221.19c-.45,1.46-.76,3.02-.46,4.52,.3,1.5,1.3,2.94,2.77,3.38,1.2,.36,2.54,0,3.55-.72,1.01-.73,1.74-1.81,2.27-2.94,1.18-2.51,1.49-5.42,.87-8.13-.5-2.19-2.3-5.33-4.89-3.52-2.13,1.49-3.38,5.03-4.11,7.41Z"/></g><g><path class="bj" d="M85.63,172.17s-15.03,17.31-15.02,25.56c0,8.25,6.73,14.93,15.02,14.94h.03c8.31,0,15.04-6.7,15.03-14.96,0-8.25-15.06-25.54-15.06-25.54Z"/><path class="cg" d="M85.63,172.17s-.55,.63-1.44,1.71c5.53,10.51,13.14,23.29,3.21,32.9-2.5,2.5-6.42,2.85-9.99,1.78-1.06-.34-2.11-.7-3.15-1.08,2.75,3.17,6.82,5.18,11.37,5.19h.03c8.31,0,15.04-6.7,15.03-14.96,0-8.25-15.06-25.54-15.06-25.54Z"/></g></g><g><g id="f"><g id="g"><ellipse id="h" class="bh" cx="455.25" cy="226.99" rx="35.48" ry="20.48"/><g><ellipse id="j" class="ba" cx="455.25" cy="226.99" rx="33.92" ry="19.58"/><g class="ck"><ellipse id="n" class="bb" cx="455.25" cy="228.05" rx="33.92" ry="19.58"/><ellipse id="o" class="ch" cx="455.25" cy="228.05" rx="33.92" ry="19.58"/></g></g><path id="p" class="bq" d="M490.73,226.8v5.08c.08,5.3-3.38,10.63-10.39,14.67-13.86,8-36.32,8-50.17,0-6.84-3.95-10.31-9.12-10.39-14.3v-5.08c.08,5.18,3.55,10.34,10.39,14.3,13.86,8,36.32,8,50.17,0,7.01-4.05,10.47-9.37,10.39-14.67Z"/></g><g id="q"><ellipse id="r" class="bh" cx="455.25" cy="225.05" rx="31.56" ry="18.22"/><g><ellipse id="s" class="bu" cx="455.25" cy="225.05" rx="30.17" ry="17.42"/><g class="cj"><ellipse id="v" class="bj" cx="455.25" cy="227.08" rx="30.17" ry="17.42"/><path class="ch" d="M476.58,214.76c-6.12-3.53-14.22-5.23-22.23-5.09,7.42,.13,14.77,1.82,20.43,5.09,11.78,6.8,11.78,17.83,0,24.63-5.66,3.27-13.01,4.96-20.43,5.09,8.02,.14,16.11-1.56,22.23-5.09,11.78-6.8,11.78-17.83,0-24.63Z"/><path class="bh" d="M480.42,217.47l-24.21,8.26-25.9-8.44c-.25,.21-.49,.43-.73,.65l26.21,8.54,.3,17.52h.84l-.3-17.53,24.49-8.35c-.23-.22-.46-.43-.7-.65Z"/></g></g><path id="w" class="bq" d="M486.81,224.88v1.42c.07,4.72-3.01,9.45-9.24,13.05-12.32,7.12-32.3,7.12-44.63,0-6.09-3.51-9.17-8.11-9.24-12.72v-1.42c.07,4.61,3.15,9.2,9.24,12.72,12.32,7.12,32.3,7.12,44.63,0,6.24-3.6,9.32-8.33,9.24-13.05Z"/></g><g><g id="x"><path class="bq" d="M447.36,225.83v1.27c.02,1.3,.89,2.6,2.61,3.59,3.48,2.01,9.12,2.01,12.6,0,1.76-1.02,2.63-2.35,2.61-3.69v-1.27l-17.82,.09Z"/><path id="y" class="bh" d="M462.57,229.42c-3.48,2.01-9.12,2.01-12.6,0-3.48-2.01-3.48-5.27,0-7.28,3.48-2.01,9.12-2.01,12.6,0,3.48,2.01,3.48,5.27,0,7.28Z"/><g><ellipse id="a`" class="cg" cx="456.27" cy="225.79" rx="8.26" ry="4.77"/><g/></g></g><g><path class="bq" d="M453.88,223.03v2.55c0,.37,.25,.74,.75,1.03,1,.58,2.61,.58,3.61,0,.5-.29,.75-.67,.75-1.06v-2.55l-5.1,.03Z"/><path id="aa" class="bi" d="M458.24,224.06c-1,.58-2.61,.58-3.61,0-1-.58-1-1.51,0-2.08,1-.58,2.61-.58,3.61,0,1,.58,1,1.51,0,2.08Z"/></g></g><g><g><g class="cl"><polygon class="bh" points="487.02 248.41 491.75 245.67 495.28 247.7 490.55 250.45 487.02 248.41"/><polygon class="bh" points="486.54 247.58 491.27 244.83 491.76 245.11 487.02 247.86 486.54 247.58"/><polygon class="bh" points="487.02 247.86 491.76 245.11 491.75 245.67 487.02 248.41 487.02 247.86"/><polygon class="bh" points="486.06 246.75 490.79 244 491.27 244.28 486.54 247.03 486.06 246.75"/><polygon class="bh" points="486.54 247.03 491.27 244.28 491.27 244.83 486.54 247.58 486.54 247.03"/><polygon class="bh" points="485.57 245.92 490.31 243.17 490.79 243.45 486.06 246.2 485.57 245.92"/><polygon class="bh" points="486.06 246.2 490.79 243.45 490.79 244 486.06 246.75 486.06 246.2"/><polygon class="bh" points="485.09 245.09 489.83 242.34 490.31 242.62 485.58 245.36 485.09 245.09"/><polygon class="bh" points="485.58 245.36 490.31 242.62 490.31 243.17 485.57 245.92 485.58 245.36"/><polygon class="bh" points="485.1 244.53 489.83 241.78 489.83 242.34 485.09 245.09 485.1 244.53"/><polygon class="bh" points="484.61 244.25 489.35 241.5 489.83 241.78 485.1 244.53 484.61 244.25"/><polygon class="bh" points="484.13 243.42 488.86 240.67 489.35 240.95 484.61 243.7 484.13 243.42"/><polygon class="bh" points="484.61 243.7 489.35 240.95 489.35 241.5 484.61 244.25 484.61 243.7"/><polygon class="bh" points="483.65 242.59 488.38 239.84 488.87 240.12 484.13 242.87 483.65 242.59"/><polygon class="bh" points="484.13 242.87 488.87 240.12 488.86 240.67 484.13 243.42 484.13 242.87"/><polygon class="bh" points="483.65 242.03 488.38 239.29 488.38 239.84 483.65 242.59 483.65 242.03"/><polygon class="bh" points="482.05 241.11 486.79 238.36 488.38 239.29 483.65 242.03 482.05 241.11"/></g><path class="bq" d="M487.02,248.41v-.55l-.48-.28v-.55l-.48-.28v-.55l-.48-.28v-.55l-.48-.28v-.55l-.48-.28v-.55l-.48-.28v-.55l-.48-.28v-.55l-1.6-.92v.56l1.29,.75v.55l.48,.28v.55l.48,.28v.55l.48,.28v.55l.48,.28s-.01,.56-.01,.56l.48,.28v.55l.48,.28v.55l.48,.28v.55l3.84,2.2v-.55l-3.52-2.04Z"/></g><g class="cl"><polygon class="bh" points="486.87 256.45 482.55 253.95 482.07 254.23 486.39 256.73 486.87 256.45"/><polygon class="bq" points="486.39 256.73 482.07 254.23 482.07 254.78 486.39 257.28 486.39 256.73"/><polygon class="bh" points="487.35 255.61 483.03 253.12 482.55 253.4 486.87 255.89 487.35 255.61"/><polygon class="bq" points="486.87 255.89 482.55 253.4 482.55 253.95 486.87 256.45 486.87 255.89"/><polygon class="bh" points="487.84 254.78 483.51 252.28 483.03 252.56 487.35 255.06 487.84 254.78"/><polygon class="bq" points="487.35 255.06 483.03 252.56 483.03 253.12 487.35 255.61 487.35 255.06"/><polygon class="bh" points="488.32 253.95 483.99 251.45 483.51 251.73 487.84 254.23 488.32 253.95"/><polygon class="bq" points="487.84 254.23 483.51 251.73 483.51 252.28 487.84 254.78 487.84 254.23"/><polygon class="bq" points="488.32 253.4 483.99 250.9 483.99 251.45 488.32 253.95 488.32 253.4"/><polygon class="bh" points="488.8 253.12 484.47 250.62 483.99 250.9 488.32 253.4 488.8 253.12"/><polygon class="bh" points="489.28 252.28 484.96 249.79 484.47 250.07 488.8 252.56 489.28 252.28"/><polygon class="bq" points="488.8 252.56 484.47 250.07 484.47 250.62 488.8 253.12 488.8 252.56"/><polygon class="bh" points="489.76 251.45 485.44 248.96 484.96 249.23 489.28 251.73 489.76 251.45"/><polygon class="bq" points="489.28 251.73 484.96 249.23 484.96 249.79 489.28 252.28 489.28 251.73"/><path class="bh" d="M495.28,247.7l-4.73,2.75s-.78,.45-.78,.45v.55l-.48,.28v.55l-.48,.28v.55l-.48,.28v.55l-.48,.28v.55l-.48,.28v.55l-.48,.28v.55l-.48,.28v.55l8.89-5.12v-4.45Z"/><polygon class="bq" points="489.76 250.9 485.44 248.4 485.44 248.96 489.76 251.45 489.76 250.9"/><polygon class="bh" points="490.55 250.44 486.22 247.95 485.44 248.4 489.76 250.9 490.55 250.44"/></g></g><g><g id="ab"><polygon id="ac" class="bq" points="482.91 241.14 448.8 221.44 448.8 221.93 482.91 241.62 482.91 241.14"/><polygon id="ad" class="bh" points="487.65 238.88 482.91 241.62 482.91 241.14 487.65 238.4 487.65 238.88"/><polygon id="ae" class="bh" points="482.91 241.14 448.8 221.44 453.54 218.7 487.65 238.4 482.91 241.14"/><polygon id="af" class="bq" points="483.45 240.82 449.78 221.38 453.57 219.19 487.24 238.63 483.45 240.82"/></g><g><path class="by" d="M453.54,218.87v-1.62s.03-.07,.07-.07,.07,.03,.07,.07v1.62c0,.06-.15,.07-.15,0Z"/><path class="by" d="M455.78,220.17v-1.62s.03-.07,.07-.07,.07,.03,.07,.07v1.62c0,.06-.15,.07-.15,0Z"/><path class="by" d="M458.03,221.47v-1.62s.03-.07,.07-.07,.07,.03,.07,.07v1.62c0,.06-.15,.07-.15,0Z"/><path class="by" d="M460.27,222.76v-1.62s.03-.07,.07-.07,.07,.03,.07,.07v1.62c0,.06-.15,.07-.15,0Z"/><path class="by" d="M462.52,224.06v-1.62s.03-.07,.07-.07,.07,.03,.07,.07v1.62c0,.06-.15,.07-.15,0Z"/><path class="by" d="M464.76,225.36v-1.62s.03-.07,.07-.07,.07,.03,.07,.07v1.62c0,.06-.15,.07-.15,0Z"/><path class="by" d="M467.01,226.65v-1.62s.03-.07,.07-.07,.07,.03,.07,.07v1.62c0,.06-.15,.07-.15,0Z"/><path class="by" d="M469.25,227.95v-1.62s.03-.07,.07-.07,.07,.03,.07,.07v1.62c0,.06-.15,.07-.15,0Z"/><path class="by" d="M471.5,229.24v-1.62s.03-.07,.07-.07,.07,.03,.07,.07v1.62c0,.06-.15,.07-.15,0Z"/><path class="by" d="M473.74,230.54v-1.62s.03-.07,.07-.07,.07,.03,.07,.07v1.62c0,.06-.15,.07-.15,0Z"/><path class="by" d="M475.99,231.84v-1.62s.03-.07,.07-.07,.07,.03,.07,.07v1.62c0,.06-.15,.07-.15,0Z"/><path class="by" d="M478.23,233.13v-1.62s.03-.07,.07-.07,.07,.03,.07,.07v1.62c0,.06-.15,.07-.15,0Z"/><path class="by" d="M480.48,234.43v-1.62s.03-.07,.07-.07,.07,.03,.07,.07v1.62c0,.06-.15,.07-.15,0Z"/><path class="by" d="M482.72,235.73v-1.62s.03-.07,.07-.07,.07,.03,.07,.07v1.62c0,.06-.15,.07-.15,0Z"/><path class="by" d="M484.97,237.02v-1.62s.03-.07,.07-.07,.07,.03,.07,.07v1.62c0,.06-.15,.07-.15,0Z"/><path class="by" d="M487.21,238.32v-1.62s.03-.07,.07-.07,.07,.03,.07,.07v1.62c0,.06-.15,.07-.15,0Z"/></g><g><path class="by" d="M449.11,221.43v-1.62s.03-.07,.07-.07,.07,.03,.07,.07v1.62c0,.06-.15,.07-.15,0Z"/><path class="by" d="M451.34,220.14v-1.62s.03-.07,.07-.07,.07,.03,.07,.07v1.62c0,.06-.15,.07-.15,0Z"/><path class="by" d="M451.36,222.72v-1.62s.03-.07,.07-.07,.07,.03,.07,.07v1.62c0,.06-.15,.07-.15,0Z"/><path class="by" d="M453.6,224.02v-1.62s.03-.07,.07-.07,.07,.03,.07,.07v1.62c0,.06-.15,.07-.15,0Z"/><path class="by" d="M455.85,225.32v-1.62s.03-.07,.07-.07,.07,.03,.07,.07v1.62c0,.06-.15,.07-.15,0Z"/><path class="by" d="M458.09,226.61v-1.62s.03-.07,.07-.07,.07,.03,.07,.07v1.62c0,.06-.15,.07-.15,0Z"/><path class="by" d="M460.34,227.91v-1.62s.03-.07,.07-.07,.07,.03,.07,.07v1.62c0,.06-.15,.07-.15,0Z"/><path class="by" d="M462.58,229.21v-1.62s.03-.07,.07-.07,.07,.03,.07,.07v1.62c0,.06-.15,.07-.15,0Z"/><path class="by" d="M464.83,230.5v-1.62s.03-.07,.07-.07,.07,.03,.07,.07v1.62c0,.06-.15,.07-.15,0Z"/><path class="by" d="M467.07,231.8v-1.62s.03-.07,.07-.07,.07,.03,.07,.07v1.62c0,.06-.15,.07-.15,0Z"/><path class="by" d="M469.32,233.09v-1.62s.03-.07,.07-.07,.07,.03,.07,.07v1.62c0,.06-.15,.07-.15,0Z"/><path class="by" d="M471.56,234.39v-1.62s.03-.07,.07-.07,.07,.03,.07,.07v1.62c0,.06-.15,.07-.15,0Z"/><path class="by" d="M473.81,235.69v-1.62s.03-.07,.07-.07,.07,.03,.07,.07v1.62c0,.06-.15,.07-.15,0Z"/><path class="by" d="M476.06,236.98v-1.62s.03-.07,.07-.07,.07,.03,.07,.07v1.62c0,.06-.15,.07-.15,0Z"/><path class="by" d="M478.3,238.28v-1.62s.03-.07,.07-.07,.07,.03,.07,.07v1.62c0,.06-.15,.07-.15,0Z"/><path class="by" d="M480.55,239.58v-1.62s.03-.07,.07-.07,.07,.03,.07,.07v1.62c0,.06-.15,.07-.15,0Z"/><path class="by" d="M482.79,240.87v-1.62s.03-.07,.07-.07,.07,.03,.07,.07v1.62c0,.06-.15,.07-.15,0Z"/></g><g id="ag"><path class="by" d="M483.02,239.46s-.05,0-.08-.02l-33.95-19.6s-.08-.08-.08-.14,.03-.11,.08-.14l4.44-2.56s.11-.03,.16,0l33.95,19.6c.08,.04,.1,.14,.06,.21-.04,.08-.14,.1-.21,.06l-33.87-19.56-4.12,2.38,33.71,19.47c.08,.04,.1,.14,.06,.21-.03,.05-.08,.08-.14,.08Z"/></g></g></g><g id="ah"><g><g><path class="bh" d="M473.08,146.57c-8.6,4.82-22.34,4.68-30.69-.31-4.11-2.46-6.15-5.63-6.14-8.79l-.11,42.97c0,3.16,2.03,6.34,6.14,8.79,8.36,4.99,22.1,5.13,30.69,.31,4.37-2.45,6.57-5.71,6.58-8.98l.11-42.97c0,3.27-2.21,6.53-6.58,8.98Z"/><ellipse class="bg" cx="457.95" cy="137.53" rx="12.57" ry="21.71" transform="translate(319.12 595.09) rotate(-89.84)"/><path class="bu" d="M458.02,149.58c-5.85,0-11.31-1.34-15.37-3.76-3.84-2.29-5.93-5.28-5.88-8.41,.04-3.19,2.28-6.19,6.31-8.45,3.98-2.23,9.23-3.46,14.8-3.46,5.85,0,11.31,1.34,15.37,3.76,3.84,2.29,5.93,5.28,5.88,8.41-.04,3.19-2.28,6.19-6.31,8.45-3.98,2.23-9.23,3.46-14.8,3.46h0Z"/><path class="cg" d="M470.06,130.74c-.59-.35-1.21-.67-1.85-.96l-5.55-2.47-9.36-.03-5.56,2.44c-.54,.24-1.06,.49-1.56,.77-6.69,3.75-6.84,9.94-.34,13.83,2.73,1.63,6.21,2.6,9.82,2.89,4.97,.4,10.19-.48,14.06-2.65,.83-.46,1.56-.97,2.18-1.5,4.44-3.75,3.85-8.93-1.84-12.33Z"/></g><g><path class="bh" d="M450.26,127.17v3.66c0,1.13,.72,2.25,2.18,3.13,2.97,1.78,7.86,1.83,10.92,.11,1.55-.87,2.34-2.03,2.34-3.19v-3.66l-15.43-.04Z"/><path class="be" d="M463.51,124.17c-2.97-1.78-7.86-1.83-10.92-.11-3.06,1.72-3.13,4.55-.15,6.32,2.97,1.78,7.86,1.83,10.92,.11,3.06-1.72,3.13-4.55,.15-6.32Z"/></g></g><g><g id="ai"><polygon class="bh" points="426.67 147.69 426.67 148.29 469.15 123.76 469.15 123.17 426.67 147.69"/><polygon class="bh" points="426.67 147.69 469.15 123.17 463.28 119.78 426.67 140.91 426.67 147.69"/><polygon class="bq" points="426.67 147.19 468.28 123.17 463.28 120.28 426.67 141.42 426.67 147.19"/></g><g><g><path class="cb" d="M463.37,119.94v-2.01c0-.05-.04-.09-.09-.09s-.09,.04-.09,.09v2.01c0,.08,.19,.08,.19,0Z"/><path class="cb" d="M446.76,129.53v-2.01c0-.05-.04-.09-.09-.09s-.09,.04-.09,.09v2.01c0,.08,.19,.08,.19,0Z"/><path class="cb" d="M443.98,131.13v-2.01c0-.05-.04-.09-.09-.09s-.09,.04-.09,.09v2.01c0,.08,.19,.08,.19,0Z"/><path class="cb" d="M441.2,132.74v-2.01c0-.05-.04-.09-.09-.09s-.09,.04-.09,.09v2.01c0,.08,.19,.08,.19,0Z"/><path class="cb" d="M438.43,134.34v-2.01c0-.05-.04-.09-.09-.09s-.09,.04-.09,.09v2.01c0,.08,.19,.08,.19,0Z"/><path class="cb" d="M435.65,135.94v-2.01c0-.05-.04-.09-.09-.09s-.09,.04-.09,.09v2.01c0,.08,.19,.08,.19,0Z"/><path class="cb" d="M432.87,137.55v-2.01c0-.05-.04-.09-.09-.09s-.09,.04-.09,.09v2.01c0,.08,.19,.08,.19,0Z"/><path class="cb" d="M430.09,139.15v-2.01c0-.05-.04-.09-.09-.09s-.09,.04-.09,.09v2.01c0,.08,.19,.08,.19,0Z"/><path class="cb" d="M427.32,140.75v-2.01c0-.05-.04-.09-.09-.09s-.09,.04-.09,.09v2.01c0,.08,.19,.08,.19,0Z"/></g><g><path class="cb" d="M468.84,123.1v-2.01c0-.05-.04-.09-.09-.09s-.09,.04-.09,.09v2.01c0,.08,.19,.08,.19,0Z"/><path class="cb" d="M466.08,121.51v-2.01c0-.05-.04-.09-.09-.09s-.09,.04-.09,.09v2.01c0,.08,.19,.08,.19,0Z"/><path class="cb" d="M452.23,132.69v-2.01c0-.05-.04-.09-.09-.09s-.09,.04-.09,.09v2.01c0,.08,.19,.08,.19,0Z"/><path class="cb" d="M449.45,134.29v-2.01c0-.05-.04-.09-.09-.09s-.09,.04-.09,.09v2.01c0,.08,.19,.08,.19,0Z"/><path class="cb" d="M446.68,135.89v-2.01c0-.05-.04-.09-.09-.09s-.09,.04-.09,.09v2.01c0,.08,.19,.08,.19,0Z"/><path class="cb" d="M443.9,137.5v-2.01c0-.05-.04-.09-.09-.09s-.09,.04-.09,.09v2.01c0,.08,.19,.08,.19,0Z"/><path class="cb" d="M441.12,139.1v-2.01c0-.05-.04-.09-.09-.09s-.09,.04-.09,.09v2.01c0,.08,.19,.08,.19,0Z"/><path class="cb" d="M438.34,140.71v-2.01c0-.05-.04-.09-.09-.09s-.09,.04-.09,.09v2.01c0,.08,.19,.08,.19,0Z"/><path class="cb" d="M435.57,142.31v-2.01c0-.05-.04-.09-.09-.09s-.09,.04-.09,.09v2.01c0,.08,.19,.08,.19,0Z"/><path class="cb" d="M432.79,143.91v-2.01c0-.05-.04-.09-.09-.09s-.09,.04-.09,.09v2.01c0,.08,.19,.08,.19,0Z"/><path class="cb" d="M430.01,145.52v-2.01c0-.05-.04-.09-.09-.09s-.09,.04-.09,.09v2.01c0,.08,.19,.08,.19,0Z"/><path class="cb" d="M427.23,147.12v-2.01c0-.05-.04-.09-.09-.09s-.09,.04-.09,.09v2.01c0,.08,.19,.08,.19,0Z"/></g><g><path class="cb" d="M466.13,124.66v-2.01c0-.05-.04-.09-.09-.09s-.09,.04-.09,.09v2.01c0,.08,.19,.08,.19,0Z"/><path class="cb" d="M463.35,126.27v-2.01c0-.05-.04-.09-.09-.09s-.09,.04-.09,.09v2.01c0,.08,.19,.08,.19,0Z"/><path class="cb" d="M460.57,127.87v-2.01c0-.05-.04-.09-.09-.09s-.09,.04-.09,.09v2.01c0,.08,.19,.08,.19,0Z"/><path class="cb" d="M457.8,129.47v-2.01c0-.05-.04-.09-.09-.09s-.09,.04-.09,.09v2.01c0,.08,.19,.08,.19,0Z"/><path class="cb" d="M455.02,131.08v-2.01c0-.05-.04-.09-.09-.09s-.09,.04-.09,.09v2.01c0,.08,.19,.08,.19,0Z"/></g><g><path class="cb" d="M460.63,121.49v-2.01c0-.05-.04-.09-.09-.09s-.09,.04-.09,.09v2.01c0,.08,.19,.08,.19,0Z"/><path class="cb" d="M457.85,123.09v-2.01c0-.05-.04-.09-.09-.09s-.09,.04-.09,.09v2.01c0,.08,.19,.08,.19,0Z"/><path class="cb" d="M455.07,124.69v-2.01c0-.05-.04-.09-.09-.09s-.09,.04-.09,.09v2.01c0,.08,.19,.08,.19,0Z"/><path class="cb" d="M452.29,126.3v-2.01c0-.05-.04-.09-.09-.09s-.09,.04-.09,.09v2.01c0,.08,.19,.08,.19,0Z"/><path class="cb" d="M449.52,127.9v-2.01c0-.05-.04-.09-.09-.09s-.09,.04-.09,.09v2.01c0,.08,.19,.08,.19,0Z"/></g></g><g id="aj"><path class="cb" d="M430.06,143.58c-.07,0-.13-.03-.17-.1-.05-.09-.02-.21,.07-.27l38.55-22.26-5.1-2.95-38.75,22.37c-.09,.05-.21,.02-.27-.07-.05-.09-.02-.21,.07-.27l38.85-22.43c.06-.04,.13-.04,.19,0l5.49,3.17c.06,.03,.1,.1,.1,.17s-.04,.13-.1,.17l-38.85,22.43s-.06,.03-.1,.03Z"/></g></g><g><g id="ak"><polygon id="al" class="bh" points="426.95 210.63 414.97 203.71 414.97 127.02 426.95 133.93 426.95 210.63"/><polygon class="cg" points="419.94 156.29 419.94 201.8 421.44 202.66 421.44 157.16 419.94 156.29"/><polygon id="am" class="bt" points="437.69 204.43 426.95 210.63 426.95 133.93 437.69 127.73 437.69 204.43"/><polygon id="an" class="bj" points="426.95 133.93 414.97 127.02 425.71 120.82 437.69 127.73 426.95 133.93"/></g><polygon class="bq" points="433.69 134.12 433.69 137.98 431.39 139.31 431.39 135.45 433.69 134.12"/><polygon class="bq" points="433.69 145.2 433.69 149.07 431.39 150.4 431.39 146.53 433.69 145.2"/><polygon class="bq" points="433.69 156.29 433.69 160.16 431.39 161.49 431.39 157.62 433.69 156.29"/><polygon class="bq" points="433.69 167.38 433.69 171.24 431.39 172.57 431.39 168.71 433.69 167.38"/><g><polygon class="ca" points="418.85 137.1 418.85 146.19 423.04 148.61 423.04 139.52 418.85 137.1"/><polygon class="br" points="418.56 145.86 423.05 148.45 423.05 149.07 418.5 146.45 418.56 145.86"/></g><polygon class="bq" points="433.69 178.47 433.69 182.33 431.39 183.66 431.39 179.79 433.69 178.47"/><polygon class="bq" points="433.69 189.55 433.69 193.42 431.39 194.75 431.39 190.88 433.69 189.55"/></g><g><g><path class="bh" d="M408.74,183.72c-8.6,4.82-22.34,4.68-30.69-.31-4.11-2.46-6.15-5.63-6.14-8.79l-.11,42.97c0,3.16,2.03,6.34,6.14,8.79,8.36,4.99,22.1,5.13,30.69,.31,4.37-2.45,6.57-5.71,6.58-8.98l.11-42.97c0,3.27-2.21,6.53-6.58,8.98Z"/><ellipse class="bg" cx="393.61" cy="174.68" rx="12.57" ry="21.71" transform="translate(217.82 567.79) rotate(-89.84)"/><path class="bu" d="M393.69,186.72c-5.85,0-11.31-1.34-15.37-3.76-3.84-2.29-5.93-5.28-5.88-8.41,.04-3.19,2.28-6.19,6.31-8.45,3.98-2.23,9.23-3.46,14.8-3.46,5.85,0,11.31,1.34,15.37,3.76,3.84,2.29,5.93,5.28,5.88,8.41-.04,3.19-2.28,6.19-6.31,8.45-3.98,2.23-9.23,3.46-14.8,3.46h0Z"/><path class="cg" d="M405.72,167.88c-.59-.35-1.21-.67-1.85-.96l-5.55-2.47-9.36-.03-5.56,2.44c-.54,.24-1.06,.49-1.56,.77-6.69,3.75-6.84,9.94-.34,13.83,2.73,1.63,6.21,2.6,9.82,2.89,4.97,.4,10.19-.48,14.06-2.65,.83-.46,1.56-.97,2.18-1.5,4.44-3.75,3.85-8.93-1.84-12.33Z"/></g><g><path class="bh" d="M385.92,164.31v3.66c0,1.13,.72,2.25,2.18,3.13,2.97,1.78,7.86,1.83,10.92,.11,1.55-.87,2.34-2.03,2.34-3.19v-3.66l-15.43-.04Z"/><path class="be" d="M399.17,161.32c-2.97-1.78-7.86-1.83-10.92-.11-3.06,1.72-3.13,4.55-.15,6.32,2.97,1.78,7.86,1.83,10.92,.11,3.06-1.72,3.13-4.55,.15-6.32Z"/></g></g><g><g id="ao"><polygon id="ap" class="bh" points="385.46 171.48 423.65 149.44 423.65 150.03 385.46 172.08 385.46 171.48"/><polygon id="aq" class="bq" points="379.59 168.69 385.46 172.08 385.46 171.48 379.59 168.09 379.59 168.69"/><polygon id="ar" class="bh" points="385.46 171.48 423.65 149.44 417.78 146.05 379.59 168.09 385.46 171.48"/><polygon class="bq" points="422.77 149.44 417.78 146.55 380.46 168.09 385.46 170.98 422.77 149.44"/></g><g><path class="cb" d="M380,168.07v-2.01c0-.05-.04-.09-.09-.09s-.09,.04-.09,.09v2.01c0,.08,.19,.08,.19,0Z"/><path class="cb" d="M416.24,147.15v-2.01c0-.05-.04-.09-.09-.09s-.09,.04-.09,.09v2.01c0,.08,.19,.08,.19,0Z"/><path class="cb" d="M413.47,148.75v-2.01c0-.05-.04-.09-.09-.09s-.09,.04-.09,.09v2.01c0,.08,.19,.08,.19,0Z"/><path class="cb" d="M410.69,150.35v-2.01c0-.05-.04-.09-.09-.09s-.09,.04-.09,.09v2.01c0,.08,.19,.08,.19,0Z"/><path class="cb" d="M407.91,151.96v-2.01c0-.05-.04-.09-.09-.09s-.09,.04-.09,.09v2.01c0,.08,.19,.08,.19,0Z"/><path class="cb" d="M405.13,153.56v-2.01c0-.05-.04-.09-.09-.09s-.09,.04-.09,.09v2.01c0,.08,.19,.08,.19,0Z"/><path class="cb" d="M402.35,155.17v-2.01c0-.05-.04-.09-.09-.09s-.09,.04-.09,.09v2.01c0,.08,.19,.08,.19,0Z"/><path class="cb" d="M399.58,156.77v-2.01c0-.05-.04-.09-.09-.09s-.09,.04-.09,.09v2.01c0,.08,.19,.08,.19,0Z"/><path class="cb" d="M396.8,158.37v-2.01c0-.05-.04-.09-.09-.09s-.09,.04-.09,.09v2.01c0,.08,.19,.08,.19,0Z"/><path class="cb" d="M394.02,159.98v-2.01c0-.05-.04-.09-.09-.09s-.09,.04-.09,.09v2.01c0,.08,.19,.08,.19,0Z"/><path class="cb" d="M391.24,161.58v-2.01c0-.05-.04-.09-.09-.09s-.09,.04-.09,.09v2.01c0,.08,.19,.08,.19,0Z"/><path class="cb" d="M388.47,163.18v-2.01c0-.05-.04-.09-.09-.09s-.09,.04-.09,.09v2.01c0,.08,.19,.08,.19,0Z"/><path class="cb" d="M385.69,164.79v-2.01c0-.05-.04-.09-.09-.09s-.09,.04-.09,.09v2.01c0,.08,.19,.08,.19,0Z"/><path class="cb" d="M382.91,166.39v-2.01c0-.05-.04-.09-.09-.09s-.09,.04-.09,.09v2.01c0,.08,.19,.08,.19,0Z"/></g><g><path class="cb" d="M385.47,171.23v-2.01c0-.05-.04-.09-.09-.09s-.09,.04-.09,.09v2.01c0,.08,.19,.08,.19,0Z"/><path class="cb" d="M382.71,169.64v-2.01c0-.05-.04-.09-.09-.09s-.09,.04-.09,.09v2.01c0,.08,.19,.08,.19,0Z"/><path class="cb" d="M421.72,150.31v-2.01c0-.05-.04-.09-.09-.09s-.09,.04-.09,.09v2.01c0,.08,.19,.08,.19,0Z"/><path class="cb" d="M418.94,151.91v-2.01c0-.05-.04-.09-.09-.09s-.09,.04-.09,.09v2.01c0,.08,.19,.08,.19,0Z"/><path class="cb" d="M416.16,153.51v-2.01c0-.05-.04-.09-.09-.09s-.09,.04-.09,.09v2.01c0,.08,.19,.08,.19,0Z"/><path class="cb" d="M413.38,155.12v-2.01c0-.05-.04-.09-.09-.09s-.09,.04-.09,.09v2.01c0,.08,.19,.08,.19,0Z"/><path class="cb" d="M410.6,156.72v-2.01c0-.05-.04-.09-.09-.09s-.09,.04-.09,.09v2.01c0,.08,.19,.08,.19,0Z"/><path class="cb" d="M407.83,158.33v-2.01c0-.05-.04-.09-.09-.09s-.09,.04-.09,.09v2.01c0,.08,.19,.08,.19,0Z"/><path class="cb" d="M405.05,159.93v-2.01c0-.05-.04-.09-.09-.09s-.09,.04-.09,.09v2.01c0,.08,.19,.08,.19,0Z"/><path class="cb" d="M402.27,161.53v-2.01c0-.05-.04-.09-.09-.09s-.09,.04-.09,.09v2.01c0,.08,.19,.08,.19,0Z"/><path class="cb" d="M399.49,163.14v-2.01c0-.05-.04-.09-.09-.09s-.09,.04-.09,.09v2.01c0,.08,.19,.08,.19,0Z"/><path class="cb" d="M396.72,164.74v-2.01c0-.05-.04-.09-.09-.09s-.09,.04-.09,.09v2.01c0,.08,.19,.08,.19,0Z"/><path class="cb" d="M393.94,166.34v-2.01c0-.05-.04-.09-.09-.09s-.09,.04-.09,.09v2.01c0,.08,.19,.08,.19,0Z"/><path class="cb" d="M391.16,167.95v-2.01c0-.05-.04-.09-.09-.09s-.09,.04-.09,.09v2.01c0,.08,.19,.08,.19,0Z"/><path class="cb" d="M388.38,169.55v-2.01c0-.05-.04-.09-.09-.09s-.09,.04-.09,.09v2.01c0,.08,.19,.08,.19,0Z"/></g><g id="as"><path class="cb" d="M385.33,169.41s-.07,0-.1-.03l-5.49-3.17c-.06-.03-.1-.1-.1-.17s.04-.13,.1-.17l38.07-21.98c.09-.05,.21-.02,.27,.07,.05,.09,.02,.21-.07,.27l-37.78,21.81,5.1,2.94,37.98-21.92c.09-.05,.21-.02,.27,.07,.05,.09,.02,.21-.07,.27l-38.07,21.98s-.06,.03-.1,.03Z"/></g></g></g></g><g id="at"><g><path class="bh" d="M215.52,63.49l-.1,34.09c-.02,5.34,3.43,10.69,10.36,14.83,14.09,8.42,37.26,8.66,51.76,.52,7.37-4.13,11.07-9.63,11.09-15.15l.1-34.09-73.2-.2Z"/><path class="ci" d="M262.85,63.62h.25v54.28c-.08,.02-.17,.03-.25,.04V63.62Zm21.65,43.9c.09-.09,.17-.19,.25-.29V63.68h-.25v43.84Zm-64.95-.12c.08,.09,.17,.18,.25,.27V63.5h-.25v43.9Zm21.65,10.51c.08,.01,.17,.03,.25,.04V63.56h-.25v54.35Z"/><path class="bj" d="M285.99,55.49c-2.56-3.67-6.09-5.87-7.78-6.92-9.69-6.03-26.19-8.16-39.24-5.05-9.95,2.37-14.42,5.66-17.82,8.56-2.53,2.16-3.92,4.98-4.52,6.19-.87,1.77-1.01,3.69-1.11,5.23-.02,5.34,3.43,10.69,10.36,14.83,14.09,8.42,37.26,8.66,51.76,.52,7.37-4.13,11.07-9.63,11.09-15.18-.14-2.09-.3-4.69-2.73-8.17Z"/><path class="bf" d="M271.31,81.36c-15.46,4.81-31.09,4.32-45.43-3.04,15.1,8.54,32.85,8.7,48.69,2.36,7.37-3.26,13.97-8.9,14.16-17.02-.6,9.06-9.08,14.84-17.42,17.7Z"/></g><ellipse id="aw" class="cb" cx="252.07" cy="58.42" rx="2.03" ry="1.17"/><g><path class="bu" d="M279.33,77.81l-3.65-2.11-2.71,1.56,3.65,2.11c.34-.18,.68-.35,1.01-.54,.59-.33,1.15-.68,1.7-1.03Z"/><g><g><path class="bu" d="M280.97,109.45s-.1-.01-.15-.03c-.2-.08-.41-.34-.41-.6v-34.05c0-.12,.05-.21,.14-.26,.1-.06,.23-.05,.35,.03l.85,.49c.2,.12,.35,.36,.35,.57v32.3c0,.37-.11,.68-.32,.88l-.62,.6c-.05,.05-.12,.08-.19,.08Zm-.28-34.71s0,34.08,0,34.08c0,.1,.08,.23,.18,.31,.07,.05,.11,.05,.11,.05l.62-.6c.15-.15,.24-.39,.24-.69v-32.3c0-.1-.09-.26-.22-.33l-.85-.49s-.06-.03-.07-.03Z"/><path class="bu" d="M280.54,78.66s-1.15-.65-1.15-.65c-.03-.02-.04-.06-.03-.09,.02-.03,.06-.04,.09-.03l1.11,.64s.04,.06,.03,.09c-.01,.02-.04,.03-.06,.03Z"/><path class="bu" d="M280.54,81.8s-1.15-.65-1.15-.65c-.03-.02-.04-.06-.03-.09,.02-.03,.06-.04,.09-.03l1.11,.64s.04,.06,.03,.09c-.01,.02-.04,.03-.06,.03Z"/><path class="bu" d="M280.54,84.94s-1.15-.65-1.15-.65c-.03-.02-.04-.06-.03-.09,.02-.03,.06-.04,.09-.03l1.11,.64s.04,.06,.03,.09c-.01,.02-.04,.03-.06,.03Z"/><path class="bu" d="M280.54,88.08s-1.15-.65-1.15-.65c-.03-.02-.04-.06-.03-.09,.02-.03,.06-.04,.09-.03l1.11,.64s.04,.06,.03,.09c-.01,.02-.04,.03-.06,.03Z"/><path class="bu" d="M280.54,91.22s-1.15-.65-1.15-.65c-.03-.02-.04-.06-.03-.09,.02-.03,.06-.04,.09-.03l1.11,.64s.04,.06,.03,.09c-.01,.02-.04,.03-.06,.03Z"/><path class="bu" d="M280.54,94.37s-1.15-.65-1.15-.65c-.03-.02-.04-.06-.03-.09,.02-.03,.06-.04,.09-.03l1.11,.64s.04,.06,.03,.09c-.01,.02-.04,.03-.06,.03Z"/><path class="bu" d="M280.54,97.51s-1.15-.65-1.15-.65c-.03-.02-.04-.06-.03-.09,.02-.03,.06-.04,.09-.03l1.11,.64s.04,.06,.03,.09c-.01,.02-.04,.03-.06,.03Z"/><path class="bu" d="M280.54,100.65s-1.15-.65-1.15-.65c-.03-.02-.04-.06-.03-.09,.02-.03,.06-.04,.09-.03l1.11,.64s.04,.06,.03,.09c-.01,.02-.04,.03-.06,.03Z"/><path class="bu" d="M280.54,103.79s-1.15-.65-1.15-.65c-.03-.02-.04-.06-.03-.09,.02-.03,.06-.04,.09-.03l1.11,.64s.04,.06,.03,.09c-.01,.02-.04,.03-.06,.03Z"/><path class="bu" d="M280.54,106.94s-1.15-.65-1.15-.65c-.03-.02-.04-.06-.03-.09,.02-.03,.06-.04,.09-.03l1.11,.64s.04,.06,.03,.09c-.01,.02-.04,.03-.06,.03Z"/></g><g><path class="bu" d="M277.95,80.32s-.09-.02-.12-.07c-.04-.07-.02-.15,.05-.19l2.56-1.48c.07-.04,.15-.02,.19,.05,.04,.07,.02,.15-.05,.19l-2.56,1.48s-.05,.02-.07,.02Z"/><path class="bu" d="M277.95,81.7s-.09-.02-.12-.07c-.04-.07-.02-.15,.05-.19l2.56-1.48c.07-.04,.15-.01,.19,.05,.04,.07,.02,.15-.05,.19l-2.56,1.48s-.05,.02-.07,.02Z"/><path class="bu" d="M277.95,83.08s-.09-.02-.12-.07c-.04-.07-.02-.15,.05-.19l2.56-1.48c.07-.04,.15-.02,.19,.05s.02,.15-.05,.19l-2.56,1.48s-.05,.02-.07,.02Z"/><path class="bu" d="M277.95,84.47s-.09-.02-.12-.07c-.04-.07-.02-.15,.05-.19l2.56-1.48c.07-.04,.15-.02,.19,.05,.04,.07,.02,.15-.05,.19l-2.56,1.48s-.05,.02-.07,.02Z"/><path class="bu" d="M277.95,85.85s-.09-.02-.12-.07c-.04-.07-.02-.15,.05-.19l2.56-1.48c.07-.04,.15-.02,.19,.05s.02,.15-.05,.19l-2.56,1.48s-.05,.02-.07,.02Z"/><path class="bu" d="M277.95,87.23s-.09-.02-.12-.07c-.04-.07-.02-.15,.05-.19l2.56-1.48c.07-.04,.15-.02,.19,.05s.02,.15-.05,.19l-2.56,1.48s-.05,.02-.07,.02Z"/><path class="bu" d="M277.95,88.61s-.09-.02-.12-.07c-.04-.07-.02-.15,.05-.19l2.56-1.48c.07-.04,.15-.02,.19,.05s.02,.15-.05,.19l-2.56,1.48s-.05,.02-.07,.02Z"/><path class="bu" d="M277.95,90s-.09-.02-.12-.07c-.04-.07-.02-.15,.05-.19l2.56-1.48c.07-.04,.15-.02,.19,.05s.02,.15-.05,.19l-2.56,1.48s-.05,.02-.07,.02Z"/><path class="bu" d="M277.95,91.38s-.09-.02-.12-.07c-.04-.07-.02-.15,.05-.19l2.56-1.48c.07-.04,.15-.02,.19,.05s.02,.15-.05,.19l-2.56,1.48s-.05,.02-.07,.02Z"/><path class="bu" d="M277.95,92.76s-.09-.02-.12-.07c-.04-.07-.02-.15,.05-.19l2.56-1.48c.07-.04,.15-.02,.19,.05s.02,.15-.05,.19l-2.56,1.48s-.05,.02-.07,.02Z"/><path class="bu" d="M277.95,94.15s-.09-.02-.12-.07c-.04-.07-.02-.15,.05-.19l2.56-1.48c.07-.04,.15-.02,.19,.05,.04,.07,.02,.15-.05,.19l-2.56,1.48s-.05,.02-.07,.02Z"/><path class="bu" d="M277.95,95.53s-.09-.02-.12-.07c-.04-.07-.02-.15,.05-.19l2.56-1.48c.07-.04,.15-.02,.19,.05s.02,.15-.05,.19l-2.56,1.48s-.05,.02-.07,.02Z"/><path class="bu" d="M277.95,96.91s-.09-.02-.12-.07c-.04-.07-.02-.15,.05-.19l2.56-1.48c.07-.04,.15-.01,.19,.05,.04,.07,.02,.15-.05,.19l-2.56,1.48s-.05,.02-.07,.02Z"/><path class="bu" d="M277.95,98.29s-.09-.02-.12-.07c-.04-.07-.02-.15,.05-.19l2.56-1.48c.07-.04,.15-.01,.19,.05,.04,.07,.02,.15-.05,.19l-2.56,1.48s-.05,.02-.07,.02Z"/><path class="bu" d="M277.95,99.68s-.09-.02-.12-.07c-.04-.07-.02-.15,.05-.19l2.56-1.48c.07-.04,.15-.02,.19,.05,.04,.07,.02,.15-.05,.19l-2.56,1.48s-.05,.02-.07,.02Z"/><path class="bu" d="M277.95,101.06s-.09-.02-.12-.07c-.04-.07-.02-.15,.05-.19l2.56-1.48c.07-.04,.15-.02,.19,.05,.04,.07,.02,.15-.05,.19l-2.56,1.48s-.05,.02-.07,.02Z"/><path class="bu" d="M277.95,102.44s-.09-.02-.12-.07c-.04-.07-.02-.15,.05-.19l2.56-1.48c.07-.04,.15-.02,.19,.05s.02,.15-.05,.19l-2.56,1.48s-.05,.02-.07,.02Z"/><path class="bu" d="M277.95,103.83s-.09-.02-.12-.07c-.04-.07-.02-.15,.05-.19l2.56-1.48c.07-.04,.15-.02,.19,.05,.04,.07,.02,.15-.05,.19l-2.56,1.48s-.05,.02-.07,.02Z"/><path class="bu" d="M277.95,105.21s-.09-.02-.12-.07c-.04-.07-.02-.15,.05-.19l2.56-1.48c.07-.04,.15-.02,.19,.05,.04,.07,.02,.15-.05,.19l-2.56,1.48s-.05,.02-.07,.02Z"/><path class="bu" d="M277.95,106.59s-.09-.02-.12-.07c-.04-.07-.02-.15,.05-.19l2.56-1.48c.07-.04,.15-.02,.19,.05s.02,.15-.05,.19l-2.56,1.48s-.05,.02-.07,.02Z"/><path class="bu" d="M277.95,107.98s-.09-.02-.12-.07c-.04-.07-.02-.15,.05-.19l2.56-1.48c.07-.04,.15-.02,.19,.05s.02,.15-.05,.19l-2.56,1.48s-.05,.02-.07,.02Z"/><path class="bu" d="M277.95,109.36s-.09-.02-.12-.07c-.04-.07-.02-.15,.05-.19l2.56-1.48c.07-.04,.15-.02,.19,.05,.04,.07,.02,.15-.05,.19l-2.56,1.48s-.05,.02-.07,.02Z"/></g><g><path class="bu" d="M278.38,110.95s-.1-.01-.15-.03c-.2-.08-.41-.34-.41-.6v-34.05c0-.12,.05-.21,.14-.26,.1-.06,.23-.05,.35,.03l.85,.49c.2,.12,.35,.36,.35,.57v32.3c0,.37-.11,.68-.32,.88l-.62,.6c-.05,.05-.12,.08-.19,.08Zm-.28-34.71s0,34.08,0,34.08c0,.1,.08,.23,.18,.31,.07,.05,.1,.05,.11,.05l.62-.6c.15-.15,.24-.39,.24-.69v-32.3c0-.1-.09-.26-.22-.33l-.85-.49s-.06-.03-.07-.03Z"/><path class="bu" d="M277.95,80.15s-1.15-.65-1.15-.65c-.03-.02-.04-.06-.03-.09,.02-.03,.06-.04,.09-.03l1.11,.64s.04,.06,.03,.09c-.01,.02-.04,.03-.06,.03Z"/><path class="bu" d="M277.95,83.29s-1.15-.65-1.15-.65c-.03-.02-.04-.06-.03-.09,.02-.03,.06-.04,.09-.03l1.11,.64s.04,.06,.03,.09c-.01,.02-.04,.03-.06,.03Z"/><path class="bu" d="M277.95,86.44s-1.15-.65-1.15-.65c-.03-.02-.04-.06-.03-.09,.02-.03,.06-.04,.09-.03l1.11,.64s.04,.06,.03,.09c-.01,.02-.04,.03-.06,.03Z"/><path class="bu" d="M277.95,89.58s-1.15-.65-1.15-.65c-.03-.02-.04-.06-.03-.09,.02-.03,.06-.04,.09-.03l1.11,.64s.04,.06,.03,.09c-.01,.02-.04,.03-.06,.03Z"/><path class="bu" d="M277.95,92.72s-1.15-.65-1.15-.65c-.03-.02-.04-.06-.03-.09,.02-.03,.06-.04,.09-.03l1.11,.64s.04,.06,.03,.09c-.01,.02-.04,.03-.06,.03Z"/><path class="bu" d="M277.95,95.86s-1.15-.65-1.15-.65c-.03-.02-.04-.06-.03-.09,.02-.03,.06-.04,.09-.03l1.11,.64s.04,.06,.03,.09c-.01,.02-.04,.03-.06,.03Z"/><path class="bu" d="M277.95,99.01s-1.15-.65-1.15-.65c-.03-.02-.04-.06-.03-.09,.02-.03,.06-.04,.09-.03l1.11,.64s.04,.06,.03,.09c-.01,.02-.04,.03-.06,.03Z"/><path class="bu" d="M277.95,102.15s-1.15-.65-1.15-.65c-.03-.02-.04-.06-.03-.09,.02-.03,.06-.04,.09-.03l1.11,.64s.04,.06,.03,.09c-.01,.02-.04,.03-.06,.03Z"/><path class="bu" d="M277.95,105.29s-1.15-.65-1.15-.65c-.03-.02-.04-.06-.03-.09,.02-.03,.06-.04,.09-.03l1.11,.64s.04,.06,.03,.09c-.01,.02-.04,.03-.06,.03Z"/><path class="bu" d="M277.95,108.43s-1.15-.65-1.15-.65c-.03-.02-.04-.06-.03-.09,.02-.03,.06-.04,.09-.03l1.11,.64s.04,.06,.03,.09c-.01,.02-.04,.03-.06,.03Z"/></g></g></g></g><g><g><path class="bn" d="M195.98,319.85c2.41-3.4,3.83-6.65,4.29-9.83,.46-3.16,.36-8.32-.31-15.45,.1,1.4,.07,2.77-.05,4.19-.14,1.45-.43,2.92-.82,4.39-1.37,5.09-3.54,9.84-6.51,14.27-1.21,1.81-2.24,3.69-3.13,5.66-1.08,2.36-1.81,4.85-2.12,7.4-.17,1.35-.12,2.63,.14,3.86,.26,1.21,.7,2.36,1.37,3.45,.1-4.51,.72-7.79,1.86-9.84,1.13-2.03,2.89-4.72,5.28-8.1Z"/><path class="cg" d="M344.92,289.74c-5.09-3.18-10.44-5.88-16.05-8.1-5.76-2.27-11.69-4.07-17.77-5.4-5.83-1.25-11.62-2.7-17.36-4.39-5.59-1.64-10.99-3.76-16.2-6.36-5.42-2.75-10.7-5.74-15.81-8.97-5.13-3.25-10.32-6.41-15.57-9.5-4.77-2.8-9.84-4.89-15.16-6.29-3.47-.92-6.99-1.69-10.53-2.36-4.31-.82-8.56-.82-12.8,0-6.36,1.21-11.86,4.1-16.49,8.63-2.63,2.63-4.22,5.54-4.72,8.77,.05,.22,.07,.41,.1,.6,.17,.67,.34,1.33,.53,2,1.59,6.12,3.59,12.1,6,17.96,1.16,2.8,2.43,5.54,3.86,8.2,1.66,3.06,2.63,6.22,2.96,9.42l.05,.6c.67,7.14,.77,12.29,.31,15.45-.46,3.18-1.88,6.44-4.29,9.83-2.39,3.38-4.15,6.07-5.28,8.1-1.13,2.05-1.76,5.33-1.86,9.84,3.4,5.76,8.49,8.99,15.24,9.67,3.83,.36,7.81,.22,11.96-.43l3.98-.77c2.99-1.06,5.98-2.19,8.94-3.35,2.12-.82,4.15-1.78,6.1-2.89,3.33-1.86,6.75-3.62,10.24-5.21,5.35-2.43,10.94-4.17,16.75-5.11,5.88-.94,11.81-1.11,17.79-.46,5.71,.6,11.4,1.28,17.07,2.12,6.29,.89,12.61,1.09,18.95,.58,6.34-.51,12.53-1.86,18.56-4l7.4-3.91c4.48-2.72,8.53-6,12.15-9.88,.39-.43,1.3-1.95,2.7-4.56,.53-.94,.89-1.93,1.11-2.97-.07-.34-.14-.68-.24-1.01-.82-3.3-2.07-6.1-3.79-8.44-1.69-2.31-4.63-4.8-8.82-7.42Zm-148.68-35.43c-.24,.31-.53,.55-.92,.72l-.41-.17c-.31-.14-.53-.29-.67-.43l-.07,.1s-.05-.31-.05-.82,.14-.82,.41-.96c.36-.05,.63-.1,.8-.12,.51,.19,.92,.51,1.21,.96,0,.22-.1,.46-.29,.72Zm129.37,37.44c.36-.05,.63-.1,.77-.12,.53,.19,.92,.51,1.21,.96,0,.19-.1,.43-.29,.72-.22,.31-.53,.55-.92,.72l-.41-.19c-.29-.12-.51-.27-.67-.41l-.05,.07s-.07-.31-.07-.8c0-.53,.14-.84,.43-.96Zm-10.32,8.08c.53,.19,.92,.51,1.21,.96,0,.19-.1,.43-.29,.72-.22,.31-.53,.55-.92,.72l-.41-.19c-.29-.12-.51-.27-.67-.41l-.05,.07s-.07-.31-.07-.8c0-.53,.14-.84,.43-.96,.36-.05,.63-.1,.77-.12Zm-3.66-15.31c.36-.05,.63-.1,.77-.12,.53,.19,.92,.51,1.21,.96,0,.19-.1,.43-.29,.72-.22,.31-.53,.55-.92,.72l-.41-.19c-.29-.12-.51-.27-.68-.41l-.05,.07s-.07-.31-.07-.8c0-.53,.14-.84,.43-.96Zm-13.21,12.41c.53,.19,.92,.51,1.21,.96,0,.19-.1,.43-.29,.72-.22,.31-.53,.55-.92,.72l-.41-.19c-.29-.12-.51-.27-.67-.41l-.05,.07s-.07-.31-.07-.8c0-.53,.14-.84,.43-.96,.36-.05,.63-.1,.77-.12Zm-4.63-13.86c.36-.05,.63-.1,.77-.12,.53,.19,.92,.51,1.21,.96,0,.19-.1,.43-.29,.72-.22,.31-.53,.55-.92,.72l-.41-.19c-.29-.12-.51-.27-.68-.41l-.05,.07s-.07-.31-.07-.8c0-.53,.14-.84,.43-.96Zm-10.73,12.9c.51,.19,.92,.51,1.21,.96,0,.19-.1,.43-.29,.72-.24,.31-.53,.55-.92,.72l-.41-.19c-.31-.12-.53-.26-.68-.41l-.07,.07s-.05-.31-.05-.8c0-.53,.14-.84,.41-.96,.36-.05,.63-.1,.8-.12Zm-4.65-10.49c.36-.05,.63-.1,.8-.12,.51,.19,.92,.51,1.21,.96,0,.19-.1,.43-.29,.72-.24,.31-.53,.55-.92,.72l-.41-.19c-.31-.12-.53-.27-.68-.41l-.07,.07s-.05-.31-.05-.8c0-.53,.14-.84,.41-.96Zm-4.82-12.54c.36-.05,.63-.1,.8-.12,.51,.19,.92,.51,1.21,.96,0,.19-.1,.43-.29,.72-.24,.31-.53,.55-.92,.72l-.41-.19c-.31-.12-.53-.27-.68-.41l-.07,.07s-.05-.31-.05-.8c0-.53,.14-.84,.41-.96Zm-6.44,9.04c.51,.19,.92,.51,1.21,.96,0,.19-.1,.43-.29,.72-.24,.31-.53,.55-.92,.72l-.41-.19c-.31-.12-.53-.27-.68-.41l-.07,.07s-.05-.31-.05-.8c0-.53,.14-.84,.41-.96,.36-.05,.63-.1,.8-.12Zm-14.22-10.51c0-.51,.14-.82,.41-.94,.36-.05,.63-.1,.8-.14,.51,.22,.92,.53,1.21,.96,0,.22-.1,.46-.29,.72-.24,.34-.53,.58-.92,.75l-.41-.19c-.31-.12-.53-.27-.68-.43l-.07,.1s-.05-.31-.05-.82Zm2.6,17.5c-.24,.31-.53,.55-.92,.72l-.41-.19c-.31-.12-.53-.27-.67-.41l-.07,.07s-.05-.31-.05-.8c0-.53,.14-.84,.41-.96,.36-.05,.63-.1,.79-.12,.51,.19,.92,.51,1.21,.96,0,.19-.1,.43-.29,.72Zm-4.12-33.34c.36-.05,.63-.1,.79-.12,.51,.19,.92,.51,1.21,.96,0,.22-.1,.46-.29,.72-.24,.31-.53,.55-.92,.72l-.41-.17c-.31-.14-.53-.29-.67-.43l-.07,.1s-.05-.31-.05-.82,.14-.82,.41-.96Zm-13.5,18.27c.36-.05,.63-.1,.8-.12,.51,.19,.92,.51,1.21,.96,0,.19-.1,.43-.29,.72-.24,.31-.53,.55-.92,.72l-.41-.19c-.31-.12-.53-.26-.67-.41l-.07,.07s-.05-.31-.05-.8c0-.53,.14-.84,.41-.96Zm-7.4-20.32c.51,.19,.92,.51,1.21,.96,0,.22-.1,.46-.29,.72-.24,.31-.53,.55-.92,.72l-.41-.17c-.31-.14-.53-.29-.67-.43l-.07,.1s-.05-.31-.05-.82,.14-.82,.41-.96c.36-.05,.63-.1,.79-.12Zm-8.61,65.33c-.31-.12-.53-.27-.67-.41l-.07,.07s-.05-.31-.05-.8c0-.53,.14-.84,.41-.96,.36-.05,.63-.1,.8-.12,.51,.19,.92,.51,1.21,.96,0,.19-.1,.43-.29,.72-.24,.31-.53,.55-.92,.72l-.41-.19Zm-16.66-57.15s-.05-.31-.05-.82,.14-.82,.41-.96c.36-.05,.63-.1,.79-.12,.51,.19,.92,.51,1.21,.96,0,.22-.1,.46-.29,.72-.24,.31-.53,.55-.92,.72l-.41-.17c-.31-.14-.53-.29-.67-.43l-.07,.1Zm10.97,16.97c.36-.05,.63-.1,.8-.12,.51,.19,.92,.51,1.21,.96,0,.19-.1,.43-.29,.72-.24,.31-.53,.55-.92,.72l-.41-.19c-.31-.12-.53-.26-.67-.41l-.07,.07s-.05-.31-.05-.8c0-.53,.14-.84,.41-.96Zm6.34-14.49c0-.51,.14-.8,.41-.92,.36-.02,.63-.07,.8-.1,.51,.05,.84,.12,.96,.17,.14,.1,.24,.39,.24,.92l-.12,.53c-.24,.36-.6,.6-1.09,.72-.58-.17-.87-.29-.87-.29-.24-.17-.34-.51-.34-1.04Zm2.34,30.88c.36-.05,.63-.1,.79-.12,.51,.19,.92,.51,1.21,.96,0,.19-.1,.43-.29,.72-.24,.31-.53,.55-.92,.72l-.41-.19c-.31-.12-.53-.27-.67-.41l-.07,.07s-.05-.31-.05-.8c0-.53,.14-.84,.41-.96Zm-16.56,1.33l-.41-.19c-.31-.12-.53-.27-.68-.41l-.07,.07s-.05-.31-.05-.8c0-.53,.14-.84,.41-.96,.36-.05,.63-.1,.8-.12,.51,.19,.92,.51,1.21,.96,0,.19-.1,.43-.29,.72-.24,.31-.53,.55-.92,.72Zm.55,17.65c-.31-.12-.53-.27-.68-.41l-.07,.07s-.05-.31-.05-.8c0-.53,.14-.84,.41-.96,.36-.05,.63-.1,.8-.12,.51,.19,.92,.51,1.21,.96,0,.19-.1,.43-.29,.72-.24,.31-.53,.55-.92,.72l-.41-.19Zm9.26-72.92c.36-.05,.63-.1,.8-.12,.51,.19,.92,.51,1.21,.96,0,.22-.1,.46-.29,.72-.24,.31-.53,.55-.92,.72l-.41-.17c-.31-.14-.53-.29-.68-.43l-.07,.1s-.05-.31-.05-.82,.14-.82,.41-.96Zm-7.23,7.23c.36-.05,.63-.1,.8-.12,.51,.19,.92,.51,1.21,.96,0,.22-.1,.46-.29,.72-.24,.31-.53,.55-.92,.72l-.41-.17c-.31-.14-.53-.29-.68-.43l-.07,.1s-.05-.31-.05-.82,.14-.82,.41-.96Zm-10.12-4.34c.36-.05,.63-.1,.79-.12,.51,.19,.92,.51,1.21,.96,0,.22-.1,.46-.29,.72-.24,.31-.53,.55-.92,.72l-.41-.17c-.31-.14-.53-.29-.67-.43l-.07,.1s-.05-.31-.05-.82,.14-.82,.41-.96Zm-.7,31.89c-.24,.31-.53,.55-.92,.72l-.41-.19c-.31-.12-.53-.26-.67-.41l-.07,.07s-.05-.31-.05-.8c0-.53,.14-.84,.41-.96,.36-.05,.63-.1,.79-.12,.51,.19,.92,.51,1.21,.96,0,.19-.1,.43-.29,.72Zm-2.41,62.19c-.24,.31-.53,.55-.92,.72l-.41-.19c-.31-.12-.53-.26-.67-.41l-.07,.07s-.05-.31-.05-.8c0-.53,.14-.84,.41-.96,.36-.05,.63-.1,.79-.12,.51,.19,.92,.51,1.21,.96,0,.19-.1,.43-.29,.72Zm6.39-4.77c-.31-.12-.53-.27-.68-.41l-.07,.07s-.05-.31-.05-.8c0-.53,.14-.84,.41-.96,.36-.05,.63-.1,.8-.12,.51,.19,.92,.51,1.21,.96,0,.19-.1,.43-.29,.72-.24,.31-.53,.55-.92,.72l-.41-.19Zm7.59,9.59c-.24,.31-.53,.55-.92,.72l-.41-.19c-.31-.12-.53-.26-.68-.41l-.07,.07s-.05-.31-.05-.8c0-.53,.14-.84,.41-.96,.36-.05,.63-.1,.8-.12,.51,.19,.92,.51,1.21,.96,0,.19-.1,.43-.29,.72Zm8.68-11.09c-.24,.31-.53,.55-.92,.72l-.41-.19c-.31-.12-.53-.27-.67-.41l-.07,.07s-.05-.31-.05-.8c0-.53,.14-.84,.41-.96,.36-.05,.63-.1,.8-.12,.51,.19,.92,.51,1.21,.96,0,.19-.1,.43-.29,.72Zm16.87-.48c-.24,.31-.53,.55-.92,.72l-.41-.19c-.31-.12-.53-.26-.67-.41l-.07,.07s-.05-.31-.05-.8c0-.53,.14-.84,.41-.96,.36-.05,.63-.1,.8-.12,.51,.19,.92,.51,1.21,.96,0,.19-.1,.43-.29,.72Zm3.37-15.91c-.24,.31-.53,.55-.92,.72l-.41-.19c-.31-.12-.53-.27-.68-.41l-.07,.07s-.05-.31-.05-.8c0-.53,.14-.84,.41-.96,.36-.05,.63-.1,.8-.12,.51,.19,.92,.51,1.21,.96,0,.19-.1,.43-.29,.72Zm3.91-13.74l-.41-.19c-.31-.12-.53-.27-.68-.41l-.07,.07s-.05-.31-.05-.8c0-.53,.14-.84,.41-.96,.36-.05,.63-.1,.8-.12,.51,.19,.92,.51,1.21,.96,0,.19-.1,.43-.29,.72-.24,.31-.53,.55-.92,.72Zm12.12,8.97c-.31-.12-.53-.27-.67-.41l-.07,.07s-.05-.31-.05-.8c0-.53,.14-.84,.41-.96,.36-.05,.63-.1,.79-.12,.51,.19,.92,.51,1.21,.96,0,.19-.1,.43-.29,.72-.24,.31-.53,.55-.92,.72l-.41-.19Zm6.15,12c-.24,.31-.53,.55-.92,.72l-.41-.19c-.31-.12-.53-.27-.67-.41l-.07,.07s-.05-.31-.05-.8c0-.53,.14-.84,.41-.96,.36-.05,.63-.1,.79-.12,.51,.19,.92,.51,1.21,.96,0,.19-.1,.43-.29,.72Zm7.71-18.32c-.24,.31-.53,.55-.92,.72l-.41-.19c-.31-.12-.53-.26-.68-.41l-.07,.07s-.05-.31-.05-.8c0-.53,.14-.84,.41-.96,.36-.05,.63-.1,.8-.12,.51,.19,.92,.51,1.21,.96,0,.19-.1,.43-.29,.72Zm8.68,18.32c-.24,.31-.53,.55-.92,.72l-.41-.19c-.31-.12-.53-.27-.68-.41l-.07,.07s-.05-.31-.05-.8c0-.53,.14-.84,.41-.96,.36-.05,.63-.1,.8-.12,.51,.19,.92,.51,1.21,.96,0,.19-.1,.43-.29,.72Zm7.21-8.92l-.41-.19c-.29-.12-.51-.27-.67-.41l-.05,.07s-.07-.31-.07-.8c0-.53,.14-.84,.43-.96,.36-.05,.63-.1,.77-.12,.53,.19,.92,.51,1.21,.96,0,.19-.1,.43-.29,.72-.22,.31-.53,.55-.92,.72Zm9.59,9.88c-.22,.31-.53,.55-.92,.72l-.41-.19c-.29-.12-.51-.26-.67-.41l-.05,.07s-.07-.31-.07-.8c0-.53,.14-.84,.43-.96,.36-.05,.63-.1,.77-.12,.53,.19,.92,.51,1.21,.96,0,.19-.1,.43-.29,.72Zm8.8-10.56c-.29-.12-.51-.27-.68-.41l-.05,.07s-.07-.31-.07-.8c0-.53,.14-.84,.43-.96,.36-.05,.63-.1,.77-.12,.53,.19,.92,.51,1.21,.96,0,.19-.1,.43-.29,.72-.22,.31-.53,.55-.92,.72l-.41-.19Zm9.04,11.52c-.22,.31-.53,.55-.92,.72l-.41-.19c-.29-.12-.51-.27-.67-.41l-.05,.07s-.07-.31-.07-.8c0-.53,.14-.84,.43-.96,.36-.05,.63-.1,.77-.12,.53,.19,.92,.51,1.21,.96,0,.19-.1,.43-.29,.72Zm8.73-9.88l-.41-.19c-.29-.12-.51-.26-.67-.41l-.05,.07s-.07-.31-.07-.8c0-.53,.14-.84,.43-.96,.36-.05,.63-.1,.77-.12,.53,.19,.92,.51,1.21,.96,0,.19-.1,.43-.29,.72-.22,.31-.53,.55-.92,.72Zm11.04,6.99c-.22,.31-.53,.55-.92,.72l-.41-.19c-.29-.12-.51-.26-.67-.41l-.05,.07s-.07-.31-.07-.8c0-.53,.14-.84,.43-.96,.36-.05,.63-.1,.77-.12,.53,.19,.92,.51,1.21,.96,0,.19-.1,.43-.29,.72Zm0-13.98c-.22,.31-.53,.55-.92,.72l-.41-.19c-.29-.12-.51-.27-.67-.41l-.05,.07s-.07-.31-.07-.8c0-.53,.14-.84,.43-.96,.36-.05,.63-.1,.77-.12,.53,.19,.92,.51,1.21,.96,0,.19-.1,.43-.29,.72Zm12.54-9.64c-.22,.31-.53,.55-.92,.72l-.41-.19c-.29-.12-.51-.27-.68-.41l-.05,.07s-.07-.31-.07-.8c0-.53,.14-.84,.43-.96,.36-.05,.63-.1,.77-.12,.53,.19,.92,.51,1.21,.96,0,.19-.1,.43-.29,.72Zm5.3,13.98c-.22,.31-.53,.55-.92,.72l-.41-.19c-.29-.12-.51-.26-.67-.41l-.05,.07s-.07-.31-.07-.8c0-.53,.14-.84,.43-.96,.36-.05,.63-.1,.77-.12,.53,.19,.92,.51,1.21,.96,0,.19-.1,.43-.29,.72Z"/><path class="bj" d="M200.51,245.75c.14,.14,.36,.29,.67,.43l.41,.17c.39-.17,.68-.41,.92-.72,.19-.27,.29-.51,.29-.72-.29-.46-.7-.77-1.21-.96-.17,.02-.43,.07-.79,.12-.27,.14-.41,.46-.41,.96s.02,.77,.05,.82l.07-.1Z"/><path class="bj" d="M195.33,252.62c-.17,.02-.43,.07-.8,.12-.27,.14-.41,.46-.41,.96s.02,.77,.05,.82l.07-.1c.14,.14,.36,.29,.67,.43l.41,.17c.38-.17,.67-.41,.92-.72,.19-.26,.29-.51,.29-.72-.29-.46-.7-.77-1.21-.96Z"/><path class="bj" d="M210.63,250.09c.14,.14,.36,.29,.68,.43l.41,.17c.39-.17,.67-.41,.92-.72,.19-.26,.29-.51,.29-.72-.29-.46-.7-.77-1.21-.96-.17,.02-.43,.07-.8,.12-.26,.14-.41,.46-.41,.96s.02,.77,.05,.82l.07-.1Z"/><path class="bj" d="M206.41,262.26c.39-.17,.68-.41,.92-.72,.19-.26,.29-.51,.29-.72-.29-.46-.7-.77-1.21-.96-.17,.02-.43,.07-.79,.12-.27,.14-.41,.46-.41,.96s.02,.77,.05,.82l.07-.1c.14,.14,.36,.29,.67,.43l.41,.17Z"/><path class="bj" d="M217.86,242.86c.14,.14,.36,.29,.68,.43l.41,.17c.39-.17,.67-.41,.92-.72,.19-.26,.29-.51,.29-.72-.29-.46-.7-.77-1.21-.96-.17,.02-.43,.07-.8,.12-.26,.14-.41,.46-.41,.96s.02,.77,.05,.82l.07-.1Z"/><path class="bj" d="M229.31,254.67c0,.51,.02,.77,.05,.82l.07-.1c.14,.14,.36,.29,.67,.43l.41,.17c.39-.17,.68-.41,.92-.72,.19-.27,.29-.51,.29-.72-.29-.46-.7-.77-1.21-.96-.17,.02-.43,.07-.79,.12-.27,.14-.41,.46-.41,.96Z"/><path class="bj" d="M224.85,264.84l.12-.53c0-.53-.1-.82-.24-.92-.12-.05-.46-.12-.96-.17-.17,.02-.43,.07-.8,.1-.26,.12-.41,.41-.41,.92s.1,.87,.34,1.04c0,0,.29,.12,.87,.29,.48-.12,.84-.36,1.09-.72Z"/><path class="bj" d="M251.13,257.32c.14,.14,.36,.29,.67,.43l.41,.17c.39-.17,.68-.41,.92-.72,.19-.26,.29-.51,.29-.72-.29-.46-.7-.77-1.21-.96-.17,.02-.43,.07-.79,.12-.27,.14-.41,.46-.41,.96s.02,.77,.05,.82l.07-.1Z"/><path class="bj" d="M278.13,287.16c.14,.14,.36,.29,.68,.41l.41,.19c.39-.17,.67-.41,.92-.72,.19-.29,.29-.53,.29-.72-.29-.46-.7-.77-1.21-.96-.17,.02-.43,.07-.8,.12-.26,.12-.41,.43-.41,.96,0,.48,.02,.77,.05,.8l.07-.07Z"/><path class="bj" d="M293.48,284.75c.17,.14,.39,.29,.68,.41l.41,.19c.38-.17,.7-.41,.92-.72,.19-.29,.29-.53,.29-.72-.29-.46-.68-.77-1.21-.96-.14,.02-.41,.07-.77,.12-.29,.12-.43,.43-.43,.96,0,.48,.02,.77,.07,.8l.05-.07Z"/><path class="bj" d="M273.31,274.63c.14,.14,.36,.29,.68,.41l.41,.19c.39-.17,.67-.41,.92-.72,.19-.29,.29-.53,.29-.72-.29-.46-.7-.77-1.21-.96-.17,.02-.43,.07-.8,.12-.26,.12-.41,.43-.41,.96,0,.48,.02,.77,.05,.8l.07-.07Z"/><path class="bj" d="M265.95,283.07c0,.48,.02,.77,.05,.8l.07-.07c.14,.14,.36,.29,.68,.41l.41,.19c.39-.17,.67-.41,.92-.72,.19-.29,.29-.53,.29-.72-.29-.46-.7-.77-1.21-.96-.17,.02-.43,.07-.8,.12-.26,.12-.41,.43-.41,.96Z"/><path class="bj" d="M269.57,302.71c-.17,.02-.43,.07-.8,.12-.26,.12-.41,.43-.41,.96,0,.48,.02,.77,.05,.8l.07-.07c.14,.14,.36,.29,.68,.41l.41,.19c.39-.17,.67-.41,.92-.72,.19-.29,.29-.53,.29-.72-.29-.46-.7-.77-1.21-.96Z"/><path class="bj" d="M257.95,310.18c.19-.29,.29-.53,.29-.72-.29-.46-.7-.77-1.21-.96-.17,.02-.43,.07-.79,.12-.27,.12-.41,.43-.41,.96,0,.48,.02,.77,.05,.8l.07-.07c.14,.14,.36,.29,.67,.41l.41,.19c.39-.17,.68-.41,.92-.72Z"/><path class="bj" d="M281.86,297.05c0,.48,.02,.77,.05,.8l.07-.07c.14,.14,.36,.29,.68,.41l.41,.19c.38-.17,.67-.41,.92-.72,.19-.29,.29-.53,.29-.72-.29-.46-.7-.77-1.21-.96-.17,.02-.43,.07-.8,.12-.26,.12-.41,.43-.41,.96Z"/><path class="bj" d="M286.37,311.39c-.14,.02-.41,.07-.77,.12-.29,.12-.43,.43-.43,.96,0,.48,.02,.77,.07,.8l.05-.07c.17,.14,.39,.29,.67,.41l.41,.19c.38-.17,.7-.41,.92-.72,.19-.29,.29-.53,.29-.72-.29-.46-.68-.77-1.21-.96Z"/><path class="bj" d="M253.73,272.63l.41,.19c.38-.17,.67-.41,.92-.75,.19-.27,.29-.51,.29-.72-.29-.43-.7-.75-1.21-.96-.17,.05-.43,.1-.8,.14-.26,.12-.41,.43-.41,.94s.02,.8,.05,.82l.07-.1c.14,.17,.36,.31,.68,.43Z"/><path class="bj" d="M237.63,275.59c.14,.14,.36,.29,.67,.41l.41,.19c.38-.17,.67-.41,.92-.72,.19-.29,.29-.53,.29-.72-.29-.46-.7-.77-1.21-.96-.17,.02-.43,.07-.8,.12-.27,.12-.41,.43-.41,.96,0,.48,.02,.77,.05,.8l.07-.07Z"/><path class="bj" d="M254.62,287.28c-.17,.02-.43,.07-.79,.12-.27,.12-.41,.43-.41,.96,0,.48,.02,.77,.05,.8l.07-.07c.14,.14,.36,.29,.67,.41l.41,.19c.39-.17,.68-.41,.92-.72,.19-.29,.29-.53,.29-.72-.29-.46-.7-.77-1.21-.96Z"/><path class="bj" d="M215.94,280.41c.14,.14,.36,.29,.67,.41l.41,.19c.38-.17,.67-.41,.92-.72,.19-.29,.29-.53,.29-.72-.29-.46-.7-.77-1.21-.96-.17,.02-.43,.07-.8,.12-.27,.12-.41,.43-.41,.96,0,.48,.02,.77,.05,.8l.07-.07Z"/><path class="bj" d="M224.61,296.81c.14,.14,.36,.29,.67,.41l.41,.19c.39-.17,.68-.41,.92-.72,.19-.29,.29-.53,.29-.72-.29-.46-.7-.77-1.21-.96-.17,.02-.43,.07-.79,.12-.27,.12-.41,.43-.41,.96,0,.48,.02,.77,.05,.8l.07-.07Z"/><path class="bj" d="M223.24,318.38c.19-.29,.29-.53,.29-.72-.29-.46-.7-.77-1.21-.96-.17,.02-.43,.07-.8,.12-.26,.12-.41,.43-.41,.96,0,.48,.02,.77,.05,.8l.07-.07c.14,.14,.36,.29,.67,.41l.41,.19c.39-.17,.68-.41,.92-.72Z"/><path class="bj" d="M244.5,299.34c-.17,.02-.43,.07-.8,.12-.26,.12-.41,.43-.41,.96,0,.48,.02,.77,.05,.8l.07-.07c.14,.14,.36,.29,.68,.41l.41,.19c.38-.17,.67-.41,.92-.72,.19-.29,.29-.53,.29-.72-.29-.46-.7-.77-1.21-.96Z"/><path class="bj" d="M239.68,313.8c-.17,.02-.43,.07-.8,.12-.26,.12-.41,.43-.41,.96,0,.48,.02,.77,.05,.8l.07-.07c.14,.14,.36,.29,.68,.41l.41,.19c.38-.17,.67-.41,.92-.72,.19-.29,.29-.53,.29-.72-.29-.46-.7-.77-1.21-.96Z"/><path class="bj" d="M236.3,329.71c-.17,.02-.43,.07-.8,.12-.27,.12-.41,.43-.41,.96,0,.48,.02,.77,.05,.8l.07-.07c.14,.14,.36,.29,.67,.41l.41,.19c.38-.17,.67-.41,.92-.72,.19-.29,.29-.53,.29-.72-.29-.46-.7-.77-1.21-.96Z"/><path class="bj" d="M219.43,330.19c-.17,.02-.43,.07-.8,.12-.27,.12-.41,.43-.41,.96,0,.48,.02,.77,.05,.8l.07-.07c.14,.14,.36,.29,.67,.41l.41,.19c.38-.17,.67-.41,.92-.72,.19-.29,.29-.53,.29-.72-.29-.46-.7-.77-1.21-.96Z"/><path class="bj" d="M295.05,322c-.14,.02-.41,.07-.77,.12-.29,.12-.43,.43-.43,.96,0,.48,.02,.77,.07,.8l.05-.07c.17,.14,.38,.29,.67,.41l.41,.19c.39-.17,.7-.41,.92-.72,.19-.29,.29-.53,.29-.72-.29-.46-.67-.77-1.21-.96Z"/><path class="bj" d="M278.25,321.03c-.17,.02-.43,.07-.8,.12-.26,.12-.41,.43-.41,.96,0,.48,.02,.77,.05,.8l.07-.07c.14,.14,.36,.29,.68,.41l.41,.19c.38-.17,.67-.41,.92-.72,.19-.29,.29-.53,.29-.72-.29-.46-.7-.77-1.21-.96Z"/><path class="bj" d="M261.86,321.03c-.17,.02-.43,.07-.79,.12-.27,.12-.41,.43-.41,.96,0,.48,.02,.77,.05,.8l.07-.07c.14,.14,.36,.29,.67,.41l.41,.19c.39-.17,.68-.41,.92-.72,.19-.29,.29-.53,.29-.72-.29-.46-.7-.77-1.21-.96Z"/><path class="bj" d="M199.18,274.27c-.17,.02-.43,.07-.79,.12-.27,.12-.41,.43-.41,.96,0,.48,.02,.77,.05,.8l.07-.07c.14,.14,.36,.29,.67,.41l.41,.19c.39-.17,.68-.41,.92-.72,.19-.29,.29-.53,.29-.72-.29-.46-.7-.77-1.21-.96Z"/><path class="bj" d="M208.34,294.03c-.17,.02-.43,.07-.8,.12-.26,.12-.41,.43-.41,.96,0,.48,.02,.77,.05,.8l.07-.07c.14,.14,.36,.29,.68,.41l.41,.19c.38-.17,.67-.41,.92-.72,.19-.29,.29-.53,.29-.72-.29-.46-.7-.77-1.21-.96Z"/><path class="bj" d="M210.22,313.56c.19-.29,.29-.53,.29-.72-.29-.46-.7-.77-1.21-.96-.17,.02-.43,.07-.8,.12-.26,.12-.41,.43-.41,.96,0,.48,.02,.77,.05,.8l.07-.07c.14,.14,.36,.29,.68,.41l.41,.19c.39-.17,.67-.41,.92-.72Z"/><path class="bj" d="M205.4,332.84c.19-.29,.29-.53,.29-.72-.29-.46-.7-.77-1.21-.96-.17,.02-.43,.07-.8,.12-.26,.12-.41,.43-.41,.96,0,.48,.02,.77,.05,.8l.07-.07c.14,.14,.36,.29,.68,.41l.41,.19c.39-.17,.67-.41,.92-.72Z"/><path class="bj" d="M196.77,336.46c-.17,.02-.43,.07-.79,.12-.27,.12-.41,.43-.41,.96,0,.48,.02,.77,.05,.8l.07-.07c.14,.14,.36,.29,.67,.41l.41,.19c.39-.17,.68-.41,.92-.72,.19-.29,.29-.53,.29-.72-.29-.46-.7-.77-1.21-.96Z"/><path class="bj" d="M210.75,341.28c-.17,.02-.43,.07-.8,.12-.26,.12-.41,.43-.41,.96,0,.48,.02,.77,.05,.8l.07-.07c.14,.14,.36,.29,.68,.41l.41,.19c.38-.17,.67-.41,.92-.72,.19-.29,.29-.53,.29-.72-.29-.46-.7-.77-1.21-.96Z"/><path class="bj" d="M345.19,296.44c-.14,.02-.41,.07-.77,.12-.29,.12-.43,.43-.43,.96,0,.48,.02,.77,.07,.8l.05-.07c.17,.14,.39,.29,.68,.41l.41,.19c.38-.17,.7-.41,.92-.72,.19-.29,.29-.53,.29-.72-.29-.46-.68-.77-1.21-.96Z"/><path class="bj" d="M350.49,310.42c-.14,.02-.41,.07-.77,.12-.29,.12-.43,.43-.43,.96,0,.48,.02,.77,.07,.8l.05-.07c.17,.14,.38,.29,.67,.41l.41,.19c.39-.17,.7-.41,.92-.72,.19-.29,.29-.53,.29-.72-.29-.46-.67-.77-1.21-.96Z"/><path class="bj" d="M325.3,293.43c.17,.14,.38,.29,.67,.41l.41,.19c.39-.17,.7-.41,.92-.72,.19-.29,.29-.53,.29-.72-.29-.46-.67-.77-1.21-.96-.14,.02-.41,.07-.77,.12-.29,.12-.43,.43-.43,.96,0,.48,.02,.77,.07,.8l.05-.07Z"/><path class="bj" d="M311.32,286.2c.17,.14,.39,.29,.68,.41l.41,.19c.39-.17,.7-.41,.92-.72,.19-.29,.29-.53,.29-.72-.29-.46-.67-.77-1.21-.96-.14,.02-.41,.07-.77,.12-.29,.12-.43,.43-.43,.96,0,.48,.02,.77,.07,.8l.05-.07Z"/><path class="bj" d="M314.09,300.9c0,.48,.02,.77,.07,.8l.05-.07c.17,.14,.39,.29,.67,.41l.41,.19c.38-.17,.7-.41,.92-.72,.19-.29,.29-.53,.29-.72-.29-.46-.68-.77-1.21-.96-.14,.02-.41,.07-.77,.12-.29,.12-.43,.43-.43,.96Z"/><path class="bj" d="M297.22,298.01c0,.48,.02,.77,.07,.8l.05-.07c.17,.14,.39,.29,.67,.41l.41,.19c.38-.17,.7-.41,.92-.72,.19-.29,.29-.53,.29-.72-.29-.46-.68-.77-1.21-.96-.14,.02-.41,.07-.77,.12-.29,.12-.43,.43-.43,.96Z"/><path class="bj" d="M306.09,312.59c.19-.29,.29-.53,.29-.72-.29-.46-.67-.77-1.21-.96-.14,.02-.41,.07-.77,.12-.29,.12-.43,.43-.43,.96,0,.48,.02,.77,.07,.8l.05-.07c.17,.14,.39,.29,.68,.41l.41,.19c.39-.17,.7-.41,.92-.72Z"/><path class="bj" d="M322.53,312.35c-.14,.02-.41,.07-.77,.12-.29,.12-.43,.43-.43,.96,0,.48,.02,.77,.07,.8l.05-.07c.17,.14,.39,.29,.67,.41l.41,.19c.38-.17,.7-.41,.92-.72,.19-.29,.29-.53,.29-.72-.29-.46-.68-.77-1.21-.96Z"/><path class="bj" d="M332.65,306.09c-.14,.02-.41,.07-.77,.12-.29,.12-.43,.43-.43,.96,0,.48,.02,.77,.07,.8l.05-.07c.17,.14,.38,.29,.67,.41l.41,.19c.39-.17,.7-.41,.92-.72,.19-.29,.29-.53,.29-.72-.29-.46-.67-.77-1.21-.96Z"/><path class="bj" d="M332.65,320.07c-.14,.02-.41,.07-.77,.12-.29,.12-.43,.43-.43,.96,0,.48,.02,.77,.07,.8l.05-.07c.17,.14,.38,.29,.67,.41l.41,.19c.39-.17,.7-.41,.92-.72,.19-.29,.29-.53,.29-.72-.29-.46-.67-.77-1.21-.96Z"/><path class="bj" d="M312.89,322.96c-.14,.02-.41,.07-.77,.12-.29,.12-.43,.43-.43,.96,0,.48,.02,.77,.07,.8l.05-.07c.17,.14,.39,.29,.67,.41l.41,.19c.38-.17,.7-.41,.92-.72,.19-.29,.29-.53,.29-.72-.29-.46-.68-.77-1.21-.96Z"/><path class="bs" d="M357.53,300.78c-.82-3.3-2.07-6.1-3.79-8.44-1.69-2.31-4.63-4.8-8.82-7.42-5.09-3.18-10.44-5.88-16.05-8.1-5.76-2.27-11.69-4.07-17.77-5.4-5.83-1.25-11.62-2.72-17.36-4.39-5.59-1.64-10.99-3.76-16.2-6.36-5.42-2.75-10.7-5.74-15.81-8.97-5.13-3.25-10.32-6.41-15.57-9.5-4.77-2.8-9.84-4.89-15.16-6.29-3.47-.92-6.99-1.69-10.53-2.36-4.31-.82-8.56-.82-12.8,0-6.36,1.21-11.86,4.1-16.49,8.63-3.91,3.86-5.47,8.39-4.72,13.6,.51-3.23,2.1-6.15,4.72-8.77,4.63-4.53,10.12-7.42,16.49-8.63,4.24-.82,8.49-.82,12.8,0,3.54,.67,7.06,1.45,10.53,2.36,5.33,1.4,10.39,3.5,15.16,6.29,5.26,3.09,10.44,6.24,15.57,9.5,5.11,3.23,10.39,6.22,15.81,8.97,5.21,2.6,10.61,4.72,16.2,6.36,5.74,1.69,11.52,3.13,17.36,4.39,6.07,1.33,12,3.13,17.77,5.4,5.62,2.22,10.97,4.92,16.05,8.1,4.19,2.63,7.14,5.11,8.82,7.42,1.71,2.34,2.96,5.13,3.79,8.44l.38,.05c.19-1.54,.05-3.16-.38-4.87Z"/></g><g><g><polygon class="c`" points="308.5 267.26 303.19 267.26 304.35 249.06 307.34 249.06 308.5 267.26"/><path class="c`" d="M307.71,266.18c1.04,.6,1.04,1.57,0,2.17-1.04,.6-2.72,.6-3.75,0-1.04-.6-1.04-1.57,0-2.17,1.04-.6,2.72-.6,3.75,0Z"/></g><g><path class="bv" d="M313.38,257.78c-1.52,.87-3.41,1.43-5.38,1.67-1.43,.17-2.9,.17-4.31,0-1.97-.24-3.86-.8-5.4-1.67-2.77-1.6-3.69-3.86-2.78-5.9,0-.02,0-.04,.04-.07l.02-.04c0-.06,.04-.13,.07-.19h.02l.28-.48c.52-.74,1.3-1.45,2.36-2.04,.63-.35,1.3-.67,2.02-.91,3.38-1.19,7.65-1.21,11.02-.02h.02c.72,.26,1.41,.58,2.02,.93,.98,.56,1.74,1.22,2.26,1.93v.02l.07,.09c1.58,2.21,.8,4.86-2.34,6.68Z"/><path class="bv" d="M316.03,251.68h-.83l-7.7,.09-3.32,.02-5.6,.06h-.02l-1.35,.02-.82,.02h-.89l.06-.07,.02-.04,.09-.19,.28-.48,2.34-4.08,.35-.63,2.41-4.19,.43-.74,1.8-3.16,.35-.59,1.24-2.19,1-1.74,.91,1.6,1.32,2.32,.35,.61,2.15,3.8,.41,.72,1.76,3.1,.63,1.11,2.25,3.95v.02l.07,.09,.32,.58Z"/></g><g><path class="ce" d="M314.12,246.4c-.22,.24-.46,.45-.72,.63-.24,.19-.48,.35-.76,.5-.41,.22-.84,.43-1.28,.59h-.02c-1.22,.52-2.6,.84-4.01,.97-1,.09-2,.09-2.99,0-1.43-.13-2.8-.45-4.03-.95-.45-.19-.87-.39-1.26-.61-.28-.17-.54-.33-.78-.52-.17-.11-.32-.22-.45-.35-1.52-1.32-1.95-2.93-1.3-4.42h.02s0-.06,.02-.07l.02-.02,.35-.63,.02-.02v-.02s.06-.04,.07-.07c.46-.61,1.13-1.21,2.02-1.71,1.21-.71,2.67-1.17,4.21-1.41,1.69-.28,3.49-.28,5.18,0,1.52,.24,2.97,.72,4.19,1.41,.84,.48,1.48,1.02,1.93,1.6,.04,.04,.06,.06,.07,.09,1.23,1.61,1.06,3.49-.52,5.01Z"/><path class="ce" d="M315.01,242.04l-.93,.02-3.49,.04h-1.06l-3.71,.04-3.77,.06h-1.02l-4.49,.06h-.02l.04-.07,.02-.02,.35-.63,.02-.02v-.02l.06-.07,2.97-5.2,.52-.91,1.58-2.75,1.71-2.97,2.08-3.64,2.06,3.64h.02l1.65,2.91,1.87,3.29,.22,.41,2.9,5.09,.06,.11,.37,.65Z"/></g><g><path class="bo" d="M311.97,235.99h-.02c-.09,.07-.17,.15-.26,.2-.2,.17-.43,.32-.67,.46-.85,.48-1.86,.84-2.93,1.02-1.45,.28-3.02,.28-4.47,.02-1.1-.2-2.12-.56-2.97-1.04-.24-.15-.46-.3-.67-.45-.5-.37-.87-.8-1.09-1.22-.46-.78-.52-1.61-.15-2.39t.02-.04l.13-.26c.35-.59,.93-1.15,1.76-1.63,.91-.52,1.99-.89,3.14-1.08,1.35-.24,2.78-.24,4.14,0h.02c1.13,.2,2.19,.56,3.08,1.08,.72,.43,1.24,.89,1.61,1.41l.02,.02,.2,.37h-.04c.61,1.17,.37,2.47-.85,3.53Z"/><polygon class="bo" points="312.86 232.47 309.6 232.5 308.28 232.5 306.2 232.52 302.08 232.56 298.74 232.6 298.72 232.6 298.78 232.52 298.89 232.3 300.13 230.15 305.86 220.14 311.49 230.05 312.64 232.08 312.66 232.1 312.86 232.47"/></g></g><g><g><polygon class="c`" points="178.54 259.3 173.23 259.3 174.39 241.1 177.38 241.1 178.54 259.3"/><path class="c`" d="M177.75,258.22c1.04,.6,1.04,1.57,0,2.17-1.04,.6-2.72,.6-3.75,0-1.04-.6-1.04-1.57,0-2.17,1.04-.6,2.72-.6,3.75,0Z"/></g><g><path class="bv" d="M183.42,249.82c-1.52,.87-3.41,1.43-5.38,1.67-1.43,.17-2.9,.17-4.31,0-1.97-.24-3.86-.8-5.4-1.67-2.77-1.6-3.69-3.86-2.78-5.9,0-.02,0-.04,.04-.07l.02-.04c0-.06,.04-.13,.07-.19h.02l.28-.48c.52-.74,1.3-1.45,2.36-2.04,.63-.35,1.3-.67,2.02-.91,3.38-1.19,7.65-1.21,11.02-.02h.02c.72,.26,1.41,.58,2.02,.93,.98,.56,1.74,1.22,2.26,1.93v.02l.07,.09c1.58,2.21,.8,4.86-2.34,6.68Z"/><path class="bv" d="M186.08,243.72h-.83l-7.7,.09-3.32,.02-5.6,.06h-.02l-1.35,.02-.82,.02h-.89l.06-.07,.02-.04,.09-.19,.28-.48,2.34-4.08,.35-.63,2.41-4.19,.43-.74,1.8-3.16,.35-.59,1.24-2.19,1-1.74,.91,1.6,1.32,2.32,.35,.61,2.15,3.8,.41,.72,1.76,3.1,.63,1.11,2.25,3.95v.02l.07,.09,.32,.58Z"/></g><g><path class="ce" d="M184.16,238.45c-.22,.24-.46,.45-.72,.63-.24,.19-.48,.35-.76,.5-.41,.22-.84,.43-1.28,.59h-.02c-1.22,.52-2.6,.84-4.01,.97-1,.09-2,.09-2.99,0-1.43-.13-2.8-.45-4.03-.95-.45-.19-.87-.39-1.26-.61-.28-.17-.54-.33-.78-.52-.17-.11-.32-.22-.45-.35-1.52-1.32-1.95-2.93-1.3-4.42h.02s0-.06,.02-.07l.02-.02,.35-.63,.02-.02v-.02s.06-.04,.07-.07c.46-.61,1.13-1.21,2.02-1.71,1.21-.71,2.67-1.17,4.21-1.41,1.69-.28,3.49-.28,5.18,0,1.52,.24,2.97,.72,4.19,1.41,.84,.48,1.48,1.02,1.93,1.6,.04,.04,.06,.06,.07,.09,1.23,1.61,1.06,3.49-.52,5.01Z"/><path class="ce" d="M185.06,234.09l-.93,.02-3.49,.04h-1.06l-3.71,.04-3.77,.06h-1.02l-4.49,.06h-.02l.04-.07,.02-.02,.35-.63,.02-.02v-.02l.06-.07,2.97-5.2,.52-.91,1.58-2.75,1.71-2.97,2.08-3.64,2.06,3.64h.02l1.65,2.91,1.87,3.29,.22,.41,2.9,5.09,.06,.11,.37,.65Z"/></g><g><path class="bo" d="M182.01,228.04h-.02c-.09,.07-.17,.15-.26,.2-.2,.17-.43,.32-.67,.46-.85,.48-1.86,.84-2.93,1.02-1.45,.28-3.02,.28-4.47,.02-1.1-.2-2.12-.56-2.97-1.04-.24-.15-.46-.3-.67-.45-.5-.37-.87-.8-1.09-1.22-.46-.78-.52-1.61-.15-2.39t.02-.04l.13-.26c.35-.59,.93-1.15,1.76-1.63,.91-.52,1.99-.89,3.14-1.08,1.35-.24,2.78-.24,4.14,0h.02c1.13,.2,2.19,.56,3.08,1.08,.72,.43,1.24,.89,1.61,1.41l.02,.02,.2,.37h-.04c.61,1.17,.37,2.47-.85,3.53Z"/><polygon class="bo" points="182.9 224.51 179.64 224.55 178.32 224.55 176.24 224.57 172.12 224.6 168.78 224.64 168.76 224.64 168.82 224.57 168.93 224.34 170.17 222.19 175.91 212.19 181.53 222.1 182.68 224.12 182.7 224.14 182.9 224.51"/></g></g><g><g><polygon class="bx" points="278.91 251.86 274.37 251.86 275.36 236.32 277.91 236.32 278.91 251.86"/><path class="bx" d="M278.24,250.93c.89,.51,.89,1.34,0,1.85-.89,.51-2.32,.51-3.21,0-.89-.51-.89-1.34,0-1.85,.89-.51,2.32-.51,3.21,0Z"/></g><path class="bk" d="M264.32,225.12c.66,7.65,5.97,13.46,12.31,13.46s11.66-5.81,12.31-13.46h-24.63Z"/><path class="bp" d="M281.36,218.49c10.16,2.65,10.16,10.6,0,13.25-3.09,.8-6.36,.8-9.45,0-10.16-2.65-10.16-10.6,0-13.25,3.09-.8,6.36-.8,9.45,0Z"/><path class="bp" d="M264.32,224.38c.66-7.72,5.97-13.59,12.31-13.59s11.66,5.87,12.31,13.59h-24.63Z"/></g><g><g><polygon class="bw" points="182.2 309 176.68 309 177.89 290.07 180.99 290.07 182.2 309"/><path class="bw" d="M181.38,307.88c1.08,.62,1.08,1.63,0,2.26-1.08,.62-2.83,.62-3.91,0-1.08-.62-1.08-1.63,0-2.26,1.08-.62,2.83-.62,3.91,0Z"/></g><path class="bl" d="M170.45,279.62c.13,4.87,4.12,12.63,8.99,12.63s8.86-7.76,8.99-12.63h-17.99Z"/><path class="bp" d="M185.83,276.37c3.52,2.03,3.52,5.32,0,7.36-3.52,2.03-9.22,2.03-12.74,0-3.52-2.03-3.52-5.32,0-7.36,3.52-2.03,9.22-2.03,12.74,0Z"/><path class="bp" d="M170.45,279.62c.13-4.87,4.12-20.86,8.99-20.86s8.86,15.99,8.99,20.86h-17.99Z"/></g><g><g><polygon class="bw" points="158.33 285.13 152.81 285.13 154.02 266.2 157.12 266.2 158.33 285.13"/><path class="bw" d="M157.51,284.01c1.08,.62,1.08,1.63,0,2.26-1.08,.62-2.83,.62-3.91,0-1.08-.62-1.08-1.63,0-2.26,1.08-.62,2.83-.62,3.91,0Z"/></g><path class="bl" d="M146.58,255.75c.13,4.87,4.12,12.63,8.99,12.63s8.86-7.76,8.99-12.63h-17.99Z"/><path class="bp" d="M161.96,252.5c3.52,2.03,3.52,5.32,0,7.36-3.52,2.03-9.22,2.03-12.74,0-3.52-2.03-3.52-5.32,0-7.36s9.22-2.03,12.74,0Z"/><path class="bp" d="M146.58,255.75c.13-4.87,4.12-20.86,8.99-20.86s8.86,15.99,8.99,20.86h-17.99Z"/></g></g><rect class="be" x="199.97" y="221.73" width="77.23" height="18.53" rx="6" ry="6"/><g><path class="be" d="M225.3,180.16c-.89,5-3.02,8.64-5.68,10.58-.3-.42-.99-1.1-1.42-1.39,2.3-1.52,4.08-4.25,4.96-7.79h-4.33v-1.79h4.98l.32-.08,1.18,.46Zm9.14-.53c-1.31,1.42-2.96,3.06-4.29,4.18,1.52,2.26,3.53,4.14,5.83,5.21-.42,.36-1.03,1.08-1.31,1.61-2.83-1.5-5.07-4.18-6.69-7.39v6.93c0,1.08-.23,1.65-.87,1.96-.65,.32-1.65,.4-3.13,.4-.1-.53-.38-1.44-.67-1.98,1.06,.06,2.05,.06,2.37,.04,.3,0,.44-.09,.44-.42v-15.1h1.86v4.54c.36,.97,.8,1.92,1.33,2.83,1.22-1.16,2.62-2.72,3.51-3.97l1.61,1.16Z"/><path class="be" d="M242.33,179.76c-.38,.7-.84,1.44-1.35,2.15v10.58h-1.6v-8.57c-.49,.57-1.01,1.08-1.48,1.52-.13-.38-.61-1.27-.87-1.71,1.39-1.14,2.85-2.87,3.78-4.58l1.52,.61Zm-.38-4.12c-.97,1.58-2.47,3.32-3.86,4.43-.19-.34-.63-1.03-.91-1.33,1.2-.95,2.51-2.47,3.17-3.69l1.6,.59Zm8.51,5.26v1.8h3.17v9.75h-1.71v-.82h-4.62v.82h-1.65v-9.75h3.1v-1.8h-3.7v1.8c0,3.15-.23,6.99-1.96,9.78-.3-.25-.91-.61-1.33-.78,1.56-2.58,1.75-6.21,1.75-9v-6.14c3.15-.29,6.84-.76,9-1.29l1.35,1.25c-2.43,.57-5.81,.99-8.81,1.24v1.71h3.7v-1.79h1.71v1.79h4.1v1.42h-4.1Zm1.46,3.19h-4.62v1.25h4.62v-1.25Zm0,2.47h-4.62v1.22h4.62v-1.22Zm0,3.72v-1.29h-4.62v1.29h4.62Z"/><path class="be" d="M273.31,188.12c-.78,.44-1.67,.91-2.45,1.27,.82,.72,1.82,1.23,2.96,1.56-.34,.3-.82,.93-1.03,1.35-2.58-.85-4.31-2.72-5.28-5.21-.59,.53-1.33,1.06-2.09,1.5v1.94l2.93-.63c-.04,.38-.04,.99,0,1.29-3.55,.85-4.1,1.04-4.45,1.25v-.02c-.11-.34-.36-.95-.59-1.23,.27-.13,.68-.46,.68-1.22v-.63c-.61,.29-1.25,.55-1.84,.74-.19-.32-.53-.78-.84-1.08-1.73,.53-3.48,1.04-4.92,1.44l-.34-1.61c.61-.13,1.29-.32,2.05-.53v-5.03h-1.65v-1.54h1.65v-3.91h-1.81v-1.58h5.07v1.58h-1.73v3.91h1.52v1.54h-1.52v4.62c.53-.15,1.08-.32,1.62-.47l.19,1.37c1.46-.4,3.08-1.08,4.29-1.88h-2.56v-4.01h9.14v4.01h-3.32c.25,.57,.59,1.1,.99,1.58,.76-.44,1.61-1.01,2.15-1.42l1.18,1.06Zm.11-6.1h-11.42v-1.41h11.42v1.41Zm-.61-2.22h-10.07v-4.1h10.07v4.1Zm-7.1-2.85h-1.52v1.62h1.52v-1.62Zm-.95,8.68h5.89v-1.46h-5.89v1.46Zm3.72-8.68h-1.56v1.62h1.56v-1.62Zm2.81,0h-1.62v1.62h1.62v-1.62Z"/></g><g><rect class="be" x="365.69" y="84.09" width="73" height="30" rx="6" ry="6"/><g><path class="cd" d="M379.99,97.31c0,2.82-.19,7-1.46,9.79-.29-.22-.95-.59-1.31-.71,1.21-2.65,1.33-6.42,1.33-9.06v-5.08h14.25v1.43h-12.8v3.64Zm10.33,1.79c.36,3.09,1.09,5.63,2.77,6.9-.31,.27-.73,.78-.93,1.16-1.26-1.07-2.02-2.67-2.48-4.71-.46,1.96-1.26,3.55-2.62,4.74-.2-.31-.56-.71-.88-.97-.07,.27-.22,.46-.49,.59-.42,.19-1.04,.2-2.01,.2-.05-.34-.2-.8-.36-1.12,.61,.02,1.19,.02,1.38,.02,.17,0,.24-.05,.24-.24v-1.72c-.97,.59-1.92,1.17-2.79,1.68l-.41-1.07c-.15,.95-.44,1.9-1,2.65-.2-.29-.71-.82-.99-1,.73-1.02,.78-2.35,.78-3.5v-3.35h5.69v6.31c0,.12,0,.22-.02,.32,1.73-1.55,2.35-3.94,2.58-6.9h-2.23v-1.31h2.31c.05-1.17,.05-2.41,.07-3.74h1.36c-.02,1.31-.03,2.55-.08,3.74h2.57v1.31h-2.46Zm-9.5-.51v-4.2h5.12v4.2h-5.12Zm1.04,4.16c0,.51-.02,1.07-.1,1.63,.85-.36,1.99-.95,3.18-1.53v-2.33h-3.08v.95l.56-.53c.8,.39,1.84,.99,2.35,1.38l-.71,.78c-.51-.41-1.43-.99-2.19-1.41v1.05Zm.26-6.7h2.48v-.76h-2.48v.76Zm0,1.63h2.48v-.78h-2.48v.78Zm9.38-.32c-.2-.61-.7-1.6-1.12-2.33l1.09-.36c.44,.7,.95,1.67,1.17,2.26l-1.14,.42Z"/><path class="cd" d="M398.17,94.16c-.83,1.29-1.87,2.43-2.92,3.28-.22-.31-.76-.95-1.09-1.24,1.53-1.11,2.96-2.86,3.76-4.69l1.5,.42c-.15,.36-.32,.68-.49,1.02h10.57v1.21h-11.32Zm9.08,2.79c-.03,5.1,.14,8.63,1.34,8.62,.29,0,.39-1,.41-2.45,.31,.34,.73,.73,1.05,.95-.12,2.24-.44,3.08-1.58,3.08-2.41,0-2.75-3.57-2.8-8.97h-3.33l1.26,.34c-.29,.46-.59,.9-.88,1.29h2.28v1.14h-4.03v.87h3.55v1.1h-3.55v.94h4.4v1.19h-4.4v2.09h-1.53v-2.09h-4.62v-1.19h4.62v-.94h-3.52v-1.1h3.52v-.87h-4.11v-1.14h2.31c-.17-.41-.41-.9-.66-1.31l1.16-.32h-1.79v-1.22h10.91Zm-9.13-.83v-1.16h9.98v1.16h-9.98Zm3.01,3.69c.32-.49,.71-1.16,.93-1.63h-3.76c.34,.49,.68,1.1,.82,1.53l-.32,.1h2.33Z"/><path class="cd" d="M416.52,101.58l.31,1.43c-1.7,.7-3.52,1.43-4.96,1.99l-.53-1.62c.6-.17,1.31-.42,2.09-.7v-5.59h-1.8v-1.5h1.8v-3.86h1.5v3.86h1.56v1.5h-1.56v5.07l1.6-.58Zm5.73-5.49c1.19,1.05,3.18,2.24,4.79,2.86-.22,.37-.49,1.07-.59,1.46-1.68-.82-3.67-2.12-5.03-3.37-.73,.78-1.6,1.48-2.5,2.11h5.25v1.31h-5.39v-1.21c-.73,.49-1.5,.93-2.23,1.31-.14-.32-.56-1.02-.82-1.33,2.07-.87,4.23-2.35,5.47-4.01l1.24,.6-.2,.27Zm-4.01-1.67h-1.73v-1.38h1.73v-1.46h1.46v1.46h1.65v1.38h-1.65v1.55h-1.46v-1.55Zm-.54,7.14h7.82v5.54h-1.55v-.61h-4.79v.61h-1.48v-5.54Zm1.48,1.31v2.29h4.79v-2.29h-4.79Zm4.44-8.46h-1.67v-1.38h1.67v-1.45h1.46v1.45h1.8v1.38h-1.8v1.56h-1.46v-1.56Z"/></g></g><g><rect class="be" x="197.69" y="5.09" width="110" height="30" rx="6" ry="6"/><g><path class="cd" d="M225.51,23.77c-.87,.59-1.92,1.19-2.87,1.61,1.07,.61,2.36,1.05,3.86,1.29-.32,.29-.68,.87-.88,1.26-3.4-.66-5.63-2.26-6.9-4.88-.77,.58-1.7,1.12-2.74,1.58v1.77l3.55-.75c-.05,.36-.08,.9-.07,1.17-4.27,1-4.81,1.16-5.15,1.38v-.12c-.1-.34-.34-.82-.51-1.04,.29-.19,.73-.56,.73-1.38v-.48c-.92,.34-1.87,.59-2.79,.76-.19-.32-.56-.87-.85-1.14,2.04-.32,4.25-1,5.81-1.87h-5.52v-1.26h7c-.14-.34-.31-.68-.48-.99l.32-.08c-.27,.02-.56,.02-.92,.02-.07-.32-.25-.7-.41-.97,.49,.02,.9,.02,1.04,.02,.15-.02,.19-.05,.19-.19v-1h-1.77v2.65h-1.36v-2.65h-1.67v2.23h-1.24v-3.25h2.91v-.75h-3.69v-1.11h1.12c-.27-.19-.73-.42-.99-.53,.58-.68,1.05-1.61,1.34-2.53l1.21,.31c-.1,.27-.2,.54-.31,.82h1.31v-1.16h1.36v1.16h2.89v1.07h-2.89v.87h3.42v1.11h-3.42v.75h3.06v2.01c0,.48-.07,.71-.32,.9l.29-.08c.25,.42,.53,.93,.71,1.39h6.32v1.26h-6.08c.39,.63,.87,1.21,1.44,1.68,.97-.48,2.07-1.17,2.79-1.68l1.14,.82Zm-10.71-8.14v-.87h-1.85c-.19,.32-.39,.61-.56,.87h2.41Zm7.38,3.31h-1.43v-5.56h1.43v5.56Zm3.23,.61c0,.75-.15,1.1-.68,1.29-.51,.22-1.31,.24-2.5,.24-.07-.37-.29-.92-.48-1.28,.85,.03,1.67,.03,1.9,.02,.25,0,.32-.07,.32-.29v-6.85h1.43v6.87Z"/><path class="cd" d="M233.11,23.17c-.22-.53-.73-1.46-1.19-2.28v7.26h-1.5v-7.05c-.56,1.63-1.26,3.21-2.01,4.23-.12-.44-.49-1.14-.73-1.55,.88-1.16,1.82-3.18,2.36-4.98h-2.11v-1.46h2.48v-2.41c-.63,.12-1.26,.22-1.85,.31-.07-.34-.24-.88-.42-1.22,1.7-.32,3.62-.8,4.79-1.36l.88,1.29c-.56,.24-1.22,.42-1.9,.61v2.79h2.06v1.46h-2.06v.36c.46,.54,1.79,2.29,2.07,2.72l-.88,1.29Zm10.28,3.18v1.41h-9.72v-1.41h4.22v-1.95h-3.32v-1.36h3.32v-1.75c-.95,.1-1.92,.17-2.8,.2-.02-.34-.22-.88-.37-1.22,2.38-.15,5.18-.46,6.8-.93l1,1.19c-.87,.24-1.94,.42-3.06,.58v1.94h3.26v1.36h-3.26v1.95h3.94Zm-.87-7.46h-7.84v-5.54h7.84v5.54Zm-1.53-4.2h-4.83v2.86h4.83v-2.86Z"/><path class="cd" d="M251.18,17.1c-.8,4.47-2.7,7.73-5.08,9.47-.27-.37-.88-.99-1.27-1.24,2.06-1.36,3.65-3.81,4.44-6.97h-3.88v-1.6h4.45l.29-.07,1.05,.41Zm8.18-.48c-1.17,1.28-2.65,2.74-3.84,3.74,1.36,2.02,3.16,3.71,5.22,4.66-.37,.32-.92,.97-1.17,1.44-2.53-1.34-4.54-3.74-5.98-6.61v6.21c0,.97-.2,1.48-.78,1.75-.58,.29-1.48,.36-2.8,.36-.08-.48-.34-1.29-.6-1.77,.95,.05,1.84,.05,2.12,.03,.27,0,.39-.08,.39-.37V12.55h1.67v4.06c.32,.87,.71,1.72,1.19,2.53,1.09-1.04,2.35-2.43,3.14-3.55l1.44,1.04Z"/><path class="cd" d="M276.8,13.18v14.96h-1.7v-.92h-10.86v.92h-1.63V13.18h14.19Zm-1.7,12.56V14.79h-10.86v10.95h10.86Zm-2.11-8.62v6.24h-6.7v-6.24h6.7Zm-1.58,1.39h-3.62v3.47h3.62v-3.47Z"/><path class="cd" d="M283.63,12.8h1.56v15.35h-1.56v-4.52c-2.91,1.02-3.43,1.31-3.79,1.58-.1-.39-.39-1.09-.61-1.44,.25-.17,.59-.48,.59-1.16V14.4h1.55v8.41l2.26-.71V12.8Zm9.67,4.44c-.46,2.6-1.14,4.76-2.19,6.54,.97,1.29,2.11,2.31,3.48,3.01-.37,.27-.85,.87-1.09,1.27-1.27-.73-2.38-1.73-3.3-2.94-.95,1.22-2.14,2.24-3.64,3.06-.17-.34-.71-1-1.04-1.31,1.6-.76,2.84-1.8,3.79-3.13-.75-1.27-1.34-2.74-1.85-4.3-.32,.65-.71,1.22-1.12,1.72-.22-.32-.78-1.02-1.12-1.34,1.45-1.68,2.29-4.4,2.75-7.29l1.62,.27c-.17,1-.39,1.99-.66,2.94h5.51v1.5h-1.14Zm-4.98,.36c.44,1.72,1.05,3.33,1.85,4.74,.73-1.43,1.22-3.13,1.55-5.1h-3.26l-.14,.36Z"/></g></g><g><rect class="be" x="377.69" y="265.09" width="110" height="30" rx="6" ry="6"/><g><path class="cd" d="M397.18,277.1c-.8,4.47-2.7,7.73-5.08,9.47-.27-.37-.88-.99-1.27-1.24,2.06-1.36,3.65-3.81,4.44-6.97h-3.88v-1.6h4.45l.29-.07,1.05,.41Zm8.18-.48c-1.17,1.28-2.65,2.74-3.84,3.74,1.36,2.02,3.16,3.71,5.22,4.66-.37,.32-.92,.97-1.17,1.44-2.53-1.34-4.54-3.74-5.98-6.61v6.21c0,.97-.2,1.48-.78,1.75-.58,.29-1.48,.36-2.8,.36-.08-.48-.34-1.29-.6-1.77,.95,.05,1.84,.05,2.12,.03,.27,0,.39-.08,.39-.37v-13.51h1.67v4.06c.32,.87,.71,1.72,1.19,2.53,1.09-1.04,2.35-2.43,3.14-3.55l1.44,1.04Z"/><path class="cd" d="M416.24,281.59c-.31,1.63-.85,2.91-1.61,3.91,1.16,.88,2.7,1.09,4.49,1.09,.59,.02,3.69,0,4.49-.02-.2,.32-.41,.93-.48,1.31h-4.08c-2.21,0-3.94-.29-5.25-1.41-.83,.78-1.8,1.34-2.94,1.75-.14-.32-.44-.83-.7-1.1,1.05-.31,2.01-.85,2.79-1.62-.31-.42-.58-.95-.83-1.56-.31,.39-.63,.73-.95,1.04-.14-.19-.46-.49-.71-.73-.24,1.41-.68,2.82-1.38,3.94-.24-.29-.9-.78-1.21-.95,1.33-2.23,1.46-5.34,1.46-7.56v-4.06h5.41v-3.08h1.58v.99h5.63v1.17h-5.63v.92h5.52l.27-.07,1.12,.29c-.34,1-.76,2.14-1.17,2.87l-1.31-.39c.2-.37,.41-.93,.56-1.48h-5.08v.85l4.13-.25,.05,1.02-4.18,.25v.19c0,.46,.1,.63,.71,.63h3.62c.58,0,1.53-.03,1.9-.14,.03,.42,.07,.83,.14,1.16-.36,.1-1.17,.12-1.9,.12h-3.94c-1.63,0-2.02-.53-2.02-1.78v-.07l-3.09,.19-.07-1.02,3.16-.2v-.93h-3.91v2.84c0,1.19-.05,2.65-.29,4.11,.99-.95,1.82-2.24,2.26-3.69l1.22,.31c-.12,.36-.25,.68-.41,1.02h1.62l.24-.03,.78,.2Zm-3.35,1.24c.22,.7,.53,1.28,.85,1.77,.43-.6,.77-1.29,1-2.07h-1.68l-.17,.31Zm8.09,2.97c-.93,0-1.21-.29-1.21-1.26v-1.94h-1.41v.12c0,1.12-.29,2.5-1.58,3.48-.19-.25-.73-.73-.97-.88,1.12-.8,1.29-1.82,1.29-2.63v-1.27h3.86v3.14c0,.32,.03,.37,.24,.37h.53c.17,0,.24-.19,.29-1.14,.22,.19,.65,.31,.95,.37-.08,1.26-.39,1.63-1.1,1.63h-.88Z"/><path class="cd" d="M430.54,284.67c-1.85,.65-3.83,1.31-5.35,1.8l-.37-1.61c.61-.17,1.36-.37,2.18-.63v-4.32h-1.84v-1.46h1.84v-3.38h-2.01v-1.46h5.41v1.46h-1.89v3.38h1.61v1.46h-1.61v3.84c.58-.19,1.19-.37,1.77-.58l.27,1.5Zm10.05,1.48v1.44h-10.86v-1.44h4.93v-2.02h-3.69v-1.43h3.69v-1.75h-3.54v-7.65h8.7v7.65h-3.55v1.75h3.77v1.43h-3.77v2.02h4.32Zm-8.02-9.67h2.23v-1.83h-2.23v1.83Zm0,3.13h2.23v-1.87h-2.23v1.87Zm5.75-4.96h-2.18v1.83h2.18v-1.83Zm0,3.09h-2.18v1.87h2.18v-1.87Z"/><path class="cd" d="M447.4,283.92c-1,1.31-2.5,2.7-3.77,3.57-.31-.31-.95-.82-1.36-1.05,1.31-.75,2.69-1.95,3.54-3.08l1.6,.56Zm3.23-1.39v3.82c0,.82-.19,1.26-.82,1.5-.61,.24-1.51,.25-2.75,.25-.08-.44-.34-1.12-.59-1.55,.95,.05,1.92,.05,2.21,.03,.27-.02,.34-.08,.34-.27v-3.66c-4.27,.34-4.96,.44-5.49,.65-.07-.31-.31-1.05-.48-1.48,.6-.08,1.31-.34,2.31-.83,.61-.27,1.85-.88,3.28-1.72-3.33,.22-3.89,.31-4.28,.46-.07-.32-.29-1.09-.48-1.48,.42-.07,.83-.25,1.39-.56,.54-.25,2.07-1.14,3.37-2.19-1.82,.41-3.76,.77-5.56,1.05-.05-.41-.29-1-.44-1.34,3.82-.63,8.14-1.61,10.62-2.72l1.16,1.24c-1.38,.58-3.06,1.1-4.86,1.55l1,.63c-1.04,.8-2.14,1.53-3.26,2.14l3.62-.17c.63-.42,1.26-.88,1.85-1.34l1.21,1.04c-2.07,1.5-4.25,2.75-6.42,3.79l6.1-.41c-.44-.53-.94-1.04-1.36-1.48l1.29-.65c1.24,1.16,2.67,2.72,3.38,3.74l-1.34,.83c-.22-.32-.53-.75-.88-1.19l-4.11,.31Zm2.52,.65c1.31,.94,2.99,2.29,3.84,3.21l-1.38,.95c-.77-.92-2.41-2.35-3.74-3.35l1.28-.82Z"/><path class="cd" d="M463.99,282.69c-.03-.22-.1-.51-.19-.82-3.57,.63-4.1,.76-4.44,.95-.07-.31-.31-1.05-.49-1.44,.39-.1,.77-.51,1.28-1.14,.25-.27,.7-.87,1.22-1.65-1.53,.19-1.89,.27-2.12,.39-.08-.31-.32-1.04-.49-1.43,.31-.08,.6-.42,.95-.93,.34-.46,1.48-2.38,2.14-4.18l1.45,.61c-.73,1.55-1.65,3.14-2.58,4.4l1.5-.12c.48-.78,.95-1.63,1.34-2.46l1.33,.82c-1.05,1.89-2.36,3.82-3.71,5.39l2.28-.34c-.15-.53-.36-1.02-.56-1.48l1.11-.39c.51,1.07,1.02,2.48,1.19,3.37l-1.19,.46Zm-3.25,.99c-.17,1.48-.44,3.09-.8,4.11-.27-.15-.88-.34-1.19-.44,.37-1.02,.61-2.52,.73-3.89l1.26,.22Zm1.73-.31c.22,1.11,.43,2.57,.48,3.5l-1.22,.31c-.03-.95-.2-2.43-.39-3.55l1.14-.25Zm1.8-.46c.36,.92,.73,2.14,.9,2.92l-1.12,.39c-.15-.8-.54-2.02-.85-2.96l1.07-.36Zm8.45,3.54c.34,0,.41-.32,.44-2.28,.32,.26,.95,.51,1.34,.61-.14,2.4-.49,3.06-1.63,3.06h-1.34c-1.33,0-1.65-.46-1.65-1.94v-5.56l-1.31,.15c-.15,3.82-.61,6.27-3.5,7.72-.15-.41-.61-.97-.95-1.26,2.48-1.12,2.84-3.06,2.94-6.25-.9,.1-1.21,.19-1.43,.31-.08-.32-.36-1.11-.56-1.55,.39-.1,.73-.54,1.19-1.24,.24-.32,.71-1.14,1.24-2.16h-2.28v-1.48h2.99c.31-.68,.59-1.38,.83-2.09l1.73,.48c-.24,.53-.49,1.09-.73,1.61h4.16v1.48h-4.93c-.61,1.12-1.26,2.19-1.9,3.13l4.33-.41c-.32-.6-.68-1.16-.99-1.67l1.27-.56c.88,1.31,1.92,3.03,2.35,4.15l-1.39,.66c-.14-.37-.32-.82-.56-1.31l-1.02,.12v5.71c0,.48,.03,.56,.39,.56h.95Z"/></g></g><g><rect class="be" x="54.69" y="300.09" width="130" height="30" rx="6" ry="6"/><g><path class="cd" d="M72.11,315.28c-.61-.54-1.85-1.33-2.8-1.8l.73-1.19c.92,.41,2.19,1.14,2.82,1.67l-.75,1.33Zm1.34,2.23c-.77,1.75-1.72,3.74-2.58,5.34l-1.14-1.09c.76-1.26,1.87-3.4,2.72-5.3l1,1.05Zm-.48-6.68c-.61-.58-1.85-1.38-2.79-1.9l.76-1.17c.92,.48,2.19,1.22,2.8,1.77l-.78,1.31Zm.15,11.66c.75-.73,1.39-1.96,1.75-2.94l1.24,.53c-.41,1-.99,2.24-1.73,3.03l-1.26-.61Zm4.96-5.81c.44,.76,.88,1.82,1.04,2.52l-.9,.39c-.05-.24-.14-.53-.24-.83-2.84,.31-3.38,.41-3.71,.53-.08-.17-.29-.68-.46-.92,.32-.03,.66-.29,1.05-.7,.22-.17,.68-.68,1.21-1.31-1.31,.1-1.68,.17-1.94,.25-.07-.2-.27-.65-.42-.87,.25-.05,.44-.2,.68-.48,.24-.24,.92-1.16,1.31-2.07h-1.29v-5.05h9.21v5.05h-7.68l.99,.41c-.32,.59-.75,1.21-1.21,1.73l1.17-.07c.2-.31,.42-.61,.59-.93l1.12,.61c-.68,1-1.56,2.07-2.52,2.96l1.51-.14c-.12-.25-.24-.53-.37-.77l.85-.32Zm-2.23-6.53h6.26v-.94h-6.26v.94Zm0,1.97h6.26v-.97h-6.26v.97Zm2.38,7.77c.25,.9,.48,2.09,.51,2.86l-1.29,.25c-.02-.78-.22-1.99-.46-2.91l1.24-.2Zm5.66-.27c-.07-.24-.17-.54-.31-.85-3.04,.32-3.6,.42-3.94,.56-.07-.2-.29-.68-.46-.92,.34-.05,.66-.31,1.07-.7,.22-.17,.66-.65,1.17-1.24-1.34,.1-1.72,.17-1.96,.25-.08-.19-.27-.65-.44-.87,.24-.05,.44-.22,.7-.46,.22-.25,.97-1.22,1.34-2.14l1.19,.49c-.34,.58-.75,1.17-1.21,1.7l1.21-.07c.24-.34,.46-.68,.66-1.02l1.12,.63c-.7,.99-1.56,2.02-2.53,2.92l1.61-.15c-.14-.22-.27-.46-.41-.68l.83-.39c.53,.78,1.04,1.8,1.26,2.5l-.92,.42Zm-3.35,.15c.46,.85,.93,2.01,1.12,2.75l-1.24,.43c-.17-.75-.61-1.92-1.05-2.8l1.17-.37Zm2.46-.31c.75,.95,1.48,2.24,1.82,3.11l-1.24,.56c-.31-.87-1.05-2.19-1.75-3.16l1.17-.51Z"/><path class="cd" d="M91.71,316.59l.37,1.39c-1.79,.85-3.69,1.73-5.17,2.4l-.63-1.58c.61-.22,1.39-.53,2.26-.88v-4.9h-1.94v-1.5h1.94v-3.77h1.48v3.77h1.72v1.5h-1.72v4.28l1.68-.71Zm7.73,4.78c.93,0,1.1-.42,1.24-2.28,.36,.24,.97,.49,1.39,.58-.22,2.35-.7,3.11-2.53,3.11h-3.91c-2.09,0-2.69-.53-2.69-2.57v-4.91l-1.17,.51-.59-1.41,1.77-.75v-4.5h1.5v3.88l1.9-.8v-4.67h1.48v4.04l2.28-.97,1.17,.39-.07,.26c-.14,2.36-.39,5.47-.82,7.41l-1.29-.36c.25-1.46,.44-3.82,.53-5.9l-1.8,.78v6.1h-1.48v-5.47l-1.9,.82v5.58c0,.95,.19,1.14,1.28,1.14h3.72Z"/><path class="cd" d="M117.25,309.79v13.29h-1.67v-.85h-8.6v.92h-1.58v-13.36h4.28c.24-.73,.44-1.61,.56-2.28l1.89,.22c-.27,.71-.54,1.45-.83,2.06h5.95Zm-10.27,1.51v2.18h8.6v-2.18h-8.6Zm0,3.64v2.18h8.6v-2.18h-8.6Zm8.6,5.83v-2.19h-8.6v2.19h8.6Z"/><path class="cd" d="M120.39,322.54c.73-.78,1.6-2.11,2.14-3.26l1.48,.39c-.56,1.19-1.39,2.58-2.14,3.48l-1.48-.61Zm8.29-13.22c-1,5.03-3.59,8.04-6.88,9.52-.22-.34-.76-.95-1.1-1.19,2.01-.83,3.71-2.19,4.88-4.13-.58-.59-1.48-1.33-2.31-1.9-.65,.92-1.39,1.75-2.19,2.4-.14-.36-.46-1.04-.66-1.36,1.56-1.29,2.84-3.45,3.43-5.29l1.5,.44c-.15,.39-.34,.8-.53,1.21h2.62l.31-.07,.95,.37Zm-4.28,5.27c-1.16,.41-2.26,.78-3.26,1.1l-.36-1.22c.92-.2,2.14-.54,3.45-.87l.17,.99Zm-.26-4.32l-.25,.41c.77,.51,1.65,1.16,2.28,1.7,.29-.65,.54-1.34,.75-2.11h-2.77Zm2.77,9.4c.2,1,.39,2.33,.41,3.11l-1.53,.2c-.02-.8-.15-2.12-.36-3.16l1.48-.15Zm7.63-.93c-.48-1.33-1.58-3.35-2.69-5.12-.56,1.89-1.7,3.84-4.08,5.44-.27-.32-.8-.75-1.19-1.02,2.5-1.68,3.55-3.71,3.98-5.56h-2.28v-1.5h2.52c.03-.43,.05-.85,.05-1.22v-2.01h1.5v2.02c0,.37-.02,.8-.03,1.21h3.52v1.5h-3.04c1.26,1.85,2.58,4.11,3.2,5.59l-1.45,.66Zm-4.18,.82c.44,.97,.87,2.28,1.04,3.09l-1.55,.31c-.14-.82-.54-2.14-.97-3.16l1.48-.24Zm3.38-.41c.8,1.02,1.79,2.43,2.23,3.35l-1.5,.68c-.39-.92-1.33-2.36-2.12-3.43l1.39-.59Zm.58-8.38c-.32-.61-1.04-1.58-1.67-2.29l1.14-.63c.65,.66,1.39,1.58,1.72,2.21l-1.19,.71Z"/><path class="cd" d="M143.68,312.1c-.8,4.47-2.7,7.73-5.08,9.47-.27-.37-.88-.99-1.27-1.24,2.06-1.36,3.65-3.81,4.44-6.97h-3.88v-1.6h4.45l.29-.07,1.05,.41Zm8.18-.48c-1.17,1.28-2.65,2.74-3.84,3.74,1.36,2.02,3.16,3.71,5.22,4.66-.37,.32-.92,.97-1.17,1.44-2.53-1.34-4.54-3.74-5.98-6.61v6.21c0,.97-.2,1.48-.78,1.75-.58,.29-1.48,.36-2.8,.36-.08-.48-.34-1.29-.6-1.77,.95,.05,1.84,.05,2.12,.03,.27,0,.39-.08,.39-.37v-13.51h1.67v4.06c.32,.87,.71,1.72,1.19,2.53,1.09-1.04,2.35-2.43,3.14-3.55l1.44,1.04Z"/><path class="cd" d="M160.41,315.35v6.31c0,.63-.12,.95-.53,1.17-.41,.2-1,.22-1.92,.22-.07-.36-.25-.87-.42-1.19,.61,.02,1.14,.02,1.33,0,.17,0,.22-.05,.22-.22v-1.92c-.7,.43-1.38,.85-2.01,1.22l-.48-.95c-.15,1.14-.42,2.31-1.04,3.21-.22-.25-.8-.66-1.11-.8,.87-1.29,.95-3.03,.95-4.37v-2.69h-.83v-2.52h.7v-4.74h5.18v4.74h.7v2.52h-.75Zm-.46-1.41h-4.21v.92h4.21v-.92Zm-3.43-1.1h.87v-2.67h1.77v-.9h-2.63v3.57Zm.19,5.22c0,.54-.02,1.16-.08,1.8,.68-.29,1.55-.73,2.46-1.19v-2.72h-2.38v1.17l.63-.65c.65,.39,1.38,.93,1.73,1.29l-.71,.82c-.36-.37-1.07-.99-1.65-1.38v.85Zm2.45-5.22v-1.72h-.9v1.72h.9Zm10.86,8.8v1.19h-8.86v-1.19h2.24c-.15-.46-.34-.99-.53-1.43l1.14-.34h-1.92v-3.21h7v3.21h-1.99l1.29,.36c-.29,.48-.54,.97-.8,1.41h2.41Zm-.15-5.68h-8.52v-1.17h8.52v1.17Zm-.41-1.92h-7.8v-5.24h2.07v-1.26h1.26v1.26h1.02v-1.26h1.26v1.26h2.19v5.24Zm-6.6-3.14h1.12v-1.02h-1.12v1.02Zm0,2.06h1.12v-1.04h-1.12v1.04Zm.61,5.92h4.15v-1.19h-4.15v1.19Zm.59,1c.27,.56,.56,1.26,.73,1.77h1.5c.25-.56,.53-1.27,.68-1.77h-2.91Zm1.99-8.97v-1.02h-1.07v1.02h1.07Zm-1.07,1.02v1.04h1.07v-1.04h-1.07Zm3.23-2.04h-1.16v1.02h1.16v-1.02Zm0,2.04h-1.16v1.04h1.16v-1.04Z"/></g></g><g><rect class="be" x="23.69" y="96.09" width="60" height="30" rx="6" ry="6"/><g><path class="cd" d="M40.42,109.21c0,2.77-.24,6.87-1.77,9.57-.29-.26-.99-.66-1.36-.8,1.45-2.53,1.56-6.19,1.56-8.77v-4.83h13.84v1.45h-12.27v3.38Zm4.01,5.64c-.85,1.26-2.02,2.69-2.96,3.6-.31-.25-.93-.66-1.33-.87,.99-.85,2.06-2.11,2.77-3.23l1.51,.49Zm2.89-1.19v3.83c0,.76-.14,1.17-.7,1.39-.56,.22-1.41,.24-2.67,.24-.07-.42-.27-1-.46-1.39,.88,.02,1.73,.02,1.97,.02,.25-.02,.32-.08,.32-.29v-3.79h-4.03v-6.31h3.18c.24-.49,.44-1,.58-1.41l1.87,.25c-.24,.39-.46,.78-.7,1.16h4.74v6.31h-4.11Zm-4.01-3.72h6.51v-1.36h-6.51v1.36Zm0,2.5h6.51v-1.36h-6.51v1.36Zm6.43,1.92c.97,1.05,2.31,2.5,2.99,3.38l-1.34,.8c-.61-.9-1.94-2.41-2.89-3.5l1.24-.68Z"/><path class="cd" d="M60.68,108.1c-.8,4.47-2.7,7.73-5.08,9.47-.27-.37-.88-.99-1.27-1.24,2.06-1.36,3.65-3.81,4.44-6.97h-3.88v-1.6h4.45l.29-.07,1.05,.41Zm8.18-.48c-1.17,1.28-2.65,2.74-3.84,3.74,1.36,2.02,3.16,3.71,5.22,4.66-.37,.32-.92,.97-1.17,1.44-2.53-1.34-4.54-3.74-5.98-6.61v6.21c0,.97-.2,1.48-.78,1.75-.58,.29-1.48,.36-2.8,.36-.08-.48-.34-1.29-.6-1.77,.95,.05,1.84,.05,2.12,.03,.27,0,.39-.08,.39-.37v-13.51h1.67v4.06c.32,.87,.71,1.72,1.19,2.53,1.09-1.04,2.35-2.43,3.14-3.55l1.44,1.04Z"/></g></g></g></g><g id="ax"/><g id="ay"/><g id="b`"/></g></svg>