<?xml version="1.0" encoding="UTF-8"?><svg id="_循環圖" xmlns="http://www.w3.org/2000/svg" viewBox="0 0 500 357.8"><defs><style>.cls-1{stroke-linecap:round;}.cls-1,.cls-2{stroke-linejoin:round;}.cls-1,.cls-2,.cls-3,.cls-4{fill:none;}.cls-1,.cls-2,.cls-4{stroke:#483d38;}.cls-5{fill:#007f41;}.cls-6,.cls-7{fill:#e9d0a1;}.cls-8,.cls-9{fill:#fff;}.cls-10{fill:#de0037;}.cls-11{fill:#d80a30;}.cls-12{fill:#231815;}.cls-13,.cls-14{fill:#483d38;}.cls-3{stroke:#d80a30;stroke-width:3px;}.cls-3,.cls-4{stroke-miterlimit:8;}.cls-14,.cls-15,.cls-7,.cls-9{fill-rule:evenodd;}.cls-15{fill:#f29b87;}</style></defs><path class="cls-15" d="M403.4,169.97c0,62.99-74.86,114.02-167.23,114.02s-167.2-51.05-167.2-114.02S143.84,55.95,236.17,55.95s167.23,51.05,167.23,114.02Z"/><path class="cls-3" d="M403.4,169.97c0,62.99-74.86,114.02-167.23,114.02s-167.2-51.05-167.2-114.02S143.84,55.95,236.17,55.95s167.23,51.05,167.23,114.02Z"/><g><ellipse class="cls-11" cx="409.21" cy="159.54" rx="50.07" ry="51.6"/><rect class="cls-6" x="367.84" y="130.28" width="68.35" height="61.83"/><rect class="cls-1" x="367.84" y="130.28" width="68.35" height="61.83"/><rect class="cls-6" x="436.18" y="106.02" width="22.02" height="86.09"/><rect class="cls-1" x="436.18" y="106.01" width="22.02" height="86.09"/><line class="cls-1" x1="367.84" y1="135.88" x2="436.18" y2="135.88"/><rect class="cls-6" x="333.11" y="149.51" width="16" height="25.57"/><rect class="cls-1" x="333.11" y="149.51" width="16" height="25.57"/><polygon class="cls-7" points="367.84 188.69 349.11 175.54 349.11 149.73 367.84 137.91 367.84 188.69"/><polygon class="cls-1" points="367.84 188.69 349.11 175.54 349.11 149.73 367.84 137.91 367.84 188.69"/><rect class="cls-6" x="364.43" y="192.1" width="71.77" height="5.07"/><rect class="cls-1" x="364.43" y="192.1" width="71.77" height="5.07"/><rect class="cls-6" x="377.6" y="125.21" width="8.72" height="4.16"/><rect class="cls-1" x="377.6" y="125.21" width="8.72" height="4.16"/><rect class="cls-6" x="394.8" y="125.21" width="9.24" height="4.16"/><rect class="cls-1" x="394.8" y="125.21" width="9.24" height="4.16"/><rect class="cls-6" x="409.47" y="121.82" width="11.15" height="7.57"/><rect class="cls-1" x="409.47" y="121.82" width="11.15" height="7.57"/><rect class="cls-6" x="420.62" y="124.74" width="7.45" height="4.63"/><rect class="cls-1" x="420.62" y="124.74" width="7.45" height="4.63"/><ellipse class="cls-6" cx="447.2" cy="106.01" rx="11.02" ry="6"/><ellipse class="cls-1" cx="447.2" cy="106.01" rx="11.02" ry="6"/><path class="cls-7" d="M436.18,135.9c0,3.3,4.94,6,11.02,6s11.02-2.7,11.02-6"/><path class="cls-1" d="M436.18,135.9c0,3.3,4.94,6,11.02,6s11.02-2.7,11.02-6"/><polygon class="cls-7" points="460.86 197.17 433.34 197.17 436.18 192.1 458.22 192.1 460.86 197.17"/><polygon class="cls-1" points="460.86 197.17 433.34 197.17 436.18 192.1 458.22 192.1 460.86 197.17"/><line class="cls-1" x1="453.81" y1="118.43" x2="453.81" y2="134.02"/><line class="cls-1" x1="453.81" y1="146.72" x2="453.81" y2="187.5"/><rect class="cls-6" x="374.27" y="170.21" width="7.48" height="17.29"/><rect class="cls-1" x="374.27" y="170.21" width="7.48" height="17.29"/><rect class="cls-6" x="386.3" y="170.21" width="3.74" height="17.29"/><rect class="cls-1" x="386.3" y="170.21" width="3.74" height="17.29"/><rect class="cls-6" x="395.58" y="170.21" width="2.51" height="17.29"/><rect class="cls-1" x="395.58" y="170.21" width="2.51" height="17.29"/><rect class="cls-6" x="405.44" y="170.21" width="7.48" height="17.29"/><rect class="cls-1" x="405.44" y="170.21" width="7.48" height="17.29"/><rect class="cls-6" x="417.47" y="170.21" width="3.74" height="17.29"/><rect class="cls-1" x="417.47" y="170.21" width="3.74" height="17.29"/><rect class="cls-6" x="426.75" y="170.21" width="2.51" height="17.29"/><rect class="cls-1" x="426.75" y="170.21" width="2.51" height="17.29"/><path class="cls-9" d="M399.53,153.5c0,6.04-4.75,10.96-10.63,10.96s-10.63-4.91-10.63-10.96,4.77-10.96,10.63-10.96,10.63,4.91,10.63,10.96Z"/><ellipse class="cls-1" cx="388.9" cy="153.5" rx="10.63" ry="10.96"/><path class="cls-9" d="M427.02,153.46c0,6.04-4.75,10.96-10.63,10.96s-10.63-4.91-10.63-10.96,4.77-10.96,10.63-10.96,10.63,4.91,10.63,10.96Z"/><path class="cls-1" d="M427.02,153.46c0,6.04-4.75,10.96-10.63,10.96s-10.63-4.91-10.63-10.96,4.77-10.96,10.63-10.96,10.63,4.91,10.63,10.96Z"/><path class="cls-7" d="M385.63,148.65s.73,1.13,.73,2.83-1.48,3.23-1.48,4.56,.52,2.3,.52,2.3"/><path class="cls-1" d="M385.63,148.65s.73,1.13,.73,2.83-1.48,3.23-1.48,4.56,.52,2.3,.52,2.3"/><path class="cls-7" d="M389.35,148.65s.73,1.13,.73,2.83-1.48,3.23-1.48,4.56,.54,2.3,.54,2.3"/><path class="cls-1" d="M389.35,148.65s.73,1.13,.73,2.83-1.48,3.23-1.48,4.56,.54,2.3,.54,2.3"/><path class="cls-7" d="M393.02,148.65s.73,1.13,.73,2.83-1.48,3.23-1.48,4.56,.54,2.3,.54,2.3"/><path class="cls-1" d="M393.02,148.65s.73,1.13,.73,2.83-1.48,3.23-1.48,4.56,.54,2.3,.54,2.3"/><polygon class="cls-14" points="415.27 148.8 418.71 148.8 415.81 152.79 419.25 152.79 414.01 159.41 415.92 154.51 412.59 154.51 415.27 148.8"/><polygon class="cls-2" points="415.27 148.8 418.71 148.8 415.81 152.79 419.25 152.79 414.01 159.41 415.92 154.51 412.59 154.51 415.27 148.8"/></g><g><ellipse class="cls-11" cx="258.1" cy="52.12" rx="38.84" ry="40.02"/><path class="cls-6" d="M232.9,36.88c-.24-3.36,2.29-6.28,5.65-6.53,3.36-.24,6.28,2.29,6.53,5.65,.24,3.36-2.29,6.28-5.65,6.53s-6.28-2.29-6.53-5.65Z"/><path class="cls-4" d="M232.9,36.88c-.24-3.36,2.29-6.28,5.65-6.53,3.36-.24,6.28,2.29,6.53,5.65,.24,3.36-2.29,6.28-5.65,6.53-3.36,.24-6.28-2.29-6.53-5.65Z"/><path class="cls-6" d="M236.01,39.57c-.24-3.36,2.29-6.28,5.65-6.53,3.36-.24,6.28,2.29,6.53,5.65,.24,3.36-2.29,6.28-5.65,6.53-3.36,.24-6.28-2.29-6.53-5.65Z"/><path class="cls-4" d="M236.01,39.57c-.24-3.36,2.29-6.28,5.65-6.53,3.36-.24,6.28,2.29,6.53,5.65,.24,3.36-2.29,6.28-5.65,6.53-3.36,.24-6.28-2.29-6.53-5.65Z"/><path class="cls-6" d="M233.79,45.15c-.24-3.36,3.26-6.35,7.83-6.68,4.56-.33,8.46,2.13,8.7,5.49,.24,3.36-3.26,6.35-7.83,6.68-4.56,.33-8.46-2.13-8.7-5.49Z"/><path class="cls-4" d="M233.79,45.15c-.24-3.36,3.26-6.35,7.83-6.68,4.56-.33,8.46,2.13,8.7,5.49,.24,3.36-3.26,6.35-7.83,6.68-4.56,.33-8.46-2.13-8.7-5.49Z"/><path class="cls-6" d="M242.22,44.96c-.24-3.36,2.29-6.28,5.65-6.53,3.36-.24,6.28,2.29,6.53,5.65,.24,3.36-2.29,6.28-5.65,6.53-3.36,.24-6.28-2.29-6.53-5.65Z"/><path class="cls-4" d="M242.22,44.96c-.24-3.36,2.29-6.28,5.65-6.53,3.36-.24,6.28,2.29,6.53,5.65,.24,3.36-2.29,6.28-5.65,6.53-3.36,.24-6.28-2.29-6.53-5.65Z"/><path class="cls-6" d="M245.33,47.65c-.24-3.36,2.29-6.28,5.65-6.53,3.36-.24,6.28,2.29,6.53,5.65,.24,3.36-2.29,6.28-5.65,6.53-3.36,.24-6.28-2.29-6.53-5.65Z"/><path class="cls-4" d="M245.33,47.65c-.24-3.36,2.29-6.28,5.65-6.53,3.36-.24,6.28,2.29,6.53,5.65,.24,3.36-2.29,6.28-5.65,6.53-3.36,.24-6.28-2.29-6.53-5.65Z"/><path class="cls-6" d="M248.44,50.34c-.24-3.36,2.29-6.28,5.65-6.53,3.36-.24,6.28,2.29,6.53,5.65s-2.29,6.28-5.65,6.53c-3.36,.24-6.28-2.29-6.53-5.65Z"/><path class="cls-4" d="M248.44,50.34c-.24-3.36,2.29-6.28,5.65-6.53,3.36-.24,6.28,2.29,6.53,5.65,.24,3.36-2.29,6.28-5.65,6.53-3.36,.24-6.28-2.29-6.53-5.65Z"/><path class="cls-6" d="M251.55,53.03c-.24-3.36,2.29-6.28,5.65-6.53,3.36-.24,6.28,2.29,6.53,5.65,.24,3.36-2.29,6.28-5.65,6.53s-6.28-2.29-6.53-5.65Z"/><path class="cls-4" d="M251.55,53.03c-.24-3.36,2.29-6.28,5.65-6.53,3.36-.24,6.28,2.29,6.53,5.65,.24,3.36-2.29,6.28-5.65,6.53-3.36,.24-6.28-2.29-6.53-5.65Z"/><path class="cls-6" d="M254.66,55.72c-.24-3.36,2.29-6.28,5.65-6.53,3.36-.24,6.28,2.29,6.53,5.65,.24,3.36-2.29,6.28-5.65,6.53s-6.28-2.29-6.53-5.65Z"/><path class="cls-4" d="M254.66,55.72c-.24-3.36,2.29-6.28,5.65-6.53,3.36-.24,6.28,2.29,6.53,5.65s-2.29,6.28-5.65,6.53c-3.36,.24-6.28-2.29-6.53-5.65Z"/><path class="cls-6" d="M257.76,58.41c-.24-3.36,2.29-6.28,5.65-6.53,3.36-.24,6.28,2.29,6.53,5.65,.24,3.36-2.29,6.28-5.65,6.53-3.36,.24-6.28-2.29-6.53-5.65Z"/><path class="cls-4" d="M257.76,58.41c-.24-3.36,2.29-6.28,5.65-6.53,3.36-.24,6.28,2.29,6.53,5.65,.24,3.36-2.29,6.28-5.65,6.53-3.36,.24-6.28-2.29-6.53-5.65Z"/><path class="cls-6" d="M260.87,61.1c-.24-3.36,2.29-6.28,5.65-6.53,3.36-.24,6.28,2.29,6.53,5.65,.24,3.36-2.29,6.28-5.65,6.53-3.36,.24-6.28-2.29-6.53-5.65Z"/><path class="cls-4" d="M260.87,61.1c-.24-3.36,2.29-6.28,5.65-6.53,3.36-.24,6.28,2.29,6.53,5.65,.24,3.36-2.29,6.28-5.65,6.53-3.36,.24-6.28-2.29-6.53-5.65Z"/><path class="cls-6" d="M263.98,63.79c-.24-3.36,2.29-6.28,5.65-6.53s6.28,2.29,6.53,5.65c.24,3.36-2.29,6.28-5.65,6.53-3.36,.24-6.28-2.29-6.53-5.65Z"/><path class="cls-4" d="M263.98,63.79c-.24-3.36,2.29-6.28,5.65-6.53s6.28,2.29,6.53,5.65c.24,3.36-2.29,6.28-5.65,6.53-3.36,.24-6.28-2.29-6.53-5.65Z"/><path class="cls-6" d="M260.23,64.35c-.24-3.36,2.29-6.28,5.65-6.53,3.36-.24,6.28,2.29,6.53,5.65,.24,3.36-2.29,6.28-5.65,6.53-3.36,.24-6.28-2.29-6.53-5.65Z"/><path class="cls-4" d="M260.23,64.35c-.24-3.36,2.29-6.28,5.65-6.53,3.36-.24,6.28,2.29,6.53,5.65,.24,3.36-2.29,6.28-5.65,6.53-3.36,.24-6.28-2.29-6.53-5.65Z"/><path class="cls-6" d="M270.2,69.17c-.24-3.36,2.29-6.28,5.65-6.53,3.36-.24,6.28,2.29,6.53,5.65,.24,3.36-2.29,6.28-5.65,6.53-3.36,.24-6.28-2.29-6.53-5.65Z"/><path class="cls-4" d="M270.2,69.17c-.24-3.36,2.29-6.28,5.65-6.53,3.36-.24,6.28,2.29,6.53,5.65,.24,3.36-2.29,6.28-5.65,6.53-3.36,.24-6.28-2.29-6.53-5.65Z"/><path class="cls-6" d="M262.83,56.06c-.24-3.36,2.29-6.28,5.65-6.53,3.36-.24,6.28,2.29,6.53,5.65,.24,3.36-2.29,6.28-5.65,6.53-3.36,.24-6.28-2.29-6.53-5.65Z"/><path class="cls-4" d="M262.83,56.06c-.24-3.36,2.29-6.28,5.65-6.53,3.36-.24,6.28,2.29,6.53,5.65,.24,3.36-2.29,6.28-5.65,6.53-3.36,.24-6.28-2.29-6.53-5.65Z"/><path class="cls-6" d="M260.94,74.17c-.24-3.36,2.29-6.28,5.65-6.53,3.36-.24,6.28,2.29,6.53,5.65,.24,3.36-2.29,6.28-5.65,6.53-3.36,.24-6.28-2.29-6.53-5.65Z"/><path class="cls-4" d="M260.94,74.17c-.24-3.36,2.29-6.28,5.65-6.53,3.36-.24,6.28,2.29,6.53,5.65,.24,3.36-2.29,6.28-5.65,6.53-3.36,.24-6.28-2.29-6.53-5.65Z"/><path class="cls-6" d="M252.33,39.57c-.24-3.36,2.29-6.28,5.65-6.53,3.36-.24,6.28,2.29,6.53,5.65,.24,3.36-2.29,6.28-5.65,6.53-3.36,.24-6.28-2.29-6.53-5.65Z"/><path class="cls-4" d="M252.33,39.57c-.24-3.36,2.29-6.28,5.65-6.53,3.36-.24,6.28,2.29,6.53,5.65,.24,3.36-2.29,6.28-5.65,6.53-3.36,.24-6.28-2.29-6.53-5.65Z"/><path class="cls-6" d="M258.77,47.76c-.24-3.36,2.29-6.28,5.65-6.53,3.36-.24,6.28,2.29,6.53,5.65,.24,3.36-2.29,6.28-5.65,6.53-3.36,.24-6.28-2.29-6.53-5.65Z"/><path class="cls-4" d="M258.77,47.76c-.24-3.36,2.29-6.28,5.65-6.53,3.36-.24,6.28,2.29,6.53,5.65,.24,3.36-2.29,6.28-5.65,6.53-3.36,.24-6.28-2.29-6.53-5.65Z"/><path class="cls-6" d="M263.99,47.8c-.24-3.36,2.29-6.28,5.65-6.53,3.36-.24,6.28,2.29,6.53,5.65,.24,3.36-2.29,6.28-5.65,6.53-3.36,.24-6.28-2.29-6.53-5.65Z"/><path class="cls-4" d="M263.99,47.8c-.24-3.36,2.29-6.28,5.65-6.53,3.36-.24,6.28,2.29,6.53,5.65,.24,3.36-2.29,6.28-5.65,6.53-3.36,.24-6.28-2.29-6.53-5.65Z"/><path class="cls-6" d="M240,50.44c-.24-3.36,2.29-6.28,5.65-6.53,3.36-.24,6.28,2.29,6.53,5.65,.24,3.36-2.29,6.28-5.65,6.53-3.36,.24-6.28-2.29-6.53-5.65Z"/><path class="cls-4" d="M240,50.44c-.24-3.36,2.29-6.28,5.65-6.53,3.36-.24,6.28,2.29,6.53,5.65s-2.29,6.28-5.65,6.53c-3.36,.24-6.28-2.29-6.53-5.65Z"/><path class="cls-6" d="M234.11,53.66c-.24-3.36,2.29-6.28,5.65-6.53,3.36-.24,6.28,2.29,6.53,5.65,.24,3.36-2.29,6.28-5.65,6.53s-6.28-2.29-6.53-5.65Z"/><path class="cls-4" d="M234.11,53.66c-.24-3.36,2.29-6.28,5.65-6.53,3.36-.24,6.28,2.29,6.53,5.65,.24,3.36-2.29,6.28-5.65,6.53-3.36,.24-6.28-2.29-6.53-5.65Z"/><path class="cls-6" d="M248.89,52.59c-.24-3.36,2.29-6.28,5.65-6.53,3.36-.24,6.28,2.29,6.53,5.65,.24,3.36-2.29,6.28-5.65,6.53-3.36,.24-6.28-2.29-6.53-5.65Z"/><path class="cls-4" d="M248.89,52.59c-.24-3.36,2.29-6.28,5.65-6.53,3.36-.24,6.28,2.29,6.53,5.65,.24,3.36-2.29,6.28-5.65,6.53-3.36,.24-6.28-2.29-6.53-5.65Z"/><path class="cls-6" d="M254.35,55.7c-.24-3.36,2.29-6.28,5.65-6.53,3.36-.24,6.28,2.29,6.53,5.65,.24,3.36-2.29,6.28-5.65,6.53-3.36,.24-6.28-2.29-6.53-5.65Z"/><path class="cls-4" d="M254.35,55.7c-.24-3.36,2.29-6.28,5.65-6.53,3.36-.24,6.28,2.29,6.53,5.65,.24,3.36-2.29,6.28-5.65,6.53-3.36,.24-6.28-2.29-6.53-5.65Z"/><path class="cls-6" d="M263.98,59.09c-.24-3.36,2.29-6.28,5.65-6.53,3.36-.24,6.28,2.29,6.53,5.65,.24,3.36-2.29,6.28-5.65,6.53-3.36,.24-6.28-2.29-6.53-5.65Z"/><path class="cls-4" d="M263.98,59.09c-.24-3.36,2.29-6.28,5.65-6.53,3.36-.24,6.28,2.29,6.53,5.65,.24,3.36-2.29,6.28-5.65,6.53-3.36,.24-6.28-2.29-6.53-5.65Z"/><path class="cls-6" d="M246.83,60.41c-.24-3.36,2.29-6.28,5.65-6.53,3.36-.24,6.28,2.29,6.53,5.65,.24,3.36-2.29,6.28-5.65,6.53-3.36,.24-6.28-2.29-6.53-5.65Z"/><path class="cls-4" d="M246.83,60.41c-.24-3.36,2.29-6.28,5.65-6.53,3.36-.24,6.28,2.29,6.53,5.65,.24,3.36-2.29,6.28-5.65,6.53-3.36,.24-6.28-2.29-6.53-5.65Z"/><path class="cls-6" d="M234.63,56.87c-.24-3.36,2.29-6.28,5.65-6.53,3.36-.24,6.28,2.29,6.53,5.65,.24,3.36-2.29,6.28-5.65,6.53-3.36,.24-6.28-2.29-6.53-5.65Z"/><path class="cls-4" d="M234.63,56.87c-.24-3.36,2.29-6.28,5.65-6.53,3.36-.24,6.28,2.29,6.53,5.65s-2.29,6.28-5.65,6.53c-3.36,.24-6.28-2.29-6.53-5.65Z"/><path class="cls-6" d="M245.46,65.62c-.24-3.36,2.29-6.28,5.65-6.53,3.36-.24,6.28,2.29,6.53,5.65,.24,3.36-2.29,6.28-5.65,6.53-3.36,.24-6.28-2.29-6.53-5.65Z"/><path class="cls-4" d="M245.46,65.62c-.24-3.36,2.29-6.28,5.65-6.53,3.36-.24,6.28,2.29,6.53,5.65,.24,3.36-2.29,6.28-5.65,6.53-3.36,.24-6.28-2.29-6.53-5.65Z"/><path class="cls-6" d="M244.77,68.23c-.24-3.36,2.29-6.28,5.65-6.53,3.36-.24,6.28,2.29,6.53,5.65,.24,3.36-2.29,6.28-5.65,6.53s-6.28-2.29-6.53-5.65Z"/><path class="cls-4" d="M244.77,68.23c-.24-3.36,2.29-6.28,5.65-6.53,3.36-.24,6.28,2.29,6.53,5.65s-2.29,6.28-5.65,6.53c-3.36,.24-6.28-2.29-6.53-5.65Z"/><path class="cls-6" d="M236.81,64.68c-.24-3.36,2.29-6.28,5.65-6.53,3.36-.24,6.28,2.29,6.53,5.65,.24,3.36-2.29,6.28-5.65,6.53-3.36,.24-6.28-2.29-6.53-5.65Z"/><path class="cls-4" d="M236.81,64.68c-.24-3.36,2.29-6.28,5.65-6.53,3.36-.24,6.28,2.29,6.53,5.65,.24,3.36-2.29,6.28-5.65,6.53-3.36,.24-6.28-2.29-6.53-5.65Z"/><path class="cls-6" d="M256.28,70.25c-.24-3.36,2.29-6.28,5.65-6.53,3.36-.24,6.28,2.29,6.53,5.65,.24,3.36-2.29,6.28-5.65,6.53-3.36,.24-6.28-2.29-6.53-5.65Z"/><path class="cls-4" d="M256.28,70.25c-.24-3.36,2.29-6.28,5.65-6.53,3.36-.24,6.28,2.29,6.53,5.65,.24,3.36-2.29,6.28-5.65,6.53-3.36,.24-6.28-2.29-6.53-5.65Z"/><path class="cls-6" d="M245.74,73.57c-.24-3.36,2.29-6.28,5.65-6.53,3.36-.24,6.28,2.29,6.53,5.65,.24,3.36-2.29,6.28-5.65,6.53-3.36,.24-6.28-2.29-6.53-5.65Z"/><path class="cls-4" d="M245.74,73.57c-.24-3.36,2.29-6.28,5.65-6.53,3.36-.24,6.28,2.29,6.53,5.65,.24,3.36-2.29,6.28-5.65,6.53-3.36,.24-6.28-2.29-6.53-5.65Z"/><path class="cls-6" d="M245.89,22.91c-.09-1.2,.82-2.24,2.01-2.33,1.2-.09,2.24,.82,2.33,2.01,.09,1.2-.82,2.24-2.01,2.33-1.2,.09-2.24-.82-2.33-2.01Z"/><path class="cls-4" d="M245.89,22.91c-.09-1.2,.82-2.24,2.01-2.33,1.2-.09,2.24,.82,2.33,2.01,.09,1.2-.82,2.24-2.01,2.33s-2.24-.82-2.33-2.01Z"/><path class="cls-6" d="M254.81,19.35c-.09-1.2,.82-2.24,2.01-2.33s2.24,.82,2.33,2.01c.09,1.2-.82,2.24-2.01,2.33-1.2,.09-2.24-.82-2.33-2.01Z"/><path class="cls-4" d="M254.81,19.35c-.09-1.2,.82-2.24,2.01-2.33,1.2-.09,2.24,.82,2.33,2.02,.09,1.2-.82,2.24-2.01,2.33-1.2,.09-2.24-.82-2.33-2.02Z"/><path class="cls-6" d="M252.98,30.38c-.09-1.2,.82-2.24,2.01-2.33,1.2-.09,2.24,.82,2.33,2.02,.09,1.2-.82,2.24-2.01,2.33-1.2,.09-2.24-.82-2.33-2.01Z"/><path class="cls-4" d="M252.98,30.38c-.09-1.2,.82-2.24,2.01-2.33,1.2-.09,2.24,.82,2.33,2.01,.09,1.2-.82,2.24-2.01,2.33-1.2,.09-2.24-.82-2.33-2.01Z"/></g><g><path class="cls-10" d="M213.93,167.08h-3.88v3.37c0,2.04-.44,3.13-1.87,3.75-1.36,.65-3.41,.68-6.27,.68-.2-1.09-.82-2.79-1.4-3.81,1.87,.1,4.05,.07,4.67,.07s.82-.17,.82-.75v-3.3h-16.04v7.8h-4.02v-7.8h-3.88v-3.75h3.88v-12.5h9.91v-2.25h-12.4v-3.71h29.12v3.71h-12.67v2.25h10.15v12.5h3.88v3.75Zm-23.98-12.6v2.66h5.89v-2.66h-5.89Zm0,8.86h5.89v-2.76h-5.89v2.76Zm9.95-8.86v2.66h6.1v-2.66h-6.1Zm6.1,8.86v-2.76h-6.1v2.76h6.1Z"/><path class="cls-10" d="M249.13,169.91v3.99h-30.62v-3.99h13.15v-6.85h-9.23v-3.92h9.23v-6h-7.05c-.99,1.87-2.04,3.61-3.17,4.94-.82-.65-2.62-1.87-3.65-2.42,2.66-2.86,4.87-7.56,6.03-12.2l4.19,.92c-.48,1.64-1.02,3.24-1.6,4.8h5.25v-6.13h4.26v6.13h11.48v3.95h-11.48v6h10.19v3.92h-10.19v6.85h13.22Z"/><path class="cls-10" d="M268.6,171.1c0,1.67-.31,2.52-1.43,3.07-1.09,.51-2.62,.58-4.7,.58-.17-.95-.71-2.28-1.23-3.17,1.23,.07,2.55,.07,2.96,.07,.44,0,.58-.14,.58-.58v-3.47c-1.7,1.23-3.41,2.38-4.94,3.37l-.85-2.38c-.37,2.32-1.12,4.63-2.42,6.41-.58-.78-2.11-2.25-2.83-2.73,1.81-2.66,1.94-6.4,1.94-9.37v-7.66h12.91v15.87Zm-1.91-25.55c1.43,2.45,3.24,5.79,4.05,7.84l-3.54,1.43c-.2-.61-.51-1.33-.85-2.14-8.62,.85-10.01,1.06-11,1.46-.2-.78-.85-2.62-1.26-3.64,.61-.14,1.19-.61,1.87-1.36,.68-.75,2.76-3.37,4.02-6.06l4.09,1.16c-1.16,1.97-2.69,3.95-4.19,5.65l4.97-.38c-.51-.99-.99-1.94-1.43-2.76l3.27-1.19Zm-7.26,17.37c0,1.29-.07,2.83-.24,4.36,1.53-.68,3.54-1.7,5.59-2.79v-1.12l-1.63,1.6c-.85-.89-2.42-2.22-3.71-3.27v1.23Zm0-4.29v2.42l1.7-1.47c1.16,.82,2.62,2.01,3.64,2.9v-3.85h-5.35Zm16.83-.58c-4.09,0-5.18-1.5-5.18-5.28v-9.67h4.02v4.02h8.38v3.47h-8.38v2.25c0,1.26,.2,1.74,1.29,1.74h4.97c.95,0,2.38-.1,3.13-.27,.07,1.06,.24,2.52,.37,3.44-.71,.24-2.15,.31-3.44,.31h-5.18Zm4.29,13.01c1.16,0,1.4-.58,1.57-3.71,.82,.61,2.45,1.23,3.51,1.47-.41,4.46-1.46,5.79-4.7,5.79h-4.84c-4.02,0-5.01-1.19-5.01-4.9v-10.7h4.02v3.41h8.62v3.58h-8.62v3.71c0,1.19,.24,1.36,1.57,1.36h3.88Z"/><path class="cls-10" d="M294.79,158.84c-1.19-.95-3.75-2.45-5.52-3.51l2.28-2.89c1.74,.85,4.33,2.25,5.69,3.13l-2.45,3.27Zm3,4.67c-1.29,3.65-2.9,7.53-4.4,10.9l-3.71-2.18c1.4-2.66,3.34-6.98,4.77-10.93l3.34,2.21Zm-1.36-13.66c-1.23-.99-3.78-2.59-5.52-3.65l2.32-2.93c1.7,.95,4.36,2.42,5.65,3.34l-2.45,3.24Zm17.48,13.8v7.36c0,1.74-.27,2.69-1.47,3.24-1.16,.54-2.76,.61-4.84,.58-.17-1.06-.61-2.49-1.06-3.47,1.19,.03,2.55,.03,2.96,.03,.37,0,.51-.1,.51-.48v-7.26h-5.38v-12.3h4.57c.34-.99,.65-2.01,.82-2.9h-6.57v5.76c0,6.03-.61,15.02-4.67,20.68-.72-.65-2.42-1.74-3.41-2.18,3.82-5.25,4.16-12.98,4.16-18.5v-9.4h21.29v3.65h-9.98l3.82,.68c-.44,.75-.89,1.5-1.33,2.21h6.51v12.3h-5.93Zm-5.11,2.39c-1.06,2.42-2.66,5.25-3.92,7.02-.75-.61-2.28-1.53-3.17-1.97,1.33-1.6,2.66-3.95,3.51-6.1l3.58,1.06Zm-.58-9.91h7.87v-1.87h-7.87v1.87Zm0,4.63h7.87v-1.91h-7.87v1.91Zm10.15,3.88c1.09,2.04,2.59,4.8,3.3,6.47l-3.75,1.64c-.61-1.77-1.98-4.63-3.07-6.78l3.51-1.33Z"/><path class="cls-10" d="M227.54,190.23c-.71,1.23-1.5,2.55-2.42,3.82v19.14h-3.68v-14.65c-.72,.75-1.46,1.47-2.14,2.08-.27-.89-1.26-3.03-1.87-3.98,2.42-1.91,5.08-4.91,6.64-7.8l3.47,1.4Zm-.71-7.56c-1.84,2.96-4.63,6.17-7.22,8.24-.44-.85-1.4-2.38-2.04-3.13,2.14-1.64,4.5-4.33,5.66-6.47l3.61,1.36Zm15.7,9.95v2.76h5.38v17.78h-3.92v-1.43h-6.88v1.43h-3.78v-17.78h5.25v-2.76h-5.89v2.45c0,5.69-.48,12.98-3.85,18.05-.68-.55-2.08-1.4-2.96-1.77,2.93-4.56,3.27-11.31,3.27-16.28v-11.07c5.79-.51,12.43-1.4,16.52-2.42l3,2.86c-4.53,1.06-10.52,1.8-15.98,2.25v2.73h5.89v-2.83h3.95v2.83h6.95v3.2h-6.95Zm1.47,5.86h-6.88v1.63h6.88v-1.63Zm0,4.26h-6.88v1.64h6.88v-1.64Zm0,6.03v-1.77h-6.88v1.77h6.88Z"/><path class="cls-10" d="M284.79,205.53c-1.33,.68-2.66,1.36-3.92,1.94,1.33,.95,2.89,1.74,4.73,2.21-.78,.75-1.87,2.11-2.38,3.1-4.53-1.53-7.49-4.74-9.23-9.1-.99,.85-2.08,1.64-3.3,2.35v2.93l4.8-.92c-.1,.89-.1,2.22-.03,2.96-6.3,1.36-7.43,1.67-8.07,2.08-.2-.78-.82-2.08-1.29-2.72,.61-.27,1.36-.95,1.36-2.32v-.31c-.95,.41-1.87,.71-2.79,1.02-.37-.58-.99-1.33-1.57-1.98l.03,.24c-3.13,.92-6.47,1.77-9.23,2.52l-.68-3.68c.99-.2,2.08-.48,3.34-.78v-8.38h-2.66v-3.51h2.66v-6.34h-2.9v-3.54h9.23v3.54h-2.8v6.34h2.49v3.51h-2.49v7.53l2.56-.68,.31,2.32c2.42-.65,4.94-1.6,6.98-2.76h-3.92v-7.46h16.97v7.46h-5.69c.37,.85,.89,1.64,1.47,2.32,1.26-.71,2.52-1.6,3.37-2.28l2.66,2.38Zm.1-11.07h-20.85v-3.2h20.85v3.2Zm-1.09-4.29h-18.57v-7.73h18.57v7.73Zm-13.15-5.01h-2.15v2.28h2.15v-2.28Zm-1.06,15.16h9.57v-1.91h-9.57v1.91Zm5.89-15.16h-2.18v2.28h2.18v-2.28Zm4.84,0h-2.25v2.28h2.25v-2.28Z"/></g><g><path class="cls-12" d="M232.58,105.56c2.12,3.91,5.69,7.71,9.44,9.75-.74,.61-1.79,1.81-2.27,2.65-3.22-2.07-6.15-5.33-8.4-9.01v11.51h-3.24v-11.38c-2.22,3.7-5.16,6.94-8.42,8.98-.51-.79-1.56-1.97-2.27-2.6,3.78-2.04,7.27-5.9,9.37-9.9h-8.19v-3.01h9.52v-5.92h3.24v5.92h9.57v3.01h-8.35Z"/><path class="cls-12" d="M249.2,102.67c-.43,1.3-1.15,2.55-2.43,3.57-.38-.54-1.43-1.58-1.97-1.94,1.94-1.45,2.22-3.27,2.22-4.75v-1.71c2.65-.15,5.72-.54,7.5-1.15l1.69,1.76c-1.79,.64-4.24,.97-6.59,1.17,0,.26,0,.54-.03,.82h6.94v2.22h-2.45v2.6h-2.68v-2.6h-2.22Zm12.63,2.68v-2.68h-2.19c-.31,1.12-.82,2.2-1.69,3.09h7.05v10.52h-3.37c2.4,.72,4.82,1.56,6.43,2.2l-1.4,2.12c-1.81-.82-4.85-1.97-7.68-2.83l.92-1.48h-6.61l1.66,.97c-2.19,1.23-5.64,2.6-8.22,3.37-.25-.54-1-1.94-1.45-2.55,2.12-.41,4.7-1.05,6.59-1.79h-3.37v-10.52h9.14c-.53-.46-1.5-1.1-2.02-1.35,1.63-1.45,1.84-3.32,1.84-4.77v-1.86c2.86-.13,6.1-.51,7.89-1.12l1.89,1.69c-1.94,.66-4.67,1.05-7.22,1.22v.13c0,.25,0,.51-.03,.76h8.19v2.22h-3.6v2.68h-2.73Zm.1,2.22h-10.54v1.15h10.54v-1.15Zm0,2.83h-10.54v1.17h10.54v-1.17Zm0,2.88h-10.54v1.15h10.54v-1.15Z"/><path class="cls-12" d="M280.71,116.05c-1.71,1.61-4.39,3.17-6.58,4.13-.51-.56-1.61-1.61-2.27-2.07,2.22-.77,4.67-1.92,6.05-3.14l2.81,1.07Zm14.86-9.42h-12l.59,.48c-.97,.49-1.99,.97-3.04,1.4l5.16-.2c1.07-.51,2.12-1.02,3.06-1.56l2.09,1.81c-2.98,1.51-6.2,2.81-9.42,3.88l7.35-.31c-.36-.28-.74-.56-1.07-.82l2.27-1.38c1.61,1.17,3.83,2.88,4.88,4.06l-2.43,1.51c-.36-.43-.87-.92-1.43-1.48l-5.79,.31v3.06c0,1.38-.28,2.14-1.38,2.58-1.07,.41-2.48,.43-4.34,.43-.13-.84-.64-2.02-1.05-2.78,1.3,.05,2.86,.08,3.29,.05,.43,0,.54-.1,.54-.38v-2.78c-6.89,.38-8.01,.51-8.86,.79-.08-.49-.43-1.76-.64-2.45,1.02-.1,2.09-.38,3.75-.92,.76-.26,2.32-.79,4.21-1.53-4.29,.25-5.08,.38-5.62,.59-.13-.51-.48-1.71-.74-2.4,.59-.08,1.15-.26,1.91-.54,.56-.2,1.89-.71,3.29-1.43h-7.99v-2.3h10.06v-1h-7.48v-2.17h7.48v-.97h-8.83v-2.19h8.83v-1.4h3.06v1.4h9.01v2.19h-9.01v.97h7.71v2.17h-7.71v1h10.26v2.3Zm-6.33,8.29c1.94,.95,4.7,2.45,6.15,3.55l-2.35,1.76c-1.28-1.07-3.98-2.68-6-3.75l2.19-1.56Z"/></g><g><path class="cls-12" d="M421.78,222.03v22.97h-3.32v-1.35h-15.34v1.35h-3.16v-22.97h21.82Zm-3.32,18.79v-15.67h-15.34v15.67h15.34Zm-2.48-12.66v9.7h-10.41v-9.7h10.41Zm-3.06,2.65h-4.49v4.41h4.49v-4.41Z"/><path class="cls-12" d="M448.12,228.79c-.66,3.78-1.66,6.97-3.17,9.6,1.35,1.71,2.96,3.09,4.88,4.06-.66,.54-1.61,1.69-2.07,2.5-1.76-1.02-3.27-2.38-4.57-4.01-1.35,1.69-3.04,3.06-5.05,4.19-.36-.64-1.35-1.92-1.97-2.48,2.22-1.07,3.93-2.48,5.31-4.29-.97-1.66-1.79-3.52-2.43-5.56-.41,.66-.87,1.28-1.33,1.84-.33-.59-1.2-1.71-1.84-2.37v12.81h-3.01v-6.59c-4.06,1.43-4.9,1.89-5.46,2.35-.2-.74-.71-2.12-1.17-2.78,.48-.28,.94-.77,.94-1.81v-12.3h2.99v12.46l2.71-.82v-13.99h3.01v10.06c1.99-2.48,3.17-6.36,3.78-10.46l3.09,.51c-.26,1.43-.54,2.86-.89,4.21h7.79v2.88h-1.53Zm-7.17,0c-.08,.23-.18,.46-.26,.69,.59,2.19,1.4,4.29,2.43,6.13,.94-1.94,1.58-4.21,1.99-6.81h-4.16Z"/><path class="cls-12" d="M405.85,252.7c-.15,.33-.33,.69-.51,1.02,1.61,1.07,3.29,2.24,4.29,3.11l-1.17,2.48c-.31-.26-.64-.54-1.02-.84v2.3h-2.14v1.86h2.96v2.58h-2.96v5.95l2.96-.56,.15,2.4c-3.04,.71-6.23,1.38-8.68,1.94l-.56-2.73c1.02-.15,2.32-.38,3.7-.64v-6.36h-3.34v-2.58h3.34v-1.86h-1.92v-1.15c-.41,.41-.79,.76-1.2,1.1-.15-.67-.69-2.37-1.05-3.12,1.84-1.38,3.83-3.62,4.98-5.95l2.17,1.05Zm-4.31,13.45c.38,1.38,.76,3.19,.89,4.36l-1.89,.56c-.1-1.2-.46-3.01-.82-4.42l1.81-.51Zm5.62-7.91c-.95-.76-2.04-1.61-3.11-2.37-.56,.82-1.17,1.63-1.81,2.37h4.93Zm-1.66,11.97c.33-1.17,.71-3.01,.87-4.31l2.09,.59c-.46,1.51-.89,3.19-1.25,4.26l-1.71-.54Zm16.77-8.4v11.18c0,1.2-.18,1.89-1,2.32-.79,.41-1.91,.43-3.5,.43-.08-.71-.38-1.79-.71-2.48,.92,.05,1.89,.05,2.19,.02,.31,0,.41-.08,.41-.36v-8.65h-7.76v11.41h-2.58v-13.89h1.25v-9.14h10.51v9.14h1.17Zm-3.7,10.29h-5.62v-6.48h5.62v6.48Zm-5.46-10.29h1.28v-4.77h4.11v-1.91h-5.39v6.69Zm3.32,5.9h-1.43v2.32h1.43v-2.32Zm2.07-8.4h-1.74v2.5h1.74v-2.5Z"/><path class="cls-12" d="M426.94,263.93c-.1-1.79-.49-4.9-.92-7.27l1.96-.33c.46,2.35,.92,5.36,1.05,7.12l-2.09,.48Zm23.1,9.09v2.04h-13.65v-1.76c-.26,.82-.56,1.63-.97,2.35-.48-.46-1.66-1.2-2.25-1.48,.43-.79,.77-1.71,1.02-2.65l-1.53,1.58c-.38-.82-1.07-2.02-1.74-3.17-.54,2.07-1.48,4.03-2.96,5.72-.41-.64-1.33-1.61-1.91-2.04,2.88-3.42,3.19-7.96,3.19-12.3v-9.19h2.58v9.06c.43-1.56,.87-3.65,1.07-5.16l2.09,.69v-1.17h4.93v-3.73h2.83v1.22h6.23v1.79h-6.23v.71h4.85l.41-.08,1.86,.31c-.2,1.43-.48,3.11-.79,4.16l-2.25-.36c.08-.54,.13-1.2,.23-1.91h-3.9v.74l2.99-.18,.08,1.53-3.06,.23c.03,.38,.15,.56,.67,.56h2.04c.56,0,1.61-.05,2.02-.18,.08,.72,.08,1.15,.21,1.81-.43,.15-1.33,.18-2.07,.18h-3.09c-1.71,0-2.27-.67-2.4-1.84l-2.37,.23-.1-1.99,2.43-.15v-.94h-2.88v5.67c0,2.81-.18,6.56-1.12,9.7h1.48v-3.78h10.95v3.78h1.15Zm-18.22-11.15c0,1.69-.07,3.37-.28,5.03,.77,1.02,2.2,3.24,2.78,4.11,.61-2.55,.66-5.41,.66-7.68v-6.2c-.64,1.81-1.22,3.96-1.79,5.28l-1.38-.54Zm6.61,1.05h10.06v5.64h-10.06v-5.64Zm1.63,10.11h1.07v-1.99h-1.07v1.99Zm.64-7.96h1.61v-.76h-1.61v.76Zm0,2.12h1.61v-.79h-1.61v.79Zm2.12,3.85v1.99h1.07v-1.99h-1.07Zm3.29-6.74h-1.71v.76h1.71v-.76Zm0,2.09h-1.71v.79h1.71v-.79Zm-.51,4.64v1.99h1.07v-1.99h-1.07Z"/></g><g><path class="cls-12" d="M118.17,211.79c-1.2,.79-2.6,1.58-3.91,2.19,1.48,.72,3.19,1.22,5.21,1.5-.56,.59-1.28,1.69-1.63,2.4-5.16-1-8.35-3.29-10.26-7.22-1.02,.84-2.3,1.56-3.68,2.17v2.27l4.75-.97c-.13,.67-.21,1.74-.21,2.27-6.07,1.38-6.97,1.63-7.48,1.97l-.02-.23c-.15-.61-.61-1.51-.89-1.86,.46-.36,1.12-1,1.12-2.3v-.08c-1.25,.41-2.58,.71-3.88,.94-.36-.64-1.07-1.63-1.61-2.19,2.78-.38,5.67-1.1,7.86-2.14h-7.45v-2.4h10.34c-.18-.46-.38-.89-.59-1.3h-.79c-.13-.59-.48-1.25-.71-1.74,.59,.02,1.17,.02,1.35,.02,.23,0,.31-.08,.31-.28v-1.07h-2.09v3.75h-2.58v-3.75h-1.97v3.17h-2.3v-5h4.26v-.89h-5.28v-2.04h1.58c-.51-.31-1.17-.69-1.61-.89,.87-.97,1.58-2.35,2.02-3.65l2.22,.56c-.13,.36-.26,.66-.41,1.02h1.48v-1.63h2.58v1.63h4.21v1.94h-4.21v1.02h4.9v2.04h-4.9v.89h4.52v2.91c0,.64-.08,1.07-.33,1.35l.59-.15c.38,.61,.74,1.41,1,2.09h9.37v2.4h-2.58l1.71,1.28Zm-16.85-12.81v-1.02h-2.45c-.2,.36-.43,.71-.66,1.02h3.11Zm11.64,5.08h-2.71v-8.42h2.71v8.42Zm-2.65,6.46c.51,.79,1.15,1.45,1.84,2.07,1.17-.61,2.45-1.38,3.4-2.07h-5.23Zm7.66-5.74c0,1.3-.25,1.91-1.17,2.32-.89,.38-2.17,.41-3.9,.41-.15-.74-.56-1.74-.89-2.4,1.15,.05,2.37,.05,2.73,.02,.36,0,.48-.1,.48-.43v-10.11h2.76v10.18Z"/><path class="cls-12" d="M127.43,204.03c-.26,2.4-.97,4.21-3.11,5.33-.28-.59-.92-1.51-1.45-1.91,1.4-.71,1.89-1.89,2.07-3.42h-1.58v-2.3h5.56v-1.07h-4.34v-5.49h2.45v3.24h1.89v-4.03h2.71v14.7h-2.71v-5.05h-1.48Zm5.05,6.71c-1.25,3.75-4.24,5.95-8.02,7.07-.28-.72-.97-1.76-1.5-2.32,2.22-.51,4.16-1.56,5.46-2.99h-4.21v-2.35h5.95l.51-.1,1.81,.69Zm12.71-.48c-1.53,1.1-3.32,2.12-4.8,2.88,1.76,.97,3.9,1.58,6.43,1.92-.61,.64-1.45,1.86-1.79,2.65-3.83-.71-6.69-2.22-8.73-4.57v2.17c0,1.35-.2,2.04-1.15,2.48-.87,.41-2.07,.46-3.67,.46-.13-.82-.51-1.91-.89-2.65,.97,.02,1.99,.02,2.32,0,.31,0,.41-.08,.41-.36v-7.33h2.81c-.64-.77-1.61-1.66-2.45-2.25l1.56-1h-2.91v-2.14h.92c-.26-.51-.64-1.1-.97-1.48,2.35-.26,4.57-.72,6.41-1.48-.61-.64-1.45-1.43-2.25-2.09-.92,.41-1.99,.79-3.14,1.12-.36-.56-1.1-1.4-1.61-1.76,2.93-.59,5.05-1.45,6.23-2.5l2.55,.54c-.26,.26-.51,.48-.79,.72h3.8l.48-.1,1.61,.72c-1.79,3.7-5.41,5.41-9.9,6.33h5.36v-1.66h2.73v1.66h2.76v2.14h-2.76v1.89c0,1.17-.2,1.76-1,2.14l2.43,1.56Zm-8.37-10.41c-1.33,.18-2.55,.33-3.78,.46l-.23-1.43c1.1-.1,2.43-.23,3.96-.38l.05,1.35Zm-.84,4.82c1,.66,1.99,1.51,2.55,2.22l-.05-.1c.89,.03,1.86,.03,2.17,.03s.38-.08,.38-.33v-1.81h-5.05Zm.33,4.42c.54,1,1.2,1.89,2.07,2.65,1.35-.82,2.98-1.97,4.08-2.91-.82,.26-1.81,.31-3.09,.28-.1-.64-.43-1.43-.77-2.07l-2.02,1.41c-.08-.1-.18-.23-.28-.36v1Zm2.45-11.95c.56,.51,1.17,1.05,1.63,1.51,.66-.43,1.28-.95,1.76-1.51h-3.39Z"/></g><g><ellipse class="cls-11" cx="252.61" cy="269.56" rx="39.07" ry="40.27"/><rect class="cls-8" x="190.83" y="264.72" width="36.39" height="24.57"/><rect class="cls-1" x="190.83" y="264.72" width="36.39" height="24.57"/><polygon class="cls-9" points="222.99 256.71 195.06 256.71 190.83 264.72 227.22 264.72 222.99 256.71"/><polygon class="cls-1" points="222.99 256.71 195.06 256.71 190.83 264.72 227.22 264.72 222.99 256.71"/><rect class="cls-13" x="193.9" y="284.44" width="89.41" height="5.82"/><rect class="cls-1" x="193.9" y="284.44" width="89.41" height="5.82"/><rect class="cls-13" x="181.44" y="272.82" width="18.35" height="17.16"/><rect class="cls-1" x="181.44" y="272.82" width="18.35" height="17.16"/><polygon class="cls-9" points="222.99 256.71 240.17 239.38 240.17 245.8 225.12 260.71 222.99 256.71"/><polygon class="cls-1" points="222.99 256.71 240.17 239.38 240.17 245.8 225.12 260.71 222.99 256.71"/><path class="cls-7" d="M297.1,240.53v48.72c0,4.45-5.54,8.06-12.37,8.06s-12.39-3.61-12.39-8.06v-49.08"/><path class="cls-1" d="M297.1,240.53v48.72c0,4.45-5.54,8.06-12.37,8.06s-12.39-3.61-12.39-8.06v-49.08"/><path class="cls-9" d="M272.33,240.17c0,4.45,5.54,8.06,12.39,8.06s12.37-3.61,12.37-8.06-5.54-8.06-12.37-8.06-12.39,3.61-12.39,8.06Z"/><path class="cls-1" d="M272.33,240.17c0,4.45,5.54,8.06,12.39,8.06s12.37-3.61,12.37-8.06-5.54-8.06-12.37-8.06-12.39,3.61-12.39,8.06Z"/><path class="cls-7" d="M294.46,231.63l2.62,8.1c0,3.5-3.35,8.48-12.37,8.48-9.75,0-12.39-5.33-12.39-8.83l2.62-8.01"/><path class="cls-1" d="M294.46,231.63l2.62,8.1c0,3.5-3.35,8.48-12.37,8.48-9.75,0-12.39-5.33-12.39-8.83l2.62-8.01"/><path class="cls-1" d="M272.44,253.28c-1.07,1.28-1.68,2.74-1.68,4.32,0,5.02,6.25,9.08,13.96,9.08s13.94-4.05,13.94-9.08c0-1.51-.56-2.92-1.57-4.18"/><path class="cls-1" d="M272.44,268.6c-1.07,1.28-1.68,2.74-1.68,4.32,0,5.02,6.25,9.08,13.96,9.08s13.94-4.07,13.94-9.08c0-1.51-.56-2.92-1.57-4.18"/><path class="cls-7" d="M264.94,240.53v48.72c0,4.45-5.54,8.06-12.37,8.06s-12.39-3.61-12.39-8.06v-49.08"/><path class="cls-1" d="M264.94,240.53v48.72c0,4.45-5.54,8.06-12.37,8.06s-12.39-3.61-12.39-8.06v-49.08"/><path class="cls-9" d="M240.17,240.17c0,4.45,5.54,8.06,12.39,8.06s12.37-3.61,12.37-8.06-5.54-8.06-12.37-8.06-12.39,3.61-12.39,8.06Z"/><path class="cls-1" d="M240.17,240.17c0,4.45,5.54,8.06,12.39,8.06s12.37-3.61,12.37-8.06-5.54-8.06-12.37-8.06-12.39,3.61-12.39,8.06Z"/><path class="cls-7" d="M262.3,231.63l2.62,8.1c0,3.5-3.35,8.48-12.37,8.48-9.75,0-12.39-5.33-12.39-8.83l2.64-8.01"/><path class="cls-1" d="M262.3,231.63l2.62,8.1c0,3.5-3.35,8.48-12.37,8.48-9.75,0-12.39-5.33-12.39-8.83l2.64-8.01"/><path class="cls-1" d="M240.28,253.28c-1.07,1.28-1.68,2.74-1.68,4.32,0,5.02,6.25,9.08,13.96,9.08s13.94-4.05,13.94-9.08c0-1.51-.56-2.92-1.57-4.18"/><path class="cls-1" d="M240.28,267.4c-1.07,1.28-1.68,2.74-1.68,4.32,0,5.02,6.25,9.08,13.96,9.08s13.94-4.07,13.94-9.08c0-1.51-.56-2.92-1.57-4.18"/><rect class="cls-4" x="250.01" y="288.1" width="4.98" height="7.99"/><rect class="cls-4" x="282.23" y="288.1" width="4.98" height="7.99"/><path class="cls-7" d="M274.97,231.34c0,3.5,4.36,6.33,9.75,6.33s9.73-2.83,9.73-6.33-4.36-6.33-9.73-6.33-9.75,2.83-9.75,6.33Z"/><path class="cls-1" d="M274.97,231.34c0,3.5,4.36,6.33,9.75,6.33s9.73-2.83,9.73-6.33-4.36-6.33-9.73-6.33-9.75,2.83-9.75,6.33Z"/><path class="cls-7" d="M242.82,231.34c0,3.5,4.36,6.33,9.75,6.33s9.73-2.83,9.73-6.33-4.36-6.33-9.73-6.33-9.75,2.83-9.75,6.33Z"/><path class="cls-1" d="M242.82,231.34c0,3.5,4.36,6.33,9.75,6.33s9.73-2.83,9.73-6.33-4.36-6.33-9.73-6.33-9.75,2.83-9.75,6.33Z"/></g><path class="cls-7" d="M125.93,54.57v7.04c0,1.79-3.09,3.23-6.9,3.23s-6.92-1.44-6.92-3.23v-7.19"/><path class="cls-1" d="M125.93,54.57v7.04c0,1.79-3.09,3.23-6.9,3.23s-6.92-1.44-6.92-3.23v-7.19"/><path class="cls-7" d="M112.14,54.43c0,1.79,3.09,3.23,6.92,3.23s6.9-1.44,6.9-3.23-3.09-3.23-6.9-3.23-6.92,1.44-6.92,3.23Z"/><path class="cls-1" d="M112.14,54.43c0,1.79,3.09,3.23,6.92,3.23s6.9-1.44,6.9-3.23-3.09-3.23-6.9-3.23-6.92,1.44-6.92,3.23Z"/><g><ellipse class="cls-5" cx="114.65" cy="127.51" rx="58.99" ry="60.78"/><path class="cls-14" d="M140.2,73.74l-4.66,15.01v74.84c0,2.74,4.36,5.02,10.01,5.38,.52,.04,1.05,.04,1.59,.04,6.4,0,11.6-2.44,11.6-5.42V88.99l-4.66-15.25"/><path class="cls-1" d="M140.2,73.74l-4.66,15.01v74.84c0,2.74,4.36,5.02,10.01,5.38,.52,.04,1.05,.04,1.59,.04,6.4,0,11.6-2.43,11.6-5.42V88.99l-4.66-15.25"/><path class="cls-7" d="M138.97,93.06v68.51c0,2.13,3.65,3.83,8.16,3.83s8.16-1.7,8.16-3.83V93.24"/><path class="cls-1" d="M138.97,93.06v68.51c0,2.13,3.65,3.83,8.16,3.83s8.16-1.7,8.16-3.83V93.24"/><path class="cls-1" d="M138.97,120.07v10.47c0,2.12,3.65,3.83,8.16,3.83s8.16-1.7,8.16-3.83v-10.29"/><path class="cls-1" d="M138.97,135.43v10.47c0,2.1,3.65,3.83,8.16,3.83s8.16-1.73,8.16-3.83v-10.29"/><path class="cls-9" d="M140.2,73.74c0,1.79,3.11,3.25,6.94,3.25s6.94-1.44,6.94-3.25-3.11-3.25-6.94-3.25-6.94,1.46-6.94,3.25Z"/><path class="cls-1" d="M140.2,73.74c0,1.79,3.11,3.25,6.94,3.25s6.94-1.44,6.94-3.25-3.11-3.25-6.94-3.25-6.94,1.46-6.94,3.25Z"/><path class="cls-14" d="M135.56,88.72c0,2.99,5.18,5.42,11.58,5.42s11.58-2.43,11.58-5.42"/><path class="cls-1" d="M135.56,88.72c0,2.99,5.18,5.42,11.58,5.42s11.58-2.43,11.58-5.42"/><path class="cls-9" d="M165.61,167.61v4.18c0,2.19-2.79,3.98-6.25,3.98s-6.25-1.77-6.25-3.98v-4.18"/><path class="cls-1" d="M165.61,167.61v4.18c0,2.19-2.79,3.98-6.25,3.98s-6.25-1.77-6.25-3.98v-4.18"/><path class="cls-9" d="M167.82,161.88l-2.23,5.82c0,.95-2.79,2.9-6.25,2.9s-6.25-1.88-6.25-2.9l-2.23-6.86"/><path class="cls-1" d="M167.82,161.88l-2.23,5.82c0,.95-2.79,2.9-6.25,2.9s-6.25-1.88-6.25-2.9l-2.23-6.86"/><path class="cls-14" d="M167.82,112.32v48.54c0,2.19-3.8,3.96-8.46,3.96s-8.51-1.77-8.51-3.96v-48.72"/><path class="cls-1" d="M167.82,112.32v48.54c0,2.19-3.8,3.96-8.46,3.96s-8.51-1.77-8.51-3.96v-48.72"/><path class="cls-9" d="M150.87,112.14c0,2.19,3.8,3.98,8.51,3.98s8.46-1.79,8.46-3.98-8.46-4.56-8.46-4.56c0,0-8.51,2.37-8.51,4.56Z"/><path class="cls-1" d="M150.87,112.14c0,2.19,3.8,3.98,8.51,3.98s8.46-1.79,8.46-3.98-8.46-4.56-8.46-4.56c0,0-8.51,2.37-8.51,4.56Z"/><path class="cls-7" d="M125.93,160.24v13.37c0,1.77-3.09,3.23-6.9,3.23s-6.92-1.44-6.92-3.23v-13.53"/><path class="cls-1" d="M125.93,160.24v13.37c0,1.77-3.09,3.23-6.9,3.23s-6.92-1.44-6.92-3.23v-13.53"/><path class="cls-7" d="M112.14,73.23l-4.66,15.01v74.84c0,2.99,5.18,5.42,11.6,5.42s11.6-2.43,11.6-5.42V88.5l-4.66-15.25"/><path class="cls-1" d="M112.14,73.23l-4.66,15.01v74.84c0,2.99,5.18,5.42,11.6,5.42s11.6-2.43,11.6-5.42V88.5l-4.66-15.25"/><path class="cls-9" d="M112.14,73.23c0,1.79,3.11,3.25,6.94,3.25s6.94-1.46,6.94-3.25-3.11-3.25-6.94-3.25-6.94,1.46-6.94,3.25Z"/><ellipse class="cls-1" cx="119.08" cy="73.23" rx="6.94" ry="3.25"/><path class="cls-1" d="M107.48,88.21c0,2.99,5.18,5.42,11.58,5.42s11.58-2.43,11.58-5.42"/><path class="cls-1" d="M107.48,146.19c0,2.99,5.18,5.42,11.58,5.42s11.58-2.43,11.58-5.42"/><path class="cls-1" d="M107.48,150.55c0,2.99,5.18,5.42,11.58,5.42s11.58-2.43,11.58-5.42"/><path class="cls-7" d="M125.93,60.28v12.97c0,1.79-3.09,3.23-6.9,3.23s-6.92-1.44-6.92-3.23v-13.13"/><path class="cls-1" d="M125.93,60.28v12.97c0,1.79-3.09,3.23-6.9,3.23s-6.92-1.44-6.92-3.23v-13.13"/><polyline class="cls-1" points="145.89 170.56 145.89 174.63 126.02 174.63"/><rect class="cls-8" x="84.39" y="139.57" width="22.77" height="9.32"/><rect class="cls-1" x="84.39" y="139.57" width="22.77" height="9.32"/><path class="cls-14" d="M101.36,116.17v23.66c0,2.19-3.8,3.96-8.48,3.96s-8.51-1.77-8.51-3.96v-23.84"/><path class="cls-1" d="M101.36,116.17v23.66c0,2.19-3.8,3.96-8.48,3.96s-8.51-1.77-8.51-3.96v-23.84"/><path class="cls-9" d="M84.39,115.99c0,2.19,3.8,3.98,8.51,3.98s8.48-1.77,8.48-3.98-3.8-3.96-8.48-3.96c-4.7-.02-8.51,1.77-8.51,3.96Z"/><path class="cls-1" d="M84.39,115.99c0,2.19,3.8,3.98,8.51,3.98s8.49-1.77,8.49-3.98-3.8-3.96-8.49-3.96c-4.7-.02-8.51,1.77-8.51,3.96Z"/><rect class="cls-8" x="96.5" y="148.91" width="4.85" height="25.35"/><rect class="cls-1" x="96.5" y="148.91" width="4.85" height="25.35"/><rect class="cls-8" x="96.5" y="170.69" width="15.64" height="3.5"/><rect class="cls-1" x="96.5" y="170.69" width="15.64" height="3.5"/><path class="cls-7" d="M32.6,175.83h51.4s-3.78-12.06-10.68-14.41c0,0-4.32-14.23-14.46-14.23-7.17,0-10.27,7.13-10.27,7.13,0,0-5.16,1.7-6.34,7.11,.02,0-9.8,3.98-9.67,14.41Z"/><path class="cls-1" d="M32.6,175.83h51.4s-3.78-12.06-10.68-14.41c0,0-4.32-14.23-14.46-14.23-7.17,0-10.27,7.13-10.27,7.13,0,0-5.16,1.7-6.34,7.11,.02,0-9.8,3.98-9.67,14.41Z"/><polygon class="cls-9" points="84.39 121.35 84.39 131.56 55.5 175.83 48.62 175.83 84.39 121.35"/><polygon class="cls-1" points="84.39 121.35 84.39 131.56 55.5 175.83 48.62 175.83 84.39 121.35"/><line class="cls-1" x1="77.32" y1="132.15" x2="84.02" y2="132.15"/><line class="cls-1" x1="70.3" y1="143.22" x2="76.35" y2="143.22"/><line class="cls-1" x1="64.09" y1="153.71" x2="69.78" y2="153.71"/><line class="cls-1" x1="55.47" y1="165.4" x2="62.28" y2="165.4"/><path class="cls-7" d="M58.01,138.46c0,1.24-1.14,2.26-2.56,2.26s-2.56-1.02-2.56-2.26,1.14-2.26,2.56-2.26,2.56,1.02,2.56,2.26Z"/><path class="cls-1" d="M58.01,138.46c0,1.24-1.14,2.26-2.56,2.26s-2.56-1.02-2.56-2.26,1.14-2.26,2.56-2.26,2.56,1.02,2.56,2.26Z"/><path class="cls-7" d="M69.05,131.16c0,1.24-1.14,2.26-2.56,2.26s-2.56-1.02-2.56-2.26,1.14-2.26,2.56-2.26,2.56,1.02,2.56,2.26Z"/><path class="cls-1" d="M69.05,131.16c0,1.24-1.14,2.26-2.56,2.26s-2.56-1.02-2.56-2.26,1.14-2.26,2.56-2.26,2.56,1.02,2.56,2.26Z"/><path class="cls-7" d="M64.84,123.61c0,1.24-1.14,2.26-2.56,2.26s-2.56-1.02-2.56-2.26,1.14-2.26,2.56-2.26,2.56,1.02,2.56,2.26Z"/><path class="cls-1" d="M64.84,123.61c0,1.24-1.14,2.26-2.56,2.26s-2.56-1.02-2.56-2.26,1.14-2.26,2.56-2.26,2.56,1.02,2.56,2.26Z"/></g><g><path class="cls-12" d="M226.49,322.27c-.74,1.89-1.61,3.8-2.63,5.62h13.43v13.4h-3.27v-1.43h-10.21v1.53h-3.09v-9.09c-1.05,1.23-2.17,2.27-3.45,3.19-.48-.69-1.5-1.79-2.14-2.35,3.7-2.53,6.38-6.81,7.84-10.87h-6.66v-2.99h22.41v2.99h-12.22Zm7.53,8.53h-10.21v6.12h10.21v-6.12Z"/><path class="cls-12" d="M250.81,323.24c-.95,6.81-2.71,12.33-6.36,16.03-.43-.64-1.74-1.97-2.45-2.5,3.29-2.99,4.85-7.71,5.62-13.53h-4.69v-2.94h5.03c.08-.92,.15-1.84,.2-2.81l3.22,.2c-.08,.89-.13,1.74-.23,2.6h14.14v2.94h-14.47Zm8.24,1.07c-.07,2.4-.18,4.59-.46,6.59,1.41,3.5,3.96,6.46,7.25,7.99-.64,.54-1.53,1.61-1.96,2.37-2.63-1.4-4.72-3.65-6.31-6.43-1.15,2.91-3.27,5.16-7.27,6.69-.33-.77-1.15-1.91-1.79-2.48,7.12-2.53,7.25-7.43,7.43-14.73h3.11Zm-7.25,8.91c-.23-1.63-.82-4.39-1.38-6.48l2.53-.76c.61,2.04,1.3,4.72,1.56,6.3l-2.71,.94Zm8.14-1.28c.59-1.53,1.38-3.91,1.76-5.74l2.55,1.2c-.61,2.02-1.35,4.21-1.97,5.69l-2.35-1.15Z"/><path class="cls-12" d="M269.1,340.35c.97-.89,2.22-2.45,3.09-3.83l2.94,.84c-.87,1.4-2.12,3.14-3.14,4.24l-2.88-1.25Zm20.85-3.91c.82,1.2,1.84,2.65,2.37,3.62l-2.93,1.33c-.51-1.07-1.66-2.86-2.5-4.16l1.84-.79h-19.07v-2.25h9.7v-1.12h-7.55v-2.04h7.55v-1.12h-8.75v-2.14h5.54c-.31-.54-.66-1.2-1.02-1.66l2.53-.94c.51,.64,1.12,1.53,1.43,2.12l-1.2,.48h4.57c.59-.76,1.17-1.71,1.56-2.45-1.71-.18-2.02-1.07-2.02-2.63v-1.3h-2.24c-.51,2.68-1.99,4.01-7.63,4.57-.18-.64-.79-1.56-1.25-2.07,4.31-.33,5.38-1.02,5.77-2.5h-4.03v1.89h-2.91v-4.21h9.5c-.1-.43-.23-.89-.33-1.28l3.32-.51c.21,.54,.41,1.17,.56,1.79h9.47v3.96h-3.06v-1.63h-4.39v1.33c0,.48,.08,.74,.71,.74h2.48c.59,0,1.76-.05,2.22-.2,.05,.74,.08,1.25,.18,1.94-.46,.13-1.45,.15-2.27,.15h-3.67l2.65,.71c-.48,.59-1,1.17-1.48,1.71h5.64v2.14h-8.73v1.12h7.55v2.04h-7.55v1.12h9.62v2.25h-2.14Zm-10.59,.48c.21,1.2,.46,2.86,.56,3.8l-3.01,.43c-.07-1-.23-2.68-.41-3.93l2.86-.31Zm5.23-.18c.46,1.17,1,2.83,1.25,3.8l-3.04,.59c-.2-.97-.69-2.68-1.1-3.93l2.88-.46Z"/></g></svg>