<?xml version="1.0" encoding="UTF-8"?><svg xmlns="http://www.w3.org/2000/svg" viewBox="0 0 500 396.8"><defs><style>.i{stroke:#c1c1c1;stroke-dasharray:0 0 4 4;stroke-miterlimit:10;}.i,.j{fill:none;}.k{fill:#f0ebe6;}.l{fill:#ef857d;}.m{fill:#fff;}.n{fill:#ecf0f1;}.o{fill:#ff7676;}.p{fill:#c1c1c1;}.q{fill:#a54e4e;}.r{fill:#b2b2b2;}.s{fill:#bdc3c7;}.t{fill:#aa5353;}.u{fill:#dadada;}.v{fill:#d89a9a;}.w{fill:#c6c6c6;}.x{fill:#e0cdb1;}.y{fill:#3c3c3b;}.j{stroke:#918683;stroke-miterlimit:8;stroke-width:.5px;}</style></defs><g id="a"/><g id="b"/><g id="c"/><g id="d"/><g id="e"><g><g><path class="t" d="M492.21,200.82v-8.48l-1.93-.11c-2.36-5-6.9-9.79-13.7-13.72l-195.05-109.41c-20.73-11.97-54.23-11.97-74.8-.02L23.44,178.42c-6.71,3.9-11.19,8.6-13.5,13.57l-1.86,.02,.04,6.78h-.04l.05,11.93c-.01,.45-.01,.43,0,.88v.28h.06c.62,9.05,5.74,15.09,15.49,20.72l195.05,109.6c20.73,11.97,54.25,12.08,74.83,.13l183.29-109.03c10.2-5.93,15.3-14.38,15.34-21.16h.02v-11.31h0Z"/><path class="l" d="M476.59,170.82L281.54,61.44c-20.73-11.97-54.23-11.96-74.8,0L23.44,170.77c-20.58,11.96-20.49,31.36,.24,43.33l195.05,109.38c20.73,11.97,54.25,11.97,74.83,.01l183.29-109.34c20.58-11.96,20.47-31.37-.27-43.34h0Z"/></g><path class="m" d="M256.27,314.55c-12.19,0-24.37-2.75-33.88-8.24L72.79,222.42c-10.99-6.34-17.23-15.67-17.25-25.66-.02-9.95,6.15-19.24,16.92-25.5L213.05,87.4c19.04-11.07,48.8-11.07,67.85-.07l149.71,83.95c10.88,6.28,17.13,15.62,17.15,25.61,.01,9.95-6.15,19.24-16.92,25.49l-140.59,83.86c-9.54,5.54-21.76,8.31-33.98,8.31Zm-9.31-214.92c-8.57,0-17.11,1.85-23.45,5.53L82.92,189.02c-4.22,2.45-6.77,5.38-6.77,7.71,0,2.36,2.62,5.34,6.83,7.77l149.6,83.89c12.93,7.46,34.5,7.48,47.21,.09l140.59-83.86c4.21-2.45,6.77-5.38,6.76-7.7,0-2.36-2.6-5.33-6.79-7.76l-149.65-83.92c-6.48-3.74-15.13-5.61-23.75-5.61Z"/><g><path class="t" d="M297.88,60.66v-3.57l-.81-.04c-.99-2.11-2.9-4.12-5.77-5.78l-32.07-18.16c-8.73-5.04-22.83-5.04-31.49,0l-32.84,19.18c-2.83,1.64-4.71,3.62-5.68,5.71h-.78l.02,2.86h-.02l.02,5.02c0,.19,0,.18,0,.37v.12h.03c.26,3.81,2.42,6.35,6.52,8.72l32.07,18.24c8.73,5.04,22.84,5.09,31.5,.05l32.84-19.06c4.29-2.5,6.44-6.05,6.46-8.91h0v-4.76h0Z"/><path class="l" d="M291.3,48.03l-32.07-18.14c-8.73-5.04-22.83-5.03-31.49,0l-32.84,19.18c-8.66,5.03-8.63,13.2,.1,18.24l32.07,18.14c8.73,5.04,22.84,5.04,31.5,0l32.84-19.18c8.66-5.03,8.62-13.21-.11-18.25h0Z"/></g><g><g><polygon class="s" points="408.89 100.08 416.09 181.96 359.09 181.96 366.3 99.94 408.89 100.08"/><ellipse class="s" cx="387.6" cy="181.81" rx="28.5" ry="11.53" transform="translate(-.55 1.17) rotate(-.17)"/><path class="v" d="M402.7,93.82c8.29,3.35,8.25,8.81-.09,12.18-8.34,3.38-21.83,3.39-30.12,.04-8.29-3.35-8.25-8.81,.09-12.18,8.34-3.38,21.83-3.39,30.12-.04Z"/><path class="y" d="M387.46,106.34c-5.39,0-10.41-.83-14.15-2.34-3.55-1.44-4.81-3.06-4.81-4.01s1.28-2.61,4.9-4.08c3.8-1.54,8.88-2.38,14.32-2.38s10.41,.83,14.15,2.34c3.55,1.44,4.81,3.06,4.81,4.01s-1.28,2.61-4.9,4.08c-3.8,1.54-8.88,2.38-14.32,2.38Z"/></g><g><polygon class="n" points="437.28 224.85 389.34 197.18 389.34 153.28 437.28 180.96 437.28 224.85"/><polygon class="w" points="485.21 197.18 437.28 224.85 437.28 180.96 485.21 153.28 485.21 197.18"/><g><polygon class="s" points="412.11 181.86 405.13 177.83 405.13 189.15 412.11 185.17 412.11 181.86"/><polygon class="s" points="405.13 189.15 405.13 191.84 412.11 195.87 412.11 185.17 405.13 189.15"/><polygon class="s" points="423.09 188.2 416.1 184.17 416.1 195.49 423.09 191.51 423.09 188.2"/><polygon class="s" points="416.1 195.49 416.1 198.17 423.09 202.21 423.09 191.51 416.1 195.49"/><polygon class="s" points="434.07 194.54 427.08 190.51 427.08 201.83 434.07 197.85 434.07 194.54"/><polygon class="s" points="427.08 201.83 427.08 204.51 434.07 208.55 434.07 197.85 427.08 201.83"/></g><polygon class="q" points="488.86 153.19 437.12 183.06 385.7 153.38 437.44 123.5 488.86 153.19"/><polygon class="q" points="385.7 148.96 385.7 153.38 393.19 153.28 385.7 148.96"/><polygon class="q" points="488.86 153.19 488.86 148.77 479.88 151.26 488.86 153.19"/><polygon class="v" points="488.86 148.77 437.12 178.64 385.7 148.96 437.44 119.08 488.86 148.77"/></g><g><g><path class="v" d="M471.53,177.52l-1.08-1.54c-.47-.66-1.34-.74-2.27-.2l-6.38,3.68c.95-.48,1.87-.44,2.41,.33l.57,.82,1.95,2.77-.92,1.12,1.4-.44,3.78-1.18,1.04-4.63,.42-1.86-.93,1.13Z"/><path class="v" d="M463.87,180.6l.57,.82-2.2,5.74-4.73-.5,1.27-3.33h0c.55-1.27,1.41-2.28,2.3-2.85l.38-.22c.95-.48,1.87-.44,2.41,.33Z"/></g><g><path class="v" d="M455.06,192.98l-1.09,2.8c-.47,1.21-.47,2.36,0,3.03l3.19,4.54c-.42-.73-.45-1.93,.09-3.32l.58-1.48,1.95-5.02,.9,.1-.42-1.34-1.14-3.63-3.54,3.02-1.42,1.21,.91,.1Z"/><path class="v" d="M458.16,199.5l.58-1.48,4.18-2.41-.06,6.38-2.31,1.33h0c-.99,.49-1.8,.35-2.29-.22l-.19-.27c-.42-.73-.45-1.93,.09-3.32Z"/></g><g><path class="v" d="M467.85,199.1l2.17-1.25c.94-.54,1.8-1.62,2.27-2.83l3.19-8.22c-.52,1.21-1.42,2.37-2.5,2.99l-1.15,.66-3.9,2.25,.02-1.22-.97,1.77-2.65,4.81,2.5,1.61,1,.65,.02-1.24Z"/><path class="v" d="M472.47,189.09l-1.15,.66-2.04-2.91,4.79-5.87,1.1,1.58h0c.44,.78,.38,1.93-.01,3.07l-.19,.48c-.52,1.21-1.42,2.37-2.5,2.99Z"/></g></g></g><g><g><polygon class="n" points="211.42 353.19 308.83 297.48 308.83 279.86 211.42 335.57 211.42 353.19"/><polygon class="w" points="181.21 318.13 278.62 262.42 308.83 279.86 211.42 335.57 181.21 318.13"/><polygon class="s" points="181.21 335.75 211.41 353.19 211.42 335.57 181.21 318.13 181.21 335.75"/></g><g><path class="n" d="M267.01,276.21c-4.25,2.45-4.25,6.43,0,8.88s11.14,2.45,15.38,0c4.25-2.45,4.25-6.43,0-8.88-4.25-2.45-11.14-2.45-15.38,0Z"/><polygon class="n" points="268.37 195.06 281.03 195.06 285.58 279.94 263.82 279.94 268.37 195.06"/><path class="v" d="M270.22,192.47c-2.47,1.43-2.47,3.74,0,5.17,2.47,1.43,6.48,1.43,8.95,0,2.47-1.43,2.47-3.74,0-5.17-2.47-1.43-6.48-1.43-8.95,0Z"/><path class="y" d="M271.51,193.22c-1.76,1.02-1.76,2.66,0,3.68,1.76,1.02,4.61,1.02,6.38,0,1.76-1.02,1.76-2.66,0-3.68-1.76-1.02-4.61-1.02-6.38,0Z"/></g><g><path class="n" d="M237.85,293.05c-4.25,2.45-4.25,6.43,0,8.88,4.25,2.45,11.14,2.45,15.38,0,4.25-2.45,4.25-6.43,0-8.88-4.25-2.45-11.14-2.45-15.38,0Z"/><polygon class="n" points="239.22 211.89 251.87 211.89 256.42 296.77 234.67 296.77 239.22 211.89"/><path class="v" d="M241.07,209.31c-2.47,1.43-2.47,3.74,0,5.17,2.47,1.43,6.48,1.43,8.95,0,2.47-1.43,2.47-3.74,0-5.17-2.47-1.43-6.48-1.43-8.95,0Z"/><path class="y" d="M242.36,210.05c-1.76,1.02-1.76,2.66,0,3.68,1.76,1.02,4.61,1.02,6.38,0,1.76-1.02,1.76-2.66,0-3.68-1.76-1.02-4.61-1.02-6.38,0Z"/></g><g><path class="n" d="M208.26,309.79c-4.25,2.45-4.25,6.43,0,8.88,4.25,2.45,11.14,2.45,15.38,0,4.25-2.45,4.25-6.43,0-8.88-4.25-2.45-11.14-2.45-15.38,0Z"/><polygon class="n" points="209.62 228.64 222.28 228.64 226.83 313.52 205.07 313.52 209.62 228.64"/><path class="v" d="M211.48,226.05c-2.47,1.43-2.47,3.74,0,5.17,2.47,1.43,6.48,1.43,8.95,0,2.47-1.43,2.47-3.74,0-5.17-2.47-1.43-6.48-1.43-8.95,0Z"/><path class="y" d="M212.76,226.8c-1.76,1.02-1.76,2.66,0,3.68,1.76,1.02,4.61,1.02,6.38,0,1.76-1.02,1.76-2.66,0-3.68-1.76-1.02-4.61-1.02-6.38,0Z"/></g><g><g><g><polygon class="u" points="303.19 363.4 365.52 327.42 365.52 289.3 303.19 325.28 303.19 363.4"/><polygon class="m" points="353.47 308.72 360.59 304.61 360.59 296.93 353.47 301.04 353.47 308.72"/><polygon class="m" points="342.39 315.11 349.51 311 349.51 303.33 342.39 307.44 342.39 315.11"/><polygon class="m" points="331.31 321.51 338.43 317.4 338.43 309.72 331.31 313.83 331.31 321.51"/><polygon class="m" points="320.24 327.91 327.36 323.79 327.36 316.12 320.24 320.23 320.24 327.91"/><polygon class="m" points="309.16 334.3 316.28 330.19 316.28 322.51 309.16 326.62 309.16 334.3"/><polygon class="m" points="353.47 321.99 360.59 317.88 360.59 310.2 353.47 314.31 353.47 321.99"/><polygon class="m" points="342.39 328.39 349.51 324.27 349.51 316.6 342.39 320.71 342.39 328.39"/><polygon class="m" points="331.31 334.78 338.43 330.67 338.43 322.99 331.31 327.1 331.31 334.78"/><polygon class="m" points="320.24 341.18 327.36 337.07 327.36 329.39 320.24 333.5 320.24 341.18"/><polygon class="m" points="309.16 347.57 316.28 343.46 316.28 335.78 309.16 339.89 309.16 347.57"/><polygon class="w" points="303.19 363.4 365.52 327.42 365.52 320.01 303.19 356 303.19 363.4"/></g><g><polygon class="r" points="261.46 339.31 303.19 363.4 303.19 325.28 261.46 301.2 261.46 339.31"/><polygon class="m" points="290.26 330.29 297.39 334.4 297.39 326.72 290.26 322.61 290.26 330.29"/><polygon class="m" points="279.19 323.89 286.31 328.01 286.31 320.33 279.19 316.22 279.19 323.89"/><polygon class="m" points="268.11 317.5 275.23 321.61 275.23 313.93 268.11 309.82 268.11 317.5"/><polygon class="m" points="290.26 343.56 297.39 347.67 297.39 339.99 290.26 335.88 290.26 343.56"/><polygon class="m" points="279.19 337.16 286.31 341.28 286.31 333.6 279.19 329.49 279.19 337.16"/><polygon class="m" points="268.11 330.77 275.23 334.88 275.23 327.2 268.11 323.09 268.11 330.77"/><polygon class="s" points="261.46 339.31 303.19 363.4 303.19 356 261.46 331.91 261.46 339.31"/></g><polygon class="w" points="261.46 301.2 303.19 325.28 365.52 289.3 323.79 265.21 261.46 301.2"/></g><g><polygon class="n" points="309.05 313.72 348.13 291.16 348.13 278.49 309.05 301.05 309.05 313.72"/><polygon class="k" points="278.85 283.61 317.92 261.05 348.13 278.49 309.05 301.05 278.85 283.61"/><polygon class="s" points="278.85 296.28 309.05 313.72 309.05 301.05 278.85 283.61 278.85 296.28"/></g></g><g><g><g><polygon class="n" points="243.91 325.57 220.92 312.3 211 337.21 211 367.97 253.82 392.7 253.82 361.94 243.91 325.57"/><g><polygon class="s" points="221.39 354.89 215.41 351.44 215.41 345.66 221.39 349.11 221.39 354.89"/><polygon class="s" points="230.73 360.29 224.75 356.83 224.75 351.05 230.73 354.5 230.73 360.29"/><polygon class="s" points="240.07 365.68 234.09 362.22 234.09 356.44 240.07 359.9 240.07 365.68"/><polygon class="s" points="249.41 371.07 243.43 367.62 243.43 361.84 249.41 365.29 249.41 371.07"/></g><g><polygon class="s" points="221.39 365.15 215.41 361.69 215.41 355.91 221.39 359.37 221.39 365.15"/><polygon class="s" points="230.73 370.54 224.75 367.09 224.75 361.3 230.73 364.76 230.73 370.54"/><polygon class="s" points="240.07 375.93 234.09 372.48 234.09 366.7 240.07 370.15 240.07 375.93"/><polygon class="s" points="249.41 381.33 243.43 377.87 243.43 372.09 249.41 375.54 249.41 381.33"/></g><path class="s" d="M232.41,328.95c-3.07-1.77-5.55-.34-5.55,3.21v11.71l11.11,6.41v-11.71c0-3.54-2.49-7.85-5.55-9.62Z"/></g><polygon class="w" points="300.63 334.91 253.82 361.94 253.82 392.7 300.63 365.68 300.63 334.91"/><polygon class="q" points="300.63 334.91 253.82 361.94 243.91 325.57 290.71 298.55 300.63 334.91"/><polygon class="v" points="220.92 312.3 243.91 325.57 290.71 298.55 267.72 285.28 220.92 312.3"/></g><g><path class="n" d="M248.23,300.2c-4.26,2.46-4.26,6.45,0,8.91,4.26,2.46,11.17,2.46,15.42,0,4.26-2.46,4.26-6.45,0-8.91-4.26-2.46-11.17-2.46-15.42,0Z"/><polygon class="n" points="249.6 242.07 262.29 242.07 266.85 303.94 245.04 303.94 249.6 242.07"/><path class="v" d="M251.46,239.48c-2.48,1.43-2.48,3.75,0,5.18,2.48,1.43,6.5,1.43,8.97,0,2.48-1.43,2.48-3.75,0-5.18-2.48-1.43-6.5-1.43-8.97,0Z"/><path class="y" d="M252.75,240.23c-1.77,1.02-1.77,2.67,0,3.69,1.77,1.02,4.63,1.02,6.39,0,1.77-1.02,1.77-2.67,0-3.69s-4.63-1.02-6.39,0Z"/></g></g></g><g><path class="x" d="M214.02,30.78c-.31-4.35,2.96-8.13,7.31-8.44,4.35-.31,8.13,2.96,8.44,7.31,.31,4.35-2.96,8.13-7.31,8.44-4.35,.31-8.13-2.96-8.44-7.31Z"/><path class="j" d="M214.02,30.78c-.31-4.35,2.96-8.13,7.31-8.44,4.35-.31,8.13,2.96,8.44,7.31,.31,4.35-2.96,8.13-7.31,8.44-4.35,.31-8.13-2.96-8.44-7.31Z"/><path class="x" d="M218.04,34.26c-.31-4.35,2.96-8.13,7.31-8.44s8.13,2.96,8.44,7.31c.31,4.35-2.96,8.13-7.31,8.44-4.35,.31-8.13-2.96-8.44-7.31Z"/><path class="j" d="M218.04,34.26c-.31-4.35,2.96-8.13,7.31-8.44,4.35-.31,8.13,2.96,8.44,7.31,.31,4.35-2.96,8.13-7.31,8.44-4.35,.31-8.13-2.96-8.44-7.31Z"/><path class="x" d="M215.17,41.47c-.31-4.35,4.22-8.22,10.12-8.64,5.9-.42,10.94,2.76,11.25,7.11,.31,4.35-4.22,8.22-10.12,8.64-5.9,.42-10.94-2.76-11.25-7.11Z"/><path class="j" d="M215.17,41.47c-.31-4.35,4.22-8.22,10.12-8.64,5.9-.42,10.94,2.76,11.25,7.11,.31,4.35-4.22,8.22-10.12,8.64-5.9,.42-10.94-2.76-11.25-7.11Z"/><path class="x" d="M226.08,41.22c-.31-4.35,2.96-8.13,7.31-8.44,4.35-.31,8.13,2.96,8.44,7.31,.31,4.35-2.96,8.13-7.31,8.44-4.35,.31-8.13-2.96-8.44-7.31Z"/><path class="j" d="M226.08,41.22c-.31-4.35,2.96-8.13,7.31-8.44,4.35-.31,8.13,2.96,8.44,7.31,.31,4.35-2.96,8.13-7.31,8.44-4.35,.31-8.13-2.96-8.44-7.31Z"/><path class="x" d="M230.1,44.7c-.31-4.35,2.96-8.13,7.31-8.44,4.35-.31,8.13,2.96,8.44,7.31,.31,4.35-2.96,8.13-7.31,8.44-4.35,.31-8.13-2.96-8.44-7.31Z"/><path class="j" d="M230.1,44.7c-.31-4.35,2.96-8.13,7.31-8.44,4.35-.31,8.13,2.96,8.44,7.31,.31,4.35-2.96,8.13-7.31,8.44-4.35,.31-8.13-2.96-8.44-7.31Z"/><path class="x" d="M234.12,48.18c-.31-4.35,2.96-8.13,7.31-8.44,4.35-.31,8.13,2.96,8.44,7.31,.31,4.35-2.96,8.13-7.31,8.44-4.35,.31-8.13-2.96-8.44-7.31Z"/><path class="j" d="M234.12,48.18c-.31-4.35,2.96-8.13,7.31-8.44,4.35-.31,8.13,2.96,8.44,7.31,.31,4.35-2.96,8.13-7.31,8.44-4.35,.31-8.13-2.96-8.44-7.31Z"/><path class="x" d="M238.14,51.66c-.31-4.35,2.96-8.13,7.31-8.44,4.35-.31,8.13,2.96,8.44,7.31,.31,4.35-2.96,8.13-7.31,8.44-4.35,.31-8.13-2.96-8.44-7.31Z"/><path class="j" d="M238.14,51.66c-.31-4.35,2.96-8.13,7.31-8.44,4.35-.31,8.13,2.96,8.44,7.31,.31,4.35-2.96,8.13-7.31,8.44-4.35,.31-8.13-2.96-8.44-7.31Z"/><path class="x" d="M242.16,55.14c-.31-4.35,2.96-8.13,7.31-8.44,4.35-.31,8.13,2.96,8.44,7.31,.31,4.35-2.96,8.13-7.31,8.44-4.35,.31-8.13-2.96-8.44-7.31Z"/><path class="j" d="M242.16,55.14c-.31-4.35,2.96-8.13,7.31-8.44,4.35-.31,8.13,2.96,8.44,7.31s-2.96,8.13-7.31,8.44c-4.35,.31-8.13-2.96-8.44-7.31Z"/><path class="x" d="M246.18,58.62c-.31-4.35,2.96-8.13,7.31-8.44,4.35-.31,8.13,2.96,8.44,7.31,.31,4.35-2.96,8.13-7.31,8.44-4.35,.31-8.13-2.96-8.44-7.31Z"/><path class="j" d="M246.18,58.62c-.31-4.35,2.96-8.13,7.31-8.44,4.35-.31,8.13,2.96,8.44,7.31,.31,4.35-2.96,8.13-7.31,8.44-4.35,.31-8.13-2.96-8.44-7.31Z"/><path class="x" d="M250.2,62.1c-.31-4.35,2.96-8.13,7.31-8.44,4.35-.31,8.13,2.96,8.44,7.31,.31,4.35-2.96,8.13-7.31,8.44-4.35,.31-8.13-2.96-8.44-7.31Z"/><path class="j" d="M250.2,62.1c-.31-4.35,2.96-8.13,7.31-8.44,4.35-.31,8.13,2.96,8.44,7.31,.31,4.35-2.96,8.13-7.31,8.44-4.35,.31-8.13-2.96-8.44-7.31Z"/><path class="x" d="M254.22,65.58c-.31-4.35,2.96-8.13,7.31-8.44,4.35-.31,8.13,2.96,8.44,7.31,.31,4.35-2.96,8.13-7.31,8.44-4.35,.31-8.13-2.96-8.44-7.31Z"/><path class="j" d="M254.22,65.58c-.31-4.35,2.96-8.13,7.31-8.44,4.35-.31,8.13,2.96,8.44,7.31,.31,4.35-2.96,8.13-7.31,8.44-4.35,.31-8.13-2.96-8.44-7.31Z"/><path class="x" d="M249.37,66.3c-.31-4.35,2.96-8.13,7.31-8.44,4.35-.31,8.13,2.96,8.44,7.31,.31,4.35-2.96,8.13-7.31,8.44-4.35,.31-8.13-2.96-8.44-7.31Z"/><path class="j" d="M249.37,66.3c-.31-4.35,2.96-8.13,7.31-8.44,4.35-.31,8.13,2.96,8.44,7.31,.31,4.35-2.96,8.13-7.31,8.44-4.35,.31-8.13-2.96-8.44-7.31Z"/><path class="x" d="M262.25,72.54c-.31-4.35,2.96-8.13,7.31-8.44,4.35-.31,8.13,2.96,8.44,7.31,.31,4.35-2.96,8.13-7.31,8.44-4.35,.31-8.13-2.96-8.44-7.31Z"/><path class="j" d="M262.25,72.54c-.31-4.35,2.96-8.13,7.31-8.44,4.35-.31,8.13,2.96,8.44,7.31,.31,4.35-2.96,8.13-7.31,8.44-4.35,.31-8.13-2.96-8.44-7.31Z"/><path class="x" d="M252.73,55.58c-.31-4.35,2.96-8.13,7.31-8.44,4.35-.31,8.13,2.96,8.44,7.31,.31,4.35-2.96,8.13-7.31,8.44-4.35,.31-8.13-2.96-8.44-7.31Z"/><path class="j" d="M252.73,55.58c-.31-4.35,2.96-8.13,7.31-8.44,4.35-.31,8.13,2.96,8.44,7.31,.31,4.35-2.96,8.13-7.31,8.44-4.35,.31-8.13-2.96-8.44-7.31Z"/><path class="x" d="M250.28,79.01c-.31-4.35,2.96-8.13,7.31-8.44,4.35-.31,8.13,2.96,8.44,7.31,.31,4.35-2.96,8.13-7.31,8.44-4.35,.31-8.13-2.96-8.44-7.31Z"/><path class="j" d="M250.28,79.01c-.31-4.35,2.96-8.13,7.31-8.44,4.35-.31,8.13,2.96,8.44,7.31,.31,4.35-2.96,8.13-7.31,8.44-4.35,.31-8.13-2.96-8.44-7.31Z"/><path class="x" d="M239.15,34.25c-.31-4.35,2.96-8.13,7.31-8.44,4.35-.31,8.13,2.96,8.44,7.31,.31,4.35-2.96,8.13-7.31,8.44-4.35,.31-8.13-2.96-8.44-7.31Z"/><path class="j" d="M239.15,34.25c-.31-4.35,2.96-8.13,7.31-8.44,4.35-.31,8.13,2.96,8.44,7.31,.31,4.35-2.96,8.13-7.31,8.44-4.35,.31-8.13-2.96-8.44-7.31Z"/><path class="x" d="M247.48,44.85c-.31-4.35,2.96-8.13,7.31-8.44,4.35-.31,8.13,2.96,8.44,7.31,.31,4.35-2.96,8.13-7.31,8.44-4.35,.31-8.13-2.96-8.44-7.31Z"/><path class="j" d="M247.48,44.85c-.31-4.35,2.96-8.13,7.31-8.44,4.35-.31,8.13,2.96,8.44,7.31,.31,4.35-2.96,8.13-7.31,8.44-4.35,.31-8.13-2.96-8.44-7.31Z"/><path class="x" d="M254.24,44.9c-.31-4.35,2.96-8.13,7.31-8.44,4.35-.31,8.13,2.96,8.44,7.31,.31,4.35-2.96,8.13-7.31,8.44-4.35,.31-8.13-2.96-8.44-7.31Z"/><path class="j" d="M254.23,44.9c-.31-4.35,2.96-8.13,7.31-8.44,4.35-.31,8.13,2.96,8.44,7.31,.31,4.35-2.96,8.13-7.31,8.44-4.35,.31-8.13-2.96-8.44-7.31Z"/><path class="x" d="M223.2,48.32c-.31-4.35,2.96-8.13,7.31-8.44,4.35-.31,8.13,2.96,8.44,7.31,.31,4.35-2.96,8.13-7.31,8.44-4.35,.31-8.13-2.96-8.44-7.31Z"/><path class="j" d="M223.2,48.32c-.31-4.35,2.96-8.13,7.31-8.44,4.35-.31,8.13,2.96,8.44,7.31,.31,4.35-2.96,8.13-7.31,8.44-4.35,.31-8.13-2.96-8.44-7.31Z"/><path class="x" d="M215.58,52.47c-.31-4.35,2.96-8.13,7.31-8.44,4.35-.31,8.13,2.96,8.44,7.31,.31,4.35-2.96,8.13-7.31,8.44s-8.13-2.96-8.44-7.31Z"/><path class="j" d="M215.58,52.47c-.31-4.35,2.96-8.13,7.31-8.44,4.35-.31,8.13,2.96,8.44,7.31,.31,4.35-2.96,8.13-7.31,8.44-4.35,.31-8.13-2.96-8.44-7.31Z"/><path class="x" d="M234.71,51.1c-.31-4.35,2.96-8.13,7.31-8.44,4.35-.31,8.13,2.96,8.44,7.31,.31,4.35-2.96,8.13-7.31,8.44-4.35,.31-8.13-2.96-8.44-7.31Z"/><path class="j" d="M234.71,51.1c-.31-4.35,2.96-8.13,7.31-8.44,4.35-.31,8.13,2.96,8.44,7.31,.31,4.35-2.96,8.13-7.31,8.44-4.35,.31-8.13-2.96-8.44-7.31Z"/><path class="x" d="M241.76,55.11c-.31-4.35,2.96-8.13,7.31-8.44,4.35-.31,8.13,2.96,8.44,7.31,.31,4.35-2.96,8.13-7.31,8.44-4.35,.31-8.13-2.96-8.44-7.31Z"/><path class="j" d="M241.76,55.11c-.31-4.35,2.96-8.13,7.31-8.44,4.35-.31,8.13,2.96,8.44,7.31,.31,4.35-2.96,8.13-7.31,8.44-4.35,.31-8.13-2.96-8.44-7.31Z"/><path class="x" d="M254.22,59.5c-.31-4.35,2.96-8.13,7.31-8.44,4.35-.31,8.13,2.96,8.44,7.31,.31,4.35-2.96,8.13-7.31,8.44-4.35,.31-8.13-2.96-8.44-7.31Z"/><path class="j" d="M254.22,59.5c-.31-4.35,2.96-8.13,7.31-8.44,4.35-.31,8.13,2.96,8.44,7.31,.31,4.35-2.96,8.13-7.31,8.44-4.35,.31-8.13-2.96-8.44-7.31Z"/><path class="x" d="M232.04,61.21c-.31-4.35,2.96-8.13,7.31-8.44,4.35-.31,8.13,2.96,8.44,7.31,.31,4.35-2.96,8.13-7.31,8.44-4.35,.31-8.13-2.96-8.44-7.31Z"/><path class="j" d="M232.04,61.21c-.31-4.35,2.96-8.13,7.31-8.44,4.35-.31,8.13,2.96,8.44,7.31,.31,4.35-2.96,8.13-7.31,8.44-4.35,.31-8.13-2.96-8.44-7.31Z"/><path class="x" d="M216.26,56.63c-.31-4.35,2.96-8.13,7.31-8.44,4.35-.31,8.13,2.96,8.44,7.31,.31,4.35-2.96,8.13-7.31,8.44-4.35,.31-8.13-2.96-8.44-7.31Z"/><path class="j" d="M216.26,56.63c-.31-4.35,2.96-8.13,7.31-8.44,4.35-.31,8.13,2.96,8.44,7.31s-2.96,8.13-7.31,8.44c-4.35,.31-8.13-2.96-8.44-7.31Z"/><path class="x" d="M230.26,67.95c-.31-4.35,2.96-8.13,7.31-8.44,4.35-.31,8.13,2.96,8.44,7.31,.31,4.35-2.96,8.13-7.31,8.44-4.35,.31-8.13-2.96-8.44-7.31Z"/><path class="j" d="M230.26,67.95c-.31-4.35,2.96-8.13,7.31-8.44,4.35-.31,8.13,2.96,8.44,7.31,.31,4.35-2.96,8.13-7.31,8.44-4.35,.31-8.13-2.96-8.44-7.31Z"/><path class="x" d="M229.38,71.32c-.31-4.35,2.96-8.13,7.31-8.44,4.35-.31,8.13,2.96,8.44,7.31,.31,4.35-2.96,8.13-7.31,8.44s-8.13-2.96-8.44-7.31Z"/><path class="j" d="M229.38,71.32c-.31-4.35,2.96-8.13,7.31-8.44,4.35-.31,8.13,2.96,8.44,7.31,.31,4.35-2.96,8.13-7.31,8.44-4.35,.31-8.13-2.96-8.44-7.31Z"/><path class="x" d="M219.07,66.73c-.31-4.35,2.96-8.13,7.31-8.44,4.35-.31,8.13,2.96,8.44,7.31,.31,4.35-2.96,8.13-7.31,8.44-4.35,.31-8.13-2.96-8.44-7.31Z"/><path class="j" d="M219.07,66.73c-.31-4.35,2.96-8.13,7.31-8.44,4.35-.31,8.13,2.96,8.44,7.31,.31,4.35-2.96,8.13-7.31,8.44-4.35,.31-8.13-2.96-8.44-7.31Z"/><path class="x" d="M244.26,73.93c-.31-4.35,2.96-8.13,7.31-8.44,4.35-.31,8.13,2.96,8.44,7.31,.31,4.35-2.96,8.13-7.31,8.44-4.35,.31-8.13-2.96-8.44-7.31Z"/><path class="j" d="M244.26,73.93c-.31-4.35,2.96-8.13,7.31-8.44,4.35-.31,8.13,2.96,8.44,7.31,.31,4.35-2.96,8.13-7.31,8.44-4.35,.31-8.13-2.96-8.44-7.31Z"/><path class="x" d="M230.63,78.23c-.31-4.35,2.96-8.13,7.31-8.44,4.35-.31,8.13,2.96,8.44,7.31,.31,4.35-2.96,8.13-7.31,8.44-4.35,.31-8.13-2.96-8.44-7.31Z"/><path class="j" d="M230.63,78.23c-.31-4.35,2.96-8.13,7.31-8.44,4.35-.31,8.13,2.96,8.44,7.31,.31,4.35-2.96,8.13-7.31,8.44-4.35,.31-8.13-2.96-8.44-7.31Z"/><path class="x" d="M230.82,12.71c-.11-1.55,1.05-2.9,2.61-3.01,1.55-.11,2.9,1.06,3.01,2.61,.11,1.55-1.05,2.9-2.61,3.01-1.55,.11-2.9-1.06-3.01-2.61Z"/><path class="j" d="M230.82,12.71c-.11-1.55,1.05-2.9,2.61-3.01,1.55-.11,2.9,1.05,3.01,2.61,.11,1.55-1.05,2.9-2.61,3.01-1.55,.11-2.9-1.06-3.01-2.61Z"/><path class="x" d="M242.36,8.11c-.11-1.55,1.06-2.9,2.61-3.01s2.9,1.06,3.01,2.61c.11,1.55-1.06,2.9-2.61,3.01-1.55,.11-2.9-1.06-3.01-2.61Z"/><path class="j" d="M242.36,8.11c-.11-1.55,1.06-2.9,2.61-3.01,1.55-.11,2.9,1.06,3.01,2.61,.11,1.55-1.05,2.9-2.61,3.01-1.55,.11-2.9-1.06-3.01-2.61Z"/><path class="x" d="M239.99,22.37c-.11-1.55,1.06-2.9,2.61-3.01,1.55-.11,2.9,1.06,3.01,2.61,.11,1.55-1.05,2.9-2.61,3.01-1.55,.11-2.9-1.05-3.01-2.61Z"/><path class="j" d="M239.99,22.37c-.11-1.55,1.06-2.9,2.61-3.01,1.55-.11,2.9,1.06,3.01,2.61,.11,1.55-1.05,2.9-2.61,3.01-1.55,.11-2.9-1.06-3.01-2.61Z"/></g><g><line class="i" x1="217.72" y1="96.39" x2="79.01" y2="181.98"/><polygon class="p" points="79.68 176.76 80.65 177.02 79.33 181.78 84.17 182.74 83.98 183.72 78.08 182.55 79.68 176.76"/></g><g><line class="i" x1="343.98" y1="264.25" x2="413.79" y2="221.15"/><polygon class="p" points="413.12 226.37 412.15 226.11 413.46 221.35 408.63 220.39 408.82 219.41 414.71 220.58 413.12 226.37"/></g><g><line class="i" x1="354.04" y1="139.8" x2="273.62" y2="93.96"/><polygon class="p" points="278.52 92.05 278.75 93.02 273.95 94.15 275.43 98.85 274.47 99.15 272.68 93.42 278.52 92.05"/></g><g><line class="i" x1="78.09" y1="213.74" x2="198.94" y2="280.06"/><polygon class="p" points="194.07 282.06 193.82 281.09 198.6 279.88 197.05 275.2 198 274.89 199.89 280.59 194.07 282.06"/></g><g><rect class="m" x="102.69" y="44.09" width="73" height="30" rx="6" ry="6"/><g><path class="o" d="M123.67,57.16c1.48,2.75,4.01,5.46,6.51,6.87-.37,.31-.92,.93-1.17,1.36-2.24-1.41-4.4-3.84-5.98-6.49v8.24h-1.68v-8.21c-1.55,2.72-3.71,5.1-6,6.51-.25-.39-.8-1.02-1.17-1.34,2.57-1.39,5.03-4.11,6.48-6.93h-5.78v-1.56h6.48v-4.04h1.68v4.04h6.51v1.56h-5.87Z"/><path class="o" d="M134.04,55.25c-.2,.88-.68,1.77-1.55,2.46-.19-.29-.76-.83-1.04-1.02,1.22-.94,1.41-2.12,1.41-3.08v-1.29c1.77-.12,3.82-.37,4.95-.75l.94,.95c-1.19,.39-2.91,.65-4.5,.76v.34c0,.12,0,.25-.02,.41h4.79v1.21h-1.79v1.9h-1.39v-1.9h-1.8Zm7.6,9.16c1.82,.49,3.74,1.16,4.96,1.65l-.75,1.14c-1.21-.56-3.18-1.29-5.08-1.84l.59-.95h-4.69l1.14,.65c-1.41,.8-3.64,1.67-5.34,2.18-.14-.31-.54-1.04-.77-1.34,1.58-.34,3.59-.9,4.86-1.48h-2.74v-6.94h10.73v6.94h-2.92Zm-6.27-4.93h7.6v-1h-7.6v1Zm0,1.94h7.6v-.99h-7.6v.99Zm0,1.99h7.6v-1.02h-7.6v1.02Zm11.37-9.37v1.21h-2.53v1.96l-1.41-.02v-1.94h-1.9c-.17,.8-.53,1.58-1.19,2.21-.24-.24-.83-.65-1.16-.78,1.04-.99,1.21-2.19,1.21-3.13v-1.26c1.85-.1,4.06-.34,5.24-.71l1.02,.9c-1.29,.41-3.2,.66-4.93,.78v.32c0,.14,0,.29-.02,.46h5.68Z"/><path class="o" d="M153.98,64.16c-1.16,1.05-2.87,2.12-4.33,2.77-.25-.27-.85-.83-1.19-1.07,1.48-.56,3.11-1.39,4.08-2.28l1.44,.58Zm9.86-7.39v1.24h-7.99l.37,.32c-.75,.42-1.56,.82-2.38,1.17l3.72-.17c.7-.32,1.38-.68,1.99-1.04l1.1,.97c-2.14,1.12-4.4,2.04-6.65,2.79l6.03-.29c-.32-.24-.65-.48-.93-.68l1.17-.71c1.14,.75,2.58,1.85,3.28,2.63l-1.22,.83c-.27-.31-.63-.66-1.07-1.05l-4.03,.24v2.43c0,.76-.15,1.19-.78,1.39-.61,.24-1.46,.25-2.72,.25-.08-.44-.34-1.05-.56-1.46,.97,.03,1.92,.05,2.19,.03,.27-.02,.34-.07,.34-.27v-2.29c-4.79,.25-5.49,.32-6,.51-.05-.27-.24-.95-.37-1.33,.63-.07,1.36-.25,2.4-.61,.56-.17,1.78-.61,3.21-1.19-3.16,.19-3.67,.25-4.03,.36-.05-.25-.24-.92-.39-1.28,.36-.05,.75-.17,1.21-.36,.41-.15,1.5-.61,2.53-1.21h-5.68v-1.24h6.78v-.9h-5.03v-1.17h5.03v-.88h-5.93v-1.19h5.93v-1.1h1.58v1.1h6.09v1.19h-6.09v.88h5.13v1.17h-5.13v.9h6.88Zm-4.28,6.8c1.36,.66,3.18,1.68,4.13,2.43l-1.22,.93c-.85-.73-2.67-1.8-4.05-2.52l1.14-.85Z"/></g></g><g><rect class="m" x="100.69" y="326.09" width="73" height="30" rx="6" ry="6"/><g><path class="o" d="M119.31,336.32c-.51,1.38-1.14,2.79-1.92,4.1h9.18v8.69h-1.67v-1.07h-7.5v1.12h-1.6v-6.42c-.76,.95-1.61,1.82-2.58,2.53-.26-.34-.77-.93-1.11-1.21,2.55-1.84,4.39-4.86,5.37-7.73h-4.64v-1.56h14.72v1.56h-8.26Zm-1.9,5.61v4.57h7.5v-4.57h-7.5Z"/><path class="o" d="M134.73,337.03c-.59,4.5-1.75,8.07-4.13,10.5-.22-.31-.92-.97-1.27-1.26,2.21-2.07,3.25-5.29,3.76-9.25h-3.21v-1.53h3.38c.07-.65,.12-1.31,.17-2.01l1.68,.1c-.05,.65-.12,1.29-.17,1.9h9.43v1.53h-9.64Zm5.35,.75c-.05,1.55-.14,2.99-.36,4.33,.97,2.5,2.75,4.62,5.03,5.68-.32,.29-.8,.83-1.02,1.26-1.9-1-3.43-2.69-4.54-4.78-.75,2.12-2.16,3.81-4.95,4.88-.19-.39-.61-.97-.95-1.27,4.81-1.75,5.01-5.39,5.17-10.1h1.61Zm-4.5,5.98c-.12-1.07-.49-2.89-.85-4.27l1.34-.39c.37,1.38,.78,3.16,.95,4.17l-1.44,.49Zm5.39-.78c.42-.99,.99-2.55,1.24-3.72l1.36,.66c-.42,1.26-.92,2.69-1.36,3.67l-1.24-.61Z"/><path class="o" d="M146.46,348.61c.71-.65,1.55-1.7,2.14-2.69l1.5,.42c-.58,.99-1.43,2.18-2.14,2.91l-1.5-.65Zm13.34-2.87c.65,.85,1.46,2.02,1.89,2.7l-1.51,.71c-.39-.73-1.21-1.97-1.84-2.87l1.31-.54h-12.87v-1.21h6.6v-1h-5.13v-1.1h5.13v-1.02h-5.97v-1.17h3.89c-.22-.36-.56-.85-.83-1.21l1.31-.49c.36,.41,.83,1.02,1.07,1.41l-.71,.29h3.25c.41-.53,.85-1.19,1.1-1.68l1.56,.44c-.32,.42-.7,.87-1.02,1.24h3.96v1.17h-6v1.02h5.18v1.1h-5.18v1h6.56v1.21h-1.75Zm-11.44-8.45h-1.53v-2.58h6.54c-.08-.37-.19-.75-.31-1.07l1.67-.27c.17,.41,.34,.92,.48,1.34h6.36v2.46h-1.6v-1.22h-3.42v1c0,.36,.05,.51,.46,.51h2.01c.37,0,1.07-.05,1.34-.12,.02,.39,.05,.68,.1,1.04-.27,.08-.87,.08-1.38,.08h-2.48c-1.26,0-1.5-.51-1.5-1.53v-.99h-1.85c-.37,1.77-1.45,2.58-4.98,2.96-.08-.32-.41-.85-.68-1.11,2.87-.24,3.74-.73,4.03-1.85h-3.26v1.34Zm4.54,8.91c.15,.82,.31,1.92,.37,2.55l-1.55,.24c-.05-.66-.17-1.8-.29-2.65l1.46-.14Zm3.47-.12c.34,.82,.71,1.9,.9,2.57l-1.56,.29c-.17-.65-.51-1.78-.82-2.62l1.48-.24Z"/></g></g><g><rect class="m" x="378.69" y="48.09" width="90" height="30" rx="6" ry="6"/><g><path class="o" d="M405.3,56.18v14.96h-1.7v-.92h-10.86v.92h-1.63v-14.96h14.19Zm-1.7,12.56v-10.95h-10.86v10.95h10.86Zm-2.11-8.62v6.24h-6.7v-6.24h6.7Zm-1.58,1.39h-3.62v3.47h3.62v-3.47Z"/><path class="o" d="M412.13,55.8h1.56v15.35h-1.56v-4.52c-2.91,1.02-3.43,1.31-3.79,1.58-.1-.39-.39-1.09-.61-1.44,.25-.17,.59-.48,.59-1.16v-8.21h1.55v8.41l2.26-.71v-9.3Zm9.67,4.44c-.46,2.6-1.14,4.76-2.19,6.54,.97,1.29,2.11,2.31,3.48,3.01-.37,.27-.85,.87-1.09,1.27-1.27-.73-2.38-1.73-3.3-2.94-.95,1.22-2.14,2.24-3.64,3.06-.17-.34-.71-1-1.04-1.31,1.6-.76,2.84-1.8,3.79-3.13-.75-1.27-1.34-2.74-1.85-4.3-.32,.65-.71,1.22-1.12,1.72-.22-.32-.78-1.02-1.12-1.34,1.45-1.68,2.29-4.4,2.75-7.29l1.62,.27c-.17,1-.39,1.99-.66,2.94h5.51v1.5h-1.14Zm-4.98,.36c.44,1.72,1.05,3.33,1.85,4.74,.73-1.43,1.22-3.13,1.55-5.1h-3.26l-.14,.36Z"/><path class="o" d="M430.56,60.15c-.7-.65-1.82-1.56-2.86-2.36-.46,.73-.97,1.41-1.53,2.01h3.77v1.33h-1.58v1.61h2.11v1.34h-2.11v4.35c.68-.14,1.39-.29,2.09-.44l.08,1.27c-2.02,.48-4.15,.97-5.73,1.33l-.32-1.41c.7-.14,1.62-.31,2.6-.51v-4.59h-2.38v-1.34h2.38v-1.61h-1.46v-.75c-.27,.27-.54,.51-.8,.73-.08-.34-.41-1.21-.61-1.6,1.27-.95,2.58-2.46,3.35-4.06l1.17,.53c-.12,.24-.24,.46-.37,.71,1.07,.73,2.16,1.58,2.86,2.18l-.66,1.29Zm-4.61,4.69c.27,.97,.53,2.19,.61,3.01l-1.04,.32c-.07-.83-.31-2.07-.56-3.06l.99-.27Zm2.72,2.82c.22-.82,.53-2.11,.66-2.99l1.14,.34c-.31,1.02-.61,2.19-.9,2.96l-.9-.31Zm11-5.56v7.53c0,.7-.14,1.09-.61,1.29-.46,.22-1.21,.25-2.29,.25-.05-.37-.24-.95-.41-1.31,.73,.02,1.44,.02,1.63,0,.22,0,.29-.07,.29-.25v-6.19h-5.68v7.72h-1.38v-9.04h.93v-6.02h6.65v6.02h.87Zm-6.17,0h1.07v-3.21h2.86v-1.5h-3.93v4.71Zm3.84,6.61h-3.79v-4.23h3.79v4.23Zm-1.17-3.11h-1.51v1.97h1.51v-1.97Zm1.26-5.51h-1.6v2.01h1.6v-2.01Z"/><path class="o" d="M448.56,63.2c0,2.36-.19,5.73-1.39,7.94-.25-.24-.85-.63-1.19-.76,.32-.59,.56-1.24,.73-1.94l-.97,.99c-.27-.58-.83-1.53-1.33-2.36-.39,1.48-1,2.84-2.07,4.06-.2-.34-.7-.83-.99-1.07,1.99-2.35,2.19-5.42,2.19-8.38v-5.98h1.36v5.98c0,1.26-.03,2.55-.2,3.77,.56,.75,1.72,2.46,2.01,2.96,.44-1.73,.49-3.67,.49-5.2v-5.22h3.4v-2.46h1.48v.87h4.22v.99h-4.22v.61h3.55l.22-.03,.97,.17c-.14,.88-.34,1.9-.53,2.55l-1.17-.19c.05-.36,.12-.85,.19-1.34h-3.04v.7l2.24-.17,.05,.87-2.29,.19c0,.37,.05,.53,.42,.53h1.67c.31,0,.93-.03,1.19-.1,.05,.37,.07,.66,.14,1-.27,.08-.82,.1-1.27,.1h-2.12c-1.07,0-1.36-.44-1.41-1.26l-1.82,.17-.07-1.07,1.87-.14v-.82h-2.29v4.06Zm-6.49,.19c-.08-1.16-.37-3.18-.68-4.73l1.05-.19c.32,1.53,.66,3.52,.76,4.64l-1.14,.27Zm5.01-4.69c-.42,1.22-.87,2.79-1.26,3.74l-.85-.32c.32-1.02,.71-2.69,.88-3.82l1.22,.41Zm9.91,10.91v1.1h-9.09v-1.1h1.04v-2.62h7.24v2.62h.82Zm-7.7-6.87h6.54v3.67h-6.54v-3.67Zm.8,6.87h.99v-1.62h-.99v1.62Zm.42-5.42h1.43v-.65h-1.43v.65Zm0,1.43h1.43v-.66h-1.43v.66Zm1.51,2.38v1.62h.97v-1.62h-.97Zm2.55-4.45h-1.5v.65h1.5v-.65Zm0,1.41h-1.5v.66h1.5v-.66Zm-.63,3.04v1.62h1.02v-1.62h-1.02Z"/></g></g><g><path class="m" d="M212.87,168.98h-2.24v2.43c0,.97-.23,1.48-.91,1.75-.68,.29-1.75,.3-3.36,.3-.09-.47-.38-1.23-.65-1.67,1.16,.04,2.39,.02,2.7,.02,.36-.02,.47-.11,.47-.42v-2.41h-9.56v4.48h-1.75v-4.48h-2.18v-1.63h2.18v-7.03h5.58v-1.6h-7.05v-1.63h16.01v1.63h-7.22v1.6h5.72v7.03h2.24v1.63Zm-13.54-7.07v1.94h3.84v-1.94h-3.84Zm0,5.43h3.84v-1.99h-3.84v1.99Zm5.59-5.43v1.94h3.97v-1.94h-3.97Zm3.97,5.43v-1.99h-3.97v1.99h3.97Z"/><path class="m" d="M231.59,171.14v1.71h-16.87v-1.71h7.52v-4.37h-5.41v-1.69h5.41v-3.8h-4.22c-.59,1.14-1.22,2.15-1.88,2.94-.36-.3-1.14-.82-1.61-1.06,1.54-1.62,2.74-4.22,3.44-6.88l1.82,.42c-.29,.97-.63,1.94-.99,2.85h3.44v-3.53h1.82v3.53h6.61v1.73h-6.61v3.8h5.91v1.69h-5.91v4.37h7.52Z"/><path class="m" d="M241.49,171.68c0,.8-.17,1.2-.7,1.44-.55,.23-1.39,.25-2.56,.25-.08-.4-.32-1.03-.55-1.41,.8,.04,1.58,.04,1.82,.02,.25,0,.32-.08,.32-.3v-2.53c-1.14,.74-2.26,1.44-3.25,2.05l-.49-1.25c-.21,1.27-.59,2.57-1.35,3.55-.23-.34-.89-.99-1.23-1.22,1.06-1.44,1.16-3.48,1.16-5.09v-4.46h6.84v8.95Zm-1.16-14.29c.87,1.33,1.92,3.12,2.38,4.24l-1.52,.65c-.11-.34-.3-.78-.55-1.23-4.98,.46-5.7,.57-6.19,.76-.09-.36-.36-1.18-.55-1.61,.3-.08,.63-.36,1.01-.76,.36-.4,1.58-1.9,2.34-3.4l1.8,.53c-.74,1.18-1.65,2.36-2.53,3.32l3.4-.25c-.34-.59-.68-1.2-1.01-1.71l1.42-.53Zm-4.05,9.82c0,.74-.04,1.56-.15,2.39,.99-.44,2.32-1.12,3.69-1.8v-.7l-.84,.84c-.61-.55-1.8-1.42-2.7-2.03l.91-.84c.86,.53,1.98,1.31,2.62,1.82v-2.68h-3.53v3Zm9.21-3c-1.94,0-2.45-.67-2.45-2.49v-5.68h1.75v2.45h4.9v1.52h-4.9v1.75c0,.68,.13,.93,.74,.93h3.19c.48,0,1.24-.04,1.63-.11,.04,.46,.09,1.12,.17,1.5-.36,.11-1.08,.13-1.77,.13h-3.27Zm2.98,7.54c.7,0,.86-.34,.93-2.26,.36,.28,1.06,.57,1.56,.65-.21,2.49-.68,3.15-2.34,3.15h-3.08c-2,0-2.51-.51-2.51-2.28v-6.19h1.75v2.09h5.07v1.58h-5.07v2.51c0,.65,.15,.76,.99,.76h2.7Z"/><path class="m" d="M255.47,164.49c-.7-.53-2.11-1.41-3.13-1.99l1.03-1.27c.99,.53,2.41,1.33,3.17,1.84l-1.06,1.42Zm1.39,2.64c-.74,1.98-1.71,4.26-2.58,6.04l-1.6-.95c.8-1.48,1.94-3.91,2.77-6.08l1.41,.99Zm-.49-7.62c-.7-.55-2.11-1.44-3.12-2.09l1.04-1.24c.97,.55,2.41,1.39,3.15,1.92l-1.08,1.41Zm3.36,2.62c0,3.31-.34,8.11-2.56,11.25-.3-.28-1.06-.74-1.48-.93,2.13-2.96,2.32-7.24,2.32-10.32v-5.19h11.63v1.6h-9.9v3.59Zm3,6.35c-.61,1.37-1.52,2.91-2.3,3.86-.32-.23-1.01-.65-1.41-.86,.82-.89,1.63-2.22,2.13-3.44l1.58,.44Zm2.79-1.37v4.58c0,.8-.13,1.24-.7,1.46-.55,.27-1.39,.29-2.62,.27-.06-.44-.28-1.08-.46-1.52,.8,.04,1.58,.02,1.8,.02s.3-.08,.3-.29v-4.52h-3.21v-6.65h2.72c.19-.59,.4-1.29,.51-1.8l1.98,.36c-.25,.51-.51,.99-.74,1.44h3.89v6.65h-3.48Zm-3.31-3.95h5.13v-1.37h-5.13v1.37Zm0,2.64h5.13v-1.39h-5.13v1.39Zm5.78,2.07c.7,1.14,1.6,2.68,2.01,3.61l-1.62,.7c-.4-.95-1.23-2.55-1.92-3.74l1.52-.57Z"/><path class="m" d="M276.45,160.71c-.38,.7-.84,1.44-1.35,2.15v10.58h-1.6v-8.57c-.49,.57-1.01,1.08-1.48,1.52-.13-.38-.61-1.27-.87-1.71,1.39-1.14,2.85-2.87,3.78-4.58l1.52,.61Zm-.38-4.12c-.97,1.58-2.47,3.32-3.86,4.43-.19-.34-.63-1.03-.91-1.33,1.2-.95,2.51-2.47,3.17-3.69l1.6,.59Zm8.51,5.26v1.8h3.17v9.75h-1.71v-.82h-4.62v.82h-1.65v-9.75h3.1v-1.8h-3.7v1.8c0,3.15-.23,6.99-1.96,9.78-.3-.25-.91-.61-1.33-.78,1.56-2.58,1.75-6.21,1.75-9v-6.14c3.15-.29,6.84-.76,9-1.29l1.35,1.25c-2.43,.57-5.81,.99-8.81,1.24v1.71h3.7v-1.79h1.71v1.79h4.1v1.42h-4.1Zm1.46,3.19h-4.62v1.25h4.62v-1.25Zm0,2.47h-4.62v1.22h4.62v-1.22Zm0,3.72v-1.29h-4.62v1.29h4.62Z"/><path class="m" d="M307.44,169.07c-.78,.44-1.67,.91-2.45,1.27,.82,.72,1.82,1.23,2.96,1.56-.34,.3-.82,.93-1.03,1.35-2.58-.85-4.31-2.72-5.28-5.21-.59,.53-1.33,1.06-2.09,1.5v1.94l2.93-.63c-.04,.38-.04,.99,0,1.29-3.55,.85-4.1,1.04-4.45,1.25v-.02c-.11-.34-.36-.95-.59-1.23,.27-.13,.68-.46,.68-1.22v-.63c-.61,.29-1.25,.55-1.84,.74-.19-.32-.53-.78-.84-1.08-1.73,.53-3.48,1.04-4.92,1.44l-.34-1.61c.61-.13,1.29-.32,2.05-.53v-5.03h-1.65v-1.54h1.65v-3.91h-1.81v-1.58h5.07v1.58h-1.73v3.91h1.52v1.54h-1.52v4.62c.53-.15,1.08-.32,1.62-.47l.19,1.37c1.46-.4,3.08-1.08,4.29-1.88h-2.56v-4.01h9.14v4.01h-3.32c.25,.57,.59,1.1,.99,1.58,.76-.44,1.61-1.01,2.15-1.42l1.18,1.06Zm.11-6.1h-11.42v-1.41h11.42v1.41Zm-.61-2.22h-10.07v-4.1h10.07v4.1Zm-7.1-2.85h-1.52v1.62h1.52v-1.62Zm-.95,8.68h5.89v-1.46h-5.89v1.46Zm3.72-8.68h-1.56v1.62h1.56v-1.62Zm2.81,0h-1.62v1.62h1.62v-1.62Z"/></g></g></g><g id="f"/><g id="g"/><g id="h"/></svg>