<?xml version="1.0" encoding="UTF-8"?><svg xmlns="http://www.w3.org/2000/svg" viewBox="0 0 500 420"><defs><style>.j{fill:#689d47;}.k{fill:#8ab000;}.l{fill:#8ab21d;}.m{fill:#9cbd77;}.n{fill:#84b600;}.o{fill:#a4d200;}.p{fill:#709a00;}.q{fill:#544238;}.r{fill:#634e42;}.s{fill:#290f00;}.t{fill:#7aa900;}</style></defs><g id="a"/><g id="b"/><g id="c"/><g id="d"/><g id="e"><g><g><path class="j" d="M497.7,250.95v-8.68l-1.97-.11c-2.42-5.12-7.06-10.02-14.01-14.04l-199.59-111.95c-21.21-12.25-55.49-12.25-76.54-.02L18.03,228.03c-6.87,3.99-11.45,8.8-13.82,13.88l-1.91,.02,.04,6.94h-.04l.05,12.21c-.01,.46-.01,.44,0,.9v.28h.07c.63,9.26,5.88,15.44,15.85,21.2l199.59,112.16c21.22,12.25,55.51,12.36,76.57,.13l187.56-111.57c10.44-6.07,15.66-14.71,15.7-21.65h.02v-11.57h0Z"/><path class="m" d="M481.72,217.2l-199.59-111.92c-21.21-12.25-55.49-12.24-76.54,0L18.03,217.16c-21.05,12.24-20.97,32.09,.25,44.34l199.59,111.92c21.22,12.25,55.51,12.25,76.57,.01l187.56-111.88c21.05-12.24,20.94-32.1-.27-44.35h0Z"/></g><g><g><g><polygon class="r" points="234.77 180.66 226.05 180.66 227.96 150.8 232.86 150.8 234.77 180.66"/><path class="r" d="M233.48,178.88c1.7,.98,1.7,2.58,0,3.56-1.7,.98-4.46,.98-6.16,0-1.7-.98-1.7-2.58,0-3.56,1.7-.98,4.46-.98,6.16,0Z"/></g><path class="k" d="M206.74,129.28c1.26,14.69,11.48,25.86,23.66,25.86s22.4-11.16,23.66-25.86h-47.32Z"/><path class="o" d="M239.48,116.55c19.53,5.09,19.53,20.36,0,25.45-5.93,1.55-12.23,1.55-18.16,0-19.53-5.09-19.53-20.36,0-25.45,5.93-1.55,12.23-1.55,18.16,0Z"/><path class="o" d="M206.74,127.85c1.26-14.84,11.48-26.12,23.66-26.12s22.4,11.28,23.66,26.12h-47.32Z"/></g><g><g><polygon class="r" points="104.51 277.05 95.8 277.05 97.7 247.19 102.6 247.19 104.51 277.05"/><path class="r" d="M103.22,275.27c1.7,.98,1.7,2.58,0,3.56-1.7,.98-4.46,.98-6.16,0-1.7-.98-1.7-2.58,0-3.56,1.7-.98,4.46-.98,6.16,0Z"/></g><path class="k" d="M76.49,225.67c1.26,14.69,11.48,25.86,23.66,25.86s22.4-11.16,23.66-25.86h-47.32Z"/><path class="o" d="M109.23,212.94c19.53,5.09,19.53,20.36,0,25.45-5.93,1.55-12.23,1.55-18.16,0-19.53-5.09-19.53-20.36,0-25.45,5.93-1.55,12.23-1.55,18.16,0Z"/><path class="o" d="M76.49,224.24c1.26-14.84,11.48-26.12,23.66-26.12s22.4,11.28,23.66,26.12h-47.32Z"/></g><g><g><polygon class="r" points="327.29 164.14 318.57 164.14 320.48 134.27 325.38 134.27 327.29 164.14"/><path class="r" d="M326,162.36c1.7,.98,1.7,2.58,0,3.56-1.7,.98-4.46,.98-6.16,0-1.7-.98-1.7-2.58,0-3.56,1.7-.98,4.46-.98,6.16,0Z"/></g><path class="k" d="M299.26,112.75c1.26,14.69,11.48,25.86,23.66,25.86s22.4-11.16,23.66-25.86h-47.32Z"/><path class="o" d="M332,100.03c19.53,5.09,19.53,20.36,0,25.45-5.93,1.55-12.23,1.55-18.16,0-19.53-5.09-19.53-20.36,0-25.45,5.93-1.55,12.23-1.55,18.16,0Z"/><path class="o" d="M299.26,111.33c1.26-14.84,11.48-26.12,23.66-26.12s22.4,11.28,23.66,26.12h-47.32Z"/></g><g><g><polygon class="s" points="187.76 240.52 177.55 240.52 179.79 205.55 185.52 205.55 187.76 240.52"/><path class="s" d="M186.25,238.43c1.99,1.15,1.99,3.02,0,4.17-1.99,1.15-5.22,1.15-7.21,0-1.99-1.15-1.99-3.02,0-4.17,1.99-1.15,5.22-1.15,7.21,0Z"/></g><g><path class="p" d="M197.14,222.3c-2.92,1.68-6.56,2.75-10.34,3.21-2.75,.32-5.56,.32-8.27,0-3.78-.46-7.42-1.53-10.38-3.21-5.31-3.07-7.1-7.42-5.35-11.34,0-.04,0-.07,.07-.14l.04-.07c0-.11,.07-.25,.14-.36h.04l.53-.93c1-1.43,2.5-2.78,4.53-3.92,1.21-.68,2.5-1.28,3.89-1.75,6.49-2.28,14.69-2.32,21.18-.04h.04c1.39,.5,2.71,1.11,3.89,1.78,1.89,1.07,3.35,2.35,4.35,3.71v.04l.14,.18c3.03,4.24,1.53,9.34-4.49,12.84Z"/><path class="p" d="M202.24,210.57h-1.6l-14.8,.18-6.38,.04-10.77,.11h-.04l-2.6,.04-1.57,.04h-1.71l.11-.14,.04-.07,.18-.36,.53-.93,4.49-7.85,.68-1.21,4.64-8.06,.82-1.43,3.46-6.06,.68-1.14,2.39-4.21,1.93-3.35,1.75,3.07,2.53,4.46,.68,1.18,4.14,7.31,.78,1.39,3.39,5.96,1.21,2.14,4.31,7.6v.04l.14,.18,.61,1.11Z"/></g><g><path class="t" d="M198.57,200.44c-.43,.46-.89,.86-1.39,1.21-.46,.36-.93,.68-1.46,.96-.78,.43-1.6,.82-2.46,1.14h-.04c-2.35,1-4.99,1.6-7.7,1.85-1.93,.18-3.85,.18-5.74,0-2.75-.25-5.38-.86-7.74-1.82-.86-.36-1.68-.75-2.42-1.18-.54-.32-1.03-.64-1.5-1-.32-.21-.61-.43-.86-.68-2.92-2.53-3.74-5.63-2.5-8.49h.04c0-.07,0-.11,.04-.14l.04-.04,.68-1.21,.04-.04v-.04c.07-.04,.11-.07,.14-.14,.89-1.18,2.18-2.32,3.89-3.28,2.32-1.36,5.13-2.25,8.09-2.71,3.24-.54,6.7-.54,9.95,0,2.92,.46,5.71,1.39,8.06,2.71,1.6,.93,2.85,1.96,3.71,3.07,.07,.07,.11,.11,.14,.18,2.35,3.1,2.03,6.7-1,9.63Z"/><path class="t" d="M200.28,192.06l-1.78,.04-6.7,.07h-2.03l-7.13,.07-7.24,.11h-1.96l-8.63,.11h-.04l.07-.14,.04-.04,.68-1.21,.04-.04v-.04l.11-.14,5.71-9.98,1-1.75,3.03-5.28,3.28-5.71,3.99-6.99,3.96,6.99h.04l3.17,5.6,3.6,6.31,.43,.78,5.56,9.77,.11,.21,.71,1.25Z"/></g><g><path class="n" d="M194.43,180.44h-.04c-.18,.14-.32,.29-.5,.39-.39,.32-.82,.61-1.28,.89-1.64,.93-3.57,1.6-5.63,1.96-2.78,.53-5.81,.53-8.59,.04-2.1-.39-4.07-1.07-5.71-2-.46-.28-.89-.57-1.28-.86-.96-.71-1.68-1.53-2.1-2.35-.89-1.5-1-3.1-.29-4.6t.04-.07l.25-.5c.68-1.14,1.78-2.21,3.39-3.14,1.75-1,3.82-1.71,6.03-2.07,2.6-.46,5.35-.46,7.95,0h.04c2.18,.39,4.21,1.07,5.92,2.07,1.39,.82,2.39,1.71,3.1,2.71l.04,.04,.39,.71h-.07c1.18,2.25,.71,4.74-1.64,6.78Z"/><polygon class="n" points="196.14 173.66 189.86 173.73 187.33 173.73 183.34 173.77 175.42 173.84 169 173.91 168.97 173.91 169.08 173.77 169.29 173.34 171.68 169.2 182.7 149.98 193.5 169.03 195.71 172.91 195.75 172.95 196.14 173.66"/></g></g><g><g><polygon class="s" points="310.66 356.22 300.45 356.22 302.68 321.25 308.42 321.25 310.66 356.22"/><path class="s" d="M309.15,354.14c1.99,1.15,1.99,3.02,0,4.17-1.99,1.15-5.22,1.15-7.22,0-1.99-1.15-1.99-3.02,0-4.17,1.99-1.15,5.22-1.15,7.22,0Z"/></g><g><path class="p" d="M320.04,338c-2.92,1.68-6.56,2.75-10.34,3.21-2.75,.32-5.56,.32-8.27,0-3.78-.46-7.42-1.53-10.38-3.21-5.31-3.07-7.1-7.42-5.35-11.34,0-.04,0-.07,.07-.14l.04-.07c0-.11,.07-.25,.14-.36h.04l.53-.93c1-1.43,2.5-2.78,4.53-3.92,1.21-.68,2.5-1.28,3.89-1.75,6.49-2.28,14.69-2.32,21.18-.04h.04c1.39,.5,2.71,1.11,3.89,1.78,1.89,1.07,3.35,2.35,4.35,3.71v.04l.14,.18c3.03,4.24,1.53,9.34-4.49,12.84Z"/><path class="p" d="M325.14,326.27h-1.6l-14.8,.18-6.38,.04-10.77,.11h-.04l-2.6,.04-1.57,.04h-1.71l.11-.14,.04-.07,.18-.36,.53-.93,4.49-7.85,.68-1.21,4.64-8.06,.82-1.43,3.46-6.06,.68-1.14,2.39-4.21,1.93-3.35,1.75,3.07,2.53,4.46,.68,1.18,4.14,7.31,.78,1.39,3.39,5.96,1.21,2.14,4.31,7.6v.04l.14,.18,.61,1.11Z"/></g><g><path class="t" d="M321.46,316.15c-.43,.46-.89,.86-1.39,1.21-.46,.36-.93,.68-1.46,.96-.78,.43-1.6,.82-2.46,1.14h-.04c-2.35,1-4.99,1.6-7.7,1.85-1.93,.18-3.85,.18-5.74,0-2.75-.25-5.38-.86-7.74-1.82-.86-.36-1.68-.75-2.42-1.18-.53-.32-1.03-.64-1.5-1-.32-.21-.61-.43-.86-.68-2.92-2.53-3.74-5.63-2.5-8.49h.04c0-.07,0-.11,.04-.14l.04-.04,.68-1.21,.04-.04v-.04c.07-.04,.11-.07,.14-.14,.89-1.18,2.18-2.32,3.89-3.28,2.32-1.36,5.13-2.25,8.09-2.71,3.25-.54,6.7-.54,9.95,0,2.92,.46,5.71,1.39,8.06,2.71,1.6,.93,2.85,1.96,3.71,3.07,.07,.07,.11,.11,.14,.18,2.35,3.1,2.03,6.7-1,9.63Z"/><path class="t" d="M323.17,307.77l-1.78,.04-6.7,.07h-2.03l-7.13,.07-7.24,.11h-1.96l-8.63,.11h-.04l.07-.14,.04-.04,.68-1.21,.04-.04v-.04l.11-.14,5.71-9.98,1-1.75,3.03-5.28,3.28-5.71,3.99-6.99,3.96,6.99h.04l3.17,5.6,3.6,6.31,.43,.78,5.56,9.77,.11,.21,.71,1.25Z"/></g><g><path class="n" d="M317.33,296.14h-.04c-.18,.14-.32,.29-.5,.39-.39,.32-.82,.61-1.28,.89-1.64,.93-3.57,1.6-5.63,1.96-2.78,.53-5.81,.53-8.59,.04-2.1-.39-4.07-1.07-5.71-2-.46-.28-.89-.57-1.28-.86-.96-.71-1.68-1.53-2.1-2.35-.89-1.5-1-3.1-.28-4.6t.04-.07l.25-.5c.68-1.14,1.78-2.21,3.39-3.14,1.75-1,3.82-1.71,6.03-2.07,2.6-.46,5.35-.46,7.95,0h.04c2.18,.39,4.21,1.07,5.92,2.07,1.39,.82,2.39,1.71,3.1,2.71l.04,.04,.39,.71h-.07c1.18,2.25,.71,4.74-1.64,6.78Z"/><polygon class="n" points="319.04 289.36 312.76 289.44 310.23 289.44 306.24 289.47 298.32 289.54 291.9 289.61 291.86 289.61 291.97 289.47 292.19 289.04 294.57 284.91 305.59 265.69 316.4 284.73 318.61 288.62 318.65 288.65 319.04 289.36"/></g></g><g><g><polygon class="s" points="370.95 224.36 360.75 224.36 362.98 189.39 368.72 189.39 370.95 224.36"/><path class="s" d="M369.44,222.28c1.99,1.15,1.99,3.01,0,4.17-1.99,1.15-5.22,1.15-7.21,0-1.99-1.15-1.99-3.02,0-4.17,1.99-1.15,5.22-1.15,7.21,0Z"/></g><g><path class="p" d="M380.33,206.15c-2.92,1.68-6.56,2.75-10.34,3.21-2.75,.32-5.56,.32-8.27,0-3.78-.46-7.42-1.53-10.38-3.21-5.31-3.07-7.1-7.42-5.35-11.34,0-.04,0-.07,.07-.14l.04-.07c0-.11,.07-.25,.14-.36h.04l.53-.93c1-1.43,2.5-2.78,4.53-3.92,1.21-.68,2.5-1.28,3.89-1.75,6.49-2.28,14.69-2.32,21.18-.04h.04c1.39,.5,2.71,1.11,3.89,1.78,1.89,1.07,3.35,2.35,4.35,3.71v.04l.14,.18c3.03,4.24,1.53,9.34-4.49,12.84Z"/><path class="p" d="M385.43,194.42h-1.6l-14.8,.18-6.38,.04-10.77,.11h-.04l-2.6,.04-1.57,.04h-1.71l.11-.14,.04-.07,.18-.36,.53-.93,4.49-7.85,.68-1.21,4.64-8.06,.82-1.43,3.46-6.06,.68-1.14,2.39-4.21,1.93-3.35,1.75,3.07,2.53,4.46,.68,1.18,4.14,7.31,.78,1.39,3.39,5.96,1.21,2.14,4.31,7.6v.04l.14,.18,.61,1.11Z"/></g><g><path class="t" d="M381.76,184.29c-.43,.46-.89,.86-1.39,1.21-.46,.36-.93,.68-1.46,.96-.78,.43-1.6,.82-2.46,1.14h-.04c-2.35,1-4.99,1.6-7.7,1.85-1.93,.18-3.85,.18-5.74,0-2.75-.25-5.39-.86-7.74-1.82-.86-.36-1.68-.75-2.42-1.18-.54-.32-1.03-.64-1.5-1-.32-.21-.61-.43-.86-.68-2.92-2.53-3.74-5.63-2.5-8.49h.04c0-.07,0-.11,.04-.14l.04-.04,.68-1.21,.04-.04v-.04c.07-.04,.11-.07,.14-.14,.89-1.18,2.18-2.32,3.89-3.28,2.32-1.36,5.13-2.25,8.09-2.71,3.24-.54,6.7-.54,9.95,0,2.92,.46,5.71,1.39,8.06,2.71,1.6,.93,2.85,1.96,3.71,3.07,.07,.07,.11,.11,.14,.18,2.35,3.1,2.03,6.7-1,9.63Z"/><path class="t" d="M383.47,175.91l-1.78,.04-6.7,.07h-2.03l-7.13,.07-7.24,.11h-1.96l-8.63,.11h-.04l.07-.14,.04-.04,.68-1.21,.04-.04v-.04l.11-.14,5.71-9.98,1-1.75,3.03-5.28,3.28-5.71,3.99-6.99,3.96,6.99h.04l3.17,5.6,3.6,6.31,.43,.78,5.56,9.77,.11,.21,.71,1.25Z"/></g><g><path class="n" d="M377.62,164.28h-.04c-.18,.14-.32,.29-.5,.39-.39,.32-.82,.61-1.28,.89-1.64,.93-3.57,1.6-5.63,1.96-2.78,.53-5.81,.53-8.59,.04-2.1-.39-4.07-1.07-5.71-2-.46-.29-.89-.57-1.28-.86-.96-.71-1.68-1.53-2.1-2.35-.89-1.5-1-3.1-.29-4.6t.04-.07l.25-.5c.68-1.14,1.78-2.21,3.39-3.14,1.75-1,3.82-1.71,6.03-2.07,2.6-.46,5.35-.46,7.95,0h.04c2.18,.39,4.21,1.07,5.92,2.07,1.39,.82,2.39,1.71,3.1,2.71l.04,.04,.39,.71h-.07c1.18,2.25,.71,4.74-1.64,6.78Z"/><polygon class="n" points="379.33 157.51 373.06 157.58 370.53 157.58 366.53 157.62 358.61 157.69 352.2 157.76 352.16 157.76 352.27 157.62 352.48 157.19 354.87 153.05 365.89 133.83 376.69 152.87 378.91 156.76 378.94 156.8 379.33 157.51"/></g></g><g><g><polygon class="s" points="145.05 173.81 134.84 173.81 137.08 138.84 142.81 138.84 145.05 173.81"/><path class="s" d="M143.54,171.73c1.99,1.15,1.99,3.02,0,4.17s-5.22,1.15-7.21,0c-1.99-1.15-1.99-3.02,0-4.17,1.99-1.15,5.22-1.15,7.21,0Z"/></g><g><path class="p" d="M154.43,155.6c-2.92,1.68-6.56,2.75-10.34,3.21-2.75,.32-5.56,.32-8.27,0-3.78-.46-7.42-1.53-10.38-3.21-5.31-3.07-7.1-7.42-5.35-11.34,0-.04,0-.07,.07-.14l.04-.07c0-.11,.07-.25,.14-.36h.04l.54-.93c1-1.43,2.5-2.78,4.53-3.92,1.21-.68,2.5-1.28,3.89-1.75,6.49-2.28,14.69-2.32,21.18-.04h.04c1.39,.5,2.71,1.11,3.89,1.78,1.89,1.07,3.35,2.35,4.35,3.71v.04l.14,.18c3.03,4.24,1.53,9.34-4.49,12.84Z"/><path class="p" d="M159.53,143.87h-1.6l-14.8,.18-6.38,.04-10.77,.11h-.04l-2.6,.04-1.57,.04h-1.71l.11-.14,.04-.07,.18-.36,.54-.93,4.49-7.85,.68-1.21,4.64-8.06,.82-1.43,3.46-6.06,.68-1.14,2.39-4.21,1.93-3.35,1.75,3.07,2.53,4.46,.68,1.18,4.14,7.31,.78,1.39,3.39,5.96,1.21,2.14,4.31,7.6v.04l.14,.18,.61,1.11Z"/></g><g><path class="t" d="M155.85,133.74c-.43,.46-.89,.86-1.39,1.21-.46,.36-.93,.68-1.46,.96-.78,.43-1.6,.82-2.46,1.14h-.04c-2.35,1-4.99,1.6-7.7,1.85-1.93,.18-3.85,.18-5.74,0-2.75-.25-5.38-.86-7.74-1.82-.86-.36-1.68-.75-2.42-1.18-.53-.32-1.03-.64-1.5-1-.32-.21-.61-.43-.86-.68-2.92-2.53-3.74-5.63-2.5-8.49h.04c0-.07,0-.11,.04-.14l.04-.04,.68-1.21,.04-.04v-.04c.07-.04,.11-.07,.14-.14,.89-1.18,2.18-2.32,3.89-3.28,2.32-1.36,5.14-2.25,8.09-2.71,3.25-.53,6.7-.53,9.95,0,2.92,.46,5.71,1.39,8.06,2.71,1.6,.93,2.85,1.96,3.71,3.07,.07,.07,.11,.11,.14,.18,2.35,3.1,2.03,6.7-1,9.63Z"/><path class="t" d="M157.56,125.36l-1.78,.04-6.7,.07h-2.03l-7.13,.07-7.24,.11h-1.96l-8.63,.11h-.04l.07-.14,.04-.04,.68-1.21,.04-.04v-.04l.11-.14,5.71-9.98,1-1.75,3.03-5.28,3.28-5.71,3.99-6.99,3.96,6.99h.04l3.17,5.6,3.6,6.31,.43,.78,5.56,9.77,.11,.21,.71,1.25Z"/></g><g><path class="n" d="M151.72,113.73h-.04c-.18,.14-.32,.29-.5,.39-.39,.32-.82,.61-1.28,.89-1.64,.93-3.57,1.6-5.63,1.96-2.78,.54-5.81,.54-8.59,.04-2.1-.39-4.07-1.07-5.71-2-.46-.28-.89-.57-1.28-.86-.96-.71-1.68-1.53-2.1-2.35-.89-1.5-1-3.1-.29-4.6t.04-.07l.25-.5c.68-1.14,1.78-2.21,3.39-3.14,1.75-1,3.82-1.71,6.03-2.07,2.6-.46,5.35-.46,7.95,0h.04c2.18,.39,4.21,1.07,5.92,2.07,1.39,.82,2.39,1.71,3.1,2.71l.04,.04,.39,.71h-.07c1.18,2.25,.71,4.74-1.64,6.77Z"/><polygon class="n" points="153.43 106.96 147.15 107.03 144.62 107.03 140.63 107.07 132.71 107.14 126.29 107.21 126.26 107.21 126.36 107.07 126.58 106.64 128.97 102.5 139.98 83.28 150.79 102.32 153 106.21 153.04 106.25 153.43 106.96"/></g></g><g><g><polygon class="q" points="40.26 251.95 29.64 251.95 31.96 215.56 37.93 215.56 40.26 251.95"/><path class="q" d="M38.69,249.78c2.07,1.2,2.07,3.14,0,4.33-2.07,1.2-5.43,1.2-7.51,0-2.07-1.2-2.07-3.14,0-4.33,2.07-1.2,5.43-1.2,7.51,0Z"/></g><path class="l" d="M17.67,195.49c.25,9.37,7.91,24.27,17.28,24.27s17.03-14.91,17.28-24.27H17.67Z"/><path class="o" d="M47.22,189.25c6.76,3.9,6.76,10.23,0,14.13-6.76,3.9-17.72,3.9-24.48,0-6.76-3.9-6.76-10.23,0-14.13,6.76-3.9,17.72-3.9,24.48,0Z"/><path class="o" d="M17.67,195.49c.25-9.37,7.91-40.09,17.28-40.09s17.03,30.72,17.28,40.09H17.67Z"/></g><g><g><polygon class="q" points="176.77 333.83 166.15 333.83 168.47 297.44 174.44 297.44 176.77 333.83"/><path class="q" d="M175.2,331.66c2.07,1.2,2.07,3.14,0,4.33-2.07,1.2-5.43,1.2-7.51,0-2.07-1.2-2.07-3.14,0-4.33,2.07-1.2,5.43-1.2,7.51,0Z"/></g><path class="l" d="M154.18,277.37c.25,9.37,7.91,24.27,17.28,24.27s17.03-14.91,17.28-24.27h-34.56Z"/><path class="o" d="M183.73,271.13c6.76,3.9,6.76,10.23,0,14.13-6.76,3.9-17.72,3.9-24.48,0-6.76-3.9-6.76-10.23,0-14.13,6.76-3.9,17.72-3.9,24.48,0Z"/><path class="o" d="M154.18,277.37c.25-9.37,7.91-40.09,17.28-40.09s17.03,30.72,17.28,40.09h-34.56Z"/></g><g><g><polygon class="q" points="369.45 325.65 358.83 325.65 361.15 289.26 367.12 289.26 369.45 325.65"/><path class="q" d="M367.87,323.48c2.07,1.2,2.07,3.14,0,4.33-2.07,1.2-5.43,1.2-7.51,0-2.07-1.2-2.07-3.14,0-4.33,2.07-1.2,5.43-1.2,7.51,0Z"/></g><path class="l" d="M346.86,269.19c.25,9.37,7.91,24.27,17.28,24.27s17.03-14.91,17.28-24.27h-34.56Z"/><path class="o" d="M376.41,262.95c6.76,3.9,6.76,10.23,0,14.13-6.76,3.9-17.72,3.9-24.48,0-6.76-3.9-6.76-10.23,0-14.13,6.76-3.9,17.72-3.9,24.48,0Z"/><path class="o" d="M346.86,269.19c.25-9.37,7.91-40.09,17.28-40.09s17.03,30.72,17.28,40.09h-34.56Z"/></g><g><g><polygon class="q" points="286.59 244.65 275.97 244.65 278.3 208.26 284.27 208.26 286.59 244.65"/><path class="q" d="M285.02,242.48c2.07,1.2,2.07,3.14,0,4.33s-5.43,1.2-7.51,0c-2.07-1.2-2.07-3.14,0-4.33,2.07-1.2,5.43-1.2,7.51,0Z"/></g><path class="l" d="M264.01,188.19c.25,9.37,7.91,24.27,17.28,24.27s17.03-14.91,17.28-24.27h-34.56Z"/><path class="o" d="M293.56,181.95c6.76,3.9,6.76,10.23,0,14.13-6.76,3.9-17.72,3.9-24.48,0s-6.76-10.23,0-14.13c6.76-3.9,17.72-3.9,24.48,0Z"/><path class="o" d="M264.01,188.19c.25-9.37,7.91-40.09,17.28-40.09s17.03,30.72,17.28,40.09h-34.56Z"/></g><g><g><polygon class="q" points="237.91 309.3 227.29 309.3 229.61 272.91 235.58 272.91 237.91 309.3"/><path class="q" d="M236.34,307.13c2.07,1.2,2.07,3.14,0,4.33-2.07,1.2-5.43,1.2-7.51,0-2.07-1.2-2.07-3.14,0-4.33,2.07-1.2,5.43-1.2,7.51,0Z"/></g><path class="l" d="M215.32,252.84c.25,9.37,7.91,24.27,17.28,24.27s17.03-14.91,17.28-24.27h-34.56Z"/><path class="o" d="M244.87,246.6c6.76,3.9,6.76,10.23,0,14.13-6.76,3.9-17.72,3.9-24.48,0-6.76-3.9-6.76-10.23,0-14.13,6.76-3.9,17.72-3.9,24.48,0Z"/><path class="o" d="M215.32,252.84c.25-9.37,7.91-40.09,17.28-40.09s17.03,30.72,17.28,40.09h-34.56Z"/></g><g><g><polygon class="r" points="444.94 268.8 436.22 268.8 438.13 238.93 443.03 238.93 444.94 268.8"/><path class="r" d="M443.65,267.02c1.7,.98,1.7,2.58,0,3.56-1.7,.98-4.46,.98-6.16,0-1.7-.98-1.7-2.58,0-3.56,1.7-.98,4.46-.98,6.16,0Z"/></g><path class="k" d="M416.91,217.42c1.26,14.7,11.48,25.86,23.66,25.86s22.4-11.16,23.66-25.86h-47.32Z"/><path class="o" d="M449.65,204.69c19.53,5.09,19.53,20.36,0,25.45-5.93,1.55-12.23,1.55-18.16,0-19.53-5.09-19.53-20.36,0-25.45,5.93-1.55,12.23-1.55,18.16,0Z"/><path class="o" d="M416.91,215.99c1.26-14.84,11.48-26.12,23.66-26.12s22.4,11.28,23.66,26.12h-47.32Z"/></g><g><g><polygon class="s" points="257.6 104.67 247.39 104.67 249.62 69.7 255.36 69.7 257.6 104.67"/><path class="s" d="M256.09,102.59c1.99,1.15,1.99,3.02,0,4.17-1.99,1.15-5.22,1.15-7.22,0-1.99-1.15-1.99-3.02,0-4.17,1.99-1.15,5.22-1.15,7.22,0Z"/></g><g><path class="p" d="M266.98,86.45c-2.92,1.68-6.56,2.75-10.34,3.21-2.75,.32-5.56,.32-8.27,0-3.78-.46-7.42-1.53-10.38-3.21-5.31-3.07-7.1-7.42-5.35-11.34,0-.04,0-.07,.07-.14l.04-.07c0-.11,.07-.25,.14-.36h.04l.54-.93c1-1.43,2.5-2.78,4.53-3.92,1.21-.68,2.5-1.28,3.89-1.75,6.49-2.28,14.69-2.32,21.18-.04h.04c1.39,.5,2.71,1.11,3.89,1.78,1.89,1.07,3.35,2.35,4.35,3.71v.04l.14,.18c3.03,4.24,1.53,9.34-4.49,12.84Z"/><path class="p" d="M272.07,74.72h-1.6l-14.8,.18-6.38,.04-10.77,.11h-.04l-2.6,.04-1.57,.04h-1.71l.11-.14,.04-.07,.18-.36,.54-.93,4.49-7.85,.68-1.21,4.64-8.06,.82-1.43,3.46-6.06,.68-1.14,2.39-4.21,1.93-3.35,1.75,3.07,2.53,4.46,.68,1.18,4.14,7.31,.78,1.39,3.39,5.96,1.21,2.14,4.31,7.6v.04l.14,.18,.61,1.11Z"/></g><g><path class="t" d="M268.4,64.59c-.43,.46-.89,.86-1.39,1.21-.46,.36-.93,.68-1.46,.96-.78,.43-1.6,.82-2.46,1.14h-.04c-2.35,1-4.99,1.6-7.7,1.85-1.93,.18-3.85,.18-5.74,0-2.75-.25-5.38-.86-7.74-1.82-.86-.36-1.68-.75-2.42-1.18-.53-.32-1.03-.64-1.5-1-.32-.21-.61-.43-.86-.68-2.92-2.53-3.74-5.63-2.5-8.49h.04c0-.07,0-.11,.04-.14l.04-.04,.68-1.21,.04-.04v-.04c.07-.04,.11-.07,.14-.14,.89-1.18,2.18-2.32,3.89-3.28,2.32-1.36,5.13-2.25,8.09-2.71,3.25-.54,6.7-.54,9.95,0,2.92,.46,5.71,1.39,8.06,2.71,1.6,.93,2.85,1.96,3.71,3.07,.07,.07,.11,.11,.14,.18,2.35,3.1,2.03,6.7-1,9.63Z"/><path class="t" d="M270.11,56.21l-1.78,.04-6.7,.07h-2.03l-7.13,.07-7.24,.11h-1.96l-8.63,.11h-.04l.07-.14,.04-.04,.68-1.21,.04-.04v-.04l.11-.14,5.71-9.98,1-1.75,3.03-5.28,3.28-5.71,3.99-6.99,3.96,6.99h.04l3.17,5.6,3.6,6.31,.43,.78,5.56,9.77,.11,.21,.71,1.25Z"/></g><g><path class="n" d="M264.27,44.59h-.04c-.18,.14-.32,.29-.5,.39-.39,.32-.82,.61-1.28,.89-1.64,.93-3.57,1.6-5.63,1.96-2.78,.53-5.81,.53-8.59,.04-2.1-.39-4.07-1.07-5.71-2-.46-.28-.89-.57-1.28-.86-.96-.71-1.68-1.53-2.1-2.35-.89-1.5-1-3.1-.29-4.6t.04-.07l.25-.5c.68-1.14,1.78-2.21,3.39-3.14,1.75-1,3.82-1.71,6.03-2.07,2.6-.46,5.35-.46,7.95,0h.04c2.18,.39,4.21,1.07,5.92,2.07,1.39,.82,2.39,1.71,3.1,2.71l.04,.04,.39,.71h-.07c1.18,2.25,.71,4.74-1.64,6.78Z"/><polygon class="n" points="265.98 37.81 259.7 37.88 257.17 37.88 253.18 37.92 245.26 37.99 238.84 38.06 238.8 38.06 238.91 37.92 239.13 37.49 241.51 33.36 252.53 14.13 263.34 33.18 265.55 37.06 265.58 37.1 265.98 37.81"/></g></g><g><g><polygon class="r" points="250.35 378.21 241.63 378.21 243.54 348.34 248.44 348.34 250.35 378.21"/><path class="r" d="M249.06,376.43c1.7,.98,1.7,2.58,0,3.56-1.7,.98-4.46,.98-6.16,0-1.7-.98-1.7-2.58,0-3.56,1.7-.98,4.46-.98,6.16,0Z"/></g><path class="k" d="M222.32,326.82c1.26,14.69,11.48,25.86,23.66,25.86s22.4-11.16,23.66-25.86h-47.32Z"/><path class="o" d="M255.06,314.1c19.53,5.09,19.53,20.36,0,25.45-5.93,1.55-12.23,1.55-18.16,0-19.53-5.09-19.53-20.36,0-25.45,5.93-1.55,12.23-1.55,18.16,0Z"/><path class="o" d="M222.32,325.4c1.26-14.84,11.48-26.12,23.66-26.12s22.4,11.28,23.66,26.12h-47.32Z"/></g></g></g></g><g id="f"/><g id="g"/><g id="h"/><g id="i"/></svg>