<?xml version="1.0" encoding="UTF-8"?><svg xmlns="http://www.w3.org/2000/svg" xmlns:xlink="http://www.w3.org/1999/xlink" viewBox="0 0 500 513"><defs><style>.dv{fill:url(#ai);}.dw{fill:url(#ao);}.dx{fill:url(#aq);}.dy{fill:url(#ar);}.e`{fill:url(#al);}.ea{fill:url(#aw);}.eb{fill:url(#am);}.ec{fill:url(#at);}.ed{fill:url(#ay);}.ee{fill:url(#av);}.ef{fill:url(#a);}.eg{fill:url(#bf);}.eh{fill:url(#bd);}.ei{fill:url(#ba);}.ej{fill:url(#bb);}.ek{fill:url(#bi);}.el{fill:url(#bp);}.em{fill:url(#bk);}.en{fill:url(#bt);}.eo{fill:url(#br);}.ep,.eq,.er{fill:none;}.es{fill:#f7d0a4;}.et{fill:#689d47;}.eu{fill:#ecbf94;}.ev{fill:#ebaec1;}.ew{fill:#f4efe5;}.ex{fill:#f5e0c4;}.ey{fill:#e3e4e6;}.f`{fill:#ebd6c3;}.fa{fill:#e3ccad;}.fb,.fc{fill:#fff;}.fd{fill:#faf7eb;}.fe{fill:#ecf0f1;}.ff{fill:#eff0f2;}.fg{fill:#93602a;}.fh{fill:#939b45;}.fi{fill:#b8b4b3;}.fj{fill:#b89b76;}.fk{fill:#9cbd77;}.fl{fill:#c1c1c1;}.fm{fill:#b4caed;}.fn{fill:#a6865d;}.fo{fill:#a5c63b;}.fp{fill:#bc8542;}.fq{fill:#d8d9db;}.fr{fill:#bdc3c7;}.fs{fill:#aaad6d;}.ft{fill:#cac5c0;}.fu{fill:#c9c9c9;}.fv{fill:#dedede;}.fw{fill:#c4c4c4;}.fx{fill:#dadada;}.fy{fill:#d9c09e;}.g`{fill:#adadad;}.ga{fill:#c6c6c6;}.gb{fill:#e1dfde;}.gc{fill:#c7c3c2;}.gd{fill:#d5d5d3;}.ge{fill:#435266;}.gf{fill:#969292;}.gg{fill:#55555f;}.gh{fill:#637016;}.gi{fill:#354152;}.gj{fill:#38373e;}.gk{fill:#3c3c3b;}.gl{fill:#75adaf;}.gm{fill:#70ab44;}.gn{fill:#cfcfdb;}.gn,.go{mix-blend-mode:multiply;}.go{fill:#d3c7be;opacity:.8;}.gp{fill:url(#cu);mix-blend-mode:screen;}.gq{isolation:isolate;}.eq{stroke:#fff;stroke-dasharray:0 0 1 1;stroke-width:.5px;}.eq,.er{stroke-linecap:round;stroke-linejoin:round;}.fc{opacity:.3;}.er{stroke:#c1c1c1;stroke-dasharray:0 0 2 2;stroke-width:.75px;}</style><linearGradient id="ai" x1="-27.89" y1="173.29" x2="-26.01" y2="176.53" gradientTransform="translate(296)" gradientUnits="userSpaceOnUse"><stop offset="0" stop-color="#fffaf4"/><stop offset=".24" stop-color="#f0ebe6"/><stop offset=".41" stop-color="#d8d4d0"/><stop offset=".67" stop-color="#b8b4b3"/><stop offset=".82" stop-color="#aca8a8"/><stop offset=".9" stop-color="#b3afaf"/><stop offset="1" stop-color="#c7c3c2"/></linearGradient><linearGradient id="al" x1="-86.52" y1="207.14" x2="-84.64" y2="210.38" xlink:href="#ai"/><linearGradient id="am" x1="-7.91" y1="203.17" x2="-6.04" y2="206.42" xlink:href="#ai"/><linearGradient id="ao" x1="-37.05" y1="217.42" x2="-32.99" y2="224.45" xlink:href="#ai"/><linearGradient id="aq" x1="-66.54" y1="237.02" x2="-64.67" y2="240.27" xlink:href="#ai"/><linearGradient id="ar" x1="12.78" y1="207.63" x2="14.66" y2="210.88" xlink:href="#ai"/><linearGradient id="at" x1="-16.35" y1="221.88" x2="-12.3" y2="228.9" xlink:href="#ai"/><linearGradient id="av" x1="-45.85" y1="241.48" x2="-43.97" y2="244.73" xlink:href="#ai"/><linearGradient id="aw" x1="35.61" y1="231.73" x2="37.49" y2="234.98" xlink:href="#ai"/><linearGradient id="ay" x1="6.47" y1="245.98" x2="10.53" y2="253.01" xlink:href="#ai"/><linearGradient id="ba" x1="-23.02" y1="265.58" x2="-21.14" y2="268.83" xlink:href="#ai"/><linearGradient id="bb" x1="3.69" y1="202.38" x2="5.57" y2="205.63" xlink:href="#ai"/><linearGradient id="bd" x1="-25.44" y1="216.63" x2="-21.39" y2="223.66" xlink:href="#ai"/><linearGradient id="bf" x1="-54.94" y1="236.23" x2="-53.06" y2="239.48" xlink:href="#ai"/><linearGradient id="bg" x1="24.48" y1="216.44" x2="26.35" y2="219.69" xlink:href="#ai"/><linearGradient id="bi" x1="-6.5" y1="226.82" x2="1.7" y2="241.02" xlink:href="#ai"/><linearGradient id="bk" x1="-34.15" y1="250.29" x2="-32.28" y2="253.54" xlink:href="#ai"/><linearGradient id="bp" x1="-14.97" y1="191.6" x2="-13.1" y2="194.85" xlink:href="#ai"/><linearGradient id="br" x1="-44.11" y1="205.85" x2="-40.05" y2="212.88" gradientTransform="translate(296)" gradientUnits="userSpaceOnUse"><stop offset="0" stop-color="#fff8f2"/><stop offset=".24" stop-color="#f0ebe6"/><stop offset=".41" stop-color="#d8d4d0"/><stop offset=".67" stop-color="#b8b4b3"/><stop offset=".82" stop-color="#aca8a8"/><stop offset=".86" stop-color="#b4afae"/><stop offset=".92" stop-color="#c9c3bf"/><stop offset=".98" stop-color="#ede3da"/><stop offset="1" stop-color="#f7ece2"/></linearGradient><linearGradient id="bt" x1="-73.6" y1="225.45" x2="-71.73" y2="228.7" xlink:href="#ai"/><linearGradient id="cu" x1="35.73" y1="244.72" x2="42.69" y2="256.78" gradientTransform="translate(296)" gradientUnits="userSpaceOnUse"><stop offset="0" stop-color="#fde6c5"/><stop offset="1" stop-color="#574f44"/></linearGradient></defs><g class="gq"><g id="a"/><g id="b"/><g id="c"/><g id="d"/><g id="e"><g><g><path class="et" d="M491.97,361.94v-8.08l-1.84-.1c-2.25-4.76-6.57-9.33-13.05-13.07l-185.86-104.25c-19.76-11.41-51.67-11.41-71.28-.01L45.29,340.6c-6.4,3.72-10.66,8.19-12.86,12.93l-1.78,.02,.04,6.46h-.04l.04,11.37c-.01,.42-.01,.41,0,.84v.26h.06c.59,8.62,5.47,14.38,14.76,19.74l185.86,104.44c19.76,11.41,51.69,11.51,71.3,.12l174.66-103.89c9.72-5.65,14.58-13.7,14.62-20.17h.01v-10.78h0Z"/><path class="fk" d="M477.08,335.74l-185.86-104.22c-19.76-11.41-51.67-11.39-71.28,0L45.29,335.7c-19.61,11.39-19.52,29.88,.23,41.29l185.86,104.22c19.76,11.41,51.69,11.41,71.3,.01l174.66-104.18c19.61-11.39,19.5-29.89-.25-41.3h0Z"/><g><path class="fb" d="M263.79,472.82c-11.98,0-23.95-2.7-33.31-8.1l-147.05-82.46c-10.8-6.23-16.94-15.4-16.95-25.22-.01-9.78,6.05-18.91,16.64-25.06l138.19-82.43c18.72-10.88,47.97-10.89,66.69-.07l147.16,82.52c10.7,6.18,16.84,15.35,16.85,25.18,.01,9.78-6.05,18.91-16.63,25.06l-138.19,82.43c-9.37,5.45-21.39,8.17-33.4,8.17Zm-9.16-211.25c-8.42,0-16.82,1.81-23.05,5.44l-138.19,82.43c-4.15,2.41-6.66,5.29-6.65,7.58,0,2.32,2.57,5.25,6.71,7.64l147.05,82.46c12.71,7.34,33.91,7.35,46.41,.09l138.19-82.43c4.14-2.41,6.65-5.29,6.65-7.57,0-2.32-2.56-5.24-6.67-7.63l-147.1-82.49c-6.37-3.68-14.87-5.51-23.34-5.51Z"/><g><path class="fl" d="M117.71,390.1l1.11,3.92c.11,.38,.49,.65,.88,.56,.41-.09,.66-.51,.55-.92l-.5-1.78c-.06-.2,.16-.37,.34-.27l4.12,2.3c.35,.19,.81,.11,1.02-.23,.23-.36,.1-.83-.26-1.04l-4.15-2.32c-.18-.1-.15-.37,.05-.43l1.74-.49c.38-.11,.65-.49,.56-.88-.09-.41-.52-.66-.92-.55l-3.96,1.12c-.43,.12-.68,.57-.56,1Z"/><line class="er" x1="123.3" y1="392.56" x2="189.32" y2="429.96"/></g><g><path class="fl" d="M411.17,329.18l-1.06-3.94c-.1-.38-.48-.65-.87-.57-.42,.09-.67,.5-.56,.91l.48,1.79c.05,.2-.16,.37-.34,.26l-4.08-2.36c-.35-.2-.8-.12-1.02,.21-.23,.36-.11,.83,.25,1.04l4.12,2.38c.18,.1,.15,.38-.06,.43l-1.75,.47c-.38,.1-.65,.48-.57,.87,.09,.42,.51,.67,.91,.56l3.98-1.07c.43-.12,.69-.56,.57-.99Z"/><line class="er" x1="405.62" y1="326.65" x2="353.86" y2="297.06"/></g><g><path class="fl" d="M303.59,448.75l3.96,.99c.39,.1,.81-.11,.92-.49,.12-.41-.12-.83-.52-.93l-1.79-.45c-.2-.05-.24-.32-.06-.43l4.04-2.42c.34-.21,.49-.64,.31-1-.2-.38-.67-.5-1.03-.29l-4.08,2.45c-.18,.11-.4-.06-.35-.26l.44-1.75c.1-.39-.11-.81-.49-.92-.41-.12-.83,.12-.93,.52l-1,4c-.11,.43,.16,.87,.59,.98Z"/><line class="er" x1="308.5" y1="445.13" x2="393.94" y2="394.1"/></g><g><path class="fl" d="M226.38,257.47l-3.97-.95c-.39-.09-.8,.11-.92,.5-.12,.41,.13,.83,.53,.93l1.8,.43c.2,.05,.25,.32,.07,.43l-4.02,2.46c-.34,.21-.49,.65-.3,1,.2,.37,.67,.5,1.03,.28l4.05-2.49c.18-.11,.4,.05,.35,.25l-.42,1.76c-.09,.39,.11,.8,.5,.92,.41,.12,.83-.13,.93-.53l.96-4.01c.1-.43-.16-.87-.6-.97Z"/><line class="er" x1="221.51" y1="261.14" x2="119.8" y2="323.71"/></g></g></g><g><g><g class="gq"><polygon class="et" points="377.92 141.81 377.91 146.03 366.98 152.39 366.99 148.16 377.92 141.81"/><polygon class="fw" points="366.99 148.16 366.98 152.39 328.25 130.03 328.27 125.81 366.99 148.16"/><polygon class="fk" points="377.92 141.81 366.99 148.16 328.27 125.81 339.2 119.46 377.92 141.81"/></g><g class="gq"><polygon class="et" points="366.53 158.39 366.52 162.61 355.59 168.96 355.6 164.74 366.53 158.39"/><polygon class="fw" points="355.6 164.74 355.59 168.96 316.86 146.6 316.88 142.38 355.6 164.74"/><polygon class="fk" points="366.53 158.39 355.6 164.74 316.88 142.38 327.8 136.03 366.53 158.39"/></g><g class="gq"><polygon class="et" points="355.13 174.96 355.12 179.19 344.19 185.53 344.2 181.31 355.13 174.96"/><polygon class="fw" points="344.2 181.31 344.19 185.53 305.47 163.18 305.48 158.95 344.2 181.31"/><polygon class="fk" points="355.13 174.96 344.2 181.31 305.48 158.95 316.41 152.61 355.13 174.96"/></g></g><g><g class="gq"><polygon class="et" points="342.07 191.6 342.06 195.82 331.13 202.17 331.15 197.95 342.07 191.6"/><polygon class="fw" points="331.15 197.95 331.13 202.17 292.41 179.82 292.42 175.59 331.15 197.95"/><polygon class="fk" points="342.07 191.6 331.15 197.95 292.42 175.59 303.35 169.25 342.07 191.6"/></g><g class="gq"><polygon class="et" points="330.68 208.18 330.67 212.4 319.74 218.75 319.75 214.53 330.68 208.18"/><polygon class="fw" points="319.75 214.53 319.74 218.75 281.02 196.39 281.03 192.17 319.75 214.53"/><polygon class="fk" points="330.68 208.18 319.75 214.53 281.03 192.17 291.95 185.82 330.68 208.18"/></g><g class="gq"><polygon class="et" points="319.28 224.75 319.27 228.97 308.34 235.32 308.35 231.1 319.28 224.75"/><polygon class="fw" points="308.35 231.1 308.34 235.32 269.62 212.96 269.64 208.74 308.35 231.1"/><polygon class="fk" points="319.28 224.75 308.35 231.1 269.64 208.74 280.56 202.39 319.28 224.75"/></g></g></g><g><path class="et" d="M441.78,103.76v-3.32l-.76-.04c-.93-1.96-2.7-3.84-5.37-5.37l-29.85-16.9c-8.12-4.69-21.24-4.69-29.3,0l-30.56,17.85c-2.63,1.53-4.38,3.37-5.29,5.32h-.73l.02,2.66h-.02l.02,4.68c0,.17,0,.17,0,.34v.11h.02c.24,3.54,2.25,5.91,6.07,8.12l29.85,16.97c8.12,4.69,21.25,4.73,29.31,.05l30.56-17.73c4-2.32,5.99-5.63,6.01-8.29h0v-4.43h0Z"/><path class="fk" d="M435.66,92.01l-29.85-16.88c-8.12-4.69-21.24-4.68-29.3,0l-30.56,17.85c-8.06,4.68-8.03,12.28,.1,16.97l29.85,16.88c8.12,4.69,21.25,4.69,29.31,0l30.56-17.85c8.06-4.68,8.02-12.29-.1-16.98h0Z"/></g><g><g class="gq"><polygon class="fy" points="269.79 368.82 269.6 435.32 264.84 440.86 265.03 374.36 269.79 368.82"/><polygon class="fj" points="265.03 374.36 264.84 440.86 255.3 443.64 255.48 377.13 265.03 374.36"/><polygon class="fn" points="308.04 390.9 307.85 457.4 269.6 435.32 269.79 368.82 308.04 390.9"/><polygon class="fj" points="312.89 391.36 312.71 457.86 300.47 461.43 300.66 394.93 312.89 391.36"/><polygon class="fn" points="294.53 402.03 294.34 468.53 250.44 443.18 250.63 376.68 294.53 402.03"/><polygon class="fy" points="300.66 394.93 300.47 461.43 294.34 468.53 294.53 402.03 300.66 394.93"/><path class="ex" d="M312.89,391.36l-12.24,3.57-6.12,7.1-43.9-25.35,12.24-3.57,6.12-7.1,43.9,25.35Zm-19.16,7.86l4.77-5.53,9.54-2.78-38.25-22.08-4.76,5.54-9.54,2.78,38.25,22.08h0Z"/></g><g><g><polygon class="fy" points="235.05 451.92 267.73 433.05 267.73 459.35 235.05 478.22 235.05 451.92"/><polygon class="fn" points="235.05 451.92 190.26 426.07 190.26 452.36 235.05 478.22 235.05 451.92"/><g><polygon class="fy" points="222.93 407.2 222.93 444.98 212.79 439.14 190.25 426.09 222.93 407.2"/><polygon class="fn" points="267.71 433.07 245.17 446.09 235.03 451.96 222.93 444.98 222.93 407.2 267.71 433.07"/></g><polygon class="fa" points="245.17 446.09 235.03 451.96 222.93 444.98 212.79 439.14 222.93 433.27 245.17 446.09"/><polygon class="ge" points="246.65 453.98 256.13 448.51 256.13 451.4 246.65 456.87 246.65 453.98"/><g><path class="gi" d="M227.85,462.33l-.03-.02c-1.77-1.02-3.21-3.51-3.21-5.55v-5.81l6.44,3.72v5.81c0,2.04-1.44,2.87-3.21,1.85Z"/><path class="gi" d="M229.64,467.74l-3.6-2.08c-.78-.45-1.42-.09-1.42,.82h0l6.44,3.72h0c0-.91-.64-2.01-1.42-2.46Z"/><polygon class="gi" points="228.51 467.4 227.18 466.63 227.18 452.4 228.51 453.17 228.51 467.4"/></g><g><polygon class="gi" points="201.65 452.14 196.59 449.22 196.59 440.32 201.65 443.24 201.65 452.14"/><polygon class="gi" points="203.77 448.24 194.48 442.88 199.12 436.66 203.77 448.24"/></g><polygon class="f`" points="267.71 433.07 277.34 409.1 232.57 383.25 222.94 407.21 267.71 433.07"/><polygon class="ex" points="213.59 448.56 235.03 451.95 190.25 426.1 168.81 422.71 213.59 448.56"/></g><g><polygon class="fv" points="216.57 433.9 218.76 427.67 226.18 424.93 231.34 431.38 228.42 434.81 229.5 436.68 225.34 440.39 221.91 437.55 216.57 437.31 216.57 433.9"/><polygon class="fu" points="216.57 437.31 223.42 434.73 218.61 434.11 223.75 433.87 219.81 428.05 224.23 433.1 226.45 425.27 225.39 431.9 230.97 431.29 225.15 433.63 227.89 434.45 227.5 433.63 229.48 433.57 228.42 434.81 229.5 436.68 224.81 434.45 228.2 437.84 225.34 440.39 224.28 434.45 221.91 437.55 221.4 436.23 216.57 437.31"/><polygon class="fb" points="216.57 433.9 223.75 433.87 219.81 428.05 223.99 432.83 226.45 425.27 218.76 427.67 216.57 433.9"/><polygon class="fb" points="225.15 433.63 225.44 433.51 230.36 431.53 229.19 433.58 225.15 433.63"/><polygon class="fb" points="224.28 434.45 222.37 437.93 223.77 438.83 224.28 434.45"/></g><path class="fb" d="M228.98,439.3c2.18,.29,6.71-.41,6.57-2.66,2.41,1.05,5.04,3.9,4.9,4.56-1.9,2.78-7.73,3.11-9.38,2.43-.78-1.48-1.56-3.9-2.08-4.34Z"/><polygon class="fb" points="222.37 439.74 222.94 442.61 220.63 442.95 220.27 440.39 222.37 439.74"/></g><g><g><polygon class="fq" points="315.2 493.12 271.37 468.96 239.45 488.26 283.28 512.42 315.2 493.12"/><polygon class="ey" points="322.22 489.97 282.74 463.43 247.67 480.82 287.16 507.36 322.22 489.97"/><polygon class="ff" points="308.47 483.02 274.36 463.33 241.67 482.2 284.52 506.94 308.47 493.11 308.47 483.02"/><polygon class="gg" points="276.01 468.3 254.2 480.9 251.25 479.19 273.06 466.6 276.01 468.3"/><polygon class="gg" points="281.37 470.11 265.39 479.34 263.96 478.51 279.93 469.28 281.37 470.11"/><polygon class="gg" points="283.7 471.46 267.72 480.68 266.29 479.85 282.27 470.63 283.7 471.46"/><polygon class="gg" points="286.03 472.8 270.06 482.03 268.62 481.2 284.6 471.97 286.03 472.8"/><polygon class="gg" points="288.37 474.15 272.39 483.38 270.95 482.54 286.93 473.32 288.37 474.15"/><polygon class="gg" points="273.93 487.95 267.79 491.49 266.36 490.66 272.49 487.12 273.93 487.95"/><polygon class="gg" points="276.33 489.33 270.19 492.88 268.75 492.05 274.89 488.5 276.33 489.33"/><polygon class="gg" points="278.73 490.72 272.59 494.26 271.15 493.43 277.29 489.88 278.73 490.72"/><polygon class="gg" points="281.12 492.1 274.98 495.64 273.55 494.81 279.68 491.27 281.12 492.1"/></g><polygon class="gn" points="308.47 493.11 298.67 486.27 308.47 483.02 308.47 493.11"/><polygon class="fd" points="308.47 493.11 301.23 486.76 308.47 483.02 308.47 493.11"/></g><path class="fb" d="M278.9,478.96c2.18,.29,8.62,.54,8.47-1.7,2.41,1.05,3.2,3.75,3.05,4.41-1.9,2.78-8.51,1.89-10.16,1.21-.78-1.48-.84-3.48-1.36-3.92Z"/></g><g><g><path class="gi" d="M293.49,430.09l-.48-.68c-.21-.29-.59-.33-1-.09l-2.8,1.62c.42-.21,.82-.19,1.06,.15l.25,.36,.86,1.22-.4,.49,.61-.19,1.66-.52,.46-2.03,.18-.82-.41,.5Z"/><path class="gi" d="M290.12,431.44l.25,.36-.97,2.52-2.08-.22,.56-1.46h0c.24-.56,.62-1,1.01-1.25l.16-.1c.42-.21,.82-.19,1.06,.15Z"/></g><g><path class="gi" d="M286.25,436.88l-.48,1.23c-.21,.53-.21,1.04,0,1.33l1.4,1.99c-.19-.32-.2-.85,.04-1.46l.25-.65,.86-2.21,.4,.04-.19-.59-.5-1.59-1.56,1.33-.63,.53,.4,.05Z"/><path class="gi" d="M287.61,439.75l.25-.65,1.84-1.06-.03,2.8-1.01,.59h0c-.43,.22-.79,.16-1-.1l-.08-.12c-.19-.32-.2-.85,.04-1.46Z"/></g><g><path class="gi" d="M291.87,439.57l.95-.55c.41-.24,.79-.71,1-1.24l1.4-3.61c-.23,.53-.62,1.04-1.1,1.32l-.51,.29-1.71,.99v-.54l-.42,.78-1.16,2.11,1.1,.71,.44,.29v-.54Z"/><path class="gi" d="M293.9,435.17l-.51,.29-.9-1.28,2.1-2.58,.48,.69h0c.19,.34,.17,.85,0,1.35l-.08,.21c-.23,.53-.62,1.04-1.1,1.32Z"/></g></g><g><g><g><path class="fr" d="M93.02,261.05l-.12,76.12c-.01,3.89-2.57,7.78-7.68,10.75-10.29,5.98-27.02,5.98-37.37,0-5.21-3.01-7.81-6.96-7.8-10.9l.12-76.1c0,3.93,2.6,7.87,7.8,10.87,3.74,2.16,8.3,3.53,13.09,4.14,.27,.03,.54,.06,.81,.09,8.27,.88,17.11-.53,23.48-4.23,5.11-2.97,7.67-6.86,7.68-10.75Z"/><g class="gq"><g class="gq"><path class="fe" d="M61.52,276.14l-.12,76.12c-4.96-.57-9.7-1.97-13.55-4.19-5.21-3.01-7.81-6.96-7.8-10.9l.12-76.12c-.01,3.94,2.59,7.89,7.8,10.9,3.85,2.23,8.59,3.62,13.55,4.19h0Z"/></g><path class="fb" d="M85.21,250.3c10.35,5.98,10.41,15.67,.12,21.65-10.29,5.98-27.02,5.98-37.37,0-10.35-5.98-10.41-15.67-.12-21.65,10.29-5.98,27.02-5.98,37.37,0Z"/><path class="gj" d="M72.29,257.82c3.17,1.83,3.18,4.79,.04,6.62-3.15,1.83-8.27,1.83-11.43,0-3.17-1.83-3.18-4.79-.04-6.62,3.15-1.83,8.27-1.83,11.43,0Z"/></g></g><path class="fe" d="M61.52,276.14v76.15c8.7,1.92,30.33,4.54,42.35,7.11v-76.07c-14.69,3.01-37.28-.84-42.35-7.19Z"/><g><path class="ev" d="M61.45,363.87c-.23,0-.41-.19-.41-.41v-1.07c0-.23,.19-.41,.41-.41s.41,.19,.41,.41v1.07c0,.23-.19,.41-.41,.41Z"/><path class="gb" d="M61.05,276.09v1.78c0,.22,.18,.4,.4,.4s.4-.18,.4-.4v-1.69c-.27-.03-.54-.06-.81-.09Zm.4,3.55c-.22,0-.4,.18-.4,.4v2.17c0,.22,.18,.4,.4,.4s.4-.18,.4-.4v-2.17c0-.22-.18-.4-.4-.4Zm0,4.34c-.22,0-.4,.18-.4,.4v2.17c0,.22,.18,.4,.4,.4s.4-.18,.4-.4v-2.17c0-.22-.18-.4-.4-.4Zm0,4.34c-.22,0-.4,.18-.4,.4v2.17c0,.22,.18,.4,.4,.4s.4-.18,.4-.4v-2.17c0-.22-.18-.4-.4-.4Zm0,4.34c-.22,0-.4,.18-.4,.4v2.17c0,.22,.18,.4,.4,.4s.4-.18,.4-.4v-2.17c0-.22-.18-.4-.4-.4Zm0,4.34c-.22,0-.4,.18-.4,.4v2.17c0,.22,.18,.4,.4,.4s.4-.18,.4-.4v-2.17c0-.22-.18-.4-.4-.4Zm0,4.34c-.22,0-.4,.18-.4,.4v2.17c0,.22,.18,.4,.4,.4s.4-.18,.4-.4v-2.17c0-.22-.18-.4-.4-.4Zm0,4.34c-.22,0-.43-.81-.43-.59l.03,3.16c0,.22,.18,.4,.4,.4s.4-.18,.4-.4v-2.17c0-.22-.18-.4-.4-.4Zm0,4.34c-.22,0-.4,.18-.4,.4v2.17c0,.22,.18,.4,.4,.4s.4-.18,.4-.4v-2.17c0-.22-.18-.4-.4-.4Zm0,4.34c-.22,0-.4,.18-.4,.4v2.17c0,.22,.18,.4,.4,.4s.4-.18,.4-.4v-2.17c0-.22-.18-.4-.4-.4Zm0,4.34c-.22,0-.4,.18-.4,.4v2.17c0,.22,.18,.4,.4,.4s.4-.18,.4-.4v-2.17c0-.22-.18-.4-.4-.4Zm0,4.34c-.22,0-.4,.18-.4,.4v2.17c0,.22,.18,.4,.4,.4s.4-.18,.4-.4v-2.17c0-.22-.18-.4-.4-.4Zm0,4.34c-.22,0-.4,.18-.4,.4v2.17c0,.22,.18,.4,.4,.4s.4-.18,.4-.4v-2.17c0-.22-.18-.4-.4-.4Zm0,4.34c-.22,0-.4,.18-.4,.4v2.17c0,.22,.18,.4,.4,.4s.4-.18,.4-.4v-2.17c0-.22-.18-.4-.4-.4Zm0,4.34c-.22,0-.4,.18-.4,.4v2.17c0,.22,.18,.4,.4,.4s.4-.18,.4-.4v-2.17c0-.22-.18-.4-.4-.4Zm0,4.34c-.22,0-.4,.18-.4,.4v2.17c0,.22,.18,.4,.4,.4s.4-.18,.4-.4v-2.17c0-.22-.18-.4-.4-.4Zm0,4.34c-.22,0-.4,.18-.4,.4v2.17c0,.22,.18,.4,.4,.4s.4-.18,.4-.4v-2.17c0-.22-.18-.4-.4-.4Zm0,4.34c-.22,0-.4,.18-.4,.4v2.17c0,.22,.18,.4,.4,.4s.4-.18,.4-.4v-2.17c0-.22-.18-.4-.4-.4Zm0,4.34c-.22,0-.4,.18-.4,.4v2.17c0,.22,.18,.4,.4,.4s.4-.18,.4-.4v-2.17c0-.22-.18-.4-.4-.4Zm0,4.34c-.22,0-.4,.18-.4,.4v2.17c0,.22,.18,.4,.4,.4s.4-.18,.4-.4v-2.17c0-.22-.18-.4-.4-.4Z"/></g></g><g><path class="fr" d="M85.72,319.68l.11,39.96c.01,3.73,2.46,7.45,7.35,10.29,6.05,3.51,14.42,4.87,22.28,4.07,.27-.03,.54-.06,.81-.09,4.65-.56,9.07-1.89,12.68-3.98,4.99-2.88,7.48-6.66,7.47-10.43l-.11-39.94c0,3.76-2.49,7.53-7.47,10.41-3.58,2.07-7.97,3.39-12.57,3.96-.27,.03-.53,.06-.81,.09-7.89,.83-16.32-.52-22.4-4.05-4.89-2.84-7.34-6.56-7.35-10.29Z"/><g class="gq"><g class="gq"><path class="fe" d="M115.87,333.98l.11,39.96c4.75-.54,9.29-1.88,12.97-4.01,4.99-2.88,7.48-6.66,7.47-10.43l-.11-39.96c.01,3.77-2.48,7.55-7.47,10.43-3.69,2.13-8.23,3.47-12.97,4.01h0Z"/></g><path class="fb" d="M93.18,309.24c-9.91,5.72-9.96,15-.12,20.72,9.85,5.72,25.86,5.72,35.77,0,9.91-5.72,9.96-15,.12-20.72-9.85-5.72-25.86-5.72-35.77,0Z"/><path class="gj" d="M105.56,316.44c-3.03,1.75-3.05,4.59-.04,6.34,3.01,1.75,7.91,1.75,10.94,0,3.03-1.75,3.05-4.59,.04-6.34-3.01-1.75-7.91-1.75-10.95,0Z"/></g><path class="fe" d="M75.06,336.15l.11,39.96c24.39,7.67,38.41,.86,40.81-2.17l-.11-39.96c-5.88,5.73-21.53,11.33-40.81,2.17Z"/><path class="gb" d="M115.47,334.02v1.06c0,.22,.18,.4,.4,.4s.4-.18,.4-.4v-1.15c-.27,.03-.53,.06-.81,.09Zm0,3.25v2.2c0,.22,.18,.4,.4,.4s.4-.18,.4-.4v-2.2c0-.22-.18-.4-.4-.4s-.4,.18-.4,.4Zm0,4.4v2.2c0,.22,.18,.4,.4,.4s.4-.18,.4-.4v-2.2c0-.22-.18-.4-.4-.4s-.4,.18-.4,.4Zm0,4.39v2.2c0,.22,.18,.4,.4,.4s.4-.18,.4-.4v-2.2c0-.22-.18-.4-.4-.4s-.4,.18-.4,.4Zm0,4.4v2.2c0,.22,.18,.4,.4,.4s.4-.18,.4-.4v-2.2c0-.22-.18-.4-.4-.4s-.4,.18-.4,.4Zm0,4.39v2.2c0,.22,.18,.4,.4,.4s.4-.18,.4-.4v-2.2c0-.22-.18-.4-.4-.4s-.4,.18-.4,.4Zm0,4.39v2.2c0,.22,.18,.4,.4,.4s.4-.18,.4-.4v-2.2c0-.22-.18-.4-.4-.4s-.4,.18-.4,.4Zm0,4.4v2.2c0,.22,.18,.4,.4,.4s.4-.18,.4-.4v-2.2c0-.22-.18-.4-.4-.4s-.4,.18-.4,.4Zm0,4.39v2.2c0,.22,.18,.4,.4,.4s.4-.18,.4-.4v-2.2c0-.22-.18-.4-.4-.4s-.4,.18-.4,.4Zm0,4.4v1.57c.27-.03,.54-.06,.81-.09v-1.48c0-.22-.18-.4-.4-.4s-.4,.18-.4,.4Z"/></g><g><g><g class="gq"><polygon class="ga" points="90.68 356.61 90.62 376.77 90.61 379.6 90.6 381.95 57.44 401.22 57.45 398.75 57.46 395.92 57.51 375.88 90.68 356.61"/><polygon class="fe" points="57.51 375.88 57.46 395.92 57.45 398.74 57.44 401.22 6.55 371.84 6.56 369.36 6.57 366.54 6.62 346.5 57.51 375.88"/><polygon class="fh" points="90.68 356.61 57.51 375.88 54.91 374.38 53.21 373.39 10.84 348.93 9.13 347.95 6.62 346.5 39.79 327.23 42.4 328.74 44.11 329.72 86.48 354.18 88.18 355.17 90.68 356.61"/><polygon class="fe" points="44.11 329.72 10.84 348.93 9.13 347.95 42.4 328.74 44.11 329.72"/><polygon class="fe" points="88.18 355.17 54.91 374.38 53.21 373.39 86.48 354.18 88.18 355.17"/></g><path class="fe" d="M60.16,365.28c-6.15,0-14.54-2.64-21.91-6.89-7.93-4.58-12.66-9.88-12.66-14.2,0-2.13,1.07-3.92,3.01-5.04,1.52-.88,3.56-1.33,6.04-1.33,6.15,0,14.54,2.64,21.91,6.89,7.93,4.58,12.66,9.88,12.66,14.2,0,2.13-1.07,3.92-3.01,5.04-1.52,.88-3.56,1.32-6.04,1.32h0Z"/><path class="fb" d="M71.25,345.19c-.61-.4-1.35-.52-2.05-.71-4.33-1.2-7.24-5.19-11.25-6.7-3.51-1.32-8.34-.71-11.05-3.71-2.35-2.6-.63-2.49-5.39-4.33-1.74-.67-3.28-1.79-5.01-2.49-10.49-4.25-9.32,16.79-7.31,19.78,5.01,8.74,28.07,19.14,36.16,14.29,5.2-3.06,5.99-7.18,6.96-10.68,.53-1.91,.62-4.36-1.05-5.44Z"/><path class="ew" d="M41.9,332.97c.57-.76,.97-1.67,1.16-2.61-.43-.18-.94-.39-1.56-.63-1.74-.67-3.28-1.79-5.01-2.49-.17-.07-.35-.13-.51-.19,.41,1.15,.45,2.43,.02,3.5-2.69,6.44-6.71,15.04,1.07,20.14,.54,.27,.54-3.49,0-4.3-2.15-5.1,2.15-9.4,4.83-13.43Z"/><path class="ew" d="M71.25,345.19c-.61-.4-1.35-.52-2.05-.71-2.88-.8-5.13-2.83-7.5-4.55-.18,1.32,.07,2.78-.73,4.05-.81,1.34-2.42,2.15-4.03,1.34-.81-.27-1.61-.81-2.42-.27-1.07,.81-1.34,2.69-.27,3.76,1.07,.54,2.15,.81,2.69,1.88,.27,.81-.54,1.34-.81,1.34-2.15,.54-4.56-1.34-5.91,0-2.15,2.42-4.56,1.61-7.25,2.15-.81,.27-1.61,.54-1.88,1.07-.21,.43-.38,.89-.5,1.36,8.71,4.79,19.67,7.74,24.75,4.7,5.2-3.06,5.99-7.18,6.96-10.68,.53-1.91,.62-4.36-1.05-5.44Z"/></g><path class="fs" d="M40.22,376.77c0,3.7-3.67,4.57-8.21,1.96-4.53-2.62-8.21-7.74-8.21-11.43,0-3.7,3.67-4.57,8.21-1.96,4.53,2.62,8.21,7.74,8.21,11.43Z"/><polygon class="fe" points="57.46 395.92 57.45 398.74 6.56 369.36 6.57 366.54 57.46 395.92"/><polygon class="ga" points="90.62 376.77 90.61 379.6 57.45 398.75 57.46 395.92 90.62 376.77"/></g></g><g><g><path class="fe" d="M445.64,304.92l-10.61,.07-18.22,.11-4.74,.03-4.76,.03v56.58c0,3.15,1.76,6.07,4.76,8.49,1.34,1.08,2.94,2.06,4.74,2.92,4.87,2.32,11.24,3.74,18.22,3.74,3.76,0,7.34-.41,10.61-1.15,10.04-2.28,17.11-7.68,17.11-13.99v-56.93l-17.11,.11Z"/><path class="fe" d="M462.75,361.74v-56.93l-17.11,.11v70.81c10.04-2.28,17.11-7.68,17.11-13.99Z"/><path class="fe" d="M407.31,305.16v56.58c0,3.15,1.76,6.07,4.76,8.49v-65.1l-4.76,.03Z"/><path class="fe" d="M416.81,305.1v68.04c4.87,2.32,11.24,3.74,18.22,3.74v-71.9l-18.22,.11Z"/></g><path class="fs" d="M439.82,282.23h-9.58c-12.61,0-22.93,10.32-22.93,22.93,0,8.36,12.41,15.14,27.72,15.14s27.72-6.78,27.72-15.14c0-12.61-10.32-22.93-22.93-22.93Z"/><path class="fh" d="M454.73,291.91h-.1c-1-5.44-9.39-9.68-19.61-9.68s-18.61,4.24-19.61,9.68h-.1v.95h0s0,.09,0,.14c0,5.94,8.82,10.76,19.71,10.76s19.71-4.82,19.71-10.76c0-.05,0-.09,0-.14h0v-.95Z"/><ellipse class="gk" cx="435.03" cy="291.91" rx="19.71" ry="10.76"/><path class="fb" d="M462.71,317.47v2.69c.02,.26,.04,.51,.04,.77,0,8.36-12.41,15.14-27.72,15.14s-27.72-6.78-27.72-15.14c0-.14,.02-.27,.03-.41v-2.8c-.73,1.38-1.12,2.84-1.12,4.35,0,8.71,12.93,15.77,28.88,15.77s28.88-7.06,28.88-15.77c0-1.6-.44-3.15-1.26-4.61Z"/><path class="fb" d="M462.71,341.38v2.69c.02,.26,.04,.51,.04,.77,0,8.36-12.41,15.14-27.72,15.14s-27.72-6.78-27.72-15.14c0-.14,.02-.27,.03-.41v-2.8c-.73,1.38-1.12,2.84-1.12,4.35,0,8.71,12.93,15.77,28.88,15.77s28.88-7.06,28.88-15.77c0-1.6-.44-3.15-1.26-4.61Z"/></g><g><g><g><path class="fm" d="M364.49,89.26h7.15v1.95h0c0,.53-.35,1.05-1.05,1.46-1.39,.8-3.65,.8-5.05,0-.7-.41-1.05-.93-1.05-1.46v-1.95Z"/><path class="fb" d="M365.54,90.8c1.39,.8,3.66,.8,5.05,0,1.4-.81,1.4-2.12,0-2.93-1.39-.8-3.65-.8-5.05,0-1.4,.81-1.4,2.12,0,2.93Z"/></g><g><path class="fm" d="M369.74,80.45h-3.36v8.76h0c0,.25,.16,.5,.49,.69,.66,.37,1.72,.37,2.37,0,.33-.19,.49-.44,.49-.69v-8.76Z"/><path class="fb" d="M369.25,81.14c-.65,.38-1.72,.38-2.37,0-.66-.38-.66-.99,0-1.37,.66-.38,1.72-.38,2.37,0,.66,.38,.66,1,0,1.37Z"/></g><g><path class="gm" d="M370.82,57.48h-5.53v24.3h0c0,.41,.27,.82,.82,1.13,1.08,.61,2.83,.61,3.9,0,.54-.31,.81-.72,.81-1.13v-24.3Z"/><path class="fb" d="M370.01,58.61c-1.07,.63-2.83,.63-3.9,0-1.08-.63-1.08-1.63,0-2.26,1.08-.62,2.83-.62,3.9,0,1.08,.63,1.08,1.64,0,2.26Z"/></g></g><g><g><path class="fm" d="M411.26,89.26h7.14v1.95h0c0,.53-.35,1.05-1.05,1.46-1.39,.8-3.65,.8-5.05,0-.7-.41-1.05-.93-1.05-1.46v-1.95Z"/><path class="fb" d="M412.3,90.8c1.39,.8,3.65,.8,5.05,0,1.4-.81,1.4-2.12,0-2.93-1.39-.8-3.65-.8-5.05,0-1.4,.81-1.4,2.12,0,2.93Z"/></g><g><path class="fm" d="M416.51,80.45h-3.36v8.76h0c0,.25,.17,.5,.5,.69,.66,.37,1.72,.37,2.37,0,.33-.19,.49-.44,.49-.69v-8.76Z"/><path class="fb" d="M416.01,81.14c-.66,.38-1.72,.38-2.37,0-.66-.38-.66-.99,0-1.37,.66-.38,1.72-.38,2.37,0,.66,.38,.66,1,0,1.37Z"/></g><g><path class="gm" d="M417.59,57.48h-5.53v24.3h0c0,.41,.27,.82,.82,1.13,1.07,.61,2.83,.61,3.9,0,.54-.31,.81-.72,.81-1.13v-24.3Z"/><path class="fb" d="M416.78,58.61c-1.08,.63-2.83,.63-3.9,0-1.08-.63-1.08-1.63,0-2.26,1.07-.62,2.83-.62,3.9,0,1.08,.63,1.08,1.64,0,2.26Z"/></g></g><g><path class="fr" d="M375.81,106.7c0,2.3,1.52,4.6,4.58,6.38,6.1,3.52,15.97,3.52,22.07,0,3.04-1.78,4.55-4.08,4.55-6.38v-6.43h-31.21v6.43Z"/><path class="fe" d="M402.46,93.9c-6.1-3.52-15.97-3.52-22.07,0-6.09,3.51-6.09,9.21,0,12.73,6.1,3.53,15.97,3.53,22.07,0,6.09-3.52,6.09-9.22,0-12.73Z"/></g><path class="fs" d="M415.48,79.55h-48.12l12.92,22.7h0c.54,1.01,1.5,1.96,2.89,2.77,4.55,2.63,11.92,2.63,16.48,0,1.39-.8,2.35-1.75,2.89-2.77h0l12.92-22.7Z"/><g><g><path class="gd" d="M364.49,117.03h7.15v1.95h0c0,.53-.35,1.05-1.05,1.47-1.39,.8-3.65,.8-5.05,0-.7-.41-1.05-.94-1.05-1.47v-1.95Z"/><path class="fb" d="M365.54,118.56c1.39,.8,3.66,.8,5.05,0,1.4-.81,1.4-2.12,0-2.93-1.39-.81-3.65-.81-5.05,0-1.4,.81-1.4,2.12,0,2.93Z"/></g><g><path class="fx" d="M369.74,108.22h-3.36v8.76h0c0,.25,.16,.5,.49,.69,.66,.37,1.72,.37,2.37,0,.33-.19,.49-.44,.49-.69v-8.76Z"/><path class="fb" d="M369.25,108.91c-.65,.38-1.72,.38-2.37,0-.66-.38-.66-.99,0-1.37,.66-.38,1.72-.38,2.37,0,.66,.38,.66,.99,0,1.37Z"/></g><g><path class="gh" d="M370.82,85.25h-5.53v24.3h0c0,.41,.27,.82,.82,1.13,1.08,.61,2.83,.61,3.9,0,.54-.32,.81-.72,.81-1.13v-24.3Z"/><path class="fb" d="M370.01,86.38c-1.07,.62-2.83,.62-3.9,0-1.08-.63-1.08-1.64,0-2.27,1.08-.62,2.83-.62,3.9,0,1.08,.63,1.08,1.64,0,2.27Z"/></g></g><g><g><path class="gd" d="M411.26,117.03h7.14v1.95h0c0,.53-.35,1.05-1.05,1.47-1.39,.8-3.65,.8-5.05,0-.7-.41-1.05-.94-1.05-1.47v-1.95Z"/><path class="fb" d="M412.3,118.56c1.39,.8,3.65,.8,5.05,0,1.4-.81,1.4-2.12,0-2.93-1.39-.81-3.65-.81-5.05,0-1.4,.81-1.4,2.12,0,2.93Z"/></g><g><path class="fx" d="M416.51,108.22h-3.36v8.76h0c0,.25,.17,.5,.5,.69,.66,.37,1.72,.37,2.37,0,.33-.19,.49-.44,.49-.69v-8.76Z"/><path class="fb" d="M416.01,108.91c-.66,.38-1.72,.38-2.37,0-.66-.38-.66-.99,0-1.37,.66-.38,1.72-.38,2.37,0,.66,.38,.66,.99,0,1.37Z"/></g><g><path class="gh" d="M417.59,85.25h-5.53v24.3h0c0,.41,.27,.82,.82,1.13,1.07,.61,2.83,.61,3.9,0,.54-.32,.81-.72,.81-1.13v-24.3Z"/><path class="fb" d="M416.78,86.38c-1.08,.62-2.83,.62-3.9,0-1.08-.63-1.08-1.64,0-2.27,1.07-.62,2.83-.62,3.9,0,1.08,.63,1.08,1.64,0,2.27Z"/></g></g><g><g><path class="gd" d="M387.86,122.49h7.15v1.95h0c0,.53-.35,1.05-1.05,1.46-1.39,.8-3.65,.8-5.05,0-.7-.41-1.05-.93-1.05-1.46v-1.95Z"/><path class="fb" d="M388.91,124.02c1.39,.79,3.66,.79,5.05,0,1.4-.81,1.4-2.12,0-2.93-1.39-.8-3.65-.8-5.05,0-1.4,.81-1.4,2.12,0,2.93Z"/></g><g><path class="fx" d="M393.11,113.68h-3.36v8.76h0c0,.25,.17,.5,.5,.69,.66,.37,1.72,.37,2.37,0,.33-.19,.49-.44,.49-.69v-8.76Z"/><path class="fb" d="M392.62,114.37c-.65,.38-1.72,.38-2.37,0-.66-.38-.66-.99,0-1.38,.66-.37,1.72-.37,2.37,0,.66,.39,.66,1,0,1.38Z"/></g><g><path class="gh" d="M394.2,83.38h-5.53v31.62h0c0,.41,.27,.82,.81,1.14,1.08,.61,2.83,.61,3.91,0,.54-.32,.81-.73,.81-1.14v-31.62Z"/><path class="fb" d="M393.39,84.51c-1.08,.63-2.83,.63-3.91,0-1.08-.62-1.08-1.63,0-2.26,1.08-.62,2.83-.62,3.91,0,1.08,.63,1.08,1.64,0,2.26Z"/></g></g><g><g><path class="gd" d="M421.62,102.99h7.14v1.95h0c0,.53-.35,1.05-1.05,1.46-1.39,.8-3.65,.8-5.05,0-.69-.41-1.05-.93-1.05-1.46v-1.95Z"/><path class="fb" d="M422.67,104.53c1.4,.79,3.66,.79,5.05,0,1.4-.81,1.4-2.12,0-2.93-1.39-.8-3.65-.8-5.05,0-1.4,.81-1.4,2.12,0,2.93Z"/></g><g><path class="fx" d="M426.87,94.18h-3.36v8.77h0c0,.25,.17,.49,.5,.69,.66,.37,1.72,.37,2.38,0,.32-.19,.49-.44,.49-.69v-8.77Z"/><path class="fb" d="M426.38,94.88c-.66,.38-1.72,.38-2.38,0-.66-.38-.66-.99,0-1.38,.66-.38,1.72-.38,2.38,0,.65,.38,.65,1,0,1.38Z"/></g><g><path class="gh" d="M427.96,71.21h-5.53v24.3h0c0,.41,.27,.82,.81,1.13,1.08,.61,2.83,.61,3.91,0,.54-.32,.81-.72,.81-1.13v-24.3Z"/><path class="fb" d="M427.14,72.34c-1.08,.63-2.83,.63-3.91,0-1.08-.63-1.08-1.63,0-2.26,1.08-.62,2.83-.62,3.91,0,1.08,.63,1.08,1.64,0,2.26Z"/></g></g><g><g><path class="gd" d="M354.11,102.99h7.14v1.95h0c0,.53-.35,1.05-1.05,1.46-1.39,.8-3.65,.8-5.05,0-.7-.41-1.05-.93-1.05-1.46v-1.95Z"/><path class="fb" d="M355.15,104.53c1.39,.79,3.65,.79,5.05,0,1.4-.81,1.4-2.12,0-2.93-1.39-.8-3.65-.8-5.05,0-1.4,.81-1.4,2.12,0,2.93Z"/></g><g><path class="fx" d="M359.36,94.18h-3.36v8.77h0c0,.25,.17,.49,.5,.69,.65,.37,1.72,.37,2.37,0,.33-.19,.49-.44,.49-.69v-8.77Z"/><path class="fb" d="M358.87,94.88c-.66,.38-1.72,.38-2.37,0-.66-.38-.66-.99,0-1.38,.65-.38,1.72-.38,2.37,0,.66,.38,.66,1,0,1.38Z"/></g><g><path class="gh" d="M360.44,71.21h-5.53v24.3h0c0,.41,.27,.82,.81,1.13,1.08,.61,2.83,.61,3.91,0,.54-.32,.81-.72,.81-1.13v-24.3Z"/><path class="fb" d="M359.63,72.34c-1.08,.63-2.83,.63-3.91,0-1.08-.63-1.08-1.63,0-2.26,1.08-.62,2.83-.62,3.91,0,1.08,.63,1.08,1.64,0,2.26Z"/></g></g><g><g><path class="fx" d="M354.06,70.5c0,5.51,3.64,11.01,10.96,15.27,14.6,8.42,38.22,8.42,52.82,0,7.28-4.26,10.89-9.76,10.89-15.27v-1.61h-74.68v1.61Z"/><path class="g`" d="M417.85,53.62c-14.61-8.42-38.22-8.42-52.82,0-14.58,8.39-14.58,22.05,0,30.47,14.6,8.44,38.22,8.44,52.82,0,14.58-8.42,14.58-22.08,0-30.47Z"/></g><path class="fe" d="M354.65,68.48c0,5.43,3.61,10.83,10.79,15.01,14.37,8.29,37.6,8.29,51.99,0,7.16-4.18,10.72-9.58,10.72-15.01V21.78h-73.5v46.7Z"/><path class="fb" d="M417.39,6.8c-14.36-8.29-37.64-8.29-52.01,0-14.3,8.23-14.3,21.69,0,29.96,14.36,8.31,37.64,8.31,52.01,0,14.35-8.27,14.35-21.73,0-29.96Z"/><path class="gk" d="M424.64,28.1c-1.65-2.89-4.48-5.61-8.47-7.9-13.67-7.89-35.83-7.89-49.5,0-3.99,2.29-6.8,5.01-8.45,7.9-4-7.01-1.18-15.05,8.45-20.58,13.67-7.89,35.83-7.89,49.5,0,9.66,5.54,12.49,13.57,8.47,20.58Z"/><path class="es" d="M424.64,28.1c-1.65,2.9-4.48,5.62-8.47,7.93-13.67,7.91-35.83,7.91-49.5,0-3.99-2.31-6.8-5.03-8.45-7.93,1.65-2.89,4.47-5.61,8.45-7.9,13.67-7.89,35.83-7.89,49.5,0,4,2.29,6.82,5.01,8.47,7.9Z"/><g><path class="eu" d="M380.7,21.98c-1.92,1.11-5.04,1.11-6.97,0-1.92-1.11-1.92-2.91,0-4.02,1.92-1.11,5.04-1.11,6.97,0,1.92,1.11,1.92,2.91,0,4.02Z"/><path class="fc" d="M382.14,19.96c0-2.72-2.2-4.92-4.92-4.92s-4.92,2.21-4.92,4.92h0c0,.73,.48,1.45,1.44,2.01,1.92,1.11,5.04,1.11,6.97,0,.96-.56,1.44-1.28,1.44-2.01h0Z"/><path class="fb" d="M375.36,17.87c-.3,.46-.8,.67-1.12,.47-.32-.21-.34-.75-.04-1.21,.3-.46,.8-.67,1.11-.47,.32,.21,.34,.75,.04,1.21Z"/></g><g><path class="eu" d="M403.32,19.94c-1.53,.88-4.02,.88-5.55,0-1.53-.88-1.53-2.32,0-3.21,1.53-.88,4.02-.88,5.55,0,1.54,.89,1.54,2.32,0,3.21Z"/><path class="fc" d="M404.47,18.33c0-2.17-1.76-3.93-3.93-3.93s-3.93,1.76-3.93,3.93h0c0,.58,.38,1.16,1.15,1.6,1.53,.88,4.02,.88,5.55,0,.77-.44,1.15-1.02,1.15-1.6h0Z"/><path class="fb" d="M399.07,16.66c-.24,.37-.63,.54-.89,.37-.26-.16-.27-.59-.03-.96,.24-.37,.63-.53,.89-.37,.26,.16,.27,.6,.03,.97Z"/></g><g><path class="eu" d="M404.94,37.52c-1.43,.82-3.74,.82-5.17,0-1.43-.82-1.43-2.16,0-2.99,1.43-.82,3.74-.82,5.17,0,1.43,.82,1.43,2.16,0,2.99Z"/><path class="fc" d="M406.01,36.03c0-2.02-1.64-3.65-3.65-3.65s-3.66,1.64-3.66,3.65h0c0,.54,.36,1.08,1.07,1.49,1.43,.82,3.74,.82,5.17,0,.72-.41,1.07-.95,1.07-1.49h0Z"/><path class="fb" d="M400.98,34.48c-.22,.35-.59,.5-.83,.35-.24-.15-.25-.55-.03-.9,.22-.34,.59-.5,.83-.35,.24,.15,.25,.55,.03,.9Z"/></g><g><path class="eu" d="M390.21,24.82c-1.22,.7-3.19,.7-4.41,0-1.22-.7-1.22-1.84,0-2.54,1.22-.7,3.19-.7,4.41,0,1.22,.7,1.22,1.84,0,2.54Z"/><path class="fc" d="M391.12,23.55c0-1.72-1.39-3.11-3.11-3.11s-3.11,1.4-3.11,3.11h0c0,.46,.3,.92,.91,1.27,1.22,.7,3.19,.7,4.41,0,.61-.35,.91-.81,.91-1.27h0Z"/><path class="fb" d="M386.83,22.23c-.19,.29-.5,.42-.71,.29-.2-.13-.21-.47-.03-.77,.19-.29,.5-.42,.71-.3,.2,.13,.21,.47,.03,.77Z"/></g><g><path class="eu" d="M415.63,35.12c-1.91,1.1-5.01,1.1-6.92,0-1.91-1.1-1.91-2.89,0-4,1.91-1.1,5.01-1.1,6.92,0,1.91,1.1,1.91,2.89,0,4Z"/><path class="fc" d="M417.06,33.12c0-2.7-2.19-4.89-4.9-4.89s-4.89,2.19-4.89,4.89h0c0,.72,.48,1.45,1.43,2,1.91,1.1,5.01,1.1,6.92,0,.96-.55,1.44-1.28,1.44-2h0Z"/><path class="fb" d="M410.32,31.04c-.3,.46-.79,.67-1.11,.46-.32-.2-.34-.74-.04-1.2,.3-.46,.79-.67,1.11-.46,.32,.21,.33,.74,.04,1.2Z"/></g><g><path class="eu" d="M381.88,38.32c-1.66,.96-4.34,.96-5.99,0-1.65-.96-1.65-2.5,0-3.46,1.65-.96,4.34-.96,5.99,0,1.65,.96,1.65,2.5,0,3.46Z"/><path class="fc" d="M383.12,36.59c0-2.34-1.9-4.24-4.24-4.24s-4.24,1.9-4.24,4.24h0c0,.63,.41,1.26,1.24,1.73,1.65,.96,4.33,.96,5.99,0,.82-.48,1.24-1.1,1.24-1.73h0Z"/><path class="fb" d="M377.28,34.79c-.26,.4-.68,.58-.96,.4-.27-.18-.29-.65-.04-1.04,.26-.4,.69-.58,.96-.4,.28,.18,.29,.64,.03,1.04Z"/></g><g><path class="eu" d="M369.6,29.69c-.99,.57-2.58,.57-3.57,0-.98-.57-.98-1.49,0-2.06,.99-.57,2.58-.57,3.57,0,.99,.57,.99,1.49,0,2.06Z"/><path class="fc" d="M370.34,28.66c0-1.39-1.13-2.53-2.52-2.53s-2.52,1.13-2.52,2.53h0c0,.37,.24,.75,.74,1.03,.99,.57,2.58,.57,3.57,0,.49-.28,.74-.66,.74-1.03h0Z"/><path class="fb" d="M366.87,27.59c-.15,.23-.41,.34-.57,.24-.16-.1-.17-.38-.02-.62,.15-.24,.41-.34,.57-.24,.16,.11,.17,.38,.02,.62Z"/></g><g><path class="eu" d="M413.95,24.91c-.98,.57-2.58,.57-3.57,0-.99-.57-.99-1.49,0-2.06,.98-.57,2.58-.57,3.57,0,.99,.57,.99,1.49,0,2.06Z"/><path class="fc" d="M414.69,23.88c0-1.39-1.13-2.52-2.52-2.52s-2.52,1.13-2.52,2.52h0c0,.37,.24,.75,.74,1.03,.98,.57,2.58,.57,3.57,0,.49-.29,.74-.66,.74-1.03h0Z"/><path class="fb" d="M411.22,22.81c-.15,.24-.41,.34-.57,.24-.16-.1-.17-.38-.02-.62,.15-.24,.41-.34,.57-.24,.16,.11,.17,.38,.02,.62Z"/></g><g><path class="eu" d="M395.81,33.39c-1.72,.99-4.5,.99-6.22,0-1.72-.99-1.72-2.6,0-3.59,1.72-1,4.51-1,6.22,0,1.72,.99,1.72,2.6,0,3.59Z"/><path class="fc" d="M397.1,31.6c0-2.43-1.97-4.4-4.4-4.4s-4.4,1.97-4.4,4.4h0c0,.65,.43,1.3,1.29,1.8,1.72,.99,4.51,.99,6.22,0,.86-.5,1.29-1.14,1.29-1.8h0Z"/><path class="fb" d="M391.04,29.73c-.27,.41-.72,.6-1,.42-.29-.18-.3-.67-.04-1.08,.26-.41,.71-.6,1-.41,.29,.18,.3,.66,.04,1.08Z"/></g><g><path class="eu" d="M398.54,23.35c-.46,.26-1.19,.26-1.65,0-.45-.26-.45-.69,0-.95,.46-.27,1.2-.27,1.65,0,.46,.26,.46,.69,0,.95Z"/><path class="fc" d="M398.88,22.87c0-.65-.52-1.17-1.17-1.17s-1.17,.52-1.17,1.17h0c0,.17,.11,.35,.34,.48,.46,.26,1.2,.26,1.65,0,.23-.13,.34-.31,.34-.48h0Z"/><path class="fb" d="M397.27,22.37c-.07,.11-.19,.16-.26,.11-.07-.05-.08-.18-.01-.29,.07-.11,.19-.16,.26-.11,.08,.05,.08,.18,.01,.28Z"/></g><g><path class="eu" d="M401.37,30.12c-.45,.26-1.2,.26-1.65,0-.45-.26-.45-.69,0-.95,.46-.27,1.2-.27,1.65,0,.46,.26,.46,.69,0,.95Z"/><path class="fc" d="M401.72,29.64c0-.64-.53-1.17-1.17-1.17s-1.17,.52-1.17,1.17h0c0,.17,.12,.35,.34,.48,.46,.26,1.2,.26,1.65,0,.23-.13,.34-.31,.34-.48h0Z"/><path class="fb" d="M400.11,29.15c-.07,.11-.19,.16-.27,.11-.08-.05-.08-.18-.01-.29,.07-.11,.19-.16,.27-.11,.08,.05,.08,.18,.01,.29Z"/></g><g><path class="eu" d="M405.3,26.85c-.46,.27-1.2,.27-1.65,0-.46-.26-.46-.69,0-.95,.45-.26,1.19-.26,1.65,0,.46,.26,.46,.69,0,.95Z"/><path class="fc" d="M405.64,26.38c0-.64-.52-1.17-1.17-1.17s-1.17,.52-1.17,1.17h0c0,.17,.12,.35,.34,.48,.45,.27,1.19,.27,1.65,0,.23-.13,.34-.3,.34-.48h0Z"/><path class="fb" d="M404.03,25.88c-.07,.11-.19,.16-.26,.11-.08-.05-.08-.18,0-.29,.07-.11,.19-.16,.26-.11,.08,.05,.08,.18,0,.29Z"/></g><g><path class="eu" d="M419.59,28.59c-.46,.26-1.2,.26-1.65,0-.46-.27-.46-.69,0-.96,.46-.26,1.2-.26,1.65,0,.46,.27,.46,.69,0,.96Z"/><path class="fc" d="M419.93,28.11c0-.64-.52-1.17-1.17-1.17s-1.17,.52-1.17,1.17h0c0,.17,.12,.35,.34,.48,.46,.26,1.2,.26,1.65,0,.23-.13,.34-.3,.34-.48h0Z"/><path class="fb" d="M418.32,27.61c-.07,.11-.19,.16-.26,.11-.07-.05-.08-.18-.01-.29,.07-.11,.19-.16,.26-.11,.08,.05,.08,.18,0,.29Z"/></g><g><path class="eu" d="M396.79,38.86c-.46,.26-1.2,.26-1.65,0-.45-.26-.45-.69,0-.96,.46-.26,1.2-.26,1.65,0,.46,.26,.46,.69,0,.96Z"/><path class="fc" d="M397.13,38.39c0-.64-.53-1.17-1.17-1.17s-1.17,.52-1.17,1.17h0c0,.17,.11,.35,.34,.48,.46,.26,1.2,.26,1.65,0,.23-.13,.34-.3,.34-.48h0Z"/><path class="fb" d="M395.52,37.89c-.07,.11-.19,.16-.26,.11-.08-.05-.08-.18,0-.29,.07-.11,.19-.16,.26-.11,.08,.05,.08,.18,.01,.29Z"/></g><g><path class="eu" d="M369.94,34.4c-.46,.26-1.2,.26-1.65,0-.46-.26-.46-.69,0-.96,.46-.26,1.2-.26,1.65,0,.45,.26,.45,.69,0,.96Z"/><path class="fc" d="M370.28,33.93c0-.65-.52-1.17-1.17-1.17s-1.17,.52-1.17,1.17h0c0,.17,.11,.34,.34,.48,.46,.26,1.2,.26,1.65,0,.23-.13,.34-.3,.34-.48h0Z"/><path class="fb" d="M368.67,33.43c-.07,.11-.19,.16-.26,.11-.08-.05-.08-.18-.01-.29,.07-.11,.19-.16,.27-.11,.08,.05,.08,.18,0,.29Z"/></g><g><path class="eu" d="M384.13,29.79c-.46,.26-1.2,.26-1.65,0-.46-.26-.46-.69,0-.96,.46-.26,1.2-.26,1.65,0,.46,.26,.46,.69,0,.96Z"/><path class="fc" d="M384.48,29.31c0-.65-.52-1.17-1.17-1.17s-1.17,.52-1.17,1.17h0c0,.17,.12,.34,.34,.48,.46,.26,1.2,.26,1.65,0,.23-.13,.34-.31,.34-.48h0Z"/><path class="fb" d="M382.87,28.81c-.07,.11-.19,.16-.26,.11-.08-.05-.08-.18-.01-.29,.07-.11,.19-.16,.27-.11,.08,.05,.08,.17,0,.29Z"/></g><g><path class="eu" d="M386.92,17.84c-.46,.26-1.2,.26-1.65,0-.46-.26-.46-.69,0-.95,.46-.26,1.2-.26,1.65,0,.45,.26,.45,.69,0,.95Z"/><path class="fc" d="M387.26,17.37c0-.65-.52-1.17-1.17-1.17s-1.17,.52-1.17,1.17h0c0,.17,.12,.34,.34,.47,.46,.26,1.2,.26,1.65,0,.23-.13,.34-.31,.34-.47h0Z"/><path class="fb" d="M385.65,16.87c-.07,.11-.19,.16-.26,.11-.08-.05-.08-.18-.01-.29,.07-.11,.19-.16,.26-.11,.08,.05,.08,.18,0,.28Z"/></g><g><path class="eu" d="M370.72,23.35c-.46,.26-1.2,.26-1.65,0-.46-.26-.46-.69,0-.95,.46-.27,1.2-.27,1.65,0,.46,.26,.46,.69,0,.95Z"/><path class="fc" d="M371.06,22.87c0-.65-.52-1.17-1.17-1.17s-1.17,.52-1.17,1.17h0c0,.17,.11,.35,.34,.48,.46,.26,1.2,.26,1.65,0,.23-.13,.34-.31,.34-.48h0Z"/><path class="fb" d="M369.45,22.37c-.07,.11-.19,.16-.26,.11-.07-.05-.08-.18,0-.29,.07-.11,.19-.16,.26-.11,.08,.05,.08,.18,0,.28Z"/></g><g><path class="eu" d="M390.14,38.15c-.69,.4-1.8,.4-2.49,0-.69-.4-.69-1.04,0-1.44,.69-.4,1.8-.4,2.49,0,.69,.4,.69,1.04,0,1.44Z"/><path class="fc" d="M390.66,37.43c0-.97-.79-1.77-1.76-1.77s-1.76,.79-1.76,1.77h0c0,.26,.17,.52,.52,.72,.69,.4,1.8,.4,2.49,0,.34-.2,.52-.46,.52-.72h0Z"/><path class="fb" d="M388.23,36.68c-.11,.17-.29,.24-.4,.17-.11-.07-.12-.27-.01-.43,.11-.17,.28-.24,.4-.17,.12,.07,.12,.27,.02,.43Z"/></g><g><path class="eu" d="M378.71,28.49c-.69,.4-1.8,.4-2.49,0-.69-.4-.69-1.04,0-1.44,.69-.4,1.81-.4,2.49,0,.69,.4,.69,1.04,0,1.44Z"/><path class="fc" d="M379.23,27.77c0-.97-.79-1.76-1.77-1.76s-1.76,.79-1.76,1.76h0c0,.26,.17,.52,.52,.72,.69,.4,1.8,.4,2.49,0,.35-.2,.52-.46,.52-.72h0Z"/><path class="fb" d="M376.8,27.02c-.11,.16-.28,.24-.4,.17-.11-.08-.12-.27-.01-.44,.11-.17,.28-.24,.4-.17,.11,.07,.12,.27,.01,.43Z"/></g><g><path class="eu" d="M394.41,18.44c-.69,.4-1.8,.4-2.49,0-.69-.4-.69-1.05,0-1.44,.69-.4,1.8-.4,2.49,0,.69,.4,.69,1.04,0,1.44Z"/><path class="fc" d="M394.93,17.72c0-.98-.79-1.77-1.76-1.77s-1.76,.79-1.76,1.77h0c0,.26,.17,.52,.52,.72,.69,.4,1.8,.4,2.49,0,.35-.2,.52-.46,.52-.72h0Z"/><path class="fb" d="M392.5,16.97c-.11,.17-.29,.24-.4,.17-.12-.07-.12-.27-.02-.43,.11-.17,.29-.24,.4-.17,.12,.07,.12,.27,.02,.43Z"/></g></g></g><g><g><g id="f"><g id="g"><polygon id="h" class="fr" points="283.02 303.15 162.17 233.38 162.17 241.57 283.02 311.34 283.02 303.15"/><polygon id="i" class="fr" points="350.89 272.16 283.02 311.34 283.02 303.15 350.89 263.97 350.89 272.16"/><polygon id="j" class="fh" points="283.02 303.15 162.17 233.38 230.04 194.2 350.89 263.97 283.02 303.15"/><polygon class="fs" points="245.28 276.53 308.94 241.25 348.37 263.1 284.71 298.39 245.28 276.53"/></g><g id="k"><polygon id="l" class="fh" points="183.81 175.45 162.17 162.95 162.17 233.38 183.81 245.88 183.81 175.45"/><polygon class="fh" points="166.52 230.87 166.52 201.41 179.46 208.88 179.46 238.34 166.52 230.87"/><polygon id="m" class="fr" points="251.51 206.79 183.81 245.88 183.81 175.45 251.51 136.36 251.51 206.79"/><polygon class="gc" points="186.15 176.98 249.18 140.59 249.18 144.12 186.15 180.51 186.15 176.98"/><polygon id="n" class="fs" points="183.81 175.45 162.17 162.95 229.87 123.87 251.51 136.36 183.81 175.45"/></g><g><g id="o"><polygon id="p" class="gh" points="274.14 170.79 269.01 167.82 269.01 219.37 274.14 222.34 274.14 170.79"/><polygon id="q" class="fr" points="276.42 221.02 274.14 222.34 274.14 170.79 276.42 169.47 276.42 221.02"/><polygon id="r" class="fh" points="274.14 170.79 269.01 167.82 271.28 166.51 276.42 169.47 274.14 170.79"/></g><g id="s"><polygon id="t" class="gh" points="314.84 205.82 281.57 186.61 281.57 226.63 314.84 245.83 314.84 205.82"/><polygon id="u" class="fr" points="317.12 244.52 314.84 245.83 314.84 205.82 317.12 204.5 317.12 244.52"/><polygon id="v" class="fh" points="314.84 205.82 281.57 186.61 283.85 185.3 317.12 204.5 314.84 205.82"/></g><g id="w"><polygon id="x" class="gh" points="326.27 214.75 321.14 211.78 321.14 249.47 326.27 252.44 326.27 214.75"/><polygon id="y" class="fr" points="328.55 251.12 326.27 252.44 326.27 214.75 328.55 213.43 328.55 251.12"/><polygon id="a`" class="fh" points="326.27 214.75 321.14 211.78 323.42 210.47 328.55 213.43 326.27 214.75"/></g><g id="aa"><polygon id="ab" class="gh" points="337.34 229.89 332.2 226.92 332.2 255.86 337.34 258.82 337.34 229.89"/><polygon id="ac" class="fr" points="339.61 257.51 337.34 258.82 337.34 229.89 339.61 228.57 339.61 257.51"/><polygon id="ad" class="fh" points="337.34 229.89 332.2 226.92 334.48 225.61 339.61 228.57 337.34 229.89"/></g></g><g id="ae"><polygon id="af" class="fe" points="250.72 260.69 186.13 223.4 186.13 244.61 250.72 281.91 250.72 260.69"/><polygon id="ag" class="gk" points="314.01 245.36 250.72 281.91 250.72 260.69 314.01 224.15 314.01 245.36"/><polygon id="ah" class="fh" points="249.6 258.56 184.26 222.34 248.28 186.85 313.62 223.07 249.6 258.56"/></g><g><path class="dv" d="M271.14,172.17c-.37-.21-.71-.23-.95-.09l-5.11,2.95,1.89,3.24,5.11-2.95c.23-.14,.38-.44,.38-.85,0-.85-.59-1.87-1.33-2.3Z"/><g id="aj"><path class="fi" d="M265.42,170.1c-1.62-.94-3.09-1.01-4.14-.38l-52.43,30.27,8.27,14.16,52.43-30.27c1.03-.61,1.66-1.9,1.66-3.73,0-3.7-2.6-8.19-5.8-10.04Z"/><path id="ak" class="gf" d="M218.79,210.41c0,3.7-2.6,5.2-5.8,3.35-3.2-1.85-5.8-6.34-5.8-10.04s2.6-5.2,5.8-3.35c3.2,1.85,5.8,6.34,5.8,10.04Z"/></g><path class="e`" d="M212.51,206.02c-.37-.21-.71-.23-.95-.09l-5.11,2.95,1.89,3.24,5.11-2.95c.23-.14,.38-.44,.38-.85,0-.85-.59-1.87-1.33-2.3Z"/></g><g><path class="eb" d="M291.12,202.06c-.37-.21-.71-.23-.95-.09l-5.11,2.95,1.89,3.24,5.11-2.95c.23-.14,.38-.44,.38-.85,0-.85-.59-1.87-1.33-2.3Z"/><g id="an"><path class="dw" d="M287.24,202.46c-.8-.46-1.53-.5-2.05-.19l-54.54,31.49,4.1,7.01,54.54-31.49c.51-.3,.82-.94,.82-1.85,0-1.83-1.28-4.06-2.87-4.97Z"/><path id="ap" class="gf" d="M235.58,238.92c0,1.83-1.28,2.57-2.87,1.66-1.58-.92-2.87-3.14-2.87-4.97s1.28-2.57,2.87-1.66c1.58,.92,2.87,3.14,2.87,4.97Z"/></g><path class="dx" d="M232.49,235.91c-.37-.21-.71-.23-.95-.09l-5.11,2.95,1.89,3.24,5.11-2.95c.23-.14,.38-.44,.38-.85,0-.85-.59-1.87-1.33-2.3Z"/></g><g><path class="dy" d="M311.81,206.51c-.37-.21-.71-.23-.95-.09l-5.11,2.95,1.89,3.24,5.11-2.95c.23-.14,.38-.44,.38-.85,0-.85-.59-1.87-1.33-2.3Z"/><g id="as"><path class="ec" d="M307.94,206.91c-.8-.46-1.53-.5-2.05-.19l-54.54,31.49,4.1,7.01,54.54-31.49c.51-.3,.82-.94,.82-1.85,0-1.83-1.28-4.06-2.87-4.97Z"/><path class="fe" d="M307.94,206.91c-.77-.45-1.47-.49-1.98-.22,.07-.05-5.17,1.81-5.17,1.81l-36.49,16.93-18.77,14.78,5.86-2.03c3.11-1.02,6.67,5.68,10.28,13.06,0,0,59.84-28.62,59.72-29.02-6.04-9.49-12.68-14.88-13.45-15.32Z"/><path id="au" class="gf" d="M256.27,243.37c0,1.83-1.28,2.57-2.87,1.66-1.58-.92-2.87-3.14-2.87-4.97s1.28-2.57,2.87-1.66c1.58,.92,2.87,3.14,2.87,4.97Z"/></g><path class="ee" d="M253.18,240.36c-.37-.21-.71-.23-.95-.09l-5.11,2.95,1.89,3.24,5.11-2.95c.23-.14,.38-.44,.38-.85,0-.85-.59-1.87-1.33-2.3Z"/></g><g><path class="ea" d="M334.64,230.62c-.37-.21-.71-.23-.95-.09l-5.11,2.95,1.89,3.24,5.11-2.95c.23-.14,.38-.44,.38-.85,0-.85-.59-1.87-1.33-2.3Z"/><g id="ax"><path class="ed" d="M330.77,231.02c-.8-.46-1.53-.5-2.05-.19l-54.54,31.49,4.1,7.01,54.54-31.49c.51-.3,.82-.94,.82-1.85,0-1.83-1.28-4.06-2.87-4.97Z"/><path id="b`" class="gf" d="M279.1,267.48c0,1.83-1.28,2.57-2.87,1.66s-2.87-3.14-2.87-4.97,1.28-2.57,2.87-1.66,2.87,3.14,2.87,4.97Z"/></g><path class="ei" d="M276.01,264.47c-.37-.21-.71-.23-.95-.09l-5.11,2.95,1.89,3.24,5.11-2.95c.23-.14,.38-.44,.38-.85,0-.85-.59-1.87-1.33-2.3Z"/></g><path class="fe" d="M357.9,254.52s-23.56-21.26-24.66-22.09c-1.32-1-2.78-1.77-4.34-2.31l-8.68-4.52-54.5,31.47,8.68,4.52c1.56,.54,3.03,1.31,4.34,2.31,1.1,.83,24.66,22.09,24.66,22.09l54.5-31.47Z"/><path class="fe" d="M287.9,203.01l-7.13-5.44-53.56,30.92,7.13,5.44s1.69,.97,1.93,3.26l4.24,1.6,33.35-19.26,15.97-13.26c-.24-2.3-1.93-3.26-1.93-3.26Z"/><g><path class="ej" d="M302.72,201.26c-.37-.21-.71-.23-.95-.09l-5.11,2.95,1.89,3.24,5.11-2.95c.23-.14,.38-.44,.38-.85,0-.85-.59-1.87-1.33-2.3Z"/><g id="bc"><path class="eh" d="M298.85,201.66c-.8-.46-1.53-.5-2.05-.19l-54.54,31.49,4.1,7.01,54.54-31.49c.51-.3,.82-.94,.82-1.85,0-1.83-1.28-4.06-2.87-4.97Z"/><path id="be" class="gf" d="M247.18,238.12c0,1.83-1.28,2.57-2.87,1.66-1.58-.92-2.87-3.14-2.87-4.97s1.28-2.57,2.87-1.66c1.58,.91,2.87,3.14,2.87,4.97Z"/></g><path class="eg" d="M244.09,235.11c-.37-.21-.71-.23-.95-.09l-5.11,2.95,1.89,3.24,5.11-2.95c.23-.14,.38-.44,.38-.85,0-.85-.59-1.87-1.33-2.3Z"/></g><g><path class="ef" d="M323.51,215.33c-.37-.21-.71-.23-.95-.09l-5.11,2.95,1.89,3.24,5.11-2.95c.23-.14,.38-.44,.38-.85,0-.85-.59-1.87-1.33-2.3Z"/><g id="bh"><path class="ek" d="M317.78,213.26c-1.62-.94-3.09-1.01-4.14-.38l-52.43,30.27,8.27,14.16,52.43-30.27c1.03-.61,1.66-1.9,1.66-3.73,0-3.7-2.6-8.19-5.8-10.04Z"/><path id="bj" class="gf" d="M271.15,253.57c0,3.7-2.6,5.2-5.8,3.35-3.2-1.85-5.8-6.34-5.8-10.04s2.6-5.2,5.8-3.35c3.2,1.85,5.8,6.34,5.8,10.04Z"/></g><path class="em" d="M264.88,249.18c-.37-.21-.71-.23-.95-.09l-5.11,2.95,1.89,3.24,5.11-2.95c.23-.14,.38-.44,.38-.85,0-.85-.59-1.87-1.33-2.3Z"/></g><g id="bl"><polygon id="bm" class="gh" points="193.54 187.51 190.29 185.64 190.29 179.57 193.54 181.44 193.54 187.51"/><polygon id="bn" class="fr" points="249 155.49 193.54 187.51 193.54 181.44 249 149.42 249 155.49"/><polygon class="gh" points="194.81 182.18 247.73 151.62 247.73 154.76 194.81 185.31 194.81 182.18"/><polygon id="bo" class="fh" points="193.54 181.44 190.29 179.57 245.75 147.54 249 149.42 193.54 181.44"/></g><path class="fe" d="M270.23,175.37c-.79-1.72-1.96-3.22-3.42-4.42-5.56-4.56-19.87-16.27-22.1-17.56l-49.97,28.85v2.76l18.8,15.52c2.7,2.23,4.65,5.24,5.56,8.63l6.01,16.1,54.15-28.73c-2.66-7.19-6.94-16.64-9.03-21.15Z"/><g><path class="el" d="M284.06,190.49c-.37-.21-.71-.23-.95-.09l-5.11,2.95,1.89,3.24,5.11-2.95c.23-.14,.38-.44,.38-.85,0-.85-.59-1.87-1.33-2.3Z"/><g id="bq"><path class="eo" d="M280.18,190.89c-.8-.46-1.53-.5-2.05-.19l-54.54,31.49,4.1,7.01,54.54-31.49c.51-.3,.82-.94,.82-1.85,0-1.83-1.28-4.06-2.87-4.97Z"/><path id="bs" class="gf" d="M228.51,227.34c0,1.83-1.28,2.57-2.87,1.66-1.58-.92-2.87-3.14-2.87-4.97s1.28-2.57,2.87-1.66c1.58,.92,2.87,3.14,2.87,4.97Z"/></g><path class="en" d="M225.43,224.34c-.37-.21-.71-.23-.95-.09l-5.11,2.95,1.89,3.24,5.11-2.95c.23-.14,.38-.44,.38-.85,0-.85-.59-1.87-1.33-2.3Z"/></g><g><g id="bu"><polygon id="bv" class="fh" points="208.58 208.64 203.44 205.68 203.44 257.23 208.58 260.19 208.58 208.64"/><polygon id="bw" class="fr" points="210.86 258.88 208.58 260.19 208.58 208.64 210.86 207.33 210.86 258.88"/><polygon id="bx" class="fh" points="208.58 208.64 203.44 205.68 205.72 204.36 210.86 207.33 208.58 208.64"/></g><g id="by"><polygon id="c`" class="fh" points="249.27 243.67 216.01 224.47 216.01 264.48 249.27 283.69 249.27 243.67"/><polygon class="fe" points="220.36 261.97 220.36 232.01 244.92 246.19 244.92 276.15 220.36 261.97"/><polygon id="ca" class="fr" points="251.55 282.37 249.27 283.69 249.27 243.67 251.55 242.36 251.55 282.37"/><polygon id="cb" class="fh" points="249.27 243.67 216.01 224.47 218.29 223.15 251.55 242.36 249.27 243.67"/></g><g id="cc"><polygon id="cd" class="gh" points="260.71 252.6 255.57 249.64 255.57 287.33 260.71 290.29 260.71 252.6"/><polygon id="ce" class="fr" points="262.99 288.97 260.71 290.29 260.71 252.6 262.99 251.29 262.99 288.97"/><polygon id="cf" class="fh" points="260.71 252.6 255.57 249.64 257.85 248.32 262.99 251.29 260.71 252.6"/></g><g id="cg"><polygon id="ch" class="gh" points="271.77 267.74 266.64 264.77 266.64 293.71 271.77 296.68 271.77 267.74"/><polygon id="ci" class="fr" points="274.05 295.36 271.77 296.68 271.77 267.74 274.05 266.42 274.05 295.36"/><polygon id="cj" class="fh" points="271.77 267.74 266.64 264.77 268.91 263.46 274.05 266.42 271.77 267.74"/></g></g><path class="go" d="M194.74,182.24v1.41l50.11-28.94h1.86c-.93-.65-1.63-1.12-2-1.33l-49.97,28.85Z"/></g><g id="ck"><g><g><g id="cl"><polygon id="cm" class="gh" points="322.36 325.67 304.45 315.32 304.45 320.82 322.36 331.16 322.36 325.67"/><polygon id="cn" class="fr" points="376.92 299.66 322.36 331.16 322.36 325.67 376.92 294.17 376.92 299.66"/><polygon id="co" class="fh" points="322.36 325.67 304.45 315.32 359 283.82 376.92 294.17 322.36 325.67"/></g><g id="cp"><polygon id="cq" class="gh" points="364.98 244.29 359.35 241.04 359.35 285.82 364.98 289.07 364.98 244.29"/><polygon id="cr" class="fr" points="366.51 288.19 364.98 289.07 364.98 244.29 366.51 243.4 366.51 288.19"/><polygon id="cs" class="fh" points="364.98 244.29 359.35 241.04 360.88 240.15 366.51 243.4 364.98 244.29"/></g><g id="ct"><path class="fe" d="M299.83,256.07l47.08-27.18c2.76-1.54,6.55-1.28,10.72,1.13,8.45,4.88,15.3,16.75,15.3,26.51,0,4.94-1.75,8.39-4.58,9.96l-47.08,27.18-21.44-37.6Z"/><path class="gp" d="M309.76,273.48l57.86-33.41c-2.68-4.22-6.16-7.86-9.98-10.06-.08-.04-.15-.08-.23-.12l-54.54,31.49,6.9,12.09Z"/><path id="cv" class="ft" d="M325.86,283.71c0-9.76-6.85-21.63-15.3-26.51-3.74-2.16-7.17-2.59-9.83-1.55-3.35,1.31-5.48,4.95-5.48,10.39,0,9.76,6.85,21.63,15.3,26.51,4.52,2.61,8.58,2.69,11.38,.71,2.44-1.72,3.92-5.01,3.92-9.55Z"/><path id="cw" class="fp" d="M313.65,276.66c0-1.97-1.39-4.37-3.1-5.36-1.71-.99-3.1-.19-3.1,1.79s1.39,4.37,3.1,5.36c1.71,.99,3.1,.19,3.1-1.79Z"/><path id="cx" class="fg" d="M312.6,276.05c0-1.3-.92-2.89-2.04-3.54-1.13-.65-2.04-.12-2.04,1.18,0,1.3,.92,2.89,2.04,3.54,1.13,.65,2.04,.12,2.04-1.18Z"/></g><g id="cy"><polygon id="d`" class="gh" points="311.97 274.89 306.34 271.64 306.34 316.43 311.97 319.68 311.97 274.89"/><polygon id="da" class="fr" points="313.5 318.79 311.97 319.68 311.97 274.89 313.5 274.01 313.5 318.79"/><polygon id="db" class="fh" points="311.97 274.89 306.34 271.64 307.87 270.76 313.5 274.01 311.97 274.89"/></g><g id="dc"><polygon id="dd" class="fr" points="322.37 325.67 337.59 316.88 337.59 314.01 322.37 322.8 322.37 325.67"/><polygon id="de" class="gh" points="311.97 319.67 322.37 325.67 322.37 322.8 311.97 316.8 311.97 319.67"/><polygon id="df" class="fs" points="322.37 322.8 337.59 314.01 327.2 308.01 311.97 316.8 322.37 322.8"/></g></g><g id="dg"><polygon id="dh" class="fe" points="298.67 320.68 309.21 326.76 309.21 292.82 298.67 286.74 298.67 320.68"/><polygon id="di" class="fr" points="311.97 325.17 309.21 326.76 309.21 292.82 311.97 291.22 311.97 325.17"/><polygon id="dj" class="fh" points="309.21 292.82 298.67 286.74 301.43 285.14 311.97 291.22 309.21 292.82"/></g></g><g id="dk"><polygon id="dl" class="gh" points="381.07 305.35 372.77 300.56 372.77 302.06 381.07 306.85 381.07 305.35"/><polygon id="dm" class="fr" points="385.22 304.46 381.07 306.85 381.07 305.35 385.22 302.95 385.22 304.46"/><polygon id="dn" class="fh" points="381.07 305.35 372.77 300.56 376.92 298.16 385.22 302.95 381.07 305.35"/></g><g id="do"><polygon id="dp" class="gh" points="330.66 334.46 322.36 329.66 322.36 331.17 330.66 335.96 330.66 334.46"/><polygon id="dq" class="fr" points="334.81 333.56 330.66 335.96 330.66 334.46 334.81 332.06 334.81 333.56"/><polygon id="dr" class="fh" points="330.66 334.46 322.36 329.66 326.51 327.27 334.81 332.06 330.66 334.46"/></g></g></g><g><g><ellipse class="et" cx="274.62" cy="308.49" rx="9.24" ry="16.01" transform="translate(-35.36 581.43) rotate(-89.69)"/><path class="fh" d="M263.26,305.34c6.23-3.6,16.37-3.58,22.64,.04,2.4,1.38,3.88,3.09,4.45,4.88,.94-2.9-.55-6.02-4.45-8.27-6.27-3.62-16.41-3.64-22.64-.04-3.85,2.22-5.31,5.31-4.38,8.19,.57-1.76,2.03-3.44,4.38-4.8Z"/></g><g><path class="ep" d="M267.62,299.37l-.07,.04v.84c1.68-.49,3.47-.79,5.3-.91v-3.08l4.61-2.66-9.26,5.35-.58,.42Z"/><path class="ep" d="M283.63,300.84v-1.3l4.61-2.66-6.02,3.47c.48,.15,.95,.31,1.41,.49Z"/><path class="fe" d="M272.86,299.34c.71-.05,1.43-.07,2.15-.06l2.46-1.44v-4.23l-4.61,2.66v3.08Z"/><path class="fe" d="M274.87,299.36l.14-.08c-.72,0-1.43,.01-2.15,.06v.05s-.03,.09-.03,.14c0,.06,.02,.12,.03,.18,.09,.37,.47,.68,1,.88,.07-.2,.17-.38,.29-.55,.19-.27,.42-.5,.71-.67Z"/><path class="gl" d="M276.32,290.28c-.71-.41-1.59-.41-2.3,0l-9.91,5.81c-.29,.17-.52,.41-.71,.67-.27,.38-.44,.84-.44,1.32v16.59c.19,.12,.36,.24,.56,.36,1.22,.7,2.59,1.27,4.05,1.7v-17.32l.07-.04,.58-.42,9.26-5.35v-1.33c0-.82-.44-1.58-1.15-2Z"/><path class="fe" d="M283.63,300.84c.86,.33,1.68,.72,2.44,1.16,.74,.42,1.38,.88,1.94,1.36,.1-.12,.18-.24,.22-.37,.02-.06,.03-.12,.03-.19,0-.05-.02-.09-.03-.14v-5.78l-4.61,2.66v1.3Z"/><path class="fe" d="M283.63,300.84v1.82s-.03,.09-.03,.14c0,.06,.02,.12,.03,.18,.16,.62,1.12,1.11,2.3,1.11,.92,0,1.71-.3,2.08-.73-.56-.48-1.21-.94-1.94-1.36-.76-.44-1.58-.82-2.44-1.16Z"/><path class="gl" d="M287.09,293.55c-.71-.41-1.59-.41-2.3,0l-7.31,4.28-2.46,1.44-.14,.08c-.29,.17-.52,.41-.71,.67-.12,.17-.22,.36-.29,.55-.09,.24-.15,.5-.15,.77v16.37c1.54,.07,3.09,0,4.61-.19v-14.85l.07-.04,.58-.42,3.25-1.88,6.02-3.47v-1.33c0-.82-.44-1.58-1.15-2Z"/></g><path class="fb" d="M275.63,291.77l-1.44-.31c-.14-.03-.29,.05-.33,.19-.04,.15,.05,.3,.2,.33l.65,.14c.07,.02,.09,.11,.03,.15l-1.43,.93c-.12,.08-.17,.24-.1,.36,.08,.13,.25,.17,.38,.09l1.44-.93c.06-.04,.14,.01,.13,.09l-.14,.64c-.03,.14,.05,.29,.19,.33,.15,.04,.3-.05,.33-.2l.31-1.46c.03-.16-.07-.31-.22-.35Z"/><polyline class="eq" points="272.84 293.85 265.58 298.29 265.4 315.3"/><path class="fb" d="M276.45,317.14l1.05-1.03c.1-.1,.12-.27,.02-.38-.1-.11-.28-.12-.39-.01l-.48,.47c-.05,.05-.14,.01-.14-.06v-1.7c.01-.14-.09-.27-.24-.28-.15,0-.28,.11-.28,.26v1.72c-.01,.08-.1,.11-.16,.06l-.46-.46c-.1-.1-.27-.12-.38-.02-.11,.1-.12,.28-.01,.39l1.04,1.06c.11,.11,.3,.12,.41,0Z"/><polyline class="eq" points="276.31 313.8 276.31 300.84 285.95 295.29"/></g></g><g><path class="fb" d="M210.24,349.03c-.06-.29-.15-.59-.25-.95-4.24,.68-4.88,.82-5.3,1.04-.09-.34-.34-1.16-.53-1.6,.42-.09,.89-.57,1.5-1.25,.3-.3,.89-1.01,1.56-1.9-1.94,.21-2.37,.32-2.66,.46-.09-.34-.34-1.12-.53-1.54,.36-.09,.7-.47,1.12-1.03s1.79-2.68,2.6-4.73l1.58,.67c-.82,1.69-1.9,3.44-2.96,4.83l1.92-.15c.53-.8,1.06-1.65,1.5-2.51l1.46,.93c-1.25,2.07-2.79,4.12-4.35,5.79l2.66-.36c-.19-.55-.4-1.08-.61-1.56l1.31-.47c.55,1.22,1.16,2.81,1.39,3.78l-1.41,.55Zm-3.84,1.06c-.15,1.65-.49,3.44-.89,4.6-.32-.17-1.06-.42-1.44-.53,.44-1.12,.7-2.81,.86-4.33l1.48,.27Zm2.17-.38c.23,1.27,.44,2.89,.51,3.97l-1.46,.3c-.04-1.08-.25-2.74-.46-4.01l1.41-.27Zm2.03-.57c.4,1.03,.8,2.36,.97,3.25l-1.37,.48c-.15-.89-.55-2.28-.89-3.33l1.29-.4Zm7.64-2.56c.3,3.97,.91,6.63,1.69,6.63,.32,0,.47-.95,.51-2.93,.36,.36,.93,.7,1.37,.85-.23,2.91-.74,3.71-2.01,3.71-1.92,0-2.79-3.44-3.15-8.26h-2.98v6.1l2.89-.89c.02,.47,.11,1.16,.19,1.54-3.65,1.23-4.25,1.52-4.62,1.8-.13-.4-.53-1.04-.78-1.35,.3-.21,.68-.68,.68-1.54v-12.77c2.79-.38,5.96-1.01,7.9-1.63l1.25,1.42c-.93,.29-1.99,.55-3.12,.76-.02,1.73,0,3.4,.08,4.9h3.25v1.65h-3.15Zm-1.71-1.65c-.08-1.44-.11-3-.13-4.6-.91,.17-1.84,.3-2.74,.42v4.18h2.87Z"/><path class="fb" d="M240.01,340.56s0,.61-.02,.84c-.27,8.57-.49,11.51-1.25,12.46-.47,.63-.93,.8-1.65,.89-.67,.08-1.79,.06-2.87,0-.04-.48-.25-1.22-.57-1.71,1.22,.09,2.32,.11,2.79,.11,.38,0,.59-.06,.8-.32,.61-.63,.86-3.5,1.1-10.66h-4.48c-.53,1.22-1.12,2.32-1.73,3.19-.28-.27-.95-.74-1.39-.99v8.72h-5.15v1.44h-1.61v-13.89h2.13c.27-.91,.55-2.17,.67-3.08l1.92,.32c-.32,.95-.68,1.96-.99,2.75h3.04v3.59c1.25-1.63,2.26-4.16,2.83-6.67l1.71,.4c-.23,.87-.48,1.75-.78,2.58h5.51Zm-14.42,1.63v3.61h3.53v-3.61h-3.53Zm3.53,9.35v-4.2h-3.53v4.2h3.53Zm6.33-1.48c-.53-1.16-1.77-3.02-2.77-4.39l1.39-.78c1.01,1.31,2.3,3.12,2.87,4.24l-1.48,.93Z"/><path class="fb" d="M259.6,350.59h-2.24v2.43c0,.97-.23,1.48-.91,1.75-.68,.29-1.75,.3-3.36,.3-.09-.47-.38-1.23-.65-1.67,1.16,.04,2.39,.02,2.7,.02,.36-.02,.47-.11,.47-.42v-2.41h-9.56v4.48h-1.75v-4.48h-2.18v-1.63h2.18v-7.03h5.58v-1.6h-7.05v-1.63h16.01v1.63h-7.22v1.6h5.72v7.03h2.24v1.63Zm-13.54-7.07v1.94h3.84v-1.94h-3.84Zm0,5.43h3.84v-1.99h-3.84v1.99Zm5.59-5.43v1.94h3.97v-1.94h-3.97Zm3.97,5.43v-1.99h-3.97v1.99h3.97Z"/><path class="fb" d="M278.31,352.76v1.71h-16.87v-1.71h7.52v-4.37h-5.41v-1.69h5.41v-3.8h-4.22c-.59,1.14-1.22,2.15-1.88,2.94-.36-.3-1.14-.82-1.61-1.06,1.54-1.62,2.74-4.22,3.44-6.88l1.82,.42c-.29,.97-.63,1.94-.99,2.85h3.44v-3.53h1.82v3.53h6.61v1.73h-6.61v3.8h5.91v1.69h-5.91v4.37h7.52Z"/><path class="fb" d="M285.17,342.33c-.38,.7-.84,1.44-1.35,2.15v10.58h-1.6v-8.57c-.49,.57-1.01,1.08-1.48,1.52-.13-.38-.61-1.27-.87-1.71,1.39-1.14,2.85-2.87,3.78-4.58l1.52,.61Zm-.38-4.12c-.97,1.58-2.47,3.32-3.86,4.43-.19-.34-.63-1.03-.91-1.33,1.2-.95,2.51-2.47,3.17-3.69l1.6,.59Zm8.51,5.26v1.8h3.17v9.75h-1.71v-.82h-4.62v.82h-1.65v-9.75h3.1v-1.8h-3.7v1.8c0,3.15-.23,6.99-1.96,9.78-.3-.25-.91-.61-1.33-.78,1.56-2.58,1.75-6.21,1.75-9v-6.14c3.15-.29,6.84-.76,9-1.29l1.35,1.25c-2.43,.57-5.81,.99-8.81,1.24v1.71h3.7v-1.79h1.71v1.79h4.1v1.42h-4.1Zm1.46,3.19h-4.62v1.25h4.62v-1.25Zm0,2.47h-4.62v1.22h4.62v-1.22Zm0,3.72v-1.29h-4.62v1.29h4.62Z"/><path class="fb" d="M316.16,350.69c-.78,.44-1.67,.91-2.45,1.27,.82,.72,1.82,1.23,2.96,1.56-.34,.3-.82,.93-1.03,1.35-2.58-.85-4.31-2.72-5.28-5.21-.59,.53-1.33,1.06-2.09,1.5v1.94l2.93-.63c-.04,.38-.04,.99,0,1.29-3.55,.85-4.1,1.04-4.45,1.25v-.02c-.11-.34-.36-.95-.59-1.23,.27-.13,.68-.46,.68-1.22v-.63c-.61,.29-1.25,.55-1.84,.74-.19-.32-.53-.78-.84-1.08-1.73,.53-3.48,1.04-4.92,1.44l-.34-1.61c.61-.13,1.29-.32,2.05-.53v-5.03h-1.65v-1.54h1.65v-3.91h-1.81v-1.58h5.07v1.58h-1.73v3.91h1.52v1.54h-1.52v4.62c.53-.15,1.08-.32,1.62-.47l.19,1.37c1.46-.4,3.08-1.08,4.29-1.88h-2.56v-4.01h9.14v4.01h-3.32c.25,.57,.59,1.1,.99,1.58,.76-.44,1.61-1.01,2.15-1.42l1.18,1.06Zm.11-6.1h-11.42v-1.41h11.42v1.41Zm-.61-2.22h-10.07v-4.1h10.07v4.1Zm-7.1-2.85h-1.52v1.62h1.52v-1.62Zm-.95,8.68h5.89v-1.46h-5.89v1.46Zm3.72-8.68h-1.56v1.62h1.56v-1.62Zm2.81,0h-1.62v1.62h1.62v-1.62Z"/></g><g><rect class="fb" x="135.69" y="462.94" width="73" height="30" rx="6" ry="6"/><g><path class="fo" d="M162.29,471.02v14.96h-1.7v-.92h-10.86v.92h-1.63v-14.96h14.19Zm-1.7,12.56v-10.95h-10.86v10.95h10.86Zm-2.11-8.62v6.24h-6.7v-6.24h6.7Zm-1.58,1.39h-3.62v3.47h3.62v-3.47Z"/><path class="fo" d="M169.13,470.65h1.56v15.35h-1.56v-4.52c-2.91,1.02-3.43,1.31-3.79,1.58-.1-.39-.39-1.09-.61-1.44,.25-.17,.59-.48,.59-1.16v-8.21h1.55v8.41l2.26-.71v-9.3Zm9.67,4.44c-.46,2.6-1.14,4.76-2.19,6.54,.97,1.29,2.11,2.31,3.48,3.01-.37,.27-.85,.87-1.09,1.27-1.27-.73-2.38-1.73-3.3-2.94-.95,1.22-2.14,2.24-3.64,3.06-.17-.34-.71-1-1.04-1.31,1.6-.76,2.84-1.8,3.79-3.13-.75-1.27-1.34-2.74-1.85-4.3-.32,.65-.71,1.22-1.12,1.72-.22-.32-.78-1.02-1.12-1.34,1.45-1.68,2.29-4.4,2.75-7.29l1.62,.27c-.17,1-.39,1.99-.66,2.94h5.51v1.5h-1.14Zm-4.98,.36c.44,1.72,1.05,3.33,1.85,4.74,.73-1.43,1.22-3.13,1.55-5.1h-3.26l-.14,.36Z"/><path class="fo" d="M186.86,480.59c-.05-.25-.14-.53-.22-.85-3.79,.61-4.37,.73-4.74,.93-.08-.31-.31-1.04-.48-1.43,.37-.08,.8-.51,1.34-1.12,.27-.27,.8-.9,1.39-1.7-1.73,.19-2.12,.29-2.38,.41-.08-.31-.31-1-.48-1.38,.32-.08,.63-.43,1-.92,.37-.49,1.6-2.4,2.33-4.23l1.41,.59c-.73,1.51-1.7,3.08-2.65,4.32l1.72-.14c.48-.71,.95-1.48,1.34-2.24l1.31,.83c-1.12,1.85-2.5,3.69-3.89,5.18l2.38-.32c-.17-.49-.36-.97-.54-1.39l1.17-.42c.49,1.09,1.04,2.52,1.24,3.38l-1.26,.49Zm-3.43,.95c-.14,1.48-.44,3.08-.8,4.11-.29-.15-.95-.37-1.29-.48,.39-1,.63-2.52,.77-3.88l1.33,.24Zm1.94-.34c.2,1.14,.39,2.58,.46,3.55l-1.31,.27c-.03-.97-.22-2.45-.41-3.59l1.26-.24Zm1.82-.51c.36,.92,.71,2.11,.87,2.91l-1.22,.42c-.14-.8-.49-2.04-.8-2.97l1.16-.36Zm6.83-2.29c.27,3.55,.82,5.93,1.51,5.93,.29,0,.42-.85,.46-2.62,.32,.32,.83,.63,1.22,.76-.2,2.6-.66,3.32-1.8,3.32-1.72,0-2.5-3.08-2.82-7.39h-2.67v5.46l2.58-.8c.02,.42,.1,1.04,.17,1.38-3.26,1.11-3.81,1.36-4.13,1.62-.12-.36-.48-.94-.7-1.21,.27-.19,.61-.61,.61-1.38v-11.42c2.5-.34,5.34-.9,7.07-1.46l1.12,1.27c-.83,.26-1.78,.49-2.79,.68-.02,1.55,0,3.04,.07,4.39h2.91v1.48h-2.82Zm-1.53-1.48c-.07-1.29-.1-2.69-.12-4.11-.82,.15-1.65,.27-2.45,.37v3.74h2.57Z"/></g></g><g><rect class="fb" x="136.69" y="109.94" width="60" height="30" rx="6" ry="6"/><g><path class="fo" d="M155.23,125.33c-.39,1.6-.97,3.26-1.65,4.54,.27,.19,.59,.42,1.02,.7,1.17,.71,2.72,.82,4.69,.82,2.07,0,4.91-.15,6.8-.39-.19,.44-.44,1.21-.46,1.63-1.33,.08-4.4,.19-6.41,.19-2.21,0-3.65-.19-4.9-.9-.68-.39-1.29-.99-1.65-.99s-.97,1.1-1.41,2.14l-1.07-1.48c.7-.94,1.41-1.65,2.02-1.94,.46-.88,.9-2.04,1.19-3.18h-2.31c.42-.99,.93-2.35,1.39-3.64h-2.04v-1.43h3.96c-.39,1.17-.9,2.53-1.34,3.69h1.21l.24-.07,.71,.31Zm-2.82-4.56c-.2-.73-.63-1.89-.9-2.77l1.45-.41c.31,.87,.71,1.97,.93,2.69l-1.48,.49Zm4.83-.02c-.39,.63-.8,1.19-1.22,1.65-.29-.24-.97-.61-1.33-.76,1.05-1,1.94-2.53,2.43-4.06l1.48,.34c-.17,.49-.37,1-.61,1.48h1.63v-2.02h1.56v2.02h3.88v1.36h-3.88v1.84h4.61v1.34h-10.84v-1.34h4.67v-1.84h-2.38Zm5.75,9.52v-.51h-5.18v.56h-1.51v-5.25h8.28v5.2h-1.58Zm0-1.85v-2.09h-5.18v2.09h5.18Z"/><path class="fo" d="M172.86,127.59c-.05-.25-.14-.53-.22-.85-3.79,.61-4.37,.73-4.74,.93-.08-.31-.31-1.04-.48-1.43,.37-.08,.8-.51,1.34-1.12,.27-.27,.8-.9,1.39-1.7-1.73,.19-2.12,.29-2.38,.41-.08-.31-.31-1-.48-1.38,.32-.08,.63-.43,1-.92,.37-.49,1.6-2.4,2.33-4.23l1.41,.59c-.73,1.51-1.7,3.08-2.65,4.32l1.72-.14c.48-.71,.95-1.48,1.34-2.24l1.31,.83c-1.12,1.85-2.5,3.69-3.89,5.18l2.38-.32c-.17-.49-.36-.97-.54-1.39l1.17-.42c.49,1.09,1.04,2.52,1.24,3.38l-1.26,.49Zm-3.43,.95c-.14,1.48-.44,3.08-.8,4.11-.29-.15-.95-.37-1.29-.48,.39-1,.63-2.52,.77-3.88l1.33,.24Zm1.94-.34c.2,1.14,.39,2.58,.46,3.55l-1.31,.27c-.03-.97-.22-2.45-.41-3.59l1.26-.24Zm1.82-.51c.36,.92,.71,2.11,.87,2.91l-1.22,.42c-.14-.8-.49-2.04-.8-2.97l1.16-.36Zm6.83-2.29c.27,3.55,.82,5.93,1.51,5.93,.29,0,.42-.85,.46-2.62,.32,.32,.83,.63,1.22,.76-.2,2.6-.66,3.32-1.8,3.32-1.72,0-2.5-3.08-2.82-7.39h-2.67v5.46l2.58-.8c.02,.42,.1,1.04,.17,1.38-3.26,1.11-3.81,1.36-4.13,1.62-.12-.36-.48-.94-.7-1.21,.27-.19,.61-.61,.61-1.38v-11.42c2.5-.34,5.34-.9,7.07-1.46l1.12,1.27c-.83,.26-1.78,.49-2.79,.68-.02,1.55,0,3.04,.07,4.39h2.91v1.48h-2.82Zm-1.53-1.48c-.07-1.29-.1-2.69-.12-4.11-.82,.15-1.65,.27-2.45,.37v3.74h2.57Z"/></g></g><g><rect class="fb" x="37.69" y="211.94" width="60" height="30" rx="6" ry="6"/><g><path class="fo" d="M66.97,233.19v1.29h-12.46v-1.29h5.34v-1.39h-3.77v-1.24h3.77v-1.24h-3.2c-.49,.83-1.07,1.6-1.68,2.16-.12-.29-.51-1.07-.76-1.39-.15,1.75-.59,3.69-1.77,5.07-.24-.29-.9-.85-1.21-1,1.36-1.63,1.51-3.93,1.51-5.64v-3.3h2.18c-.22-.24-.49-.53-.7-.68,1.29-.22,2.77-.54,4.16-.88-1.22-.34-2.45-.65-3.57-.88l.87-.66h-2.8v-1.24h6.05c-.24-.39-.51-.78-.78-1.1l1.11-.53c.42,.48,.92,1.12,1.19,1.63h5.76v1.24h-2.53l.75,.48c-.7,.34-1.51,.68-2.4,1,1.14,.32,2.19,.66,3.03,.95l-.78,.68h2.46v1.29h-12.46v2.02c0,.49-.02,1.02-.07,1.56,.9-.85,1.7-2.07,2.16-3.37l1.36,.39c-.12,.32-.25,.63-.41,.95h2.53v-1.26h1.56v1.26h4.4v1.26h-4.4v1.24h3.96v1.24h-3.96v1.39h5.56Zm-3.45-7.99c-.9-.32-2.06-.68-3.28-1.05-1.39,.42-2.82,.77-4.15,1.05h7.43Zm-7.07-3.11c1.24,.29,2.58,.63,3.88,.99,1-.31,1.9-.63,2.62-.99h-6.49Z"/><path class="fo" d="M69.1,227.53h6.15v7.33h-1.56v-.76h-3.09v.88h-1.5v-7.45Zm1.5,1.51v3.54h3.09v-3.54h-3.09Zm10.4-3.16h-9.5v-5.8h9.5v5.8Zm-1.62-4.28h-6.37v2.77h6.37v-2.77Zm4,5.93v7.36h-1.58v-.8h-3.37v.88h-1.51v-7.45h6.46Zm-1.58,5.05v-3.54h-3.37v3.54h3.37Z"/></g></g><g><rect class="fb" x="361.69" y="44.94" width="60" height="30" rx="6" ry="6"/><g><path class="fo" d="M390,63.61c-.87,.59-1.92,1.19-2.87,1.61,1.07,.61,2.36,1.05,3.86,1.29-.32,.29-.68,.87-.88,1.26-3.4-.66-5.63-2.26-6.9-4.88-.77,.58-1.7,1.12-2.74,1.58v1.77l3.55-.75c-.05,.36-.08,.9-.07,1.17-4.27,1-4.81,1.16-5.15,1.38v-.12c-.1-.34-.34-.82-.51-1.04,.29-.19,.73-.56,.73-1.38v-.48c-.92,.34-1.87,.59-2.79,.76-.19-.32-.56-.87-.85-1.14,2.04-.32,4.25-1,5.81-1.87h-5.52v-1.26h7c-.14-.34-.31-.68-.48-.99l.32-.08c-.27,.02-.56,.02-.92,.02-.07-.32-.25-.7-.41-.97,.49,.02,.9,.02,1.04,.02,.15-.02,.19-.05,.19-.19v-1h-1.77v2.65h-1.36v-2.65h-1.67v2.23h-1.24v-3.25h2.91v-.75h-3.69v-1.11h1.12c-.27-.19-.73-.42-.99-.53,.58-.68,1.05-1.61,1.34-2.53l1.21,.31c-.1,.27-.2,.54-.31,.82h1.31v-1.16h1.36v1.16h2.89v1.07h-2.89v.87h3.42v1.11h-3.42v.75h3.06v2.01c0,.48-.07,.71-.32,.9l.29-.08c.25,.42,.53,.93,.71,1.39h6.32v1.26h-6.08c.39,.63,.87,1.21,1.44,1.68,.97-.48,2.07-1.17,2.79-1.68l1.14,.82Zm-10.71-8.14v-.87h-1.85c-.19,.32-.39,.61-.56,.87h2.41Zm7.38,3.31h-1.43v-5.56h1.43v5.56Zm3.23,.61c0,.75-.15,1.1-.68,1.29-.51,.22-1.31,.24-2.5,.24-.07-.37-.29-.92-.48-1.28,.85,.03,1.67,.03,1.9,.02,.25,0,.32-.07,.32-.29v-6.85h1.43v6.87Z"/><path class="fo" d="M395.07,58.56c-.19,1.65-.65,2.89-2.01,3.64-.15-.31-.53-.76-.8-.99,1-.56,1.34-1.44,1.48-2.65h-1.21v-1.24h3.86v-.92h-2.94v-3.52h1.28v2.31h1.67v-2.82h1.41v9.66h-1.41v-3.47h-1.33Zm3.4,4.5c-.87,2.45-2.91,3.88-5.29,4.57-.17-.36-.54-.92-.82-1.22,1.63-.39,3.13-1.21,4.01-2.41h-3.21v-1.24h4.08l.27-.05,.95,.36Zm8.38-.37c-1.05,.71-2.35,1.48-3.4,1.99,1.19,.77,2.74,1.29,4.52,1.51-.32,.34-.75,.97-.93,1.39-2.75-.51-4.78-1.63-6.14-3.42v2.21c0,.75-.12,1.14-.66,1.36-.51,.22-1.31,.24-2.4,.24-.07-.41-.27-1-.49-1.39,.78,.03,1.51,.02,1.72,.02,.24-.02,.29-.07,.29-.25v-5.13h1.55v.6c.37,.8,.88,1.5,1.53,2.09,1.05-.56,2.33-1.41,3.09-2.07l1.33,.87Zm-7.89-4.95c-.14-.32-.39-.68-.59-.94,1.61-.15,3.14-.49,4.44-1.04-.44-.46-1.09-1.07-1.65-1.53-.66,.31-1.41,.54-2.24,.8-.19-.31-.6-.73-.87-.93,1.96-.44,3.42-1.05,4.22-1.77l1.39,.29c-.19,.17-.39,.34-.61,.51h2.89l.26-.05,.85,.41c-1.31,2.62-4.17,3.72-7.5,4.25h4.79v-1.17h1.43v1.17h2.02v1.16h-2.02v1.72c0,.68-.12,1-.59,1.21-.48,.22-1.17,.24-2.12,.22-.08-.37-.31-.88-.49-1.24,.68,.02,1.34,.02,1.53,.02,.2-.02,.25-.07,.25-.24v-1.68h-5.97v-1.16h.59Zm2.48-1.89l-2.65,.32-.14-.83c.76-.07,1.7-.15,2.75-.29l.03,.8Zm-1,3.06c.8,.48,1.67,1.21,2.09,1.75l-1.1,.77c-.41-.56-1.28-1.36-2.02-1.84l1.04-.68Zm1.96-4.88c.49,.41,1,.87,1.38,1.24,.56-.36,1.04-.75,1.43-1.24h-2.8Z"/></g></g><g><rect class="fb" x="404.69" y="239.94" width="60" height="30" rx="6" ry="6"/><g><path class="fo" d="M432.92,251.96c-.36,2.65-.92,4.86-1.84,6.68,.78,1.31,1.8,2.35,3.06,3.03-.36,.29-.83,.88-1.07,1.29-1.16-.71-2.09-1.7-2.84-2.91-.83,1.16-1.87,2.14-3.16,2.94-.15-.31-.59-.97-.88-1.27,1.41-.78,2.46-1.82,3.26-3.09-.61-1.31-1.07-2.79-1.44-4.42-.29,.71-.65,1.38-1.02,1.96-.2-.32-.71-1-1.04-1.31,.24-.34,.44-.71,.63-1.1h-8.18v-1.33h1.87v-1.77h-1.62v-1.33h1.62v-1.79h1.44v1.79h1.87v-1.79h1.46v1.79h1.63v1.33h-1.63v1.77h1.62v1.16c.78-1.72,1.29-3.94,1.56-6.2l1.5,.2c-.15,.99-.31,1.97-.53,2.91h4.79v1.48h-1.07Zm-7.12,9.5c0,.7-.14,1.09-.59,1.27-.48,.24-1.16,.25-2.16,.25-.05-.37-.24-.95-.44-1.31,.65,.02,1.29,.02,1.46,.02,.19,0,.25-.05,.25-.25v-1.75c-1.09,.49-2.14,.95-3.08,1.36l-.44-1.05c-.17,1.12-.48,2.24-1.14,3.11-.25-.25-.87-.7-1.19-.85,.97-1.27,1.07-3.03,1.07-4.4v-3.21h6.26v6.82Zm-4.86-3.59c0,.56-.02,1.21-.1,1.85,.92-.25,2.19-.7,3.48-1.14v-2.8h-3.38v2.09Zm.76-1.65c.87,.42,1.87,.95,2.41,1.34l-.73,1c-.53-.41-1.56-1.07-2.4-1.5l.71-.85Zm.02-3.81h1.87v-1.77h-1.87v1.77Zm7.12-.46c.31,1.84,.78,3.57,1.41,5.08,.59-1.44,.99-3.13,1.22-5.08h-2.63Z"/><path class="fo" d="M438.07,253.56c-.19,1.65-.65,2.89-2.01,3.64-.15-.31-.53-.76-.8-.99,1-.56,1.34-1.44,1.48-2.65h-1.21v-1.24h3.86v-.92h-2.94v-3.52h1.28v2.31h1.67v-2.82h1.41v9.66h-1.41v-3.47h-1.33Zm3.4,4.5c-.87,2.45-2.91,3.88-5.29,4.57-.17-.36-.54-.92-.82-1.22,1.63-.39,3.13-1.21,4.01-2.41h-3.21v-1.24h4.08l.27-.05,.95,.36Zm8.38-.37c-1.05,.71-2.35,1.48-3.4,1.99,1.19,.77,2.74,1.29,4.52,1.51-.32,.34-.75,.97-.93,1.39-2.75-.51-4.78-1.63-6.14-3.42v2.21c0,.75-.12,1.14-.66,1.36-.51,.22-1.31,.24-2.4,.24-.07-.41-.27-1-.49-1.39,.78,.03,1.51,.02,1.72,.02,.24-.02,.29-.07,.29-.25v-5.13h1.55v.6c.37,.8,.88,1.5,1.53,2.09,1.05-.56,2.33-1.41,3.09-2.07l1.33,.87Zm-7.89-4.95c-.14-.32-.39-.68-.59-.94,1.61-.15,3.14-.49,4.44-1.04-.44-.46-1.09-1.07-1.65-1.53-.66,.31-1.41,.54-2.24,.8-.19-.31-.6-.73-.87-.93,1.96-.44,3.42-1.05,4.22-1.77l1.39,.29c-.19,.17-.39,.34-.61,.51h2.89l.26-.05,.85,.41c-1.31,2.62-4.17,3.72-7.5,4.25h4.79v-1.17h1.43v1.17h2.02v1.16h-2.02v1.72c0,.68-.12,1-.59,1.21-.48,.22-1.17,.24-2.12,.22-.08-.37-.31-.88-.49-1.24,.68,.02,1.34,.02,1.53,.02,.2-.02,.25-.07,.25-.24v-1.68h-5.97v-1.16h.59Zm2.48-1.89l-2.65,.32-.14-.83c.76-.07,1.7-.15,2.75-.29l.03,.8Zm-1,3.06c.8,.48,1.67,1.21,2.09,1.75l-1.1,.77c-.41-.56-1.28-1.36-2.02-1.84l1.04-.68Zm1.96-4.88c.49,.41,1,.87,1.38,1.24,.56-.36,1.04-.75,1.43-1.24h-2.8Z"/></g></g></g></g><g id="ds"/><g id="dt"/><g id="du"/></g></svg>