<?xml version="1.0" encoding="UTF-8"?><svg id="_循環圖" xmlns="http://www.w3.org/2000/svg" viewBox="0 0 500 345.8"><defs><style>.cls-1,.cls-2,.cls-3{stroke:#483d38;stroke-linecap:round;stroke-linejoin:round;}.cls-1,.cls-3{fill:#e9d0a1;}.cls-2,.cls-4{fill:none;}.cls-5,.cls-6{fill:#f08c00;}.cls-7{fill:#231815;}.cls-3,.cls-4,.cls-6,.cls-8{fill-rule:evenodd;}.cls-4{stroke:#f08c00;stroke-miterlimit:10;stroke-width:3px;}.cls-8{fill:#fbd58b;}</style></defs><path class="cls-8" d="M390.09,167.82c0,63.61-61.54,115.15-137.46,115.15s-137.43-51.56-137.43-115.15S176.74,52.67,252.63,52.67s137.46,51.56,137.46,115.15Z"/><g><path class="cls-4" d="M379.07,213.07c-20.99,41.1-69.69,69.89-126.44,69.89"/><path class="cls-4" d="M315.86,65.54c44.11,19.17,74.24,57.78,74.24,102.28"/><path class="cls-4" d="M153.24,88.29c25.03-21.95,60.3-35.63,99.39-35.63"/><path class="cls-4" d="M191.29,270.88c-45.1-18.89-76.08-57.95-76.08-103.07,0-16.43,4.11-32.05,11.51-46.19"/></g><g><path class="cls-5" d="M212.72,192.48c-1.88,.75-3.8,1.53-5.57,2.09,2.06,.75,4.47,1.21,7.24,1.45-.74,.75-1.7,2.31-2.16,3.34-7.38-.99-11.95-3.65-14.69-8.51h-3.19v4.26l5.36-1.03c-.07,.99-.07,2.45,0,3.26-7.59,1.67-8.84,1.92-9.54,2.34-.14-.92-.71-2.59-1.17-3.3,.64-.28,1.45-.96,1.45-2.52v-3.02h-2.27c-.5,3.09-1.53,6.21-3.41,8.66-.78-.64-2.55-1.74-3.55-2.16,3.09-3.8,3.44-9.12,3.44-12.81v-4.58h28.06v2.98h-24.05v1.1h22.67v2.63h-22.7c-.04,.39-.07,.78-.07,1.21h25.08v2.98h-2.84l1.92,1.63Zm-1.42-13.62h-26.39v-10.39h7.17v-2.16h4.11v2.16h3.4v-2.16h4.15v2.16h7.56v10.39Zm-22.53-6.42h3.3v-1.42h-3.3v1.42Zm0,3.83h3.3v-1.42h-3.3v1.42Zm7.42-5.25v1.42h3.4v-1.42h-3.4Zm0,3.83v1.42h3.4v-1.42h-3.4Zm5.36,16c.6,.78,1.42,1.49,2.34,2.06,1.38-.5,2.98-1.31,4.36-2.06h-6.71Zm5.71-19.83h-3.51v1.42h3.51v-1.42Zm0,3.83h-3.51v1.42h3.51v-1.42Z"/><path class="cls-5" d="M231.94,193.9c-2.41,2.02-6.67,3.87-10.32,4.72-.53-.89-1.63-2.27-2.48-3.05,3.55-.5,7.66-1.7,9.83-3.02l2.98,1.35Zm18.8-6v3.48h-13.77v8.09h-4.19v-8.09h-13.52v-3.48h13.52v-1.56h-10.22v-3.05h10.22v-1.6h-11.99v-3.19h6.53c-.32-.82-.85-1.81-1.31-2.59l2.38-.53h-9.05v-3.3h4.82c-.53-1.35-1.45-3.05-2.27-4.4l3.62-1.21c1.06,1.49,2.23,3.62,2.69,4.97l-1.7,.64h3.26v-5.78h3.9v5.78h2.66v-5.78h3.97v5.78h3.16l-1.28-.39c.82-1.42,1.77-3.58,2.27-5.11l4.43,1.03c-.99,1.63-1.95,3.23-2.84,4.47h4.58v3.3h-9.37l3.34,.85c-.78,.85-1.53,1.63-2.16,2.27h6.85v3.19h-12.31v1.6h10.64v3.05h-10.64v1.56h13.77Zm-20.47-12.52c.57,.89,1.14,1.92,1.42,2.66l-1.92,.46h9.68l-1.28-.39c.57-.82,1.31-1.88,1.81-2.73h-9.72Zm11.07,16.96c2.87,1.06,7.06,2.84,9.33,3.97l-2.98,2.31c-2.06-1.17-6.21-3.05-9.19-4.29l2.84-1.99Z"/><path class="cls-5" d="M265.69,175.55c-.74,1.28-1.56,2.66-2.52,3.97v19.94h-3.83v-15.25c-.74,.78-1.53,1.53-2.23,2.16-.28-.92-1.31-3.16-1.95-4.15,2.52-1.99,5.29-5.11,6.92-8.13l3.62,1.45Zm-.74-7.88c-1.92,3.09-4.82,6.42-7.52,8.59-.46-.89-1.45-2.48-2.13-3.26,2.23-1.7,4.68-4.51,5.89-6.74l3.76,1.42Zm16.35,10.36v2.87h5.61v18.52h-4.08v-1.49h-7.17v1.49h-3.94v-18.52h5.46v-2.87h-6.14v2.56c0,5.92-.5,13.51-4.01,18.8-.71-.57-2.16-1.45-3.09-1.85,3.05-4.75,3.41-11.78,3.41-16.96v-11.53c6.03-.53,12.95-1.45,17.21-2.52l3.12,2.98c-4.72,1.1-10.96,1.88-16.64,2.34v2.84h6.14v-2.95h4.11v2.95h7.24v3.33h-7.24Zm1.53,6.1h-7.17v1.7h7.17v-1.7Zm0,4.43h-7.17v1.7h7.17v-1.7Zm0,6.28v-1.85h-7.17v1.85h7.17Z"/><path class="cls-5" d="M325.32,191.48c-1.39,.71-2.77,1.42-4.08,2.02,1.38,.99,3.01,1.81,4.93,2.31-.82,.78-1.95,2.2-2.48,3.23-4.72-1.6-7.8-4.93-9.61-9.47-1.03,.89-2.16,1.7-3.44,2.45v3.05l5-.96c-.11,.92-.11,2.31-.03,3.09-6.56,1.42-7.73,1.74-8.41,2.16-.21-.82-.85-2.16-1.35-2.84,.64-.28,1.42-.99,1.42-2.41v-.32c-.99,.43-1.95,.74-2.91,1.06-.39-.6-1.03-1.39-1.63-2.06l.03,.25c-3.26,.96-6.74,1.84-9.61,2.63l-.71-3.83c1.03-.21,2.16-.5,3.48-.82v-8.73h-2.77v-3.65h2.77v-6.6h-3.02v-3.69h9.61v3.69h-2.91v6.6h2.59v3.65h-2.59v7.84l2.66-.71,.32,2.41c2.52-.67,5.14-1.67,7.27-2.87h-4.08v-7.77h17.67v7.77h-5.92c.39,.89,.92,1.7,1.53,2.41,1.31-.74,2.62-1.67,3.51-2.38l2.77,2.48Zm.11-11.53h-21.71v-3.34h21.71v3.34Zm-1.14-4.47h-19.33v-8.05h19.33v8.05Zm-13.69-5.21h-2.24v2.38h2.24v-2.38Zm-1.1,15.79h9.97v-1.99h-9.97v1.99Zm6.14-15.79h-2.27v2.38h2.27v-2.38Zm5.04,0h-2.34v2.38h2.34v-2.38Z"/></g><g><path class="cls-7" d="M231.85,126.17c-1.7,3.67-4.52,7.31-7.39,9.46-.53-.77-1.6-1.97-2.34-2.58,2.71-1.73,5.5-4.89,6.94-7.87l2.79,.98Zm4.23-2.15v11.75h-3.4v-11.75h-10.18v-3.22h10.18v-9.86h3.4v9.86h10.21v3.22h-10.21Zm-9.06-4.36c-.48-1.67-1.89-4.28-3.3-6.19l2.9-1.28c1.46,1.86,2.95,4.36,3.53,6.06l-3.14,1.41Zm12.41,5.34c2.84,2.66,6.06,6.3,7.42,8.96l-2.77,1.75c-1.25-2.63-4.31-6.48-7.18-9.22l2.53-1.49Zm6.01-11.56c-1.38,2.34-3,4.84-4.31,6.43l-2.76-1.22c1.25-1.76,2.71-4.47,3.53-6.59l3.54,1.38Z"/><path class="cls-7" d="M256.35,112.03h2.6l-6.59,26.23h-2.61l6.59-26.23Z"/><path class="cls-7" d="M275.84,119.42c2.37,2.07,6.88,3.77,11.22,4.52-.64,.56-1.49,1.73-1.91,2.47-3.99-.9-8.08-2.79-10.85-5.21h-.05c-2.74,2.37-6.72,4.09-10.74,4.97-.4-.69-1.17-1.81-1.76-2.37,4.36-.66,8.75-2.29,11.06-4.36v-3.53h-5.45l2.26,.45c-.21,.59-.48,1.14-.77,1.7,.8,.48,1.65,1.04,2.15,1.44l-1.68,2.02c-.42-.4-1.12-.93-1.86-1.46-.88,1.06-1.86,1.91-2.95,2.6-.45-.48-1.46-1.35-2.07-1.78,2.07-1.09,3.72-2.87,4.49-4.97h-4.12v-2.74h10v-2.26h3.03v2.26h10.21v2.74h-5.71l2.31,.61c-.19,.45-.37,.85-.61,1.3,1.52,.77,3.24,1.73,4.23,2.42l-1.57,2.13c-.9-.72-2.55-1.76-4.09-2.61-.53,.59-1.06,1.12-1.65,1.54-.42-.51-1.43-1.41-2.02-1.84,1.33-.85,2.47-2.15,3.08-3.56h-4.17v3.51Zm5.56,6.8c-.88,1.81-2.05,3.3-3.51,4.55,2.13,.96,4.09,1.91,5.53,2.74l-1.83,2.1c-1.54-.93-3.67-2.02-6.09-3.19-3.08,1.76-6.86,2.77-10.95,3.32-.24-.74-.8-1.89-1.25-2.52,3.38-.35,6.57-1.06,9.22-2.21-1.28-.61-2.61-1.19-3.88-1.75-1.04,.61-2.15,1.2-3.35,1.73-.4-.58-1.22-1.46-1.78-1.86,.82-.32,1.62-.64,2.39-1.01l-1.41-.58,1.68-1.7c.69,.26,1.46,.58,2.23,.85,1.62-1.01,2.95-2.15,3.85-3.19l2.82,.66c-.4,.4-.77,.82-1.22,1.22h5.18l.53-.11,1.84,.96Zm-10.42,1.52c1.38,.58,2.82,1.17,4.17,1.78,.88-.61,1.65-1.28,2.26-2.07h-6.03l-.4,.29Z"/></g><ellipse class="cls-5" cx="255.06" cy="62.53" rx="40.45" ry="41.68"/><g><path class="cls-7" d="M236.12,330.58c0,1.46-.21,2.34-1.09,2.84-.82,.53-1.97,.61-3.67,.61-.08-.85-.45-2.23-.88-3.06,.98,.05,1.94,.05,2.29,.05,.29-.03,.42-.16,.42-.51v-6.11c-.69,.66-1.33,1.33-1.99,1.99l-.72-1.33c-.21,3.29-.72,6.75-1.78,9.28-.56-.45-1.86-1.17-2.58-1.44,1.57-3.7,1.68-9.09,1.68-13.08v-9.76h8.32v20.49Zm-5.48-10.71c0,1.09-.03,2.26-.05,3.54,.77-.53,1.65-1.2,2.6-1.91v-1.92l-.88,.74c-.37-.56-.98-1.33-1.68-2.05v1.59Zm0-6.91v3.67l.88-.69c.53,.48,1.14,1.04,1.68,1.6v-4.57h-2.55Zm15.92,17.84c1.38,0,1.59-.88,1.83-4.49,.72,.5,1.97,1.04,2.84,1.22-.37,4.57-1.3,6.25-4.41,6.25h-5.02c-3.27,0-4.33-.96-4.33-4.79v-18.42h12.65v13.61h-3.03v-1.3h-6.59v6.14c0,1.54,.19,1.78,1.62,1.78h4.44Zm-6.06-17.25v6.32h2.02v-6.32h-2.02Zm6.59,0h-1.97v6.32h1.97v-6.32Z"/><path class="cls-7" d="M263.1,322.34c.53,.72,2.53,4.04,2.92,4.86l-2.18,2.37c-.37-1.17-1.09-2.98-1.75-4.44v9.2h-2.92v-9.49c-.61,2.66-1.6,5.45-2.98,6.99-.27-1.12-.96-2.71-1.43-3.77,1.12-1.33,2.15-3.77,2.58-5.79l1.84,.64v-1.65h-4.01v-2.95h4.01v-8.8h2.92v8.8h3.93v2.95h-3.93v1.81l1.01-.72Zm-6.75-4.49c-.05-1.65-.58-4.2-1.22-6.14l2.21-.56c.72,1.94,1.28,4.44,1.38,6.09l-2.37,.61Zm10.15-6.27c-.69,2.13-1.46,4.63-2.13,6.17l-2.02-.56c.59-1.68,1.2-4.31,1.49-6.17l2.66,.56Zm10.31,15.55v7.18h-2.98v-6.64l-7.42,1.33-.48-2.95,7.9-1.41v-15.15h2.98v14.62l2.71-.5,.48,2.95-3.19,.58Zm-9.09-9.65c1.54,.82,3.51,2.13,4.47,3.06l-1.6,2.52c-.88-.96-2.82-2.39-4.36-3.3l1.49-2.29Zm3.85-.96c-.82-1.04-2.66-2.47-4.12-3.46l1.52-2.13c1.49,.88,3.37,2.23,4.22,3.22l-1.62,2.37Z"/></g><ellipse class="cls-5" cx="255.06" cy="270.39" rx="40.45" ry="41.68"/><ellipse class="cls-5" cx="115.2" cy="150.99" rx="50.74" ry="52.29"/><ellipse class="cls-5" cx="385.84" cy="153.21" rx="40.45" ry="41.68"/><path class="cls-1" d="M223.32,288.62h64.02s-4.71-11.83-13.3-14.14c0,0-5.4-13.97-18.01-13.97-8.94,0-12.77,6.98-12.77,6.98,0,0-6.43,1.68-7.9,6.98,.03,0-12.21,3.91-12.03,14.14Z"/><g><path class="cls-1" d="M279.06,260.47c1.32,.88,1.7,2.64,.85,3.93-.86,1.28-2.64,1.63-3.96,.75-1.32-.88-1.7-2.64-.83-3.94,.86-1.28,2.63-1.61,3.95-.73Z"/><path class="cls-1" d="M279.17,245.94c1.32,.88,1.7,2.64,.85,3.93-.86,1.28-2.63,1.61-3.95,.73-1.32-.88-1.7-2.64-.85-3.93s2.63-1.61,3.95-.73Z"/><path class="cls-1" d="M267.43,243.68c1.32,.88,1.7,2.64,.85,3.93-.86,1.28-2.63,1.61-3.95,.73-1.32-.88-1.7-2.64-.85-3.93,.84-1.3,2.61-1.62,3.95-.73Z"/></g><g><polygon class="cls-3" points="353.1 121.63 331.02 162.65 444.39 162.65 424.96 121.63 353.1 121.63"/><line class="cls-2" x1="377.96" y1="121.63" x2="369.33" y2="162.65"/><line class="cls-2" x1="403.55" y1="121.63" x2="406.75" y2="142.14"/><line class="cls-1" x1="350.06" y1="127.68" x2="376.22" y2="127.68"/><line class="cls-2" x1="346.12" y1="134.7" x2="374.63" y2="134.7"/><line class="cls-2" x1="383.24" y1="121.63" x2="380.75" y2="142.48"/><line class="cls-2" x1="389.83" y1="121.63" x2="389.99" y2="142.38"/><line class="cls-2" x1="396.54" y1="121.63" x2="398.15" y2="142.57"/><line class="cls-2" x1="404.71" y1="128.36" x2="427.39" y2="128.36"/><line class="cls-2" x1="405.98" y1="135.37" x2="431.26" y2="135.37"/><line class="cls-2" x1="359.88" y1="134.7" x2="349.32" y2="162.65"/><line class="cls-2" x1="352.25" y1="135" x2="339.2" y2="162.65"/><line class="cls-2" x1="367.56" y1="134.7" x2="359.08" y2="162.65"/><line class="cls-2" x1="373.56" y1="142.57" x2="434.88" y2="142.57"/><line class="cls-2" x1="372.13" y1="149.27" x2="437.9" y2="149.27"/><line class="cls-2" x1="370.74" y1="155.96" x2="441.22" y2="155.96"/></g><g><g><path class="cls-2" d="M77.84,138.6s10.74,.58,24.85,11.89"/><path class="cls-2" d="M135,126.47s-14.66,30.39-34.49,48.53"/><path class="cls-2" d="M92.36,157.44s5-18.62-.06-31.98"/></g><g><path class="cls-3" d="M139.28,132.97l-48.44,.12c-4.01,.01-7.26,9.77-7.23,21.73,.03,12,3.29,21.71,7.34,21.7l48.44-.12"/><path class="cls-2" d="M139.28,132.97l-48.44,.12c-4.01,.01-7.26,9.77-7.23,21.73,.03,12,3.29,21.71,7.34,21.7l48.44-.12"/><path class="cls-3" d="M139.39,176.43c-4.01,.01-7.28-9.73-7.31-21.7-.03-12,3.22-21.72,7.2-21.73,4.01-.01,7.31,9.73,7.34,21.7,.03,11.97-3.22,21.72-7.23,21.73Z"/><path class="cls-2" d="M139.39,176.43c-4.01,.01-7.28-9.73-7.31-21.7-.03-12,3.22-21.72,7.2-21.73,4.01-.01,7.31,9.73,7.34,21.7,.03,11.97-3.22,21.72-7.23,21.73Z"/><path class="cls-2" d="M97.01,176.51s-5.61-6.15-5.65-21.45c-.04-15.3,6.39-21.98,6.39-21.98"/><path class="cls-2" d="M107.01,176.48s-5.61-6.15-5.65-21.45c-.04-15.3,6.39-21.98,6.39-21.98"/><path class="cls-2" d="M117.02,176.46s-5.61-6.15-5.65-21.45c-.04-15.3,6.39-21.98,6.39-21.98"/><path class="cls-2" d="M127.02,176.43s-5.61-6.15-5.65-21.45c-.04-15.3,6.39-21.98,6.39-21.98"/></g><path class="cls-2" d="M139.39,140.44s4.47-6.96,8.7-9.02"/></g><polygon class="cls-6" points="191.49 259.98 211.14 279.57 182.58 278.79 191.49 259.98"/><polygon class="cls-6" points="365.06 219.12 383.94 198.79 384.19 227.36 365.06 219.12"/><g><path class="cls-7" d="M383.11,189.17c-1.41,.56-2.84,1.14-4.17,1.57,1.54,.56,3.35,.9,5.42,1.09-.56,.56-1.27,1.73-1.62,2.5-5.53-.74-8.96-2.74-11.01-6.38h-2.39v3.19l4.02-.77c-.05,.74-.05,1.83,0,2.45-5.69,1.25-6.62,1.43-7.15,1.75-.11-.69-.53-1.94-.88-2.47,.48-.21,1.09-.72,1.09-1.89v-2.26h-1.7c-.37,2.31-1.14,4.65-2.55,6.49-.58-.48-1.91-1.3-2.66-1.62,2.31-2.84,2.58-6.83,2.58-9.6v-3.43h21.03v2.23h-18.02v.82h16.99v1.97h-17.01c-.03,.29-.05,.58-.05,.9h18.79v2.23h-2.13l1.43,1.22Zm-1.06-10.21h-19.78v-7.79h5.37v-1.62h3.08v1.62h2.55v-1.62h3.11v1.62h5.66v7.79Zm-16.88-4.81h2.47v-1.06h-2.47v1.06Zm0,2.87h2.47v-1.06h-2.47v1.06Zm5.56-3.93v1.06h2.55v-1.06h-2.55Zm0,2.87v1.06h2.55v-1.06h-2.55Zm4.01,11.99c.45,.59,1.06,1.12,1.76,1.54,1.04-.37,2.23-.98,3.27-1.54h-5.02Zm4.28-14.86h-2.63v1.06h2.63v-1.06Zm0,2.87h-2.63v1.06h2.63v-1.06Z"/><path class="cls-7" d="M410.95,171.3v22.78h-3.3v-1.62h-15.71v1.62h-3.16v-22.78h22.17Zm-19.01,3.06v5.85h6.11v-5.85h-6.11Zm0,14.91h6.11v-5.9h-6.11v5.9Zm15.71-14.91h-6.38v5.85h6.38v-5.85Zm0,14.91v-5.9h-6.38v5.9h6.38Z"/></g><g><path class="cls-7" d="M95.65,203.53c.77,.88,2.87,3.51,3.35,4.17l-1.89,2.5c-.29-.77-.85-1.86-1.46-2.92v10.18h-3v-9.17c-.77,1.92-1.6,3.67-2.53,4.95-.29-.93-1.01-2.26-1.46-3.06,1.35-1.75,2.71-4.6,3.59-7.15h-3.16v-2.95h3.56v-3.22c-.96,.18-1.86,.32-2.74,.42-.13-.69-.53-1.76-.88-2.45,2.87-.48,6.03-1.25,8.08-2.18l1.81,2.58c-1.01,.37-2.1,.72-3.27,1.01v3.83h2.95v2.95h-2.95v.5Zm11.83-4.41v2.85h4.86v2.98h-13.21v-2.98h5.05v-2.85h-5.79v-3h5.79v-3.51h3.3v3.51h5.74v3h-5.74Zm-7.95,7.87h12.47v10.42h-3.24v-.96h-6.11v1.06h-3.11v-10.53Zm3.11,2.84v3.77h6.11v-3.77h-6.11Z"/><path class="cls-7" d="M125.73,209.75c-.32-.69-.96-1.73-1.6-2.68v10.37h-3.06v-9.54c-.85,2.05-1.86,3.93-2.9,5.26-.29-.9-.96-2.21-1.46-3,1.49-1.73,2.95-4.55,3.93-7.12h-3.38v-2.95h3.8v-3.08c-1.12,.21-2.21,.4-3.24,.53-.16-.72-.53-1.78-.88-2.45,2.92-.48,6.19-1.28,8.24-2.18l2.1,2.42c-.96,.37-2.02,.72-3.16,1.01v3.75h2.84v2.95h-2.84v.77c.72,.58,2.9,2.9,3.4,3.48l-1.81,2.47Zm16.11,2.66h-5.95v5.05h-3.16v-5.05h-6.09v-2.82h6.09v-2.07h-5.02v-2.76h13.29v2.76h-5.1v2.07h5.95v2.82Zm-1.22-8.88h-12.41v-9.86h12.41v9.86Zm-3.11-7.5h-6.35v1.46h6.35v-1.46Zm0,3.67h-6.35v1.46h6.35v-1.46Z"/></g><g><g><path class="cls-2" d="M247.35,17.85s8.08,12.59,6.78,37.71"/><path class="cls-2" d="M255.24,88.57s-3.64-46.79,7.51-82.47"/><path class="cls-2" d="M255.72,85.35s-2.15-37.05,14.13-64.33"/><path class="cls-2" d="M254.85,74.22s-1.55-26.78-14.07-42.19"/></g><g><path class="cls-2" d="M270.79,43.28s5.52,7.04,4.63,21.1"/><path class="cls-2" d="M276.18,82.85s-2.49-26.18,5.13-46.15"/><path class="cls-2" d="M276.51,81.05s-1.47-20.73,9.65-35.99"/><path class="cls-2" d="M275.92,74.82s-1.06-14.98-9.61-23.61"/></g><g><path class="cls-2" d="M226.2,48.83s5.52,7.04,4.63,21.1"/><path class="cls-2" d="M231.59,88.4s-2.49-26.18,5.13-46.15"/><path class="cls-2" d="M231.92,86.6s-1.47-20.73,9.65-35.99"/><path class="cls-2" d="M231.32,80.37s-1.06-14.98-9.61-23.61"/></g></g></svg>