<?xml version="1.0" encoding="UTF-8"?><svg id="_循環圖" xmlns="http://www.w3.org/2000/svg" viewBox="0 0 500 374"><defs><style>.cls-1{stroke:#504934;}.cls-1,.cls-2,.cls-3,.cls-4{stroke-linejoin:round;}.cls-1,.cls-2,.cls-3,.cls-5{stroke-linecap:round;}.cls-1,.cls-6,.cls-7{fill:#e9d0a1;}.cls-2,.cls-3,.cls-4,.cls-8,.cls-5{fill:none;}.cls-2,.cls-4{stroke:#514540;}.cls-3{stroke:#483d38;}.cls-9,.cls-10{fill:#007f41;}.cls-11,.cls-12{fill:#fff;}.cls-13{fill:#231815;}.cls-8,.cls-5{stroke:#007f41;stroke-miterlimit:8;stroke-width:3px;}.cls-14{fill:#483d38;}.cls-14,.cls-15,.cls-16,.cls-7,.cls-12,.cls-10{fill-rule:evenodd;}.cls-15{fill:#514540;}.cls-16{fill:#a7d398;}</style></defs><path class="cls-16" d="M428.74,188.76c0,76.46-86.7,138.44-193.66,138.44-106.95,.02-193.66-61.97-193.66-138.44,0-28.34,11.9-54.67,32.33-76.61,27.82-29.87,71.43-51.57,122.3-59.02,12.61-1.85,25.66-2.82,39.03-2.82,106.95,.02,193.66,62,193.66,138.46Z"/><path class="cls-5" d="M177.44,321.16c-48.64-12.03-89.65-38.41-115.6-73.11"/><polygon class="cls-10" points="67.1 243.88 51.39 231.15 54.43 252.44 67.1 243.88"/><path class="cls-5" d="M431.62,186.39c0,77.76-88.19,140.79-196.95,140.79-5.36,0-10.66-.16-15.92-.45"/><polygon class="cls-10" points="95.2 101.05 104.24 83.83 85.85 88.78 95.2 101.05"/><path class="cls-8" d="M41.01,187.39c0-28.34,11.9-54.67,32.33-76.61,7.66-8.22,16.53-15.83,26.4-22.69"/><path class="cls-8" d="M133.65,68.26c18.79-8.22,39.68-14.23,61.99-17.49,12.61-1.85,25.66-2.82,39.03-2.82,53.02,0,101.05,15.22,136.02,39.9"/><g><path class="cls-10" d="M108.75,169.31c0,29.61-23.29,53.61-52.02,53.61S4.71,198.92,4.71,169.31s23.29-53.59,52.02-53.59,52.02,24,52.02,53.59Z"/><rect class="cls-6" x="39.76" y="131.27" width="37.06" height="52.23"/><rect class="cls-3" x="39.76" y="131.27" width="37.06" height="52.23"/><polygon class="cls-12" points="34.4 139.42 63.22 139.42 72.65 148.58 72.65 192.42 34.4 192.42 34.4 139.42"/><polygon class="cls-3" points="34.4 139.42 63.22 139.42 72.65 148.58 72.65 192.42 34.4 192.42 34.4 139.42"/><polygon class="cls-12" points="63.22 139.42 72.65 148.58 63.22 148.58 63.22 139.42"/><polygon class="cls-3" points="63.22 139.42 72.65 148.58 63.22 148.58 63.22 139.42"/><line class="cls-3" x1="40.57" y1="146.89" x2="58.2" y2="146.89"/><line class="cls-3" x1="40.57" y1="150.71" x2="58.2" y2="150.71"/><line class="cls-3" x1="40.57" y1="154.52" x2="66.11" y2="154.52"/><line class="cls-3" x1="40.57" y1="158.35" x2="66.11" y2="158.35"/><line class="cls-3" x1="40.57" y1="162.17" x2="66.11" y2="162.17"/><line class="cls-3" x1="40.57" y1="165.91" x2="66.11" y2="165.91"/><line class="cls-3" x1="40.57" y1="169.74" x2="66.11" y2="169.74"/><line class="cls-3" x1="40.57" y1="173.56" x2="66.11" y2="173.56"/><polygon class="cls-14" points="56.63 171.12 56.63 191.72 72.58 201.39 88.01 192.37 88.01 171.76 56.63 171.12"/><polygon class="cls-3" points="56.63 171.12 56.63 191.72 72.58 201.39 88.01 192.37 88.01 171.76 56.63 171.12"/><polygon class="cls-7" points="72.58 162.74 56.63 171.12 72.58 180.8 88.01 171.76 72.58 162.74"/><polygon class="cls-3" points="72.58 162.74 56.63 171.12 72.58 180.8 88.01 171.76 72.58 162.74"/><line class="cls-3" x1="72.58" y1="162.74" x2="72.58" y2="201.39"/><polygon class="cls-7" points="93.66 178.7 77.8 187.98 72.58 180.8 87.84 171.76 93.66 178.7"/><polygon class="cls-3" points="93.66 178.7 77.8 187.98 72.58 180.8 87.84 171.76 93.66 178.7"/><polygon class="cls-7" points="50.66 178.43 66.75 188.01 72.58 180.8 56.56 171.29 50.66 178.43"/><polygon class="cls-3" points="50.66 178.43 66.75 188.01 72.58 180.8 56.56 171.29 50.66 178.43"/><polygon class="cls-7" points="51.22 164.31 67.07 155.03 72.58 162.74 57.03 171.24 51.22 164.31"/><polygon class="cls-3" points="51.22 164.31 67.07 155.03 72.58 162.74 57.03 171.24 51.22 164.31"/><polygon class="cls-7" points="94.23 164.57 78.13 154.99 72.58 162.74 88.33 171.71 94.23 164.57"/><polygon class="cls-3" points="94.23 164.57 78.13 154.99 72.58 162.74 88.33 171.71 94.23 164.57"/><path class="cls-3" d="M81.08,139.72l6.56-10.82s2.2-4.44,6.57-4.44,6.91,4.82,6.91,4.82l8.99,13.32"/><polyline class="cls-3" points="101.8 139.77 110.22 142.92 110.86 133.97"/><path class="cls-3" d="M113.16,148.58l6.9,11.41s3.09,4.58,.47,8.57c-2.62,3.99-7.77,3.57-7.77,3.57h-16.5"/><polyline class="cls-3" points="102.77 165.48 95.18 172.23 103.19 178.03"/><path class="cls-12" d="M45.08,180.73H25.43c-1.42,0-2.57,4.04-2.57,9s1.15,9,2.57,9h19.66"/><path class="cls-3" d="M45.08,180.73H25.43c-1.42,0-2.57,4.04-2.57,9s1.15,9,2.57,9h19.66"/><path class="cls-12" d="M45.08,198.76c-1.42,0-2.57-4.04-2.57-9s1.15-9,2.57-9,2.57,4.04,2.57,9-1.15,9-2.57,9Z"/><path class="cls-3" d="M45.08,198.76c-1.42,0-2.57-4.04-2.57-9s1.15-9,2.57-9,2.57,4.04,2.57,9-1.15,9-2.57,9Z"/><path class="cls-7" d="M41.67,180.73s-1.64,2.16-1.64,9.11,1.74,8.92,1.74,8.92h-13.88s-1.98-2.56-1.98-8.92,2.26-9.11,2.26-9.11h13.49Z"/><path class="cls-3" d="M41.67,180.73s-1.64,2.16-1.64,9.11,1.74,8.92,1.74,8.92h-13.88s-1.98-2.56-1.98-8.92,2.26-9.11,2.26-9.11h13.49Z"/></g><g><path class="cls-10" d="M200.81,337.01c0,18.34-14.42,33.2-32.21,33.2s-32.21-14.86-32.21-33.2,14.42-33.2,32.21-33.2c17.8-.02,32.21,14.86,32.21,33.2Z"/><path class="cls-14" d="M190.1,298.99h5.41s3.33,3.62,3.33,5.64,.12,13.58,.12,13.58v12.61h-56.18v-27.01c0-1.71,3.41-4.84,3.41-4.84h6.98"/><path class="cls-3" d="M190.1,298.99h5.41s3.33,3.62,3.33,5.64,.12,13.58,.12,13.58v12.61h-56.18v-27.01c0-1.71,3.41-4.84,3.41-4.84h6.98"/><line class="cls-3" x1="147.15" y1="304.91" x2="193.93" y2="304.91"/><path class="cls-12" d="M145.8,291.47s2.38-4.28,5.8-5.19c3.43-.91,6.17-.56,8.52-2.54,4.14-3.47,6.44-5.92,12.39-5.92,10.85,0,11.02,8.46,19.32,10.66,3.58,.94,5.73,1.5,5.73,1.5l-9.3,10.97h-32.7l-9.75-9.47Z"/><path class="cls-3" d="M145.8,291.47s2.38-4.28,5.8-5.19c3.43-.91,6.17-.56,8.52-2.54,4.14-3.47,6.44-5.92,12.39-5.92,10.85,0,11.02,8.46,19.32,10.66,3.58,.94,5.73,1.5,5.73,1.5l-9.3,10.97h-32.7l-9.75-9.47Z"/><path class="cls-12" d="M180.16,321.18v27.59c0,1.99,5.34,3.61,11.9,3.61s11.9-1.6,11.9-3.61v-27.59"/><path class="cls-3" d="M180.16,321.18v27.59c0,1.99,5.34,3.61,11.9,3.61s11.9-1.6,11.9-3.61v-27.59"/><path class="cls-12" d="M203.97,321.18c0,1.99-5.34,3.59-11.9,3.59s-11.9-1.62-11.9-3.59,5.34-3.61,11.9-3.61,11.9,1.62,11.9,3.61Z"/><path class="cls-3" d="M203.97,321.18c0,1.99-5.34,3.59-11.9,3.59s-11.9-1.62-11.9-3.59,5.34-3.61,11.9-3.61,11.9,1.62,11.9,3.61Z"/><path class="cls-3" d="M197.67,321.13c0,.87-2.45,1.57-5.48,1.57s-5.46-.7-5.46-1.57,2.43-1.57,5.46-1.57,5.48,.7,5.48,1.57Z"/><path class="cls-12" d="M160.54,317.96l-12.39,22.55c-.9,1.62,2.74,5.49,8.11,8.62,5.37,3.13,10.45,4.37,11.34,2.73l12.39-22.55"/><path class="cls-3" d="M160.54,317.96l-12.39,22.55c-.9,1.62,2.74,5.49,8.11,8.62,5.37,3.13,10.44,4.37,11.34,2.73l12.39-22.55"/><path class="cls-12" d="M180.01,329.31c-.9,1.62-5.97,.4-11.34-2.73-5.37-3.14-9.01-7-8.11-8.62,.9-1.62,5.98-.4,11.34,2.73,5.36,3.13,8.99,7,8.11,8.62Z"/><path class="cls-3" d="M180.01,329.31c-.9,1.62-5.97,.4-11.34-2.73-5.37-3.13-9.01-7-8.11-8.62,.9-1.62,5.98-.4,11.34,2.73,5.36,3.14,8.99,7,8.11,8.62Z"/><path class="cls-3" d="M174.87,326.27c-.39,.71-2.7,.12-5.17-1.32-2.47-1.45-4.16-3.19-3.77-3.88,.39-.71,2.7-.12,5.17,1.32,2.48,1.43,4.16,3.17,3.77,3.88Z"/><path class="cls-7" d="M180.16,325.99s2.84,2.3,12.03,2.3,11.76-2.44,11.76-2.44v19.47s-3.38,2.77-11.76,2.77-12.03-3.19-12.03-3.19v-18.91Z"/><path class="cls-3" d="M180.16,325.99s2.84,2.3,12.03,2.3,11.76-2.44,11.76-2.44v19.47s-3.38,2.77-11.76,2.77-12.03-3.19-12.03-3.19v-18.91Z"/><path class="cls-7" d="M158.31,321.93s1.27,3.24,8.75,7.7c7.49,4.44,10.68,3.69,10.68,3.69l-8.86,15.85s-4.01,.63-10.83-3.43c-6.83-4.06-8.37-8.41-8.37-8.41l8.62-15.4Z"/><path class="cls-3" d="M158.31,321.93s1.27,3.24,8.75,7.7c7.49,4.44,10.68,3.69,10.68,3.69l-8.86,15.85s-4.01,.63-10.83-3.43c-6.83-4.06-8.37-8.41-8.37-8.41l8.62-15.4Z"/></g><g><path class="cls-9" d="M165.6,157.22c-.11-.49-.25-1.05-.42-1.65-7.52,1.23-8.79,1.55-9.6,1.93-.21-.74-.88-2.64-1.3-3.66,.91-.18,1.76-1.02,2.95-2.32,.46-.49,1.37-1.51,2.43-2.92-2.99,.35-3.8,.56-4.36,.81-.21-.77-.81-2.57-1.27-3.59,.74-.18,1.37-.84,2.11-1.86,.81-.98,3.2-4.92,4.6-8.65l3.73,1.55c-1.44,2.95-3.27,5.98-5.17,8.47l2.85-.21c.95-1.51,1.9-3.09,2.71-4.68l3.37,2.18c-2.15,3.62-4.89,7.24-7.7,10.27l3.59-.49c-.28-.84-.63-1.69-.95-2.46l3.02-1.13c1.06,2.25,2.15,5.24,2.6,7.07l-3.2,1.34Zm-6.47,1.97c-.21,3.16-.84,6.5-1.58,8.61-.74-.39-2.46-.95-3.34-1.16,.81-2.07,1.23-5.2,1.44-8.02l3.48,.56Zm4.11-.84c.42,2.36,.84,5.31,.95,7.31l-3.37,.74c-.07-2.04-.42-5.1-.81-7.42l3.23-.63Zm3.83-1.23c.7,1.9,1.44,4.32,1.76,5.94l-3.23,1.13c-.21-1.65-.95-4.15-1.55-6.12l3.02-.95Zm14.24-4.32c.42,6.64,1.27,11.29,2.35,11.29,.49,0,.7-1.76,.77-5.27,.81,.84,2.14,1.62,3.13,2.04-.46,5.66-1.62,7.1-4.32,7.1-3.62,0-5.13-6.47-5.73-15.15h-4.57v10.09l4.64-1.37c.07,1.09,.28,2.74,.49,3.59-6.61,2.21-7.84,2.81-8.58,3.37-.32-.88-1.23-2.43-1.83-3.09,.67-.49,1.37-1.48,1.37-3.13v-23.2h.04c5.2-.77,10.97-1.97,14.66-3.16l2.88,3.37c-1.65,.49-3.59,.95-5.52,1.34-.07,2.92-.03,5.73,.04,8.33h5.7v3.87h-5.52Zm-4.04-3.87c-.11-2.43-.14-4.99-.17-7.56-1.41,.25-2.78,.46-4.15,.67v6.89h4.33Z"/><path class="cls-9" d="M223.19,140.94s0,1.41-.04,1.9c-.46,15.71-.84,21.3-2.28,23.17-.98,1.3-1.97,1.69-3.38,1.93-1.34,.18-3.45,.14-5.52,.07-.07-1.16-.63-2.92-1.37-4.08,2.25,.21,4.33,.21,5.24,.21,.7,0,1.09-.14,1.55-.6,1.02-1.12,1.48-6.4,1.86-18.81h-7.52c-.91,2.11-2,4.04-3.09,5.55-.56-.53-1.76-1.34-2.71-1.97v16.42h-9.39v2.57h-3.8v-26.12h3.97c.46-1.76,.88-4.01,1.02-5.66l4.57,.63c-.6,1.76-1.23,3.52-1.83,5.03h5.45v5.7c2.04-2.95,3.72-7.21,4.75-11.32l3.97,.91c-.35,1.51-.84,2.99-1.37,4.46h9.91Zm-21.06,3.9h-5.59v5.7h5.59v-5.7Zm0,16.21v-6.89h-5.59v6.89h5.59Zm11.67-1.9c-.98-2.11-3.17-5.55-4.89-8.12l3.27-1.86c1.76,2.43,4.08,5.77,5.17,7.8l-3.55,2.18Z"/><path class="cls-9" d="M261.03,160.35h-4.01v3.48c0,2.11-.46,3.23-1.93,3.87-1.41,.67-3.52,.7-6.47,.7-.21-1.13-.84-2.88-1.44-3.94,1.93,.11,4.18,.07,4.82,.07s.84-.18,.84-.77v-3.41h-16.56v8.05h-4.15v-8.05h-4.01v-3.87h4.01v-12.9h10.23v-2.32h-12.8v-3.83h30.06v3.83h-13.08v2.32h10.48v12.9h4.01v3.87Zm-24.75-13.01v2.74h6.08v-2.74h-6.08Zm0,9.14h6.08v-2.85h-6.08v2.85Zm10.27-9.14v2.74h6.29v-2.74h-6.29Zm6.29,9.14v-2.85h-6.29v2.85h6.29Z"/><path class="cls-9" d="M297.39,163.26v4.11h-31.6v-4.11h13.57v-7.07h-9.53v-4.04h9.53v-6.19h-7.28c-1.02,1.93-2.11,3.73-3.27,5.1-.84-.67-2.71-1.93-3.76-2.5,2.74-2.95,5.03-7.8,6.22-12.59l4.32,.95c-.49,1.69-1.05,3.34-1.65,4.96h5.41v-6.33h4.4v6.33h11.85v4.08h-11.85v6.19h10.51v4.04h-10.51v7.07h13.64Z"/><path class="cls-9" d="M201.26,188.24c-.74,1.27-1.55,2.64-2.5,3.94v19.76h-3.8v-15.12c-.74,.77-1.51,1.51-2.22,2.14-.28-.91-1.3-3.13-1.93-4.11,2.5-1.97,5.24-5.06,6.86-8.05l3.59,1.44Zm-.74-7.8c-1.9,3.06-4.78,6.36-7.45,8.51-.46-.88-1.44-2.46-2.11-3.23,2.22-1.69,4.64-4.46,5.84-6.68l3.72,1.41Zm16.21,10.27v2.85h5.55v18.35h-4.04v-1.47h-7.1v1.47h-3.9v-18.35h5.41v-2.85h-6.08v2.53c0,5.87-.49,13.4-3.97,18.63-.7-.56-2.14-1.44-3.06-1.83,3.03-4.71,3.37-11.67,3.37-16.8v-11.43c5.98-.53,12.83-1.44,17.05-2.5l3.09,2.95c-4.68,1.09-10.86,1.86-16.49,2.32v2.81h6.08v-2.92h4.08v2.92h7.17v3.3h-7.17Zm1.51,6.05h-7.1v1.69h7.1v-1.69Zm0,4.4h-7.1v1.69h7.1v-1.69Zm0,6.22v-1.83h-7.1v1.83h7.1Z"/><path class="cls-9" d="M260.36,204.02c-1.37,.7-2.74,1.41-4.04,2,1.37,.98,2.99,1.79,4.89,2.29-.81,.77-1.93,2.18-2.46,3.2-4.67-1.58-7.73-4.89-9.53-9.39-1.02,.88-2.15,1.69-3.41,2.42v3.02l4.96-.95c-.1,.91-.1,2.28-.04,3.06-6.5,1.41-7.66,1.72-8.33,2.15-.21-.81-.84-2.15-1.34-2.81,.63-.28,1.41-.98,1.41-2.39v-.32c-.98,.42-1.93,.74-2.88,1.05-.39-.6-1.02-1.37-1.62-2.04l.04,.25c-3.23,.95-6.68,1.83-9.53,2.6l-.7-3.8c1.02-.21,2.14-.49,3.45-.81v-8.65h-2.74v-3.62h2.74v-6.54h-2.99v-3.66h9.53v3.66h-2.88v6.54h2.57v3.62h-2.57v7.77l2.64-.7,.32,2.39c2.5-.67,5.1-1.65,7.21-2.85h-4.04v-7.7h17.51v7.7h-5.87c.39,.88,.91,1.69,1.51,2.39,1.3-.74,2.6-1.65,3.48-2.35l2.74,2.46Zm.1-11.43h-21.52v-3.3h21.52v3.3Zm-1.13-4.43h-19.16v-7.98h19.16v7.98Zm-13.57-5.17h-2.22v2.36h2.22v-2.36Zm-1.09,15.64h9.88v-1.97h-9.88v1.97Zm6.08-15.64h-2.25v2.36h2.25v-2.36Zm4.99,0h-2.32v2.36h2.32v-2.36Z"/></g><g><path class="cls-13" d="M207.8,70.74c-.4,2.97-1.04,5.5-2.07,7.59,.9,1.41,2.05,2.53,3.47,3.29-.52,.46-1.25,1.37-1.59,1.99-1.29-.82-2.33-1.89-3.17-3.17-.94,1.26-2.13,2.33-3.59,3.21-.2-.48-.86-1.47-1.29-1.91,1.61-.86,2.83-2.01,3.73-3.43-.58-1.35-1.04-2.81-1.43-4.42-.34,.7-.7,1.39-1.1,1.97-.26-.48-.98-1.47-1.45-1.97v7.61c0,.96-.16,1.51-.8,1.83-.6,.32-1.47,.34-2.61,.34-.08-.58-.36-1.41-.64-1.93,.64,.02,1.32,.02,1.55,.02s.3-.08,.3-.3v-1.51c-1.12,.54-2.25,1.02-3.23,1.51l-.48-1.18c-.2,1.29-.58,2.55-1.3,3.51-.38-.34-1.35-1-1.81-1.22,1.1-1.49,1.21-3.53,1.21-5.18v-3.8h7.83v.2c.22-.34,.42-.7,.62-1.06h-9.66v-1.99h2.09v-1.69h-1.79v-1.97h1.79v-1.97h2.17v1.97h1.75v-1.97h2.19v1.97h1.81v1.97h-1.81v1.69h1.71v1.47c.88-2.03,1.39-4.64,1.69-7.33l2.25,.32c-.16,1.12-.34,2.25-.58,3.33h5.46v2.21h-1.21Zm-14.2,6.69c0,.62-.02,1.31-.08,2.01,.96-.28,2.27-.7,3.59-1.14v-3.05h-3.51v1.33l.86-.96c.92,.44,2.03,1.02,2.63,1.45l-1.06,1.45c-.56-.4-1.57-1.08-2.43-1.57v.5Zm.94-6.69h1.75v-1.69h-1.75v1.69Zm8.58,0c.32,1.83,.76,3.55,1.38,5.1,.52-1.49,.86-3.19,1.1-5.1h-2.49Z"/><path class="cls-13" d="M215.37,72.46c-.2,1.89-.76,3.31-2.45,4.2-.22-.46-.72-1.18-1.14-1.51,1.1-.56,1.48-1.49,1.63-2.69h-1.24v-1.81h4.38v-.84h-3.41v-4.32h1.93v2.55h1.49v-3.17h2.13v11.57h-2.13v-3.98h-1.16Zm3.98,5.28c-.98,2.95-3.33,4.68-6.31,5.56-.22-.56-.76-1.39-1.18-1.83,1.75-.4,3.27-1.23,4.3-2.35h-3.31v-1.85h4.68l.4-.08,1.43,.54Zm10-.38c-1.21,.86-2.61,1.67-3.78,2.27,1.38,.76,3.07,1.25,5.06,1.51-.48,.5-1.14,1.47-1.41,2.09-3.01-.56-5.26-1.75-6.87-3.59v1.71c0,1.06-.16,1.61-.9,1.95-.68,.32-1.63,.36-2.89,.36-.1-.64-.4-1.51-.7-2.09,.76,.02,1.57,.02,1.83,0,.24,0,.32-.06,.32-.28v-5.76h2.21c-.5-.6-1.27-1.31-1.93-1.77l1.22-.78h-2.29v-1.69h.72c-.2-.4-.5-.86-.76-1.17,1.85-.2,3.6-.56,5.04-1.16-.48-.5-1.14-1.13-1.77-1.65-.72,.32-1.57,.62-2.47,.88-.28-.44-.86-1.1-1.27-1.39,2.31-.46,3.98-1.14,4.9-1.97l2.01,.42c-.2,.2-.4,.38-.62,.56h2.99l.38-.08,1.27,.56c-1.41,2.91-4.26,4.26-7.79,4.98h4.22v-1.31h2.15v1.31h2.17v1.69h-2.17v1.49c0,.92-.16,1.39-.78,1.69l1.91,1.22Zm-6.59-8.19c-1.04,.14-2.01,.26-2.97,.36l-.18-1.12c.86-.08,1.91-.18,3.11-.3l.04,1.06Zm-.66,3.8c.78,.52,1.57,1.18,2.01,1.75l-.04-.08c.7,.02,1.47,.02,1.71,.02s.3-.06,.3-.26v-1.43h-3.98Zm.26,3.47c.42,.78,.94,1.49,1.63,2.09,1.06-.64,2.35-1.55,3.21-2.29-.64,.2-1.43,.24-2.43,.22-.08-.5-.34-1.12-.6-1.63l-1.59,1.1c-.06-.08-.14-.18-.22-.28v.78Zm1.93-9.4c.44,.4,.92,.82,1.29,1.19,.52-.34,1-.74,1.38-1.19h-2.67Z"/></g><g><path class="cls-13" d="M232.83,359.08v1.93h-14.76v-1.93h6.08v-1.17h-4.26v-1.45c-.36,.46-.76,.86-1.14,1.22-.14-.42-.6-1.43-.94-1.99-.24,2.09-.82,4.4-2.15,6.03-.36-.44-1.35-1.29-1.85-1.55,1.63-2.01,1.79-4.86,1.79-6.93v-3.57h2.71c-.32-.34-.72-.7-1-.92,1.45-.22,3.03-.5,4.58-.86-1.27-.32-2.57-.6-3.76-.82l1.13-.87h-3.45v-1.87h6.99c-.24-.38-.52-.74-.76-1.04l1.61-.78c.46,.52,1.01,1.22,1.35,1.83h6.95v1.87h-2.91l.96,.6c-.72,.34-1.57,.68-2.47,1,1.18,.32,2.27,.64,3.17,.94l-1.13,.92h2.95v1.91h-14.58v1.69c0,.64-.02,1.35-.1,2.11,.96-.94,1.79-2.23,2.29-3.62l2.03,.6c-.1,.26-.2,.52-.32,.8h2.33v-1.22h2.35v1.22h4.96v1.87h-4.96v1.04h4.38v1.83h-4.38v1.17h6.32Zm-8.67-2.99v-1.04h-3.27c-.22,.36-.44,.7-.68,1.04h3.96Zm4.1-6.41c-.98-.34-2.19-.68-3.45-1.02-1.45,.38-2.91,.72-4.32,1.02h7.77Zm-7.23-3.47c1.27,.28,2.59,.58,3.92,.9,.96-.26,1.89-.58,2.63-.9h-6.55Z"/><path class="cls-13" d="M235.98,352.45h7.65v8.94h-2.39v-.9h-2.99v1h-2.27v-9.04Zm2.27,2.29v3.45h2.99v-3.45h-2.99Zm12.27-3.96h-11.77v-7.27h11.77v7.27Zm-2.43-4.98h-7.03v2.71h7.03v-2.71Zm5.14,6.65v8.96h-2.41v-.92h-3.19v1h-2.29v-9.04h7.89Zm-2.41,5.74v-3.45h-3.19v3.45h3.19Z"/></g><g><path class="cls-13" d="M85.09,211v18.07h-2.61v-1.06h-12.07v1.06h-2.49v-18.07h17.17Zm-2.61,14.78v-12.33h-12.07v12.33h12.07Zm-1.95-9.96v7.63h-8.19v-7.63h8.19Zm-2.41,2.09h-3.53v3.47h3.53v-3.47Z"/><path class="cls-13" d="M105.81,216.32c-.52,2.97-1.3,5.48-2.49,7.55,1.06,1.35,2.33,2.43,3.84,3.19-.52,.42-1.27,1.33-1.63,1.97-1.38-.8-2.57-1.87-3.59-3.15-1.06,1.33-2.39,2.41-3.98,3.29-.28-.5-1.06-1.51-1.55-1.95,1.75-.84,3.09-1.95,4.18-3.37-.76-1.3-1.41-2.77-1.91-4.38-.32,.52-.68,1-1.04,1.45-.26-.46-.95-1.35-1.45-1.87v10.08h-2.37v-5.18c-3.19,1.13-3.86,1.49-4.3,1.85-.16-.58-.56-1.67-.92-2.19,.38-.22,.74-.6,.74-1.43v-9.68h2.35v9.8l2.13-.64v-11h2.37v7.91c1.57-1.95,2.49-5,2.97-8.23l2.43,.4c-.2,1.13-.42,2.25-.7,3.31h6.13v2.27h-1.21Zm-5.64,0c-.06,.18-.14,.36-.2,.54,.46,1.73,1.11,3.37,1.91,4.82,.74-1.53,1.24-3.31,1.57-5.36h-3.27Z"/><path class="cls-13" d="M116.32,222.73c-.06-.28-.14-.6-.24-.94-4.3,.7-5.02,.88-5.48,1.11-.12-.42-.5-1.51-.74-2.09,.52-.1,1-.58,1.69-1.32,.26-.28,.78-.86,1.38-1.67-1.71,.2-2.17,.32-2.49,.46-.12-.44-.46-1.47-.72-2.05,.42-.1,.78-.48,1.21-1.06,.46-.56,1.83-2.81,2.63-4.94l2.13,.88c-.82,1.69-1.87,3.41-2.95,4.84l1.63-.12c.54-.87,1.08-1.77,1.55-2.67l1.93,1.25c-1.23,2.07-2.79,4.14-4.4,5.86l2.05-.28c-.16-.48-.36-.96-.54-1.41l1.73-.64c.6,1.29,1.22,2.99,1.49,4.04l-1.83,.76Zm-3.7,1.12c-.12,1.81-.48,3.72-.9,4.92-.42-.22-1.41-.54-1.91-.66,.46-1.19,.7-2.97,.82-4.58l1.99,.32Zm2.35-.48c.24,1.35,.48,3.03,.54,4.18l-1.93,.42c-.04-1.17-.24-2.91-.46-4.24l1.85-.36Zm2.19-.7c.4,1.09,.82,2.47,1,3.39l-1.85,.64c-.12-.94-.54-2.37-.88-3.49l1.73-.54Zm8.13-2.47c.24,3.8,.72,6.45,1.35,6.45,.28,0,.4-1,.44-3.01,.46,.48,1.22,.92,1.79,1.16-.26,3.23-.92,4.06-2.47,4.06-2.07,0-2.93-3.69-3.27-8.65h-2.61v5.76l2.65-.78c.04,.62,.16,1.57,.28,2.05-3.77,1.27-4.48,1.61-4.9,1.93-.18-.5-.7-1.38-1.04-1.77,.38-.28,.78-.84,.78-1.79v-13.25h.02c2.97-.44,6.27-1.13,8.38-1.81l1.65,1.93c-.94,.28-2.05,.54-3.15,.76-.04,1.67-.02,3.27,.02,4.76h3.25v2.21h-3.15Zm-2.31-2.21c-.06-1.39-.08-2.85-.1-4.32-.8,.14-1.59,.26-2.37,.38v3.94h2.47Z"/></g><g><ellipse class="cls-9" cx="146.49" cy="63.94" rx="38.59" ry="39.76"/><polyline class="cls-14" points="125.86 65.75 125.86 83.97 131.37 83.97 134.88 69.88"/><polyline class="cls-3" points="125.86 65.75 125.86 83.97 131.37 83.97 134.88 69.88"/><polyline class="cls-14" points="165.81 65.75 165.81 83.97 160.32 83.97 156.79 69.88"/><polyline class="cls-3" points="165.81 65.75 165.81 83.97 160.32 83.97 156.79 69.88"/><polyline class="cls-14" points="140.59 71.78 142.37 83.97 148.93 83.97 150.58 71.78"/><polyline class="cls-3" points="140.59 71.78 142.37 83.97 148.93 83.97 150.58 71.78"/><path class="cls-7" d="M168.35,29.23v30.32c0,6.86-10.19,12.42-22.75,12.42s-22.8-5.56-22.8-12.42V28.67"/><path class="cls-3" d="M168.35,29.23v30.32c0,6.86-10.19,12.42-22.75,12.42s-22.8-5.56-22.8-12.42V28.67"/><path class="cls-12" d="M122.78,28.67c0,6.86,10.21,12.42,22.8,12.42s22.75-5.56,22.75-12.42-10.19-12.4-22.75-12.4-22.8,5.56-22.8,12.4Z"/><path class="cls-3" d="M122.78,28.67c0,6.86,10.21,12.42,22.8,12.42s22.75-5.56,22.75-12.42-10.19-12.4-22.75-12.4-22.8,5.56-22.8,12.4Z"/><path class="cls-7" d="M132.36,12.61l-9.58,13.64s-.59,14.84,22.21,14.84c25.54,0,23.34-15.12,23.34-15.12l-9.77-12.14"/><path class="cls-3" d="M132.36,12.61l-9.58,13.64s-.59,14.84,22.21,14.84c25.54,0,23.34-15.12,23.34-15.12l-9.77-12.14"/><path class="cls-3" d="M126.48,21.93s-.49,13.25,18.61,13.25c21.4,0,19.55-13.5,19.55-13.5"/><path class="cls-12" d="M159.68,15.98c0,4.34-6.36,7.85-14.21,7.85s-14.21-3.52-14.21-7.85,6.37-7.84,14.21-7.84,14.21,3.52,14.21,7.84Z"/><path class="cls-3" d="M159.67,15.98c0,4.34-6.35,7.85-14.21,7.85s-14.21-3.52-14.21-7.85,6.37-7.84,14.21-7.84,14.21,3.52,14.21,7.84Z"/><path class="cls-12" d="M151.87,15.66c0,1.95-2.86,3.54-6.39,3.54s-6.39-1.58-6.39-3.54,2.86-3.54,6.39-3.54,6.39,1.59,6.39,3.54Z"/><path class="cls-3" d="M151.87,15.66c0,1.95-2.86,3.54-6.39,3.54s-6.39-1.58-6.39-3.54,2.86-3.54,6.39-3.54,6.39,1.59,6.39,3.54Z"/><path class="cls-12" d="M158.46,57.32c0,3.97-5.81,7.18-13,7.18s-13-3.2-13-7.18,5.81-7.18,13-7.18,13,3.2,13,7.18Z"/><ellipse class="cls-3" cx="145.46" cy="57.32" rx="13" ry="7.18"/><path class="cls-12" d="M154.33,55.09c0,2.7-3.97,4.89-8.87,4.89s-8.87-2.19-8.87-4.89,3.97-4.89,8.87-4.89c4.9-.02,8.87,2.18,8.87,4.89Z"/><path class="cls-3" d="M154.33,55.09c0,2.7-3.97,4.89-8.87,4.89s-8.87-2.19-8.87-4.89,3.97-4.89,8.87-4.89c4.9-.02,8.87,2.18,8.87,4.89Z"/><path class="cls-12" d="M147.27,55.09c0,.54-.81,.99-1.81,.99s-1.81-.45-1.81-.99,.81-.99,1.81-.99c1-.02,1.81,.44,1.81,.99Z"/><path class="cls-3" d="M147.27,55.09c0,.54-.81,.99-1.81,.99s-1.81-.45-1.81-.99,.81-.99,1.81-.99c1-.02,1.81,.44,1.81,.99Z"/><path class="cls-14" d="M153.15,57.51l-1.62,6.36s-5.93,3.62-14.89,1.22l4.11-4.18s9.48-1.97,12.41-3.4Z"/><path class="cls-3" d="M153.15,57.51l-1.62,6.36s-5.93,3.62-14.89,1.22l4.11-4.18s9.48-1.97,12.41-3.4Z"/><path class="cls-14" d="M153.62,51.89l4.83,.61,5.8,6.27-6.1,.73s.3-5.31-4.53-7.61Z"/><path class="cls-3" d="M153.62,51.89l4.83,.61,5.8,6.27-6.1,.73s.3-5.31-4.53-7.61Z"/><polygon class="cls-14" points="133.41 59.99 136.62 55.48 136.61 52.08 133.6 52.64 127.02 58.89 133.41 59.99"/><polygon class="cls-3" points="133.41 59.99 136.62 55.48 136.6 52.08 133.6 52.64 127.02 58.89 133.41 59.99"/><polyline class="cls-3" points="126.42 65.75 126.42 83.97 131.93 83.97 135.45 69.88"/><polyline class="cls-3" points="166.38 65.75 166.38 83.97 160.88 83.97 157.35 69.88"/><polyline class="cls-3" points="141.16 71.78 142.93 83.97 149.49 83.97 151.15 71.78"/><path class="cls-7" d="M168.91,29.23v30.32c0,6.86-10.19,12.42-22.75,12.42s-22.8-5.56-22.8-12.42V28.67"/><path class="cls-3" d="M168.91,29.23v30.32c0,6.86-10.19,12.42-22.75,12.42s-22.8-5.56-22.8-12.42V28.67"/><path class="cls-12" d="M123.35,28.67c0,6.86,10.21,12.42,22.8,12.42s22.75-5.56,22.75-12.42-10.19-12.4-22.75-12.4-22.8,5.56-22.8,12.4Z"/><path class="cls-3" d="M123.35,28.67c0,6.86,10.21,12.42,22.8,12.42s22.75-5.56,22.75-12.42-10.19-12.4-22.75-12.4-22.8,5.56-22.8,12.4Z"/><path class="cls-12" d="M132.93,12.61l-9.58,13.64s-.59,14.84,22.21,14.84c25.54,0,23.34-15.12,23.34-15.12l-9.77-12.14"/><path class="cls-1" d="M132.93,12.61l-9.58,13.64s-.59,14.84,22.21,14.84c25.54,0,23.34-15.12,23.34-15.12l-9.77-12.14"/><path class="cls-7" d="M127.05,21.93s-.49,13.25,18.61,13.25c21.4,0,19.55-13.5,19.55-13.5"/><path class="cls-3" d="M127.05,21.93s-.49,13.25,18.61,13.25c21.4,0,19.55-13.5,19.55-13.5"/><path class="cls-12" d="M160.24,15.98c0,4.34-6.35,7.85-14.21,7.85s-14.21-3.52-14.21-7.85,6.37-7.84,14.21-7.84,14.21,3.52,14.21,7.84Z"/><path class="cls-3" d="M160.24,15.98c0,4.34-6.35,7.85-14.21,7.85s-14.21-3.52-14.21-7.85,6.37-7.84,14.21-7.84,14.21,3.52,14.21,7.84Z"/><path class="cls-3" d="M152.43,15.66c0,1.95-2.86,3.54-6.39,3.54s-6.39-1.58-6.39-3.54,2.86-3.54,6.39-3.54,6.39,1.59,6.39,3.54Z"/><ellipse class="cls-11" cx="146.03" cy="57.32" rx="13" ry="7.18"/><ellipse class="cls-3" cx="146.03" cy="57.32" rx="13" ry="7.18"/><path class="cls-12" d="M154.9,55.09c0,2.7-3.97,4.89-8.87,4.89s-8.87-2.19-8.87-4.89,3.97-4.89,8.87-4.89c4.9-.02,8.87,2.18,8.87,4.89Z"/><path class="cls-3" d="M154.9,55.09c0,2.7-3.97,4.89-8.87,4.89s-8.87-2.19-8.87-4.89,3.97-4.89,8.87-4.89c4.9-.02,8.87,2.18,8.87,4.89Z"/><path class="cls-12" d="M147.84,55.09c0,.54-.81,.99-1.81,.99s-1.81-.45-1.81-.99,.81-.99,1.81-.99c1-.02,1.81,.44,1.81,.99Z"/><path class="cls-3" d="M147.84,55.09c0,.54-.81,.99-1.81,.99s-1.81-.45-1.81-.99,.81-.99,1.81-.99c1-.02,1.81,.44,1.81,.99Z"/><path class="cls-14" d="M153.72,57.51l-1.62,6.36s-5.93,3.62-14.89,1.22l4.11-4.18s9.48-1.97,12.41-3.4Z"/><path class="cls-3" d="M153.72,57.51l-1.62,6.36s-5.93,3.62-14.89,1.22l4.11-4.18s9.48-1.97,12.41-3.4Z"/><path class="cls-14" d="M154.19,51.89l4.83,.61,5.8,6.27-6.1,.73s.3-5.31-4.53-7.61Z"/><path class="cls-3" d="M154.19,51.89l4.83,.61,5.8,6.27-6.1,.73s.3-5.31-4.53-7.61Z"/><polygon class="cls-14" points="133.98 59.99 137.19 55.48 137.17 52.08 134.16 52.64 127.59 58.89 133.98 59.99"/><polygon class="cls-3" points="133.98 59.99 137.19 55.48 137.17 52.08 134.16 52.64 127.59 58.89 133.98 59.99"/></g><circle class="cls-9" cx="407.78" cy="166.91" r="85.44" transform="translate(1.41 337.23) rotate(-45)"/><g><polygon class="cls-12" points="372.59 224.87 371.67 251.48 362.71 255.41 363.12 243.81 348.77 237.59 356.66 220.73 372.59 224.87"/><polygon class="cls-4" points="372.59 224.87 371.67 251.48 362.71 255.41 363.12 243.81 348.77 237.59 356.66 220.73 372.59 224.87"/><polygon class="cls-12" points="499.92 155.03 498.25 203.23 518.7 192.81 520.09 152.71 499.92 155.03"/><polygon class="cls-4" points="499.92 155.03 498.25 203.23 518.7 192.81 520.09 152.71 499.92 155.03"/><path class="cls-15" d="M421.8,150.72c.05,.28-.89,25.69-.89,25.69l-.52,15.21,77.87,11.62,1.67-48.2-78.13-4.32Z"/><path class="cls-4" d="M421.8,150.72c.05,.28-.89,25.69-.89,25.69l-.52,15.21,77.87,11.62,1.67-48.2-78.13-4.32Z"/><polygon class="cls-12" points="451.97 148.95 421.8 150.72 499.92 155.03 520.09 152.71 451.97 148.95"/><polygon class="cls-4" points="451.97 148.95 421.8 150.72 499.92 155.03 520.09 152.71 451.97 148.95"/><line class="cls-4" x1="498.68" y1="190.64" x2="519.08" y2="181.95"/><line class="cls-4" x1="498.53" y1="195.34" x2="518.91" y2="186.66"/><polyline class="cls-12" points="478.65 199.91 479.7 169.33 476.03 169.25 474.18 171.14 470.94 170.7 469.23 172.71 423.3 168.9 420.39 176.83 419.73 198.86 457.11 203.83"/><polyline class="cls-4" points="478.65 199.91 479.7 169.33 476.03 169.25 474.18 171.14 470.94 170.7 469.23 172.71 423.3 168.9 420.39 176.83 419.73 198.86 457.11 203.83"/><path class="cls-7" d="M425.75,163.25c-.57-.06-1.35-.98-1.23-2.08,.12-1.1,.83-2.02,1.38-1.96l4.52,.49-.57,4.01-4.1-.46Z"/><path class="cls-4" d="M425.75,163.25c-.57-.06-1.35-.98-1.23-2.08,.12-1.1,.83-2.02,1.38-1.96l4.52,.49-.57,4.01-4.1-.46Z"/><path class="cls-12" d="M431.17,161.63c-.05,1.12-.63,2.13-1.19,2.1-.57-.03-1-.88-.93-2,.05-1.12,.69-2.07,1.26-2.04,.57,.03,.92,.82,.87,1.94Z"/><path class="cls-4" d="M431.17,161.63c-.05,1.12-.63,2.13-1.19,2.1s-1-.88-.93-2c.05-1.12,.69-2.07,1.26-2.04,.57,.03,.92,.82,.87,1.94Z"/><path class="cls-12" d="M429.82,165.89c-1.19-.05-2.1-1.86-1.99-4.21,.09-2.35,1.44-4.36,2.63-4.31l45.93,3.79-.29,8.54-46.28-3.8Z"/><path class="cls-4" d="M429.82,165.89c-1.19-.05-2.1-1.86-1.99-4.21,.09-2.35,1.44-4.36,2.63-4.31l45.93,3.79-.29,8.54-46.28-3.8Z"/><path class="cls-7" d="M478.25,165.23c-.11,2.35-1.3,4.51-2.5,4.45-1.19-.05-2.08-1.86-1.99-4.21,.11-2.35,1.45-4.36,2.63-4.29,1.19,.05,1.96,1.7,1.85,4.06Z"/><path class="cls-4" d="M478.25,165.23c-.11,2.35-1.3,4.51-2.5,4.45-1.19-.05-2.08-1.86-1.99-4.21,.11-2.35,1.45-4.36,2.63-4.29,1.19,.05,1.96,1.7,1.85,4.06Z"/><path class="cls-7" d="M477.45,167.67c-.57-.06-1.35-.96-1.23-2.08,.12-1.12,.83-2,1.38-1.94l4.52,.47-.57,4.01-4.1-.46Z"/><path class="cls-4" d="M477.45,167.67c-.57-.06-1.35-.96-1.23-2.08,.12-1.12,.83-2,1.38-1.94l4.52,.47-.57,4.01-4.1-.46Z"/><path class="cls-12" d="M482.89,166.05c-.05,1.12-.63,2.13-1.19,2.11-.57-.03-1-.9-.93-2,.06-1.12,.69-2.07,1.26-2.04,.57,.03,.92,.8,.87,1.93Z"/><path class="cls-4" d="M482.89,166.05c-.05,1.12-.63,2.13-1.19,2.11-.57-.03-1-.9-.93-2,.06-1.12,.69-2.07,1.26-2.04,.57,.03,.92,.8,.87,1.93Z"/><path class="cls-7" d="M419.22,166.28c-.57-.06-1.35-.96-1.23-2.07,.12-1.1,.83-2.02,1.38-1.96l4.53,.49-.58,4.01-4.1-.47Z"/><path class="cls-4" d="M419.22,166.28c-.57-.06-1.35-.96-1.23-2.07,.12-1.1,.83-2.02,1.38-1.96l4.53,.49-.58,4.01-4.1-.47Z"/><path class="cls-12" d="M424.64,164.66c-.06,1.12-.63,2.13-1.19,2.1-.57-.03-1-.88-.93-2,.05-1.12,.69-2.07,1.26-2.04,.57,.03,.93,.82,.87,1.94Z"/><path class="cls-4" d="M424.64,164.66c-.06,1.12-.63,2.13-1.19,2.1-.57-.03-1-.88-.93-2,.05-1.12,.69-2.07,1.26-2.04,.57,.03,.93,.82,.87,1.94Z"/><path class="cls-12" d="M423.3,168.9c-1.19-.05-2.08-1.86-1.99-4.21,.11-2.35,1.45-4.34,2.65-4.29l45.93,3.79-.31,8.54-46.28-3.82Z"/><path class="cls-4" d="M423.3,168.9c-1.19-.05-2.08-1.86-1.99-4.21,.11-2.35,1.45-4.34,2.65-4.29l45.93,3.79-.31,8.54-46.28-3.82Z"/><path class="cls-7" d="M471.73,168.26c-.11,2.35-1.3,4.51-2.5,4.45-1.19-.05-2.08-1.86-1.98-4.21,.11-2.37,1.44-4.36,2.65-4.31,1.18,.06,1.93,1.7,1.82,4.07Z"/><path class="cls-4" d="M471.73,168.26c-.11,2.35-1.3,4.51-2.5,4.45-1.19-.05-2.08-1.86-1.98-4.21,.11-2.37,1.44-4.36,2.65-4.31,1.18,.06,1.93,1.7,1.82,4.07Z"/><path class="cls-7" d="M470.94,170.7c-.57-.06-1.35-.96-1.23-2.07,.12-1.12,.83-2.02,1.38-1.96l4.52,.49-.58,4.01-4.09-.47Z"/><path class="cls-4" d="M470.94,170.7c-.57-.06-1.35-.96-1.23-2.07,.12-1.12,.83-2.02,1.38-1.96l4.52,.49-.58,4.01-4.09-.47Z"/><path class="cls-12" d="M476.37,169.08c-.05,1.12-.63,2.15-1.19,2.11-.57-.03-1-.88-.93-2,.06-1.12,.69-2.07,1.27-2.04,.55,.02,.92,.8,.86,1.93Z"/><path class="cls-4" d="M476.37,169.08c-.05,1.12-.63,2.15-1.19,2.11-.57-.03-1-.88-.93-2,.06-1.12,.69-2.07,1.27-2.04,.55,.02,.92,.8,.86,1.93Z"/><path class="cls-7" d="M419.33,184.34c-.57-.06-1.35-.96-1.23-2.07,.12-1.12,.81-2.02,1.38-1.96l4.52,.47-.57,4.01-4.1-.46Z"/><path class="cls-4" d="M419.33,184.34c-.57-.06-1.35-.96-1.23-2.07,.12-1.12,.81-2.02,1.38-1.96l4.52,.47-.57,4.01-4.1-.46Z"/><path class="cls-12" d="M424.75,182.71c-.06,1.12-.63,2.13-1.19,2.11-.57-.03-1-.88-.93-2,.05-1.12,.69-2.07,1.26-2.04,.57,.02,.92,.8,.87,1.93Z"/><path class="cls-4" d="M424.75,182.71c-.06,1.12-.63,2.13-1.19,2.11-.57-.03-1-.88-.93-2,.05-1.12,.69-2.07,1.26-2.04,.57,.02,.92,.8,.87,1.93Z"/><path class="cls-12" d="M423.4,186.97c-1.19-.06-2.08-1.86-1.99-4.21,.11-2.35,1.44-4.36,2.63-4.31l45.93,3.79-.29,8.54-46.28-3.8Z"/><path class="cls-4" d="M423.4,186.97c-1.19-.06-2.08-1.86-1.99-4.21,.11-2.35,1.44-4.36,2.63-4.31l45.93,3.79-.29,8.54-46.28-3.8Z"/><path class="cls-7" d="M471.83,186.31c-.11,2.35-1.3,4.51-2.5,4.45-1.19-.06-2.08-1.86-1.99-4.21,.11-2.35,1.44-4.36,2.63-4.31,1.19,.06,1.96,1.72,1.85,4.07Z"/><path class="cls-4" d="M471.83,186.31c-.11,2.35-1.3,4.51-2.5,4.45-1.19-.06-2.08-1.86-1.99-4.21,.11-2.35,1.44-4.36,2.63-4.31,1.19,.06,1.96,1.72,1.85,4.07Z"/><path class="cls-7" d="M471.05,188.76c-.57-.06-1.35-.96-1.23-2.07,.12-1.1,.81-2.02,1.38-1.94l4.52,.47-.58,4.01-4.09-.47Z"/><path class="cls-4" d="M471.05,188.76c-.57-.06-1.35-.96-1.23-2.07,.12-1.1,.81-2.02,1.38-1.94l4.52,.47-.58,4.01-4.09-.47Z"/><path class="cls-12" d="M476.46,187.13c-.05,1.12-.63,2.13-1.19,2.1-.57-.03-.98-.88-.93-2,.05-1.12,.69-2.07,1.26-2.04,.58,.05,.93,.82,.87,1.94Z"/><path class="cls-4" d="M476.46,187.13c-.05,1.12-.63,2.13-1.19,2.1-.57-.03-.98-.88-.93-2,.05-1.12,.69-2.07,1.26-2.04,.58,.05,.93,.82,.87,1.94Z"/><path class="cls-7" d="M412.82,186.06c-.57-.06-1.35-.96-1.23-2.07,.14-1.11,.81-2.02,1.38-1.96l4.53,.47-.58,4.01-4.1-.46Z"/><path class="cls-4" d="M412.82,186.06c-.57-.06-1.35-.96-1.23-2.07,.14-1.1,.81-2.02,1.38-1.96l4.53,.47-.58,4.01-4.1-.46Z"/><path class="cls-12" d="M418.26,184.43c-.06,1.12-.63,2.13-1.19,2.1-.57-.03-.98-.88-.93-2,.05-1.12,.69-2.07,1.26-2.04,.55,.05,.92,.82,.87,1.94Z"/><path class="cls-4" d="M418.26,184.43c-.06,1.12-.63,2.13-1.19,2.1-.57-.03-.98-.88-.93-2,.05-1.12,.69-2.07,1.26-2.04,.55,.05,.92,.82,.87,1.94Z"/><path class="cls-12" d="M416.9,188.69c-1.19-.05-2.1-1.86-1.99-4.23,.11-2.35,1.45-4.36,2.65-4.31l45.93,3.79-.31,8.54-46.28-3.79Z"/><path class="cls-4" d="M416.9,188.69c-1.19-.05-2.1-1.86-1.99-4.23,.11-2.35,1.45-4.36,2.65-4.31l45.93,3.79-.31,8.54-46.28-3.79Z"/><path class="cls-7" d="M465.34,188.03c-.11,2.35-1.32,4.51-2.51,4.45-1.19-.06-2.08-1.86-1.99-4.23,.11-2.35,1.44-4.36,2.63-4.29,1.21,.06,1.96,1.72,1.87,4.07Z"/><path class="cls-4" d="M465.34,188.03c-.11,2.35-1.32,4.51-2.51,4.45-1.19-.06-2.08-1.86-1.99-4.23,.11-2.35,1.44-4.36,2.63-4.29,1.21,.06,1.96,1.72,1.87,4.07Z"/><path class="cls-7" d="M464.54,190.49c-.57-.06-1.35-.96-1.23-2.08,.12-1.1,.83-2,1.38-1.94l4.52,.47-.58,4.01-4.09-.46Z"/><path class="cls-4" d="M464.54,190.49c-.57-.06-1.35-.96-1.23-2.08,.12-1.1,.83-2,1.38-1.94l4.52,.47-.58,4.01-4.09-.46Z"/><path class="cls-12" d="M469.96,188.87c-.06,1.12-.63,2.13-1.19,2.11-.57-.03-1-.88-.93-2,.05-1.12,.69-2.05,1.26-2.04,.58,.02,.93,.81,.87,1.93Z"/><path class="cls-4" d="M469.96,188.87c-.06,1.12-.63,2.13-1.19,2.11-.57-.03-1-.88-.93-2,.05-1.12,.69-2.05,1.26-2.04,.58,.02,.93,.81,.87,1.93Z"/><path class="cls-12" d="M445.09,179.22l-40.62-4.59c-4.04-.19-8.91,5.07-9.25,13.05-.34,7.95,4.12,14.14,8.16,14.33l39.5,6.03"/><path class="cls-4" d="M445.09,179.22l-40.62-4.59c-4.04-.19-8.91,5.07-9.25,13.05-.34,7.95,4.12,14.14,8.16,14.33l39.5,6.03"/><path class="cls-7" d="M451.36,192.97c-.34,7.97-4.43,15.25-8.47,15.06-4.04-.17-7.06-6.28-6.72-14.27,.35-7.97,4.89-14.72,8.93-14.54,4.04,.19,6.6,5.79,6.26,13.75Z"/><path class="cls-4" d="M451.36,192.97c-.34,7.97-4.43,15.25-8.47,15.06-4.04-.17-7.06-6.28-6.72-14.27,.35-7.97,4.89-14.73,8.93-14.54,4.04,.19,6.6,5.79,6.26,13.75Z"/><path class="cls-12" d="M431.38,181.53l-43.56-4.92c-4.33-.21-9.56,5.43-9.92,13.98-.37,8.54,4.41,15.18,8.75,15.37l42.38,6.47"/><path class="cls-4" d="M431.38,181.53l-43.56-4.92c-4.33-.21-9.56,5.43-9.92,13.98-.37,8.54,4.41,15.18,8.75,15.37l42.38,6.47"/><path class="cls-7" d="M438.09,196.27c-.37,8.54-4.75,16.35-9.08,16.15-4.33-.21-7.57-6.75-7.2-15.29,.37-8.55,5.24-15.8,9.57-15.61,4.33,.22,7.08,6.22,6.71,14.76Z"/><path class="cls-4" d="M438.09,196.27c-.37,8.54-4.75,16.35-9.08,16.15-4.33-.21-7.57-6.75-7.2-15.29,.37-8.55,5.24-15.8,9.57-15.61,4.33,.22,7.08,6.22,6.71,14.76Z"/><path class="cls-12" d="M417.52,185.19l-47.69-5.4c-4.73-.22-10.46,5.95-10.86,15.31-.41,9.36,4.84,16.62,9.59,16.82l46.38,7.09"/><path class="cls-4" d="M417.52,185.19l-47.69-5.4c-4.73-.22-10.46,5.95-10.86,15.31-.41,9.36,4.84,16.62,9.59,16.82l46.38,7.09"/><path class="cls-7" d="M424.86,201.34c-.4,9.36-5.19,17.9-9.94,17.68-4.75-.22-8.29-7.39-7.89-16.75,.4-9.36,5.73-17.3,10.48-17.08,4.76,.22,7.75,6.79,7.35,16.15Z"/><path class="cls-4" d="M424.86,201.34c-.4,9.36-5.19,17.9-9.94,17.68-4.75-.22-8.29-7.39-7.89-16.75,.4-9.36,5.73-17.3,10.48-17.08,4.76,.22,7.75,6.79,7.35,16.15Z"/><path class="cls-12" d="M398.35,189.45l-51.94-5.89c-5.18-.24-11.39,6.49-11.84,16.67-.44,10.2,5.27,18.1,10.43,18.34l50.51,7.72"/><path class="cls-4" d="M398.35,189.45l-51.94-5.89c-5.18-.24-11.39,6.49-11.84,16.67-.44,10.2,5.27,18.1,10.43,18.34l50.51,7.72"/><path class="cls-7" d="M406.34,207.03c-.44,10.18-5.65,19.49-10.83,19.25s-9.02-8.06-8.59-18.24c.44-10.18,6.25-18.83,11.41-18.59,5.18,.24,8.45,7.39,8.01,17.58Z"/><path class="cls-4" d="M406.34,207.03c-.44,10.18-5.65,19.49-10.83,19.25s-9.02-8.06-8.59-18.24c.44-10.18,6.25-18.83,11.41-18.59,5.18,.24,8.45,7.39,8.01,17.58Z"/><path class="cls-12" d="M351.94,225.62c-1.55-.08-2.7-2.41-2.56-5.46,.12-3.05,1.87-5.63,3.42-5.57l17.49,2.6-.38,11.05-17.97-2.62Z"/><path class="cls-4" d="M351.94,225.62c-1.55-.08-2.7-2.41-2.56-5.46,.12-3.05,1.87-5.63,3.42-5.57l17.49,2.6-.38,11.05-17.97-2.62Z"/><path class="cls-7" d="M372.66,222.47c-.14,3.05-1.7,5.84-3.25,5.76-1.55-.06-2.7-2.41-2.57-5.46,.12-3.05,1.87-5.63,3.42-5.57,1.56,.08,2.54,2.21,2.4,5.27Z"/><path class="cls-4" d="M372.66,222.47c-.14,3.05-1.7,5.84-3.25,5.76-1.55-.06-2.7-2.41-2.57-5.46,.12-3.05,1.87-5.63,3.42-5.57,1.56,.08,2.54,2.21,2.4,5.27Z"/><path class="cls-7" d="M371.01,225.64c-.74-.11-1.15-1.28-.93-2.71,.23-1.44,1.18-2.56,1.9-2.43l5.82,.88-.96,5.16-5.82-.9Z"/><path class="cls-4" d="M371.01,225.64c-.74-.11-1.15-1.28-.93-2.71,.23-1.44,1.18-2.56,1.9-2.43l5.82,.88-.96,5.16-5.82-.9Z"/><path class="cls-12" d="M378.65,224c-.21,1.44-1.09,2.67-1.82,2.54-.72-.11-1.15-1.28-.93-2.71,.21-1.44,1.16-2.56,1.9-2.45,.72,.11,1.09,1.18,.86,2.62Z"/><path class="cls-4" d="M378.65,224c-.21,1.44-1.09,2.67-1.82,2.54-.72-.11-1.15-1.28-.93-2.71,.21-1.44,1.16-2.56,1.9-2.45,.72,.11,1.09,1.18,.86,2.62Z"/><polygon class="cls-7" points="396.69 212.35 395.51 246.69 401.59 243.81 402.54 216.38 411.9 212.92 410.98 239.45 414.86 237.49 415.76 211.31 425.23 208.01 424.35 232.99 427.91 231.2 428.76 206.81 436.94 203.94 436.15 227.16 439.67 225.61 440.47 202.76 445.96 200.72 445.18 223.18 449.47 221.03 450.38 194.75 396.69 212.35"/><polygon class="cls-4" points="396.69 212.35 395.51 246.69 401.59 243.81 402.54 216.38 411.9 212.92 410.98 239.45 414.86 237.49 415.76 211.31 425.23 208.01 424.35 232.99 427.91 231.2 428.76 206.81 436.94 203.94 436.15 227.16 439.67 225.61 440.47 202.76 445.96 200.72 445.18 223.18 449.47 221.03 450.38 194.75 396.69 212.35"/><path class="cls-7" d="M416.57,206.42c-1.16-.06-2.04-1.82-1.93-4.09,.11-2.29,1.41-4.23,2.56-4.18l2.8,.11-.28,8.27-3.16-.11Z"/><path class="cls-4" d="M416.57,206.42c-1.16-.06-2.04-1.81-1.93-4.09,.11-2.29,1.41-4.23,2.56-4.18l2.8,.11-.28,8.27-3.16-.11Z"/><path class="cls-7" d="M421.8,202.2c-.11,2.29-1.26,4.37-2.42,4.32-1.16-.06-2.02-1.82-1.93-4.09,.09-2.29,1.41-4.23,2.56-4.18,1.15,.05,1.88,1.66,1.79,3.95Z"/><path class="cls-4" d="M421.8,202.2c-.11,2.29-1.26,4.37-2.42,4.32-1.16-.06-2.02-1.82-1.93-4.09,.09-2.29,1.41-4.23,2.56-4.18,1.15,.05,1.88,1.66,1.79,3.95Z"/><path class="cls-7" d="M398.18,213.3c-1.33-.06-2.31-2.07-2.21-4.67,.12-2.6,1.61-4.83,2.93-4.77l3.19,.13-.32,9.45-3.58-.14Z"/><path class="cls-4" d="M398.18,213.3c-1.33-.06-2.31-2.07-2.21-4.67,.12-2.6,1.61-4.83,2.93-4.77l3.19,.13-.32,9.45-3.58-.14Z"/><path class="cls-7" d="M404.14,208.47c-.11,2.62-1.46,5-2.77,4.94-1.33-.06-2.31-2.05-2.21-4.67,.11-2.62,1.59-4.83,2.93-4.77,1.33,.06,2.17,1.89,2.05,4.5Z"/><path class="cls-4" d="M404.14,208.47c-.11,2.62-1.45,5-2.77,4.94-1.33-.06-2.31-2.05-2.21-4.67,.11-2.62,1.59-4.83,2.93-4.77,1.33,.06,2.17,1.89,2.05,4.5Z"/><path class="cls-7" d="M403.03,211.29c-.63-.03-1.09-.96-1.03-2.19,.05-1.22,.75-2.26,1.36-2.23l4.98,.19-.34,4.4-4.98-.17Z"/><path class="cls-4" d="M403.03,211.29c-.63-.03-1.09-.96-1.03-2.19,.05-1.22,.75-2.26,1.36-2.23l4.98,.19-.34,4.4-4.98-.17Z"/><path class="cls-12" d="M409.28,209.16c-.05,1.23-.67,2.34-1.3,2.3-.63-.03-1.07-.96-1.03-2.18,.06-1.22,.75-2.26,1.38-2.23,.61,.02,1.01,.87,.95,2.1Z"/><path class="cls-4" d="M409.28,209.16c-.05,1.23-.67,2.34-1.3,2.3-.63-.03-1.07-.96-1.03-2.18,.06-1.22,.75-2.26,1.38-2.23,.61,.02,1.01,.87,.95,2.1Z"/><path class="cls-7" d="M420.71,204.11c-.47-.02-.83-.74-.8-1.67,.05-.93,.58-1.72,1.06-1.7l3.8,.14-.26,3.38-3.8-.14Z"/><path class="cls-4" d="M420.71,204.11c-.47-.02-.83-.74-.8-1.67,.05-.93,.58-1.72,1.06-1.7l3.8,.14-.26,3.38-3.8-.14Z"/><path class="cls-12" d="M425.5,202.49c-.05,.93-.52,1.78-1,1.77-.47-.02-.83-.74-.78-1.67,.05-.93,.57-1.72,1.04-1.7,.46,.02,.77,.68,.73,1.61Z"/><path class="cls-4" d="M425.5,202.49c-.05,.93-.52,1.78-1,1.77-.47-.02-.83-.74-.78-1.67,.05-.93,.57-1.72,1.04-1.7,.46,.02,.77,.68,.73,1.61Z"/><path class="cls-7" d="M430.94,202c-1.07-.06-1.87-1.67-1.78-3.77,.09-2.11,1.29-3.9,2.36-3.85l2.57,.09-.26,7.64-2.89-.11Z"/><path class="cls-4" d="M430.94,202c-1.07-.06-1.87-1.67-1.78-3.77,.09-2.11,1.29-3.9,2.36-3.85l2.57,.09-.26,7.64-2.89-.11Z"/><path class="cls-7" d="M435.76,198.1c-.09,2.11-1.16,4.04-2.24,3.99-1.07-.05-1.87-1.67-1.78-3.79,.09-2.1,1.3-3.9,2.36-3.85,1.07,.05,1.75,1.53,1.65,3.65Z"/><path class="cls-4" d="M435.76,198.1c-.09,2.11-1.16,4.04-2.24,3.99-1.07-.05-1.87-1.67-1.78-3.79,.09-2.1,1.3-3.9,2.36-3.85,1.07,.05,1.75,1.53,1.65,3.65Z"/><path class="cls-7" d="M434.72,199.85c-.43-.02-.75-.68-.72-1.52,.03-.85,.52-1.58,.95-1.55l3.46,.13-.25,3.08-3.45-.14Z"/><path class="cls-4" d="M434.72,199.85c-.43-.02-.75-.68-.72-1.52,.03-.85,.52-1.58,.95-1.55l3.46,.13-.25,3.08-3.45-.14Z"/><path class="cls-7" d="M439.07,198.37c-.03,.85-.47,1.61-.9,1.61-.43-.02-.75-.68-.72-1.53,.05-.84,.52-1.56,.95-1.55,.43,.02,.7,.62,.67,1.47Z"/><path class="cls-4" d="M439.07,198.37c-.03,.85-.47,1.61-.9,1.61-.43-.02-.75-.68-.72-1.53,.05-.84,.52-1.56,.95-1.55,.43,.02,.7,.62,.67,1.47Z"/><path class="cls-7" d="M445.01,198.16c-.96-.05-1.7-1.52-1.61-3.42,.08-1.93,1.18-3.54,2.14-3.49l2.34,.08-.25,6.94-2.63-.11Z"/><path class="cls-4" d="M445.01,198.16c-.96-.05-1.7-1.52-1.61-3.42,.08-1.93,1.18-3.54,2.14-3.49l2.34,.08-.25,6.94-2.63-.11Z"/><path class="cls-7" d="M449.39,194.63c-.09,1.93-1.07,3.68-2.04,3.63-.98-.05-1.7-1.52-1.62-3.42,.08-1.91,1.18-3.55,2.14-3.5,.98,.05,1.59,1.39,1.52,3.3Z"/><path class="cls-4" d="M449.39,194.63c-.09,1.93-1.07,3.68-2.04,3.63-.98-.05-1.7-1.52-1.62-3.42,.08-1.91,1.18-3.55,2.14-3.5,.98,.05,1.59,1.39,1.52,3.3Z"/><path class="cls-7" d="M448.45,196.22c-.4-.03-.69-.62-.66-1.39,.03-.77,.47-1.44,.86-1.4l3.14,.11-.21,2.79-3.12-.11Z"/><path class="cls-4" d="M448.45,196.22c-.4-.03-.69-.62-.66-1.39,.03-.77,.47-1.44,.86-1.4l3.14,.11-.21,2.79-3.12-.11Z"/><path class="cls-7" d="M452.4,194.88c-.03,.77-.43,1.47-.83,1.45-.38-.02-.67-.6-.66-1.39,.05-.77,.49-1.42,.87-1.42,.41,.05,.66,.58,.61,1.36Z"/><path class="cls-4" d="M452.4,194.88c-.03,.77-.43,1.47-.83,1.45-.38-.02-.67-.6-.66-1.39,.05-.77,.49-1.42,.87-1.42,.41,.05,.66,.58,.61,1.36Z"/><path class="cls-12" d="M349.12,204.13l-64.48-7.29c-6.42-.28-14.15,8.05-14.69,20.71-.55,12.64,6.54,22.46,12.96,22.76l62.72,9.6"/><path class="cls-4" d="M349.12,204.13l-64.48-7.29c-6.42-.28-14.15,8.05-14.69,20.71-.55,12.64,6.54,22.46,12.96,22.76l62.72,9.6"/><path class="cls-7" d="M359.06,225.96c-.55,12.64-7.01,24.21-13.43,23.91-6.42-.3-11.21-10.01-10.66-22.66,.55-12.66,7.75-23.39,14.17-23.09,6.4,.32,10.48,9.2,9.92,21.84Z"/><path class="cls-4" d="M359.06,225.96c-.55,12.64-7.01,24.21-13.43,23.91-6.42-.3-11.21-10.01-10.66-22.66,.55-12.66,7.75-23.39,14.17-23.09,6.4,.32,10.48,9.2,9.92,21.84Z"/><path class="cls-7" d="M347.94,232.96c-1.55-.06-2.7-2.41-2.56-5.46,.12-3.05,1.87-5.63,3.42-5.56l3.72,.14-.38,11.05-4.2-.17Z"/><path class="cls-4" d="M347.94,232.96c-1.55-.06-2.7-2.41-2.56-5.46,.12-3.05,1.87-5.63,3.42-5.56l3.72,.14-.38,11.05-4.2-.17Z"/><path class="cls-7" d="M354.93,227.34c-.12,3.06-1.7,5.84-3.23,5.76-1.55-.08-2.71-2.41-2.57-5.48,.12-3.05,1.87-5.63,3.42-5.56,1.53,.06,2.51,2.21,2.39,5.27Z"/><path class="cls-4" d="M354.93,227.34c-.12,3.06-1.7,5.84-3.23,5.76-1.55-.08-2.71-2.41-2.57-5.48,.12-3.05,1.87-5.63,3.42-5.56,1.53,.06,2.51,2.21,2.39,5.27Z"/><path class="cls-7" d="M353.46,230.66c-.78-.09-1.29-1.33-1.12-2.89,.17-1.55,1.15-2.81,1.95-2.71l6.33,.71-.83,5.6-6.33-.71Z"/><path class="cls-4" d="M353.46,230.66c-.78-.09-1.29-1.33-1.12-2.89,.17-1.55,1.15-2.81,1.95-2.71l6.33,.71-.83,5.6-6.33-.71Z"/><path class="cls-12" d="M361.64,228.54c-.18,1.55-1.07,2.92-1.87,2.82-.78-.09-1.29-1.34-1.1-2.89,.17-1.55,1.15-2.81,1.95-2.71,.78,.11,1.19,1.23,1.03,2.78Z"/><path class="cls-4" d="M361.64,228.54c-.18,1.55-1.07,2.92-1.87,2.83-.78-.09-1.29-1.34-1.1-2.89,.17-1.55,1.15-2.81,1.95-2.71,.78,.11,1.19,1.23,1.03,2.78Z"/><polyline class="cls-2" points="348.62 241.77 389.97 225.5 389.13 249.72 348.16 270.64"/><line class="cls-2" x1="382.8" y1="228.31" x2="381.94" y2="253.18"/><line class="cls-2" x1="367.32" y1="235.17" x2="366.43" y2="260.74"/><line class="cls-2" x1="358.65" y1="237.97" x2="357.68" y2="265.49"/><line class="cls-2" x1="375.44" y1="231.72" x2="374.58" y2="256.78"/><line class="cls-2" x1="349.72" y1="255.86" x2="389.54" y2="237.98"/><polygon class="cls-2" points="198.25 237.75 219.25 232.84 218.27 261.39 197.19 268.47 198.25 237.75"/><line class="cls-2" x1="197.71" y1="253.24" x2="218.74" y2="247.26"/><line class="cls-2" x1="209.49" y1="235.32" x2="208.48" y2="264.58"/><line class="cls-2" x1="221.82" y1="235.95" x2="233.89" y2="232.69"/><line class="cls-4" x1="233.89" y1="232.69" x2="233.18" y2="253.32"/><polygon class="cls-7" points="232.91 260.9 224.91 260.61 225.92 231.07 233.89 232.69 232.91 260.9"/><polygon class="cls-4" points="232.91 260.9 224.91 260.61 225.92 231.07 233.89 232.69 232.91 260.9"/><line class="cls-4" x1="214.15" y1="262.78" x2="224.96" y2="259.05"/><path class="cls-2" d="M220.55,232.21s-9.47-1.14-3.71-2.57c5.77-1.44,16.31-3.91,16.31-3.91"/><polyline class="cls-4" points="214.97 230.67 213.98 259.62 218.28 260.87"/><polyline class="cls-12" points="312.61 252.06 313.22 234.29 242.39 221.17 233.24 222.82"/><polyline class="cls-4" points="312.61 252.06 313.22 234.29 242.39 221.17 233.24 222.82"/><line class="cls-4" x1="305.9" y1="236.59" x2="313.22" y2="234.29"/><line class="cls-4" x1="248.48" y1="222.29" x2="269.94" y2="217.54"/><polyline class="cls-12" points="232.11 255.55 233.24 222.82 305.9 236.59 304.75 269.88"/><polyline class="cls-4" points="232.11 255.55 233.24 222.82 305.9 236.59 304.75 269.88"/><line class="cls-2" x1="232.71" y1="238.19" x2="244.79" y2="234.95"/><line class="cls-2" x1="244.59" y1="240.74" x2="256.68" y2="237.49"/><line class="cls-2" x1="255.31" y1="242.99" x2="267.4" y2="239.73"/><line class="cls-2" x1="268.13" y1="245.45" x2="280.22" y2="242.21"/><line class="cls-2" x1="281.93" y1="248.52" x2="294.02" y2="245.27"/><polygon class="cls-2" points="213.43 234.19 298.64 252.03 308.24 247.83 225.92 231.07 213.43 234.19"/><polygon class="cls-12" points="228.1 256.84 220.87 263.08 298.31 284.32 303.07 281.76 303.31 274.6 228.1 256.84"/><polygon class="cls-4" points="228.1 256.84 220.87 263.08 298.31 284.32 303.07 281.76 303.31 274.6 228.1 256.84"/><path class="cls-12" d="M304.81,262.29l-72.52-16.02c-1.47-.22-3.46,1.52-3.89,4.42-.43,2.94,.98,5.38,2.45,5.6l72.06,16.51"/><path class="cls-4" d="M304.81,262.29l-72.52-16.02c-1.47-.22-3.46,1.51-3.89,4.42-.43,2.94,.98,5.38,2.45,5.6l72.06,16.51"/><path class="cls-12" d="M310.3,268.43c-.43,2.92-2.21,5.43-3.69,5.19-1.49-.22-2.36-2.6-1.93-5.52,.43-2.92,2.34-5.22,3.83-4.99,1.47,.24,2.21,2.4,1.79,5.32Z"/><path class="cls-4" d="M310.3,268.43c-.43,2.92-2.21,5.43-3.69,5.19-1.49-.22-2.36-2.6-1.93-5.52,.43-2.92,2.34-5.22,3.83-4.99,1.47,.24,2.21,2.4,1.79,5.32Z"/><path class="cls-7" d="M304.65,272.96l-75.72-18.64c-.52-.09-1.23,.52-1.38,1.56-.15,1.04,.35,1.91,.87,2l75.55,18.81"/><path class="cls-4" d="M304.65,272.96l-75.72-18.64c-.52-.09-1.23,.52-1.38,1.56-.15,1.04,.35,1.91,.87,2l75.55,18.81"/><path class="cls-7" d="M308.92,275.65c-.15,1.04-.78,1.94-1.3,1.86-.52-.08-.84-.93-.69-1.97,.15-1.03,.83-1.85,1.36-1.77,.52,.08,.78,.84,.63,1.88Z"/><path class="cls-4" d="M308.92,275.65c-.15,1.04-.78,1.94-1.3,1.86s-.84-.93-.69-1.97c.15-1.03,.83-1.85,1.36-1.77,.52,.08,.78,.84,.63,1.88Z"/><polyline class="cls-2" points="304.17 250.04 286.79 256.29 285.59 290.76 303.05 281.9"/><line class="cls-2" x1="286.21" y1="272.96" x2="303.64" y2="265.54"/><line class="cls-2" x1="296.05" y1="252.96" x2="294.92" y2="285.63"/><path class="cls-15" d="M304.16,250.18c1.38,.49,9.69,3.72,18.95,.69,9.25-3.01,27.12-9.71,27.12-9.71l-1.01,28.93s-18.18,9.39-26.37,12.4c-8.19,3.01-19.79-.73-19.79-.73l1.1-31.6Z"/><path class="cls-4" d="M304.16,250.18c1.38,.49,9.69,3.72,18.95,.69,9.25-3.01,27.12-9.71,27.12-9.71l-1.01,28.93s-18.18,9.39-26.37,12.4c-8.19,3.01-19.79-.73-19.79-.73l1.1-31.6Z"/><line class="cls-4" x1="469.23" y1="172.71" x2="465.97" y2="181.91"/><polygon class="cls-4" points="457.51 192.58 456.88 210.6 468.22 212 468.86 193.52 457.51 192.58"/><polygon class="cls-4" points="468.86 193.52 490.66 186.23 490.12 201.89 468.22 212 468.86 193.52"/><line class="cls-4" x1="474.18" y1="192.02" x2="473.55" y2="210.19"/><line class="cls-4" x1="463.18" y1="193.19" x2="462.55" y2="211.36"/><line class="cls-4" x1="478.97" y1="190.32" x2="478.4" y2="207.13"/><line class="cls-4" x1="484.82" y1="188.22" x2="484.24" y2="205.15"/><line class="cls-4" x1="457.19" y1="201.71" x2="468.54" y2="202.83"/><line class="cls-4" x1="468.51" y1="203.34" x2="490.33" y2="195.53"/></g><g><path class="cls-11" d="M371.38,124.18c-.56,2.6-1.45,5.23-2.52,7.29,.35,.24,.75,.54,1.26,.83,1.82,1.1,4.32,1.26,7.45,1.26s7.88-.27,10.85-.7c-.37,.86-.86,2.41-.91,3.27-2.25,.13-6.94,.32-10.08,.32-3.54,0-5.79-.3-7.72-1.42-1.1-.62-2.06-1.5-2.6-1.5-.62,0-1.5,1.82-2.12,3.35l-2.12-3.06c1.1-1.39,2.31-2.41,3.3-2.87,.64-1.29,1.21-2.92,1.64-4.5h-3.59c.62-1.5,1.34-3.62,1.98-5.63h-2.84v-2.84h6.59c-.56,1.82-1.26,3.91-1.9,5.74h1.53l.45-.13,1.34,.59Zm-5.04-6.86c-.35-1.18-.99-3.06-1.48-4.48l2.92-.86c.51,1.42,1.15,3.19,1.55,4.34l-3,.99Zm6.24,2.41c-.64-.51-1.9-1.15-2.63-1.5,1.66-1.5,3.03-3.86,3.81-6.22l2.95,.7c-.21,.7-.51,1.39-.8,2.06h1.88v-3h3.16v3h5.84v2.71h-5.84v2.25h6.94v2.68h-17.23v-2.68h1.93Zm10.34,12.44v-.72h-7.24v.8h-3.06v-8.47h13.45v8.39h-3.16Zm-8.52-14.69c-.54,.86-1.13,1.61-1.72,2.25h5.09v-2.25h-3.38Zm8.52,11.28v-2.47h-7.24v2.47h7.24Z"/><path class="cls-11" d="M402.08,128.28c-.08-.38-.19-.8-.32-1.26-5.74,.94-6.7,1.18-7.32,1.47-.16-.56-.67-2.01-.99-2.79,.7-.13,1.34-.78,2.25-1.77,.35-.38,1.05-1.15,1.85-2.22-2.28,.27-2.89,.43-3.32,.62-.16-.59-.62-1.96-.96-2.73,.56-.13,1.04-.64,1.61-1.42,.62-.75,2.44-3.75,3.51-6.59l2.84,1.18c-1.1,2.25-2.49,4.56-3.94,6.46l2.17-.16c.72-1.15,1.45-2.36,2.06-3.56l2.57,1.66c-1.64,2.76-3.73,5.52-5.87,7.83l2.73-.38c-.21-.64-.48-1.29-.72-1.88l2.31-.86c.8,1.72,1.64,3.99,1.98,5.39l-2.44,1.02Zm-4.93,1.5c-.16,2.41-.64,4.96-1.21,6.57-.56-.29-1.88-.72-2.55-.88,.62-1.58,.94-3.97,1.1-6.11l2.65,.43Zm3.14-.64c.32,1.8,.64,4.05,.72,5.57l-2.57,.56c-.05-1.55-.32-3.89-.62-5.66l2.47-.48Zm2.92-.94c.53,1.45,1.1,3.3,1.34,4.53l-2.47,.86c-.16-1.26-.72-3.16-1.18-4.66l2.31-.72Zm10.85-3.3c.32,5.07,.96,8.6,1.8,8.6,.38,0,.54-1.34,.59-4.02,.62,.64,1.63,1.23,2.38,1.56-.35,4.32-1.23,5.41-3.3,5.41-2.76,0-3.91-4.93-4.37-11.55h-3.48v7.69l3.54-1.04c.05,.83,.22,2.09,.38,2.73-5.04,1.69-5.98,2.14-6.54,2.57-.24-.67-.94-1.85-1.39-2.36,.51-.38,1.05-1.13,1.05-2.39v-17.69h.03c3.97-.59,8.36-1.5,11.18-2.41l2.2,2.57c-1.26,.38-2.73,.72-4.21,1.02-.05,2.22-.03,4.37,.03,6.35h4.34v2.95h-4.21Zm-3.08-2.95c-.08-1.85-.11-3.81-.13-5.76-1.07,.19-2.12,.35-3.16,.51v5.25h3.3Z"/></g><polygon class="cls-10" points="352.35 82.29 371.01 85.86 359.57 70 352.35 82.29"/></svg>