<svg width="280" height="14" viewBox="0 0 280 14" fill="none" xmlns="http://www.w3.org/2000/svg">
<path d="M0 1C8.75149 1 8.75149 12.8606 17.497 12.8606C26.2426 12.8606 26.2485 1 35 1C43.7515 1 43.7515 12.8606 52.497 12.8606C61.2426 12.8606 61.2485 1 69.994 1C78.7396 1 78.7455 12.8606 87.4911 12.8606C96.2366 12.8606 96.2426 1 104.994 1C113.746 1 113.746 12.8606 122.497 12.8606C131.249 12.8606 131.243 1 139.988 1C148.734 1 148.74 12.8606 157.485 12.8606C166.231 12.8606 166.237 1 174.988 1C183.74 1 183.74 12.8606 192.491 12.8606C201.243 12.8606 201.237 1 209.988 1C218.74 1 218.74 12.8606 227.491 12.8606C236.243 12.8606 236.243 1 244.994 1C253.746 1 253.746 12.8606 262.497 12.8606C271.248 12.8606 271.249 1 280 1" stroke="#A5DCD9" stroke-width="2" stroke-miterlimit="10"/>
</svg>
